<?xml version="1.0" encoding="UTF-8"?>
<!-- Generator: visioncortex VTracer 0.6.3 -->
<svg version="1.1" xmlns="http://www.w3.org/2000/svg" width="1280" height="681">
<path d="M0 0 C0.99 0.66 1.98 1.32 3 2 C3 2.66 3 3.32 3 4 C3.66 4 4.32 4 5 4 C7.99 9.02 7.49 14.33 7 20 C6.38 22.37 5.61 24.58 4.72 26.86 C3.97 29.1 3.69 31.08 3.5 33.44 C3.22 36.68 2.62 39.52 1.62 42.62 C-0.09 47.97 -1.13 53.38 -2.16 58.9 C-2.79 62.15 -3.59 65.33 -4.43 68.53 C-6.24 75.68 -7.45 82.91 -8.62 90.19 C-8.84 91.49 -9.06 92.79 -9.28 94.13 C-10.17 99.51 -11.03 104.87 -11.59 110.3 C-12 114 -12 114 -13 116 C-13.13 117.38 -13.2 118.76 -13.25 120.14 C-13.28 120.96 -13.31 121.79 -13.35 122.64 C-13.41 124.36 -13.46 126.09 -13.52 127.82 C-13.71 132.56 -14.2 136.53 -16 141 C-15.01 140.67 -14.02 140.34 -13 140 C-12.67 138.35 -12.34 136.7 -12 135 C-11.34 135 -10.68 135 -10 135 C-9.75 134 -9.5 133 -9.25 131.97 C-8.06 127.82 -6.17 124.25 -4.06 120.5 C-1.99 116.78 0 113.11 1.63 109.16 C3.04 105.9 4.44 104.4 7 102 C7.74 100.76 7.74 100.76 8.5 99.5 C10.08 96.86 11.77 95.1 14 93 C15.21 91.7 15.21 91.7 16.44 90.38 C18.97 88.03 20.76 87.05 24 86 C24.66 85.67 25.32 85.34 26 85 C31.6 86.4 31.6 86.4 34 90 C35.74 97.78 34.74 105.78 34.06 113.62 C33.33 123.17 32.78 132.67 32.75 142.25 C32.74 143.68 32.74 143.68 32.72 145.15 C32.75 152.11 33.8 158.39 36 165 C39.03 163.35 41.13 161.86 43.5 159.31 C46 157 46 157 48.81 156.69 C49.9 156.84 49.9 156.84 51 157 C52.5 162.25 51.09 164.9 48.59 169.56 C45.18 174.8 40.92 178.04 35 180 C29.19 180.83 23.62 181.02 18.56 177.75 C11.83 171.83 9.62 162.62 9 154 C8.9 151 8.9 148 8.94 145 C8.94 144.23 8.95 143.45 8.95 142.65 C8.96 140.77 8.98 138.88 9 137 C8.67 137 8.34 137 8 137 C8 135.35 8 133.7 8 132 C8.33 132.66 8.66 133.32 9 134 C9.66 134 10.32 134 11 134 C10.98 133.08 10.95 132.17 10.93 131.23 C10.91 130.04 10.89 128.85 10.88 127.62 C10.85 126.44 10.83 125.26 10.8 124.04 C11 121 11 121 13 119 C13 117.68 13 116.36 13 115 C8.26 122.36 3.99 129.77 0.15 137.62 C-2.91 143.88 -6.15 150.03 -9.41 156.18 C-12.31 161.65 -15.09 167.16 -17.75 172.75 C-18.98 174.96 -20.01 176.45 -22 178 C-25.19 178.19 -25.19 178.19 -28 178 C-33.26 169.93 -34.09 161.73 -34.75 152.25 C-34.87 149.97 -34.87 149.97 -36 148 C-35.95 146.37 -35.82 144.75 -35.66 143.12 C-35.57 142.14 -35.47 141.15 -35.38 140.14 C-35.27 139.1 -35.17 138.07 -35.06 137 C-34.39 130.25 -33.88 123.65 -34.06 116.86 C-34 115 -34 115 -33 114 C-32.76 112.09 -32.59 110.17 -32.44 108.25 C-32.35 107.2 -32.27 106.16 -32.18 105.08 C-31.95 102.07 -31.95 102.07 -32.1 99.36 C-31.99 96.68 -31.23 95.35 -30 93 C-28.67 87.34 -27.87 81.69 -28 75.88 C-28 72 -28 72 -26 70 C-26 68.68 -26 67.36 -26 66 C-26 62 -26 62 -24 60 C-23.83 57.42 -23.83 57.42 -24 55 C-24.98 55.23 -24.98 55.23 -25.99 55.46 C-28.95 56.14 -31.91 56.82 -34.88 57.5 C-35.91 57.74 -36.94 57.98 -38 58.22 C-38.99 58.45 -39.98 58.67 -40.99 58.91 C-41.9 59.12 -42.81 59.33 -43.75 59.54 C-46 60 -46 60 -48 60 C-48.31 61.59 -48.31 61.59 -48.62 63.21 C-48.89 64.6 -49.17 65.99 -49.44 67.38 C-49.64 68.42 -49.64 68.42 -49.85 69.49 C-50.89 74.77 -50.89 74.77 -52 77 C-52.2 78.66 -52.36 80.33 -52.5 82 C-52.89 86.78 -52.89 86.78 -54 89 C-54.28 91.59 -54.52 94.16 -54.72 96.75 C-54.78 97.53 -54.84 98.3 -54.91 99.1 C-55.11 101.59 -55.31 104.08 -55.5 106.56 C-55.7 109.02 -55.89 111.49 -56.09 113.95 C-56.21 115.48 -56.34 117.01 -56.45 118.54 C-56.75 122.26 -57.1 125.97 -57.53 129.67 C-57.91 133.09 -58.18 136.48 -58.32 139.91 C-58.36 140.92 -58.4 141.93 -58.44 142.97 C-58.48 143.99 -58.52 145.01 -58.56 146.06 C-58.61 147.12 -58.65 148.18 -58.69 149.26 C-58.8 151.84 -58.9 154.42 -59 157 C-53.9 155.44 -53.9 155.44 -50 152 C-47.13 148.74 -45.36 147.48 -41 147 C-39.17 150.18 -38.9 151.59 -39.81 155.19 C-43.41 162.5 -49.47 168.9 -57 172 C-61.55 172.84 -65.11 172.4 -69.31 170.5 C-77.19 163.17 -78.7 151.81 -79.1 141.51 C-79.13 138.88 -79.14 136.26 -79.12 133.62 C-79.12 132.21 -79.12 132.21 -79.12 130.76 C-79.07 124.27 -78.89 117.79 -78.56 111.31 C-78.5 110.12 -78.5 110.12 -78.44 108.9 C-78.26 105.73 -78.01 103.03 -77 100 C-76.96 97.67 -76.96 95.33 -77 93 C-77.62 93.82 -78.24 94.65 -78.88 95.5 C-79.58 96.32 -80.28 97.15 -81 98 C-81.66 98 -82.32 98 -83 98 C-83.25 98.56 -83.49 99.12 -83.75 99.69 C-85.23 102.43 -87.04 104.57 -89.06 106.94 C-96.85 116.36 -103.27 125.9 -108.49 136.91 C-110 140 -110 140 -111.51 142.41 C-113.44 145.77 -114.68 149.29 -115.94 152.94 C-116.2 153.68 -116.46 154.43 -116.73 155.19 C-118.75 161.05 -120.43 166.94 -121.95 172.95 C-123.35 177.02 -124.99 180.96 -128.96 183.02 C-131.11 183.27 -132.87 183.38 -135 183 C-140.02 178.78 -141.85 173.07 -144 167 C-143.34 167 -142.68 167 -142 167 C-142.99 164.03 -143.98 161.06 -145 158 C-146.98 161.96 -148.96 165.92 -151 170 C-151.66 170 -152.32 170 -153 170 C-153.25 170.72 -153.5 171.44 -153.76 172.19 C-157.23 180.06 -164.73 188.31 -172 193 C-175.62 194.37 -179.18 194.4 -183 194 C-189.45 190.08 -191.68 184.66 -193.69 177.57 C-197.47 160.29 -196.36 134.76 -188.06 118.88 C-186.07 116.1 -185.1 115.18 -182 114 C-181.5 113.01 -181.5 113.01 -181 112 C-177.36 111.67 -175.62 111.51 -172.69 113.81 C-169.23 118.29 -169.81 122.98 -169.81 128.38 C-169.81 129.3 -169.81 130.23 -169.81 131.19 C-169.87 138.73 -170.48 146.14 -171.28 153.64 C-172.01 160.46 -172.23 167.13 -172 174 C-171.34 174 -170.68 174 -170 174 C-168.6 172.05 -167.28 170.04 -166 168 C-164.69 165.98 -163.38 163.96 -162.06 161.94 C-161.41 160.94 -160.77 159.93 -160.1 158.9 C-158 156 -158 156 -155.45 153.55 C-146.47 144.19 -144.85 129.89 -145 117.56 C-145.04 116.37 -145.04 116.37 -145.07 115.16 C-145.21 109.31 -145.21 109.31 -143 106 C-143.02 104.85 -143.04 103.69 -143.06 102.5 C-143 99 -143 99 -141.5 97.06 C-141 96.71 -140.51 96.36 -140 96 C-140.99 95.5 -140.99 95.5 -142 95 C-141.01 95 -140.02 95 -139 95 C-138.77 94.13 -138.55 93.27 -138.31 92.38 C-136.74 88.33 -135.21 85.93 -132 83 C-128.94 82.2 -127.26 82.48 -124 83 C-120.76 85.33 -119.67 87.15 -119 91 C-118.92 93.69 -118.88 96.36 -118.9 99.05 C-118.9 99.82 -118.91 100.59 -118.91 101.38 C-118.91 103.84 -118.92 106.29 -118.94 108.75 C-118.94 110.42 -118.95 112.09 -118.95 113.75 C-118.96 117.84 -118.98 121.92 -119 126 C-118.34 126 -117.68 126 -117 126 C-116.83 124.71 -116.83 124.71 -116.66 123.39 C-115.98 119.91 -114.91 117.05 -113.5 113.81 C-112.23 110.88 -111.01 108.03 -110 105 C-109.34 105 -108.68 105 -108 105 C-108.33 103.68 -108.66 102.36 -109 101 C-108.34 101 -107.68 101 -107 101 C-106.5 99.51 -106.5 99.51 -106 98 C-105.34 97.34 -104.68 96.68 -104 96 C-103.73 95.38 -103.46 94.76 -103.19 94.12 C-101.63 91.33 -99.54 89.91 -97 88 C-96.34 87.34 -95.68 86.68 -95 86 C-93.67 85.32 -92.34 84.65 -91 84 C-90.67 83.67 -90.34 83.34 -90 83 C-88.21 82.85 -86.42 82.78 -84.62 82.75 C-83.65 82.72 -82.67 82.7 -81.66 82.67 C-79 83 -79 83 -77.15 84.52 C-76.77 85.01 -76.39 85.5 -76 86 C-74.95 82.28 -74.46 78.52 -73.94 74.69 C-73.67 72.78 -73.67 72.78 -73.4 70.82 C-73.02 67.18 -72.93 63.66 -73 60 C-73.71 59.89 -74.43 59.78 -75.16 59.67 C-81.72 58.58 -87.44 57.45 -93 53.62 C-94 52 -94 52 -93.75 49.38 C-93 47 -93 47 -92 46 C-88.26 45.97 -84.53 46.03 -80.79 46.13 C-74.58 46.33 -74.58 46.33 -69 44 C-67.77 41.09 -67.77 41.09 -67.25 37.69 C-67.03 36.56 -66.81 35.43 -66.58 34.26 C-66.39 33.19 -66.2 32.11 -66 31 C-65.18 26.65 -64.03 22.93 -62 19 C-61.55 18.1 -61.1 17.2 -60.63 16.27 C-60.14 15.32 -59.64 14.36 -59.12 13.38 C-58.63 12.41 -58.14 11.45 -57.63 10.46 C-55.9 7.85 -54.94 6.96 -52 6 C-48.28 6.31 -45.16 6.97 -42 9 C-38.53 14.2 -39.69 19.99 -40.88 25.93 C-41.24 27.58 -41.62 29.23 -42 30.88 C-42.38 32.54 -42.75 34.2 -43.12 35.87 C-43.38 36.95 -43.38 36.95 -43.63 38.06 C-44.09 40.16 -44.09 40.16 -44 43 C-43.2 43.04 -42.41 43.07 -41.59 43.11 C-33.48 43.62 -28.49 45.08 -22 50 C-21.18 46.65 -20.37 43.29 -19.56 39.94 C-19.33 38.99 -19.1 38.05 -18.87 37.08 C-17.89 33.02 -16.94 29.02 -16.4 24.88 C-16 22 -16 22 -15 21 C-14.81 19.11 -14.81 19.11 -14.62 17.19 C-14.23 13.61 -13.43 11.73 -11 9 C-10.67 8.01 -10.34 7.02 -10 6 C-9.34 6 -8.68 6 -8 6 C-8.33 5.01 -8.66 4.02 -9 3 C-5.95 0.29 -4.08 -0.52 0 0 Z " fill="#FB461D" transform="translate(660,317)"/>
<path d="M0 0 C0.79 -0.05 1.58 -0.1 2.4 -0.15 C4.62 0.38 4.62 0.38 6.31 2.52 C7.95 6.09 7.59 7.8 6.82 11.63 C5.54 19.18 5.35 26.45 5.42 34.09 C5.44 36.27 5.44 38.45 5.44 40.62 C5.46 47.3 5.71 53.76 6.62 60.38 C7.62 60.05 8.61 59.72 9.62 59.38 C9.62 58.72 9.62 58.06 9.62 57.38 C10.28 57.38 10.94 57.38 11.62 57.38 C13.36 54.21 14.34 51.11 15.25 47.62 C15.51 46.64 15.77 45.66 16.04 44.64 C16.23 43.89 16.43 43.15 16.62 42.38 C17.62 42.38 18.61 42.38 19.62 42.38 C19.74 41.69 19.86 41 19.98 40.29 C21.98 31.23 25.89 22.5 29.51 14 C30.27 12.22 30.98 10.42 31.65 8.6 C32.88 5.8 33.89 5.58 36.62 4.38 C37.55 3.29 37.55 3.29 38.5 2.19 C40.62 0.38 40.62 0.38 43.44 0.25 C49.28 2.31 53.14 5.96 56 11.44 C58.58 16.92 58.77 22.34 58.76 28.32 C58.76 29.1 58.76 29.87 58.76 30.66 C58.76 32.3 58.76 33.94 58.76 35.57 C58.75 38.01 58.76 40.45 58.76 42.88 C58.77 53.75 58.34 64.54 57.62 75.38 C58.62 75.38 59.61 75.38 60.62 75.38 C60.71 74.8 60.79 74.22 60.88 73.62 C61.85 70.7 63.4 69.54 65.62 67.38 C69.48 62.61 69.48 62.61 72.62 57.38 C73.37 56.45 73.37 56.45 74.12 55.5 C75.74 53.49 75.74 53.49 76.12 51.19 C76.29 50.59 76.46 49.99 76.62 49.38 C77.62 49.05 78.61 48.72 79.62 48.38 C81.62 49.88 81.62 49.88 83.62 52.38 C84.87 61.39 81.04 68.65 75.94 75.88 C70.97 82.42 65.54 88.6 59.62 94.31 C56.41 97.63 56.48 100.62 56.38 105.04 C56.33 106.72 56.33 106.72 56.28 108.44 C56.22 110.79 56.16 113.14 56.11 115.49 C55.93 121.27 55.55 126.64 54.14 132.25 C53.21 136.09 52.78 140.02 52.25 143.94 C49.01 166.33 43.23 191.97 24.73 206.89 C18.56 211.24 12.1 212.68 4.62 212.38 C-2.68 210.98 -7.41 208.17 -12.04 202.38 C-17.14 194.76 -17.17 184.65 -15.89 175.72 C-14.22 168.09 -11.88 160.38 -8.38 153.38 C-7.72 153.04 -7.06 152.72 -6.38 152.38 C-6.23 151.49 -6.09 150.6 -5.94 149.69 C-5.33 146.08 -4.21 143.52 -2.38 140.38 C-1.72 140.04 -1.06 139.72 -0.38 139.38 C-0.04 138.55 0.28 137.73 0.62 136.88 C1.62 134.38 1.62 134.38 3.62 133.38 C7.18 129.78 10.14 126.29 11.62 121.38 C12.28 121.38 12.94 121.38 13.62 121.38 C14.12 119.89 14.12 119.89 14.62 118.38 C15.64 117.55 16.65 116.73 17.69 115.88 C18.66 115.05 19.63 114.23 20.62 113.38 C20.62 112.38 20.62 111.39 20.62 110.38 C21.28 110.38 21.94 110.38 22.62 110.38 C22.96 109.72 23.28 109.06 23.62 108.38 C25.42 106.8 27.27 105.31 29.13 103.81 C29.62 103.34 30.12 102.86 30.62 102.38 C30.62 101.72 30.62 101.06 30.62 100.38 C31.28 99.72 31.94 99.06 32.62 98.38 C32.61 95.62 32.49 92.99 32.25 90.25 C32.19 89.5 32.14 88.74 32.08 87.96 C31.94 86.1 31.78 84.24 31.62 82.38 C31.96 83.03 32.28 83.69 32.62 84.38 C33.28 84.38 33.94 84.38 34.62 84.38 C34.49 80.92 34.34 77.46 34.19 74 C34.15 73.02 34.11 72.03 34.07 71.02 C34.03 70.07 33.98 69.13 33.94 68.16 C33.9 67.29 33.87 66.43 33.83 65.53 C33.75 63.33 33.75 63.33 32.62 61.38 C32.53 59.27 32.5 57.17 32.5 55.06 C32.5 53.37 32.5 53.37 32.49 51.64 C32.61 48.75 32.96 46.18 33.62 43.38 C32.63 43.38 31.64 43.38 30.62 43.38 C30.52 44.22 30.42 45.07 30.32 45.95 C28.34 55.69 22.17 65.04 15.62 72.38 C15.19 72.92 14.76 73.47 14.31 74.04 C11.85 75.99 9.52 76.13 6.44 76.56 C5.35 76.72 4.26 76.88 3.14 77.04 C1.9 77.21 1.9 77.21 0.62 77.38 C0.49 77.92 0.35 78.47 0.21 79.03 C-2.65 89.07 -9.23 96.08 -17.38 102.38 C-21.06 104.22 -25.34 103.73 -29.38 103.38 C-35.6 100.81 -38.79 95.37 -41.38 89.38 C-43.32 83.25 -43.61 77.78 -43.38 71.38 C-44.03 71.38 -44.7 71.38 -45.38 71.38 C-46.03 73.36 -46.7 75.33 -47.38 77.38 C-48.03 77.38 -48.7 77.38 -49.38 77.38 C-49.61 78.11 -49.85 78.85 -50.09 79.61 C-51.57 82.8 -53.21 84.36 -55.88 86.62 C-56.67 87.31 -57.46 88 -58.28 88.7 C-62.67 92.21 -66.94 91.81 -72.38 91.38 C-78.99 89.3 -83.51 83.93 -86.67 77.91 C-93.41 62.07 -91.65 42.69 -85.43 26.99 C-83.56 22.54 -81.52 19.08 -78.38 15.38 C-78.38 14.71 -78.38 14.06 -78.38 13.38 C-77.6 13.25 -77.6 13.25 -76.81 13.12 C-74.11 12.41 -74.11 12.41 -71.06 10.31 C-67.4 8.16 -64.65 7.9 -60.38 8.38 C-57.44 9.38 -57.44 9.38 -55.38 10.38 C-55.38 11.04 -55.38 11.69 -55.38 12.38 C-54.72 12.38 -54.05 12.38 -53.38 12.38 C-53.38 13.04 -53.38 13.69 -53.38 14.38 C-52.72 14.38 -52.05 14.38 -51.38 14.38 C-47.6 20.19 -45.41 24.37 -46.38 31.38 C-47.88 33.38 -47.88 33.38 -49.38 34.38 C-53.5 32.89 -54.67 30.57 -56.62 26.75 C-57.41 25.25 -57.41 25.25 -58.2 23.71 C-58.78 22.55 -58.78 22.55 -59.38 21.38 C-62.36 21.69 -63.35 22.35 -65.48 24.54 C-71.33 33.3 -71.75 44.03 -71.81 54.25 C-71.82 55.21 -71.83 56.17 -71.84 57.17 C-71.77 62.98 -71.5 69.29 -68.38 74.38 C-65.37 75.55 -63.42 75.35 -60.38 74.38 C-60.25 73.48 -60.25 73.48 -60.12 72.56 C-59.38 70.38 -59.38 70.38 -57.53 69.14 C-54.65 66.78 -53.68 64.32 -52.19 60.94 C-51.42 59.24 -51.42 59.24 -50.64 57.5 C-49.66 55.08 -48.91 52.92 -48.38 50.38 C-48.21 49.74 -48.04 49.1 -47.88 48.45 C-46.49 43.05 -45.3 37.92 -45.44 32.31 C-45.53 24.67 -44.7 16.33 -41.38 9.38 C-39.25 7.62 -39.25 7.62 -37.38 6.38 C-37.38 6.05 -37.38 5.71 -37.38 5.38 C-33.21 5.18 -29.93 5.07 -26.38 7.38 C-22.31 15.09 -22.9 23.41 -22.86 31.91 C-22.85 33.51 -22.83 35.11 -22.81 36.71 C-22.76 40.91 -22.73 45.11 -22.71 49.3 C-22.68 53.59 -22.63 57.88 -22.58 62.17 C-22.5 70.57 -22.43 78.97 -22.38 87.38 C-20.5 88.06 -20.5 88.06 -18.38 88.38 C-13.21 84.27 -9.55 78.61 -7.31 72.44 C-7.39 68.67 -8.55 66.22 -10.27 62.91 C-13.26 56.05 -13.79 49.2 -14.06 41.81 C-14.1 40.85 -14.14 39.88 -14.18 38.88 C-15 14.55 -15 14.55 -10.38 4.38 C-7.75 2.25 -7.75 2.25 -5.38 1.38 C-3.8 -0.2 -2.18 0.09 0 0 Z M32.62 40.38 C33.62 42.38 33.62 42.38 33.62 42.38 Z M31.62 118.38 C17.8 133.81 6.06 151.64 -1.44 170.99 C-2.38 173.38 -2.38 173.38 -3.48 175.17 C-4.88 178.63 -4.7 182.14 -4.69 185.81 C-4.7 186.56 -4.72 187.31 -4.74 188.09 C-4.74 192.67 -4.34 195.66 -1.38 199.38 C1.51 201.74 1.51 201.74 5.12 201.12 C8.72 200.58 8.72 200.58 11.62 198.38 C11.62 197.38 11.62 196.39 11.62 195.38 C12.28 195.38 12.94 195.38 13.62 195.38 C13.62 194.72 13.62 194.06 13.62 193.38 C14.24 193.28 14.86 193.18 15.5 193.08 C18.04 192.49 18.04 192.49 19.62 189.06 C26.73 173.28 29.29 156.24 31.38 139.19 C31.5 138.15 31.63 137.11 31.76 136.04 C32.44 130.11 32.75 124.35 32.62 118.38 C32.29 118.38 31.97 118.38 31.62 118.38 Z " fill="#FB461D" transform="translate(862.375,366.625)"/>
<path d="M0 0 C0 0.66 0 1.32 0 2 C0.87 2.27 1.73 2.54 2.62 2.81 C13.11 6.5 18.73 13.43 24 23 C28.36 32.17 28.4 41.55 28.38 51.5 C28.37 52.22 28.37 52.93 28.37 53.67 C28.34 64.29 27.76 73.96 24 84 C23.49 85.46 23.49 85.46 22.97 86.94 C17.95 100.09 11.1 113.25 2 124 C0.33 126.17 -1.3 128.37 -2.94 130.56 C-3.71 131.6 -4.48 132.63 -5.28 133.69 C-5.85 134.45 -6.41 135.22 -7 136 C-5.94 136.26 -4.88 136.52 -3.79 136.79 C3.05 138.97 9.11 143.95 13 150 C13.55 150.85 13.55 150.85 14.12 151.71 C18.73 160.04 18.34 170.64 16.08 179.67 C13.64 186.42 10.31 192.29 6 198 C5.38 198.84 4.77 199.68 4.13 200.55 C0.63 205.22 0.63 205.22 -1 207 C-1.66 207 -2.32 207 -3 207 C-3 207.66 -3 208.32 -3 209 C-3.66 209 -4.32 209 -5 209 C-5 209.66 -5 210.32 -5 211 C-6.9 212.68 -8.79 214.22 -10.81 215.75 C-11.4 216.2 -11.99 216.65 -12.6 217.11 C-24.49 225.96 -38.08 232.47 -53.19 231.88 C-56.17 231.81 -56.17 231.81 -59.12 233.62 C-62 235 -62 235 -64.08 234.31 C-67.57 231.93 -68.11 227.92 -69 224 C-71.24 211.52 -71.28 199.1 -71.21 186.46 C-71.19 183.18 -71.19 179.89 -71.19 176.6 C-71.18 174.48 -71.17 172.35 -71.17 170.23 C-71.17 169.27 -71.17 168.3 -71.16 167.31 C-71.13 161.63 -70.8 156.05 -70.24 150.41 C-69.78 145.74 -69.62 141.06 -69.44 136.38 C-69.39 135.31 -69.35 134.25 -69.31 133.16 C-68.97 124.06 -68.93 114.98 -69.04 105.88 C-69.05 104.89 -69.05 103.9 -69.06 102.88 C-69.07 102.01 -69.09 101.14 -69.1 100.24 C-69 98 -69 98 -68 95 C-67.74 92.8 -67.51 90.59 -67.32 88.38 C-67.26 87.73 -67.2 87.08 -67.13 86.4 C-66.88 83.62 -66.63 80.84 -66.38 78.06 C-65.65 69.94 -64.77 61.9 -63.38 53.86 C-62.98 50.88 -62.94 48.01 -63 45 C-62.34 45 -61.68 45 -61 45 C-61.02 44.17 -61.05 43.34 -61.07 42.48 C-61.09 41.39 -61.11 40.31 -61.12 39.19 C-61.15 38.11 -61.17 37.03 -61.2 35.92 C-61 33 -61 33 -59 30 C-58.4 27.93 -58.4 27.93 -58 25.69 C-56.68 19.41 -55.29 14.9 -51 10 C-50.64 9.46 -50.28 8.91 -49.91 8.36 C-48.75 6.69 -48.75 6.69 -46 4 C-41.05 3.45 -36.9 4.16 -32 5 C-31.67 4.67 -31.34 4.34 -31 4 C-29.33 3.96 -27.67 3.96 -26 4 C-25.67 3.34 -25.34 2.68 -25 2 C-21.95 -1.05 -18.3 -0.51 -14.19 -0.69 C-12.98 -0.76 -12.98 -0.76 -11.74 -0.83 C-7.65 -1.03 -3.99 -1.08 0 0 Z M-32 19 C-33.91 23.91 -34.32 28.72 -34.5 33.94 C-35.52 56.04 -35.52 56.04 -38 61 C-38.32 64.63 -38.51 68.27 -38.72 71.91 C-39 75 -39 75 -40 76 C-40.17 78.9 -40.28 81.79 -40.38 84.69 C-40.67 92.34 -41.43 99.81 -42.56 107.38 C-43.8 115.68 -44.39 123.59 -44 132 C-40.18 129.86 -37 127.42 -33.75 124.5 C-32.88 123.73 -32.01 122.95 -31.11 122.16 C-28.79 120.1 -28.79 120.1 -28 117 C-26.51 116.5 -26.51 116.5 -25 116 C-22.95 113.31 -22.95 113.31 -21 110 C-20.63 109.4 -20.27 108.8 -19.89 108.19 C-18.11 105.2 -16.55 102.46 -16 99 C-15.01 99 -14.02 99 -13 99 C-11.53 96.36 -10.07 93.72 -8.62 91.06 C-8.01 89.96 -8.01 89.96 -7.38 88.83 C-4.9 84.26 -3.31 80.05 -2.37 74.92 C-1.75 71.7 -0.52 68.89 1.12 66.06 C2.19 63.92 2.19 63.92 2 61.06 C2 58 2 58 2.98 55.76 C5.7 48.37 5.09 36.31 2 29 C-0.23 26.19 -0.23 26.19 -3 24 C-3.8 23.11 -4.61 22.23 -5.44 21.31 C-10.11 17.09 -14.99 16.72 -21.12 16.75 C-22.32 16.74 -23.52 16.74 -24.76 16.73 C-28.75 16.98 -28.75 16.98 -32 19 Z M-46 162 C-51.95 170.93 -50.59 185.76 -51.12 196.31 C-51.21 197.94 -51.3 199.57 -51.39 201.19 C-51.6 205.13 -51.8 209.06 -52 213 C-46.47 211.72 -41.92 208.77 -37 206 C-36.01 205.47 -35.02 204.94 -34 204.4 C-21.86 197.73 -7.13 186.35 -2 173 C-1.28 169.79 -1.17 167.2 -2 164 C-5.02 159.42 -8.71 154.89 -14 153 C-26.11 151.69 -36.4 154.49 -46 162 Z " fill="#FB461D" transform="translate(440,328)"/>
<path d="M0 0 C2.49 2.02 3.79 4.04 5 7 C5.24 9.84 5.24 9.84 5.23 13.09 C5.23 14.26 5.23 15.44 5.22 16.66 C5.21 17.88 5.2 19.11 5.19 20.38 C5.19 22.2 5.19 22.2 5.19 24.07 C5.16 29.52 4.94 34.62 4 40 C3.88 41.58 3.78 43.17 3.72 44.75 C3.68 45.61 3.64 46.46 3.61 47.34 C3.57 48.22 3.54 49.1 3.5 50 C3.43 51.75 3.36 53.5 3.28 55.25 C3.25 56.02 3.22 56.79 3.19 57.58 C3 60 3 60 2.51 62.95 C2.02 65.86 1.77 68.68 1.61 71.62 C0.81 84.68 -0.29 97.65 -1.94 110.62 C-2.1 111.91 -2.25 113.19 -2.42 114.52 C-4.94 133.73 -4.94 133.73 -11 140 C-14.46 139.76 -16.48 139.43 -19.19 137.19 C-24.58 127.7 -24.39 117.06 -24.19 106.44 C-24.17 105.07 -24.16 103.71 -24.15 102.34 C-24.11 98.89 -24.06 95.45 -24 92 C-24 89.52 -24.18 87.26 -24.5 84.81 C-24.66 83.55 -24.83 82.3 -25 81 C-29.98 81 -33.16 82.68 -37.64 84.71 C-41.69 86.27 -45.75 87.16 -50 88 C-50.2 89.62 -50.2 89.62 -50.41 91.28 C-50.92 95.36 -51.45 99.44 -51.97 103.52 C-52.2 105.28 -52.42 107.03 -52.64 108.78 C-56.48 139.48 -56.48 139.48 -62 145 C-65.44 146.19 -65.44 146.19 -69 146 C-72.89 143.49 -74.3 140.87 -75.38 136.5 C-75.96 132.57 -75.94 129.03 -75.57 125.07 C-74.95 117.82 -74.75 110.59 -74.56 103.31 C-74.14 88.96 -72.8 75.06 -70.6 60.88 C-69.5 53.73 -68.42 46.58 -67.34 39.42 C-67.07 37.63 -66.8 35.84 -66.53 34.05 C-66.13 31.43 -65.74 28.8 -65.34 26.17 C-65.22 25.38 -65.1 24.6 -64.98 23.78 C-64.28 19.16 -63.72 14.54 -63.29 9.88 C-62.69 6.02 -60.64 4.47 -57.62 2.25 C-54.78 0.9 -53.09 0.9 -50 1 C-45.53 7.63 -44.28 12.72 -44.48 20.65 C-44.48 21.63 -44.49 22.62 -44.49 23.63 C-44.51 26.73 -44.57 29.83 -44.62 32.94 C-44.64 35.05 -44.66 37.16 -44.67 39.27 C-44.7 43.11 -44.74 46.95 -44.81 50.78 C-44.82 51.55 -44.83 52.32 -44.85 53.11 C-45 55 -45 55 -46 57 C-46.04 59 -46.04 61 -46 63 C-43.69 63.33 -41.38 63.66 -39 64 C-39 63.34 -39 62.68 -39 62 C-36.69 62 -34.38 62 -32 62 C-32 61.34 -32 60.68 -32 60 C-30.02 60 -28.04 60 -26 60 C-26 59.34 -26 58.68 -26 58 C-23 56 -23 56 -20 55 C-19.99 54.25 -19.97 53.51 -19.96 52.74 C-19.56 43.44 -18.23 34.36 -16.69 25.19 C-16.49 23.95 -16.29 22.71 -16.08 21.43 C-14.69 13.43 -12.64 6.27 -9 -1 C-5.47 -2.51 -3.33 -1.71 0 0 Z M-24 79 C-23 81 -23 81 -23 81 Z " fill="#FB461D" transform="translate(541,174)"/>
<path d="M0 0 C2.99 2.87 3.37 5.43 3.49 9.48 C3.5 10.19 3.51 10.89 3.51 11.61 C3.53 12.34 3.55 13.06 3.57 13.81 C3.62 16.12 3.65 18.44 3.69 20.75 C3.72 22.32 3.76 23.89 3.79 25.46 C3.88 29.31 3.94 33.15 4 37 C4.78 37.3 5.55 37.61 6.35 37.92 C9.95 39.39 13.12 41.38 16.42 43.42 C18.06 44.42 19.71 45.4 21.39 46.33 C26.78 49.39 26.78 49.39 28 52.81 C28 53.53 28 54.26 28 55 C24.43 58.11 21.19 59.94 16.75 61.56 C15.05 62.2 15.05 62.2 13.31 62.85 C10.49 63.83 7.68 64.65 4.81 65.44 C1.43 66.54 1.43 66.54 -0.44 69.69 C-0.72 71.33 -0.72 71.33 -1 73 C-1.46 74.7 -1.46 74.7 -1.94 76.44 C-2.92 80.41 -3.67 84.42 -4.44 88.44 C-7.52 103.97 -7.52 103.97 -12 108 C-14.97 106.88 -17.33 105.78 -20 104 C-20 103.34 -20 102.68 -20 102 C-21.49 101.5 -21.49 101.5 -23 101 C-23.33 100.01 -23.66 99.02 -24 98 C-24.7 97.61 -25.4 97.22 -26.12 96.81 C-28.86 95.09 -30.32 93.63 -32.38 91.19 C-38.34 84.08 -38.34 84.08 -46.44 80 C-49.85 80 -52.63 80.58 -55.89 81.52 C-58.91 82.21 -61.78 82.09 -64.85 82 C-67.23 81.94 -67.23 81.94 -70.44 82.62 C-75.24 83.13 -79.44 82.62 -84 81 C-86.38 78.88 -86.38 78.88 -87 76 C-84.77 68.64 -79.18 63.57 -73.97 58.15 C-71.16 55.22 -68.57 52.15 -66 49 C-66.89 47.64 -67.79 46.29 -68.69 44.94 C-69.23 44.11 -69.78 43.29 -70.34 42.44 C-71.75 40.36 -73.23 38.37 -74.75 36.38 C-77.16 33.06 -78.11 29.98 -79 26 C-77.36 23.68 -75.92 22.22 -73.11 21.55 C-70.4 21.27 -67.71 21.13 -65 21 C-63.65 20.91 -62.3 20.82 -60.95 20.73 C-59.49 20.63 -58.03 20.53 -56.56 20.44 C-55.82 20.39 -55.09 20.34 -54.32 20.29 C-50.2 20.05 -46.25 20.09 -42.12 20.38 C-35.49 20.44 -31.13 16.85 -26 13 C-24 11.54 -22 10.08 -20 8.62 C-18.67 7.62 -18.67 7.62 -17.31 6.6 C-15 5 -15 5 -12 4 C-11.67 3.34 -11.34 2.68 -11 2 C-7.31 0.49 -3.98 -0.65 0 0 Z " fill="#FC82C0" transform="translate(472,62)"/>
<path d="M0 0 C3.59 0.7 4.51 1.82 6.88 4.56 C20.21 28.56 22.19 64.32 23.63 91.36 C23.79 94.42 23.79 94.42 24.38 96.78 C25 100.28 25.06 103.73 25.08 107.28 C25.08 108.01 25.09 108.74 25.1 109.5 C25.1 111.05 25.11 112.59 25.12 114.14 C25.12 116.49 25.16 118.84 25.19 121.19 C25.19 122.7 25.2 124.21 25.2 125.71 C25.22 126.41 25.23 127.11 25.24 127.83 C25.22 132.48 24.32 135.61 21.88 139.56 C17.91 143.15 15.56 144.7 10.25 144.62 C9.43 144.62 8.62 144.61 7.77 144.6 C6.83 144.58 6.83 144.58 5.88 144.56 C4.23 140.23 3.64 136.69 3.68 132.07 C3.69 130.87 3.69 129.67 3.7 128.44 C3.72 127.2 3.73 125.96 3.75 124.69 C3.76 123.43 3.77 122.17 3.78 120.87 C3.8 117.77 3.83 114.66 3.88 111.56 C3.36 111.83 2.84 112.1 2.3 112.38 C-1.48 114.32 -5.07 116.03 -9.19 117.12 C-10.84 117.57 -12.49 118.05 -14.12 118.56 C-15.88 119 -15.88 119 -17.68 119.45 C-20.23 120.57 -21.01 121.35 -22.34 123.85 C-23.41 126.81 -24.33 129.78 -25.19 132.81 C-29.3 146.88 -29.3 146.88 -35.12 151.56 C-38.98 152.76 -40.9 153.21 -44.5 151.31 C-47.53 148.05 -47.33 144.57 -47.29 140.3 C-47.03 136.01 -46.27 131.83 -45.56 127.6 C-45.2 125.11 -45.04 122.88 -45.12 120.38 C-45.12 117.56 -45.12 117.56 -43.12 115.56 C-43.12 114.41 -43.12 113.25 -43.12 112.06 C-43.12 108.56 -43.12 108.56 -41.12 106.56 C-40.48 103.81 -40.48 103.81 -40.06 100.69 C-39.55 97.26 -39.02 93.91 -38.12 90.56 C-37.96 89.74 -37.79 88.91 -37.62 88.06 C-36.75 83.68 -35.54 79.38 -34.38 75.06 C-32.69 68.79 -31.08 62.49 -29.5 56.19 C-29.29 55.37 -29.09 54.55 -28.88 53.71 C-27.54 48.34 -26.3 42.96 -25.12 37.56 C-24.79 37.56 -24.47 37.56 -24.12 37.56 C-23.94 36.73 -23.76 35.9 -23.57 35.04 C-23.32 33.96 -23.07 32.87 -22.81 31.75 C-22.57 30.67 -22.33 29.59 -22.07 28.48 C-21.12 25.53 -20.34 24.58 -18.12 22.56 C-17.96 21.57 -17.79 20.58 -17.62 19.56 C-17.08 16.29 -16.53 15.66 -14.12 13.56 C-13.79 12.57 -13.47 11.58 -13.12 10.56 C-9.74 5.79 -5.97 1.08 0 0 Z M-2.12 45.56 C-4.36 48.92 -4.81 51.31 -5.56 55.25 C-6.5 59.88 -7.59 64.1 -9.38 68.45 C-10.74 72.29 -11.49 76.28 -12.37 80.25 C-13.07 83.33 -13.88 86.34 -14.75 89.38 C-15.98 93.78 -16.7 98.01 -17.12 102.56 C-15.14 102.56 -13.16 102.56 -11.12 102.56 C-11.12 102.23 -11.12 101.9 -11.12 101.56 C-10.22 101.44 -9.31 101.31 -8.38 101.19 C-5.47 100.63 -3.7 99.89 -1.12 98.56 C0.53 98.19 2.2 97.84 3.88 97.56 C3.88 94.26 3.88 90.96 3.88 87.56 C3.22 87.56 2.55 87.56 1.88 87.56 C2.21 86.9 2.53 86.24 2.88 85.56 C3.3 78.71 3.06 72.31 1.31 65.67 C0.7 62.7 0.85 59.86 0.94 56.85 C0.83 52.97 -0.14 49.3 -1.12 45.56 C-1.46 45.56 -1.78 45.56 -2.12 45.56 Z " fill="#FB461D" transform="translate(595.125,159.4375)"/>
<path d="M0 0 C9.11 -0.63 9.11 -0.63 12.56 1.81 C17.59 9.46 16.16 21.3 16.17 30.11 C16.17 31.79 16.17 31.79 16.18 33.51 C16.18 35.87 16.19 38.23 16.19 40.59 C16.19 44.16 16.21 47.73 16.22 51.29 C16.25 63.36 16.05 75.09 14 87 C13.85 87.89 13.7 88.79 13.54 89.71 C13.14 91.9 12.68 94.08 12.19 96.25 C12.02 97 11.85 97.75 11.67 98.53 C8.09 113.51 0.92 129.9 -12.4 138.56 C-19.98 142.89 -26.27 143.74 -35 143 C-41.94 140.97 -46.83 136.4 -50.31 130.12 C-52.58 125.28 -52.69 121.08 -51 116 C-47.19 116.55 -45.58 118.15 -43 120.94 C-39.58 124.62 -37.12 126.73 -32.06 127.38 C-28.22 126.9 -26.72 125.72 -24 123 C-22.73 120.97 -22.73 120.97 -22 119 C-21.67 118.34 -21.34 117.68 -21 117 C-20.65 115.67 -20.31 114.34 -20 113 C-19.01 113 -18.02 113 -17 113 C-16.28 110.18 -15.62 107.35 -15 104.5 C-14.38 101.65 -13.72 98.82 -13 96 C-12.67 96 -12.34 96 -12 96 C-11.34 90.39 -10.68 84.78 -10 79 C-10.66 79 -11.32 79 -12 79 C-12 79.66 -12 80.32 -12 81 C-12.66 81 -13.32 81 -14 81 C-14 81.66 -14 82.32 -14 83 C-14.66 83 -15.32 83 -16 83 C-16 83.66 -16 84.32 -16 85 C-18.23 86.87 -18.23 86.87 -21.19 89 C-22.15 89.7 -23.11 90.4 -24.11 91.12 C-30.58 95.32 -36.39 95.93 -44 95 C-50.04 92.96 -53.12 89.03 -56.09 83.57 C-58.55 76.62 -58.27 68.79 -58.56 61.5 C-58.61 60.49 -58.65 59.47 -58.69 58.43 C-58.8 55.95 -58.9 53.48 -59 51 C-58.34 51 -57.68 51 -57 51 C-56.5 42.09 -56.5 42.09 -56 33 C-55.67 33 -55.34 33 -55 33 C-53.3 27.16 -52.75 22.07 -53 16 C-52.34 16 -51.68 16 -51 16 C-50.82 15.4 -50.64 14.79 -50.45 14.17 C-47.95 6.23 -47.95 6.23 -45 3 C-38.47 3.49 -38.47 3.49 -36.34 5.77 C-31.83 13.26 -32.72 23.15 -32.81 31.56 C-32.81 32.75 -32.81 33.94 -32.81 35.16 C-32.86 43.86 -32.86 43.86 -34 45 C-34.13 47.6 -34.19 50.15 -34.19 52.75 C-34.19 53.51 -34.19 54.27 -34.19 55.05 C-34.13 61.85 -33.3 68.33 -32 75 C-30.68 75 -29.36 75 -28 75 C-26.98 73.68 -25.98 72.35 -25 71 C-23.67 70.67 -22.33 70.33 -21 70 C-19.32 68.15 -19.32 68.15 -18 66 C-15.94 62.91 -13.62 60.62 -11 58 C-7.54 54.41 -7.29 50.58 -6.88 45.81 C-6.75 44.62 -6.75 44.62 -6.63 43.41 C-6.12 38.05 -5.81 32.69 -5.56 27.31 C-5.18 19.46 -4.39 11.52 -2 4 C-1.01 3.34 -0.02 2.68 1 2 C0.5 1.01 0.5 1.01 0 0 Z " fill="#FB461D" transform="translate(819,155)"/>
<path d="M0 0 C1 1 1 1 1.13 4.12 C1.13 5.4 1.13 6.68 1.12 8 C1.13 9.92 1.13 9.92 1.13 11.88 C1 15 1 15 0 16 C-0.16 18.04 -0.28 20.08 -0.38 22.12 C-0.8 28.7 -1.87 34.94 -3.24 41.4 C-4.94 49.47 -6.16 57.5 -6.75 65.72 C-7 68 -7 68 -8 71 C-9.02 77.85 -9.79 84.74 -10.56 91.62 C-10.68 92.66 -10.79 93.7 -10.91 94.77 C-13.58 119.3 -13.49 143.78 -13.01 168.42 C-13 169.41 -12.98 170.4 -12.97 171.42 C-12.94 172.71 -12.94 172.71 -12.91 174.04 C-13 176 -13 176 -14 177 C-20.56 178 -20.56 178 -23.65 175.85 C-32.01 166.07 -34.96 150.48 -35 138 C-35.78 138.99 -36.57 139.98 -37.38 141 C-38.24 141.99 -39.11 142.98 -40 144 C-40.66 144 -41.32 144 -42 144 C-42 144.66 -42 145.32 -42 146 C-42.66 146 -43.32 146 -44 146 C-44 146.66 -44 147.32 -44 148 C-44.66 148 -45.32 148 -46 148 C-46 148.66 -46 149.32 -46 150 C-51.6 154.76 -58.64 160.23 -66.32 159.9 C-71.6 159 -74.73 157.39 -78 153 C-82.8 145.33 -82.48 137.74 -82.25 128.94 C-82.23 127.58 -82.21 126.23 -82.2 124.87 C-82.15 121.58 -82.08 118.29 -82 115 C-81.34 115 -80.68 115 -80 115 C-79.92 113.72 -79.84 112.44 -79.75 111.12 C-79.25 106.35 -77.72 102.42 -75.74 98.07 C-75.37 97.04 -75.37 97.04 -75 96 C-75.33 95.34 -75.66 94.68 -76 94 C-75.01 94 -74.02 94 -73 94 C-72.92 93.05 -72.84 92.1 -72.75 91.12 C-72.38 89.58 -72.38 89.58 -72 88 C-70.19 86.94 -70.19 86.94 -68 86 C-66.64 84.35 -65.31 82.69 -64 81 C-62.51 80.01 -62.51 80.01 -61 79 C-60.46 78.46 -59.93 77.93 -59.38 77.38 C-55.05 74.87 -50.5 75.34 -45.78 76.59 C-41.58 78.3 -39.49 80.22 -37.5 84.31 C-35.5 89.73 -35.22 93.9 -37.25 99.38 C-39 102 -39 102 -40.94 103.12 C-43 103 -43 103 -45.25 101.19 C-47 99 -47 99 -47 97 C-49.31 97 -51.62 97 -54 97 C-54.25 97.66 -54.5 98.32 -54.75 99 C-56 102 -56 102 -57.88 105.25 C-63.77 117.05 -64.63 130.08 -64 143 C-60.22 143.3 -60.22 143.3 -58 142 C-58.5 141.01 -58.5 141.01 -59 140 C-58.01 139.67 -57.02 139.34 -56 139 C-54.29 137.38 -52.63 135.7 -51 134 C-50.17 133.26 -49.35 132.51 -48.5 131.75 C-40.54 122.99 -36.16 110.09 -34.5 98.5 C-34.13 95.9 -33.65 93.53 -33 91 C-32.33 87.66 -32 84.73 -32.06 81.31 C-32 78 -32 78 -30 75 C-30 73.68 -30 72.36 -30 71 C-30 67 -30 67 -28 64 C-27.54 62.27 -27.15 60.52 -26.82 58.77 C-26.51 57.2 -26.51 57.2 -26.2 55.61 C-25.88 53.94 -25.88 53.94 -25.56 52.25 C-25.34 51.13 -25.12 50 -24.9 48.84 C-24.46 46.6 -24.03 44.35 -23.6 42.1 C-22.83 38.11 -22.04 34.12 -21.25 30.12 C-20.92 28.43 -20.92 28.43 -20.58 26.7 C-19.95 23.77 -19.02 21.06 -18 18.25 C-16.95 14.83 -16.43 11.54 -16 8 C-15.01 7.67 -14.02 7.34 -13 7 C-13.06 6.24 -13.12 5.47 -13.19 4.69 C-13 2 -13 2 -11.81 0.25 C-7.62 -2.64 -4.42 -2.21 0 0 Z " fill="#FB461D" transform="translate(779,312)"/>
<path d="M0 0 C0 8.25 0 16.5 0 25 C-0.66 25 -1.32 25 -2 25 C-1.88 26.73 -1.76 28.46 -1.62 30.19 C-1.52 31.63 -1.52 31.63 -1.41 33.11 C-0.99 36.1 -0.43 38.34 1 41 C2.85 42.19 2.85 42.19 5 43 C6.44 43.97 7.86 44.97 9.25 46 C9.96 46.52 10.66 47.03 11.39 47.56 C11.92 48.04 12.45 48.51 13 49 C13 49.66 13 50.32 13 51 C13.66 51 14.32 51 15 51 C15 51.66 15 52.32 15 53 C15.66 53 16.32 53 17 53 C17 53.66 17 54.32 17 55 C17.66 55 18.32 55 19 55 C19 55.66 19 56.32 19 57 C19.66 57 20.32 57 21 57 C24.31 61.09 25.5 63.74 25 69 C18.57 71.27 12.34 71.43 5.56 71.62 C4.45 71.66 3.34 71.7 2.19 71.74 C-0.54 71.84 -3.27 71.92 -6 72 C-7.96 75.66 -9.36 78.83 -10 82.94 C-10.8 87.36 -11.96 91 -14 95 C-16 96 -16 96 -19.31 94.94 C-22.6 93.44 -24.44 91.58 -26.62 88.67 C-28.23 86.72 -30.01 85.19 -31.94 83.56 C-35.14 80.85 -37.77 78.04 -40.29 74.68 C-46.15 68.95 -53.15 67.86 -60.94 66.44 C-74.7 63.87 -74.7 63.87 -81 61 C-83 58 -83 58 -82.81 55.62 C-81.9 52.67 -80.86 50.48 -79 48 C-76.81 47.19 -76.81 47.19 -75 47 C-75 46.34 -75 45.68 -75 45 C-73.39 43.41 -73.39 43.41 -71.25 41.62 C-67.37 38.32 -63.84 35.27 -61 31 C-61.12 28.51 -61.12 28.51 -61.75 25.81 C-61.95 24.83 -62.15 23.86 -62.35 22.85 C-62.89 20.46 -63.49 18.11 -64.12 15.75 C-65.02 11.91 -65.16 8.9 -65 5 C-59.99 3.33 -55.69 5.97 -51 8 C-48.16 9.51 -45.37 11.08 -42.61 12.73 C-39.72 14.14 -37.17 14.62 -34 15 C-33.5 13.51 -33.5 13.51 -33 12 C-31.29 10.9 -31.29 10.9 -29.19 9.94 C-28.5 9.62 -27.81 9.3 -27.11 8.96 C-26.41 8.65 -25.72 8.33 -25 8 C-24.34 7.63 -23.67 7.26 -22.99 6.88 C-21 6 -21 6 -17 6 C-16.67 5.01 -16.34 4.02 -16 3 C-13.19 1.44 -13.19 1.44 -10 0 C-9.34 -0.43 -8.68 -0.87 -8 -1.31 C-6 -2 -6 -2 0 0 Z " fill="#FC82C0" transform="translate(605,554)"/>
<path d="M0 0 C3 4.07 3 4.07 3 7 C3.93 6.96 4.86 6.92 5.81 6.88 C9 7 9 7 12 9 C13.36 9.32 14.74 9.59 16.12 9.81 C26.32 11.98 32.79 17.64 38.44 26.18 C46.44 40.34 45.84 56.12 42.18 71.45 C36.9 88.81 25.44 100.31 9.72 108.76 C7 110 7 110 5 110 C3.48 114.37 2.84 118.31 2.56 122.94 C2.21 128.2 1.56 133.32 0.62 138.5 C0.51 139.17 0.4 139.84 0.28 140.53 C-0.48 144.56 -1.5 147.73 -4 151 C-8.07 152.31 -10.24 152.28 -14.25 150.81 C-20.69 144.22 -20.34 133.69 -20.34 124.96 C-20.32 123.62 -20.31 122.28 -20.29 120.93 C-20.29 119.52 -20.28 118.11 -20.28 116.7 C-20.27 113.03 -20.24 109.36 -20.21 105.68 C-20.18 101.93 -20.16 98.18 -20.15 94.43 C-20.12 87.85 -20.07 81.28 -20.02 74.71 C-20.01 72.81 -20 70.9 -20 69 C-20 66.33 -20 63.67 -20 61 C-19.67 61 -19.34 61 -19 61 C-18.83 58.13 -18.66 55.25 -18.5 52.38 C-18.45 51.57 -18.4 50.76 -18.36 49.93 C-18.16 46.48 -18 43.11 -18.09 39.66 C-17.99 36.81 -17.29 35.49 -16 33 C-15.83 30.54 -15.83 30.54 -16 28 C-16.18 24.27 -15.75 22.28 -14 19 C-13.83 15.83 -13.83 15.83 -14 13 C-13.67 13 -13.34 13 -13 13 C-12.91 11.67 -12.91 11.67 -12.81 10.31 C-11.28 4.08 -6.36 0 0 0 Z M8 19 C7.01 19.66 6.02 20.32 5 21 C4.66 23.7 4.51 26.18 4.49 28.88 C4.47 29.68 4.45 30.48 4.43 31.3 C4.38 33.91 4.34 36.52 4.31 39.12 C4.28 40.91 4.25 42.69 4.22 44.47 C4.14 48.85 4.08 53.23 4.03 57.61 C4 59.79 3.97 61.98 3.93 64.16 C3.88 67.55 3.84 70.93 3.81 74.31 C3.8 75.29 3.79 76.26 3.77 77.27 C3.77 78.15 3.77 79.02 3.77 79.93 C3.77 80.67 3.76 81.42 3.76 82.19 C3.85 84.25 3.85 84.25 6 86 C6 85.34 6 84.68 6 84 C6.75 83.91 7.5 83.82 8.28 83.72 C13.52 82.33 16.62 77.36 19.27 72.83 C20.23 70.91 21.13 68.97 22 67 C22.36 66.31 22.73 65.63 23.1 64.92 C24.23 62.5 24.07 60.65 24 58 C24.15 57.43 24.29 56.87 24.45 56.29 C26.8 46.59 26.95 36.85 22 28 C18.39 22.82 14.04 20.58 8 19 Z " fill="#FC461D" transform="translate(646,157)"/>
<path d="M0 0 C0.33 0.66 0.66 1.32 1 2 C2.11 2.15 2.11 2.15 3.25 2.31 C6 3 6 3 8 5.38 C11.34 8.3 13.04 8.64 17.31 9.5 C27.55 11.6 33.92 16.48 40 25 C46.66 37.74 45.96 51.94 41.81 65.38 C36.35 81.89 25.1 94.5 9.79 102.72 C7 104 7 104 5 104 C4.96 104.57 4.93 105.15 4.89 105.74 C4.39 112.15 3.57 118.51 2.62 124.88 C2.51 125.7 2.4 126.52 2.28 127.36 C1.6 131.8 0.92 135.42 -2 139 C-5.89 139.97 -8.18 140.27 -12 139 C-20.54 126.94 -17.09 106.92 -16.96 92.69 C-16.96 92 -16.96 91.31 -16.95 90.6 C-16.94 88.7 -16.92 86.8 -16.9 84.89 C-16.8 82.06 -16.8 82.06 -18 80 C-17.5 79.01 -17.5 79.01 -17 78 C-16.97 74.46 -17.07 70.92 -17.16 67.38 C-17 64.06 -16.49 62.84 -15 60 C-14.75 57.86 -14.6 55.71 -14.5 53.56 C-13.47 35.93 -13.47 35.93 -11 31 C-10.87 29.56 -10.77 28.13 -10.69 26.69 C-9.77 16.86 -7.1 7.1 0 0 Z M11 17 C9.39 18.07 9.39 18.07 8 20 C7.49 23.22 7.49 23.22 7.49 26.96 C7.47 27.65 7.45 28.34 7.43 29.05 C7.38 31.31 7.35 33.56 7.31 35.81 C7.28 37.35 7.25 38.9 7.21 40.44 C6.96 52.29 6.88 64.15 7 76 C7.66 76 8.32 76 9 76 C9.23 75.22 9.45 74.43 9.69 73.62 C11 71 11 71 13.38 70.19 C16.94 68.58 17.48 66.55 19.03 63.08 C20 61 20 61 22.06 57.94 C27.48 49.73 28.28 41.85 27.81 32.12 C26.77 28.1 25.84 26.11 23 23 C19.11 20.74 15.11 18.82 11 17 Z " fill="#FB461D" transform="translate(709,161)"/>
<path d="M0 0 C2.56 0.33 2.56 0.33 4.15 1.7 C8.59 8.12 13.08 14.89 15.56 22.33 C17.22 21.86 18.89 21.38 20.55 20.9 C22.45 20.36 24.35 19.85 26.25 19.33 C28.91 18.53 31.15 17.68 33.56 16.33 C36.06 17.89 36.06 17.89 38.56 20.33 C39.4 27.57 36.77 34.21 34.69 41.06 C31.83 50.91 31.9 57.84 35.56 67.39 C37.82 73.32 38.91 77.96 38.56 84.33 C36.39 85.64 35.1 86.39 32.53 86.13 C31.48 85.82 31.48 85.82 30.41 85.5 C29.63 85.28 28.85 85.06 28.05 84.83 C27.25 84.58 26.45 84.34 25.62 84.08 C24.82 83.85 24.02 83.62 23.2 83.38 C19.95 82.43 16.85 81.46 13.74 80.1 C11.12 79.18 10.09 79.2 7.56 80.33 C5.53 82.04 5.53 82.04 3.62 84.14 C-4.21 92.22 -4.21 92.22 -8.25 92.58 C-8.98 92.5 -9.7 92.42 -10.44 92.33 C-12.78 87.46 -13.52 83.84 -13.45 78.4 C-13.33 71.56 -13.33 71.56 -16.77 65.85 C-19.6 64.08 -22.39 62.68 -25.44 61.33 C-30.27 58.67 -30.27 58.67 -31.44 56.33 C-33.77 55.32 -36.1 54.32 -38.44 53.33 C-40.44 51.33 -40.44 51.33 -40.94 48.46 C-40.44 45.33 -40.44 45.33 -37.44 42.96 C-36.45 42.42 -35.46 41.88 -34.44 41.33 C-34.11 41.66 -33.78 41.99 -33.44 42.33 C-30.69 41.01 -28.13 39.55 -25.57 37.89 C-16.75 32.33 -16.75 32.33 -13.44 32.33 C-13.13 31.38 -12.82 30.43 -12.5 29.46 C-11.44 26.33 -11.44 26.33 -10.44 24.33 C-10.26 22.94 -10.12 21.54 -10 20.14 C-9.34 13.74 -7.77 1.06 0 0 Z " fill="#FC82C0" transform="translate(920.44140625,154.66796875)"/>
<path d="M0 0 C0.99 0.5 0.99 0.5 2 1 C2.44 3.12 2.44 3.12 2 6 C-1.64 10.38 -6.65 13.09 -11.61 15.71 C-14.14 17.07 -16.56 18.55 -19 20.06 C-22.82 22.37 -26.64 24.28 -30.75 26.01 C-33.08 27.04 -35.31 28.19 -37.56 29.38 C-46.49 33.89 -56.12 37.17 -65.62 40.23 C-67.53 40.85 -69.42 41.49 -71.31 42.15 C-94.16 50 -117.47 54.32 -141.69 54.44 C-142.9 54.45 -144.11 54.46 -145.36 54.47 C-151.86 54.4 -157.21 54.11 -163 51 C-164.4 48.8 -164.4 48.8 -164.94 46.31 C-165.14 45.43 -165.34 44.55 -165.54 43.64 C-165.69 42.77 -165.84 41.9 -166 41 C-166.14 40.24 -166.28 39.49 -166.43 38.71 C-166.96 35.25 -167.23 32.31 -166 29 C-165.67 28.01 -165.34 27.02 -165 26 C-159.89 25.06 -155.69 25.11 -150.56 25.94 C-148.71 26.23 -148.71 26.23 -146.82 26.53 C-145.89 26.68 -144.96 26.84 -144 27 C-144 26.67 -144 26.34 -144 26 C-142.35 26 -140.7 26 -139 26 C-139 26.66 -139 27.32 -139 28 C-137.02 28 -135.04 28 -133 28 C-133 27.34 -133 26.68 -133 26 C-132.34 26 -131.68 26 -131 26 C-131 26.66 -131 27.32 -131 28 C-130.01 27.34 -129.02 26.68 -128 26 C-125.54 25.79 -125.54 25.79 -122.63 25.84 C-121.06 25.86 -121.06 25.86 -119.45 25.87 C-118.35 25.89 -117.26 25.92 -116.12 25.94 C-113.96 25.97 -111.8 26 -109.63 26.03 C-108.19 26.05 -108.19 26.05 -106.72 26.08 C-104.04 26 -101.61 25.61 -99 25 C-99 24.67 -99 24.34 -99 24 C-98.42 24.01 -97.84 24.02 -97.24 24.04 C-89.4 24.23 -89.4 24.23 -82 22 C-80.33 21.96 -78.67 21.96 -77 22 C-77 21.67 -77 21.34 -77 21 C-76.18 20.95 -75.36 20.9 -74.52 20.85 C-73.44 20.78 -72.36 20.7 -71.25 20.62 C-70.18 20.56 -69.12 20.49 -68.02 20.41 C-65.15 20.02 -63.53 19.28 -61 18 C-57.25 18.38 -57.25 18.38 -54 19 C-53.5 17.51 -53.5 17.51 -53 16 C-50.69 16.33 -48.38 16.66 -46 17 C-45.67 16.34 -45.34 15.68 -45 15 C-43.34 14.65 -41.67 14.32 -40 14 C-39.01 13.34 -38.02 12.68 -37 12 C-34.99 11.33 -32.97 10.71 -30.94 10.12 C-23.75 7.97 -16.69 5.77 -10.31 1.75 C-6.53 -0.25 -4.22 -0.41 0 0 Z " fill="#FDB724" transform="translate(784,533)"/>
<path d="M0 0 C1.42 0.45 2.83 0.91 4.25 1.38 C5.43 1.76 5.43 1.76 6.64 2.15 C10.94 3.7 13.49 5.15 16.31 8.81 C16.84 9.48 17.38 10.15 17.93 10.83 C19 13 19 13 18.98 15.47 C17.66 18.88 15.74 20.36 12.94 22.69 C8.29 26.72 4.45 30.87 0.75 35.77 C-1.03 38.03 -2.95 39.98 -5 42 C-20.09 58.89 -33.98 79.67 -43.65 100.15 C-44.6 102.15 -45.6 104.14 -46.63 106.1 C-53.08 118.42 -58.4 131.55 -62 145 C-63.98 145.33 -65.96 145.66 -68 146 C-68.12 145.03 -68.25 144.06 -68.38 143.06 C-68.68 141.55 -68.68 141.55 -69 140 C-69.66 139.67 -70.32 139.34 -71 139 C-70.86 138.5 -70.71 138.01 -70.56 137.5 C-69.78 134.02 -69.41 130.54 -69 127 C-68.67 127 -68.34 127 -68 127 C-67.96 126.44 -67.93 125.89 -67.89 125.31 C-67.49 120.65 -66.69 116.75 -64.89 112.38 C-63.26 108.04 -62.11 103.54 -60.87 99.07 C-60.29 97.04 -59.67 95.01 -59 93 C-58.34 93 -57.68 93 -57 93 C-57.5 90.53 -57.5 90.53 -58 88 C-57.01 87.5 -57.01 87.5 -56 87 C-55.25 85.13 -54.52 83.26 -53.85 81.37 C-52.67 78.07 -51.35 74.84 -50.04 71.59 C-49.33 69.83 -48.64 68.06 -47.96 66.28 C-47.62 65.4 -47.29 64.53 -46.94 63.62 C-46.49 62.44 -46.49 62.44 -46.03 61.23 C-44.94 58.87 -43.58 57.05 -42 55 C-41.29 53.35 -40.61 51.69 -40 50 C-39.34 50 -38.68 50 -38 50 C-37.92 49.15 -37.83 48.29 -37.75 47.41 C-36.87 43.41 -35.29 40.85 -33.06 37.44 C-30.2 33.11 -30.2 33.11 -28.06 28.41 C-26.65 25.21 -24.52 23.41 -22 21 C-20.54 19.23 -19.1 17.43 -17.69 15.62 C-7.55 3.12 -7.55 3.12 0 1 C0 0.67 0 0.34 0 0 Z M-66 118 C-65 120 -65 120 -65 120 Z " fill="#FDB724" transform="translate(411,151)"/>
<path d="M0 0 C0.66 0.26 1.33 0.53 2.01 0.8 C2.79 2.96 2.79 2.96 3.01 5.8 C1.2 8.45 1.2 8.45 -1.43 11.17 C-1.89 11.65 -2.35 12.13 -2.82 12.63 C-6.67 16.6 -10.72 20.28 -14.99 23.8 C-15.87 24.56 -16.76 25.32 -17.66 26.1 C-21.58 29.36 -25.77 32.2 -29.99 35.05 C-30.77 35.59 -31.55 36.13 -32.36 36.69 C-36.55 39.51 -39.8 41.5 -44.99 41.8 C-44.99 42.46 -44.99 43.12 -44.99 43.8 C-55.37 49.25 -66.08 53.4 -77.18 57.11 C-78.43 57.53 -79.67 57.95 -80.95 58.38 C-89.21 61.09 -97.46 63.14 -105.99 64.8 C-107.15 65.04 -107.15 65.04 -108.34 65.28 C-110.09 65.63 -111.85 65.93 -113.62 66.23 C-114.74 66.44 -115.87 66.64 -117.03 66.86 C-119.99 66.8 -119.99 66.8 -122.27 65.04 C-124.51 62.12 -126.28 59.04 -127.99 55.8 C-128.38 55.12 -128.77 54.44 -129.17 53.74 C-132.04 48.51 -132.04 48.51 -131.8 44.86 C-130.99 42.8 -130.99 42.8 -129.99 41.8 C-127.4 41.72 -124.83 41.8 -122.24 41.86 C-120.02 42.06 -120.02 42.06 -118.99 40.8 C-116.96 40.8 -114.93 40.8 -112.9 40.86 C-110.9 40.93 -110.9 40.93 -108.99 39.8 C-106.87 39.59 -104.74 39.43 -102.62 39.3 C-98.94 39.06 -95.54 38.79 -91.99 37.8 C-88.59 37.03 -85.19 36.27 -81.79 35.52 C-79.1 35.08 -79.1 35.08 -77.99 33.8 C-75.99 33.76 -73.99 33.75 -71.99 33.8 C-71.5 32.81 -71.5 32.81 -70.99 31.8 C-70 32.29 -70 32.29 -68.99 32.8 C-68.99 32.14 -68.99 31.48 -68.99 30.8 C-68.42 30.63 -67.85 30.46 -67.26 30.28 C-61.16 28.46 -55.07 26.6 -49 24.7 C-46.59 23.98 -44.18 23.34 -41.74 22.73 C-40.38 22.27 -40.38 22.27 -38.99 21.8 C-38.5 20.31 -38.5 20.31 -37.99 18.8 C-36.01 18.47 -34.03 18.14 -31.99 17.8 C-31.99 17.14 -31.99 16.48 -31.99 15.8 C-30.67 15.8 -29.35 15.8 -27.99 15.8 C-27.33 14.81 -26.67 13.82 -25.99 12.8 C-24.33 12.07 -22.67 11.36 -20.99 10.69 C-16.62 8.74 -12.72 5.81 -8.78 3.12 C-3.63 -0.25 -3.63 -0.25 0 0 Z " fill="#FDB724" transform="translate(774.9921875,570.203125)"/>
<path d="M0 0 C6.88 0.34 12.05 2.06 18.3 4.94 C21.14 6.24 21.14 6.24 25 6 C25 6.66 25 7.32 25 8 C27.31 8.33 29.62 8.66 32 9 C32 9.66 32 10.32 32 11 C32.76 11.06 33.53 11.12 34.31 11.19 C42.63 13.02 50.13 17.51 57.49 21.67 C59.95 22.97 62.4 24.02 65 25 C65 25.66 65 26.32 65 27 C66.65 27.33 68.3 27.66 70 28 C70 28.66 70 29.32 70 30 C70.72 30.27 71.44 30.54 72.18 30.81 C75.02 32.01 77.55 33.4 80.19 35 C81.05 35.52 81.91 36.03 82.79 36.56 C85 38 85 38 87 40 C87.66 40.33 88.32 40.66 89 41 C89 41.66 89 42.32 89 43 C89.74 43.23 90.49 43.45 91.25 43.69 C94.52 45.25 95.77 47.2 98 50 C98.63 50.14 99.27 50.29 99.92 50.43 C102.63 51.17 103.44 52.33 105.19 54.5 C108.55 58.55 112.18 62.19 115.98 65.82 C118.07 68.07 119.47 70.35 121 73 C121.66 73.66 122.32 74.32 123 75 C123.8 79.19 123.91 83.3 121.87 87.11 C118.84 90.82 115.61 93.5 111 95 C107.78 93.82 105.93 92.1 103.75 89.5 C103.23 88.89 102.71 88.28 102.17 87.66 C101 86 101 86 101 84 C99.51 83.5 99.51 83.5 98 83 C96.65 81.01 95.32 79.01 94 77 C93.11 76.11 92.23 75.23 91.31 74.31 C89 72 89 72 88 69 C87.34 69 86.68 69 86 69 C86 68.34 86 67.68 86 67 C85.31 66.8 84.61 66.61 83.89 66.41 C79.95 64.49 77.58 61.74 74.69 58.5 C74.14 57.91 73.59 57.31 73.02 56.7 C69 52.27 69 52.27 69 50 C68.42 49.9 67.83 49.81 67.23 49.71 C64.52 48.85 63.34 47.67 61.31 45.69 C50.43 35.7 37.5 27.81 25 20 C24.12 19.44 23.24 18.87 22.33 18.29 C16.95 14.92 11.5 12.43 5.57 10.18 C3.09 9.04 1.66 8.14 0 6 C0 5.34 0 4.68 0 4 C-0.66 3.67 -1.32 3.34 -2 3 C-1.34 2.34 -0.68 1.68 0 1 C0 0.67 0 0.34 0 0 Z " fill="#FDB724" transform="translate(774,83)"/>
<path d="M0 0 C3.97 0.28 5.72 0.77 8.81 3.38 C11 6 11 6 12 9 C12.5 8.58 12.99 8.16 13.5 7.72 C17.93 4.16 21.1 2 27 2 C31.04 3.01 32.81 4.5 35 8 C37.4 12.79 36.59 18.94 35.16 23.94 C29.88 37.27 21.89 47.86 12 58 C11.3 58.77 10.6 59.54 9.88 60.34 C8.98 61.32 8.98 61.32 8.06 62.31 C7.56 62.87 7.05 63.42 6.54 63.99 C5 65 5 65 3.03 64.76 C-0.49 63.44 -1.49 59.85 -3 56.62 C-3.35 55.9 -3.7 55.18 -4.05 54.44 C-8.39 45.3 -12.19 36.43 -12.06 26.19 C-12.05 25.21 -12.04 24.24 -12.04 23.23 C-12.02 22.49 -12.01 21.76 -12 21 C-12.66 20.67 -13.32 20.34 -14 20 C-13.34 20 -12.68 20 -12 20 C-11.9 18.8 -11.79 17.61 -11.69 16.38 C-11.19 12.43 -10.16 9.4 -8 6 C-7.01 5.67 -6.02 5.34 -5 5 C-5 4.34 -5 3.68 -5 3 C-3.35 2.34 -1.7 1.68 0 1 C0 0.67 0 0.34 0 0 Z " fill="#FD83C1" transform="translate(832,289)"/>
<path d="M0 0 C9.12 -0.17 17.51 0.38 26 4 C26.66 4.66 27.32 5.32 28 6 C29.88 6.7 31.78 7.34 33.69 7.94 C38.26 9.41 42.62 11.04 47 13 C47.99 13.33 48.98 13.66 50 14 C50 14.66 50 15.32 50 16 C50.7 16.24 51.39 16.49 52.11 16.74 C65.9 22.76 79.61 34.97 88.94 46.56 C89.62 47.37 90.3 48.17 91 49 C91.66 49 92.32 49 93 49 C93.96 50.75 94.92 52.5 95.88 54.25 C96.41 55.22 96.94 56.2 97.49 57.2 C97.99 58.13 98.49 59.05 99 60 C99.38 60.71 99.77 61.42 100.16 62.15 C101.61 65.35 101.54 67.54 101 71 C97.25 75.65 91.47 79.57 85.5 80.31 C83 80 83 80 81.45 78.42 C81.01 77.68 80.57 76.95 80.12 76.19 C79.63 75.37 79.13 74.56 78.61 73.72 C78.08 72.82 77.55 71.92 77 71 C75.78 69.06 74.55 67.12 73.31 65.19 C72.75 64.29 72.19 63.4 71.61 62.48 C70.05 60 70.05 60 68.29 57.8 C67 56 67 56 67 54 C66.34 54 65.68 54 65 54 C64.57 53.26 64.13 52.52 63.69 51.75 C61.81 48.69 59.85 47.15 57 45 C55.67 43.67 54.33 42.33 53 41 C52.3 40.5 51.6 40.01 50.88 39.5 C49 38 49 38 48.06 36 C46.6 33.25 44.7 32.48 42 31 C39.86 29.46 37.82 27.85 35.79 26.18 C28 20.09 19.58 14.94 10.49 11.06 C6.91 9.53 3.47 7.77 0 6 C0 4 0 2 0 0 Z " fill="#FDB724" transform="translate(823,67)"/>
<path d="M0 0 C1.05 0.56 2.1 1.11 3.19 1.69 C3.19 2.35 3.19 3.01 3.19 3.69 C4.18 4.02 5.17 4.35 6.19 4.69 C7.57 6.32 7.57 6.32 8.88 8.25 C9.31 8.89 9.75 9.53 10.2 10.19 C10.69 10.93 10.69 10.93 11.19 11.69 C10.47 12.35 9.76 13.02 9.03 13.71 C3.37 19.11 -1.23 24.36 -5.26 31.12 C-7.51 34.85 -10.16 38.24 -12.81 41.69 C-15.53 45.28 -17.99 48.9 -20.16 52.86 C-20.6 53.65 -21.03 54.44 -21.48 55.26 C-21.92 56.06 -22.36 56.86 -22.81 57.69 C-23.22 58.41 -23.62 59.14 -24.04 59.89 C-31.64 73.56 -39.27 88.18 -41.43 103.88 C-41.81 105.69 -41.81 105.69 -43.81 108.69 C-46.19 108.44 -46.19 108.44 -48.81 107.69 C-51.69 103.95 -51.11 99.29 -51.06 94.81 C-51.07 94.02 -51.08 93.23 -51.09 92.42 C-51.07 87.76 -50.54 84.07 -48.81 79.69 C-48.35 78.17 -47.89 76.65 -47.44 75.12 C-47.18 74.28 -46.93 73.43 -46.67 72.55 C-46.04 70.47 -45.42 68.38 -44.8 66.29 C-44.45 65.14 -44.11 64 -43.75 62.81 C-43.43 61.74 -43.11 60.67 -42.78 59.57 C-41.96 57.11 -41.02 54.97 -39.81 52.69 C-38.8 50.22 -37.84 47.76 -36.94 45.25 C-35.81 42.69 -35.81 42.69 -33.81 39.75 C-31.84 36.73 -30.86 34.12 -29.81 30.69 C-28.34 27.21 -26.16 24.63 -23.81 21.69 C-23.13 20.36 -22.46 19.03 -21.81 17.69 C-21.15 17.03 -20.49 16.37 -19.81 15.69 C-19.48 14.7 -19.15 13.71 -18.81 12.69 C-17.84 11.66 -16.84 10.66 -15.81 9.69 C-14.68 8.36 -13.56 7.03 -12.44 5.69 C-5.42 -2.26 -5.42 -2.26 0 0 Z " fill="#FDB723" transform="translate(429.8125,186.3125)"/>
<path d="M0 0 C4.8 2.57 6.49 6.29 8.28 11.23 C11.94 25.26 6.63 40.7 1.56 53.69 C0 56 0 56 -2.24 56.79 C-8.74 57.29 -14.88 52.7 -19.76 48.79 C-28.7 40.33 -36.25 29.07 -37.19 16.48 C-36.98 13.77 -36.34 12.13 -35.06 9.75 C-34.52 8.72 -34.52 8.72 -33.97 7.67 C-33 6 -33 6 -32 5 C-30.21 4.85 -28.42 4.78 -26.62 4.75 C-25.16 4.71 -25.16 4.71 -23.66 4.67 C-20.6 5.05 -19.94 5.7 -18 8 C-15.9 8.71 -15.9 8.71 -14 9 C-13.9 8.07 -13.79 7.14 -13.69 6.19 C-12.99 2.93 -12.62 1.92 -10 0 C-6.18 -1.27 -3.91 -0.88 0 0 Z " fill="#FC82C0" transform="translate(648,74)"/>
<path d="M0 0 C3.65 5.77 4.68 12.29 5 19 C4.5 19.5 4.5 19.5 4 20 C3.79 21.49 3.63 23 3.5 24.5 C3.11 28.89 3.11 28.89 2 30 C1.81 31.37 1.68 32.75 1.56 34.12 C1.15 38.3 0.27 42.01 -1 46 C-1.66 46 -2.32 46 -3 46 C-2.67 46.99 -2.34 47.98 -2 49 C-4.33 53.67 -4.33 53.67 -7 55 C-11.4 51.27 -15.7 47.43 -19.88 43.44 C-20.98 42.38 -20.98 42.38 -22.12 41.31 C-24.29 38.64 -25.05 36.29 -26 33 C-26.52 32.01 -27.03 31.02 -27.56 30 C-30.39 24.09 -30.63 17.47 -30 11 C-28.5 7.38 -28.5 7.38 -27 5 C-24.03 5 -21.06 5 -18 5 C-17.67 4.34 -17.34 3.68 -17 3 C-16.34 3 -15.68 3 -15 3 C-14.67 2.34 -14.34 1.68 -14 1 C-13.67 0.34 -13.34 -0.32 -13 -1 C-8.15 -2.39 -4.53 -2.26 0 0 Z " fill="#FC82C0" transform="translate(526,327)"/>
<path d="M0 0 C2.34 0.55 2.34 0.55 5 2 C6.08 4.45 6.82 6.57 7.5 9.12 C10.14 17.94 13.99 24.13 20 31 C18.48 34.49 16.38 36.97 13.88 39.81 C9.6 44.89 6.59 50.11 3.83 56.14 C2.36 59.17 1.59 60.76 -1.61 62.05 C-4 62 -4 62 -6 60 C-6.49 58.15 -6.49 58.15 -6.88 55.94 C-7.88 51 -9.49 46.39 -12 42 C-12.66 41.67 -13.32 41.34 -14 41 C-15.03 39.02 -16.03 37.02 -17 35 C-17.33 34.67 -17.66 34.34 -18 34 C-18.38 31.31 -18.38 31.31 -18 28 C-15.69 24.94 -15.69 24.94 -13 22 C-11.96 20.36 -10.96 18.69 -10 17 C-8.74 14.98 -7.46 12.97 -6.18 10.96 C-5.01 9.02 -4 7.04 -3 5 C-2.01 3.33 -1.01 1.66 0 0 Z " fill="#FEB824" transform="translate(701,318)"/>
<path d="M0 0 C2.44 0.62 2.44 0.62 5 2 C6.47 7.05 6.47 7.05 5 10 C5.66 10 6.32 10 7 10 C8.01 11.79 9 13.58 10 15.38 C10.56 16.37 11.11 17.37 11.69 18.4 C13 21 13 21 13 23 C13.93 23.43 13.93 23.43 14.88 23.88 C17 25 17 25 19 27 C18.87 31.89 16.4 33.75 13 37 C8.35 42.35 5.36 48.09 2.49 54.56 C1 57 1 57 -1.05 57.91 C-3 58 -3 58 -5 57 C-5.67 55.02 -6.26 53.02 -6.81 51 C-8.75 44.39 -11.05 37.95 -16 33 C-16.71 31.02 -17.39 29.02 -18 27 C-17.34 27 -16.68 27 -16 27 C-15.61 25.91 -15.61 25.91 -15.2 24.79 C-13.99 21.97 -12.58 19.83 -10.75 17.38 C-7.48 12.82 -4.77 8.12 -2.16 3.15 C-1 1 -1 1 0 0 Z " fill="#FDB724" transform="translate(493,532)"/>
<path d="M0 0 C1.45 0.03 1.45 0.03 2.94 0.06 C3.17 0.91 3.4 1.75 3.64 2.62 C6.03 10.96 8.4 17.76 14.81 23.75 C15.51 24.51 16.22 25.28 16.94 26.06 C16.76 28.98 16.42 30.55 14.41 32.7 C13.76 33.23 13.11 33.77 12.44 34.31 C7.52 38.88 4.92 44.34 2.08 50.33 C1.56 51.42 1.56 51.42 1.02 52.53 C0.71 53.18 0.41 53.84 0.09 54.52 C-1.06 56.06 -1.06 56.06 -3.07 56.91 C-3.73 56.96 -4.38 57.01 -5.06 57.06 C-7.72 54.41 -7.92 52.13 -8.81 48.5 C-10.36 42.82 -12.3 38.74 -15.71 34.01 C-17.89 30.86 -18.78 28.94 -19.06 25.06 C-17.4 22.36 -15.3 20.3 -13.06 18.06 C-11.34 15.48 -10.06 13.05 -8.69 10.28 C-8.15 9.2 -7.62 8.11 -7.06 7 C-6.53 5.92 -5.99 4.83 -5.44 3.71 C-3.55 0.07 -3.55 0.07 0 0 Z " fill="#FEB824" transform="translate(901.0625,265.9375)"/>
<path d="M0 0 C3.16 2.08 4.35 3.31 5.75 6.81 C6.48 13.27 5.32 16.45 1.75 21.81 C1.09 21.81 0.43 21.81 -0.25 21.81 C-0.25 22.47 -0.25 23.13 -0.25 23.81 C-4.57 26.25 -8.37 26.64 -13.25 25.81 C-16.57 24.12 -18.73 21.86 -20.4 18.5 C-21.34 15.51 -21.45 13.12 -21.38 10 C-21.36 9.02 -21.34 8.05 -21.32 7.04 C-21.3 6.31 -21.27 5.57 -21.25 4.81 C-20.63 4.51 -20.02 4.22 -19.38 3.91 C-17.18 2.86 -17.18 2.86 -15.19 1.25 C-10.52 -2.21 -5.27 -1.93 0 0 Z " fill="#FC461D" transform="translate(821.25,496.1875)"/>
<path d="M0 0 C3.88 0.95 5.43 3.01 7.49 6.32 C9.67 11.32 8.94 15.17 7.3 20.36 C5.24 24.05 4.27 25.68 0.48 27.61 C-5.04 28.35 -9.79 28.59 -14.7 25.79 C-16.52 23.61 -16.52 23.61 -17.52 20.61 C-17.89 19.8 -18.26 19 -18.64 18.17 C-19.61 15.32 -19.58 14.36 -18.52 11.61 C-18.27 10.95 -18.02 10.29 -17.77 9.61 C-16.1 6.94 -14.03 5.46 -11.52 3.61 C-10.9 3.08 -10.29 2.56 -9.66 2.03 C-6.43 -0.11 -3.79 -0.12 0 0 Z " fill="#FB461D" transform="translate(439.515625,272.39453125)"/>
<path d="M0 0 C3.18 3.18 3.71 4.53 3.75 8.88 C3.64 14.58 2.58 17.81 -1.5 21.88 C-5.06 24.76 -7.84 25.3 -12.36 24.95 C-15.41 24.38 -17.13 23.66 -19.44 21.56 C-22.09 16.8 -23.04 12.99 -22.44 7.56 C-21.19 4.94 -21.19 4.94 -19.44 2.56 C-18.48 1.2 -18.48 1.2 -17.5 -0.19 C-12.78 -5.34 -5.14 -4.2 0 0 Z " fill="#FC461D" transform="translate(948.4375,332.4375)"/>
<path d="M0 0 C2.03 3.54 2.14 6.58 1.44 10.5 C-0.37 15.74 -3.11 20.11 -7.56 23.5 C-10.74 24.01 -12.54 24.12 -15.31 22.44 C-18.69 17.21 -19.04 11.51 -18.56 5.5 C-17.31 2.06 -17.31 2.06 -15.56 -0.5 C-10.57 -2.25 -4.61 -2.7 0 0 Z " fill="#FC461D" transform="translate(492.5625,399.5)"/>
<path d="M0 0 C0.33 0 0.66 0 1 0 C1 17.16 1 34.32 1 52 C0.67 52 0.34 52 0 52 C0 34.84 0 17.68 0 0 Z " fill="#FC461D" transform="translate(624,239)"/>
<path d="M0 0 C0.33 0 0.66 0 1 0 C1 6.93 1 13.86 1 21 C0.67 21 0.34 21 0 21 C0 14.07 0 7.14 0 0 Z " fill="#FC461D" transform="translate(597,273)"/>
<path d="M0 0 C0.33 0 0.66 0 1 0 C1 5.94 1 11.88 1 18 C0.67 18 0.34 18 0 18 C0 12.06 0 6.12 0 0 Z " fill="#FC461D" transform="translate(895,430)"/>
<path d="M0 0 C0.33 0 0.66 0 1 0 C1 5.28 1 10.56 1 16 C0.67 16 0.34 16 0 16 C0 10.72 0 5.44 0 0 Z " fill="#FC461D" transform="translate(463,467)"/>
<path d="M0 0 C0.33 0 0.66 0 1 0 C1 4.29 1 8.58 1 13 C0.67 13 0.34 13 0 13 C0 8.71 0 4.42 0 0 Z " fill="#FC461D" transform="translate(690,257)"/>
<path d="M0 0 C2.97 0 5.94 0 9 0 C9 0.33 9 0.66 9 1 C6.03 1 3.06 1 0 1 C0 0.67 0 0.34 0 0 Z " fill="#FD83C1" transform="translate(424,81)"/>
<path d="M0 0 C0.33 0 0.66 0 1 0 C1 2.64 1 5.28 1 8 C0.67 8 0.34 8 0 8 C0 5.36 0 2.72 0 0 Z " fill="#FC461D" transform="translate(369,451)"/>
<path d="M0 0 C0.33 0 0.66 0 1 0 C1 2.31 1 4.62 1 7 C0.67 7 0.34 7 0 7 C0 4.69 0 2.38 0 0 Z " fill="#FC461D" transform="translate(667,460)"/>
<path d="M0 0 C0.66 0.33 1.32 0.66 2 1 C0.68 1.99 -0.64 2.98 -2 4 C-1.34 2.68 -0.68 1.36 0 0 Z " fill="#FC461D" transform="translate(390,334)"/>
<path d="M0 0 C0.33 0 0.66 0 1 0 C1 1.98 1 3.96 1 6 C0.67 6 0.34 6 0 6 C0 4.02 0 2.04 0 0 Z " fill="#FC461D" transform="translate(626,210)"/>
<path d="M0 0 C0.33 0 0.66 0 1 0 C1 1.65 1 3.3 1 5 C0.67 5 0.34 5 0 5 C0 3.35 0 1.7 0 0 Z " fill="#FC461D" transform="translate(604,580)"/>
<path d="M0 0 C0.66 1.32 1.32 2.64 2 4 C1.34 4 0.68 4 0 4 C0 2.68 0 1.36 0 0 Z " fill="#FC461D" transform="translate(545,298)"/>
<path d="M0 0 C0.33 0.66 0.66 1.32 1 2 C0.01 1.67 -0.98 1.34 -2 1 C-1.34 0.67 -0.68 0.34 0 0 Z " fill="#FC461D" transform="translate(422,517)"/>
<path d="M0 0 C1 4 1 4 1 4 Z " fill="#FC461D" transform="translate(624,449)"/>
<path d="M0 0 C0.66 0.33 1.32 0.66 2 1 C1.01 1 0.02 1 -1 1 C-0.67 0.67 -0.34 0.34 0 0 Z " fill="#FC461D" transform="translate(427,421)"/>
<path d="M0 0 C1 4 1 4 1 4 Z " fill="#FC461D" transform="translate(472,405)"/>
<path d="M0 0 C0 3 0 3 0 3 Z " fill="#FC461D" transform="translate(924,339)"/>
<path d="M0 0 C1 4 1 4 1 4 Z " fill="#FC461D" transform="translate(548,284)"/>
<path d="M0 0 C1 4 1 4 1 4 Z " fill="#FC461D" transform="translate(597,251)"/>
<path d="M0 0 C4 1 4 1 4 1 Z " fill="#FC461D" transform="translate(638,156)"/>
<path d="M0 0 C0.99 0.5 0.99 0.5 2 1 C1.01 1.5 1.01 1.5 0 2 C0 1.34 0 0.68 0 0 Z " fill="#FD83C1" transform="translate(528,600)"/>
<path d="" fill="#FEB824" transform="translate(0,0)"/>
<path d="M0 0 C0.99 0.5 0.99 0.5 2 1 C1.01 1.5 1.01 1.5 0 2 C0 1.34 0 0.68 0 0 Z " fill="#FC461D" transform="translate(880,480)"/>
<path d="M0 0 C0.99 0.5 0.99 0.5 2 1 C1.01 1.5 1.01 1.5 0 2 C0 1.34 0 0.68 0 0 Z " fill="#FC461D" transform="translate(699,478)"/>
<path d="M0 0 C0.99 0.5 0.99 0.5 2 1 C1.01 1.5 1.01 1.5 0 2 C0 1.34 0 0.68 0 0 Z " fill="#FC461D" transform="translate(701,476)"/>
<path d="M0 0 C0.99 0.5 0.99 0.5 2 1 C1.01 1.5 1.01 1.5 0 2 C0 1.34 0 0.68 0 0 Z " fill="#FC461D" transform="translate(612,464)"/>
<path d="M0 0 C0.99 0.5 0.99 0.5 2 1 C1.01 1.5 1.01 1.5 0 2 C0 1.34 0 0.68 0 0 Z " fill="#FC461D" transform="translate(524,402)"/>
<path d="M0 0 C0.99 0.5 0.99 0.5 2 1 C1.01 1.5 1.01 1.5 0 2 C0 1.34 0 0.68 0 0 Z " fill="#FC461D" transform="translate(712,393)"/>
<path d="" fill="#416F4B" transform="translate(0,0)"/>
<path d="M0 0 C0.99 0.5 0.99 0.5 2 1 C1.01 1.5 1.01 1.5 0 2 C0 1.34 0 0.68 0 0 Z " fill="#FC461D" transform="translate(424,276)"/>
<path d="" fill="#FC461D" transform="translate(0,0)"/>
<path d="M0 0 C0.99 0.5 0.99 0.5 2 1 C1.01 1.5 1.01 1.5 0 2 C0 1.34 0 0.68 0 0 Z " fill="#FC461D" transform="translate(656,237)"/>
<path d="M0 0 C0.99 0.5 0.99 0.5 2 1 C1.01 1.5 1.01 1.5 0 2 C0 1.34 0 0.68 0 0 Z " fill="#FC461D" transform="translate(796,224)"/>
<path d="M0 0 C2 1 2 1 2 1 Z " fill="#FEB824" transform="translate(729,592)"/>
<path d="M0 0 C2 1 2 1 2 1 Z " fill="#FEB824" transform="translate(741,587)"/>
<path d="M0 0 C2 1 2 1 2 1 Z " fill="#FEB824" transform="translate(648,559)"/>
<path d="M0 0 C2 1 2 1 2 1 Z " fill="#FD83C1" transform="translate(547,558)"/>
<path d="" fill="#FC461D" transform="translate(0,0)"/>
<path d="" fill="#FC461D" transform="translate(0,0)"/>
<path d="" fill="#FC461D" transform="translate(0,0)"/>
<path d="" fill="#FC461D" transform="translate(0,0)"/>
<path d="" fill="#FC461D" transform="translate(0,0)"/>
<path d="" fill="#FC461D" transform="translate(0,0)"/>
<path d="" fill="#FC461D" transform="translate(0,0)"/>
<path d="" fill="#FC461D" transform="translate(0,0)"/>
<path d="" fill="#FC461D" transform="translate(0,0)"/>
<path d="M0 0 C2 1 2 1 2 1 Z " fill="#FC461D" transform="translate(575,398)"/>
<path d="M0 0 C2 1 2 1 2 1 Z " fill="#FC461D" transform="translate(567,361)"/>
<path d="M0 0 C2 1 2 1 2 1 Z " fill="#FC461D" transform="translate(396,330)"/>
<path d="" fill="#FC461D" transform="translate(0,0)"/>
<path d="" fill="#FC461D" transform="translate(0,0)"/>
<path d="" fill="#FC461D" transform="translate(0,0)"/>
<path d="" fill="#FC461D" transform="translate(0,0)"/>
<path d="" fill="#FEB824" transform="translate(0,0)"/>
<path d="" fill="#FEB824" transform="translate(0,0)"/>
<path d="M0 0 C2 1 2 1 2 1 Z " fill="#FC461D" transform="translate(664,225)"/>
<path d="" fill="#FEB824" transform="translate(0,0)"/>
<path d="" fill="#FC461D" transform="translate(0,0)"/>
<path d="" fill="#FC461D" transform="translate(0,0)"/>
<path d="" fill="#FC461D" transform="translate(0,0)"/>
<path d="" fill="#FC461D" transform="translate(0,0)"/>
<path d="" fill="#FC461D" transform="translate(0,0)"/>
<path d="M0 0 C2 1 2 1 2 1 Z " fill="#FC461D" transform="translate(771,158)"/>
<path d="M0 0 C2 1 2 1 2 1 Z " fill="#FC461D" transform="translate(592,158)"/>
<path d="M0 0 C2 1 2 1 2 1 Z " fill="#FC461D" transform="translate(823,153)"/>
<path d="" fill="#FD83C1" transform="translate(0,0)"/>
<path d="" fill="#FC461D" transform="translate(0,0)"/>
<path d="" fill="#FEB824" transform="translate(0,0)"/>
<path d="" fill="#FEB824" transform="translate(0,0)"/>
<path d="" fill="#FEB824" transform="translate(0,0)"/>
<path d="" fill="#FEB824" transform="translate(0,0)"/>
<path d="" fill="#FD83C1" transform="translate(0,0)"/>
<path d="" fill="#FC461D" transform="translate(0,0)"/>
<path d="" fill="#FC461D" transform="translate(0,0)"/>
<path d="" fill="#FEB824" transform="translate(0,0)"/>
<path d="" fill="#FEB824" transform="translate(0,0)"/>
<path d="" fill="#FEB824" transform="translate(0,0)"/>
<path d="" fill="#FC461D" transform="translate(0,0)"/>
<path d="" fill="#FC461D" transform="translate(0,0)"/>
<path d="" fill="#FC461D" transform="translate(0,0)"/>
<path d="" fill="#FEB824" transform="translate(0,0)"/>
<path d="" fill="#FC461D" transform="translate(0,0)"/>
<path d="" fill="#FEB824" transform="translate(0,0)"/>
<path d="" fill="#FC461D" transform="translate(0,0)"/>
<path d="" fill="#FC461D" transform="translate(0,0)"/>
<path d="" fill="#FC461D" transform="translate(0,0)"/>
<path d="" fill="#FC461D" transform="translate(0,0)"/>
<path d="" fill="#FC461D" transform="translate(0,0)"/>
<path d="" fill="#FC461D" transform="translate(0,0)"/>
<path d="" fill="#FC461D" transform="translate(0,0)"/>
<path d="" fill="#FC461D" transform="translate(0,0)"/>
<path d="" fill="#FC461D" transform="translate(0,0)"/>
<path d="" fill="#FC461D" transform="translate(0,0)"/>
<path d="" fill="#FC461D" transform="translate(0,0)"/>
<path d="" fill="#FC461D" transform="translate(0,0)"/>
<path d="" fill="#FC461D" transform="translate(0,0)"/>
<path d="" fill="#FC461D" transform="translate(0,0)"/>
<path d="" fill="#FC461D" transform="translate(0,0)"/>
<path d="" fill="#FC461D" transform="translate(0,0)"/>
<path d="" fill="#FC461D" transform="translate(0,0)"/>
<path d="" fill="#FC461D" transform="translate(0,0)"/>
<path d="" fill="#FC461D" transform="translate(0,0)"/>
<path d="" fill="#FC461D" transform="translate(0,0)"/>
<path d="" fill="#FC461D" transform="translate(0,0)"/>
<path d="" fill="#FC461D" transform="translate(0,0)"/>
<path d="" fill="#FC461D" transform="translate(0,0)"/>
<path d="" fill="#FC461D" transform="translate(0,0)"/>
<path d="" fill="#FC461D" transform="translate(0,0)"/>
<path d="" fill="#FC461D" transform="translate(0,0)"/>
<path d="" fill="#FC461D" transform="translate(0,0)"/>
<path d="" fill="#FC461D" transform="translate(0,0)"/>
<path d="" fill="#FC461D" transform="translate(0,0)"/>
<path d="" fill="#FC461D" transform="translate(0,0)"/>
<path d="" fill="#FC461D" transform="translate(0,0)"/>
<path d="" fill="#FC461D" transform="translate(0,0)"/>
<path d="" fill="#FC461D" transform="translate(0,0)"/>
<path d="" fill="#FC461D" transform="translate(0,0)"/>
<path d="" fill="#FC461D" transform="translate(0,0)"/>
<path d="" fill="#FC461D" transform="translate(0,0)"/>
<path d="" fill="#FC461D" transform="translate(0,0)"/>
<path d="" fill="#FC461D" transform="translate(0,0)"/>
<path d="" fill="#FC461D" transform="translate(0,0)"/>
<path d="" fill="#FC461D" transform="translate(0,0)"/>
<path d="" fill="#FC461D" transform="translate(0,0)"/>
<path d="" fill="#FC461D" transform="translate(0,0)"/>
<path d="" fill="#FC461D" transform="translate(0,0)"/>
<path d="" fill="#FC461D" transform="translate(0,0)"/>
<path d="" fill="#FC461D" transform="translate(0,0)"/>
<path d="" fill="#FC461D" transform="translate(0,0)"/>
<path d="" fill="#FC461D" transform="translate(0,0)"/>
<path d="" fill="#FC461D" transform="translate(0,0)"/>
<path d="" fill="#FC461D" transform="translate(0,0)"/>
<path d="" fill="#FC461D" transform="translate(0,0)"/>
<path d="" fill="#FC461D" transform="translate(0,0)"/>
<path d="" fill="#FC461D" transform="translate(0,0)"/>
<path d="" fill="#FC461D" transform="translate(0,0)"/>
<path d="" fill="#FC461D" transform="translate(0,0)"/>
<path d="" fill="#FC461D" transform="translate(0,0)"/>
<path d="" fill="#FC461D" transform="translate(0,0)"/>
<path d="" fill="#FC461D" transform="translate(0,0)"/>
<path d="" fill="#FC461D" transform="translate(0,0)"/>
<path d="" fill="#FC461D" transform="translate(0,0)"/>
<path d="" fill="#FC461D" transform="translate(0,0)"/>
<path d="" fill="#FC461D" transform="translate(0,0)"/>
<path d="" fill="#FC461D" transform="translate(0,0)"/>
<path d="" fill="#FC461D" transform="translate(0,0)"/>
<path d="" fill="#FC461D" transform="translate(0,0)"/>
<path d="" fill="#FC461D" transform="translate(0,0)"/>
<path d="" fill="#FC461D" transform="translate(0,0)"/>
<path d="" fill="#FC461D" transform="translate(0,0)"/>
<path d="" fill="#FC461D" transform="translate(0,0)"/>
<path d="" fill="#FC461D" transform="translate(0,0)"/>
<path d="" fill="#FC461D" transform="translate(0,0)"/>
<path d="" fill="#FC461D" transform="translate(0,0)"/>
<path d="" fill="#FC461D" transform="translate(0,0)"/>
<path d="" fill="#FC461D" transform="translate(0,0)"/>
<path d="" fill="#FC461D" transform="translate(0,0)"/>
<path d="" fill="#FC461D" transform="translate(0,0)"/>
<path d="" fill="#FC461D" transform="translate(0,0)"/>
<path d="" fill="#FC461D" transform="translate(0,0)"/>
<path d="" fill="#FC461D" transform="translate(0,0)"/>
<path d="" fill="#FC461D" transform="translate(0,0)"/>
<path d="" fill="#FC461D" transform="translate(0,0)"/>
<path d="" fill="#FC461D" transform="translate(0,0)"/>
<path d="" fill="#FC461D" transform="translate(0,0)"/>
<path d="" fill="#FC461D" transform="translate(0,0)"/>
<path d="" fill="#FC461D" transform="translate(0,0)"/>
<path d="" fill="#FC461D" transform="translate(0,0)"/>
<path d="" fill="#FC461D" transform="translate(0,0)"/>
<path d="" fill="#FC461D" transform="translate(0,0)"/>
<path d="" fill="#FC461D" transform="translate(0,0)"/>
<path d="" fill="#FC461D" transform="translate(0,0)"/>
<path d="" fill="#FC461D" transform="translate(0,0)"/>
<path d="" fill="#FC461D" transform="translate(0,0)"/>
<path d="" fill="#FC461D" transform="translate(0,0)"/>
<path d="" fill="#FC461D" transform="translate(0,0)"/>
<path d="" fill="#FC461D" transform="translate(0,0)"/>
<path d="" fill="#FC461D" transform="translate(0,0)"/>
<path d="" fill="#FC461D" transform="translate(0,0)"/>
<path d="" fill="#FC461D" transform="translate(0,0)"/>
<path d="" fill="#FC461D" transform="translate(0,0)"/>
<path d="" fill="#FC461D" transform="translate(0,0)"/>
<path d="" fill="#FC461D" transform="translate(0,0)"/>
<path d="" fill="#FC461D" transform="translate(0,0)"/>
<path d="" fill="#FC461D" transform="translate(0,0)"/>
<path d="" fill="#FC461D" transform="translate(0,0)"/>
<path d="" fill="#FC461D" transform="translate(0,0)"/>
<path d="" fill="#FC461D" transform="translate(0,0)"/>
<path d="" fill="#FC461D" transform="translate(0,0)"/>
<path d="" fill="#416F4B" transform="translate(0,0)"/>
<path d="" fill="#FC461D" transform="translate(0,0)"/>
<path d="" fill="#FC461D" transform="translate(0,0)"/>
<path d="" fill="#FC461D" transform="translate(0,0)"/>
<path d="" fill="#FC461D" transform="translate(0,0)"/>
<path d="" fill="#FC461D" transform="translate(0,0)"/>
<path d="" fill="#FC461D" transform="translate(0,0)"/>
<path d="" fill="#FC461D" transform="translate(0,0)"/>
<path d="" fill="#FC461D" transform="translate(0,0)"/>
<path d="" fill="#FC461D" transform="translate(0,0)"/>
<path d="" fill="#FC461D" transform="translate(0,0)"/>
<path d="" fill="#FC461D" transform="translate(0,0)"/>
<path d="" fill="#FC461D" transform="translate(0,0)"/>
<path d="" fill="#FC461D" transform="translate(0,0)"/>
<path d="" fill="#FC461D" transform="translate(0,0)"/>
<path d="" fill="#FC461D" transform="translate(0,0)"/>
<path d="" fill="#FC461D" transform="translate(0,0)"/>
<path d="" fill="#FC461D" transform="translate(0,0)"/>
<path d="" fill="#FC461D" transform="translate(0,0)"/>
<path d="" fill="#FC461D" transform="translate(0,0)"/>
<path d="" fill="#FC461D" transform="translate(0,0)"/>
<path d="" fill="#FC461D" transform="translate(0,0)"/>
<path d="" fill="#FC461D" transform="translate(0,0)"/>
<path d="" fill="#FC461D" transform="translate(0,0)"/>
<path d="" fill="#FC461D" transform="translate(0,0)"/>
<path d="" fill="#FC461D" transform="translate(0,0)"/>
<path d="" fill="#FC461D" transform="translate(0,0)"/>
<path d="" fill="#FC461D" transform="translate(0,0)"/>
<path d="" fill="#FC461D" transform="translate(0,0)"/>
<path d="" fill="#FC461D" transform="translate(0,0)"/>
<path d="" fill="#FC461D" transform="translate(0,0)"/>
<path d="" fill="#FC461D" transform="translate(0,0)"/>
<path d="" fill="#FC461D" transform="translate(0,0)"/>
<path d="" fill="#FC461D" transform="translate(0,0)"/>
<path d="" fill="#FC461D" transform="translate(0,0)"/>
<path d="" fill="#FC461D" transform="translate(0,0)"/>
<path d="" fill="#FC461D" transform="translate(0,0)"/>
<path d="" fill="#416F4B" transform="translate(0,0)"/>
<path d="" fill="#FC461D" transform="translate(0,0)"/>
<path d="" fill="#FC461D" transform="translate(0,0)"/>
<path d="" fill="#FC461D" transform="translate(0,0)"/>
<path d="" fill="#416F4B" transform="translate(0,0)"/>
<path d="" fill="#FC461D" transform="translate(0,0)"/>
<path d="" fill="#FC461D" transform="translate(0,0)"/>
<path d="" fill="#FC461D" transform="translate(0,0)"/>
<path d="" fill="#FC461D" transform="translate(0,0)"/>
<path d="" fill="#FC461D" transform="translate(0,0)"/>
<path d="" fill="#FC461D" transform="translate(0,0)"/>
<path d="" fill="#FD83C1" transform="translate(0,0)"/>
<path d="" fill="#FC461D" transform="translate(0,0)"/>
<path d="" fill="#FC461D" transform="translate(0,0)"/>
<path d="" fill="#FC461D" transform="translate(0,0)"/>
<path d="" fill="#FEB824" transform="translate(0,0)"/>
<path d="" fill="#FC461D" transform="translate(0,0)"/>
<path d="" fill="#FC461D" transform="translate(0,0)"/>
<path d="" fill="#FC461D" transform="translate(0,0)"/>
<path d="" fill="#FC461D" transform="translate(0,0)"/>
<path d="" fill="#FC461D" transform="translate(0,0)"/>
<path d="" fill="#FC461D" transform="translate(0,0)"/>
<path d="" fill="#FEB824" transform="translate(0,0)"/>
<path d="" fill="#FC461D" transform="translate(0,0)"/>
<path d="" fill="#FC461D" transform="translate(0,0)"/>
<path d="" fill="#FC461D" transform="translate(0,0)"/>
<path d="" fill="#FC461D" transform="translate(0,0)"/>
<path d="" fill="#FC461D" transform="translate(0,0)"/>
<path d="" fill="#FC461D" transform="translate(0,0)"/>
<path d="" fill="#FEB824" transform="translate(0,0)"/>
<path d="" fill="#FC461D" transform="translate(0,0)"/>
<path d="" fill="#FC461D" transform="translate(0,0)"/>
<path d="" fill="#FC461D" transform="translate(0,0)"/>
<path d="" fill="#FC461D" transform="translate(0,0)"/>
<path d="" fill="#FC461D" transform="translate(0,0)"/>
<path d="" fill="#FC461D" transform="translate(0,0)"/>
<path d="" fill="#FC461D" transform="translate(0,0)"/>
<path d="" fill="#FC461D" transform="translate(0,0)"/>
<path d="" fill="#FC461D" transform="translate(0,0)"/>
<path d="" fill="#FC461D" transform="translate(0,0)"/>
<path d="" fill="#FC461D" transform="translate(0,0)"/>
<path d="" fill="#FC461D" transform="translate(0,0)"/>
<path d="" fill="#FEB824" transform="translate(0,0)"/>
<path d="" fill="#FC461D" transform="translate(0,0)"/>
<path d="" fill="#FC461D" transform="translate(0,0)"/>
<path d="" fill="#FC461D" transform="translate(0,0)"/>
<path d="" fill="#FC461D" transform="translate(0,0)"/>
<path d="" fill="#FC461D" transform="translate(0,0)"/>
<path d="" fill="#FC461D" transform="translate(0,0)"/>
<path d="" fill="#FC461D" transform="translate(0,0)"/>
<path d="" fill="#FEB824" transform="translate(0,0)"/>
<path d="" fill="#FC461D" transform="translate(0,0)"/>
<path d="" fill="#FEB824" transform="translate(0,0)"/>
<path d="" fill="#FC461D" transform="translate(0,0)"/>
<path d="" fill="#FC461D" transform="translate(0,0)"/>
<path d="" fill="#FC461D" transform="translate(0,0)"/>
<path d="" fill="#FC461D" transform="translate(0,0)"/>
<path d="" fill="#FEB824" transform="translate(0,0)"/>
<path d="" fill="#FEB824" transform="translate(0,0)"/>
<path d="" fill="#FC461D" transform="translate(0,0)"/>
<path d="" fill="#FEB824" transform="translate(0,0)"/>
<path d="" fill="#FEB824" transform="translate(0,0)"/>
<path d="" fill="#FC461D" transform="translate(0,0)"/>
<path d="" fill="#FC461D" transform="translate(0,0)"/>
<path d="" fill="#FC461D" transform="translate(0,0)"/>
<path d="" fill="#FEB824" transform="translate(0,0)"/>
<path d="" fill="#FEB824" transform="translate(0,0)"/>
<path d="" fill="#FEB824" transform="translate(0,0)"/>
<path d="" fill="#FC461D" transform="translate(0,0)"/>
<path d="" fill="#FC461D" transform="translate(0,0)"/>
<path d="" fill="#FEB824" transform="translate(0,0)"/>
<path d="" fill="#FEB824" transform="translate(0,0)"/>
<path d="" fill="#FC461D" transform="translate(0,0)"/>
<path d="" fill="#FC461D" transform="translate(0,0)"/>
<path d="" fill="#FEB824" transform="translate(0,0)"/>
<path d="" fill="#FEB824" transform="translate(0,0)"/>
<path d="" fill="#FC461D" transform="translate(0,0)"/>
<path d="" fill="#FEB824" transform="translate(0,0)"/>
<path d="" fill="#FEB824" transform="translate(0,0)"/>
<path d="" fill="#FEB824" transform="translate(0,0)"/>
<path d="" fill="#FC461D" transform="translate(0,0)"/>
<path d="" fill="#FC461D" transform="translate(0,0)"/>
<path d="" fill="#FD83C1" transform="translate(0,0)"/>
<path d="" fill="#FC461D" transform="translate(0,0)"/>
<path d="" fill="#FC461D" transform="translate(0,0)"/>
<path d="" fill="#FEB824" transform="translate(0,0)"/>
<path d="" fill="#FC461D" transform="translate(0,0)"/>
<path d="" fill="#FC461D" transform="translate(0,0)"/>
<path d="" fill="#FC461D" transform="translate(0,0)"/>
<path d="" fill="#FC461D" transform="translate(0,0)"/>
<path d="" fill="#FC461D" transform="translate(0,0)"/>
<path d="" fill="#FC461D" transform="translate(0,0)"/>
<path d="" fill="#FC461D" transform="translate(0,0)"/>
<path d="" fill="#FC461D" transform="translate(0,0)"/>
<path d="" fill="#FEB824" transform="translate(0,0)"/>
<path d="" fill="#FC461D" transform="translate(0,0)"/>
<path d="" fill="#FC461D" transform="translate(0,0)"/>
<path d="" fill="#FC461D" transform="translate(0,0)"/>
<path d="" fill="#FC461D" transform="translate(0,0)"/>
<path d="" fill="#FD83C1" transform="translate(0,0)"/>
<path d="" fill="#FEB824" transform="translate(0,0)"/>
<path d="" fill="#FD83C1" transform="translate(0,0)"/>
<path d="" fill="#FEB824" transform="translate(0,0)"/>
<path d="" fill="#FC461D" transform="translate(0,0)"/>
<path d="" fill="#FEB824" transform="translate(0,0)"/>
<path d="" fill="#FEB824" transform="translate(0,0)"/>
<path d="" fill="#FEB824" transform="translate(0,0)"/>
<path d="" fill="#FEB824" transform="translate(0,0)"/>
<path d="" fill="#FEB824" transform="translate(0,0)"/>
</svg>
