<?xml version="1.0" encoding="UTF-8"?>
<!-- Generator: visioncortex VTracer 0.6.3 -->
<svg version="1.1" xmlns="http://www.w3.org/2000/svg" width="1280" height="681">
<path d="M0 0 C53.73 -0.07 107.46 -0.13 161.18 -0.17 C161.98 -0.17 162.77 -0.17 163.59 -0.17 C180.86 -0.18 198.13 -0.19 215.4 -0.2 C223.87 -0.21 232.33 -0.21 240.8 -0.22 C241.64 -0.22 242.49 -0.22 243.36 -0.22 C270.69 -0.24 298.02 -0.27 325.36 -0.31 C353.44 -0.34 381.52 -0.37 409.6 -0.38 C413.56 -0.38 417.52 -0.38 421.48 -0.38 C422.26 -0.38 423.04 -0.38 423.85 -0.38 C436.42 -0.39 449 -0.4 461.57 -0.43 C474.2 -0.45 486.83 -0.46 499.46 -0.45 C506.31 -0.45 513.15 -0.45 520 -0.48 C526.26 -0.5 532.52 -0.5 538.78 -0.48 C541.06 -0.48 543.33 -0.49 545.6 -0.5 C548.68 -0.52 551.75 -0.51 554.82 -0.49 C555.72 -0.5 556.62 -0.51 557.54 -0.52 C563.49 -0.46 563.49 -0.46 566.05 1.85 C567.36 4.81 567.37 7.22 567.37 10.47 C567.38 11.78 567.38 13.09 567.39 14.44 C567.38 15.87 567.37 17.29 567.36 18.72 C567.36 20.19 567.36 21.66 567.36 23.12 C567.36 26.19 567.35 29.26 567.34 32.34 C567.31 36.27 567.31 40.21 567.32 44.14 C567.32 47.17 567.32 50.2 567.31 53.23 C567.3 54.68 567.3 56.13 567.3 57.58 C567.3 59.61 567.29 61.64 567.27 63.66 C567.27 64.82 567.27 65.97 567.26 67.16 C567 70 567 70 565 73 C565 74.98 565 76.96 565 79 C379.21 79 193.42 79 2 79 C2 78.34 2 77.68 2 77 C1.34 77 0.68 77 0 77 C0 51.59 0 26.18 0 0 Z M565 57 C566 59 566 59 566 59 Z " fill="#000100" transform="translate(196,373)"/>
<path d="M0 0 C25.41 0 50.82 0 77 0 C77 107.58 77 215.16 77 326 C78.98 325.01 80.96 324.02 83 323 C83.99 322.67 84.98 322.34 86 322 C86.33 321.34 86.66 320.68 87 320 C89.07 317.66 91.07 316.29 93.88 314.94 C94.57 314.6 95.27 314.26 96 313.91 C97.62 313.17 99.27 312.51 100.94 311.88 C103.18 311.19 103.18 311.19 104 309 C108.08 306.66 112.59 305.09 116.93 303.32 C118.97 302.44 120.99 301.5 122.97 300.5 C126.12 298.94 129.28 297.67 132.56 296.44 C137.13 294.72 137.13 294.72 141.63 292.86 C144.05 291.98 145.76 291.79 148.31 291.88 C149.53 291.92 150.75 291.96 152 292 C152 291.34 152 290.68 152 290 C173.53 289.01 173.53 289.01 181 295 C185.3 299.06 187.14 302.41 189 308 C189.66 308 190.32 308 191 308 C191.7 309.22 192.39 310.45 193.06 311.69 C193.45 312.37 193.83 313.06 194.22 313.76 C195.23 316.65 195.09 318.15 194 321 C192.03 322.29 192.03 322.29 189.5 323.19 C188.59 323.51 187.68 323.83 186.75 324.17 C183.62 325.11 180.5 325.8 177.3 326.43 C173.82 327.29 170.62 328.73 167.36 330.2 C164.77 331.08 162.71 331.14 160 331 C159.67 331.66 159.34 332.32 159 333 C157.26 333.54 157.26 333.54 155 334 C146.56 336.21 138.32 338.61 130.25 341.94 C124.29 344.36 118.17 346.18 112 348 C110.25 348.52 108.5 349.04 106.75 349.56 C105.95 349.8 105.15 350.04 104.32 350.29 C102.05 350.98 99.81 351.73 97.56 352.5 C94.16 353.66 90.73 354.6 87.25 355.5 C83.37 356.52 80.37 357.79 77 360 C76.01 360 75.02 360 74 360 C73.67 361.65 73.34 363.3 73 365 C72.45 365.04 71.9 365.09 71.34 365.14 C57.48 366.22 57.48 366.22 44 369.41 C42 370 42 370 39 370 C38.67 368.68 38.34 367.36 38 366 C29.09 366 20.18 366 11 366 C10.67 366.99 10.34 367.98 10 369 C9.01 369 8.02 369 7 369 C7 368.34 7 367.68 7 367 C6.29 366.95 5.58 366.9 4.85 366.85 C3.93 366.78 3.01 366.7 2.06 366.62 C1.15 366.56 0.23 366.49 -0.71 366.41 C-1.47 366.28 -2.22 366.14 -3 366 C-3.33 365.34 -3.66 364.68 -4 364 C-5.39 364.06 -5.39 364.06 -6.81 364.12 C-10 364 -10 364 -13 362 C-14.86 361.47 -16.74 360.99 -18.62 360.56 C-23.88 359.36 -28.9 357.74 -34 356 C-35.8 355.4 -37.59 354.8 -39.39 354.2 C-40.34 353.89 -41.28 353.57 -42.26 353.25 C-44.31 352.56 -46.35 351.88 -48.4 351.2 C-53.56 349.48 -58.72 347.76 -63.88 346.03 C-64.81 345.72 -65.74 345.41 -66.69 345.09 C-68.42 344.51 -70.15 343.93 -71.87 343.35 C-76.84 341.68 -81.83 340.13 -86.86 338.64 C-89.31 337.91 -91.7 337.13 -94.06 336.12 C-98.86 334.29 -103.82 332.75 -108.82 331.57 C-112.18 330.69 -115.46 329.55 -118.75 328.44 C-119.45 328.2 -120.14 327.97 -120.86 327.73 C-122.58 327.15 -124.29 326.58 -126 326 C-126 325.67 -126 325.34 -126 325 C-127.98 324.67 -129.96 324.34 -132 324 C-132 323.34 -132 322.68 -132 322 C-132.99 322.33 -133.98 322.66 -135 323 C-137.19 322.55 -137.19 322.55 -139.56 321.75 C-140.35 321.5 -141.13 321.24 -141.94 320.98 C-144 320 -144 320 -146 317 C-146.12 313.81 -146.12 313.81 -146 311 C-145.34 311 -144.68 311 -144 311 C-143.4 308.24 -143 305.84 -143 303 C-142.4 302.75 -141.8 302.5 -141.19 302.25 C-138.66 300.81 -137.45 299.52 -136 297 C-136.5 295.51 -136.5 295.51 -137 294 C-127.59 289.41 -127.59 289.41 -123 290 C-123 289.34 -123 288.68 -123 288 C-110.92 287.33 -101.3 288.71 -90 293 C-88.61 293.52 -88.61 293.52 -87.2 294.05 C-84.78 294.99 -82.39 295.98 -80 297 C-78.99 297.41 -77.98 297.83 -76.94 298.25 C-71.86 300.34 -66.86 302.45 -62 305 C-61.22 305.39 -60.43 305.78 -59.62 306.19 C-58.82 306.59 -58.82 306.59 -58 307 C-58 307.66 -58 308.32 -58 309 C-57.14 309.26 -56.28 309.52 -55.4 309.78 C-51.87 311.05 -48.86 312.62 -45.62 314.5 C-44.57 315.11 -43.51 315.72 -42.41 316.34 C-41.22 317.16 -41.22 317.16 -40 318 C-40 318.66 -40 319.32 -40 320 C-39.13 320.23 -38.27 320.45 -37.38 320.69 C-33.48 322.2 -31.13 324.26 -28 327 C-26.97 327.66 -25.94 328.32 -24.88 329 C-21.9 331.07 -20.25 333.19 -18 336 C-16.6 336.91 -15.21 337.82 -13.79 338.69 C-10.48 341.12 -7.77 344.2 -4.95 347.17 C-3.2 349.23 -3.2 349.23 -1 349 C-0.5 176.25 -0.5 176.25 0 0 Z " fill="#000100" transform="translate(818,0)"/>
<path d="M0 0 C75.04 1.04 75.04 1.04 78 4 C78.1 5.38 78.12 6.77 78.12 8.15 C78.13 9.05 78.13 9.95 78.13 10.88 C78.13 11.88 78.12 12.88 78.12 13.91 C78.12 14.97 78.12 16.02 78.12 17.11 C78.12 20.67 78.12 24.23 78.11 27.8 C78.11 30.34 78.11 32.88 78.11 35.42 C78.11 40.91 78.11 46.4 78.11 51.89 C78.1 59.82 78.1 67.76 78.09 75.69 C78.09 88.56 78.08 101.43 78.08 114.3 C78.07 126.81 78.06 139.32 78.05 151.83 C78.05 152.6 78.05 153.37 78.05 154.16 C78.05 158.02 78.05 161.89 78.05 165.75 C78.04 197.84 78.02 229.92 78 262 C52.59 262 27.18 262 1 262 C0.67 175.54 0.34 89.08 0 0 Z " fill="#000100" transform="translate(827,419)"/>
<path d="M0 0 C1.84 0.01 1.84 0.01 3.72 0.02 C4.4 0.02 5.08 0.02 5.78 0.02 C8.08 0.03 10.38 0.04 12.67 0.06 C14.31 0.07 15.95 0.07 17.59 0.08 C22.06 0.1 26.53 0.12 31 0.15 C34.73 0.17 38.45 0.19 42.18 0.21 C50.96 0.25 59.75 0.3 68.54 0.35 C77.61 0.41 86.69 0.45 95.76 0.49 C103.55 0.53 111.33 0.57 119.11 0.62 C123.76 0.64 128.41 0.67 133.06 0.69 C137.44 0.7 141.81 0.73 146.19 0.76 C147.8 0.77 149.4 0.78 151.01 0.78 C153.2 0.79 155.39 0.81 157.58 0.83 C158.81 0.83 160.04 0.84 161.3 0.85 C164.28 1.11 164.28 1.11 167.28 3.11 C167.64 5.33 167.64 5.33 167.63 8.11 C167.64 9.67 167.64 9.67 167.64 11.27 C167.62 12.96 167.62 12.96 167.61 14.69 C167.6 15.85 167.6 17.01 167.6 18.2 C167.59 20.66 167.58 23.12 167.56 25.58 C167.53 29.33 167.52 33.09 167.51 36.84 C167.5 39.23 167.49 41.62 167.48 44 C167.48 45.13 167.47 46.25 167.47 47.4 C167.42 52.43 167.22 57.16 166.28 62.11 C166.6 63.78 166.94 65.45 167.28 67.11 C166.96 68.78 166.63 70.45 166.28 72.11 C166.24 73.5 166.23 74.89 166.24 76.28 C166.25 77.55 166.27 78.81 166.28 80.11 C144.96 80.16 123.65 80.19 102.34 80.22 C92.44 80.23 82.54 80.24 72.65 80.26 C64.02 80.28 55.4 80.3 46.77 80.3 C42.21 80.3 37.64 80.31 33.07 80.32 C28.77 80.34 24.48 80.34 20.18 80.34 C18.6 80.34 17.02 80.34 15.44 80.35 C13.29 80.36 11.14 80.36 8.98 80.35 C7.78 80.36 6.57 80.36 5.33 80.36 C2.36 80.12 0.68 79.86 -1.72 78.11 C-3.65 72.62 -3.82 67.59 -3.8 61.8 C-3.79 61.07 -3.79 60.34 -3.79 59.59 C-3.74 50.03 -3.55 40.47 -3.35 30.91 C-3.28 27.69 -3.23 24.47 -3.17 21.25 C-3.12 19.2 -3.08 17.14 -3.04 15.09 C-3.02 14.13 -3.01 13.17 -2.99 12.18 C-2.97 11.3 -2.95 10.41 -2.93 9.5 C-2.91 8.72 -2.9 7.94 -2.88 7.14 C-2.72 5.11 -2.72 5.11 -1.72 2.11 C-2.38 1.78 -3.04 1.45 -3.72 1.11 C-2.72 0.11 -2.72 0.11 0 0 Z " fill="#000100" transform="translate(915.7227687835693,365.88698291778564)"/>
<path d="M0 0 C2 1.38 2 1.38 4 4 C4.7 8.95 4.81 12.79 2 17 C2 18.98 2 20.96 2 23 C-183.79 23 -369.58 23 -561 23 C-561 22.34 -561 21.68 -561 21 C-561.66 21 -562.32 21 -563 21 C-563.03 19.54 -563.05 18.08 -563.06 16.62 C-563.07 15.81 -563.09 15 -563.1 14.16 C-562.96 9.76 -562.44 5.38 -562 1 C-376.54 1.33 -191.08 1.66 0 2 C0 1.34 0 0.68 0 0 Z " fill="#6B6D6D" transform="translate(759,429)"/>
<path d="M0 0 C4.29 0 8.58 0 13 0 C13 107.58 13 215.16 13 326 C14.98 325.01 16.96 324.02 19 323 C19.99 322.67 20.98 322.34 22 322 C22.33 321.34 22.66 320.68 23 320 C25.07 317.66 27.07 316.29 29.88 314.94 C30.57 314.6 31.27 314.26 32 313.91 C33.62 313.17 35.27 312.51 36.94 311.88 C39.18 311.19 39.18 311.19 40 309 C44.08 306.66 48.59 305.09 52.93 303.32 C54.97 302.44 56.99 301.5 58.97 300.5 C62.12 298.94 65.28 297.67 68.56 296.44 C73.13 294.72 73.13 294.72 77.63 292.86 C80.05 291.98 81.76 291.79 84.31 291.88 C85.53 291.92 86.75 291.96 88 292 C88 291.34 88 290.68 88 290 C109.53 289.01 109.53 289.01 117 295 C121.3 299.06 123.14 302.41 125 308 C125.66 308 126.32 308 127 308 C127.7 309.22 128.39 310.45 129.06 311.69 C129.45 312.37 129.83 313.06 130.22 313.76 C131.23 316.65 131.09 318.15 130 321 C128.03 322.29 128.03 322.29 125.5 323.19 C124.59 323.51 123.68 323.83 122.75 324.17 C119.62 325.11 116.5 325.8 113.3 326.43 C109.82 327.29 106.62 328.73 103.36 330.2 C100.77 331.08 98.71 331.14 96 331 C95.67 331.66 95.34 332.32 95 333 C93.26 333.54 93.26 333.54 91 334 C82.56 336.21 74.32 338.61 66.25 341.94 C60.29 344.36 54.17 346.18 48 348 C46.25 348.52 44.5 349.04 42.75 349.56 C41.95 349.8 41.15 350.04 40.32 350.29 C38.05 350.98 35.81 351.73 33.56 352.5 C30.16 353.66 26.73 354.6 23.25 355.5 C19.37 356.52 16.37 357.79 13 360 C12.01 360 11.02 360 10 360 C9.67 361.65 9.34 363.3 9 365 C8.45 365.04 7.9 365.09 7.34 365.14 C-6.52 366.22 -6.52 366.22 -20 369.41 C-22 370 -22 370 -25 370 C-23.04 363.13 -20.38 358.91 -14.75 354.65 C-7.06 348.62 -1 342.88 0.66 332.93 C1.41 325.01 1.34 317.11 1.17 309.17 C1.11 305.01 1.15 300.85 1.17 296.69 C1.2 289.5 1.17 282.32 1.09 275.13 C0.97 264.74 0.96 254.35 0.96 243.96 C0.98 227.1 0.91 210.24 0.79 193.38 C0.67 177.01 0.59 160.64 0.56 144.27 C0.56 143.26 0.56 142.25 0.56 141.21 C0.55 136.14 0.54 131.07 0.53 126 C0.47 84 0.28 42 0 0 Z " fill="#A3A6A5" transform="translate(882,0)"/>
<path d="M0 0 C0.99 0.5 0.99 0.5 2 1 C5.01 1.1 7.99 1.13 11 1.13 C12.42 1.13 12.42 1.13 13.87 1.13 C17.08 1.13 20.3 1.13 23.51 1.13 C25.82 1.13 28.14 1.13 30.45 1.13 C36.16 1.14 41.88 1.13 47.59 1.13 C54.43 1.13 61.27 1.13 68.11 1.13 C81.51 1.14 94.91 1.14 108.32 1.14 C120.05 1.13 131.78 1.13 143.51 1.13 C144.29 1.13 145.06 1.13 145.86 1.13 C149.02 1.13 152.17 1.13 155.32 1.14 C184.93 1.14 214.54 1.14 244.15 1.13 C270.48 1.13 296.8 1.13 323.12 1.13 C352.67 1.14 382.23 1.14 411.78 1.13 C414.93 1.13 418.08 1.13 421.22 1.13 C422 1.13 422.78 1.13 423.57 1.13 C435.3 1.13 447.02 1.13 458.74 1.14 C472.07 1.14 485.4 1.14 498.73 1.13 C505.53 1.13 512.34 1.13 519.14 1.13 C525.36 1.14 531.59 1.13 537.81 1.13 C540.07 1.13 542.33 1.13 544.59 1.13 C547.64 1.13 550.7 1.13 553.75 1.13 C555.09 1.13 555.09 1.13 556.45 1.13 C557.26 1.13 558.07 1.13 558.91 1.13 C559.61 1.13 560.31 1.13 561.03 1.13 C563.12 0.99 564.99 0.57 567 0 C566.12 4.88 566.12 4.88 565 6 C565 7.98 565 9.96 565 12 C379.21 12 193.42 12 2 12 C2 11.34 2 10.68 2 10 C1.34 10 0.68 10 0 10 C0 6.7 0 3.4 0 0 Z " fill="#BBBDBD" transform="translate(196,440)"/>
<path d="M0 0 C12.08 -0.67 21.7 0.71 33 5 C33.92 5.35 34.85 5.69 35.8 6.05 C38.22 6.99 40.61 7.98 43 9 C44.01 9.41 45.02 9.83 46.06 10.25 C51.14 12.34 56.14 14.45 61 17 C61.78 17.39 62.57 17.78 63.38 18.19 C63.91 18.46 64.45 18.72 65 19 C65 19.66 65 20.32 65 21 C65.86 21.26 66.72 21.52 67.6 21.78 C71.13 23.05 74.14 24.62 77.38 26.5 C78.43 27.11 79.49 27.72 80.59 28.34 C81.38 28.89 82.18 29.44 83 30 C83 30.66 83 31.32 83 32 C83.87 32.23 84.73 32.45 85.62 32.69 C89.52 34.2 91.87 36.26 95 39 C96.03 39.66 97.06 40.32 98.12 41 C101.1 43.07 102.75 45.19 105 48 C106.38 48.89 107.76 49.77 109.15 50.64 C114.63 54.68 120.12 59.78 123 66 C124.09 67.55 125.22 69.07 126.38 70.56 C126.96 71.33 127.55 72.09 128.15 72.88 C129.95 74.94 131.75 76.45 134 78 C133.67 78.99 133.34 79.98 133 81 C132.01 81 131.02 81 130 81 C130 80.34 130 79.68 130 79 C128.93 78.93 128.93 78.93 127.85 78.85 C126.93 78.78 126.01 78.7 125.06 78.62 C124.15 78.56 123.23 78.49 122.29 78.41 C121.53 78.28 120.78 78.14 120 78 C119.67 77.34 119.34 76.68 119 76 C118.07 76.04 117.14 76.08 116.19 76.12 C113 76 113 76 110 74 C108.14 73.47 106.26 72.99 104.38 72.56 C99.12 71.36 94.1 69.74 89 68 C87.2 67.4 85.41 66.8 83.61 66.2 C82.66 65.89 81.72 65.57 80.74 65.25 C78.69 64.56 76.65 63.88 74.6 63.2 C69.44 61.48 64.28 59.76 59.12 58.03 C57.73 57.56 57.73 57.56 56.31 57.09 C54.58 56.51 52.85 55.93 51.13 55.35 C46.16 53.68 41.17 52.13 36.14 50.64 C33.69 49.91 31.3 49.13 28.94 48.12 C24.14 46.29 19.18 44.75 14.18 43.57 C10.82 42.69 7.54 41.55 4.25 40.44 C3.55 40.2 2.86 39.97 2.14 39.73 C0.42 39.15 -1.29 38.58 -3 38 C-3 37.67 -3 37.34 -3 37 C-4.98 36.67 -6.96 36.34 -9 36 C-9 35.34 -9 34.68 -9 34 C-10.49 34.5 -10.49 34.5 -12 35 C-14.19 34.55 -14.19 34.55 -16.56 33.75 C-17.74 33.37 -17.74 33.37 -18.94 32.98 C-21 32 -21 32 -23 29 C-23.12 25.81 -23.12 25.81 -23 23 C-22.34 23 -21.68 23 -21 23 C-20.4 20.24 -20 17.84 -20 15 C-19.4 14.75 -18.8 14.5 -18.19 14.25 C-15.66 12.81 -14.45 11.52 -13 9 C-13.33 8.01 -13.66 7.02 -14 6 C-4.59 1.41 -4.59 1.41 0 2 C0 1.34 0 0.68 0 0 Z " fill="#A3A6A5" transform="translate(695,288)"/>
<path d="M0 0 C2.73 -0.05 5.46 -0.09 8.19 -0.12 C9.34 -0.15 9.34 -0.15 10.52 -0.18 C14.8 -0.21 18.11 -0.04 22 2 C23 3 23 3 23.12 4.78 C23.12 5.56 23.12 6.35 23.12 7.15 C23.13 8.05 23.13 8.95 23.13 9.88 C23.12 11.38 23.12 11.38 23.12 12.91 C23.12 13.97 23.12 15.02 23.12 16.11 C23.12 19.67 23.12 23.23 23.11 26.8 C23.11 29.34 23.11 31.88 23.11 34.42 C23.11 39.91 23.11 45.4 23.11 50.89 C23.1 58.82 23.1 66.76 23.09 74.69 C23.09 87.56 23.08 100.43 23.08 113.3 C23.07 125.81 23.06 138.32 23.05 150.83 C23.05 151.98 23.05 151.98 23.05 153.16 C23.05 157.02 23.05 160.89 23.05 164.75 C23.04 196.84 23.02 228.92 23 261 C16.73 261 10.46 261 4 261 C3.67 176.19 3.34 91.38 3 4 C2.01 3.67 1.02 3.34 0 3 C0 2.01 0 1.02 0 0 Z " fill="#424443" transform="translate(882,420)"/>
<path d="M0 0 C2 1.81 2 1.81 4 4 C4 4.99 4 5.98 4 7 C-0.04 8.35 -3.92 8.13 -8.12 8.11 C-9.07 8.11 -10.02 8.11 -11 8.11 C-14.22 8.11 -17.43 8.1 -20.65 8.09 C-22.96 8.09 -25.28 8.08 -27.59 8.08 C-33.31 8.07 -39.02 8.06 -44.74 8.05 C-51.58 8.04 -58.42 8.03 -65.26 8.02 C-78.67 8 -92.08 7.97 -105.48 7.95 C-117.22 7.92 -128.95 7.9 -140.68 7.88 C-141.46 7.88 -142.24 7.88 -143.04 7.88 C-146.19 7.87 -149.35 7.87 -152.5 7.86 C-182.11 7.81 -211.73 7.76 -241.34 7.7 C-267.67 7.65 -294 7.6 -320.33 7.56 C-349.89 7.51 -379.45 7.46 -409.01 7.4 C-412.16 7.4 -415.3 7.39 -418.45 7.39 C-419.23 7.38 -420 7.38 -420.8 7.38 C-432.53 7.36 -444.26 7.34 -455.99 7.32 C-469.31 7.3 -482.64 7.28 -495.97 7.25 C-502.78 7.23 -509.59 7.22 -516.39 7.21 C-522.62 7.2 -528.84 7.19 -535.06 7.17 C-537.32 7.17 -539.58 7.16 -541.84 7.16 C-544.89 7.16 -547.95 7.15 -551 7.14 C-551.89 7.14 -552.79 7.14 -553.71 7.14 C-559.77 7.11 -559.77 7.11 -562 6 C-562 4.35 -562 2.7 -562 1 C-376.54 1.33 -191.08 1.66 0 2 C0 1.34 0 0.68 0 0 Z " fill="#434544" transform="translate(759,429)"/>
<path d="M0 0 C0.99 0.5 0.99 0.5 2 1 C5.01 1.1 7.99 1.13 11 1.13 C12.42 1.13 12.42 1.13 13.87 1.13 C17.08 1.13 20.3 1.13 23.51 1.13 C25.82 1.13 28.14 1.13 30.45 1.13 C36.16 1.14 41.88 1.13 47.59 1.13 C54.43 1.13 61.27 1.13 68.11 1.13 C81.51 1.14 94.91 1.14 108.32 1.14 C120.05 1.13 131.78 1.13 143.51 1.13 C144.29 1.13 145.06 1.13 145.86 1.13 C149.02 1.13 152.17 1.13 155.32 1.14 C184.93 1.14 214.54 1.14 244.15 1.13 C270.48 1.13 296.8 1.13 323.12 1.13 C352.67 1.14 382.23 1.14 411.78 1.13 C414.93 1.13 418.08 1.13 421.22 1.13 C422 1.13 422.78 1.13 423.57 1.13 C435.3 1.13 447.02 1.13 458.74 1.14 C472.07 1.14 485.4 1.14 498.73 1.13 C505.53 1.13 512.34 1.13 519.14 1.13 C525.36 1.14 531.59 1.13 537.81 1.13 C540.07 1.13 542.33 1.13 544.59 1.13 C547.64 1.13 550.7 1.13 553.75 1.13 C555.09 1.13 555.09 1.13 556.45 1.13 C557.26 1.13 558.07 1.13 558.91 1.13 C559.61 1.13 560.31 1.13 561.03 1.13 C563.12 0.99 564.99 0.57 567 0 C566.75 2.38 566.75 2.38 566 5 C563.27 6.75 561.13 7.25 557.92 7.25 C557.11 7.26 556.3 7.26 555.47 7.27 C554.58 7.26 553.7 7.26 552.79 7.25 C551.84 7.25 550.89 7.26 549.91 7.26 C546.72 7.27 543.52 7.26 540.32 7.25 C538.01 7.26 535.7 7.26 533.4 7.26 C527.04 7.27 520.68 7.27 514.32 7.26 C508.17 7.26 502.03 7.26 495.88 7.27 C482.53 7.28 469.17 7.28 455.82 7.27 C444.14 7.27 432.45 7.27 420.77 7.27 C419.99 7.27 419.22 7.27 418.42 7.27 C415.28 7.27 412.14 7.27 408.99 7.27 C379.5 7.28 350 7.27 320.5 7.26 C294.28 7.25 268.06 7.25 241.84 7.26 C212.39 7.27 182.95 7.28 153.51 7.27 C150.37 7.27 147.24 7.27 144.1 7.27 C142.94 7.27 142.94 7.27 141.76 7.27 C130.08 7.26 118.4 7.27 106.72 7.27 C93.44 7.28 80.17 7.28 66.89 7.27 C60.11 7.26 53.34 7.26 46.56 7.27 C40.36 7.27 34.16 7.27 27.97 7.26 C25.72 7.26 23.46 7.26 21.21 7.26 C18.17 7.27 15.13 7.26 12.09 7.25 C10.76 7.26 10.76 7.26 9.4 7.27 C3.34 7.23 3.34 7.23 0 5 C-0.19 2.38 -0.19 2.38 0 0 Z " fill="#949696" transform="translate(196,440)"/>
<path d="M0 0 C2.31 0 4.62 0 7 0 C7.09 43.25 7.16 86.49 7.2 129.74 C7.21 134.84 7.21 139.94 7.22 145.04 C7.22 146.06 7.22 147.08 7.22 148.12 C7.24 164.58 7.27 181.04 7.31 197.51 C7.35 214.39 7.37 231.27 7.38 248.15 C7.38 258.58 7.4 269 7.43 279.42 C7.45 286.56 7.46 293.7 7.45 300.84 C7.45 304.97 7.46 309.09 7.48 313.22 C7.5 316.99 7.5 320.76 7.48 324.53 C7.48 326.55 7.5 328.57 7.52 330.58 C7.51 331.78 7.5 332.97 7.49 334.2 C7.49 335.23 7.5 336.26 7.5 337.32 C6.88 340.67 5.57 341.86 3 344 C2.01 343.67 1.02 343.34 0 343 C0 229.81 0 116.62 0 0 Z " fill="#484949" transform="translate(875,0)"/>
<path d="M0 0 C8 1 8 1 10 3 C10.25 4.9 10.25 4.9 10.25 7.28 C10.25 8.18 10.25 9.08 10.26 10.01 C10.25 11.01 10.25 12.01 10.24 13.04 C10.24 14.09 10.24 15.15 10.25 16.23 C10.25 19.79 10.24 23.35 10.23 26.91 C10.23 29.45 10.23 31.99 10.23 34.54 C10.23 40.02 10.22 45.51 10.21 50.99 C10.2 58.92 10.19 66.85 10.19 74.78 C10.18 87.65 10.17 100.51 10.15 113.38 C10.13 125.88 10.12 138.38 10.11 150.88 C10.11 151.65 10.11 152.42 10.11 153.21 C10.11 157.08 10.1 160.94 10.1 164.8 C10.08 196.87 10.04 228.93 10 261 C7.03 261 4.06 261 1 261 C0.67 174.87 0.34 88.74 0 0 Z " fill="#A5A8A7" transform="translate(895,420)"/>
<path d="M0 0 C1.34 0 1.34 0 2.7 0.01 C3.65 0.01 4.59 0 5.56 0 C8.76 -0 11.96 0 15.16 0.01 C17.46 0 19.76 0 22.07 0 C28.42 -0 34.78 -0 41.13 0 C47.27 0 53.41 0 59.55 -0 C72.9 -0.01 86.24 -0.01 99.58 -0 C111.25 -0 122.93 0 134.61 -0 C135.38 -0 136.15 -0 136.95 -0 C140.09 -0 143.23 -0 146.36 -0 C175.83 -0.01 205.3 -0 234.77 0 C260.97 0.01 287.17 0.01 313.37 0 C342.78 -0 372.19 -0 401.6 -0 C404.74 -0 407.87 -0 411 -0 C411.77 -0 412.55 -0 413.34 -0 C425.01 0 436.68 -0 448.35 -0 C461.62 -0.01 474.88 -0.01 488.15 -0 C494.92 0 501.7 0 508.47 0 C514.66 -0 520.86 -0 527.05 0 C529.3 0.01 531.55 0 533.8 0 C536.84 -0 539.87 0 542.91 0.01 C543.8 0 544.69 0 545.61 0 C551.64 0.02 551.64 0.02 553.87 1.13 C553.87 2.12 553.87 3.11 553.87 4.13 C368.74 4.13 183.61 4.13 -7.13 4.13 C-7.13 -1.2 -4.69 0.01 0 0 Z " fill="#131615" transform="translate(205.1288447678089,426.86706441640854)"/>
<path d="M0 0 C0.33 0.66 0.66 1.32 1 2 C56.11 2.33 111.22 2.66 168 3 C168.93 7.67 169.08 11.3 169 16 C147.69 16.05 126.37 16.08 105.06 16.1 C95.16 16.11 85.27 16.13 75.37 16.15 C66.75 16.17 58.12 16.18 49.5 16.19 C44.93 16.19 40.36 16.2 35.8 16.21 C31.5 16.23 27.2 16.23 22.9 16.23 C21.32 16.23 19.75 16.23 18.17 16.24 C16.01 16.25 13.86 16.25 11.71 16.24 C10.5 16.24 9.3 16.24 8.05 16.25 C5.11 16.01 3.43 15.65 1 14 C-0.94 9.53 -1.51 4.67 0 0 Z " fill="#7F8281" transform="translate(913,430)"/>
<path d="M0 0 C1.98 0 3.96 0 6 0 C6 0.7 6 1.41 6 2.13 C5.98 43.81 5.96 85.49 5.95 127.16 C5.95 132.16 5.95 137.16 5.95 142.16 C5.94 143.16 5.94 144.15 5.94 145.18 C5.94 161.32 5.93 177.45 5.92 193.59 C5.91 210.13 5.91 226.68 5.91 243.22 C5.9 253.44 5.9 263.66 5.89 273.87 C5.89 280.87 5.89 287.87 5.89 294.87 C5.89 298.91 5.89 302.95 5.88 307 C5.88 310.69 5.88 314.39 5.88 318.08 C5.88 320.06 5.88 322.05 5.87 324.03 C5.87 325.19 5.87 326.35 5.88 327.55 C5.88 328.56 5.88 329.57 5.88 330.62 C5.84 333.02 5.84 333.02 7 335 C3.53 336.98 3.53 336.98 0 339 C0 227.13 0 115.26 0 0 Z " fill="#808382" transform="translate(882,0)"/>
<path d="M0 0 C0.84 0.28 0.84 0.28 1.69 0.56 C4.03 1.16 4.03 1.16 6.5 0.5 C9 0 9 0 10.9 0.48 C13.12 1.03 14.78 1.02 17.05 0.84 C17.81 0.79 18.57 0.74 19.36 0.68 C20.94 0.56 22.52 0.44 24.09 0.32 C29.25 -0.04 33.89 0.28 39 1 C40.68 0.71 42.34 0.38 44 0 C46.33 -0.08 48.67 -0.09 51 0 C51.5 0.5 51.5 0.5 52 1 C54.19 0.88 56.38 0.7 58.56 0.5 C62.66 0.17 66.49 -0.13 70.56 0.5 C73.94 0.99 75.73 0.67 79 0 C80.92 -0.09 82.83 -0.13 84.75 -0.12 C86.2 -0.13 86.2 -0.13 87.67 -0.13 C90 0 90 0 91 1 C93.19 0.88 95.38 0.7 97.56 0.5 C101.66 0.17 105.49 -0.13 109.56 0.5 C112.89 0.98 114.79 0.74 118 0 C120.33 -0.08 122.67 -0.09 125 0 C125.49 0.5 125.49 0.5 126 1 C129.78 0.85 133.53 0.59 137.3 0.32 C138.49 0.24 138.49 0.24 139.71 0.16 C140.8 0.08 140.8 0.08 141.91 -0.01 C144.1 0 145.89 0.46 148 1 C149.67 0.69 151.34 0.35 153 0 C155.42 -0.09 157.83 -0.13 160.25 -0.12 C161.49 -0.13 162.74 -0.13 164.02 -0.13 C167 0 167 0 168 1 C168 2.67 168 4.33 168 6 C168.31 7.67 168.64 9.34 169 11 C147.29 11.05 125.59 11.08 103.88 11.1 C93.81 11.11 83.73 11.13 73.65 11.15 C64.87 11.17 56.09 11.18 47.3 11.19 C42.65 11.19 38 11.2 33.35 11.21 C28.97 11.23 24.6 11.23 20.22 11.23 C18.61 11.23 17.01 11.23 15.4 11.24 C13.21 11.25 11.01 11.25 8.82 11.24 C7.59 11.24 6.37 11.24 5.1 11.25 C2.15 11.01 0.48 10.55 -2 9 C-2 6.69 -2 4.38 -2 2 C-1.34 2 -0.68 2 0 2 C0 1.34 0 0.68 0 0 Z " fill="#2B2E2B" transform="translate(914,422)"/>
<path d="M0 0 C1.32 0 2.64 0 4 0 C4.13 43.65 4.25 87.29 4.38 130.94 C4.4 136.08 4.41 141.23 4.43 146.38 C4.43 147.41 4.43 148.43 4.44 149.49 C4.48 166.1 4.53 182.71 4.58 199.33 C4.63 216.37 4.68 233.4 4.73 250.44 C4.76 260.96 4.79 271.48 4.82 282 C4.84 289.2 4.87 296.41 4.89 303.62 C4.9 307.78 4.91 311.94 4.92 316.1 C4.93 319.91 4.94 323.72 4.96 327.52 C4.96 328.9 4.96 330.28 4.97 331.66 C4.97 333.53 4.98 335.4 4.98 337.27 C4.99 338.31 4.99 339.36 4.99 340.43 C5 342.29 5 344.14 5 346 C3.68 346.66 2.36 347.32 1 348 C0 347 0 347 -0.12 344.65 C-0.12 343.6 -0.12 342.54 -0.12 341.46 C-0.13 340.25 -0.13 339.04 -0.13 337.79 C-0.13 336.43 -0.12 335.07 -0.12 333.71 C-0.12 332.27 -0.12 330.84 -0.12 329.41 C-0.13 325.46 -0.12 321.5 -0.12 317.55 C-0.11 313.29 -0.11 309.03 -0.11 304.78 C-0.11 297.39 -0.11 290.01 -0.11 282.63 C-0.1 271.96 -0.1 261.29 -0.09 250.61 C-0.09 233.3 -0.08 215.98 -0.08 198.67 C-0.07 181.85 -0.06 165.02 -0.05 148.2 C-0.05 147.16 -0.05 146.13 -0.05 145.06 C-0.05 139.86 -0.05 134.66 -0.05 129.46 C-0.04 86.31 -0.02 43.15 0 0 Z " fill="#1E2020" transform="translate(871,0)"/>
<path d="M0 0 C1.32 0 2.64 0 4 0 C4 107.58 4 215.16 4 326 C4.66 326.33 5.32 326.66 6 327 C5.34 327 4.68 327 4 327 C4 327.66 4 328.32 4 329 C3.34 329 2.68 329 2 329 C0.3 325.29 -0.25 322.4 -0.25 318.32 C-0.25 317.19 -0.25 316.05 -0.26 314.87 C-0.25 313.63 -0.25 312.38 -0.24 311.1 C-0.24 309.76 -0.24 308.42 -0.25 307.08 C-0.25 303.39 -0.24 299.71 -0.23 296.03 C-0.22 292.06 -0.23 288.08 -0.23 284.11 C-0.23 277.23 -0.22 270.35 -0.21 263.47 C-0.2 253.52 -0.19 243.57 -0.19 233.62 C-0.18 217.48 -0.17 201.34 -0.15 185.2 C-0.13 169.51 -0.12 153.83 -0.11 138.15 C-0.11 137.19 -0.11 136.22 -0.11 135.22 C-0.11 130.38 -0.1 125.53 -0.1 120.68 C-0.08 80.45 -0.04 40.23 0 0 Z " fill="#BBBDBD" transform="translate(891,0)"/>
<path d="M0 0 C2.48 0.99 2.48 0.99 5 2 C5 86.81 5 171.62 5 259 C3.35 259 1.7 259 0 259 C0 173.53 0 88.06 0 0 Z " fill="#1E2020" transform="translate(881,422)"/>
<path d="M0 0 C280.17 0.5 280.17 0.5 566 1 C565.67 2.32 565.34 3.64 565 5 C564.67 4.67 564.34 4.34 564 4 C561.02 3.9 558.05 3.87 555.07 3.88 C553.64 3.88 553.64 3.88 552.18 3.87 C548.94 3.87 545.71 3.88 542.47 3.88 C540.14 3.88 537.81 3.88 535.49 3.88 C529.73 3.88 523.98 3.88 518.23 3.88 C511.34 3.89 504.46 3.89 497.57 3.89 C484.86 3.88 472.15 3.89 459.44 3.89 C446.85 3.9 434.26 3.9 421.67 3.91 C420.89 3.91 420.11 3.91 419.31 3.91 C415.34 3.91 411.36 3.91 407.39 3.91 C379.25 3.91 351.1 3.92 322.96 3.92 C295.61 3.93 268.26 3.94 240.91 3.95 C239.65 3.95 239.65 3.95 238.36 3.95 C229.9 3.95 221.44 3.95 212.98 3.95 C195.74 3.95 178.5 3.95 161.27 3.96 C160.48 3.96 159.68 3.96 158.87 3.96 C105.91 3.97 52.96 3.98 0 4 C0 2.68 0 1.36 0 0 Z " fill="#565656" transform="translate(197,435)"/>
<path d="M0 0 C0.99 0.33 1.98 0.66 3 1 C6.06 1.1 9.09 1.13 12.15 1.12 C13.57 1.12 13.57 1.12 15.03 1.13 C18.25 1.13 21.47 1.12 24.7 1.12 C27.02 1.12 29.34 1.12 31.66 1.12 C37.39 1.12 43.12 1.12 48.84 1.12 C55.7 1.11 62.56 1.11 69.42 1.11 C82.08 1.12 94.74 1.11 107.4 1.11 C119.94 1.1 132.47 1.1 145.01 1.09 C145.79 1.09 146.57 1.09 147.37 1.09 C151.33 1.09 155.28 1.09 159.24 1.09 C187.27 1.09 215.31 1.08 243.34 1.08 C270.58 1.07 297.81 1.06 325.05 1.05 C326.31 1.05 326.31 1.05 327.6 1.05 C336.02 1.05 344.45 1.05 352.88 1.05 C370.05 1.05 387.22 1.05 404.39 1.04 C405.18 1.04 405.97 1.04 406.78 1.04 C459.52 1.03 512.26 1.02 565 1 C564.67 2.32 564.34 3.64 564 5 C378.54 4.67 193.08 4.34 2 4 C1.34 2.68 0.68 1.36 0 0 Z " fill="#A5A8A7" transform="translate(196,445)"/>
<path d="M0 0 C0.33 0.99 0.66 1.98 1 3 C0.67 3.66 0.34 4.32 0 5 C-186.12 4.67 -372.24 4.34 -564 4 C-564 3.34 -564 2.68 -564 2 C-562.81 2 -561.63 2 -560.41 1.99 C-508.16 1.92 -455.92 1.84 -403.68 1.76 C-402.49 1.75 -402.49 1.75 -401.28 1.75 C-384.1 1.72 -366.93 1.7 -349.75 1.67 C-341.33 1.66 -332.9 1.64 -324.48 1.63 C-323.64 1.63 -322.8 1.62 -321.94 1.62 C-294.75 1.58 -267.56 1.54 -240.37 1.5 C-212.44 1.46 -184.51 1.41 -156.58 1.37 C-152.64 1.36 -148.7 1.35 -144.76 1.35 C-143.6 1.35 -143.6 1.35 -142.41 1.34 C-129.9 1.32 -117.39 1.3 -104.89 1.29 C-92.32 1.27 -79.76 1.25 -67.2 1.23 C-60.39 1.21 -53.58 1.2 -46.77 1.2 C-40.54 1.19 -34.31 1.18 -28.08 1.16 C-25.82 1.16 -23.56 1.16 -21.3 1.16 C-18.24 1.16 -15.19 1.15 -12.13 1.14 C-11.24 1.14 -10.35 1.14 -9.43 1.14 C-6.04 1.13 -3.24 1.08 0 0 Z " fill="#808382" transform="translate(762,440)"/>
<path d="M0 0 C0.99 0.99 1.98 1.98 3 3 C2.67 3.66 2.34 4.32 2 5 C-183.79 5 -369.58 5 -561 5 C-561.33 3.68 -561.66 2.36 -562 1 C-376.54 1.33 -191.08 1.66 0 2 C0 1.34 0 0.68 0 0 Z " fill="#2F332F" transform="translate(759,429)"/>
<path d="M0 0 C1.65 0 3.3 0 5 0 C6.17 2.34 6.12 3.69 6.12 6.29 C6.13 7.2 6.13 8.1 6.13 9.04 C6.13 10.04 6.12 11.04 6.12 12.07 C6.12 13.13 6.12 14.19 6.12 15.28 C6.12 18.86 6.12 22.43 6.11 26 C6.11 28.55 6.11 31.11 6.11 33.66 C6.11 39.16 6.11 44.67 6.11 50.18 C6.1 58.14 6.09 66.1 6.09 74.06 C6.09 86.98 6.08 99.89 6.08 112.81 C6.07 125.36 6.06 137.9 6.05 150.45 C6.05 151.23 6.05 152 6.05 152.8 C6.05 156.67 6.05 160.55 6.05 164.43 C6.04 196.62 6.02 228.81 6 261 C4.68 261 3.36 261 2 261 C2 175.2 2 89.4 2 1 C1.34 0.67 0.68 0.34 0 0 Z " fill="#6B6D6D" transform="translate(890,420)"/>
<path d="M0 0 C3.88 1.88 3.88 1.88 5 3 C7.11 3.09 9.22 3.12 11.33 3.11 C12.34 3.11 12.34 3.11 13.36 3.11 C15.62 3.11 17.88 3.11 20.14 3.1 C21.75 3.1 23.36 3.09 24.97 3.09 C28.46 3.09 31.94 3.08 35.42 3.08 C40.92 3.06 46.42 3.06 51.91 3.05 C64.58 3.04 77.25 3.02 89.92 2.99 C101.52 2.97 113.13 2.96 124.73 2.95 C130.2 2.94 135.67 2.93 141.14 2.92 C144.54 2.91 147.94 2.91 151.34 2.91 C152.92 2.9 154.5 2.9 156.09 2.89 C158.24 2.89 160.39 2.89 162.54 2.89 C163.75 2.88 164.95 2.88 166.2 2.88 C169 3 169 3 171 4 C171 5.32 171 6.64 171 8 C149.29 8.05 127.59 8.08 105.88 8.1 C95.81 8.11 85.73 8.13 75.65 8.15 C66.87 8.17 58.09 8.18 49.3 8.19 C44.65 8.19 40 8.2 35.35 8.21 C30.97 8.23 26.6 8.23 22.22 8.23 C20.61 8.23 19.01 8.23 17.4 8.24 C15.21 8.25 13.01 8.25 10.82 8.24 C9.59 8.24 8.37 8.24 7.1 8.25 C4.15 8.01 2.48 7.55 0 6 C0 4.02 0 2.04 0 0 Z " fill="#555555" transform="translate(912,425)"/>
<path d="M0 0 C83.16 0.5 83.16 0.5 168 1 C168.33 2.65 168.66 4.3 169 6 C147.69 6.05 126.37 6.08 105.06 6.1 C95.16 6.11 85.27 6.13 75.37 6.15 C66.75 6.17 58.12 6.18 49.5 6.19 C44.93 6.19 40.36 6.2 35.8 6.21 C31.5 6.23 27.2 6.23 22.9 6.23 C21.32 6.23 19.75 6.23 18.17 6.24 C16.01 6.25 13.86 6.25 11.71 6.24 C10.5 6.24 9.3 6.24 8.05 6.25 C5.08 6.01 3.38 5.79 1 4 C0.67 2.68 0.34 1.36 0 0 Z " fill="#BBBDBD" transform="translate(913,440)"/>
<path d="M0 0 C1.32 0 2.64 0 4 0 C4 86.13 4 172.26 4 261 C3.01 261 2.02 261 1 261 C0.67 174.87 0.34 88.74 0 0 Z " fill="#8E9090" transform="translate(895,420)"/>
<path d="M0 0 C2.48 0.5 2.48 0.5 5 1 C5 86.8 5 172.6 5 261 C4.01 261 3.02 261 2 261 C2 260.46 2 259.91 1.99 259.35 C1.89 227.08 1.78 194.82 1.67 162.55 C1.66 158.68 1.64 154.81 1.63 150.94 C1.62 150.16 1.62 149.39 1.62 148.6 C1.58 136.11 1.53 123.62 1.5 111.13 C1.45 98.31 1.41 85.5 1.36 72.69 C1.33 64.78 1.31 56.87 1.28 48.97 C1.27 42.91 1.24 36.85 1.22 30.79 C1.21 28.3 1.2 25.81 1.2 23.32 C1.19 19.93 1.17 16.54 1.16 13.16 C1.16 12.16 1.16 11.17 1.16 10.14 C1.15 9.24 1.14 8.33 1.14 7.4 C1.13 6.22 1.13 6.22 1.13 5.03 C1.07 2.8 1.07 2.8 0 0 Z " fill="#565656" transform="translate(887,420)"/>
<path d="M0 0 C0.66 0 1.32 0 2 0 C2.2 42.9 2.38 85.8 2.54 128.69 C2.55 133.75 2.57 138.81 2.59 143.87 C2.6 144.88 2.6 145.89 2.6 146.92 C2.67 163.25 2.74 179.58 2.81 195.91 C2.89 212.66 2.96 229.4 3.01 246.15 C3.05 256.49 3.09 266.83 3.15 277.17 C3.18 284.25 3.21 291.33 3.23 298.41 C3.24 302.5 3.25 306.59 3.28 310.69 C3.31 314.43 3.32 318.17 3.32 321.91 C3.32 323.91 3.34 325.92 3.36 327.92 C3.36 329.1 3.36 330.28 3.35 331.49 C3.36 332.51 3.36 333.54 3.37 334.59 C3.25 335.39 3.12 336.18 3 337 C2.01 337.66 1.02 338.32 0 339 C0 227.13 0 115.26 0 0 Z " fill="#6B6D6D" transform="translate(882,0)"/>
<path d="M0 0 C0.99 0 1.98 0 3 0 C4.57 -0.01 6.14 -0.02 7.72 -0.03 C13.02 -0.07 18.32 -0.09 23.62 -0.11 C25.92 -0.12 28.21 -0.13 30.51 -0.15 C33.81 -0.18 37.11 -0.19 40.41 -0.2 C41.96 -0.21 41.96 -0.21 43.53 -0.23 C44.48 -0.23 45.43 -0.23 46.41 -0.23 C47.67 -0.23 47.67 -0.23 48.96 -0.24 C51 0 51 0 53 2 C53.66 1.34 54.32 0.68 55 0 C57.9 -0.24 57.9 -0.24 61.65 -0.23 C62.34 -0.23 63.02 -0.23 63.72 -0.23 C65.98 -0.23 68.25 -0.21 70.51 -0.2 C72.07 -0.19 73.64 -0.19 75.21 -0.19 C79.33 -0.18 83.46 -0.16 87.59 -0.14 C91.8 -0.12 96.01 -0.11 100.21 -0.1 C108.48 -0.08 116.74 -0.04 125 0 C125.49 0.99 125.49 0.99 126 2 C128.42 2.17 128.42 2.17 131 2 C131.66 1.34 132.32 0.68 133 0 C135.56 -0.19 138.01 -0.26 140.56 -0.23 C141.68 -0.23 141.68 -0.23 142.83 -0.23 C144.41 -0.23 145.99 -0.22 147.57 -0.21 C149.99 -0.19 152.41 -0.19 154.84 -0.19 C156.37 -0.18 157.9 -0.17 159.44 -0.17 C160.53 -0.17 160.53 -0.17 161.64 -0.16 C166.77 -0.12 166.77 -0.12 169 1 C168.67 2.32 168.34 3.64 168 5 C146.69 4.89 125.37 4.78 104.06 4.66 C94.16 4.61 84.27 4.55 74.37 4.5 C65.75 4.46 57.12 4.41 48.5 4.36 C43.93 4.34 39.36 4.31 34.8 4.29 C30.5 4.27 26.2 4.25 21.9 4.22 C20.32 4.21 18.75 4.2 17.17 4.2 C15.01 4.19 12.86 4.17 10.71 4.16 C8.9 4.15 8.9 4.15 7.05 4.14 C4.51 4.02 2.42 3.75 0 3 C0 2.01 0 1.02 0 0 Z " fill="#949696" transform="translate(913,437)"/>
<path d="M0 0 C1.98 0.99 1.98 0.99 4 2 C4 87.14 4 172.28 4 260 C3.34 260 2.68 260 2 260 C2 259.46 2 258.91 1.99 258.36 C1.89 226.21 1.78 194.07 1.67 161.93 C1.66 158.08 1.64 154.22 1.63 150.36 C1.62 149.59 1.62 148.83 1.62 148.04 C1.58 135.59 1.53 123.15 1.5 110.71 C1.45 97.95 1.41 85.18 1.36 72.42 C1.33 64.55 1.31 56.67 1.28 48.79 C1.27 42.75 1.24 36.72 1.22 30.68 C1.21 28.2 1.2 25.72 1.2 23.24 C1.19 19.87 1.17 16.49 1.16 13.12 C1.16 12.13 1.16 11.14 1.16 10.11 C1.15 9.21 1.14 8.31 1.14 7.38 C1.14 6.6 1.13 5.82 1.13 5.02 C1.07 2.79 1.07 2.79 0 0 Z " fill="#BBBDBD" transform="translate(901,421)"/>
<path d="M0 0 C0.33 0 0.66 0 1 0 C1 114.84 1 229.68 1 348 C0.67 348 0.34 348 0 348 C0 233.16 0 118.32 0 0 Z " fill="#000100" transform="translate(816,0)"/>
<path d="M0 0 C17 0 34 0 51 0 C51.5 0.99 51.5 0.99 52 2 C70.15 2 88.3 2 107 2 C107.5 2.99 107.5 2.99 108 4 C94.51 4.02 81.02 4.04 67.53 4.05 C61.26 4.06 55 4.06 48.74 4.08 C42.69 4.09 36.65 4.09 30.61 4.09 C28.3 4.1 25.99 4.1 23.68 4.11 C20.46 4.11 17.23 4.11 14 4.11 C13.04 4.12 12.08 4.12 11.1 4.12 C10.22 4.12 9.34 4.12 8.43 4.12 C7.67 4.12 6.9 4.12 6.12 4.12 C3.96 4 2.07 3.59 0 3 C0 2.01 0 1.02 0 0 Z M108 2 C111 3 111 3 111 3 Z " fill="#8D908F" transform="translate(913,437)"/>
<path d="M0 0 C0 0.66 0 1.32 0 2 C1.65 2.66 3.3 3.32 5 4 C5 8 5 8 3.67 9.39 C3.04 9.82 2.4 10.25 1.75 10.69 C1.03 11.19 0.31 11.69 -0.43 12.21 C-1.7 13.1 -1.7 13.1 -3 14 C-5.13 15.6 -7.25 17.2 -9.38 18.81 C-14.75 22.88 -14.75 22.88 -17 24 C-17 22.02 -17 20.04 -17 18 C-16.34 18 -15.68 18 -15 18 C-14.4 15.24 -14 12.84 -14 10 C-13.4 9.75 -12.8 9.5 -12.19 9.25 C-9.66 7.81 -8.45 6.52 -7 4 C-7.33 3.01 -7.66 2.02 -8 1 C-4.93 -0.86 -3.4 -1.22 0 0 Z " fill="#AB130A" transform="translate(689,293)"/>
<path d="M0 0 C3.45 0.26 4.24 1.26 6.69 3.88 C8.99 6.98 9.79 9.38 11 13 C11.66 13 12.32 13 13 13 C13.7 14.26 14.38 15.54 15.06 16.81 C15.45 17.52 15.83 18.23 16.22 18.96 C17 21 17 21 16 24 C14.06 23.25 14.06 23.25 12 22 C11.86 21.34 11.71 20.68 11.56 20 C11.38 19.34 11.19 18.68 11 18 C9.34 17.32 7.67 16.65 6 16 C4.2 14.88 2.43 13.72 0.69 12.5 C-0.2 11.89 -1.08 11.28 -1.99 10.66 C-2.65 10.11 -3.32 9.56 -4 9 C-4 8.34 -4 7.68 -4 7 C-4.99 6.67 -5.98 6.34 -7 6 C-7 5.34 -7 4.68 -7 4 C-5.02 3.67 -3.04 3.34 -1 3 C-0.67 2.01 -0.34 1.02 0 0 Z " fill="#AE130A" transform="translate(996,295)"/>
<path d="M0 0 C23.43 0 46.86 0 71 0 C71.49 0.99 71.49 0.99 72 2 C57.58 2.86 43.19 3.11 28.75 3.12 C27.9 3.13 27.06 3.13 26.19 3.13 C17.08 3.15 8.06 3.11 -1 2 C-0.67 1.34 -0.34 0.68 0 0 Z " fill="#9A9D9C" transform="translate(967,437)"/>
<path d="M0 0 C11.88 0 23.76 0 36 0 C36.5 0.99 36.5 0.99 37 2 C24.22 2.93 11.78 2.93 -1 2 C-0.67 1.34 -0.34 0.68 0 0 Z " fill="#9A9D9C" transform="translate(928,437)"/>
<path d="M0 0 C2.63 -0.03 5.25 -0.05 7.88 -0.06 C8.62 -0.07 9.37 -0.08 10.14 -0.09 C15.77 -0.11 15.77 -0.11 18 1 C18 1.66 18 2.32 18 3 C11.4 3 4.8 3 -2 3 C-1.34 2.67 -0.68 2.34 0 2 C0 1.34 0 0.68 0 0 Z " fill="#929594" transform="translate(973,290)"/>
<path d="M0 0 C0.33 0 0.66 0 1 0 C1 16.5 1 33 1 50 C0.34 49.67 -0.32 49.34 -1 49 C-0.67 32.83 -0.34 16.66 0 0 Z " fill="#000100" transform="translate(911,368)"/>
<path d="M0 0 C8.25 0 16.5 0 25 0 C25.33 0.66 25.66 1.32 26 2 C22.23 2.25 18.46 2.47 14.69 2.69 C13.62 2.76 12.54 2.83 11.44 2.91 C10.41 2.96 9.38 3.02 8.32 3.07 C7.38 3.13 6.43 3.19 5.45 3.25 C3 3 3 3 0 0 Z " fill="#999C9B" transform="translate(1013,437)"/>
<path d="M0 0 C0.66 0.66 1.32 1.32 2 2 C-1.47 4.97 -1.47 4.97 -5 8 C-5 5 -5 5 -2.5 2.31 C-1.67 1.55 -0.85 0.79 0 0 Z M-8 8 C-7.34 8.66 -6.68 9.32 -6 10 C-6.99 11.32 -7.98 12.64 -9 14 C-9 11 -9 11 -8 8 Z " fill="#AEB1B0" transform="translate(869,352)"/>
<path d="M0 0 C6.93 0 13.86 0 21 0 C21 1.32 21 2.64 21 4 C17.14 4.09 13.77 3.75 10 3 C8.06 2.79 6.13 2.6 4.19 2.44 C2.72 2.31 2.72 2.31 1.23 2.18 C0.13 2.09 0.13 2.09 -1 2 C-0.67 1.34 -0.34 0.68 0 0 Z " fill="#9A9C9C" transform="translate(1045,437)"/>
<path d="M0 0 C1.94 0.76 3.88 1.53 5.81 2.31 C6.89 2.74 7.97 3.17 9.08 3.61 C11.69 4.85 13.17 5.82 15 8 C13.66 7.68 12.33 7.34 11 7 C9.85 6.71 8.69 6.42 7.5 6.12 C4.32 5.1 2.38 4.29 0 2 C0 1.34 0 0.68 0 0 Z " fill="#848B87" transform="translate(738,297)"/>
<path d="M0 0 C3 0 6 0 9 0 C9 1.32 9 2.64 9 4 C6.03 3.67 3.06 3.34 0 3 C0 2.01 0 1.02 0 0 Z " fill="#959897" transform="translate(913,437)"/>
<path d="M0 0 C0.33 0.99 0.66 1.98 1 3 C0.34 3 -0.32 3 -1 3 C-0.67 2.01 -0.34 1.02 0 0 Z " fill="#BBBDBD" transform="translate(893,361)"/>
<path d="M0 0 C0.66 0 1.32 0 2 0 C1.67 0.99 1.34 1.98 1 3 C0.67 2.01 0.34 1.02 0 0 Z " fill="#000100" transform="translate(910,419)"/>
<path d="M0 0 C0.99 0.5 0.99 0.5 2 1 C1.01 1.5 1.01 1.5 0 2 C0 1.34 0 0.68 0 0 Z " fill="#B61209" transform="translate(679,297)"/>
<path d="" fill="#BBBDBD" transform="translate(0,0)"/>
<path d="" fill="#6B6D6D" transform="translate(0,0)"/>
<path d="M0 0 C2 1 2 1 2 1 Z " fill="#E1E1E1" transform="translate(812,364)"/>
<path d="M0 0 C2 1 2 1 2 1 Z " fill="#E1E1E1" transform="translate(978,331)"/>
<path d="" fill="#1E2020" transform="translate(0,0)"/>
<path d="" fill="#A5A8A7" transform="translate(0,0)"/>
<path d="" fill="#959797" transform="translate(0,0)"/>
<path d="" fill="#6B6D6D" transform="translate(0,0)"/>
<path d="" fill="#565656" transform="translate(0,0)"/>
<path d="" fill="#565656" transform="translate(0,0)"/>
<path d="" fill="#446F4B" transform="translate(0,0)"/>
<path d="" fill="#000100" transform="translate(0,0)"/>
<path d="" fill="#000100" transform="translate(0,0)"/>
<path d="" fill="#446F4B" transform="translate(0,0)"/>
<path d="" fill="#E1E1E1" transform="translate(0,0)"/>
<path d="" fill="#2F332F" transform="translate(0,0)"/>
<path d="" fill="#6B6D6D" transform="translate(0,0)"/>
<path d="" fill="#000100" transform="translate(0,0)"/>
</svg>
