<?xml version="1.0" encoding="UTF-8"?>
<!-- Generator: visioncortex VTracer 0.6.3 -->
<svg version="1.1" xmlns="http://www.w3.org/2000/svg" width="1280" height="640">
<path d="M0 0 C4.35 -0.16 8.04 -0.06 12.25 1.03 C19.66 2.57 27.12 1.96 34.62 1.62 C36.12 1.57 37.62 1.51 39.11 1.45 C42.74 1.31 46.37 1.16 50 1 C50 0.67 50 0.34 50 0 C51.46 -0.03 52.92 -0.05 54.38 -0.06 C55.19 -0.07 56 -0.09 56.84 -0.1 C59 0 59 0 61 1 C63.12 1.12 65.25 1.18 67.38 1.21 C68.03 1.22 68.69 1.23 69.36 1.24 C71.52 1.27 73.69 1.29 75.85 1.32 C77.35 1.34 78.85 1.36 80.35 1.38 C84.3 1.43 88.25 1.48 92.2 1.53 C96.22 1.58 100.25 1.64 104.28 1.69 C112.19 1.8 120.09 1.9 128 2 C128 1.34 128 0.68 128 0 C129.13 0.14 130.27 0.28 131.44 0.43 C143.49 1.86 155.33 2.27 167.45 2.2 C169.33 2.19 171.21 2.19 173.08 2.19 C177.96 2.18 182.83 2.16 187.71 2.14 C192.71 2.12 197.71 2.11 202.71 2.1 C212.48 2.08 222.24 2.04 232 2 C232 1.34 232 0.68 232 0 C236.84 -0.16 241.11 -0.06 245.84 1.01 C252.42 2.25 258.91 2.17 265.57 2.03 C267.8 1.98 270.03 1.96 272.25 1.93 C278.58 1.87 284.9 1.78 291.22 1.66 C295.11 1.58 299 1.54 302.89 1.51 C304.36 1.49 305.82 1.47 307.29 1.43 C317.16 1.17 324.55 2.57 333 8 C334 9 334 9 334.13 11.43 C334.13 12.92 334.13 12.92 334.12 14.44 C334.13 15.43 334.13 16.41 334.13 17.43 C334 20 334 20 333 22 C332.34 22 331.68 22 331 22 C330.96 22.72 330.93 23.45 330.89 24.2 C330.19 34.44 330.19 34.44 327 39 C323.37 41.72 319.17 43.27 315 45 C314.34 45.33 313.68 45.66 313 46 C311.38 46.23 309.76 46.42 308.13 46.58 C307.16 46.69 306.2 46.8 305.2 46.91 C303.16 47.14 301.12 47.35 299.07 47.54 C293.2 48.2 293.2 48.2 288.27 51.27 C286.75 54.53 286.88 56 287.56 59.5 C288.42 66.77 286.97 72.81 283 79 C280.12 81.01 277.44 81.52 274 82 C272.41 82.32 270.83 82.65 269.25 83 C268.55 83.12 267.86 83.25 267.14 83.38 C264.19 84.24 262.4 85.01 260 87 C258.73 89.85 258.06 92.78 257.38 95.81 C254.06 109.61 254.06 109.61 249.88 112.43 C248.73 112.86 248.73 112.86 247.56 113.31 C246.42 113.77 246.42 113.77 245.25 114.24 C241.03 115.67 237.45 116.13 232.97 116.13 C231.14 116.13 231.14 116.13 229.27 116.14 C227.3 116.14 227.3 116.14 225.29 116.13 C223.93 116.13 222.56 116.13 221.19 116.14 C218.32 116.14 215.46 116.14 212.59 116.13 C208.94 116.12 205.28 116.13 201.62 116.13 C198.79 116.14 195.97 116.14 193.14 116.13 C191.14 116.13 189.14 116.14 187.14 116.14 C177.01 116.11 177.01 116.11 172.93 115.43 C169.9 114.99 167.95 115.29 165 116 C153.71 116.71 142.2 117 131.31 113.68 C125.66 112.02 121.05 112.93 115.47 114.5 C109.37 116.05 103.7 116.44 97.42 116.42 C96.34 116.43 95.25 116.44 94.13 116.45 C90.57 116.47 87.02 116.47 83.46 116.47 C80.97 116.48 78.48 116.48 75.98 116.49 C70.78 116.51 65.57 116.51 60.37 116.5 C53.71 116.5 47.06 116.53 40.4 116.57 C35.26 116.59 30.12 116.59 24.98 116.59 C22.52 116.59 20.07 116.6 17.62 116.62 C14.18 116.64 10.75 116.63 7.32 116.62 C5.82 116.64 5.82 116.64 4.28 116.66 C-2.7 116.57 -8.2 114.99 -14 111 C-16.7 106.95 -16.56 103.76 -16 99 C-15.23 97.24 -15.23 97.24 -14.44 95.44 C-12.58 91 -13.1 88.65 -14 84 C-14.82 83.87 -15.64 83.74 -16.49 83.61 C-20.42 82.93 -24.3 82.14 -28.19 81.25 C-28.9 81.11 -29.61 80.96 -30.34 80.81 C-33.79 80.01 -35.68 79.39 -37.96 76.62 C-38.93 74.18 -39.35 72.42 -39.44 69.81 C-39.72 67.93 -39.72 67.93 -40 66 C-40.63 65.72 -41.26 65.43 -41.9 65.14 C-44 64 -44 64 -45.2 61.25 C-45.5 60.18 -45.81 59.11 -46.12 58 C-47.3 53.56 -47.3 53.56 -50 50 C-53.11 49.58 -53.11 49.58 -56.77 49.47 C-58.14 49.4 -59.52 49.33 -60.9 49.26 C-63.07 49.16 -65.24 49.06 -67.41 48.97 C-69.51 48.88 -71.61 48.77 -73.7 48.66 C-74.96 48.6 -76.21 48.55 -77.5 48.49 C-81.79 47.89 -85.57 46.76 -88.38 43.31 C-90.14 36.79 -89.15 32.37 -85.88 26.66 C-84.84 25.02 -84.84 25.02 -85 23 C-85.66 22.53 -86.32 22.05 -87 21.56 C-90.19 17.48 -89.31 13 -89 8 C-88.36 7.75 -87.72 7.5 -87.06 7.25 C-84.16 6.12 -84.16 6.12 -82.08 5.02 C-76.25 2.12 -71.5 1.43 -65.04 1.54 C-64.13 1.54 -63.21 1.54 -62.27 1.54 C-60.36 1.55 -58.45 1.56 -56.54 1.59 C-53.61 1.63 -50.68 1.63 -47.75 1.63 C-45.89 1.64 -44.03 1.65 -42.16 1.66 C-41.29 1.67 -40.41 1.67 -39.51 1.67 C-38.7 1.68 -37.89 1.7 -37.05 1.71 C-35.98 1.72 -35.98 1.72 -34.89 1.73 C-33 2 -33 2 -30 4 C-23.61 5.56 -18.65 4.84 -12.54 2.7 C-8.38 1.55 -4.28 1.75 0 2 C0 1.34 0 0.68 0 0 Z " fill="#F7F6F8" transform="translate(517,261)"/>
<path d="M0 0 C1.67 1.33 3.34 2.66 5 4 C7.54 4.58 7.54 4.58 10 4 C10.59 3.5 11.17 3.01 11.78 2.5 C14.67 0.55 16.52 0.63 19.98 0.64 C21.15 0.64 22.31 0.64 23.51 0.64 C24.72 0.65 25.94 0.67 27.19 0.69 C28.38 0.68 29.58 0.68 30.81 0.68 C47.32 0.78 47.32 0.78 52.94 5.44 C56.16 9.44 57.48 11.76 57.3 17.01 C56.79 20.38 55.55 21.76 53 24 C46.94 27.65 41 28.71 34 29 C34.5 30.49 34.5 30.49 35 32 C35.78 32.1 36.57 32.21 37.38 32.31 C40 33 40 33 42 36 C41.62 38.19 41.62 38.19 41 40 C40.01 40 39.02 40 38 40 C38 42.64 38 45.28 38 48 C39.65 48.66 41.3 49.32 43 50 C42.75 49.3 42.5 48.6 42.25 47.88 C41.89 43.72 43.38 42.16 46 39 C52 34.4 56.44 32.8 63.86 33 C66.11 33.07 66.11 33.07 68.69 32.44 C71.67 31.87 74.01 32.48 77 33 C78.5 32.95 80 32.89 81.5 32.81 C87.03 32.74 89.96 35.27 94.06 38.75 C96.67 40.43 97.96 40.59 101 40 C102.69 38.36 104.35 36.69 106 35 C110.54 33.06 114.35 32.81 119.25 32.94 C123.79 33.24 123.79 33.24 128 32 C134.79 31.24 140.63 32.77 147 35 C147 35.66 147 36.32 147 37 C147.78 36.53 148.57 36.05 149.38 35.56 C153.34 33.85 156.56 33.48 160.83 33.21 C163.05 33.13 163.05 33.13 165 32 C166.47 31.85 167.94 31.75 169.42 31.68 C170.33 31.64 171.25 31.6 172.19 31.56 C173.18 31.52 174.17 31.48 175.19 31.44 C176.2 31.4 177.22 31.36 178.27 31.31 C185.7 31.04 193.13 30.87 200.56 30.81 C201.52 30.8 202.47 30.79 203.46 30.77 C208.35 30.77 212.46 30.95 217 33 C218.12 34.69 218.12 34.69 218 37 C217 38.61 215.99 40.21 214.98 41.81 C213.73 44.61 213.64 47.01 213.5 50.06 C213.21 55.85 212.13 58.87 208 63 C205.45 63.1 202.93 63.14 200.38 63.12 C199.68 63.13 198.98 63.13 198.25 63.14 C194.83 63.13 191.69 62.95 188.29 62.43 C185.03 62 183.17 62.35 180 63 C175.82 63.26 171.63 63.28 167.44 63.31 C166.3 63.34 165.16 63.37 163.99 63.4 C162.36 63.41 162.36 63.41 160.68 63.43 C159.19 63.45 159.19 63.45 157.67 63.47 C154.29 62.88 153.22 61.53 151 59 C147.97 57.81 147.2 57.93 144 59 C144 59.66 144 60.32 144 61 C134.9 65.4 119.99 65.63 110.12 63.33 C107.94 62.5 107.94 62.5 105 61 C105 60.34 105 59.68 105 59 C103.35 58.67 101.7 58.34 100 58 C99.67 56.68 99.34 55.36 99 54 C95.9 54.36 94.81 55.17 92.44 57.31 C83.1 65.18 71.02 65.06 59.4 64.3 C54.41 63.68 50.18 61.74 46 59 C45.48 59.65 44.95 60.3 44.41 60.97 C41.25 63.63 39.49 63.5 35.38 63.49 C34.73 63.49 34.07 63.49 33.4 63.5 C31.23 63.5 29.07 63.48 26.91 63.46 C25.4 63.46 23.9 63.46 22.39 63.46 C19.23 63.46 16.08 63.44 12.92 63.41 C8.88 63.38 4.84 63.37 0.8 63.37 C-2.31 63.37 -5.42 63.36 -8.53 63.35 C-10.02 63.34 -11.51 63.34 -13 63.33 C-15.08 63.33 -17.17 63.31 -19.25 63.29 C-20.44 63.28 -21.62 63.28 -22.84 63.27 C-25.96 63 -28.19 62.33 -31 61 C-30.21 59.39 -29.42 57.79 -28.62 56.19 C-28.18 55.29 -27.74 54.4 -27.29 53.48 C-26 51 -26 51 -24 48 C-24.39 43.45 -26.36 39.22 -28 35 C-26.83 33.48 -26.83 33.48 -25 32 C-22.61 31.93 -22.61 31.93 -19.75 32.31 C-14.83 32.89 -10.14 32.97 -5.19 32.81 C1.02 32.73 3.94 33.63 9 37 C11.27 36.58 11.27 36.58 13 35 C15.92 32.74 18.51 31.26 22 30 C21.5 28.51 21.5 28.51 21 27 C20.36 27.05 19.72 27.09 19.06 27.14 C12.71 27.41 9.22 26.63 4 23 C4 22.34 4 21.68 4 21 C3.34 21 2.68 21 2 21 C1.92 20.38 1.84 19.76 1.75 19.12 C1.19 16.88 1.19 16.88 -0.75 15.81 C-5.5 14.02 -5.5 14.02 -10.31 14.94 C-10.87 15.29 -11.43 15.64 -12 16 C-11.96 17.92 -11.96 17.92 -11 20 C-10.01 20.47 -9.02 20.95 -8 21.44 C-5 23 -5 23 -4.12 25.69 C-4.08 26.45 -4.04 27.21 -4 28 C-7.1 29.55 -10.35 29.02 -13.75 28.91 C-14.51 28.89 -15.28 28.87 -16.07 28.85 C-17.69 28.8 -19.32 28.75 -20.94 28.7 C-23.42 28.63 -25.91 28.56 -28.39 28.49 C-29.97 28.45 -31.54 28.4 -33.12 28.35 C-34.24 28.32 -34.24 28.32 -35.38 28.29 C-38.49 28.19 -41.03 27.99 -44 27 C-43.67 25.35 -43.34 23.7 -43 22 C-41.02 21.34 -39.04 20.68 -37 20 C-37.33 18.02 -37.66 16.04 -38 14 C-38.83 14.05 -39.66 14.09 -40.52 14.14 C-41.61 14.18 -42.69 14.21 -43.81 14.25 C-45.43 14.32 -45.43 14.32 -47.08 14.39 C-50 14 -50 14 -51.93 12.21 C-53 10 -53 10 -52.25 6.31 C-51 3 -51 3 -50 2 C-44.1 0.94 -38.14 0.87 -32.17 0.94 C-30.97 0.94 -30.97 0.94 -29.75 0.95 C-27.23 0.96 -24.71 0.98 -22.19 1 C-18.85 1.03 -15.51 1.05 -12.17 1.06 C-11.41 1.07 -10.65 1.08 -9.86 1.09 C-7.01 1.1 -4.41 1.11 -1.64 0.38 C-1.1 0.25 -0.56 0.13 0 0 Z " fill="#D7869A" transform="translate(545,305)"/>
<path d="M0 0 C3.3 1.1 4.25 0.88 7.52 0.08 C12.97 -1.1 18.13 -1.27 23.68 -1.23 C24.7 -1.23 25.71 -1.23 26.76 -1.23 C30.08 -1.23 33.4 -1.21 36.73 -1.2 C39.04 -1.19 41.36 -1.19 43.68 -1.19 C49.75 -1.18 55.82 -1.16 61.9 -1.14 C68.1 -1.12 74.31 -1.11 80.52 -1.1 C92.68 -1.08 104.84 -1.04 117 -1 C118.12 6.74 118.12 6.74 117 9.09 C115.67 10.4 114.33 11.7 113 13 C113.85 13.7 114.69 14.4 115.56 15.12 C118 18 118 18 118.06 21 C116.79 24.6 115.83 26.4 113 29 C109.7 29.73 106.46 29.63 103.09 29.56 C101.64 29.56 101.64 29.56 100.17 29.55 C98.13 29.54 96.1 29.52 94.06 29.49 C90.95 29.44 87.83 29.43 84.71 29.42 C82.73 29.41 80.75 29.39 78.78 29.37 C77.38 29.36 77.38 29.36 75.95 29.35 C75.08 29.34 74.21 29.32 73.32 29.31 C72.55 29.3 71.79 29.29 71 29.27 C69 29 69 29 66 27 C67.06 23.6 68.01 20.99 70 18 C70.24 15.94 70.24 15.94 70.12 13.81 C70.08 12.55 70.04 11.3 70 10 C68.28 9.04 68.28 9.04 66 9 C62.06 12.42 59.36 16.28 56.75 20.75 C53.07 26.93 53.07 26.93 52 28 C47.79 28.47 43.55 28.61 39.31 28.81 C38.13 28.89 36.94 28.97 35.72 29.04 C25.9 29.5 25.9 29.5 22.29 27.31 C19.93 24.93 18.97 23.46 18.12 20.25 C17.9 19.45 17.68 18.65 17.45 17.83 C17.3 17.22 17.15 16.62 17 16 C12.15 18.38 8.23 20.5 4.81 24.75 C0.81 28.92 -3.09 28.89 -8.68 29.02 C-9.68 29.01 -9.68 29.01 -10.71 29.01 C-13.37 29 -16.03 29.05 -18.7 29.11 C-20.69 29.14 -22.69 29.16 -24.69 29.19 C-25.66 29.2 -26.63 29.21 -27.62 29.23 C-28.54 29.23 -29.45 29.23 -30.39 29.23 C-31.61 29.24 -31.61 29.24 -32.86 29.24 C-35 29 -35 29 -38 27 C-39.19 24.88 -39.19 24.88 -40 23 C-43.44 24.85 -43.44 24.85 -46.16 27.57 C-49.13 29.88 -52.56 29.54 -56.19 29.62 C-57.66 29.68 -59.13 29.73 -60.61 29.79 C-61.7 29.83 -61.7 29.83 -62.82 29.87 C-64.95 30 -67.02 30.25 -69.13 30.54 C-72.8 30.98 -76.07 30.98 -79.75 30.69 C-80.84 30.61 -81.93 30.53 -83.05 30.45 C-85.84 30.02 -87.54 29.31 -90 28 C-90.99 28 -91.98 28 -93 28 C-93.25 25.75 -93.25 25.75 -93 23 C-92.34 22.42 -91.68 21.85 -91 21.25 C-88.31 18.22 -88.44 16.12 -88.6 12.18 C-89.18 9.03 -90.87 7.32 -93 5 C-93.75 2.19 -93.75 2.19 -94 0 C-89.2 -0.78 -84.61 -1.12 -79.75 -1.1 C-79.1 -1.1 -78.44 -1.09 -77.77 -1.09 C-75.7 -1.09 -73.63 -1.08 -71.56 -1.06 C-70.15 -1.06 -68.74 -1.05 -67.32 -1.05 C-63.88 -1.04 -60.44 -1.02 -57 -1 C-56.35 1.34 -56.35 1.34 -56 4 C-57.62 5.71 -59.29 7.37 -61 9 C-61.96 11.63 -61.96 11.63 -62 14 C-61.67 14.33 -61.34 14.66 -61 15 C-60.2 14.71 -59.39 14.42 -58.56 14.12 C-55.08 13.02 -51.62 12.21 -48.05 11.46 C-45.82 10.99 -45.82 10.99 -43 10 C-42.7 9.22 -42.41 8.44 -42.11 7.64 C-40.29 3.31 -37.23 2.18 -33.11 0.23 C-23.64 -3.11 -9.3 -3.97 0 0 Z " fill="#D78599" transform="translate(536,272)"/>
<path d="M0 0 C21.07 -0.07 42.14 -0.12 63.21 -0.16 C72.99 -0.17 82.78 -0.19 92.56 -0.23 C101.08 -0.26 109.61 -0.28 118.13 -0.28 C122.65 -0.29 127.17 -0.3 131.68 -0.32 C135.93 -0.34 140.18 -0.34 144.42 -0.34 C145.98 -0.34 147.55 -0.35 149.11 -0.36 C151.24 -0.37 153.36 -0.37 155.49 -0.36 C156.68 -0.36 157.87 -0.37 159.1 -0.37 C162 0 162 0 163.9 1.35 C165.41 3.62 165.22 5.34 165 8 C163.35 8.33 161.7 8.66 160 9 C159.67 11.37 159.67 11.37 160 14 C160.99 14.67 160.99 14.67 162 15.34 C164 17 164 17 164.39 19.48 C164.34 20.37 164.3 21.27 164.25 22.19 C164.21 23.09 164.18 23.99 164.14 24.92 C164.09 25.61 164.05 26.29 164 27 C160.53 28.06 157.34 28.13 153.72 28.13 C151.79 28.13 151.79 28.13 149.81 28.14 C148.39 28.13 146.96 28.13 145.53 28.13 C144.03 28.13 142.52 28.13 141.02 28.13 C136.93 28.14 132.85 28.14 128.77 28.13 C124.49 28.13 120.22 28.13 115.95 28.14 C108.78 28.14 101.61 28.14 94.44 28.13 C86.14 28.12 77.84 28.13 69.55 28.13 C62.43 28.14 55.31 28.14 48.19 28.13 C43.93 28.13 39.68 28.13 35.42 28.14 C31.43 28.14 27.43 28.14 23.43 28.13 C21.96 28.13 20.49 28.13 19.02 28.13 C17.02 28.14 15.02 28.13 13.02 28.13 C11.9 28.13 10.78 28.13 9.62 28.13 C7 28 7 28 5 27 C5.12 25.19 5.12 25.19 6 23 C9.06 21.25 9.06 21.25 12 20 C11.67 18.35 11.34 16.7 11 15 C7.97 14.27 5.52 14.02 2.38 14.12 C-1 14 -1 14 -3 12.81 C-4 11 -4 11 -3.88 8.69 C-2.87 5.61 -1.47 2.88 0 0 Z " fill="#8E9DB8" transform="translate(617,305)"/>
<path d="M0 0 C1.13 -0 2.26 -0 3.42 -0.01 C5.8 -0.01 8.19 -0 10.57 0 C14.21 0.02 17.84 0 21.48 -0.01 C23.8 -0.01 26.12 -0 28.44 0 C30.06 -0.01 30.06 -0.01 31.72 -0.01 C37.34 0.02 41.95 0.5 47.29 2.27 C50.07 2.08 50.07 2.08 52.85 1.39 C65.05 -0.76 79.97 -2.33 91.16 3.78 C91.86 3.94 92.56 4.1 93.29 4.27 C93.92 3.62 94.56 2.98 95.21 2.32 C99.85 -0.78 104.15 -0.25 109.61 -0.16 C110.7 -0.16 111.8 -0.15 112.93 -0.15 C115.24 -0.14 117.55 -0.12 119.86 -0.09 C123.4 -0.05 126.95 -0.03 130.49 -0.02 C132.74 -0 134.98 0.01 137.23 0.03 C138.29 0.03 139.36 0.04 140.45 0.05 C141.93 0.07 141.93 0.07 143.43 0.09 C144.3 0.1 145.17 0.11 146.06 0.12 C148.29 0.27 148.29 0.27 151.29 1.27 C152.16 3.02 152.16 3.02 152.29 5.27 C151.83 5.95 151.38 6.63 150.91 7.33 C149.15 10.51 149.06 12.14 148.91 15.7 C148.65 19.29 148.42 21.86 146.22 24.77 C140.01 30.06 133.24 30.86 125.29 31.27 C124.38 31.33 123.48 31.39 122.55 31.46 C114.56 31.8 107.75 30.18 101.54 24.95 C99.34 22.93 99.34 22.93 96.22 23.45 C95.25 23.72 94.28 23.99 93.29 24.27 C92.5 24.45 91.72 24.64 90.91 24.83 C90.37 24.97 89.84 25.12 89.29 25.27 C89.29 25.93 89.29 26.59 89.29 27.27 C85.38 29.87 81.81 29.34 77.29 29.27 C76.79 29.76 76.79 29.76 76.29 30.27 C72.94 30.57 69.58 30.54 66.22 30.58 C65.29 30.61 64.36 30.64 63.4 30.67 C56.91 30.73 52.87 29.6 47.29 26.27 C47.29 25.61 47.29 24.95 47.29 24.27 C46.39 23.89 46.39 23.89 45.47 23.52 C42.87 22.03 41.74 20.89 40.29 18.27 C40.29 16.27 40.29 14.27 40.29 12.27 C39.3 11.61 38.31 10.95 37.29 10.27 C35.77 11.5 34.28 12.75 32.79 14.02 C31.95 14.71 31.11 15.41 30.25 16.12 C27.83 18.27 27.83 18.27 28.29 22.27 C29.28 22.6 30.27 22.93 31.29 23.27 C32.47 26.33 32.47 26.33 33.29 29.27 C30.75 30.14 29.25 30.26 26.57 29.8 C23.1 29.24 19.87 29.15 16.36 29.17 C14.42 29.17 14.42 29.17 12.45 29.18 C11.1 29.19 9.76 29.19 8.41 29.2 C7.04 29.21 5.67 29.21 4.3 29.22 C0.96 29.23 -2.38 29.24 -5.71 29.27 C-5.71 25.27 -5.71 25.27 -3.21 22.52 C-2.39 21.77 -1.56 21.03 -0.71 20.27 C-5.09 14.56 -9.34 10.95 -15.77 7.69 C-16.41 7.22 -17.05 6.75 -17.71 6.27 C-17.71 4.95 -17.71 3.63 -17.71 2.27 C-11.88 -0.26 -6.24 -0.02 0 0 Z " fill="#D78599" transform="translate(683.71484375,270.734375)"/>
<path d="M0 0 C0.96 -0.01 1.91 -0.03 2.9 -0.04 C7.79 -0.05 11.9 0.13 16.44 2.19 C17.56 3.88 17.56 3.88 17.44 6.19 C16.43 7.79 15.43 9.4 14.41 11 C13.17 13.8 13.08 16.19 12.94 19.25 C12.65 25.03 11.56 28.06 7.44 32.19 C4.88 32.29 2.36 32.33 -0.19 32.31 C-0.89 32.32 -1.59 32.32 -2.31 32.32 C-5.73 32.32 -8.88 32.14 -12.27 31.62 C-15.53 31.19 -17.4 31.54 -20.56 32.19 C-24.75 32.45 -28.93 32.46 -33.12 32.5 C-34.26 32.53 -35.4 32.56 -36.57 32.59 C-38.21 32.6 -38.21 32.6 -39.88 32.61 C-41.37 32.64 -41.37 32.64 -42.89 32.66 C-46.27 32.06 -47.34 30.72 -49.56 28.19 C-52.59 26.99 -53.37 27.12 -56.56 28.19 C-56.56 28.85 -56.56 29.51 -56.56 30.19 C-65.66 34.59 -80.57 34.82 -90.44 32.52 C-92.62 31.69 -92.62 31.69 -95.56 30.19 C-95.56 29.53 -95.56 28.87 -95.56 28.19 C-97.21 27.86 -98.86 27.53 -100.56 27.19 C-100.89 25.87 -101.22 24.55 -101.56 23.19 C-105.27 23.62 -107.12 25.52 -109.85 27.91 C-113.56 30.68 -117.93 32.19 -122.56 32.19 C-122.59 30.73 -122.61 29.27 -122.62 27.81 C-122.64 27 -122.65 26.19 -122.66 25.35 C-122.56 23.19 -122.56 23.19 -121.56 21.19 C-121.61 14.68 -123.03 9.14 -125.56 3.19 C-122.09 1.45 -118.35 1.71 -114.56 2.19 C-111.51 3.86 -109.14 5.7 -106.5 7.94 C-103.9 9.62 -102.61 9.78 -99.56 9.19 C-97.87 7.54 -96.21 5.87 -94.56 4.19 C-90.03 2.24 -86.21 1.99 -81.31 2.12 C-76.77 2.43 -76.77 2.43 -72.56 1.19 C-65.77 0.43 -59.93 1.95 -53.56 4.19 C-53.56 4.85 -53.56 5.51 -53.56 6.19 C-52.78 5.71 -52 5.24 -51.19 4.75 C-47.22 3.04 -44 2.67 -39.73 2.4 C-37.52 2.31 -37.52 2.31 -35.56 1.19 C-34.09 1.03 -32.62 0.94 -31.14 0.87 C-30.23 0.83 -29.32 0.79 -28.37 0.74 C-27.38 0.7 -26.39 0.67 -25.38 0.62 C-24.36 0.58 -23.34 0.54 -22.3 0.5 C-14.86 0.23 -7.44 0.05 0 0 Z " fill="#D7879A" transform="translate(745.5625,335.8125)"/>
<path d="M0 0 C1.67 1.33 3.34 2.66 5 4 C7.54 4.58 7.54 4.58 10 4 C10.59 3.5 11.17 3.01 11.78 2.5 C14.67 0.55 16.52 0.63 19.98 0.64 C21.15 0.64 22.31 0.64 23.51 0.64 C24.72 0.65 25.94 0.67 27.19 0.69 C28.38 0.68 29.58 0.68 30.81 0.68 C47.32 0.78 47.32 0.78 52.94 5.44 C56.16 9.44 57.48 11.76 57.3 17.01 C56.79 20.38 55.55 21.76 53 24 C46.27 28.01 40.26 28.54 32.56 28.31 C31.1 28.3 31.1 28.3 29.62 28.28 C11.42 28 11.42 28 4 23 C4 22.34 4 21.68 4 21 C3.34 21 2.68 21 2 21 C1.92 20.38 1.84 19.76 1.75 19.12 C1.19 16.88 1.19 16.88 -0.75 15.81 C-5.5 14.02 -5.5 14.02 -10.31 14.94 C-10.87 15.29 -11.43 15.64 -12 16 C-11.96 17.92 -11.96 17.92 -11 20 C-10.01 20.47 -9.02 20.95 -8 21.44 C-5 23 -5 23 -4.12 25.69 C-4.08 26.45 -4.04 27.21 -4 28 C-7.1 29.55 -10.35 29.02 -13.75 28.91 C-14.51 28.89 -15.28 28.87 -16.07 28.85 C-17.69 28.8 -19.32 28.75 -20.94 28.7 C-23.42 28.63 -25.91 28.56 -28.39 28.49 C-29.97 28.45 -31.54 28.4 -33.12 28.35 C-34.24 28.32 -34.24 28.32 -35.38 28.29 C-38.49 28.19 -41.03 27.99 -44 27 C-43.67 25.35 -43.34 23.7 -43 22 C-41.02 21.34 -39.04 20.68 -37 20 C-37.33 18.02 -37.66 16.04 -38 14 C-38.83 14.05 -39.66 14.09 -40.52 14.14 C-41.61 14.18 -42.69 14.21 -43.81 14.25 C-45.43 14.32 -45.43 14.32 -47.08 14.39 C-50 14 -50 14 -51.93 12.21 C-53 10 -53 10 -52.25 6.31 C-51 3 -51 3 -50 2 C-44.1 0.94 -38.14 0.87 -32.17 0.94 C-30.97 0.94 -30.97 0.94 -29.75 0.95 C-27.23 0.96 -24.71 0.98 -22.19 1 C-18.85 1.03 -15.51 1.05 -12.17 1.06 C-11.41 1.07 -10.65 1.08 -9.86 1.09 C-7.01 1.1 -4.41 1.11 -1.64 0.38 C-1.1 0.25 -0.56 0.13 0 0 Z " fill="#8E9CB7" transform="translate(545,305)"/>
<path d="M0 0 C0.77 0 1.55 0 2.35 0 C4.82 0.01 7.3 0.02 9.77 0.04 C11.45 0.04 13.13 0.04 14.8 0.05 C18.92 0.06 23.03 0.08 27.15 0.1 C27.8 2.44 27.8 2.44 28.15 5.1 C26.53 6.81 24.86 8.47 23.15 10.1 C22.19 12.73 22.19 12.73 22.15 15.1 C22.64 15.59 22.64 15.59 23.15 16.1 C23.95 15.81 24.76 15.52 25.59 15.22 C29.07 14.12 32.52 13.31 36.1 12.56 C38.33 12.09 38.33 12.09 41.15 11.1 C41.55 9.93 41.55 9.93 41.95 8.74 C43.61 5.08 45.67 4.43 49.27 2.79 C50.37 2.27 51.46 1.76 52.59 1.23 C53.44 0.86 54.28 0.48 55.15 0.1 C58.27 3.22 57.98 7.02 58.32 11.31 C58.84 17.28 59.74 22.69 64.15 27.1 C66.47 27.82 68.8 28.49 71.15 29.1 C71.15 29.43 71.15 29.76 71.15 30.1 C67.54 30.16 63.94 30.19 60.34 30.22 C58.8 30.25 58.8 30.25 57.23 30.27 C56.25 30.28 55.27 30.29 54.25 30.29 C53.35 30.3 52.44 30.31 51.51 30.32 C49.15 30.1 49.15 30.1 46.15 28.1 C44.96 25.97 44.96 25.97 44.15 24.1 C40.7 25.94 40.7 25.94 37.99 28.66 C35.02 30.98 31.59 30.64 27.96 30.72 C26.49 30.77 25.02 30.83 23.54 30.89 C22.45 30.93 22.45 30.93 21.33 30.97 C19.2 31.09 17.13 31.34 15.02 31.64 C11.35 32.07 8.08 32.08 4.4 31.79 C3.31 31.71 2.22 31.63 1.1 31.55 C-1.69 31.12 -3.4 30.41 -5.85 29.1 C-6.84 29.1 -7.83 29.1 -8.85 29.1 C-9.1 26.85 -9.1 26.85 -8.85 24.1 C-8.19 23.52 -7.53 22.94 -6.85 22.35 C-4.16 19.32 -4.29 17.22 -4.45 13.27 C-5.03 10.13 -6.72 8.42 -8.85 6.1 C-9.6 3.29 -9.6 3.29 -9.85 1.1 C-6.73 -0.46 -3.42 -0.02 0 0 Z " fill="#ECB3C1" transform="translate(451.8515625,270.90234375)"/>
<path d="M0 0 C1.13 -0 2.27 -0 3.44 -0.01 C5.83 -0.01 8.22 -0 10.61 0 C14.27 0.02 17.93 0 21.58 -0.01 C23.91 -0.01 26.24 -0 28.56 0 C29.66 -0 30.75 -0.01 31.87 -0.01 C32.9 -0.01 33.92 0 34.97 0.01 C36.31 0.01 36.31 0.01 37.68 0.01 C40.55 0.3 42.64 0.95 45.21 2.27 C47.89 6.28 48.55 10.55 49.54 15.2 C50.65 20.04 52.33 23.23 55.21 27.27 C55.21 27.93 55.21 28.59 55.21 29.27 C52.29 28.64 49.85 27.68 47.21 26.27 C47.21 25.61 47.21 24.95 47.21 24.27 C46.32 23.89 46.32 23.89 45.4 23.52 C42.8 22.03 41.67 20.89 40.21 18.27 C40.21 16.27 40.21 14.27 40.21 12.27 C39.22 11.61 38.23 10.95 37.21 10.27 C35.7 11.5 34.21 12.75 32.71 14.02 C31.88 14.71 31.04 15.41 30.18 16.12 C27.76 18.27 27.76 18.27 28.21 22.27 C29.2 22.6 30.19 22.93 31.21 23.27 C32.4 26.33 32.4 26.33 33.21 29.27 C30.68 30.14 29.18 30.26 26.5 29.8 C23.03 29.24 19.8 29.15 16.29 29.17 C14.35 29.17 14.35 29.17 12.38 29.18 C11.03 29.19 9.69 29.19 8.34 29.2 C6.97 29.21 5.6 29.21 4.23 29.22 C0.89 29.23 -2.45 29.24 -5.79 29.27 C-5.79 25.27 -5.79 25.27 -3.29 22.52 C-2.46 21.77 -1.64 21.03 -0.79 20.27 C-5.16 14.56 -9.41 10.95 -15.84 7.69 C-16.48 7.22 -17.13 6.75 -17.79 6.27 C-17.79 4.95 -17.79 3.63 -17.79 2.27 C-11.94 -0.28 -6.25 -0.02 0 0 Z " fill="#D7879A" transform="translate(683.78515625,270.734375)"/>
<path d="M0 0 C1.43 -0.02 1.43 -0.02 2.9 -0.04 C7.79 -0.05 11.9 0.13 16.44 2.19 C17.56 3.88 17.56 3.88 17.44 6.19 C16.43 7.79 15.43 9.4 14.41 11 C13.17 13.8 13.08 16.19 12.94 19.25 C12.65 25.03 11.56 28.06 7.44 32.19 C5.26 32.39 5.26 32.39 2.56 32.44 C1.68 32.46 0.79 32.49 -0.12 32.52 C-2.56 32.19 -2.56 32.19 -4.38 30.86 C-5.56 29.19 -5.56 29.19 -5.56 26.19 C-6.3 25.92 -7.03 25.65 -7.79 25.38 C-10.51 24.21 -12.61 22.86 -15 21.12 C-19.19 18.26 -22.47 17.19 -27.56 17.19 C-28.22 20.82 -28.88 24.45 -29.56 28.19 C-34.56 27.19 -34.56 27.19 -35.87 25.43 C-36.64 22.92 -36.73 20.99 -36.62 18.38 C-36.45 10.37 -36.45 10.37 -39.56 3.19 C-36.59 1.5 -34.35 0.91 -30.95 0.77 C-30.04 0.73 -29.13 0.7 -28.2 0.66 C-26.74 0.61 -26.74 0.61 -25.25 0.56 C-24.24 0.53 -23.24 0.49 -22.2 0.45 C-14.8 0.21 -7.4 0.06 0 0 Z " fill="#ECB3C1" transform="translate(745.5625,335.8125)"/>
<path d="M0 0 C0.12 2.62 0.12 2.62 0 5 C-1.65 5.33 -3.3 5.66 -5 6 C-5.33 8.37 -5.33 8.37 -5 11 C-4.34 11.44 -3.68 11.89 -3 12.34 C-1 14 -1 14 -0.61 16.48 C-0.66 17.37 -0.7 18.27 -0.75 19.19 C-0.79 20.09 -0.82 20.99 -0.86 21.92 C-0.91 22.61 -0.95 23.29 -1 24 C-5.11 25.14 -9.07 25.15 -13.31 25.12 C-14.13 25.12 -14.94 25.12 -15.78 25.12 C-26.2 25.05 -36.6 24.53 -47 24 C-46.48 23.07 -45.97 22.14 -45.44 21.19 C-43.6 18.07 -43.6 18.07 -45 15 C-45.13 11.62 -45.17 8.66 -44.31 5.38 C-43.88 2.11 -45.26 0.7 -47 -2 C-41.4 -2.17 -35.79 -2.33 -30.18 -2.48 C-28.28 -2.54 -26.37 -2.59 -24.47 -2.65 C-21.72 -2.73 -18.98 -2.81 -16.24 -2.88 C-14.96 -2.92 -14.96 -2.92 -13.67 -2.96 C-3.22 -3.22 -3.22 -3.22 0 0 Z " fill="#8C9BB5" transform="translate(782,308)"/>
<path d="M0 0 C1.27 -0.01 1.27 -0.01 2.57 -0.02 C4.34 -0.03 6.12 -0.03 7.89 -0.04 C10.62 -0.05 13.34 -0.08 16.06 -0.11 C17.79 -0.12 19.52 -0.12 21.25 -0.12 C22.06 -0.14 22.88 -0.15 23.72 -0.16 C26 -0.15 26 -0.15 29.66 0.2 C31.96 3.66 31.8 4.44 31.29 8.39 C31.17 9.29 31.06 10.19 30.95 11.12 C30.81 12.15 30.81 12.15 30.66 13.2 C29.05 13.14 29.05 13.14 27.41 13.08 C24 13.19 22.45 13.42 19.66 15.2 C19.7 17.13 19.7 17.13 20.66 19.2 C21.65 19.68 22.64 20.15 23.66 20.64 C26.66 22.2 26.66 22.2 27.54 24.89 C27.58 25.65 27.62 26.42 27.66 27.2 C24.56 28.76 21.31 28.23 17.91 28.12 C17.15 28.1 16.38 28.07 15.59 28.05 C13.97 28.01 12.34 27.96 10.72 27.91 C8.24 27.83 5.75 27.76 3.27 27.7 C1.69 27.65 0.12 27.6 -1.46 27.55 C-2.58 27.52 -2.58 27.52 -3.71 27.49 C-6.83 27.39 -9.37 27.19 -12.34 26.2 C-12.01 24.55 -11.68 22.9 -11.34 21.2 C-9.36 20.54 -7.38 19.88 -5.34 19.2 C-5.67 17.22 -6 15.24 -6.34 13.2 C-7.17 13.25 -8 13.3 -8.86 13.34 C-9.95 13.38 -11.03 13.42 -12.15 13.45 C-13.77 13.52 -13.77 13.52 -15.42 13.59 C-18.34 13.2 -18.34 13.2 -20.27 11.42 C-21.34 9.2 -21.34 9.2 -20.59 5.52 C-19.34 2.2 -19.34 2.2 -18.34 1.2 C-12.29 0.13 -6.13 0.03 0 0 Z " fill="#909CB7" transform="translate(513.33984375,305.796875)"/>
<path d="M0 0 C6.66 -0.03 13.31 -0.04 19.97 -0.05 C22.24 -0.06 24.5 -0.07 26.77 -0.08 C30.02 -0.09 33.27 -0.09 36.52 -0.1 C38.05 -0.11 38.05 -0.11 39.61 -0.11 C41.02 -0.11 41.02 -0.11 42.46 -0.11 C43.7 -0.12 43.7 -0.12 44.98 -0.12 C47 0 47 0 49 1 C49.63 3.5 49.63 3.5 50.12 6.56 C50.38 8.08 50.38 8.08 50.63 9.63 C50.75 10.41 50.88 11.19 51 12 C48.69 12.66 46.38 13.32 44 14 C43.5 12.51 43.5 12.51 43 11 C37.55 10.5 37.55 10.5 32 10 C32.49 20 32.49 20 38 28 C33.62 28.02 29.24 28.04 24.87 28.05 C23.38 28.06 21.89 28.07 20.4 28.08 C18.26 28.09 16.12 28.09 13.98 28.1 C12.69 28.1 11.4 28.11 10.07 28.11 C7 28 7 28 5 27 C5.12 25.19 5.12 25.19 6 23 C9.06 21.25 9.06 21.25 12 20 C11.67 18.35 11.34 16.7 11 15 C7.97 14.27 5.52 14.02 2.38 14.12 C-1 14 -1 14 -3 12.81 C-4 11 -4 11 -3.88 8.69 C-2.87 5.61 -1.47 2.88 0 0 Z " fill="#8E9CB7" transform="translate(617,305)"/>
<path d="M0 0 C4.48 -0.12 8.97 -0.21 13.45 -0.27 C14.98 -0.3 16.5 -0.33 18.03 -0.38 C20.22 -0.44 22.41 -0.47 24.61 -0.49 C25.93 -0.51 27.25 -0.54 28.61 -0.57 C32 0 32 0 34.48 2.38 C36 5 36 5 35.75 7.38 C35.5 8.24 35.25 9.11 35 10 C34.77 14.64 34.77 14.64 35.75 19.12 C36 21 36 21 34.37 23.57 C31.51 26.5 30.4 26.67 26.38 26.81 C25.24 26.86 24.11 26.91 22.95 26.95 C15.63 27.04 8.32 27.07 1 27 C-0.34 22.63 -1.29 18.64 -1.62 14.06 C-1.7 13.1 -1.77 12.15 -1.85 11.16 C-1.9 10.45 -1.95 9.73 -2 9 C-1.01 9 -0.02 9 1 9 C1.33 6.36 1.66 3.72 2 1 C1.34 0.67 0.68 0.34 0 0 Z " fill="#8E9DB8" transform="translate(703,306)"/>
<path d="M0 0 C0.34 1.21 0.34 1.21 0.69 2.44 C1.12 3.28 1.55 4.13 2 5 C4.48 5.66 4.48 5.66 7 6 C9 9 9 9 8.62 11.19 C8.42 11.79 8.21 12.38 8 13 C7.34 13 6.68 13 6 13 C6 11.68 6 10.36 6 9 C2.58 8.75 2.58 8.75 -1 9 C-3.14 12.2 -3.24 13 -3.2 16.67 C-3.19 18.01 -3.19 18.01 -3.18 19.37 C-3.16 20.3 -3.14 21.23 -3.12 22.19 C-3.12 23.13 -3.11 24.07 -3.1 25.04 C-3.07 27.36 -3.04 29.68 -3 32 C-5.38 32.12 -5.38 32.12 -8 32 C-10.68 29.32 -10.39 27.61 -10.62 23.88 C-10.7 22.78 -10.77 21.68 -10.85 20.55 C-10.9 19.71 -10.95 18.87 -11 18 C-17.17 21.52 -20.89 24.93 -24.94 30.81 C-27 33 -27 33 -29.75 33.31 C-30.49 33.21 -31.24 33.11 -32 33 C-32.2 32.08 -32.2 32.08 -32.4 31.14 C-32.58 30.33 -32.76 29.52 -32.94 28.69 C-33.11 27.89 -33.29 27.09 -33.46 26.26 C-34 23.85 -34 23.85 -35 21 C-35.69 20.95 -36.37 20.9 -37.08 20.85 C-37.98 20.78 -38.88 20.7 -39.81 20.62 C-40.71 20.56 -41.6 20.49 -42.52 20.41 C-45 20 -45 20 -48 18 C-47.48 15.24 -46.89 12.67 -46 10 C-46.99 9.67 -47.98 9.34 -49 9 C-49 8.01 -49 7.02 -49 6 C-46.14 5.89 -43.29 5.81 -40.44 5.75 C-39.24 5.7 -39.24 5.7 -38.01 5.65 C-32.08 5.55 -28.97 6.82 -24 10 C-21.73 9.58 -21.73 9.58 -20 8 C-17.08 5.74 -14.49 4.26 -11 3 C-11.5 2.01 -11.5 2.01 -12 1 C-8.02 -0.33 -4.15 -0.07 0 0 Z " fill="#EBB2C0" transform="translate(578,332)"/>
<path d="M0 0 C1.7 1.1 1.7 1.1 3 3 C3.48 6.14 3.48 6.14 3.62 9.81 C3.89 16.46 3.89 16.46 5 23 C7.46 24.45 7.46 24.45 10 25 C10.04 24.39 10.07 23.77 10.11 23.14 C10.18 22.33 10.24 21.52 10.31 20.69 C10.37 19.89 10.43 19.09 10.49 18.26 C11.09 15.6 11.83 14.62 14 13 C19.28 12.87 22.75 15.59 26.89 18.52 C29.06 20.11 29.06 20.11 31.88 21.5 C34.73 23.51 35.66 25.83 37 29 C36.12 28.92 35.24 28.83 34.33 28.75 C33.17 28.64 32.01 28.54 30.81 28.44 C29.66 28.33 28.52 28.23 27.33 28.12 C24.15 27.87 24.15 27.87 21.66 28.48 C16.64 29.46 11.53 29.27 6.44 29.31 C5.3 29.34 4.16 29.37 2.99 29.4 C1.36 29.41 1.36 29.41 -0.32 29.43 C-1.31 29.44 -2.31 29.45 -3.33 29.47 C-6.71 28.88 -7.79 27.54 -10 25 C-11.94 24.01 -11.94 24.01 -14 24 C-16.22 24.86 -16.22 24.86 -18 26 C-17.65 25.03 -17.3 24.06 -16.94 23.06 C-15.68 18.6 -15.79 14.47 -17 10 C-19.01 7.19 -19.01 7.19 -21 5 C-20.67 4.01 -20.34 3.02 -20 2 C-18.02 1.67 -16.04 1.34 -14 1 C-14 1.66 -14 2.32 -14 3 C-13.17 2.5 -12.35 2.01 -11.5 1.5 C-7.14 -0.37 -4.7 -0.46 0 0 Z " fill="#D78599" transform="translate(706,339)"/>
<path d="M0 0 C0 0.66 0 1.32 0 2 C-0.66 2 -1.32 2 -2 2 C-1.45 5.37 -0.95 7.08 1 10 C0.67 15.01 -0.23 19.27 -2 24 C-1.34 24.66 -0.68 25.32 0 26 C-1.95 27.95 -5.54 27.17 -8.12 27.19 C-9.43 27.2 -10.73 27.22 -12.07 27.23 C-17.22 26.93 -21.49 26.42 -25.31 22.81 C-28.61 17.32 -29.16 12.34 -29 6.09 C-29 3.63 -29.39 1.38 -30 -1 C-26.4 -2.8 -22.22 -2.48 -18.25 -2.69 C-17.36 -2.75 -16.46 -2.81 -15.54 -2.87 C-9.67 -3.18 -5.33 -2.67 0 0 Z " fill="#D78599" transform="translate(538,273)"/>
<path d="M0 0 C0.77 0 1.55 0 2.35 0 C4.82 0.01 7.3 0.02 9.77 0.04 C11.45 0.04 13.13 0.04 14.8 0.05 C18.92 0.06 23.03 0.08 27.15 0.1 C27.8 2.44 27.8 2.44 28.15 5.1 C26.53 6.81 24.86 8.47 23.15 10.1 C22 13.45 22.03 15.75 23.15 19.1 C24.14 19.1 25.13 19.1 26.15 19.1 C26.19 21.1 26.19 23.1 26.15 25.1 C25.15 26.1 25.15 26.1 21.4 26.41 C18.36 26.34 17.03 26.04 14.21 24.66 C9.76 19.12 11.04 10.89 11.15 4.1 C8.84 4.1 6.53 4.1 4.15 4.1 C4.13 4.68 4.11 5.26 4.09 5.85 C3.98 8.5 3.82 11.14 3.65 13.79 C3.62 14.7 3.59 15.61 3.56 16.55 C3.08 23.17 3.08 23.17 0.38 25.86 C-2.85 27.95 -4.96 29.1 -8.85 29.1 C-9.1 26.85 -9.1 26.85 -8.85 24.1 C-8.19 23.52 -7.53 22.94 -6.85 22.35 C-4.16 19.32 -4.29 17.22 -4.45 13.27 C-5.03 10.13 -6.72 8.42 -8.85 6.1 C-9.6 3.29 -9.6 3.29 -9.85 1.1 C-6.73 -0.46 -3.42 -0.02 0 0 Z " fill="#D7879A" transform="translate(451.8515625,270.90234375)"/>
<path d="M0 0 C3.44 0.75 3.44 0.75 5.44 1.75 C5.44 2.41 5.44 3.07 5.44 3.75 C6.76 4.08 8.08 4.41 9.44 4.75 C9.11 5.51 8.78 6.28 8.44 7.06 C7.26 9.74 7.26 9.74 7.44 12.75 C8.28 12.93 9.12 13.11 9.99 13.3 C11.09 13.55 12.18 13.8 13.31 14.06 C14.4 14.31 15.49 14.55 16.62 14.8 C19.44 15.75 19.44 15.75 21.44 18.75 C21.85 21.01 21.85 21.01 22.06 23.44 C22.14 24.25 22.21 25.05 22.29 25.89 C22.36 26.81 22.36 26.81 22.44 27.75 C23.43 27.75 24.42 27.75 25.44 27.75 C25.44 28.41 25.44 29.07 25.44 29.75 C19.22 30.84 13.12 30.93 6.81 30.94 C5.79 30.95 4.77 30.96 3.71 30.97 C2.72 30.98 1.73 30.98 0.71 30.98 C-0.18 30.98 -1.07 30.99 -1.99 30.99 C-4.83 30.73 -6.98 29.92 -9.56 28.75 C-8.77 27.14 -7.98 25.54 -7.19 23.94 C-6.75 23.04 -6.31 22.15 -5.85 21.23 C-4.56 18.75 -4.56 18.75 -2.56 15.75 C-2.95 11.2 -4.92 6.97 -6.56 2.75 C-4.01 -0.28 -4.01 -0.28 0 0 Z " fill="#D7879A" transform="translate(523.5625,337.25)"/>
<path d="M0 0 C3.5 0.12 3.5 0.12 4.5 1.12 C4.53 4.62 4.43 8.11 4.34 11.61 C4.5 15.03 4.87 17.14 6.5 20.12 C9.59 22.18 10.21 22.36 13.69 22.25 C14.95 22.21 16.2 22.17 17.5 22.12 C17.83 20.14 18.16 18.17 18.5 16.12 C17.51 16.12 16.52 16.12 15.5 16.12 C15.5 15.13 15.5 14.14 15.5 13.12 C19.48 11.7 23.29 10.6 27.5 10.12 C28.16 10.45 28.82 10.79 29.5 11.12 C29.5 11.79 29.5 12.44 29.5 13.12 C29 13.52 28.51 13.91 28 14.31 C25.71 17.09 26.3 19.66 26.5 23.12 C27.82 23.79 29.14 24.44 30.5 25.12 C27.56 28.06 24.32 27.55 20.38 27.69 C16.01 27.87 11.7 28.06 7.37 28.68 C3.67 29.11 0.39 29.08 -3.31 28.75 C-4.41 28.66 -5.51 28.57 -6.64 28.48 C-9.5 28.12 -9.5 28.12 -12.5 27.12 C-12.38 25.25 -12.38 25.25 -11.5 23.12 C-9.52 22.39 -7.52 21.72 -5.5 21.12 C-5.47 20.52 -5.45 19.92 -5.42 19.3 C-5.31 16.6 -5.19 13.89 -5.06 11.19 C-5.02 10.24 -4.98 9.3 -4.94 8.32 C-4.9 7.42 -4.86 6.52 -4.82 5.6 C-4.76 4.35 -4.76 4.35 -4.71 3.07 C-4.34 -0.38 -3.63 0.13 0 0 Z " fill="#ECB3C1" transform="translate(459.5,273.875)"/>
<path d="M0 0 C2.64 0.33 5.28 0.66 8 1 C8 1.66 8 2.32 8 3 C8.66 3 9.32 3 10 3 C12.58 9.78 12.59 16.82 12 24 C11.37 25.35 10.71 26.69 10 28 C6.94 28.14 3.88 28.23 0.81 28.31 C-0.05 28.35 -0.92 28.4 -1.81 28.44 C-6.39 28.53 -8.33 28.52 -12.05 25.61 C-14.87 21.84 -15.12 20.04 -15.06 15.38 C-15.05 14.37 -15.04 13.37 -15.04 12.34 C-15.02 11.57 -15.01 10.79 -15 10 C-13.56 9.92 -12.13 9.86 -10.69 9.81 C-9.49 9.76 -9.49 9.76 -8.26 9.71 C-5.47 10.07 -4.91 11.05 -3 13 C0.65 12.77 0.65 12.77 4 12 C3.67 11.3 3.34 10.6 3 9.88 C1.91 6.74 1.85 4.29 2 1 C1.34 0.67 0.68 0.34 0 0 Z " fill="#D7869A" transform="translate(664,305)"/>
<path d="M0 0 C2.16 1.82 3.38 3.62 5 6 C5 6.66 5 7.32 5 8 C7.97 8.33 10.94 8.66 14 9 C14.41 8.26 14.83 7.51 15.25 6.75 C16.94 4.1 18.71 2.13 21 0 C21.99 0.66 22.98 1.32 24 2 C23.49 6.15 22.43 7.94 19.44 10.81 C16.7 13.75 15.52 15.44 15.56 19.5 C15.71 20.65 15.85 21.81 16 23 C16.66 23.33 17.32 23.66 18 24 C18 24.66 18 25.32 18 26 C11.73 26 5.46 26 -1 26 C-0.34 24.68 0.32 23.36 1 22 C1.24 17.93 0.61 15.73 -2.01 12.58 C-6.11 8.27 -6.11 8.27 -11 5 C-10.19 3.06 -10.19 3.06 -9 1 C-5.6 -0.13 -3.56 -0.5 0 0 Z " fill="#ECB3C1" transform="translate(689,274)"/>
<path d="M0 0 C3.38 -0.19 3.38 -0.19 7 0 C9.18 3.27 9.29 4.61 9.5 8.44 C9.7 12.1 9.92 14.91 12 18 C15.04 19.29 15.04 19.29 18 20 C17.67 16.37 17.34 12.74 17 9 C17.99 8.34 18.98 7.68 20 7 C23 10.62 23 10.62 23 14 C22.34 14 21.68 14 21 14 C21.62 14.91 22.24 15.81 22.88 16.75 C26.07 21.64 26.07 21.64 27 24 C26.67 24.66 26.34 25.32 26 26 C26.99 26.33 27.98 26.66 29 27 C11.41 29.14 11.41 29.14 5 27 C-0.79 19.67 0.19 8.82 0 0 Z " fill="#ECB3C1" transform="translate(790,274)"/>
<path d="M0 0 C2.44 0.81 2.44 0.81 4.44 2.81 C4.7 5.96 4.8 9.07 4.83 12.23 C4.95 15.66 5.19 17.5 7.35 20.23 C10.67 22.75 13.12 23.2 17.33 23.18 C21 22.54 22.85 20.4 25.44 17.81 C27.44 23.56 27.44 23.56 27.44 25.81 C14.75 26.67 2.15 26.93 -10.56 26.81 C-10.27 26.24 -9.97 25.66 -9.66 25.07 C-6.38 18.34 -5.24 12.69 -5.75 5.2 C-5.56 2.81 -5.56 2.81 -4.22 0.98 C-2.56 -0.19 -2.56 -0.19 0 0 Z " fill="#ECB3C1" transform="translate(618.5625,274.1875)"/>
<path d="M0 0 C2.56 0.19 2.56 0.19 4.56 2.19 C5.47 5.8 6.25 9.41 6.97 13.07 C7.9 17.97 7.9 17.97 11.56 21.19 C15.05 21.54 15.05 21.54 18.56 20.19 C20.63 17.64 21.87 14.8 23.19 11.81 C27.48 2.38 27.48 2.38 32.56 0.19 C33.6 3.41 33.78 4.74 32.27 7.84 C31.64 8.74 31.02 9.64 30.38 10.56 C29.73 11.52 29.09 12.48 28.42 13.46 C27.81 14.36 27.19 15.26 26.56 16.19 C23.51 20.83 23.51 20.83 22.56 26.19 C13.16 26.68 13.16 26.68 3.56 27.19 C2.36 24 1.15 20.81 -0.05 17.62 C-1.38 14.18 -1.38 14.18 -3.12 11 C-4.84 7.34 -4.35 5.06 -3.44 1.19 C-2.44 0.19 -2.44 0.19 0 0 Z " fill="#ECB3C1" transform="translate(561.4375,273.8125)"/>
<path d="M0 0 C10.02 -0.78 10.02 -0.78 13.75 2.19 C15.23 5.53 14.98 6.55 14 10 C13.77 14.64 13.77 14.64 14.75 19.12 C15 21 15 21 13.69 23.69 C9.79 27.04 6 26.9 1 27 C0.71 25.78 0.42 24.57 0.12 23.31 C-0.48 20.82 -1.12 18.72 -2.19 16.38 C-3.29 13.15 -2.93 11.27 -2 8 C0.06 4.62 0.06 4.62 2 2 C1.34 1.34 0.68 0.68 0 0 Z " fill="#D58498" transform="translate(724,306)"/>
<path d="M0 0 C5.78 -0.24 10.51 0.13 16 2 C15.01 2.99 14.02 3.98 13 5 C13.27 5.52 13.54 6.03 13.81 6.56 C14.2 7.37 14.6 8.17 15 9 C15.56 10.09 16.11 11.19 16.69 12.31 C18.19 16.52 17.94 18.68 17 23 C16.92 24.09 16.84 25.19 16.75 26.31 C16 29 16 29 13.75 30.38 C11.05 30.99 8.75 31.16 6 31 C3.97 25.01 3.88 20.05 4.34 13.79 C4.5 9.67 4.19 8.22 1.49 5.01 C0.67 4.35 -0.15 3.68 -1 3 C-0.67 2.01 -0.34 1.02 0 0 Z " fill="#EBB2C0" transform="translate(673,337)"/>
<path d="M0 0 C1.62 2.75 1.62 2.75 3 6 C2.31 8.06 2.31 8.06 1 10 C-0.52 12.22 -0.52 12.22 -1 15 C-0.2 17.15 0.81 19.05 1.96 21.04 C3 23 3 23 3.51 25.18 C3.67 25.78 3.83 26.38 4 27 C4.66 27.33 5.32 27.66 6 28 C6 28.66 6 29.32 6 30 C2.7 30 -0.6 30 -4 30 C-7.62 24.37 -9.76 19.07 -11.38 12.62 C-11.55 11.92 -11.73 11.22 -11.92 10.5 C-12.71 7.16 -13.11 5.32 -12 2 C-10.38 1.66 -8.75 1.33 -7.12 1 C-6.22 0.81 -5.32 0.63 -4.38 0.44 C-2 0 -2 0 0 0 Z " fill="#EBB2C0" transform="translate(743,271)"/>
<path d="M0 0 C1.23 0.01 1.23 0.01 2.48 0.03 C3.42 0.04 3.42 0.04 4.38 0.06 C4.71 1.05 5.03 2.04 5.38 3.06 C4.38 3.06 3.39 3.06 2.38 3.06 C2.88 3.64 3.39 4.22 3.91 4.82 C9.24 11.23 9.24 11.23 9.94 15.44 C9.38 18.06 9.38 18.06 7.38 21.06 C7.38 22.05 7.38 23.04 7.38 24.06 C8.03 24.72 8.7 25.38 9.38 26.06 C7.77 26.74 6.17 27.4 4.56 28.06 C3.67 28.43 2.78 28.81 1.86 29.19 C-0.62 30.06 -0.62 30.06 -3.62 30.06 C-3.65 28.6 -3.67 27.15 -3.69 25.69 C-3.7 24.88 -3.71 24.06 -3.72 23.23 C-3.62 21.06 -3.62 21.06 -2.62 19.06 C-2.67 12.55 -4.09 7.01 -6.62 1.06 C-4.22 -0.14 -2.68 -0.04 0 0 Z " fill="#ECB3C1" transform="translate(626.625,337.9375)"/>
<path d="M0 0 C1.79 -0.03 3.58 -0.05 5.38 -0.06 C6.37 -0.07 7.37 -0.09 8.4 -0.1 C11 0 11 0 13 1 C12.67 3.64 12.34 6.28 12 9 C11.01 9 10.02 9 9 9 C9.33 9.66 9.66 10.32 10 11 C10.39 13.71 10.75 16.41 11.06 19.12 C11.15 19.88 11.24 20.63 11.34 21.41 C11.56 23.27 11.78 25.14 12 27 C10.38 27.08 8.75 27.14 7.12 27.19 C6.22 27.22 5.32 27.26 4.38 27.29 C3.2 27.15 3.2 27.15 2 27 C-0.09 23.87 -0.24 23.41 -0.01 19.91 C0.04 19.13 0.08 18.34 0.13 17.53 C0.19 16.72 0.25 15.9 0.31 15.06 C0.36 14.25 0.41 13.44 0.46 12.6 C0.86 6.47 0.86 6.47 1.65 3.86 C1.76 3.25 1.88 2.63 2 2 C1.34 1.34 0.68 0.68 0 0 Z " fill="#D78599" transform="translate(692,306)"/>
<path d="M0 0 C-1.83 4.71 -1.83 4.71 -3.05 6.8 C-4.25 9.57 -4.28 11.87 -4.38 14.88 C-4.76 20.7 -5.84 23.84 -10 28 C-12.33 28.04 -14.67 28.04 -17 28 C-16.36 23.99 -15.69 20 -15 16 C-14.78 14.74 -14.78 14.74 -14.56 13.45 C-13.56 8.26 -11.94 4.4 -9 0 C-5.93 -1.53 -3.3 -0.55 0 0 Z " fill="#D8879B" transform="translate(763,340)"/>
<path d="M0 0 C0.66 0.33 1.32 0.66 2 1 C2 1.66 2 2.32 2 3 C1.34 3 0.68 3 0 3 C0.55 6.37 1.05 8.08 3 11 C2.67 16.01 1.77 20.27 0 25 C0.66 25.66 1.32 26.32 2 27 C1 28 1 28 -1.07 28.1 C-1.89 28.09 -2.71 28.07 -3.56 28.06 C-4.39 28.05 -5.22 28.04 -6.07 28.04 C-7.02 28.02 -7.02 28.02 -8 28 C-7.84 26.7 -7.67 25.4 -7.5 24.06 C-6.21 15.12 -6.21 15.12 -9 7 C-8.68 4.37 -8.19 2.37 -7 0 C-7.66 -0.33 -8.32 -0.66 -9 -1 C-5.21 -2.26 -3.66 -1.4 0 0 Z " fill="#ECB3C1" transform="translate(536,272)"/>
<path d="M0 0 C-0.02 0.93 -0.04 1.86 -0.06 2.81 C-0.07 7.02 0.35 11.17 0.78 15.35 C0.99 17.92 1.04 20.43 1 23 C-1.73 24.07 -2.79 24.08 -5.58 23 C-6.46 22.53 -7.34 22.05 -8.25 21.56 C-9.14 21.09 -10.03 20.62 -10.95 20.13 C-11.63 19.76 -12.3 19.38 -13 19 C-13 18.34 -13 17.68 -13 17 C-11.35 17 -9.7 17 -8 17 C-8.52 16.32 -9.03 15.64 -9.56 14.94 C-11.45 11.08 -11.1 9.11 -10 5 C-6.96 0.48 -5.37 -1.61 0 0 Z " fill="#ECB3C1" transform="translate(605,345)"/>
<path d="M0 0 C2.48 0.99 2.48 0.99 5 2 C5 2.66 5 3.32 5 4 C5.64 4.29 6.28 4.58 6.94 4.88 C9 6 9 6 10 8 C10.64 14.28 8.77 18.54 6 24 C4.68 24 3.36 24 2 24 C-3.31 18.69 -3.11 13.5 -3.33 6.4 C-2.93 3.52 -1.9 2.16 0 0 Z " fill="#ECB3C1" transform="translate(763,274)"/>
<path d="M0 0 C-0.47 2.56 -1.06 4.08 -2.56 6.25 C-4.35 9.06 -4.35 9.06 -3.62 12.88 C-3.48 15.91 -3.81 16.78 -5.82 19.14 C-10.17 22.79 -10.17 22.79 -13 24 C-15.8 23.18 -15.8 23.18 -18 22 C-18.25 15.38 -18.25 15.38 -16 12 C-15.34 12 -14.68 12 -14 12 C-14 11.34 -14 10.68 -14 10 C-14.66 9.67 -15.32 9.34 -16 9 C-15.05 8.77 -14.1 8.55 -13.12 8.31 C-9.82 7.35 -9.82 7.35 -8.94 4.56 C-8.63 3.72 -8.32 2.87 -8 2 C-3.77 -1.26 -3.77 -1.26 0 0 Z " fill="#D78699" transform="translate(503,275)"/>
<path d="M0 0 C-0.01 0.7 -0.02 1.4 -0.04 2.12 C-0.04 3.03 -0.05 3.94 -0.06 4.88 C-0.07 5.78 -0.09 6.68 -0.1 7.62 C-0.16 10.02 -0.16 10.02 1 12 C1.44 15.97 1.32 17.54 -1 20.88 C-1.66 21.58 -2.32 22.28 -3 23 C-5.31 22.34 -7.62 21.68 -10 21 C-10 20.34 -10 19.68 -10 19 C-9.34 18.67 -8.68 18.34 -8 18 C-8.44 14.91 -8.9 13.13 -10.75 10.56 C-12 8 -12 8 -11 4.88 C-7.87 0.38 -5.36 -1.65 0 0 Z " fill="#ECB3C1" transform="translate(660,345)"/>
<path d="M0 0 C0.33 2.35 0.33 2.35 0.25 5.06 C0.23 5.96 0.22 6.86 0.2 7.79 C0 10 0 10 -1 11 C-5.14 11.72 -8.67 11.75 -12.38 9.66 C-14.33 8.18 -16.19 6.66 -18 5 C-17.67 3.68 -17.34 2.36 -17 1 C-4.32 -2.88 -4.32 -2.88 0 0 Z " fill="#D78599" transform="translate(743,341)"/>
<path d="M0 0 C1.56 1.19 1.56 1.19 3 3 C3.1 6.63 1.67 8.72 -0.62 11.38 C-3.18 13.73 -3.79 13.99 -7.44 14.25 C-11.9 12.68 -14.68 10.3 -18 7 C-17.67 5.68 -17.34 4.36 -17 3 C-12.28 2.08 -9.33 1.77 -5 4 C-3.35 2.68 -1.7 1.36 0 0 Z " fill="#D78699" transform="translate(560,338)"/>
<path d="M0 0 C2.46 2.07 3.85 3.32 4.56 6.5 C4 9 4 9 1.94 11.31 C-1.77 13.44 -3.78 13.59 -8 13 C-13.45 10.18 -13.45 10.18 -15 6.88 C-15 5 -15 5 -13 3 C-10.47 2.4 -10.47 2.4 -7.5 1.94 C-3.62 1.37 -3.62 1.37 0 0 Z " fill="#F8F7F9" transform="translate(668,316)"/>
<path d="M0 0 C0.33 0.66 0.66 1.32 1 2 C1.95 2.2 1.95 2.2 2.92 2.39 C5 3 5 3 6.27 4.64 C10.11 12.65 10.11 12.65 9 17 C6.65 19.79 4.18 22.19 1 24 C-1.27 23.69 -1.27 23.69 -3 23 C-2.77 22.43 -2.54 21.86 -2.31 21.28 C-0.05 15.2 0.62 10.72 -2.06 4.56 C-2.37 4.05 -2.68 3.53 -3 3 C-2.01 2.01 -1.02 1.02 0 0 Z " fill="#D78599" transform="translate(538,274)"/>
<path d="M0 0 C1.44 -0.08 2.87 -0.14 4.31 -0.19 C5.51 -0.24 5.51 -0.24 6.74 -0.29 C9.49 0.06 10.32 0.84 12 3 C12 3.33 12 3.66 12 4 C9.69 4.66 7.38 5.32 5 6 C5 7.32 5 8.64 5 10 C9.58 11.92 14.28 13.46 19 15 C19 15.99 19 16.98 19 18 C7.42 18.76 7.42 18.76 4.06 16.96 C1.51 14.36 0.04 12.02 -0.1 8.4 C-0.09 7.4 -0.07 6.4 -0.06 5.38 C-0.05 4.37 -0.04 3.37 -0.04 2.34 C-0.02 1.57 -0.01 0.79 0 0 Z " fill="#D8879B" transform="translate(649,315)"/>
<path d="M0 0 C4.75 0.75 4.75 0.75 7 3 C8.65 3.71 10.32 4.38 12 5 C11.44 5.12 10.89 5.25 10.31 5.38 C7.78 6.06 5.42 6.99 3 8 C3.04 9.92 3.04 9.92 4 12 C4.99 12.47 5.98 12.95 7 13.44 C10 15 10 15 10.88 17.69 C10.94 18.83 10.94 18.83 11 20 C8.69 20.33 6.38 20.66 4 21 C1 17.38 1 17.38 1 14 C0.01 13.67 -0.98 13.34 -2 13 C-3.53 9.94 -3.23 7.37 -3 4 C-1.5 1.56 -1.5 1.56 0 0 Z " fill="#D8899C" transform="translate(530,313)"/>
<path d="M0 0 C2.13 1.84 2.9 3.18 3.25 5.97 C3.31 8.12 3.31 8.12 3 12 C1 14 1 14 -0.88 14.27 C-1.58 14.26 -2.28 14.26 -3 14.25 C-3.7 14.26 -4.4 14.26 -5.12 14.27 C-7 14 -7 14 -9 12 C-9.34 7.5 -9.13 4.02 -7 0 C-4.24 -1.38 -2.9 -0.92 0 0 Z " fill="#F7F1F4" transform="translate(733,312)"/>
<path d="M0 0 C0.33 0.66 0.66 1.32 1 2 C1.78 2.27 2.57 2.54 3.38 2.81 C6.82 4.37 7.59 5.5 9 9 C9.51 12.11 9.61 14.9 9 18 C6.44 21.34 3.89 23.42 0 25 C0.35 24.03 0.7 23.06 1.06 22.06 C2.32 17.6 2.21 13.47 1 9 C-1.01 6.19 -1.01 6.19 -3 4 C-2.67 3.01 -2.34 2.02 -2 1 C-1.34 0.67 -0.68 0.34 0 0 Z " fill="#D78599" transform="translate(688,340)"/>
<path d="M0 0 C7.05 5.36 7.05 5.36 8 10 C7.33 11.33 6.67 12.67 6 14 C6.29 18.11 6.87 21.45 9 25 C6.52 24.01 6.52 24.01 4 23 C4 22.34 4 21.68 4 21 C3.34 21 2.68 21 2 21 C1.88 20.07 1.88 20.07 1.75 19.12 C1.19 16.82 1.19 16.82 -1.06 15.75 C-1.7 15.5 -2.34 15.25 -3 15 C-2.34 14.67 -1.68 14.34 -1 14 C-0.97 12.4 -0.95 10.79 -0.94 9.19 C-0.93 8.29 -0.91 7.4 -0.9 6.48 C-0.89 3.87 -0.89 3.87 -2 1 C-1.34 0.67 -0.68 0.34 0 0 Z " fill="#D8889C" transform="translate(545,305)"/>
<path d="M0 0 C2.09 0.41 2.09 0.41 4 1 C4.08 2.77 4.14 4.54 4.19 6.31 C4.22 7.3 4.26 8.28 4.29 9.3 C4 12 4 12 2.61 13.86 C1 15 1 15 -1 15 C-1.33 16.32 -1.66 17.64 -2 19 C-6.75 20.12 -6.75 20.12 -9 19 C-8.88 17.19 -8.88 17.19 -8 15 C-4.94 13.25 -4.94 13.25 -2 12 C-2.33 10.35 -2.66 8.7 -3 7 C-4.32 6.67 -5.64 6.34 -7 6 C-7 5.34 -7 4.68 -7 4 C-6.4 3.9 -5.8 3.79 -5.19 3.69 C-2.91 3.17 -2.91 3.17 -1.5 1.38 C-1 0.92 -0.51 0.47 0 0 Z " fill="#D78A9E" transform="translate(631,313)"/>
<path d="M0 0 C2 2 2 2 2.23 5.62 C2.23 7.08 2.21 8.54 2.19 10 C2.19 10.74 2.19 11.47 2.19 12.23 C2.14 17.72 2.14 17.72 1 20 C-3.88 19.12 -3.88 19.12 -5 18 C-6.09 6.93 -6.09 6.93 -3.88 3.03 C-2.5 1.69 -2.5 1.69 0 0 Z " fill="#ECB3C1" transform="translate(823,274)"/>
<path d="M0 0 C0.99 0 1.98 0 3 0 C3 1.65 3 3.3 3 5 C1.35 5.33 -0.3 5.66 -2 6 C-2.33 8.37 -2.33 8.37 -2 11 C-1.34 11.44 -0.68 11.89 0 12.34 C2 14 2 14 2.39 16.48 C2.32 17.82 2.32 17.82 2.25 19.19 C2.21 20.09 2.18 20.99 2.14 21.92 C2.07 22.95 2.07 22.95 2 24 C0.35 24.33 -1.3 24.66 -3 25 C-3 22.03 -3 19.06 -3 16 C-4.98 15.34 -6.96 14.68 -9 14 C-8.88 11.81 -8.88 11.81 -8 9 C-6.04 7.29 -4.04 5.62 -2 4 C-0.63 1.85 -0.63 1.85 0 0 Z " fill="#D58599" transform="translate(779,308)"/>
<path d="M0 0 C0.26 0.85 0.26 0.85 0.52 1.72 C1.77 5.72 3.07 9.35 5.25 12.94 C5.83 13.95 6.4 14.96 7 16 C6.67 16.66 6.34 17.32 6 18 C4.34 18.38 2.68 18.71 1 19 C0.34 19.33 -0.32 19.66 -1 20 C-1.27 18.8 -1.54 17.61 -1.81 16.38 C-2.76 12.61 -3.97 9.33 -6 6 C-6.99 5.67 -7.98 5.34 -9 5 C-9 4.01 -9 3.02 -9 2 C-7.69 1.67 -6.38 1.33 -5.06 1 C-3.97 0.72 -3.97 0.72 -2.85 0.44 C-1 0 -1 0 0 0 Z " fill="#EBB3C1" transform="translate(548,271)"/>
<path d="M0 0 C1.95 0.24 1.95 0.24 4.12 0.88 C4.85 1.08 5.57 1.28 6.32 1.49 C6.87 1.66 7.43 1.83 8 2 C9 5.18 9.16 6.61 7.88 9.75 C6 12 6 12 3.56 13.06 C1 13 1 13 -1.38 11.5 C-3 9 -3 9 -2.88 5.38 C-2 2 -2 2 0 0 Z " fill="#E6ACBB" transform="translate(571,314)"/>
<path d="M0 0 C0.33 0 0.66 0 1 0 C3.52 9.71 3.52 9.71 1.75 14.12 C-2.28 16.87 -6.22 16.9 -11 17 C-11.66 14.03 -12.32 11.06 -13 8 C-12.01 8.33 -11.02 8.66 -10 9 C-7.31 9.18 -4.71 9.09 -2 9 C-0.5 7.5 -0.67 6.01 -0.44 3.94 C-0.29 2.64 -0.15 1.34 0 0 Z " fill="#D4899D" transform="translate(736,316)"/>
<path d="M0 0 C2.62 1 3.95 1.94 5.75 4.12 C7.38 7.87 7.75 10.98 7 15 C4.88 18.44 3.85 19.72 0 21 C0.88 16.12 0.88 16.12 2 15 C2.44 8.41 2.44 8.41 -1 3 C-0.67 2.01 -0.34 1.02 0 0 Z " fill="#D78599" transform="translate(595,309)"/>
<path d="M0 0 C1.32 0 2.64 0 4 0 C5.61 3.21 5.06 6.44 5 10 C4.01 10.33 3.02 10.66 2 11 C2 10.34 2 9.68 2 9 C1.01 8.67 0.02 8.34 -1 8 C-1 7.34 -1 6.68 -1 6 C-1.99 5.67 -2.98 5.34 -4 5 C-2.25 2.5 -2.25 2.5 0 0 Z " fill="#D7869A" transform="translate(508,313)"/>
<path d="M0 0 C1.32 0 2.64 0 4 0 C4.99 3.3 5.98 6.6 7 10 C1.59 10.36 1.59 10.36 -0.94 8.81 C-2 7 -2 7 -1.75 4.44 C-1 2 -1 2 0 0 Z " fill="#DA8B9E" transform="translate(615,309)"/>
<path d="M0 0 C4.88 1.88 4.88 1.88 6 3 C6.07 4.69 6.08 6.38 6.06 8.06 C6.05 8.98 6.04 9.9 6.04 10.85 C6.02 11.56 6.01 12.27 6 13 C4.35 13.33 2.7 13.66 1 14 C1.02 13.11 1.02 13.11 1.04 12.21 C1.08 8 1.06 4.11 0 0 Z " fill="#DD92A4" transform="translate(775,319)"/>
<path d="M0 0 C1.32 0.66 2.64 1.32 4 2 C4.31 5.25 4.31 5.25 4 9 C1.5 11.44 1.5 11.44 -1 13 C-2.18 9.47 -2.2 6.71 -2 3 C-1.34 2.01 -0.68 1.02 0 0 Z " fill="#F8F7F9" transform="translate(699,347)"/>
<path d="M0 0 C0.99 0 1.98 0 3 0 C3 0.66 3 1.32 3 2 C3.62 1.79 4.24 1.59 4.88 1.38 C5.58 1.25 6.28 1.13 7 1 C7.66 1.66 8.32 2.32 9 3 C11.07 3.64 11.07 3.64 13 4 C13 4.66 13 5.32 13 6 C13.66 6 14.32 6 15 6 C14.67 6.66 14.34 7.32 14 8 C12.68 7.67 11.36 7.34 10 7 C9.67 7.99 9.34 8.98 9 10 C7 9 7 9 6.19 7.12 C4.65 4.37 2.69 3.56 0 2 C0 1.34 0 0.68 0 0 Z " fill="#ECB4C2" transform="translate(689,340)"/>
<path d="M0 0 C16.83 0 33.66 0 51 0 C51 0.33 51 0.66 51 1 C34.17 1 17.34 1 0 1 C0 0.67 0 0.34 0 0 Z " fill="#F8F7F9" transform="translate(781,261)"/>
<path d="M0 0 C3 1 3 1 5 4 C5.12 6.69 5.12 6.69 5 9 C2.28 8.63 0.39 8.27 -1.88 6.69 C-3 5 -3 5 -2.81 2.88 C-2 1 -2 1 0 0 Z " fill="#ECB3C1" transform="translate(668,349)"/>
<path d="M0 0 C1.32 0.66 2.64 1.32 4 2 C4 4.64 4 7.28 4 10 C2.35 9.67 0.7 9.34 -1 9 C-1.62 6.19 -1.62 6.19 -2 3 C-1.34 2.01 -0.68 1.02 0 0 Z " fill="#ECB3C1" transform="translate(520,281)"/>
<path d="M0 0 C2.27 3.4 2.37 5.17 2.62 9.19 C2.7 10.27 2.77 11.36 2.85 12.48 C2.9 13.31 2.95 14.14 3 15 C-1.77 11.19 -1.77 11.19 -2.4 7.96 C-2.44 5.81 -2.44 5.81 -2 2 C-1.34 1.34 -0.68 0.68 0 0 Z " fill="#E1B0BF" transform="translate(700,314)"/>
<path d="M0 0 C1.56 1.19 1.56 1.19 3 3 C2.69 5.69 2.69 5.69 2 8 C0.68 8 -0.64 8 -2 8 C-2.66 7.01 -3.32 6.02 -4 5 C-2.25 1.12 -2.25 1.12 0 0 Z " fill="#ECB7C4" transform="translate(617,349)"/>
<path d="M0 0 C0.99 0.66 1.98 1.32 3 2 C2.67 4.31 2.34 6.62 2 9 C1.01 9 0.02 9 -1 9 C-2.03 6.21 -2.05 5.13 -1.06 2.25 C-0.71 1.51 -0.36 0.76 0 0 Z " fill="#D2869B" transform="translate(494,308)"/>
<path d="M0 0 C2 1.81 2 1.81 4 4 C4 4.99 4 5.98 4 7 C3.01 7.33 2.02 7.66 1 8 C0.01 7.34 -0.98 6.68 -2 6 C-1.12 1.12 -1.12 1.12 0 0 Z " fill="#F8F7F9" transform="translate(809,281)"/>
<path d="M0 0 C2 2 2 2 2.12 5.62 C2.08 6.74 2.04 7.85 2 9 C-0.52 8.03 -1.74 7.54 -2.94 5.06 C-3 3 -3 3 -1.56 1.25 C-1.05 0.84 -0.53 0.43 0 0 Z " fill="#ECB3C1" transform="translate(751,281)"/>
<path d="M0 0 C5.45 1.49 5.45 1.49 11 3 C11 3.99 11 4.98 11 6 C8.03 5.67 5.06 5.34 2 5 C1.34 3.35 0.68 1.7 0 0 Z " fill="#ECB5C2" transform="translate(657,327)"/>
<path d="M0 0 C0.33 0.99 0.66 1.98 1 3 C2.65 2.01 4.3 1.02 6 0 C5.34 1.32 4.68 2.64 4 4 C3.34 4 2.68 4 2 4 C1.67 5.32 1.34 6.64 1 8 C-0.32 6.68 -1.64 5.36 -3 4 C-2.01 2.68 -1.02 1.36 0 0 Z " fill="#ECB3C1" transform="translate(697,357)"/>
<path d="M0 0 C0.99 0.33 1.98 0.66 3 1 C3.33 2.98 3.66 4.96 4 7 C2.68 6.67 1.36 6.34 0 6 C-1.12 2.25 -1.12 2.25 0 0 Z " fill="#ECB3C1" transform="translate(528,356)"/>
<path d="M0 0 C7.26 0 14.52 0 22 0 C22 0.33 22 0.66 22 1 C14.74 1 7.48 1 0 1 C0 0.67 0 0.34 0 0 Z " fill="#F8F7F9" transform="translate(595,261)"/>
<path d="M0 0 C5.94 0 11.88 0 18 0 C18 0.33 18 0.66 18 1 C12.06 1 6.12 1 0 1 C0 0.67 0 0.34 0 0 Z " fill="#F8F7F9" transform="translate(458,261)"/>
<path d="M0 0 C2.64 0 5.28 0 8 0 C8 0.33 8 0.66 8 1 C5.36 1 2.72 1 0 1 C0 0.67 0 0.34 0 0 Z " fill="#F8F7F9" transform="translate(672,261)"/>
<path d="M0 0 C2.64 0 5.28 0 8 0 C8 0.33 8 0.66 8 1 C5.36 1 2.72 1 0 1 C0 0.67 0 0.34 0 0 Z " fill="#F8F7F9" transform="translate(627,261)"/>
<path d="M0 0 C2.31 0 4.62 0 7 0 C7 0.33 7 0.66 7 1 C4.69 1 2.38 1 0 1 C0 0.67 0 0.34 0 0 Z " fill="#F8F7F9" transform="translate(705,261)"/>
<path d="M0 0 C1.98 0 3.96 0 6 0 C6 0.33 6 0.66 6 1 C4.02 1 2.04 1 0 1 C0 0.67 0 0.34 0 0 Z " fill="#F8F7F9" transform="translate(686,261)"/>
<path d="M0 0 C3 1 3 1 3 1 Z " fill="#F8F7F9" transform="translate(554,261)"/>
<path d="" fill="#F8F7F9" transform="translate(0,0)"/>
<path d="M0 0 C2 1 2 1 2 1 Z " fill="#F8F7F9" transform="translate(836,261)"/>
<path d="M0 0 C2 1 2 1 2 1 Z " fill="#F8F7F9" transform="translate(721,261)"/>
<path d="M0 0 C2 1 2 1 2 1 Z " fill="#F8F7F9" transform="translate(717,261)"/>
<path d="M0 0 C2 1 2 1 2 1 Z " fill="#F8F7F9" transform="translate(713,261)"/>
<path d="M0 0 C2 1 2 1 2 1 Z " fill="#F8F7F9" transform="translate(701,261)"/>
<path d="M0 0 C2 1 2 1 2 1 Z " fill="#F8F7F9" transform="translate(698,261)"/>
<path d="M0 0 C2 1 2 1 2 1 Z " fill="#F8F7F9" transform="translate(669,261)"/>
<path d="M0 0 C2 1 2 1 2 1 Z " fill="#F8F7F9" transform="translate(665,261)"/>
<path d="M0 0 C2 1 2 1 2 1 Z " fill="#F8F7F9" transform="translate(624,261)"/>
<path d="M0 0 C2 1 2 1 2 1 Z " fill="#F8F7F9" transform="translate(618,261)"/>
<path d="M0 0 C2 1 2 1 2 1 Z " fill="#F8F7F9" transform="translate(592,261)"/>
<path d="M0 0 C2 1 2 1 2 1 Z " fill="#F8F7F9" transform="translate(586,261)"/>
<path d="M0 0 C2 1 2 1 2 1 Z " fill="#F8F7F9" transform="translate(551,261)"/>
<path d="M0 0 C2 1 2 1 2 1 Z " fill="#F8F7F9" transform="translate(547,261)"/>
<path d="" fill="#F8F7F9" transform="translate(0,0)"/>
<path d="" fill="#ECB3C1" transform="translate(0,0)"/>
<path d="" fill="#F8F7F9" transform="translate(0,0)"/>
<path d="" fill="#F8F7F9" transform="translate(0,0)"/>
<path d="" fill="#F8F7F9" transform="translate(0,0)"/>
<path d="" fill="#F8F7F9" transform="translate(0,0)"/>
<path d="" fill="#F8F7F9" transform="translate(0,0)"/>
</svg>
