<?xml version="1.0" encoding="UTF-8"?>
<!-- Generator: visioncortex VTracer 0.6.3 -->
<svg version="1.1" xmlns="http://www.w3.org/2000/svg" width="1280" height="640">
<path d="M0 0 C5.94 0.38 11.71 0.29 17.64 -0.11 C23.98 -0.55 29.93 -0.45 36.27 0.2 C40.61 0.44 44.86 0.17 49.2 -0.11 C55.69 -0.54 61.79 -0.46 68.27 0.2 C73.43 0.48 78.52 0.07 83.67 -0.28 C89.51 -0.63 95.12 -0.45 100.94 0.23 C103.72 0.5 103.72 0.5 106.49 -0.11 C110.69 -0.77 114.61 -0.42 118.83 -0.11 C126.85 0.39 134.67 0.24 142.69 -0.28 C148.35 -0.62 153.73 -0.38 159.37 0.2 C163.5 0.43 167.52 0.18 171.64 -0.11 C178.24 -0.58 184.49 -0.41 191.09 0.2 C195.3 0.42 199.37 0.14 203.58 -0.18 C214.67 -0.94 225.57 -1.11 235.09 5.22 C239.59 7.23 244.44 7.35 249.32 7.67 C253.94 8 256.82 8.65 260.7 11.39 C261.84 11.84 262.97 12.29 264.14 12.76 C267.99 14.52 270.56 16.58 273.7 19.39 C274.25 19.81 274.81 20.24 275.37 20.68 C278.51 23.11 280.1 24.47 280.7 28.39 C280.8 30.32 280.83 32.25 280.84 34.19 C280.84 35.37 280.85 36.56 280.85 37.78 C280.85 39.07 280.85 40.37 280.85 41.71 C280.85 43.09 280.85 44.47 280.86 45.85 C280.87 49.6 280.87 53.35 280.87 57.1 C280.87 59.44 280.87 61.79 280.88 64.13 C280.88 72.31 280.89 80.48 280.89 88.66 C280.89 96.28 280.9 103.9 280.91 111.51 C280.93 118.06 280.93 124.6 280.93 131.15 C280.93 135.05 280.93 138.96 280.94 142.87 C280.95 146.54 280.95 150.22 280.95 153.89 C280.95 155.88 280.95 157.87 280.96 159.86 C280.96 161.64 280.96 161.64 280.95 163.46 C280.95 164.49 280.95 165.52 280.95 166.58 C280.5 171.65 278.62 174.94 275.14 178.57 C274.52 179.25 273.9 179.92 273.26 180.62 C266.42 185.35 257.39 184.67 249.41 184.63 C248.19 184.64 246.98 184.64 245.73 184.64 C242.38 184.65 239.03 184.64 235.68 184.63 C232.06 184.63 228.44 184.63 224.82 184.64 C217.74 184.64 210.66 184.64 203.57 184.63 C195.32 184.62 187.07 184.62 178.81 184.62 C164.08 184.62 149.36 184.61 134.63 184.59 C120.34 184.58 106.06 184.57 91.78 184.57 C90.9 184.57 90.02 184.57 89.11 184.57 C88.24 184.57 87.36 184.57 86.45 184.57 C70.18 184.57 53.9 184.57 37.63 184.56 C31.88 184.56 26.13 184.55 20.38 184.55 C13.37 184.55 6.37 184.55 -0.64 184.54 C-4.22 184.54 -7.79 184.53 -11.36 184.53 C-15.24 184.53 -19.12 184.53 -23 184.52 C-24.12 184.52 -25.25 184.52 -26.4 184.53 C-44.83 184.47 -44.83 184.47 -49.98 179.89 C-51.3 178.39 -51.3 178.39 -52.3 176.39 C-53.29 176.72 -54.28 177.05 -55.3 177.39 C-57.61 176.26 -57.61 176.26 -60.3 174.39 C-61.35 173.67 -62.4 172.94 -63.48 172.2 C-69.07 166.61 -68.53 159.2 -68.57 151.71 C-68.56 150.46 -68.56 149.21 -68.56 147.92 C-68.56 146.57 -68.56 145.22 -68.57 143.87 C-68.58 140.23 -68.57 136.58 -68.57 132.94 C-68.56 129.12 -68.57 125.29 -68.57 121.47 C-68.57 115.05 -68.57 108.63 -68.56 102.21 C-68.55 94.8 -68.55 87.39 -68.56 79.98 C-68.57 73.6 -68.57 67.22 -68.57 60.85 C-68.56 57.04 -68.56 53.24 -68.57 49.44 C-68.58 45.87 -68.57 42.29 -68.56 38.72 C-68.56 36.79 -68.56 34.86 -68.57 32.93 C-68.54 27.07 -68.5 21.86 -66.3 16.39 C-63.87 13.99 -63.87 13.99 -60.98 12.01 C-60.04 11.34 -59.09 10.68 -58.12 9.99 C-52.35 6.71 -46.17 7.16 -39.67 6.96 C-35.76 6.3 -34.24 4.96 -31.3 2.39 C-29.39 1.71 -29.39 1.71 -27.3 1.39 C-26.32 1.2 -25.34 1.01 -24.33 0.82 C-16.04 -0.48 -8.36 -0.58 0 0 Z " fill="#F8F7F7" transform="translate(533.297119140625,227.61279296875)"/>
<path d="M0 0 C0.88 -0 1.75 -0.01 2.66 -0.01 C4.11 -0 4.11 -0 5.59 -0 C7.13 -0 7.13 -0 8.7 -0.01 C12.15 -0.01 15.61 -0.01 19.06 -0 C21.53 -0 24 -0.01 26.47 -0.01 C32.49 -0.01 38.51 -0.01 44.53 -0.01 C49.43 -0.01 54.32 -0.01 59.21 -0.01 C60.26 -0.01 60.26 -0.01 61.32 -0.01 C62.73 -0.01 64.15 -0.01 65.56 -0.01 C78.82 -0.01 92.08 -0.01 105.34 -0 C116.72 0 128.1 0 139.49 -0 C152.7 -0.01 165.91 -0.01 179.11 -0.01 C180.52 -0.01 181.93 -0.01 183.34 -0.01 C184.03 -0.01 184.72 -0.01 185.44 -0.01 C190.33 -0.01 195.21 -0.01 200.1 -0.01 C206.68 -0.01 213.26 -0.01 219.83 -0.01 C222.25 -0 224.67 -0 227.09 -0.01 C230.38 -0.01 233.67 -0.01 236.97 -0 C237.93 -0 238.9 -0.01 239.89 -0.01 C241.21 -0 241.21 -0 242.56 0 C243.32 0 244.08 0 244.86 0 C246.84 0.13 246.84 0.13 249.84 1.13 C249.85 2.01 249.86 2.89 249.87 3.79 C249.97 12.12 250.07 20.44 250.18 28.77 C250.24 33.05 250.29 37.33 250.34 41.61 C250.39 45.75 250.44 49.88 250.5 54.02 C250.52 55.59 250.53 57.16 250.55 58.73 C250.58 60.95 250.6 63.17 250.64 65.38 C250.65 66.41 250.65 66.41 250.67 67.46 C250.76 72.13 251.14 76.71 251.83 81.33 C251.83 81.92 251.84 82.52 251.84 83.13 C249.44 85.52 248.94 85.38 245.67 85.38 C244.35 85.39 244.35 85.39 243.01 85.4 C242.04 85.39 241.06 85.39 240.06 85.39 C239.03 85.39 238.01 85.39 236.95 85.4 C233.48 85.41 230.01 85.4 226.55 85.4 C224.07 85.4 221.59 85.41 219.12 85.42 C213.07 85.43 207.03 85.43 200.99 85.43 C196.08 85.43 191.17 85.43 186.26 85.43 C185.56 85.43 184.86 85.43 184.14 85.43 C182.73 85.44 181.31 85.44 179.89 85.44 C166.58 85.45 153.28 85.45 139.97 85.44 C127.79 85.44 115.61 85.45 103.43 85.47 C90.93 85.48 78.43 85.49 65.93 85.49 C58.91 85.49 51.89 85.49 44.87 85.5 C38.27 85.52 31.67 85.51 25.07 85.5 C22.64 85.5 20.22 85.5 17.79 85.51 C14.49 85.52 11.18 85.51 7.88 85.5 C6.91 85.51 5.94 85.51 4.94 85.52 C3.62 85.51 3.62 85.51 2.26 85.5 C1.5 85.5 0.74 85.5 -0.05 85.5 C-2.79 85.01 -4.16 84.05 -6.16 82.13 C-6.54 79.4 -6.66 77.08 -6.61 74.35 C-6.61 73.56 -6.61 72.77 -6.61 71.95 C-6.61 69.34 -6.58 66.73 -6.55 64.11 C-6.54 62.3 -6.54 60.49 -6.53 58.68 C-6.52 53.91 -6.48 49.14 -6.43 44.37 C-6.39 39.51 -6.37 34.64 -6.35 29.77 C-6.31 20.22 -6.24 10.67 -6.16 1.13 C-3.85 -0.03 -2.56 0 0 0 Z " fill="#F9F9F9" transform="translate(511.157675743103,298.87415885925293)"/>
<path d="M0 0 C2.62 0.94 2.62 0.94 4.3 3.94 C6.39 7.3 6.39 7.3 10.3 7.74 C11.66 7.79 13.02 7.82 14.38 7.81 C15.07 7.83 15.77 7.85 16.49 7.88 C18.2 7.92 19.91 7.93 21.62 7.94 C21.62 7.28 21.62 6.62 21.62 5.94 C24.75 2.87 27.94 0.09 32.38 -0.31 C34.62 0.94 34.62 0.94 36.31 3.97 C38.37 7.26 38.37 7.26 42.05 7.73 C50.57 7.9 50.57 7.9 57.88 4 C58.35 3.45 58.83 2.91 59.33 2.35 C60.62 0.94 60.62 0.94 63.62 -0.06 C66.62 0.94 66.62 0.94 67.69 2.94 C68 3.6 68.31 4.26 68.62 4.94 C69.62 5.43 69.62 5.43 70.62 5.94 C70.62 6.6 70.62 7.26 70.62 7.94 C73.23 7.9 75.83 7.84 78.44 7.75 C79.54 7.74 79.54 7.74 80.67 7.73 C83.12 7.68 83.12 7.68 86.62 6.94 C88.5 4.56 88.5 4.56 89.62 1.94 C92.81 0.62 92.81 0.62 95.62 -0.06 C98.62 3.69 98.62 3.69 98.62 5.94 C99.28 5.94 99.94 5.94 100.62 5.94 C100.62 6.6 100.62 7.26 100.62 7.94 C103.21 7.9 105.79 7.84 108.38 7.75 C109.1 7.74 109.83 7.74 110.59 7.73 C114.5 7.57 116.23 7.35 118.99 4.48 C119.53 3.64 120.07 2.8 120.62 1.94 C123.06 0.44 123.06 0.44 125.62 -0.06 C128.59 1.21 130.2 2.2 131.81 5.02 C133.59 7.29 133.59 7.29 137.06 7.5 C138.39 7.52 139.73 7.52 141.06 7.5 C142.38 7.52 143.7 7.54 145.06 7.57 C148.77 7.29 148.77 7.29 150.89 4.45 C151.47 3.62 152.04 2.79 152.62 1.94 C155.88 1.12 155.88 1.12 158.62 0.94 C161.62 4.69 161.62 4.69 161.62 6.94 C167.57 7.27 173.5 7.6 179.62 7.94 C180.28 6.29 180.94 4.64 181.62 2.94 C183.94 1 183.94 1 186.62 -0.06 C190.64 0.82 193 2.83 195.62 5.94 C195.62 6.6 195.62 7.26 195.62 7.94 C200.9 7.94 206.18 7.94 211.62 7.94 C211.62 7.28 211.62 6.62 211.62 5.94 C212.28 5.94 212.94 5.94 213.62 5.94 C213.78 5.01 213.78 5.01 213.94 4.06 C214.62 1.94 214.62 1.94 217.62 -0.06 C220.06 -0.06 220.06 -0.06 222.62 0.94 C223.17 1.93 223.71 2.93 224.27 3.95 C226.41 7.33 226.41 7.33 230.49 7.67 C231.97 7.71 233.45 7.71 234.94 7.69 C248.45 7.76 248.45 7.76 252.62 11.94 C252.88 14.33 252.88 14.33 252.88 17.4 C252.88 18.56 252.89 19.73 252.9 20.92 C252.89 22.84 252.89 22.84 252.88 24.8 C252.89 26.16 252.89 27.51 252.89 28.87 C252.9 32.56 252.9 36.25 252.89 39.94 C252.89 43.8 252.89 47.65 252.9 51.51 C252.9 57.99 252.9 64.46 252.89 70.94 C252.87 78.43 252.88 85.93 252.89 93.42 C252.9 99.85 252.9 106.28 252.89 112.7 C252.89 116.55 252.89 120.39 252.9 124.23 C252.9 127.84 252.9 131.45 252.89 135.06 C252.88 137.03 252.89 138.99 252.9 140.95 C252.89 142.11 252.88 143.28 252.88 144.47 C252.88 145.99 252.88 145.99 252.88 147.54 C252.62 149.94 252.62 149.94 250.62 151.94 C248.56 152.18 248.56 152.18 245.96 152.17 C244.98 152.17 243.99 152.17 242.97 152.17 C241.33 152.16 241.33 152.16 239.65 152.15 C238.5 152.15 237.34 152.14 236.15 152.14 C232.93 152.14 229.71 152.12 226.5 152.1 C223.03 152.08 219.56 152.07 216.1 152.06 C209.3 152.05 202.5 152.02 195.71 151.98 C187.8 151.94 179.89 151.92 171.99 151.89 C157.88 151.84 143.78 151.78 129.67 151.72 C115.97 151.65 102.28 151.6 88.58 151.55 C87.73 151.55 86.89 151.54 86.02 151.54 C85.18 151.54 84.34 151.54 83.47 151.53 C67.89 151.48 52.31 151.42 36.74 151.35 C31.22 151.33 25.7 151.31 20.19 151.29 C13.47 151.27 6.75 151.24 0.03 151.2 C-3.4 151.19 -6.84 151.17 -10.27 151.16 C-13.98 151.15 -17.69 151.13 -21.4 151.11 C-22.5 151.11 -23.59 151.1 -24.72 151.1 C-25.71 151.1 -26.7 151.09 -27.71 151.08 C-28.57 151.08 -29.43 151.07 -30.31 151.07 C-32.38 150.94 -32.38 150.94 -34.38 149.94 C-34.55 132 -34.72 114.06 -34.87 96.11 C-34.94 87.78 -35.02 79.45 -35.1 71.12 C-35.17 63.86 -35.24 56.61 -35.29 49.35 C-35.32 45.5 -35.36 41.66 -35.4 37.81 C-35.44 34.19 -35.47 30.58 -35.49 26.96 C-35.51 25 -35.53 23.03 -35.56 21.07 C-35.57 19.9 -35.57 18.74 -35.58 17.54 C-35.59 16.52 -35.6 15.51 -35.61 14.46 C-35.38 11.94 -35.38 11.94 -33.38 8.94 C-30.92 8.51 -30.92 8.51 -27.85 8.42 C-26.2 8.34 -26.2 8.34 -24.51 8.26 C-22.18 8.17 -19.85 8.09 -17.52 8.03 C-11.74 8 -11.74 8 -6.76 5.56 C-5.55 3.76 -5.55 3.76 -4.38 0.94 C-2.38 -0.06 -2.38 -0.06 0 0 Z M-19.38 59.94 C-19.47 70.45 -19.54 80.96 -19.58 91.47 C-19.6 96.35 -19.63 101.22 -19.68 106.1 C-19.72 110.81 -19.74 115.52 -19.75 120.23 C-19.76 122.02 -19.78 123.82 -19.8 125.62 C-19.83 128.13 -19.83 130.65 -19.83 133.16 C-19.84 133.91 -19.86 134.65 -19.87 135.42 C-19.9 137.74 -19.9 137.74 -19.38 140.94 C-16.64 143.57 -14.71 144.31 -10.95 144.32 C-9.63 144.33 -9.63 144.33 -8.27 144.34 C-7.3 144.33 -6.34 144.33 -5.34 144.32 C-3.79 144.33 -3.79 144.33 -2.22 144.33 C1.25 144.34 4.71 144.34 8.18 144.33 C10.66 144.33 13.14 144.34 15.62 144.34 C21.66 144.35 27.71 144.35 33.75 144.34 C38.66 144.34 43.57 144.34 48.48 144.34 C49.17 144.34 49.87 144.34 50.59 144.34 C52.01 144.34 53.43 144.34 54.85 144.34 C68.15 144.35 81.45 144.34 94.76 144.33 C106.18 144.31 117.6 144.31 129.03 144.33 C142.29 144.34 155.54 144.35 168.8 144.34 C170.22 144.34 171.63 144.34 173.04 144.34 C173.74 144.34 174.43 144.34 175.15 144.34 C180.05 144.33 184.96 144.34 189.87 144.35 C196.46 144.36 203.06 144.35 209.66 144.33 C212.09 144.33 214.51 144.33 216.94 144.34 C220.24 144.34 223.54 144.33 226.84 144.32 C228.3 144.33 228.3 144.33 229.79 144.34 C230.67 144.33 231.55 144.32 232.45 144.32 C233.22 144.31 233.98 144.31 234.77 144.31 C237.04 144.08 237.04 144.08 238.62 140.94 C238.43 138.91 238.21 136.88 237.94 134.86 C237.56 131.34 237.47 127.84 237.42 124.31 C237.4 123.24 237.4 123.24 237.39 122.16 C237.36 119.88 237.33 117.59 237.31 115.31 C237.29 113.71 237.27 112.11 237.25 110.5 C237.19 106.32 237.14 102.13 237.09 97.94 C237.04 93.66 236.99 89.38 236.93 85.09 C236.82 76.71 236.72 68.32 236.62 59.94 C233.85 59.01 232.21 58.81 229.34 58.81 C228.02 58.81 228.02 58.81 226.68 58.8 C225.23 58.81 225.23 58.81 223.75 58.81 C222.72 58.81 221.7 58.81 220.64 58.81 C217.18 58.8 213.73 58.8 210.28 58.81 C207.81 58.81 205.34 58.8 202.86 58.8 C196.84 58.8 190.82 58.8 184.8 58.8 C179.91 58.8 175.01 58.8 170.12 58.8 C169.42 58.8 168.73 58.8 168.01 58.8 C166.6 58.8 165.19 58.8 163.77 58.8 C150.52 58.8 137.26 58.8 124 58.81 C112.62 58.81 101.23 58.81 89.85 58.81 C76.64 58.8 63.43 58.8 50.22 58.8 C48.81 58.8 47.4 58.8 46 58.8 C45.3 58.8 44.61 58.8 43.9 58.8 C39.01 58.81 34.12 58.8 29.23 58.8 C22.65 58.8 16.08 58.8 9.5 58.81 C7.08 58.81 4.66 58.81 2.24 58.8 C-1.05 58.8 -4.34 58.81 -7.63 58.81 C-8.59 58.81 -9.56 58.81 -10.56 58.8 C-11.44 58.81 -12.31 58.81 -13.22 58.81 C-13.98 58.81 -14.74 58.81 -15.52 58.81 C-17.47 58.82 -17.47 58.82 -19.38 59.94 Z " fill="#C14B7E" transform="translate(524.375,240.0625)"/>
<path d="M0 0 C0.59 0.3 1.18 0.6 1.79 0.91 C4.45 2.22 6.44 2.33 9.39 2.45 C10.95 2.51 10.95 2.51 12.54 2.58 C13.62 2.62 14.7 2.65 15.81 2.69 C17.41 2.76 17.41 2.76 19.05 2.83 C25.11 3.07 25.11 3.07 31.13 2.5 C36.35 1.83 41.46 1.99 46.71 2.12 C49.15 2.17 51.58 2.22 54.01 2.27 C55.98 2.31 57.95 2.35 59.92 2.39 C66.17 2.53 72.43 2.65 78.68 2.76 C79.41 2.77 80.13 2.79 80.88 2.8 C92.07 2.99 103.25 3.01 114.43 2.91 C116.93 2.89 119.42 2.88 121.92 2.86 C129.2 2.81 136.48 2.76 143.76 2.64 C146.78 2.6 149.79 2.58 152.81 2.56 C154.21 2.55 155.62 2.53 157.02 2.5 C169.05 2.25 169.05 2.25 172.38 5.4 C174 8 174 8 173.98 10.13 C173.72 10.79 173.46 11.45 173.19 12.12 C172.38 14.08 172.38 14.08 172 16 C172.99 17.49 172.99 17.49 174 19 C174 19.99 174 20.98 174 22 C174.66 22 175.32 22 176 22 C175.74 25.8 175.55 27.5 172.69 30.12 C171.8 30.74 170.91 31.36 170 32 C169.3 32.7 168.6 33.4 167.88 34.12 C165.29 36.71 163.68 37.94 160 38.27 C152.75 38.23 146.03 37.81 139 36 C139.33 37.65 139.66 39.3 140 41 C137.04 42.54 135.59 43.15 132.3 42.32 C131.31 41.93 130.33 41.53 129.31 41.12 C120.92 38.25 112.78 38.65 104 39 C104.02 40.06 104.05 41.12 104.07 42.21 C104.09 43.6 104.11 44.99 104.12 46.38 C104.15 47.42 104.15 47.42 104.18 48.49 C104.19 50.33 104.1 52.17 104 54 C103.01 54.99 103.01 54.99 102 56 C102 55.01 102 54.02 102 53 C100.51 52.5 100.51 52.5 99 52 C99 48.37 99 44.74 99 41 C94.14 39.05 94.14 39.05 89.31 38.77 C88.45 38.77 87.59 38.77 86.7 38.78 C85.81 38.79 84.92 38.8 84 38.81 C82.67 38.81 82.67 38.81 81.3 38.81 C76.95 38.84 73.32 39.14 69 40 C69 44.29 69 48.58 69 53 C67.02 52.5 67.02 52.5 65 52 C63.69 49.38 64.1 47.77 64.44 44.88 C64.54 43.96 64.64 43.05 64.75 42.12 C64.87 41.07 64.87 41.07 65 40 C61.28 39.14 57.86 38.88 54.04 38.9 C52.93 38.91 51.82 38.91 50.67 38.91 C49.52 38.92 48.37 38.93 47.19 38.94 C45.43 38.94 45.43 38.94 43.64 38.95 C40.76 38.96 37.88 38.98 35 39 C35 44.28 35 49.56 35 55 C34.01 55.33 33.02 55.66 32 56 C32 50.72 32 45.44 32 40 C30.04 39.71 28.08 39.42 26.06 39.12 C22.72 38.63 22.72 38.63 20 38 C19.67 37.34 19.34 36.68 19 36 C23.1 35.36 26.83 35 31 35 C31 31.37 31 27.74 31 24 C26.89 22.63 23.05 22.82 18.75 22.81 C17.5 22.79 17.5 22.79 16.22 22.78 C11.08 22.76 6.87 23.34 2 25 C2.01 25.86 2.02 26.72 2.04 27.61 C2.11 38.11 1.63 48.53 1 59 C-6.7 50.57 -4.37 31.78 -4.11 21.02 C-3.98 18.61 -3.54 16.34 -3 14 C-2.69 9.34 -2.69 9.34 -4 5 C-2.53 1.26 -2.53 1.26 0 0 Z " fill="#F9F9F9" transform="translate(549,308)"/>
<path d="M0 0 C1.43 1.19 2.85 2.38 4.27 3.57 C5.4 4.5 6.54 5.41 7.7 6.3 C10.82 8.74 12.4 10.09 13 14 C13.09 15.93 13.13 17.87 13.13 19.8 C13.14 20.98 13.14 22.17 13.15 23.39 C13.15 24.69 13.15 25.98 13.15 27.32 C13.15 28.7 13.15 30.08 13.16 31.46 C13.16 35.21 13.17 38.96 13.17 42.71 C13.17 45.06 13.17 47.4 13.17 49.74 C13.18 57.92 13.19 66.09 13.19 74.27 C13.18 81.89 13.2 89.51 13.21 97.13 C13.22 103.67 13.23 110.21 13.23 116.76 C13.23 120.67 13.23 124.57 13.24 128.48 C13.25 132.16 13.25 135.83 13.24 139.51 C13.24 141.49 13.25 143.48 13.26 145.47 C13.25 147.26 13.25 147.26 13.25 149.07 C13.25 150.1 13.25 151.13 13.25 152.19 C12.8 157.26 10.91 160.56 7.44 164.19 C6.82 164.86 6.2 165.54 5.56 166.23 C-1.28 170.96 -10.31 170.28 -18.3 170.25 C-19.51 170.25 -20.73 170.25 -21.98 170.25 C-25.32 170.26 -28.67 170.25 -32.02 170.25 C-35.64 170.24 -39.26 170.25 -42.88 170.25 C-49.96 170.25 -57.05 170.25 -64.13 170.24 C-72.38 170.23 -80.64 170.23 -88.89 170.23 C-103.62 170.23 -118.35 170.22 -133.08 170.21 C-147.36 170.19 -161.64 170.18 -175.92 170.19 C-176.8 170.19 -177.68 170.19 -178.59 170.19 C-179.47 170.19 -180.35 170.19 -181.25 170.19 C-197.52 170.19 -213.8 170.18 -230.07 170.17 C-235.82 170.17 -241.57 170.17 -247.32 170.17 C-254.33 170.17 -261.34 170.16 -268.35 170.15 C-271.92 170.15 -275.49 170.14 -279.07 170.15 C-282.95 170.15 -286.82 170.14 -290.7 170.13 C-291.83 170.14 -292.95 170.14 -294.11 170.14 C-311.94 170.08 -311.94 170.08 -317.81 165.62 C-319 164 -319 164 -318.69 161.81 C-318.46 161.21 -318.23 160.62 -318 160 C-311.61 158.85 -305.33 158.86 -298.84 158.88 C-297.62 158.88 -296.4 158.88 -295.14 158.88 C-291.76 158.88 -288.38 158.88 -284.99 158.88 C-281.34 158.89 -277.69 158.89 -274.04 158.89 C-267.72 158.89 -261.39 158.89 -255.07 158.89 C-245.93 158.9 -236.79 158.91 -227.65 158.91 C-212.82 158.91 -197.98 158.92 -183.15 158.92 C-168.75 158.93 -154.34 158.94 -139.93 158.95 C-138.6 158.95 -138.6 158.95 -137.24 158.95 C-132.79 158.95 -128.33 158.95 -123.87 158.95 C-86.92 158.96 -49.96 158.98 -13 159 C-13 158.34 -13 157.68 -13 157 C-11.35 157 -9.7 157 -8 157 C-8 156.34 -8 155.68 -8 155 C-6.68 154.34 -5.36 153.68 -4 153 C-4 152.24 -4 151.47 -3.99 150.68 C-3.93 132.1 -3.86 113.51 -3.76 94.93 C-3.72 85.94 -3.68 76.95 -3.65 67.96 C-3.63 60.13 -3.6 52.3 -3.55 44.46 C-3.53 40.31 -3.51 36.17 -3.5 32.02 C-3.5 28.11 -3.48 24.21 -3.45 20.31 C-3.44 18.87 -3.43 17.44 -3.43 16.01 C-3.44 14.05 -3.42 12.09 -3.4 10.14 C-3.39 9.04 -3.39 7.95 -3.38 6.82 C-2.96 3.69 -2.11 2.31 0 0 Z " fill="#8F2C50" transform="translate(801,242)"/>
<path d="M0 0 C2.39 -0.33 2.39 -0.33 5.25 -0.25 C6.23 -0.22 7.21 -0.2 8.22 -0.17 C11.2 0.01 14.08 0.37 17 1 C16.5 1.35 16.01 1.7 15.5 2.06 C13.28 4.93 13.87 7.47 14 11 C13.67 11.66 13.34 12.32 13 13 C12.9 14.5 12.87 16 12.87 17.5 C12.87 18.39 12.86 19.27 12.86 20.19 C12.87 21.12 12.87 22.04 12.88 23 C12.87 23.93 12.87 24.86 12.86 25.81 C12.87 27.14 12.87 27.14 12.87 28.5 C12.87 29.31 12.87 30.13 12.87 30.97 C12.87 33.07 12.87 33.07 14 35 C14.09 36.36 14.12 37.72 14.12 39.07 C14.12 39.93 14.12 40.78 14.12 41.66 C14.12 42.6 14.12 43.53 14.11 44.5 C14.11 45.48 14.11 46.47 14.11 47.48 C14.11 50.75 14.11 54.02 14.1 57.29 C14.1 59.55 14.09 61.81 14.09 64.07 C14.09 70.03 14.08 76 14.07 81.96 C14.06 88.04 14.05 94.12 14.05 100.2 C14.04 112.13 14.02 124.07 14 136 C14.84 135.76 14.84 135.76 15.71 135.52 C39.98 130.02 69.36 133.87 94.07 133.9 C100.27 133.9 106.48 133.91 112.68 133.91 C124.38 133.91 136.08 133.92 147.78 133.93 C157.13 133.94 166.48 133.94 175.83 133.95 C176.5 133.95 177.16 133.95 177.84 133.95 C181.16 133.95 184.48 133.95 187.8 133.95 C215.2 133.96 242.6 133.98 270 134 C271.21 131.58 271.13 130.06 271.13 127.35 C271.13 125.88 271.13 125.88 271.14 124.38 C271.13 123.31 271.13 122.23 271.13 121.12 C271.13 119.98 271.13 118.85 271.13 117.68 C271.14 113.91 271.14 110.15 271.13 106.38 C271.13 103.76 271.13 101.15 271.14 98.53 C271.14 93.03 271.14 87.54 271.13 82.04 C271.12 75.71 271.13 69.37 271.13 63.04 C271.14 56.94 271.14 50.83 271.13 44.72 C271.13 42.13 271.13 39.54 271.14 36.96 C271.14 33.32 271.13 29.68 271.13 26.05 C271.13 24.46 271.13 24.46 271.14 22.83 C271.6 11.62 271.6 11.62 269 1 C271.08 0.75 273.17 0.53 275.25 0.31 C276.99 0.12 276.99 0.12 278.77 -0.07 C282.47 0.01 283.44 0.41 286 3 C286.5 5.52 286.5 5.52 286.49 8.59 C286.5 9.75 286.51 10.91 286.52 12.11 C286.51 13.39 286.5 14.66 286.49 15.98 C286.49 17.33 286.49 18.69 286.5 20.05 C286.51 23.73 286.49 27.42 286.47 31.1 C286.45 34.96 286.46 38.81 286.46 42.66 C286.46 49.14 286.44 55.61 286.41 62.08 C286.38 69.56 286.37 77.05 286.37 84.54 C286.37 91.73 286.36 98.93 286.35 106.13 C286.34 109.19 286.33 112.26 286.33 115.32 C286.33 118.93 286.32 122.54 286.3 126.15 C286.29 128.11 286.29 130.07 286.29 132.03 C286.28 133.19 286.28 134.35 286.27 135.54 C286.26 136.55 286.26 137.56 286.26 138.61 C286 141 286 141 284 143 C281.94 143.24 281.94 143.24 279.34 143.23 C278.35 143.23 277.36 143.24 276.34 143.24 C274.7 143.22 274.7 143.22 273.03 143.21 C271.87 143.21 270.72 143.21 269.53 143.2 C266.31 143.2 263.09 143.18 259.87 143.16 C256.4 143.14 252.94 143.14 249.47 143.13 C242.67 143.11 235.88 143.08 229.08 143.05 C221.18 143.01 213.27 142.98 205.36 142.95 C191.26 142.9 177.15 142.84 163.05 142.78 C149.35 142.72 135.65 142.66 121.95 142.61 C121.11 142.61 120.26 142.61 119.4 142.6 C118.55 142.6 117.71 142.6 116.84 142.59 C101.27 142.54 85.69 142.48 70.11 142.42 C64.59 142.39 59.08 142.37 53.56 142.35 C46.84 142.33 40.12 142.3 33.4 142.27 C29.97 142.25 26.54 142.23 23.11 142.22 C19.4 142.21 15.68 142.19 11.97 142.17 C10.88 142.17 9.78 142.17 8.66 142.16 C7.67 142.16 6.68 142.15 5.66 142.14 C4.8 142.14 3.94 142.14 3.06 142.13 C1 142 1 142 -1 141 C-1.18 123.06 -1.34 105.12 -1.49 87.18 C-1.57 78.85 -1.64 70.52 -1.72 62.19 C-1.8 54.93 -1.86 47.67 -1.92 40.41 C-1.95 36.56 -1.98 32.72 -2.03 28.87 C-2.07 25.26 -2.1 21.64 -2.12 18.02 C-2.13 16.06 -2.16 14.09 -2.19 12.13 C-2.19 10.97 -2.2 9.8 -2.2 8.6 C-2.21 7.58 -2.22 6.57 -2.23 5.52 C-2 3 -2 3 0 0 Z " fill="#684C5C" transform="translate(491,249)"/>
<path d="M0 0 C13.73 -0.12 27.47 -0.2 41.2 -0.26 C47.58 -0.29 53.96 -0.32 60.33 -0.38 C66.49 -0.43 72.64 -0.46 78.79 -0.47 C81.14 -0.48 83.49 -0.5 85.84 -0.53 C89.13 -0.56 92.41 -0.57 95.7 -0.57 C96.68 -0.59 97.65 -0.6 98.65 -0.62 C103.31 -0.59 105.34 -0.51 109.14 2.4 C111 5 111 5 110.98 7.13 C110.72 7.79 110.46 8.45 110.19 9.12 C109.38 11.08 109.38 11.08 109 13 C109.99 14.49 109.99 14.49 111 16 C111 16.99 111 17.98 111 19 C111.66 19 112.32 19 113 19 C112.74 22.8 112.55 24.5 109.69 27.12 C108.8 27.74 107.91 28.36 107 29 C106.3 29.7 105.6 30.4 104.88 31.12 C102.29 33.71 100.68 34.94 97 35.27 C89.75 35.23 83.03 34.81 76 33 C76.5 35.48 76.5 35.48 77 38 C73.96 39.6 72.52 40.12 69.12 39.32 C68.09 38.93 67.06 38.53 66 38.12 C56.65 34.98 47.63 35.49 38 37 C37.01 35.35 36.02 33.7 35 32 C35.5 31.5 35.5 31.5 36 31 C36.09 29.07 36.11 27.14 36.1 25.21 C36.09 24.05 36.09 22.88 36.09 21.67 C36.08 20.44 36.07 19.21 36.06 17.94 C36.06 16.7 36.05 15.47 36.05 14.19 C36.04 11.13 36.02 8.06 36 5 C32.33 2.65 29.33 2.84 25.05 3.02 C24.39 3.05 23.73 3.07 23.05 3.1 C20.95 3.18 18.85 3.28 16.75 3.38 C15.32 3.43 13.9 3.49 12.47 3.55 C8.98 3.69 5.49 3.84 2 4 C1.34 2.68 0.68 1.36 0 0 Z " fill="#D6C5CD" transform="translate(612,311)"/>
<path d="M0 0 C9.39 -0.07 18.74 0.15 28.12 0.5 C30.69 0.59 33.26 0.69 35.82 0.78 C37.5 0.84 37.5 0.84 39.2 0.91 C43.77 1.06 48.01 0.64 52.53 0.02 C55.34 -0 56.72 0.36 59 2 C59.75 5.62 59.75 5.62 60 9 C59.41 9.19 58.82 9.39 58.21 9.59 C57.42 9.85 56.63 10.11 55.81 10.38 C55.04 10.63 54.26 10.89 53.46 11.15 C50.97 11.97 50.97 11.97 48.54 13.09 C45.7 14.11 43.51 14.23 40.5 14.19 C39.12 14.18 39.12 14.18 37.72 14.17 C35 14 35 14 32.33 13.43 C29.34 12.88 27.69 13.69 25 15 C24.95 16.42 24.91 17.83 24.88 19.25 C24.85 20.04 24.83 20.83 24.8 21.64 C25.02 24.21 25.71 25.79 27 28 C26.34 28.66 25.68 29.32 25 30 C22.3 29.82 20.99 28.99 18.81 27.38 C16.43 24.25 16.21 21.89 16 18 C16.44 15.56 16.44 15.56 17 14 C15.29 12.77 15.29 12.77 13 12 C10.28 12.79 10.28 12.79 8 14 C8.42 17.5 9.01 20.02 10.62 23.19 C12 26 12 26 11 29 C9.21 29.05 7.42 29.09 5.62 29.12 C4.63 29.15 3.63 29.17 2.6 29.2 C0 29 0 29 -2 27 C-2.4 25.01 -2.74 23.01 -3 21 C-2.34 21 -1.68 21 -1 21 C-1.66 18.36 -2.32 15.72 -3 13 C-2.34 13 -1.68 13 -1 13 C-1.21 11.78 -1.41 10.57 -1.62 9.31 C-2.26 5.59 -1.46 3.44 0 0 Z " fill="#ECE1E1" transform="translate(654,314)"/>
<path d="M0 0 C8.04 2.11 8.04 2.11 11.38 5.19 C13.02 8.04 14.09 10.77 15.14 13.88 C16.09 16.22 17.32 18.11 18.75 20.19 C20.29 22.59 20.98 23.68 21.19 26.56 C19.36 30.32 17.26 33.34 14 36 C12.31 36.58 10.6 37.09 8.88 37.56 C6.22 38.31 6.22 38.31 4 40 C1.92 44.57 0.89 49.05 0 54 C-2 51 -2 51 -2 47 C-2.66 47 -3.32 47 -4 47 C-4 46.34 -4 45.68 -4 45 C-7.4 44.85 -10.79 44.77 -14.19 44.69 C-15.63 44.62 -15.63 44.62 -17.1 44.56 C-23.02 44.44 -23.02 44.44 -28.09 47.31 C-30.11 50.16 -31.14 52.63 -32 56 C-34.29 55.08 -35.73 54.35 -37.25 52.38 C-38.15 49.51 -37.97 46.94 -37.87 43.97 C-38.06 41.11 -39.31 39.26 -41 37 C-40.06 37.23 -40.06 37.23 -39.1 37.47 C-38.28 37.67 -37.47 37.86 -36.62 38.06 C-35.81 38.26 -35 38.46 -34.16 38.66 C-31.96 39.22 -31.96 39.22 -30 38 C-30 36.35 -30 34.7 -30 33 C-23.38 32.88 -23.38 32.88 -20 34 C-17.69 34.15 -15.38 34.22 -13.06 34.25 C-11.84 34.28 -10.61 34.3 -9.35 34.33 C-5.84 33.98 -4.51 33.39 -2 31 C-2.5 30.01 -2.5 30.01 -3 29 C-2.07 28.75 -1.14 28.5 -0.19 28.25 C3.23 26.91 4.24 26.14 6 23 C6.71 20.85 6.71 20.85 7 19 C6.34 19 5.68 19 5 19 C1.84 14.15 1.84 14.15 2.28 10.93 C2.84 8.95 3.42 6.97 4 5 C3.5 3.51 3.5 3.51 3 2 C2.01 1.67 1.02 1.34 0 1 C0 0.67 0 0.34 0 0 Z " fill="#D7C7CF" transform="translate(718,311)"/>
<path d="M0 0 C0.58 2.71 0.58 2.71 0.52 5.95 C0.51 7.1 0.5 8.26 0.49 9.46 C0.45 10.67 0.41 11.88 0.38 13.12 C0.36 14.34 0.35 15.56 0.33 16.82 C0.18 25.82 0.18 25.82 -1 27 C-4.53 27.39 -8.08 27.47 -11.62 27.62 C-12.61 27.68 -13.6 27.73 -14.61 27.78 C-19.88 28.02 -24.84 28.17 -30 27 C-31.36 24.28 -30.99 22.23 -30.88 19.19 C-30.8 12.12 -32.13 5.79 -34 -1 C-28.18 -2.16 -22.35 -2.44 -16.44 -2.75 C-14.9 -2.85 -14.9 -2.85 -13.32 -2.96 C-12.33 -3.01 -11.33 -3.06 -10.31 -3.11 C-9.41 -3.16 -8.51 -3.21 -7.58 -3.26 C-4.27 -2.93 -2.55 -2.16 0 0 Z " fill="#F9F9F9" transform="translate(649,316)"/>
<path d="M0 0 C1.21 -0.01 2.43 -0.02 3.68 -0.04 C5.42 -0.04 5.42 -0.04 7.19 -0.04 C8.79 -0.05 8.79 -0.05 10.42 -0.06 C13 0.19 13 0.19 15 2.19 C15.23 4.89 15.23 4.89 15.2 8.29 C15.19 9.5 15.18 10.71 15.18 11.96 C15.16 13.23 15.14 14.5 15.12 15.81 C15.12 17.09 15.11 18.37 15.1 19.69 C15.07 22.85 15.04 26.02 15 29.19 C11.07 29.24 7.13 29.27 3.2 29.3 C1.21 29.31 -0.79 29.34 -2.78 29.36 C-4.04 29.37 -5.29 29.38 -6.58 29.38 C-7.74 29.39 -8.9 29.4 -10.09 29.41 C-13 29.19 -13 29.19 -16 27.19 C-16.36 23.4 -16.19 20.71 -14.88 17.12 C-13.77 13.4 -14.75 11.8 -16 8.19 C-15.75 4.38 -15.75 4.38 -15 1.19 C-10.65 -0.99 -4.78 0 0 0 Z " fill="#F9F9F9" transform="translate(599,313.8125)"/>
<path d="M0 0 C1.31 -0 2.62 -0 3.97 -0.01 C13.26 0.23 13.26 0.23 16.34 2.53 C17.68 4.34 18.57 5.97 19.38 8.06 C19.68 8.84 19.99 9.61 20.3 10.41 C21.66 17.96 21.53 25.42 21.38 33.06 C22.21 33.05 23.05 33.04 23.91 33.03 C27.02 33 30.12 32.97 33.23 32.95 C35.23 32.94 37.24 32.91 39.25 32.89 C40.5 32.88 41.76 32.87 43.05 32.87 C44.22 32.86 45.38 32.85 46.58 32.84 C49.38 33.06 49.38 33.06 51.38 35.06 C51.71 35.72 52.03 36.38 52.38 37.06 C53.37 37.06 54.36 37.06 55.38 37.06 C55.43 39.52 55.47 41.98 55.5 44.44 C55.53 45.49 55.53 45.49 55.55 46.55 C55.57 48.39 55.48 50.23 55.38 52.06 C54.38 53.05 54.38 53.05 53.38 54.06 C53.38 53.07 53.38 52.08 53.38 51.06 C51.89 50.57 51.89 50.57 50.38 50.06 C50.38 46.43 50.38 42.8 50.38 39.06 C45.51 37.12 45.51 37.12 40.69 36.83 C39.82 36.83 38.96 36.84 38.07 36.84 C37.18 36.85 36.29 36.86 35.38 36.88 C34.49 36.88 33.6 36.88 32.68 36.88 C28.33 36.91 24.7 37.2 20.38 38.06 C20.38 42.35 20.38 46.64 20.38 51.06 C19.05 50.73 17.74 50.4 16.38 50.06 C15.06 47.44 15.48 45.83 15.81 42.94 C15.91 42.03 16.02 41.12 16.12 40.18 C16.2 39.48 16.29 38.78 16.38 38.06 C12.66 37.2 9.23 36.95 5.42 36.96 C4.31 36.97 3.19 36.97 2.05 36.97 C0.32 36.99 0.32 36.99 -1.44 37 C-2.61 37 -3.78 37.01 -4.98 37.01 C-7.86 37.03 -10.74 37.04 -13.62 37.06 C-13.62 42.34 -13.62 47.62 -13.62 53.06 C-15.11 53.56 -15.11 53.56 -16.62 54.06 C-16.62 48.78 -16.62 43.5 -16.62 38.06 C-18.58 37.77 -20.54 37.49 -22.56 37.19 C-25.9 36.7 -25.9 36.7 -28.62 36.06 C-28.96 35.4 -29.28 34.74 -29.62 34.06 C-25.57 33.43 -21.72 33.01 -17.62 33.06 C-17.75 31.54 -17.75 31.54 -17.88 29.98 C-18.52 21.55 -18.66 13.49 -17.62 5.06 C-18.28 5.06 -18.95 5.06 -19.62 5.06 C-19.62 4.4 -19.62 3.74 -19.62 3.06 C-20.28 2.73 -20.95 2.4 -21.62 2.06 C-14.31 -0.28 -7.66 -0.19 0 0 Z M-13.49 5.43 C-15.13 7.78 -14.75 9.33 -14.38 12.12 C-14.27 13 -14.16 13.88 -14.05 14.79 C-13.73 17.08 -13.73 17.08 -12.62 19.06 C-12.93 19.78 -13.24 20.51 -13.56 21.25 C-14.87 24.72 -14.97 27.38 -14.62 31.06 C-11.04 33.45 -9.46 33.3 -5.21 33.26 C-3.33 33.25 -3.33 33.25 -1.41 33.24 C-0.1 33.22 1.21 33.2 2.56 33.19 C3.9 33.18 5.23 33.17 6.57 33.16 C9.84 33.14 13.11 33.1 16.38 33.06 C16.43 28.6 16.47 24.15 16.5 19.69 C16.52 18.42 16.53 17.15 16.55 15.84 C16.56 14.62 16.56 13.41 16.57 12.16 C16.58 11.04 16.59 9.92 16.6 8.77 C16.66 5.91 16.66 5.91 14.38 4.06 C10.08 3.6 5.75 3.74 1.44 3.75 C0.23 3.73 -0.97 3.72 -2.22 3.7 C-3.95 3.7 -3.95 3.7 -5.71 3.7 C-7.31 3.69 -7.31 3.69 -8.93 3.69 C-11.64 3.85 -11.64 3.85 -13.49 5.43 Z " fill="#D6C5CD" transform="translate(597.625,309.9375)"/>
<path d="M0 0 C0.88 0.38 1.77 0.76 2.68 1.15 C3.34 1.45 4 1.75 4.69 2.06 C4.69 3.05 4.69 4.04 4.69 5.06 C5.35 5.06 6.01 5.06 6.69 5.06 C6.43 8.86 6.23 10.56 3.38 13.19 C2.49 13.81 1.6 14.43 0.69 15.06 C-0.01 15.76 -0.72 16.46 -1.44 17.19 C-5.17 20.92 -7.66 21.4 -12.81 21.5 C-19.02 21.42 -23.3 20.22 -28.76 17.38 C-32.48 15.46 -36.32 14.31 -40.31 13.06 C-40.93 4.86 -40.93 4.86 -38.62 1.88 C-36.31 1.06 -36.31 1.06 -33.56 1.88 C-32.82 2.27 -32.08 2.66 -31.31 3.06 C-30.98 2.4 -30.65 1.74 -30.31 1.06 C-29.32 1.39 -28.33 1.72 -27.31 2.06 C-20.77 2.66 -16.17 1.94 -10.31 -0.94 C-6.17 -2.19 -3.93 -1.73 0 0 Z " fill="#C34E80" transform="translate(718.3125,324.9375)"/>
<path d="M0 0 C1.19 -0 2.38 -0 3.61 -0 C6.9 -0 10.19 -0 13.48 0 C17.03 0.01 20.59 0.01 24.14 0.01 C30.29 0.01 36.44 0.01 42.6 0.01 C51.49 0.02 60.39 0.03 69.28 0.03 C83.71 0.03 98.15 0.04 112.58 0.04 C126.6 0.05 140.61 0.06 154.63 0.07 C155.93 0.07 155.93 0.07 157.25 0.07 C161.59 0.07 165.92 0.07 170.26 0.07 C206.22 0.08 242.19 0.1 278.15 0.12 C278.48 1.11 278.81 2.1 279.15 3.12 C183.78 3.12 88.41 3.12 -9.85 3.12 C-10.18 4.77 -10.51 6.42 -10.85 8.12 C-12.54 8.87 -12.54 8.87 -14.85 9.12 C-17.6 7.18 -17.6 7.18 -19.85 5.12 C-19.52 3.8 -19.19 2.48 -18.85 1.12 C-12.55 -0 -6.39 -0.02 0 0 Z " fill="#B6A0A8" transform="translate(501.85130310058594,400.87974548339844)"/>
<path d="M0 0 C1.98 2.7 2.12 5.24 2.54 8.53 C2.7 9.71 2.86 10.89 3.02 12.11 C3.13 13.01 3.24 13.91 3.36 14.84 C-0.55 17.57 -3.3 18.24 -8.04 18.36 C-9.24 18.39 -10.44 18.43 -11.68 18.46 C-12.93 18.49 -14.17 18.51 -15.46 18.53 C-16.72 18.57 -17.99 18.6 -19.29 18.63 C-22.41 18.72 -25.53 18.79 -28.64 18.84 C-30.66 15.11 -31.12 12.03 -31.46 7.78 C-31.57 6.55 -31.68 5.32 -31.79 4.06 C-31.64 0.84 -31.64 0.84 -30.38 -1.05 C-23.44 -5.49 -6.68 -4.7 0 0 Z " fill="#D27C99" transform="translate(690.64453125,270.15625)"/>
<path d="M0 0 C0.81 -0.02 1.61 -0.04 2.44 -0.05 C4.75 -0.05 4.75 -0.05 8.56 0.31 C10.88 3.79 10.69 4.57 10.19 8.56 C9.7 12.86 9.47 16.99 9.56 21.31 C7.19 22.5 5.74 22.44 3.1 22.45 C2.22 22.45 1.33 22.45 0.42 22.45 C-0.96 22.44 -0.96 22.44 -2.38 22.44 C-3.29 22.44 -4.21 22.45 -5.16 22.45 C-6.05 22.45 -6.93 22.45 -7.84 22.45 C-8.65 22.44 -9.46 22.44 -10.29 22.44 C-14.14 22.21 -17.79 20.53 -21.44 19.31 C-21.52 17.04 -21.58 14.77 -21.62 12.5 C-21.66 11.24 -21.69 9.97 -21.73 8.67 C-21.44 5.31 -21.44 5.31 -20.15 3.44 C-14.35 -0.37 -6.68 0.09 0 0 Z " fill="#D27B99" transform="translate(638.4375,265.6875)"/>
<path d="M0 0 C0.33 0.66 0.66 1.32 1 2 C2.31 2 3.61 2 4.96 2 C35.95 1.98 66.93 1.96 97.92 1.95 C101.73 1.95 105.54 1.95 109.36 1.95 C110.49 1.94 110.49 1.94 111.66 1.94 C123.95 1.94 136.25 1.93 148.55 1.92 C161.16 1.91 173.77 1.91 186.38 1.91 C194.17 1.9 201.96 1.9 209.74 1.89 C215.71 1.89 221.67 1.89 227.63 1.89 C230.09 1.89 232.54 1.88 234.99 1.88 C238.32 1.88 241.66 1.88 245 1.88 C246.47 1.88 246.47 1.88 247.96 1.87 C248.86 1.87 249.75 1.87 250.66 1.88 C251.43 1.88 252.2 1.88 253 1.88 C255 2 255 2 258 3 C258 27.09 258 51.18 258 76 C257.34 76 256.68 76 256 76 C256 52.24 256 28.48 256 4 C171.52 4 87.04 4 0 4 C0.33 30.73 0.66 57.46 1 85 C1.99 85.66 2.98 86.32 4 87 C3.67 87.99 3.34 88.98 3 90 C2.01 89.67 1.02 89.34 0 89 C-1.56 85.87 -1.14 82.54 -1.13 79.11 C-1.13 78.29 -1.13 77.48 -1.13 76.64 C-1.14 73.94 -1.14 71.24 -1.13 68.54 C-1.13 66.66 -1.13 64.79 -1.14 62.92 C-1.14 58.99 -1.14 55.06 -1.13 51.13 C-1.12 46.08 -1.13 41.04 -1.13 36 C-1.14 32.13 -1.14 28.26 -1.13 24.39 C-1.13 22.53 -1.13 20.67 -1.14 18.81 C-1.14 16.21 -1.13 13.62 -1.13 11.02 C-1.13 10.25 -1.13 9.48 -1.14 8.68 C-1.12 5.52 -1.01 3.02 0 0 Z " fill="#C3859B" transform="translate(505,296)"/>
<path d="M0 0 C2.35 3.52 2.58 4.86 2 9 C0.31 11.81 0.31 11.81 -3 14 C-6.37 14.46 -9.64 14.63 -13.04 14.66 C-15.99 14.73 -15.99 14.73 -17.79 16.42 C-18.39 17.2 -18.39 17.2 -19 18 C-20 19 -21 20 -22 21 C-24.48 20.01 -24.48 20.01 -27 19 C-27.08 16.54 -27.14 14.08 -27.19 11.62 C-27.21 10.93 -27.24 10.23 -27.26 9.51 C-27.29 7.48 -27.29 7.48 -27 4 C-23.32 1.55 -20.03 1.32 -15.75 0.88 C-15.01 0.79 -14.27 0.7 -13.51 0.61 C-9 0.11 -4.53 -0.36 0 0 Z " fill="#D27C99" transform="translate(605,266)"/>
<path d="M0 0 C6.62 -0.12 6.62 -0.12 10 1 C13.55 1.27 17.1 1.45 20.65 1.62 C23.69 1.96 25.49 2.33 28 4 C29.43 6.86 28.96 8.13 28.06 11.25 C27.54 12.61 27.54 12.61 27 14 C26.5 13.01 26.5 13.01 26 12 C22.6 11.85 19.21 11.77 15.81 11.69 C14.85 11.65 13.89 11.6 12.9 11.56 C6.98 11.44 6.98 11.44 1.91 14.31 C-0.11 17.16 -1.14 19.63 -2 23 C-4.29 22.08 -5.73 21.35 -7.25 19.38 C-8.15 16.51 -7.97 13.94 -7.87 10.97 C-8.06 8.11 -9.31 6.26 -11 4 C-10.37 4.16 -9.75 4.31 -9.1 4.47 C-8.28 4.67 -7.47 4.86 -6.62 5.06 C-5.41 5.36 -5.41 5.36 -4.16 5.66 C-1.96 6.22 -1.96 6.22 0 5 C0 3.35 0 1.7 0 0 Z " fill="#EDE2E2" transform="translate(688,344)"/>
<path d="M0 0 C7.35 -0.2 13.95 -0.21 21 2 C20.01 2.5 20.01 2.5 19 3 C18.67 3.99 18.34 4.98 18 6 C17.34 6 16.68 6 16 6 C16 6.66 16 7.32 16 8 C15.01 8.5 15.01 8.5 14 9 C13.67 9.99 13.34 10.98 13 12 C10.44 13.19 10.44 13.19 8 14 C8.42 17.5 9.01 20.02 10.62 23.19 C12 26 12 26 11 29 C9.21 29.05 7.42 29.09 5.62 29.12 C4.63 29.15 3.63 29.17 2.6 29.2 C0 29 0 29 -2 27 C-2.4 25.01 -2.74 23.01 -3 21 C-2.34 21 -1.68 21 -1 21 C-1.66 18.36 -2.32 15.72 -3 13 C-2.34 13 -1.68 13 -1 13 C-1.21 11.78 -1.41 10.57 -1.62 9.31 C-2.25 5.63 -1.55 3.39 0 0 Z " fill="#F9F9F9" transform="translate(654,314)"/>
<path d="M0 0 C0.33 0.66 0.66 1.32 1 2 C1.66 1.67 2.32 1.34 3 1 C4.96 0.91 6.92 0.89 8.88 0.9 C10.05 0.91 11.22 0.91 12.42 0.91 C13.64 0.92 14.86 0.93 16.12 0.94 C17.36 0.94 18.59 0.95 19.86 0.95 C22.9 0.96 25.95 0.98 29 1 C30.04 4.74 30.15 8.12 30 12 C27.59 14.41 21.62 13.48 18.38 13.62 C17.39 13.68 16.4 13.73 15.39 13.78 C10.12 14.02 5.16 14.17 0 13 C-1.18 10.63 -1.13 9.13 -1.12 6.5 C-1.13 5.71 -1.13 4.91 -1.13 4.09 C-1 2 -1 2 0 0 Z " fill="#F9F9F9" transform="translate(619,330)"/>
<path d="M0 0 C0.85 -0 1.7 -0.01 2.57 -0.01 C8.85 0.04 8.85 0.04 12.25 2.31 C12.54 4.91 12.54 4.91 12.44 7.94 C12.41 8.94 12.38 9.94 12.36 10.98 C12.32 11.75 12.29 12.52 12.25 13.31 C2.83 14.68 -6.3 13.98 -15.75 13.31 C-17.36 10.1 -16.81 6.88 -16.75 3.31 C-11 0.37 -6.41 -0.12 0 0 Z " fill="#FAFAFA" transform="translate(567.75,329.6875)"/>
<path d="M0 0 C1.04 0.01 2.07 0.02 3.14 0.03 C4.26 0.04 5.39 0.04 6.54 0.05 C7.72 0.07 8.89 0.08 10.1 0.1 C11.88 0.12 11.88 0.12 13.69 0.13 C16.62 0.15 19.55 0.19 22.48 0.23 C22.81 4.19 23.14 8.15 23.48 12.23 C14.24 12.23 5 12.23 -4.52 12.23 C-4.52 0.41 -4.52 0.41 0 0 Z " fill="#F9F9F9" transform="translate(590.52197265625,330.77294921875)"/>
<path d="M0 0 C0.33 2.31 0.66 4.62 1 7 C0.41 7.19 -0.18 7.39 -0.79 7.59 C-1.58 7.85 -2.37 8.11 -3.19 8.38 C-3.96 8.63 -4.74 8.89 -5.54 9.15 C-8.02 9.97 -8.02 9.97 -10.45 11.08 C-13.32 12.12 -15.64 12.3 -18.69 12.31 C-19.64 12.33 -20.59 12.35 -21.57 12.36 C-22.77 12.18 -22.77 12.18 -24 12 C-26.29 8.56 -26.18 7.01 -26 3 C-25.34 3 -24.68 3 -24 3 C-24 2.01 -24 1.02 -24 0 C-17.38 -1 -17.38 -1 -14 -1 C-12.54 -1.2 -11.08 -1.41 -9.62 -1.62 C-5.86 -2.07 -3.41 -1.87 0 0 Z " fill="#F7F6F6" transform="translate(713,316)"/>
<path d="M0 0 C29.04 0 58.08 0 88 0 C87.67 0.99 87.34 1.98 87 3 C58.62 3 30.24 3 1 3 C0.67 2.01 0.34 1.02 0 0 Z " fill="#8D8385" transform="translate(660,383)"/>
<path d="M0 0 C0.33 0 0.66 0 1 0 C1 2.31 1 4.62 1 7 C0.34 7 -0.32 7 -1 7 C-1 7.66 -1 8.32 -1 9 C-67 9 -133 9 -201 9 C-201 8.67 -201 8.34 -201 8 C-200.13 8 -199.25 7.99 -198.35 7.99 C-176.96 7.88 -155.57 7.77 -134.18 7.66 C-123.84 7.61 -113.5 7.55 -103.15 7.5 C-94.12 7.46 -85.1 7.41 -76.07 7.36 C-71.3 7.34 -66.53 7.31 -61.76 7.29 C-37.21 7.21 -37.21 7.21 -12.66 6.54 C-11.7 6.5 -10.73 6.47 -9.74 6.43 C-6.21 6.26 -3.37 6.12 0 5 C0 3.35 0 1.7 0 0 Z " fill="#EEE4E4" transform="translate(778,385)"/>
<path d="M0 0 C2.32 3.81 1.32 6.75 0.53 11 C-0.61 14.01 -1.67 14.98 -4.44 16.56 C-7.4 17.01 -9.01 16.75 -11.75 15.56 C-14.42 12.4 -13.7 9.61 -13.44 5.56 C-14.1 5.23 -14.76 4.9 -15.44 4.56 C-12.1 -0.93 -12.1 -0.93 -9.5 -2.94 C-5.67 -3.87 -3.22 -1.9 0 0 Z " fill="#F6AF62" transform="translate(718.4375,243.4375)"/>
<path d="M0 0 C2.5 1.94 2.5 1.94 4 5 C2.68 14.32 2.68 14.32 0 17 C-1.96 17.17 -1.96 17.17 -4.38 17.19 C-5.17 17.2 -5.96 17.22 -6.77 17.23 C-9 17 -9 17 -12 15 C-12.41 12.29 -12.13 9.76 -12 7 C-12.66 6.67 -13.32 6.34 -14 6 C-6.42 -3.69 -6.42 -3.69 0 0 Z " fill="#F6AF62" transform="translate(654,242)"/>
<path d="M0 0 C3.17 1.72 3.95 2.74 5.19 6.19 C5.41 15.56 5.41 15.56 2.81 19.02 C1.19 20.19 1.19 20.19 -1.69 20.19 C-5.57 18.94 -7.34 17.41 -9.81 14.19 C-9.62 11.88 -9.62 11.88 -8.81 10.19 C-9.47 9.86 -10.13 9.53 -10.81 9.19 C-10.81 6.19 -10.81 6.19 -9.24 4.55 C-3.58 0.24 -3.58 0.24 0 0 Z " fill="#F6AF62" transform="translate(556.8125,239.8125)"/>
<path d="M0 0 C2.65 1.08 2.87 2.25 4 4.81 C5.54 6.52 5.54 6.52 7 7.81 C6.34 8.47 5.68 9.13 5 9.81 C4.43 11.15 3.91 12.5 3.44 13.88 C2.1 17.72 2.1 17.72 1 18.81 C-5.39 19.29 -5.39 19.29 -7.94 17.31 C-8.29 16.82 -8.64 16.32 -9 15.81 C-8.67 15.15 -8.34 14.49 -8 13.81 C-8.66 13.81 -9.32 13.81 -10 13.81 C-10.66 11.83 -11.32 9.85 -12 7.81 C-10.71 6.66 -9.42 5.52 -8.12 4.38 C-7.05 3.42 -7.05 3.42 -5.95 2.44 C-2.72 -0.26 -2.72 -0.26 0 0 Z " fill="#F6AF63" transform="translate(589,240.1875)"/>
<path d="M0 0 C0.99 0.66 1.98 1.32 3 2 C3.4 4.61 3.61 7 3.69 9.62 C3.72 10.39 3.75 11.15 3.79 11.93 C3.88 14.29 3.94 16.64 4 19 C4.02 19.68 4.03 20.36 4.05 21.06 C4.27 32.07 3.67 43.02 3 54 C-4.7 45.56 -2.37 26.78 -2.11 16.01 C-1.98 13.61 -1.52 11.34 -1 9 C-0.96 7.58 -0.96 6.17 -1 4.75 C-1 1 -1 1 0 0 Z " fill="#D7C7CF" transform="translate(547,313)"/>
<path d="M0 0 C2.56 0.88 2.56 0.88 4.44 2.75 C6.13 7.44 5.74 12.05 4.56 16.88 C3.19 18.71 3.19 18.71 1.56 19.88 C-1.98 19.8 -3.92 19.24 -6.81 17.19 C-8.88 14.25 -8.76 12.39 -8.44 8.88 C-9.1 8.54 -9.76 8.22 -10.44 7.88 C-9.45 7.22 -8.46 6.56 -7.44 5.88 C-6.43 4.22 -5.42 2.55 -4.44 0.88 C-2.44 -0.12 -2.44 -0.12 0 0 Z " fill="#F6AF62" transform="translate(524.4375,240.125)"/>
<path d="M0 0 C3.77 1.47 4.86 3.39 6.56 7 C5.88 10.06 5.88 10.06 4.56 13 C4.42 13.91 4.27 14.81 4.12 15.75 C3.56 18 3.56 18 0.56 20 C-2.9 19.65 -4.49 18.97 -7.44 17 C-7.85 14.68 -8.19 12.34 -8.44 10 C-8.77 9.34 -9.1 8.68 -9.44 8 C-9.11 7.34 -8.78 6.68 -8.44 6 C-7.78 6 -7.12 6 -6.44 6 C-6.33 5.38 -6.23 4.76 -6.12 4.12 C-5.07 0.86 -3.34 0 0 0 Z " fill="#F6AF62" transform="translate(744.4375,240)"/>
<path d="M0 0 C1.38 1.29 2.71 2.63 4 4 C4 4.66 4 5.32 4 6 C4.66 6 5.32 6 6 6 C5.89 7.6 5.76 9.21 5.62 10.81 C5.56 11.71 5.49 12.6 5.41 13.52 C5 16 5 16 3 19 C-3.14 19.67 -3.14 19.67 -5.94 17.5 C-6.29 17 -6.64 16.51 -7 16 C-6.67 15.01 -6.34 14.02 -6 13 C-6.66 13 -7.32 13 -8 13 C-8 11.68 -8 10.36 -8 9 C-8.66 8.67 -9.32 8.34 -10 8 C-9 7 -8 6 -7 5 C-6.34 4.3 -5.68 3.6 -5 2.88 C-3 1 -3 1 0 0 Z " fill="#F6AF62" transform="translate(619,240)"/>
<path d="M0 0 C2.5 0.88 2.5 0.88 3.81 3.44 C4.15 4.64 4.15 4.64 4.5 5.88 C5.16 5.88 5.82 5.88 6.5 5.88 C5.84 9.18 5.18 12.47 4.5 15.88 C3.84 15.88 3.18 15.88 2.5 15.88 C2.5 16.54 2.5 17.19 2.5 17.88 C-3.85 18.23 -3.85 18.23 -6.44 16.81 C-8.05 13.86 -7.69 11.17 -7.5 7.88 C-8.16 7.54 -8.82 7.22 -9.5 6.88 C-3.79 -0.19 -3.79 -0.19 0 0 Z " fill="#F6AF62" transform="translate(681.5,241.125)"/>
<path d="M0 0 C1.75 0.45 3.5 0.91 5.25 1.38 C6.22 1.63 7.2 1.89 8.2 2.15 C10.66 2.9 12.76 3.77 15 5 C14.67 5.66 14.34 6.32 14 7 C11.52 6.5 11.52 6.5 9 6 C9.33 7.65 9.66 9.3 10 11 C6.55 12.97 5.18 13.04 1.23 12.1 C-0.12 11.63 -1.47 11.13 -2.81 10.62 C-3.85 10.25 -3.85 10.25 -4.91 9.88 C-6.61 9.26 -8.31 8.63 -10 8 C-10 7.01 -10 6.02 -10 5 C-6.31 3.77 -3.79 4.36 0 5 C0 4.01 0 3.02 0 2 C0 1.34 0 0.68 0 0 Z " fill="#C6ABB6" transform="translate(679,338)"/>
<path d="M0 0 C4.37 1.15 8.03 2.13 11.44 5.19 C13.43 8.77 14.18 11.99 15 16 C8.72 18.17 8.72 18.17 5.69 17.44 C3.35 15.44 2.68 14 2 11 C2.61 8.98 3.27 6.98 4 5 C3.67 4.01 3.34 3.02 3 2 C2.01 1.67 1.02 1.34 0 1 C0 0.67 0 0.34 0 0 Z " fill="#EDE2E2" transform="translate(718,311)"/>
<path d="M0 0 C1.26 0 1.26 0 2.55 0 C3.91 0.01 3.91 0.01 5.3 0.02 C6.23 0.02 7.16 0.02 8.12 0.02 C11.09 0.03 14.07 0.04 17.04 0.05 C19.06 0.06 21.07 0.06 23.09 0.06 C28.03 0.08 32.97 0.09 37.92 0.11 C38.41 1.6 38.41 1.6 38.92 3.11 C24.07 3.11 9.22 3.11 -6.08 3.11 C-6.08 2.45 -6.08 1.79 -6.08 1.11 C-3.8 -0.03 -2.54 -0.01 0 0 Z " fill="#C55885" transform="translate(742.08251953125,400.886474609375)"/>
<path d="M0 0 C3.59 -0.33 5.5 -0.31 8.62 1.6 C11.59 4.6 11.91 6.48 12.44 10.62 C12.6 11.77 12.76 12.92 12.93 14.1 C12.96 15.06 12.98 16.01 13 17 C12.34 17.66 11.68 18.32 11 19 C8.74 18.65 7.05 18.02 5 17 C4.73 14.96 4.73 14.96 4.62 12.38 C4.23 7.24 2.86 4.24 0 0 Z " fill="#D2C0C9" transform="translate(681,268)"/>
<path d="M0 0 C3.29 -0.06 6.58 -0.09 9.88 -0.12 C10.81 -0.14 11.75 -0.16 12.71 -0.18 C13.61 -0.18 14.51 -0.19 15.43 -0.2 C16.26 -0.21 17.08 -0.22 17.94 -0.23 C20 0 20 0 22 2 C22.33 2.66 22.66 3.32 23 4 C23.99 4 24.98 4 26 4 C26.05 6.46 26.09 8.92 26.12 11.38 C26.14 12.07 26.16 12.77 26.18 13.49 C26.19 15.33 26.1 17.17 26 19 C25.34 19.66 24.68 20.32 24 21 C24 20.01 24 19.02 24 18 C23.01 17.67 22.02 17.34 21 17 C21 13.37 21 9.74 21 6 C16.47 4.14 16.47 4.14 12.01 3.59 C10.95 3.53 10.95 3.53 9.87 3.47 C9.15 3.44 8.43 3.41 7.69 3.38 C6.58 3.32 6.58 3.32 5.44 3.26 C3.63 3.16 1.81 3.08 0 3 C0 2.01 0 1.02 0 0 Z " fill="#D7C7CF" transform="translate(627,343)"/>
<path d="M0 0 C5.8 -0.02 11.6 -0.04 17.41 -0.05 C19.38 -0.06 21.36 -0.07 23.33 -0.08 C26.17 -0.09 29 -0.09 31.84 -0.1 C32.72 -0.1 33.61 -0.11 34.52 -0.11 C40.77 -0.11 40.77 -0.11 43 1 C42.67 1.99 42.34 2.98 42 4 C35.38 4.12 35.38 4.12 32 3 C29.71 2.98 27.43 3.03 25.14 3.12 C24.48 3.14 23.82 3.17 23.14 3.19 C21.03 3.27 18.92 3.35 16.81 3.44 C15.38 3.49 13.95 3.54 12.52 3.6 C9.01 3.72 5.51 3.86 2 4 C1.34 2.68 0.68 1.36 0 0 Z " fill="#C7ADB8" transform="translate(612,311)"/>
<path d="M0 0 C3 0.31 3 0.31 6 1 C7.35 3.71 7.21 5.92 7.25 8.94 C7.29 10.53 7.29 10.53 7.33 12.15 C7 15 7 15 5.48 16.88 C4.75 17.43 4.75 17.43 4 18 C1.52 17.01 1.52 17.01 -1 16 C-1.03 13.52 -1.05 11.04 -1.06 8.56 C-1.08 7.5 -1.08 7.5 -1.09 6.42 C-1.1 4.61 -1.05 2.81 -1 1 C-0.67 0.67 -0.34 0.34 0 0 Z " fill="#ECE1E1" transform="translate(579,269)"/>
<path d="M0 0 C2.56 -0.25 2.56 -0.25 5 0 C6 1 6 1 6.1 4.82 C6.09 6.4 6.08 7.98 6.06 9.56 C6.06 10.37 6.05 11.18 6.05 12.01 C6.04 14 6.02 16 6 18 C3.62 18.62 3.62 18.62 1 19 C-1.82 16.18 -1.47 13.99 -1.75 10.06 C-1.85 8.82 -1.95 7.57 -2.05 6.29 C-2 3 -2 3 0 0 Z " fill="#EDE1E2" transform="translate(661,268)"/>
<path d="M0 0 C1.49 0.99 1.49 0.99 3 2 C5.91 2.37 5.91 2.37 9.2 2.41 C10.41 2.45 11.62 2.49 12.86 2.53 C14.76 2.58 14.76 2.58 16.69 2.62 C17.96 2.66 19.24 2.7 20.55 2.74 C23.7 2.84 26.85 2.92 30 3 C30 3.99 30 4.98 30 6 C29.22 6.03 28.44 6.05 27.63 6.08 C24.11 6.19 20.58 6.31 17.06 6.44 C15.83 6.48 14.6 6.52 13.33 6.56 C12.16 6.6 10.99 6.64 9.79 6.68 C8.16 6.74 8.16 6.74 6.5 6.79 C4.06 6.72 4.06 6.72 3 8 C2.77 9.51 2.59 11.04 2.44 12.56 C2.35 13.39 2.27 14.22 2.18 15.07 C2.12 15.7 2.06 16.34 2 17 C1.01 16.67 0.02 16.34 -1 16 C-1.2 11.12 -0.56 7.59 1 3 C0.67 2.01 0.34 1.02 0 0 Z " fill="#EEE3E3" transform="translate(584,325)"/>
<path d="M0 0 C1.14 0.34 1.14 0.34 2.31 0.69 C2.31 4.26 2.06 7.81 1.81 11.38 C1.76 12.08 1.72 12.78 1.67 13.5 C1.55 15.23 1.43 16.96 1.31 18.69 C-1 18.03 -3.31 17.37 -5.69 16.69 C-5.77 14.42 -5.83 12.15 -5.88 9.88 C-5.91 8.61 -5.94 7.35 -5.98 6.04 C-5.69 2.69 -5.69 2.69 -4.34 0.72 C-2.69 -0.31 -2.69 -0.31 0 0 Z " fill="#EADEDF" transform="translate(622.6875,268.3125)"/>
<path d="M0 0 C2.75 2.08 3.81 3.38 4.81 6.69 C4.87 7.45 4.94 8.21 5 9 C3.26 10.74 0.92 10.17 -1.44 10.19 C-2.43 10.2 -3.41 10.22 -4.43 10.23 C-7 10 -7 10 -9 8 C-9.4 6.01 -9.74 4.01 -10 2 C-9.34 2 -8.68 2 -8 2 C-8 1.34 -8 0.68 -8 0 C-5.03 -1.49 -3.17 -0.82 0 0 Z " fill="#F9F9F9" transform="translate(661,333)"/>
<path d="M0 0 C1.65 0 3.3 0 5 0 C5.03 2.15 5.05 4.29 5.06 6.44 C5.07 7.63 5.09 8.83 5.1 10.06 C5 13 5 13 4 14 C4.16 15.15 4.33 16.31 4.5 17.5 C4.66 18.65 4.83 19.81 5 21 C4.67 21.33 4.34 21.66 4 22 C3.86 25.84 3.82 29.32 5 33 C3.68 33 2.36 33 1 33 C0.34 31.68 -0.32 30.36 -1 29 C-0.67 28.67 -0.34 28.34 0 28 C0.09 25.93 0.11 23.85 0.1 21.78 C0.09 20.52 0.09 19.26 0.09 17.96 C0.08 16.62 0.07 15.28 0.06 13.94 C0.06 12.59 0.05 11.25 0.05 9.9 C0.04 6.6 0.02 3.3 0 0 Z " fill="#C4AAB5" transform="translate(648,314)"/>
<path d="M0 0 C0.59 0.3 1.18 0.6 1.79 0.91 C4.46 2.23 6.45 2.32 9.42 2.41 C10.45 2.45 11.47 2.49 12.53 2.53 C13.59 2.56 14.65 2.59 15.75 2.62 C17.37 2.68 17.37 2.68 19.02 2.74 C21.68 2.84 24.34 2.92 27 3 C27 3.66 27 4.32 27 5 C27.66 5.33 28.32 5.66 29 6 C28.33 6.02 27.66 6.04 26.97 6.06 C23.92 6.16 20.86 6.27 17.81 6.38 C16.76 6.41 15.7 6.44 14.62 6.47 C13.08 6.53 13.08 6.53 11.52 6.59 C10.11 6.63 10.11 6.63 8.68 6.68 C5.83 7.02 3.6 7.82 1 9 C0.55 8.53 0.09 8.05 -0.38 7.56 C-1.93 5.91 -1.93 5.91 -4 5 C-2.25 1.12 -2.25 1.12 0 0 Z " fill="#EEE3E3" transform="translate(549,308)"/>
<path d="M0 0 C0.99 0.33 1.98 0.66 3 1 C4.82 1.14 6.65 1.22 8.47 1.28 C9.54 1.32 10.6 1.36 11.7 1.39 C13.94 1.46 16.19 1.54 18.44 1.61 C19.5 1.64 20.57 1.68 21.66 1.72 C23.12 1.76 23.12 1.76 24.62 1.81 C27 2 27 2 29 3 C29 4.32 29 5.64 29 7 C28.01 6.67 27.02 6.34 26 6 C22.88 5.77 19.75 5.81 16.62 5.81 C15.77 5.8 14.92 5.79 14.05 5.78 C9.48 5.76 6.23 6.12 2 8 C1.01 7.67 0.02 7.34 -1 7 C-0.67 4.69 -0.34 2.38 0 0 Z " fill="#EEE3E3" transform="translate(551,325)"/>
<path d="M0 0 C0.33 0.66 0.66 1.32 1 2 C1.99 1.67 2.98 1.34 4 1 C6.46 4.69 6.39 6.63 6 11 C4.88 13 4.88 13 3 14 C-0.65 13.78 -2.38 13.62 -5 11 C-4.66 7.6 -3.05 5.64 -1 3 C-0.67 2.01 -0.34 1.02 0 0 Z " fill="#F8F6F6" transform="translate(725,331)"/>
<path d="M0 0 C0.99 0.5 0.99 0.5 2 1 C4.18 1.09 6.36 1.11 8.54 1.1 C9.84 1.09 11.14 1.09 12.48 1.09 C13.86 1.08 15.24 1.07 16.62 1.06 C18.01 1.06 19.4 1.05 20.79 1.05 C24.19 1.04 27.6 1.02 31 1 C31 2.65 31 4.3 31 6 C21.43 6 11.86 6 2 6 C1.34 4.02 0.68 2.04 0 0 Z " fill="#EEE3E3" transform="translate(618,326)"/>
<path d="M0 0 C0.33 0 0.66 0 1 0 C1.01 1.02 1.01 2.05 1.02 3.1 C1.07 12.72 1.15 22.35 1.24 31.97 C1.28 36.92 1.32 41.87 1.35 46.81 C1.37 51.59 1.41 56.36 1.46 61.13 C1.48 62.95 1.49 64.78 1.5 66.6 C1.51 69.15 1.54 71.7 1.57 74.25 C1.57 75.01 1.56 75.76 1.56 76.55 C1.57 78.86 1.57 78.86 2 82 C2.99 82.66 3.98 83.32 5 84 C4.67 84.99 4.34 85.98 4 87 C3.01 86.67 2.02 86.34 1 86 C-0.57 82.86 -0.13 79.51 -0.11 76.06 C-0.11 75.24 -0.11 74.42 -0.11 73.58 C-0.11 70.86 -0.11 68.15 -0.1 65.43 C-0.1 63.55 -0.09 61.67 -0.09 59.79 C-0.09 54.83 -0.08 49.88 -0.07 44.92 C-0.06 39.87 -0.05 34.82 -0.05 29.76 C-0.04 19.84 -0.02 9.92 0 0 Z " fill="#8C8284" transform="translate(504,299)"/>
<path d="M0 0 C1.19 -0 1.19 -0 2.41 -0.01 C4.5 0.12 4.5 0.12 6.5 1.12 C6.5 2.12 6.5 3.11 6.5 4.12 C7.49 4.45 8.48 4.79 9.5 5.12 C9.5 10.07 9.5 15.02 9.5 20.12 C8.51 20.45 7.52 20.79 6.5 21.12 C6.5 15.85 6.5 10.56 6.5 5.12 C4.54 4.84 2.58 4.55 0.56 4.25 C-2.78 3.76 -2.78 3.76 -5.5 3.12 C-5.83 2.46 -6.16 1.81 -6.5 1.12 C-4.13 -0.06 -2.63 -0.01 0 0 Z " fill="#D7C7CF" transform="translate(574.5,342.875)"/>
<path d="M0 0 C7.92 0 15.84 0 24 0 C24.33 1.32 24.66 2.64 25 4 C17.41 4 9.82 4 2 4 C2 3.01 2 2.02 2 1 C1.34 0.67 0.68 0.34 0 0 Z " fill="#D6C6CE" transform="translate(653,311)"/>
<path d="M0 0 C1.14 0.09 2.28 0.18 3.45 0.27 C6.31 0.62 6.31 0.62 8.31 1.62 C10.18 1.85 12.06 2.03 13.94 2.19 C14.94 2.27 15.94 2.36 16.98 2.44 C17.75 2.5 18.52 2.56 19.31 2.62 C19.31 2.95 19.31 3.29 19.31 3.62 C18.41 3.72 18.41 3.72 17.48 3.81 C16.29 3.93 16.29 3.93 15.06 4.06 C14.27 4.14 13.48 4.22 12.67 4.31 C10.31 4.57 10.31 4.57 8.08 5.22 C7.5 5.36 6.91 5.49 6.31 5.62 C5.98 5.3 5.65 4.96 5.31 4.62 C2.62 4.39 -0.05 4.2 -2.75 4.06 C-3.51 4.02 -4.27 3.98 -5.05 3.93 C-6.93 3.83 -8.81 3.72 -10.69 3.62 C-11.02 2.63 -11.35 1.64 -11.69 0.62 C-7.64 -0.39 -4.15 -0.35 0 0 Z " fill="#C5AAB5" transform="translate(688.6875,311.375)"/>
<path d="M0 0 C3.63 0 7.26 0 11 0 C11 1.32 11 2.64 11 4 C10.34 4 9.68 4 9 4 C9.19 5.11 9.37 6.23 9.56 7.38 C10 11 10 11 9 13 C8.01 12.67 7.02 12.34 6 12 C4.94 9.25 4.94 9.25 4 6 C2.89 2.23 2.89 2.23 0 0 Z " fill="#D6C6CE" transform="translate(678,315)"/>
<path d="M0 0 C0.76 0.21 1.53 0.41 2.31 0.62 C1.11 1.58 1.11 1.58 -0.12 2.56 C-1.96 4.03 -1.96 4.03 -3.69 5.62 C-5.96 5.75 -8.23 5.8 -10.5 5.81 C-11.74 5.83 -12.99 5.84 -14.27 5.86 C-17.41 5.64 -19.08 5.29 -21.69 3.62 C-17.34 2.36 -12.96 2.27 -8.46 2 C-4.91 1.52 -3.61 -0.5 0 0 Z " fill="#D37B99" transform="translate(715.6875,340.375)"/>
<path d="M0 0 C7.26 0 14.52 0 22 0 C21.67 0.99 21.34 1.98 21 3 C14.4 3 7.8 3 1 3 C0.67 2.01 0.34 1.02 0 0 Z " fill="#8C8184" transform="translate(537,383)"/>
<path d="M0 0 C0.33 0.66 0.66 1.32 1 2 C6.28 2 11.56 2 17 2 C17.33 2.99 17.66 3.98 18 5 C16.41 5.09 16.41 5.09 14.79 5.18 C13.4 5.27 12.01 5.35 10.62 5.44 C9.93 5.48 9.23 5.52 8.51 5.56 C4.63 5.74 4.63 5.74 1 7 C0.67 4.69 0.34 2.38 0 0 Z " fill="#EEE3E3" transform="translate(551,341)"/>
<path d="M0 0 C3.47 1.98 3.47 1.98 7 4 C6.16 4.34 6.16 4.34 5.31 4.69 C2.37 6.36 0.32 8.55 -2 11 C-5 9 -5 9 -5.69 5.88 C-5.84 4.45 -5.84 4.45 -6 3 C-4.02 3.66 -2.04 4.32 0 5 C0 3.35 0 1.7 0 0 Z " fill="#EEE3E3" transform="translate(618,356)"/>
<path d="M0 0 C0.33 2.31 0.66 4.62 1 7 C-0.65 7.33 -2.3 7.66 -4 8 C-4 6.02 -4 4.04 -4 2 C-7.3 1.67 -10.6 1.34 -14 1 C-14 0.34 -14 -0.32 -14 -1 C-4.59 -2.52 -4.59 -2.52 0 0 Z " fill="#EFE6E6" transform="translate(713,316)"/>
<path d="M0 0 C0.66 0.33 1.32 0.66 2 1 C1.89 3.73 1.76 6.46 1.62 9.19 C1.59 9.96 1.56 10.73 1.53 11.52 C1.31 15.74 0.9 19.14 -1 23 C-2.9 21.4 -3.9 20.47 -4.43 18.01 C-4.46 17.27 -4.48 16.53 -4.51 15.77 C-4.55 14.97 -4.58 14.16 -4.62 13.34 C-4.64 12.5 -4.66 11.67 -4.69 10.81 C-4.72 9.97 -4.76 9.12 -4.79 8.25 C-4.87 6.17 -4.94 4.08 -5 2 C-4.34 2 -3.68 2 -3 2 C-3 7.28 -3 12.56 -3 18 C-2.34 17.67 -1.68 17.34 -1 17 C-1.01 15.86 -1.02 14.71 -1.04 13.54 C-1.04 12.04 -1.05 10.55 -1.06 9.06 C-1.07 8.31 -1.08 7.55 -1.09 6.78 C-1.1 4.85 -1.05 2.92 -1 1 C-0.67 0.67 -0.34 0.34 0 0 Z " fill="#EEE4E4" transform="translate(584,346)"/>
<path d="M0 0 C0.33 0.66 0.66 1.32 1 2 C3.31 2 5.62 2 8 2 C8.33 2.99 8.66 3.98 9 5 C7.4 5.17 5.79 5.33 4.19 5.5 C3.29 5.59 2.4 5.69 1.48 5.78 C-1 6 -1 6 -4 6 C-4.66 4.68 -5.32 3.36 -6 2 C-4.02 1.34 -2.04 0.68 0 0 Z " fill="#C4AAB5" transform="translate(618,341)"/>
<path d="M0 0 C0.66 0.33 1.32 0.66 2 1 C2 4.96 2 8.92 2 13 C1.24 12.36 0.47 11.72 -0.31 11.06 C-2.88 8.86 -2.88 8.86 -6 8 C-5 5 -5 5 -2 3 C-2.33 2.34 -2.66 1.68 -3 1 C-2.01 0.67 -1.02 0.34 0 0 Z " fill="#C4AAB5" transform="translate(718,339)"/>
<path d="M0 0 C1.65 0 3.3 0 5 0 C5.33 0.66 5.66 1.32 6 2 C3.69 5.04 1.73 7.48 -1.38 9.69 C-4.58 10.07 -5.24 9.44 -7.81 7.62 C-8.89 6.77 -9.96 5.9 -11 5 C-7.84 3.42 -5.29 5.06 -2 6 C-1.34 5.67 -0.68 5.34 0 5 C0 3.35 0 1.7 0 0 Z " fill="#D7C7CF" transform="translate(688,344)"/>
<path d="M0 0 C0.81 0.29 1.62 0.58 2.46 0.88 C3.28 1.17 4.1 1.45 4.94 1.75 C5.56 1.98 6.19 2.21 6.84 2.44 C7.17 4.75 7.5 7.06 7.84 9.44 C7.18 9.11 6.52 8.78 5.84 8.44 C5.84 7.78 5.84 7.12 5.84 6.44 C2.87 6.44 -0.1 6.44 -3.16 6.44 C-3.49 4.46 -3.82 2.48 -4.16 0.44 C-2.16 -0.56 -2.16 -0.56 0 0 Z " fill="#EEE3E3" transform="translate(655.1640625,326.55859375)"/>
<path d="M0 0 C1.65 0 3.3 0 5 0 C5 4.29 5 8.58 5 13 C4.01 13.33 3.02 13.66 2 14 C0.65 11.3 0.66 8.88 0.44 5.88 C0.35 4.78 0.27 3.68 0.18 2.55 C0.12 1.71 0.06 0.87 0 0 Z " fill="#D7C8CF" transform="translate(648,314)"/>
<path d="M0 0 C-0.33 1.32 -0.66 2.64 -1 4 C-1.66 4 -2.32 4 -3 4 C-2.52 8.65 -2.52 8.65 -1 13 C-2.65 12.67 -4.3 12.34 -6 12 C-6.23 8.97 -6.35 6.03 -6 3 C-3.96 0.75 -3.04 0 0 0 Z " fill="#D17897" transform="translate(684,326)"/>
<path d="M0 0 C2.31 0 4.62 0 7 0 C7 1.65 7 3.3 7 5 C6.34 5 5.68 5 5 5 C4.67 5.99 4.34 6.98 4 8 C2.35 6.68 0.7 5.36 -1 4 C-0.67 2.68 -0.34 1.36 0 0 Z " fill="#893252" transform="translate(483,402)"/>
<path d="M0 0 C0.33 0.66 0.66 1.32 1 2 C1.99 1.67 2.98 1.34 4 1 C6.46 4.69 6.39 6.63 6 11 C4.75 13 4.75 13 3 14 C0.81 13.69 0.81 13.69 -1 13 C0.24 12.38 0.24 12.38 1.5 11.75 C2.33 11.17 3.15 10.6 4 10 C4 8.68 4 7.36 4 6 C2.68 6 1.36 6 0 6 C0 4.02 0 2.04 0 0 Z " fill="#EEE3E3" transform="translate(725,331)"/>
<path d="M0 0 C0.99 0.33 1.98 0.66 3 1 C4.19 3.56 4.19 3.56 5 6 C4.34 6.66 3.68 7.32 3 8 C1.68 7.34 0.36 6.68 -1 6 C-1 5.34 -1 4.68 -1 4 C-1.66 3.67 -2.32 3.34 -3 3 C-2.01 2.67 -1.02 2.34 0 2 C0 1.34 0 0.68 0 0 Z " fill="#C4A9B4" transform="translate(667,324)"/>
<path d="M0 0 C0.66 0.33 1.32 0.66 2 1 C1.67 1.99 1.34 2.98 1 4 C-5.4 4.37 -5.4 4.37 -8.44 2.5 C-8.95 2 -9.47 1.51 -10 1 C-6.5 -0.17 -3.67 -0.13 0 0 Z " fill="#C3A9B4" transform="translate(653,311)"/>
<path d="M0 0 C3.63 0 7.26 0 11 0 C10.67 0.99 10.34 1.98 10 3 C7.03 3 4.06 3 1 3 C0.67 2.01 0.34 1.02 0 0 Z " fill="#8A7E81" transform="translate(644,383)"/>
<path d="M0 0 C6.35 -0.49 6.35 -0.49 9.31 1.75 C10.84 3.78 12 5.67 13 8 C11.19 7.81 11.19 7.81 9 7 C7.25 4.44 7.25 4.44 6 2 C1.87 2.57 1.87 2.57 -2 4 C-1.34 2.68 -0.68 1.36 0 0 Z " fill="#ECE1E1" transform="translate(677,240)"/>
<path d="M0 0 C0.33 0.66 0.66 1.32 1 2 C1.66 2 2.32 2 3 2 C3.33 4.31 3.66 6.62 4 9 C3.01 9.33 2.02 9.66 1 10 C0.34 9.67 -0.32 9.34 -1 9 C-0.67 6.03 -0.34 3.06 0 0 Z " fill="#CDB8C1" transform="translate(649,326)"/>
<path d="" fill="#EEE3E3" transform="translate(0,0)"/>
<path d="" fill="#FAFAFA" transform="translate(0,0)"/>
</svg>
