<?xml version="1.0" encoding="UTF-8"?>
<!-- Generator: visioncortex VTracer 0.6.3 -->
<svg version="1.1" xmlns="http://www.w3.org/2000/svg" width="1280" height="640">
<path d="M0 0 C0.72 -0.01 1.44 -0.01 2.18 -0.02 C5.98 -0.04 9.79 -0.06 13.59 -0.08 C16.72 -0.09 19.85 -0.12 22.97 -0.16 C26.78 -0.21 30.58 -0.23 34.38 -0.24 C35.82 -0.25 37.26 -0.26 38.69 -0.29 C46.72 -0.41 52.91 -0.09 59.89 4.1 C62.94 5.87 65.75 6.31 69.23 6.9 C75.41 7.96 75.41 7.96 78.41 9.8 C81.54 11.64 84.06 11.85 87.66 12.21 C95.52 13.21 102.73 14.85 107.91 21.27 C108.9 22.76 108.9 22.76 109.91 24.27 C112.25 25.43 112.25 25.43 114.91 26.34 C119.71 28.07 119.71 28.07 121.91 30.27 C122.91 29.84 122.91 29.84 123.93 29.4 C132.76 25.84 139.99 25.23 149.23 27.52 C152.9 28.33 153.74 28.34 157.41 26.9 C160.72 23.43 161 20.93 161.91 16.27 C162.57 15.94 163.23 15.61 163.91 15.27 C162.92 14.28 162.92 14.28 161.91 13.27 C167.85 13.27 173.79 13.27 179.91 13.27 C179.91 13.93 179.91 14.59 179.91 15.27 C182.83 15.52 185.75 15.75 188.66 15.96 C189.49 16.03 190.31 16.11 191.16 16.18 C195.96 16.51 198.17 16.52 201.91 13.27 C210.47 11.78 219.18 13.67 227.54 15.46 C228.98 15.75 228.98 15.75 230.45 16.05 C234.7 17.04 237.3 17.71 240.55 20.71 C242.32 24.04 242.21 26.56 241.91 30.27 C246.96 32.49 249.8 32.26 254.91 30.27 C255.57 29.76 256.23 29.24 256.91 28.71 C260.91 25.84 265.43 26.11 270.1 26.84 C273.74 27.25 275.01 27.33 277.91 25.27 C277.91 25.93 277.91 26.59 277.91 27.27 C278.57 26.94 279.23 26.61 279.91 26.27 C279.87 25.66 279.82 25.04 279.77 24.41 C279.48 17.83 279.48 17.83 281.48 15.27 C288.85 12.25 297.1 13.18 304.91 13.27 C304.91 13.93 304.91 14.59 304.91 15.27 C305.48 15.25 306.05 15.23 306.64 15.2 C311.72 15.08 316.23 15.07 320.91 17.27 C321.92 19.15 321.92 19.15 322.79 21.34 C323.59 23.43 323.59 23.43 324.91 25.27 C326.77 25.97 326.77 25.97 328.93 26.02 C329.74 26.08 330.54 26.13 331.37 26.19 C335.51 26.33 339.63 26.34 343.77 26.27 C345.63 26.25 347.48 26.23 349.34 26.21 C352.23 26.18 355.12 26.15 358.01 26.1 C360.83 26.06 363.64 26.04 366.46 26.02 C367.32 26 368.18 25.98 369.06 25.96 C374.12 25.94 377.5 26.51 381.91 29.27 C382.24 29.6 382.57 29.93 382.91 30.27 C386.54 29.99 389.23 29.7 392.34 27.74 C397.81 25.5 403.13 25.92 408.98 26.02 C410.15 26.03 411.32 26.03 412.53 26.04 C417.48 26.08 422.06 26.26 426.91 27.27 C430.3 27.27 433.67 27.15 437.05 27.02 C438.47 27.14 438.47 27.14 439.91 27.27 C442.41 31.02 442.45 32.83 441.91 37.27 C439.37 40.43 437.77 41.99 433.91 43.27 C432.2 44.89 430.54 46.57 428.91 48.27 C427.77 49.39 427.77 49.39 426.6 50.52 C425.71 51.43 424.83 52.34 423.91 53.27 C422.96 54.21 422.96 54.21 422 55.17 C416.46 60.93 413.55 66.77 410.91 74.27 C410.25 74.27 409.59 74.27 408.91 74.27 C408.82 74.95 408.72 75.62 408.62 76.32 C407.73 81.64 407.15 84.68 402.91 88.27 C402.5 89.22 402.09 90.17 401.66 91.15 C398.04 97.63 391.62 100.67 384.91 103.27 C384.58 103.6 384.25 103.93 383.91 104.27 C380.44 104.56 376.96 104.51 373.48 104.52 C372.52 104.54 371.55 104.56 370.56 104.59 C364.63 104.62 359.69 103.87 354.06 101.98 C351.63 101.18 349.26 100.82 346.73 100.52 C341.24 99.49 338.12 96.76 334.91 92.27 C333.79 89.71 333.79 89.71 333.91 87.27 C334.85 85.24 335.85 83.24 336.91 81.27 C336.91 80.28 336.91 79.29 336.91 78.27 C343.93 75.18 351.28 74.8 358.79 76.02 C363.14 76.54 367.54 76.35 371.91 76.27 C371.91 74.29 371.91 72.31 371.91 70.27 C368.49 70.68 365.99 71.23 362.91 72.84 C359.63 74.41 357.51 74.53 353.91 74.27 C353.58 72.62 353.25 70.97 352.91 69.27 C344.96 68.8 339.8 69.19 332.91 73.27 C332.25 73.27 331.59 73.27 330.91 73.27 C330.91 72.61 330.91 71.95 330.91 71.27 C330.32 71.3 329.73 71.32 329.12 71.34 C324.42 71.45 321.29 71.05 316.91 69.27 C313.03 69.58 311.18 70.09 307.91 72.27 C305.79 72.57 305.79 72.57 303.48 72.59 C302.71 72.6 301.95 72.62 301.17 72.64 C298.91 72.27 298.91 72.27 296.95 70.77 C294.41 68.9 292.97 68.9 289.85 68.96 C288.99 68.96 288.14 68.97 287.25 68.97 C284.65 69.13 284.65 69.13 281.91 71.27 C279.98 71.94 279.98 71.94 277.91 72.46 C277.23 72.64 276.55 72.82 275.85 73 C273.15 73.38 271.31 72.47 268.91 71.27 C264.75 70.94 262.12 71.19 258.23 72.77 C248.95 76.49 239.77 74.01 230.65 71.05 C226.8 70.25 224.14 70.42 220.31 70.97 C216.08 71.51 211.85 71.46 207.6 71.46 C206.72 71.47 205.84 71.49 204.94 71.5 C204.09 71.5 203.24 71.5 202.36 71.5 C201.6 71.51 200.84 71.51 200.06 71.52 C197.91 71.27 197.91 71.27 195.87 70.24 C191.91 68.28 186.51 70.16 182.29 70.96 C178.91 71.27 178.91 71.27 176.2 70.35 C173.11 69.34 170.27 68.94 167.05 68.59 C161.95 67.97 158.15 67.48 154.39 63.81 C151.65 59.5 149.76 55.02 147.91 50.27 C145.27 49.94 142.63 49.61 139.91 49.27 C138.92 52.24 137.93 55.21 136.91 58.27 C137.57 58.27 138.23 58.27 138.91 58.27 C139.28 65.63 139.28 65.63 137.7 68.4 C135.91 70.27 135.91 70.27 133.68 70.64 C132.83 70.57 131.97 70.51 131.08 70.45 C130.12 70.39 129.17 70.33 128.18 70.27 C127.16 70.19 126.15 70.11 125.1 70.02 C123.02 69.9 120.93 69.77 118.84 69.64 C117.83 69.58 116.81 69.51 115.77 69.44 C112.08 69.22 108.42 69.12 104.73 69.09 C103.68 69.07 102.64 69.06 101.56 69.04 C98.93 69.09 98.93 69.09 96.95 70.38 C93.84 71.74 91.69 70.73 88.48 69.84 C84.22 68.66 81.17 67.85 76.91 69.27 C76.13 70.06 75.35 70.84 74.54 71.65 C71.42 74.77 68.99 75.71 64.91 77.27 C64.58 77.6 64.25 77.93 63.91 78.27 C55.24 80.01 45.25 81.98 37.18 77.26 C33.71 75.75 30.08 75.61 26.35 75.27 C20.25 74.68 14.34 73.91 8.37 72.45 C5.63 72.25 3.65 72.95 1.05 73.76 C-11.75 76.83 -26.87 75.12 -39.27 71.27 C-40.16 71.01 -41.05 70.74 -41.97 70.47 C-48.19 68.31 -52.68 65 -56.09 59.27 C-56.84 55.71 -56.97 52.82 -56.09 49.27 C-53.84 46.4 -53.84 46.4 -51.09 44.27 C-50.48 43.6 -49.88 42.92 -49.26 42.22 C-44.72 38.16 -37.87 38.24 -32 38.31 C-27.46 38.64 -24.13 39.19 -20.09 41.27 C-17.8 41.84 -15.52 42.27 -13.21 42.71 C-11.09 43.27 -11.09 43.27 -8.09 45.27 C-5.79 45.3 -5.79 45.3 -3.4 44.9 C-2.59 44.79 -1.78 44.68 -0.95 44.56 C-0.33 44.47 0.28 44.37 0.91 44.27 C1.16 43.47 1.41 42.66 1.66 41.84 C2.91 39.27 2.91 39.27 5.04 38.46 C5.66 38.4 6.28 38.34 6.91 38.27 C6.91 37.61 6.91 36.95 6.91 36.27 C5.8 36.31 4.68 36.35 3.52 36.38 C-1.4 36.38 -6.03 35.53 -10.84 34.52 C-11.71 34.34 -12.59 34.16 -13.49 33.97 C-30.74 30.29 -30.74 30.29 -35.77 25.96 C-38.07 21.26 -38.44 17.82 -37.27 12.71 C-34.93 7.83 -29.8 5.48 -25.09 3.27 C-24.43 3.27 -23.77 3.27 -23.09 3.27 C-23.09 2.61 -23.09 1.95 -23.09 1.27 C-15.41 0.06 -7.75 0.05 0 0 Z M37.91 42.27 C36.62 43.71 36.62 43.71 35.29 45.52 C34.82 46.13 34.36 46.73 33.88 47.35 C32.72 49.24 32.72 49.24 33.14 51.43 C33.79 53.47 33.79 53.47 35.98 54.52 C36.62 54.77 37.26 55.02 37.91 55.27 C39.58 52.6 40.91 50.27 41.91 47.27 C40.61 44.58 40.61 44.58 38.91 42.27 C38.58 42.27 38.25 42.27 37.91 42.27 Z M190.91 42.27 C189.56 43.4 189.56 43.4 189.85 46.34 C189.87 47.31 189.89 48.27 189.91 49.27 C190.9 49.77 190.9 49.77 191.91 50.27 C192.57 47.96 193.23 45.65 193.91 43.27 C192.92 42.94 191.93 42.61 190.91 42.27 Z M101.91 44.27 C100.61 47.27 100.61 47.27 99.91 50.27 C101.4 51.26 101.4 51.26 102.91 52.27 C105.59 51.47 105.59 51.47 107.91 50.27 C108.24 47.96 108.57 45.65 108.91 43.27 C105.28 43.21 105.28 43.21 101.91 44.27 Z " fill="#FB86BF" transform="translate(445.0859375,330.7265625)"/>
<path d="M0 0 C3.51 0.41 7.01 0.77 10.53 1.07 C15.28 1.56 18.8 2.55 23 5 C23.33 4.01 23.66 3.02 24 2 C29.71 0.09 35.01 -0.31 41 -0.25 C41.76 -0.26 42.51 -0.27 43.29 -0.27 C47.15 -0.26 50.56 0.05 54.29 1.07 C57.77 1.94 59.13 2.14 62.44 1.12 C67.21 -0.01 71.74 -0.23 76.62 -0.25 C77.33 -0.26 78.03 -0.27 78.76 -0.28 C84.6 -0.25 90.42 0.35 95.44 3.56 C99.13 5.63 102.83 5.74 107 6 C107 4.68 107 3.36 107 2 C107 1.67 107 1.34 107 1 C112.64 -0.18 118.2 -0.22 123.94 -0.25 C124.9 -0.27 125.86 -0.29 126.86 -0.31 C132.75 -0.34 136.77 0.29 142 3 C145.91 4.27 147.93 3.69 151.75 2.41 C156.75 1.49 161.98 2.44 167 3 C167.33 3.99 167.66 4.98 168 6 C173.44 6.5 173.44 6.5 179 7 C179.33 6.34 179.66 5.68 180 5 C180 5.66 180 6.32 180 7 C180.55 6.65 181.09 6.3 181.65 5.94 C186.96 2.74 191.68 0.55 198 1 C200.02 1.96 202.02 2.97 204 4 C207.35 4.54 210.7 4.94 214.07 5.28 C217 6 217 6 218.93 7.85 C220 10 220 10 219.44 13.44 C218 16.99 216.5 19.13 214 22 C213.3 23.05 212.6 24.1 211.88 25.19 C210 28 210 28 208 30 C207.71 30.99 207.42 31.98 207.12 33 C206 36 206 36 204.09 36.93 C201.49 38.26 200.78 39.6 199.38 42.12 C198.15 44.32 198.15 44.32 197 46 C196.34 46 195.68 46 195 46 C194.73 46.93 194.46 47.86 194.19 48.81 C192.49 53.38 190.83 54.59 186.47 56.77 C181.3 58.58 176.77 57.69 171.5 56.69 C170.58 56.53 169.66 56.37 168.72 56.21 C166.48 55.83 164.24 55.42 162 55 C162 54.67 162 54.34 162 54 C159.69 53.67 157.38 53.34 155 53 C154.01 50.52 154.01 50.52 153 48 C153.96 47.75 153.96 47.75 154.94 47.5 C157.16 46.22 157.16 46.22 157.49 44.09 C157.73 42.06 157.87 40.03 158 38 C157.34 37.67 156.68 37.34 156 37 C155.67 37.99 155.34 38.98 155 40 C152.69 40 150.38 40 148 40 C147.67 40.66 147.34 41.32 147 42 C146.01 42.33 145.02 42.66 144 43 C143.3 44.98 143.3 44.98 143 47.31 C142.31 50.9 141.72 53.39 139 56 C131.07 58.64 118.97 56.25 111 54 C109.05 52.41 108.12 51.25 107 49 C106.96 47 106.96 45 107 43 C106.01 43 105.02 43 104 43 C103.79 43.66 103.59 44.32 103.38 45 C102.17 47.63 100.92 49.86 99.31 52.25 C98.85 52.94 98.4 53.62 97.93 54.33 C95.05 56.83 92.77 56.83 89 57 C86.15 56.69 83.37 56.13 80.56 55.56 C72.66 54.13 64.96 53.72 56.94 53.75 C55.36 53.75 55.36 53.75 53.75 53.76 C48.71 53.62 48.71 53.62 44 55 C42.55 55.09 41.1 55.12 39.64 55.11 C38.29 55.11 38.29 55.11 36.91 55.11 C35.94 55.11 34.96 55.1 33.96 55.1 C32.96 55.1 31.97 55.09 30.94 55.09 C27.75 55.09 24.56 55.08 21.38 55.06 C19.22 55.06 17.06 55.05 14.9 55.05 C9.6 55.04 4.3 55.02 -1 55 C-1 54.67 -1 54.34 -1 54 C1.97 54 4.94 54 8 54 C7.67 53.67 7.34 53.34 7 53 C4.71 53.06 2.41 53.2 0.12 53.38 C-1.13 53.47 -2.39 53.56 -3.68 53.65 C-7 53.88 -7 53.88 -10 55 C-29.97 55.93 -29.97 55.93 -38 53 C-40.27 49.6 -40.24 48.44 -40.2 44.46 C-40.19 43.38 -40.18 42.31 -40.18 41.21 C-40.15 39.53 -40.15 39.53 -40.12 37.81 C-40.12 36.68 -40.11 35.55 -40.1 34.38 C-40.07 31.59 -40.04 28.79 -40 26 C-40.66 26.33 -41.32 26.66 -42 27 C-41.73 25.97 -41.46 24.94 -41.19 23.88 C-39.87 18.68 -38.84 13.43 -37.78 8.17 C-37.11 5.45 -36.29 3.45 -35 1 C-31.42 0.94 -27.83 0.91 -24.25 0.88 C-23.23 0.86 -22.22 0.84 -21.17 0.82 C-20.19 0.82 -19.21 0.81 -18.2 0.8 C-17.3 0.79 -16.4 0.78 -15.47 0.77 C-12.86 1.01 -11.24 1.68 -9 3 C-9.5 1.51 -9.5 1.51 -10 0 C-2.25 -1.12 -2.25 -1.12 0 0 Z M45 50 C46 53 46 53 46 53 Z M31 51 C30.67 51.66 30.34 52.32 30 53 C30.99 52.67 31.98 52.34 33 52 C32.34 51.67 31.68 51.34 31 51 Z M-21 51 C-21.99 51.66 -22.98 52.32 -24 53 C-22.68 53 -21.36 53 -20 53 C-20.33 52.34 -20.66 51.68 -21 51 Z M124 52 C125 54 125 54 125 54 Z M13 53 C13 53.33 13 53.66 13 54 C18.28 54 23.56 54 29 54 C29 53.67 29 53.34 29 53 C23.72 53 18.44 53 13 53 Z M82 52 C80.02 52.33 78.04 52.66 76 53 C76 53.33 76 53.66 76 54 C78.31 54 80.62 54 83 54 C82.67 53.34 82.34 52.68 82 52 Z M116 53 C120 54 120 54 120 54 Z " fill="#FA491D" transform="translate(563,280)"/>
<path d="M0 0 C3.04 -0.11 6.08 -0.19 9.12 -0.25 C9.98 -0.28 10.84 -0.32 11.72 -0.35 C17.45 -0.44 20.35 0.38 25 4 C27.32 4.89 27.32 4.89 29.56 5.44 C33.83 6.76 36.1 8.52 39 12 C39.76 12.89 40.53 13.77 41.31 14.69 C43 17 43 17 43 19 C46.4 18.9 46.4 18.9 50 18 C51.68 15.64 51.68 15.64 53 13 C54.65 11.98 56.32 10.97 58 10 C58.33 9.01 58.66 8.02 59 7 C61.12 6 61.12 6 64 5 C65.27 4.47 66.55 3.93 67.81 3.38 C68.86 2.92 69.92 2.47 71 2 C71 1.34 71 0.68 71 0 C79.25 0 87.5 0 96 0 C96.99 2.47 96.99 2.47 98 5 C98.59 5.96 98.59 5.96 99.19 6.94 C100.4 10.02 99.96 11.86 99 15 C95.84 18.88 92.59 21.06 88 23 C87.34 23 86.68 23 86 23 C85.5 25.47 85.5 25.47 85 28 C82.03 28.33 79.06 28.66 76 29 C76.71 29.02 77.41 29.04 78.14 29.06 C81.34 29.16 84.55 29.27 87.75 29.38 C89.42 29.42 89.42 29.42 91.12 29.47 C92.19 29.51 93.26 29.55 94.36 29.59 C95.34 29.62 96.33 29.65 97.34 29.68 C100.08 30.01 101.73 30.46 104 32 C104.58 33.16 105.15 34.31 105.75 35.5 C107.2 38.29 107.2 38.29 109.89 39.73 C111.3 39.99 112.7 40.25 114.11 40.5 C117.87 41.5 119.23 44.69 121.09 47.85 C122.08 49.56 123.04 51.28 124 53 C125.66 54.66 127.91 54.44 130.19 54.75 C135.58 55.66 138.22 57.11 142 61 C138.98 68.63 138.98 68.63 136 71 C133.52 71.42 133.52 71.42 130.6 71.48 C129.54 71.51 128.49 71.54 127.4 71.57 C126.3 71.59 125.2 71.61 124.06 71.62 C121.89 71.68 119.71 71.73 117.54 71.79 C116.57 71.81 115.6 71.82 114.61 71.84 C112.11 71.9 112.11 71.9 110.2 72.5 C107.5 73.11 105.02 73.14 102.25 73.16 C101.08 73.17 99.9 73.18 98.7 73.19 C96.77 73.2 96.77 73.2 94.81 73.21 C93.44 73.22 92.07 73.23 90.7 73.24 C86.21 73.27 81.72 73.29 77.23 73.31 C76.47 73.31 75.7 73.32 74.91 73.32 C67.7 73.35 60.49 73.38 53.27 73.39 C44.06 73.41 34.84 73.46 25.62 73.53 C19.13 73.57 12.65 73.6 6.16 73.61 C2.29 73.61 -1.58 73.63 -5.45 73.66 C-9.1 73.7 -12.74 73.71 -16.39 73.7 C-18.35 73.7 -20.32 73.73 -22.29 73.76 C-31.96 73.68 -31.96 73.68 -36.35 69.96 C-37.66 68.49 -37.66 68.49 -39 67 C-38.01 66.5 -38.01 66.5 -37 66 C-37.08 65.07 -37.16 64.14 -37.25 63.19 C-37 60 -37 60 -35.38 58.38 C-32.48 56.7 -30.05 56.28 -26.75 55.81 C-25.67 55.65 -24.59 55.5 -23.48 55.33 C-22.66 55.22 -21.84 55.11 -21 55 C-20.99 54.41 -20.97 53.82 -20.96 53.21 C-20.7 48.87 -20.42 46.55 -17.75 43 C-15.01 41.01 -13.34 40.29 -10 40 C-10 39.34 -10 38.68 -10 38 C-9.01 38 -8.02 38 -7 38 C-6.9 37.4 -6.79 36.8 -6.69 36.19 C-5.86 33.56 -5.19 32.67 -3 31 C-0.15 30.52 -0.15 30.52 3.06 30.38 C7.18 30.28 7.18 30.28 11 29 C10.13 28.77 9.27 28.55 8.38 28.31 C4.48 26.8 2.11 24.78 -1 22 C-1.93 21.42 -2.86 20.84 -3.81 20.25 C-6.65 17.34 -7.02 15.17 -7.28 11.18 C-6.83 7.64 -4.67 6.17 -2 4 C-0.83 1.94 -0.83 1.94 0 0 Z " fill="#FA491D" transform="translate(600,204)"/>
<path d="M0 0 C6.21 0.17 13.01 1.63 17.88 5.69 C18.58 6.45 19.28 7.21 20 8 C16.98 15.63 16.98 15.63 14 18 C11.52 18.42 11.52 18.42 8.6 18.48 C7.54 18.51 6.49 18.54 5.4 18.57 C3.75 18.6 3.75 18.6 2.06 18.62 C-0.11 18.68 -2.29 18.73 -4.46 18.79 C-5.43 18.81 -6.4 18.82 -7.39 18.84 C-9.89 18.9 -9.89 18.9 -11.8 19.5 C-14.5 20.11 -16.98 20.14 -19.75 20.16 C-20.92 20.17 -22.1 20.18 -23.3 20.19 C-25.23 20.2 -25.23 20.2 -27.19 20.21 C-28.56 20.22 -29.93 20.23 -31.3 20.24 C-35.79 20.27 -40.28 20.29 -44.77 20.31 C-45.53 20.31 -46.3 20.32 -47.09 20.32 C-54.3 20.35 -61.51 20.38 -68.73 20.39 C-77.94 20.41 -87.16 20.46 -96.38 20.53 C-102.87 20.57 -109.35 20.6 -115.84 20.61 C-119.71 20.61 -123.58 20.63 -127.45 20.66 C-131.1 20.7 -134.74 20.71 -138.39 20.7 C-140.35 20.7 -142.32 20.73 -144.29 20.76 C-153.96 20.68 -153.96 20.68 -158.35 16.96 C-159.22 15.98 -160.1 15.01 -161 14 C-160.34 13.67 -159.68 13.34 -159 13 C-159.08 12.07 -159.16 11.14 -159.25 10.19 C-159 7 -159 7 -157.39 5.42 C-154.48 3.69 -151.79 2.92 -148.5 2.12 C-147.38 1.84 -146.25 1.55 -145.09 1.26 C-142 1 -142 1 -140.15 2.46 C-137.42 4.41 -135.84 4.38 -132.5 4.39 C-131.39 4.4 -130.27 4.41 -129.12 4.42 C-127.29 4.41 -127.29 4.41 -125.42 4.4 C-124.13 4.41 -122.84 4.42 -121.51 4.42 C-117.97 4.44 -114.44 4.44 -110.9 4.44 C-107.95 4.43 -105 4.44 -102.05 4.44 C-95.08 4.46 -88.11 4.46 -81.15 4.45 C-73.97 4.43 -66.78 4.45 -59.6 4.48 C-53.43 4.5 -47.26 4.5 -41.09 4.5 C-37.41 4.49 -33.72 4.5 -30.04 4.51 C-25.93 4.53 -21.82 4.52 -17.71 4.5 C-16.49 4.51 -15.27 4.52 -14.02 4.53 C-7.6 4.59 -7.6 4.59 -1.91 1.96 C-1.28 1.32 -0.65 0.67 0 0 Z " fill="#F9BC39" transform="translate(722,257)"/>
<path d="M0 0 C1.6 -0.08 3.21 -0.14 4.81 -0.19 C6.15 -0.24 6.15 -0.24 7.52 -0.29 C10 0 10 0 11.68 1.02 C13.7 4.05 14.42 7.38 15.25 10.88 C15.44 11.58 15.62 12.29 15.81 13.02 C17.53 20.02 16.33 23.77 13 30 C12.34 30 11.68 30 11 30 C10.67 31.32 10.34 32.64 10 34 C9.34 34 8.68 34 8 34 C7.63 35.33 7.63 35.33 7.25 36.69 C5.92 40.21 4.44 42.15 2 45 C0.97 46.35 -0.05 47.7 -1.06 49.06 C-1.79 50.04 -1.79 50.04 -2.54 51.04 C-3.52 52.36 -4.51 53.69 -5.49 55.02 C-6.97 56.95 -8.49 58.83 -10.06 60.69 C-10.57 61.29 -11.08 61.89 -11.6 62.51 C-14.14 65.21 -17.49 66 -21 67 C-31.02 67.27 -41.52 65.5 -50 60 C-51.37 59.55 -52.75 59.11 -54.12 58.69 C-57.28 57.54 -57.94 57.08 -60.06 54.25 C-61.22 50.24 -61.35 47.97 -60 44 C-57.7 42.44 -55.7 41.83 -53 41 C-53 39.02 -53 37.04 -53 35 C-52.44 35.34 -51.88 35.68 -51.3 36.02 C-48.6 37.17 -47.12 37.05 -44.25 36.62 C-43.45 36.51 -42.65 36.4 -41.83 36.29 C-41.22 36.19 -40.62 36.1 -40 36 C-39.67 35.01 -39.34 34.02 -39 33 C-38.34 33 -37.68 33 -37 33 C-37 32.34 -37 31.68 -37 31 C-36.16 30.83 -35.31 30.66 -34.45 30.48 C-32.8 30.12 -32.8 30.12 -31.12 29.75 C-30.03 29.52 -28.94 29.29 -27.82 29.05 C-24.47 27.8 -24.42 27.08 -23 24 C-21.01 23.46 -21.01 23.46 -18.69 23.38 C-15.1 23.12 -12.2 22.8 -9 21 C-8.5 19.51 -8.5 19.51 -8 18 C-6.76 17.86 -5.52 17.71 -4.25 17.56 C-1.43 17.21 1.27 16.8 4 16 C4.33 14.68 4.66 13.36 5 12 C4.34 12 3.68 12 3 12 C1.57 8.01 0.6 4.19 0 0 Z M4 36 C4.99 37.49 4.99 37.49 6 39 C6 38.01 6 37.02 6 36 C5.34 36 4.68 36 4 36 Z M-2 46 C-1 48 -1 48 -1 48 Z " fill="#FA4A1D" transform="translate(833,269)"/>
<path d="M0 0 C2.88 1.5 2.88 1.5 5 3 C4.57 5.48 4.28 6.73 2.44 8.5 C0.54 10.14 0.54 10.14 1 14 C3.99 17.05 7.46 17.89 11.5 19 C15.65 20.14 18.72 21.17 22 24 C22.33 23.34 22.66 22.68 23 22 C23.66 22.66 24.32 23.32 25 24 C27.32 24.72 29.65 25.39 32 26 C32 26.99 32 27.98 32 29 C32.7 29.2 33.4 29.41 34.12 29.62 C35.03 29.89 35.94 30.16 36.88 30.44 C37.78 30.7 38.68 30.97 39.62 31.25 C42 32 42 32 44 33 C44.33 32.01 44.66 31.02 45 30 C45.5 31.49 45.5 31.49 46 33 C46.99 33.33 47.98 33.66 49 34 C49.47 34.48 49.93 34.95 50.41 35.45 C52.28 37.28 53.94 37.94 56.38 38.88 C61.15 40.91 64.57 43.31 67.06 48 C66.96 51.27 65.25 52.75 63 55 C60.75 55.81 60.75 55.81 59 56 C59 56.66 59 57.32 59 58 C54.61 60.02 50.85 61.41 46 62 C46 61.01 46 60.02 46 59 C45.83 59.76 45.67 60.53 45.5 61.31 C43.74 64.47 42.11 65.39 38.7 66.5 C32.23 67.7 23.57 68.71 18 65 C17.67 63.99 17.34 62.98 17 61.94 C16.67 60.97 16.34 60 16 59 C14.51 58.5 14.51 58.5 13 58 C11.44 56.56 11.44 56.56 10 55 C9.34 54.34 8.68 53.68 8 53 C8 52.34 8 51.68 8 51 C6.68 49.32 5.35 47.66 4 46 C2.99 44.34 1.99 42.67 1 41 C0.44 40.28 -0.11 39.56 -0.69 38.81 C-2 37 -2 37 -2 35 C-2.99 34.67 -3.98 34.34 -5 34 C-6.32 31.89 -6.32 31.89 -7.56 29.25 C-7.98 28.39 -8.39 27.53 -8.82 26.64 C-12.46 18.51 -12.46 18.51 -11 14 C-10.34 13.34 -9.68 12.68 -9 12 C-8.9 9.71 -9.07 7.48 -9.22 5.19 C-9 3 -9 3 -7.68 1.24 C-5.07 -0.69 -3.15 -0.38 0 0 Z " fill="#FA4E21" transform="translate(442,261)"/>
<path d="M0 0 C0.89 0.19 1.77 0.38 2.69 0.57 C3.35 0.72 4.02 0.87 4.71 1.02 C4.74 7.23 4.75 13.45 4.77 19.66 C4.77 21.77 4.78 23.88 4.79 26 C4.8 29.03 4.8 32.07 4.81 35.11 C4.81 36.05 4.82 37 4.82 37.98 C4.82 38.86 4.82 39.74 4.82 40.64 C4.83 41.42 4.83 42.19 4.83 42.99 C4.63 46.34 3.89 47.84 1.52 50.21 C-1.73 52.31 -3.5 52.38 -7.29 52.02 C-12.43 44.24 -12.08 36.07 -12.29 27.02 C-16.82 26.09 -16.82 26.09 -21.29 27.02 C-22.64 32.49 -22.27 37.84 -22.13 43.43 C-22.28 46.88 -22.53 49.06 -24.29 52.02 C-27.55 53.54 -31.37 53.23 -34.91 53.27 C-36.06 53.3 -37.21 53.32 -38.39 53.35 C-39.35 53.24 -40.3 53.13 -41.29 53.02 C-43.56 49.62 -43.53 48.46 -43.48 44.48 C-43.48 43.41 -43.47 42.33 -43.46 41.23 C-43.44 39.55 -43.44 39.55 -43.41 37.84 C-43.41 36.7 -43.4 35.57 -43.39 34.41 C-43.36 31.61 -43.33 28.82 -43.29 26.02 C-43.95 26.35 -44.61 26.68 -45.29 27.02 C-45.02 25.99 -44.75 24.96 -44.48 23.9 C-43.16 18.7 -42.13 13.45 -41.07 8.2 C-40.4 5.47 -39.58 3.48 -38.29 1.02 C-34.71 0.97 -31.12 0.93 -27.54 0.9 C-26.52 0.88 -25.51 0.86 -24.46 0.85 C-23.48 0.84 -22.5 0.83 -21.49 0.83 C-20.59 0.82 -19.69 0.81 -18.76 0.8 C-16.15 1.04 -14.53 1.7 -12.29 3.02 C-12.78 1.54 -12.78 1.54 -13.29 0.02 C-8.48 -0.87 -4.8 -1.04 0 0 Z " fill="#FA491D" transform="translate(566.2890625,279.9765625)"/>
<path d="M0 0 C0.42 0.35 0.85 0.71 1.28 1.08 C9.52 6.82 18.97 5.65 28.57 5.52 C30.49 5.52 32.41 5.51 34.33 5.51 C39.38 5.5 44.43 5.45 49.48 5.4 C53.56 5.37 57.65 5.35 61.73 5.34 C66.66 5.33 71.58 5.3 76.5 5.27 C77.42 5.27 78.34 5.26 79.29 5.26 C88.22 5.2 97.16 5.09 106.09 4.67 C107.36 4.61 108.62 4.56 109.93 4.5 C113.21 3.97 113.95 3.46 116 1 C120.75 0.94 124.9 2.02 128.44 5.19 C130.22 8.4 131.66 11.58 133 15 C130.26 18.06 128.44 19.75 124.34 20.47 C120.95 20.64 117.58 20.66 114.19 20.63 C112.25 20.64 112.25 20.64 110.28 20.65 C106.75 20.67 103.23 20.66 99.7 20.64 C96 20.62 92.31 20.63 88.61 20.64 C82.41 20.64 76.2 20.62 70 20.6 C62.83 20.56 55.66 20.56 48.49 20.58 C41.59 20.6 34.68 20.59 27.78 20.57 C24.85 20.57 21.91 20.57 18.98 20.58 C14.88 20.58 10.78 20.56 6.68 20.53 C5.47 20.54 4.25 20.55 3 20.55 C-5.26 20.46 -5.26 20.46 -9.29 17.97 C-9.86 17.32 -10.42 16.67 -11 16 C-9.99 6.89 -9.99 6.89 -6.06 3.38 C-3 2 -3 2 0 2 C0 1.34 0 0.68 0 0 Z " fill="#FB86C1" transform="translate(590,242)"/>
<path d="M0 0 C2.5 3.75 2.54 5.56 2 10 C-0.54 13.16 -2.15 14.72 -6 16 C-7.71 17.62 -9.37 19.3 -11 21 C-12.14 22.11 -12.14 22.11 -13.31 23.25 C-14.2 24.16 -15.09 25.06 -16 26 C-16.63 26.63 -17.27 27.25 -17.92 27.89 C-23.45 33.66 -26.36 39.5 -29 47 C-29.66 47 -30.32 47 -31 47 C-31.1 47.68 -31.2 48.35 -31.3 49.05 C-32.19 54.37 -32.77 57.41 -37 61 C-37.41 61.95 -37.83 62.9 -38.25 63.88 C-41.88 70.35 -48.29 73.4 -55 76 C-55.33 76.33 -55.66 76.66 -56 77 C-59.58 77.25 -63.17 77.19 -66.75 77.19 C-67.75 77.2 -68.76 77.21 -69.79 77.22 C-70.76 77.23 -71.73 77.23 -72.73 77.23 C-74.07 77.24 -74.07 77.24 -75.43 77.24 C-78.26 76.98 -80.42 76.17 -83 75 C-82.67 73.68 -82.34 72.36 -82 71 C-80.23 70.66 -78.46 70.33 -76.69 70 C-75.7 69.81 -74.72 69.63 -73.7 69.44 C-71 69 -71 69 -68 69 C-68 68.34 -68 67.68 -68 67 C-67.41 66.81 -66.82 66.61 -66.21 66.41 C-64.57 65.88 -62.95 65.33 -61.32 64.77 C-59 64 -59 64 -56.19 63.31 C-53.14 61.48 -52.33 59.13 -50.9 55.95 C-50 54 -50 54 -48.44 52 C-46.63 49.49 -45.8 46.92 -44.84 44 C-44 42 -44 42 -42.55 40.14 C-40.61 37.47 -39.72 34.8 -38.62 31.69 C-36.65 26.4 -34.69 22.27 -31 18 C-30.01 17.67 -29.02 17.34 -28 17 C-25.25 14.47 -22.82 11.8 -20.5 8.88 C-15.54 3.17 -7.71 -1.08 0 0 Z " fill="#F9BB3C" transform="translate(885,358)"/>
<path d="M0 0 C1.23 0.04 2.46 0.09 3.73 0.13 C5.02 0.18 6.3 0.24 7.62 0.3 C8.91 0.34 10.19 0.38 11.52 0.42 C22.2 0.83 22.2 0.83 25.62 3.05 C26.99 5.29 27.71 7.56 28.62 10.05 C26.34 12.91 25.11 13.96 21.46 14.65 C19.58 14.71 19.58 14.71 17.66 14.78 C16.96 14.81 16.26 14.84 15.54 14.87 C13.24 14.95 10.93 15 8.62 15.05 C7.84 15.07 7.06 15.08 6.26 15.1 C0.2 15.24 -5.85 15.29 -11.91 15.32 C-12.85 15.33 -13.8 15.33 -14.77 15.34 C-19.76 15.36 -24.75 15.38 -29.74 15.4 C-33.84 15.41 -37.95 15.44 -42.05 15.48 C-47.05 15.53 -52.05 15.55 -57.05 15.56 C-58.94 15.57 -60.83 15.58 -62.72 15.61 C-65.36 15.64 -68 15.64 -70.64 15.63 C-71.41 15.65 -72.18 15.66 -72.97 15.68 C-78.92 15.61 -82.65 13.56 -87.38 10.05 C-86.72 9.72 -86.05 9.39 -85.38 9.05 C-85.16 8.12 -85.16 8.12 -84.94 7.17 C-84.22 4.44 -83.68 3.7 -81.38 2.05 C-78.6 1.64 -76.03 1.4 -73.25 1.3 C-72.51 1.25 -71.77 1.21 -71 1.17 C-69.13 1.08 -67.25 1.06 -65.38 1.05 C-65.04 1.38 -64.72 1.71 -64.38 2.05 C-54.32 3.26 -44.11 3.15 -34 3.17 C-32.81 3.18 -31.62 3.18 -30.4 3.19 C-19.13 3.76 -19.13 3.76 -8.5 1.01 C-5.57 -0.32 -3.21 -0.11 0 0 Z " fill="#F9BD38" transform="translate(678.375,232.953125)"/>
<path d="M0 0 C5.68 0.41 9.98 1.06 15 4 C15.66 4.33 16.32 4.66 17 5 C17.43 10.19 16.72 12.91 14.14 17.56 C12.19 21.73 11.18 26.18 10.03 30.63 C9 33.99 7.57 36.87 6 40 C5.75 43.25 5.75 43.25 6 46 C10.55 48.66 13.74 49.4 19 49 C21.6 47.7 21.64 46.7 22.56 44 C23.91 40.09 23.91 40.09 25 39 C26.96 38.76 26.96 38.76 29.38 38.69 C30.56 38.63 30.56 38.63 31.77 38.57 C34 39 34 39 35.75 40.69 C37.18 43.34 37.49 45.26 37.69 48.25 C37.75 49.14 37.82 50.03 37.89 50.95 C37.94 51.97 37.94 51.97 38 53 C35.65 54.18 34.26 54.12 31.64 54.11 C30.29 54.11 30.29 54.11 28.91 54.11 C27.94 54.11 26.96 54.1 25.96 54.1 C24.96 54.1 23.97 54.09 22.94 54.09 C19.75 54.09 16.56 54.08 13.38 54.06 C11.22 54.06 9.06 54.05 6.9 54.05 C1.6 54.04 -3.7 54.02 -9 54 C-9 53.67 -9 53.34 -9 53 C-6.03 53 -3.06 53 0 53 C-0.33 52.67 -0.66 52.34 -1 52 C-3.29 52.06 -5.59 52.2 -7.88 52.38 C-9.13 52.47 -10.39 52.56 -11.68 52.65 C-15 52.88 -15 52.88 -18 54 C-20.8 54.1 -23.57 54.14 -26.38 54.12 C-27.13 54.13 -27.89 54.13 -28.66 54.14 C-32.58 54.13 -36.18 53.96 -40 53 C-39.67 52.34 -39.34 51.68 -39 51 C-35.37 51.33 -31.74 51.66 -28 52 C-28.02 50.39 -28.05 48.77 -28.07 47.11 C-28.09 44.99 -28.11 42.87 -28.12 40.75 C-28.14 39.69 -28.16 38.62 -28.18 37.53 C-28.18 36.5 -28.19 35.48 -28.2 34.42 C-28.21 33.48 -28.22 32.54 -28.23 31.57 C-27.99 28.86 -27.49 27.26 -26 25 C-23.13 23.94 -21.64 23.77 -18.75 24.81 C-17 26 -17 26 -16 28 C-15.84 30.39 -15.72 32.79 -15.62 35.19 C-15.34 40.71 -14.73 45.14 -12 50 C-7.78 50.44 -7.78 50.44 -4.25 48.5 C-3.84 48 -3.42 47.51 -3 47 C-2.34 47 -1.68 47 -1 47 C-1.01 45.9 -1.01 44.79 -1.02 43.65 C-1.03 39.52 -1.05 35.39 -1.05 31.26 C-1.06 29.48 -1.07 27.7 -1.08 25.91 C-1.09 23.34 -1.09 20.77 -1.1 18.19 C-1.1 17.41 -1.11 16.62 -1.11 15.81 C-1.11 10.47 -0.67 5.3 0 0 Z M23 50 C22.67 50.66 22.34 51.32 22 52 C22.99 51.67 23.98 51.34 25 51 C24.34 50.67 23.68 50.34 23 50 Z M5 52 C5 52.33 5 52.66 5 53 C10.28 53 15.56 53 21 53 C21 52.67 21 52.34 21 52 C15.72 52 10.44 52 5 52 Z " fill="#F56E2A" transform="translate(571,281)"/>
<path d="M0 0 C0.94 0.09 1.88 0.19 2.84 0.28 C3.82 0.39 4.79 0.49 5.8 0.6 C7.28 0.75 7.28 0.75 8.79 0.9 C11.24 1.15 13.67 1.4 16.11 1.66 C16.44 3.31 16.77 4.96 17.11 6.66 C16.12 6.99 15.13 7.32 14.11 7.66 C14.11 7 14.11 6.34 14.11 5.66 C11.8 5.99 9.49 6.32 7.11 6.66 C6.78 8.64 6.45 10.62 6.11 12.66 C6.77 12.99 7.43 13.32 8.11 13.66 C9.1 13.33 10.09 13 11.11 12.66 C11.36 15.97 11.36 15.97 11.11 19.66 C9.18 21.35 9.18 21.35 7.11 22.66 C6.78 23.98 6.45 25.3 6.11 26.66 C13.37 26.66 20.63 26.66 28.11 26.66 C29.45 23.63 29.45 23.63 28.11 20.41 C26.62 14.82 27.17 11.29 30.05 6.29 C32.11 3.66 32.11 3.66 34.11 2.66 C37.05 2.35 37.05 2.35 40.11 2.66 C40.59 3.32 41.06 3.98 41.55 4.66 C43.03 7 43.03 7 46.3 7.35 C51.04 6.49 52.86 4.6 56.12 1.19 C58.61 -0.72 60.05 -0.64 63.11 -0.34 C63.93 1.85 63.93 1.85 64.11 4.66 C61.2 8.17 57.71 10.88 54.11 13.66 C53.37 13.33 52.63 13 51.86 12.66 C48.97 11.43 48.97 11.43 45.11 11.66 C44.12 14.63 43.13 17.6 42.11 20.66 C42.77 20.66 43.43 20.66 44.11 20.66 C44.48 28.02 44.48 28.02 42.9 30.78 C41.11 32.66 41.11 32.66 38.88 33.02 C38.02 32.96 37.17 32.9 36.28 32.83 C35.32 32.77 34.37 32.72 33.38 32.66 C32.36 32.57 31.35 32.49 30.3 32.41 C28.21 32.28 26.13 32.16 24.04 32.03 C23.03 31.97 22.01 31.9 20.97 31.83 C17.28 31.61 13.62 31.51 9.93 31.47 C8.36 31.45 8.36 31.45 6.76 31.43 C4.12 31.48 4.12 31.48 2.11 32.76 C-0.82 34.08 -2.62 33.22 -5.64 32.29 C-7.11 31.84 -7.11 31.84 -8.62 31.39 C-9.74 31.03 -9.74 31.03 -10.89 30.66 C-8.49 27.16 -6.33 25.27 -2.64 23.35 C-0.51 22.22 -0.51 22.22 1.11 20.66 C1.84 17.71 1.53 15.73 1.11 12.66 C0.12 12.66 -0.87 12.66 -1.89 12.66 C-2.88 14.15 -2.88 14.15 -3.89 15.66 C-6.26 16.22 -6.26 16.22 -8.89 15.66 C-11.43 12.78 -12.89 10.94 -12.89 7.04 C-11.68 4.16 -10.29 2.64 -7.89 0.66 C-4.76 -0.38 -3.22 -0.33 0 0 Z " fill="#F891A1" transform="translate(539.88671875,368.33984375)"/>
<path d="M0 0 C1.77 0.23 3.54 0.48 5.31 0.75 C6.3 0.89 7.28 1.03 8.3 1.17 C11 2 11 2 12.89 3.86 C14 6 14 6 13.44 9.44 C12 12.99 10.5 15.13 8 18 C7.3 19.05 6.6 20.1 5.88 21.19 C4 24 4 24 2 26 C1.57 27.49 1.57 27.49 1.12 29 C0 32 0 32 -1.91 32.93 C-4.51 34.26 -5.22 35.6 -6.62 38.12 C-7.85 40.32 -7.85 40.32 -9 42 C-9.66 42 -10.32 42 -11 42 C-11.27 42.93 -11.54 43.86 -11.81 44.81 C-13.51 49.38 -15.17 50.59 -19.53 52.77 C-24.7 54.58 -29.23 53.69 -34.5 52.69 C-35.42 52.53 -36.34 52.37 -37.28 52.21 C-39.52 51.83 -41.76 51.42 -44 51 C-44 50.67 -44 50.34 -44 50 C-43.03 50 -42.06 50 -41.06 50 C-35.35 49.13 -31.68 45.2 -28 41 C-26.12 38.12 -24.46 35.18 -22.82 32.16 C-18.92 25.39 -14.02 19.19 -8.81 13.38 C-5.23 9.33 -2.65 4.68 0 0 Z " fill="#F9BD39" transform="translate(769,284)"/>
<path d="M0 0 C1.6 -0.08 3.21 -0.14 4.81 -0.19 C6.15 -0.24 6.15 -0.24 7.52 -0.29 C10 0 10 0 11.68 1.02 C13.7 4.05 14.42 7.38 15.25 10.88 C15.44 11.58 15.62 12.29 15.81 13.02 C17.53 20.02 16.33 23.77 13 30 C12.34 30 11.68 30 11 30 C10.67 31.32 10.34 32.64 10 34 C9.34 34 8.68 34 8 34 C7.75 34.89 7.5 35.77 7.25 36.69 C5.47 41.41 2.53 44.51 -1 48 C-1.22 47.48 -1.44 46.96 -1.66 46.43 C-3.43 42.54 -4.65 40.28 -8.06 37.56 C-11.92 34.2 -12.79 30.86 -14 26 C-15.32 26 -16.64 26 -18 26 C-18 25.34 -18 24.68 -18 24 C-17.36 23.82 -16.72 23.64 -16.07 23.45 C-15.24 23.2 -14.41 22.95 -13.56 22.69 C-12.74 22.44 -11.92 22.2 -11.07 21.95 C-10.38 21.64 -9.7 21.32 -9 21 C-8.67 20.01 -8.34 19.02 -8 18 C-6.76 17.86 -5.52 17.71 -4.25 17.56 C-1.43 17.21 1.27 16.8 4 16 C4.33 14.68 4.66 13.36 5 12 C4.34 12 3.68 12 3 12 C1.57 8.01 0.6 4.19 0 0 Z M4 36 C4.99 37.49 4.99 37.49 6 39 C6 38.01 6 37.02 6 36 C5.34 36 4.68 36 4 36 Z " fill="#FA4E1F" transform="translate(833,269)"/>
<path d="M0 0 C3.77 1.1 7.38 2.46 11 4 C12.12 9.75 12.12 9.75 11 12 C9.11 12.53 9.11 12.53 6.75 12.94 C2.92 13.71 0.3 14.86 -3 17 C-4.98 17.71 -6.98 18.39 -9 19 C-9.33 20.65 -9.66 22.3 -10 24 C-7.94 23.91 -5.87 23.8 -3.81 23.69 C-2.66 23.63 -1.52 23.57 -0.33 23.51 C3.17 22.97 5.05 21.88 8 20 C10.81 20.31 10.81 20.31 13 21 C12.34 23.97 11.68 26.94 11 30 C10.34 30 9.68 30 9 30 C8.67 31.98 8.34 33.96 8 36 C4.54 36.5 4.54 36.5 1 37 C2.32 36.34 3.64 35.68 5 35 C5 34.34 5 33.68 5 33 C3.3 33.06 3.3 33.06 1.56 33.12 C-3.14 33.14 -7.46 32.18 -12 31 C-12.02 30.24 -12.04 29.47 -12.06 28.69 C-12.37 27.8 -12.68 26.91 -13 26 C-15.99 24.5 -15.99 24.5 -18.14 23.73 C-21 22.61 -22.9 21.23 -25 19 C-25.44 15.88 -25.44 15.88 -25 13 C-23 11 -23 11 -20.84 10.8 C-19.62 10.84 -19.62 10.84 -18.38 10.88 C-17.15 10.9 -17.15 10.9 -15.9 10.93 C-14.96 10.96 -14.96 10.96 -14 11 C-13.85 9.11 -13.85 9.11 -13.69 7.19 C-13.48 4.66 -13.24 3.33 -11.74 1.27 C-8.27 -1.26 -4.08 -0.53 0 0 Z " fill="#F890A3" transform="translate(447,334)"/>
<path d="M0 0 C2.88 1.5 2.88 1.5 5 3 C4.57 5.48 4.28 6.73 2.44 8.5 C0.54 10.14 0.54 10.14 1 14 C4.74 17.82 9.91 18.52 14.91 19.84 C18.18 21.07 19.76 22.37 22 25 C21.5 25.47 21.01 25.95 20.5 26.43 C15.5 31.3 11.15 36.4 7 42 C6 43.33 5 44.67 4 46 C3.57 45.26 3.13 44.51 2.69 43.75 C1.09 41.03 1.09 41.03 -0.69 38.81 C-2 37 -2 37 -2 35 C-2.99 34.67 -3.98 34.34 -5 34 C-6.32 31.89 -6.32 31.89 -7.56 29.25 C-7.98 28.39 -8.39 27.53 -8.82 26.64 C-12.46 18.51 -12.46 18.51 -11 14 C-10.34 13.34 -9.68 12.68 -9 12 C-8.9 9.71 -9.07 7.48 -9.22 5.19 C-9 3 -9 3 -7.68 1.24 C-5.07 -0.69 -3.15 -0.38 0 0 Z " fill="#F94D1F" transform="translate(442,261)"/>
<path d="M0 0 C3.45 0.32 5.08 1.7 7.31 4.25 C9.97 7.55 9.97 7.55 10.19 10.62 C8.61 13.78 6.7 15.75 4 18 C3.01 18 2.02 18 1 18 C0.5 19.49 0.5 19.49 0 21 C-2.31 21 -4.62 21 -7 21 C-7.33 21.66 -7.66 22.32 -8 23 C-8.99 23.33 -9.98 23.66 -11 24 C-11.7 25.98 -11.7 25.98 -12 28.31 C-12.69 31.9 -13.28 34.39 -16 37 C-24.43 39.81 -35.45 36.59 -44 35 C-44 34.67 -44 34.34 -44 34 C-32 34 -32 34 -30 35 C-30.5 33.51 -30.5 33.51 -31 32 C-30.34 31.34 -29.68 30.68 -29 30 C-28.44 28.02 -27.95 26.01 -27.5 24 C-26.22 18.22 -26.22 18.22 -24 16 C-22.67 15.77 -21.34 15.59 -20 15.44 C-12.29 13.9 -7.24 7.45 -2.12 1.88 C-1.07 0.95 -1.07 0.95 0 0 Z " fill="#F9BC39" transform="translate(718,299)"/>
<path d="M0 0 C1.6 3.19 1.65 6.54 1 10 C0.17 10.64 -0.65 11.28 -1.5 11.94 C-4.16 13.7 -4.16 13.7 -4.44 16.06 C-4.56 20.85 -4.02 24.1 -1 28 C-6.82 30 -12.05 30.3 -18.19 30.25 C-19.08 30.26 -19.97 30.27 -20.88 30.27 C-21.74 30.27 -22.6 30.27 -23.48 30.27 C-24.25 30.26 -25.03 30.26 -25.82 30.26 C-28 30 -28 30 -30.04 28.96 C-34.01 27.01 -39.41 28.89 -43.62 29.69 C-47.45 30.04 -49.44 29.35 -53 28 C-55.99 27.27 -58.99 26.63 -62 26 C-62 25.34 -62 24.68 -62 24 C-53.31 22.96 -44.97 22.67 -36.25 23.56 C-29.44 24.2 -22.8 23.65 -16 23 C-16.14 22.03 -16.29 21.06 -16.44 20.06 C-16.52 19.42 -16.6 18.79 -16.68 18.13 C-16.97 15.97 -16.97 15.97 -17.57 13.78 C-18.34 10.2 -18.66 8.03 -16.63 4.87 C-11.5 -0.23 -7.01 -0.91 0 0 Z " fill="#F9BA3F" transform="translate(671,372)"/>
<path d="M0 0 C1.65 0 3.3 0 5 0 C5.44 2.06 5.44 2.06 5 5 C2.88 7.57 0.49 9.79 -2 12 C-3.36 11.5 -3.36 11.5 -4.75 11 C-8.07 9.8 -8.07 9.8 -12 10 C-12.99 12.97 -13.98 15.94 -15 19 C-14.34 19 -13.68 19 -13 19 C-12.63 26.36 -12.63 26.36 -14.22 29.12 C-16 31 -16 31 -18.23 31.36 C-19.09 31.3 -19.95 31.24 -20.83 31.17 C-21.79 31.11 -22.75 31.06 -23.73 31 C-24.75 30.91 -25.77 30.83 -26.81 30.75 C-28.9 30.62 -30.98 30.5 -33.07 30.37 C-34.09 30.31 -35.1 30.24 -36.15 30.17 C-39.83 29.95 -43.5 29.85 -47.19 29.81 C-48.76 29.79 -48.76 29.79 -50.36 29.77 C-52.99 29.82 -52.99 29.82 -55 31.1 C-57.94 32.42 -59.73 31.56 -62.75 30.62 C-63.73 30.33 -64.72 30.03 -65.73 29.73 C-66.86 29.37 -66.86 29.37 -68 29 C-64.95 25.95 -62.71 26.02 -58.42 25.89 C-57.01 25.89 -55.59 25.89 -54.17 25.9 C-53.42 25.9 -52.67 25.91 -51.9 25.91 C-49.52 25.91 -47.13 25.92 -44.75 25.94 C-43.13 25.94 -41.51 25.95 -39.89 25.95 C-35.93 25.96 -31.96 25.98 -28 26 C-27.22 22.46 -27.11 20.47 -28 17 C-28.68 9.88 -28.68 9.88 -25.75 6.06 C-21.67 3 -21.67 3 -19 3 C-18.56 3.48 -18.12 3.96 -17.66 4.45 C-15.58 6.39 -14.31 6.51 -11.5 6.75 C-10.34 6.87 -10.34 6.87 -9.16 6.98 C-6.81 7.12 -6.81 7.12 -4 6 C-4 5.34 -4 4.68 -4 4 C-3.34 4 -2.68 4 -2 4 C-2 3.34 -2 2.68 -2 2 C-1.34 2 -0.68 2 0 2 C0 1.34 0 0.68 0 0 Z " fill="#F9BB3B" transform="translate(597,370)"/>
<path d="M0 0 C2.97 0.33 5.94 0.66 9 1 C9.33 2.32 9.66 3.64 10 5 C10.66 5 11.32 5 12 5 C12.08 7.94 12.14 10.87 12.19 13.81 C12.21 14.65 12.24 15.48 12.26 16.34 C12.27 17.14 12.28 17.94 12.29 18.77 C12.31 19.51 12.32 20.25 12.34 21.01 C11.9 23.56 11.03 24.44 9 26 C8.34 26 7.68 26 7 26 C6.67 27.32 6.34 28.64 6 30 C5.01 29.01 4.02 28.02 3 27 C2.75 27.91 2.5 28.81 2.25 29.75 C0.93 33.17 -0.02 34.87 -3 37 C-7.57 37 -11.21 34.31 -15 32 C-15.31 29.25 -15.31 29.25 -15 26 C-11.12 21.6 -5.39 19.97 0 18 C-0.3 15.56 -0.3 15.56 -1 13 C-3.46 11.16 -3.46 11.16 -6 10 C-5.61 7.18 -5.29 6.23 -3 4.44 C-2.34 3.96 -1.68 3.49 -1 3 C-0.67 2.01 -0.34 1.02 0 0 Z " fill="#F9B941" transform="translate(633,347)"/>
<path d="M0 0 C1.67 0.32 3.33 0.66 5 1 C5.68 1.09 6.36 1.18 7.05 1.27 C9 2 9 2 10.05 3.89 C10.33 4.67 10.6 5.45 10.88 6.25 C12.19 9.53 13.23 11.55 16.06 13.69 C19.33 16.26 20.62 18.1 22 22 C22 25.86 21.08 26.91 18.44 29.81 C17.63 30.53 16.83 31.26 16 32 C15.01 31.34 14.02 30.68 13 30 C12.34 30 11.68 30 11 30 C10.67 29.34 10.34 28.68 10 28 C9.3 27.59 8.6 27.18 7.88 26.75 C2.95 23.75 -1.38 20.58 -4.06 15.38 C-6.34 11.4 -8.1 10.22 -12 8 C-9.47 6.68 -6.98 5.6 -4.31 4.56 C-3.22 4.05 -2.13 3.53 -1 3 C-0.67 2.01 -0.34 1.02 0 0 Z " fill="#FA481D" transform="translate(810,293)"/>
<path d="M0 0 C1.44 0.09 2.88 0.2 4.31 0.31 C5.11 0.37 5.91 0.43 6.74 0.49 C9.36 1.08 10.31 1.96 12 4 C11.25 5.94 11.25 5.94 10 8 C7.88 8.75 7.88 8.75 6 9 C6.12 10.76 6.12 10.76 6.25 12.56 C6.28 17.38 4.66 20.05 2 24 C1.67 24.33 1.34 24.66 1 25 C0.67 28.42 0.67 28.42 1 32 C2.5 33.67 2.5 33.67 4 35 C3.69 37.19 3.69 37.19 3 39 C0.38 39.38 0.38 39.38 -3 39 C-4.49 37.57 -5.98 36.13 -7.35 34.59 C-9.69 32.33 -12.31 31.17 -15.27 29.86 C-17 29 -17 29 -19 27 C-19.12 24.38 -19.12 24.38 -19 22 C-18.15 21.73 -17.31 21.46 -16.44 21.19 C-9.74 19.33 -9.74 19.33 -5 15 C-4.16 14.59 -3.32 14.18 -2.46 13.76 C0.32 12.21 0.32 12.21 0.49 9.08 C0.43 8 0.37 6.92 0.31 5.81 C0.27 4.73 0.22 3.64 0.18 2.52 C0.12 1.69 0.06 0.86 0 0 Z " fill="#F79F7C" transform="translate(512,338)"/>
<path d="M0 0 C0.72 0.47 1.44 0.95 2.19 1.44 C4.89 2.94 6.96 3.57 10 4 C11.47 10.19 11.47 10.19 9.38 13.81 C8.59 14.68 7.81 15.54 7 16.44 C6.17 17.37 5.33 18.31 4.48 19.28 C3.25 20.63 3.25 20.63 2 22 C1.37 22.79 0.74 23.57 0.09 24.38 C-3.56 28.9 -6.46 31.19 -12 33 C-12.66 32.34 -13.32 31.68 -14 31 C-14 30.34 -14 29.68 -14 29 C-14.52 28.59 -15.03 28.18 -15.56 27.75 C-17 26 -17 26 -16.85 23.23 C-15.85 19.43 -14.37 17.48 -11.81 14.5 C-11 13.55 -10.2 12.6 -9.36 11.62 C-7.46 9.51 -5.54 7.48 -3.5 5.5 C-0.81 3.19 -0.81 3.19 0 0 Z " fill="#FA491D" transform="translate(464,283)"/>
<path d="M0 0 C2.12 0.12 2.12 0.12 4 1 C5.05 4.15 5.1 6.39 5.06 9.69 C5.05 10.68 5.04 11.68 5.04 12.7 C5.02 13.46 5.01 14.22 5 15 C3.68 14.67 2.36 14.34 1 14 C0.69 14.99 0.69 14.99 0.38 16 C-1.53 20.17 -3.75 23.75 -7 27 C-13.32 29.32 -20.53 27.18 -27 26 C-27 25.67 -27 25.34 -27 25 C-24.69 25 -22.38 25 -20 25 C-20.33 24.01 -20.66 23.02 -21 22 C-20.69 20.25 -20.69 20.25 -20 18 C-19.81 16.89 -19.62 15.77 -19.42 14.62 C-17.52 9.76 -15.15 8.82 -10.56 6.75 C-4.81 4.07 -4.81 4.07 0 0 Z " fill="#F9BC39" transform="translate(666,309)"/>
<path d="M0 0 C8.09 0.35 8.09 0.35 11.44 2.75 C13.06 5.09 13.96 7.36 15 10 C15.99 10.66 16.98 11.32 18 12 C17 12.04 17 12.04 15.99 12.08 C10.24 12.45 7.39 13.09 3 17 C1.78 17.33 0.57 17.66 -0.69 18 C-4.03 18.6 -4.03 18.6 -5 20.71 C-5.33 21.47 -5.66 22.22 -6 23 C-7.1 24.89 -8.23 26.76 -9.38 28.62 C-9.96 29.59 -10.55 30.55 -11.15 31.54 C-13 33.99 -14.16 34.94 -17 36 C-18.05 25.95 -15.25 19.5 -9.15 11.6 C-6.58 8.57 -4.32 6.22 -1 4 C-0.28 1.94 -0.28 1.94 0 0 Z " fill="#F9BA3D" transform="translate(755,346)"/>
<path d="M0 0 C5.67 0.37 10 1.07 15 4 C15.66 4.33 16.32 4.66 17 5 C17.43 10.19 16.73 12.91 14.14 17.55 C12.17 21.78 11.23 26.31 10.12 30.83 C8.93 34.18 7.69 35.73 5 38 C4.34 37.67 3.68 37.34 3 37 C3 36.34 3 35.68 3 35 C2.34 35 1.68 35 1 35 C1 24.33 1 13.67 1 3 C0.67 2.01 0.34 1.02 0 0 Z " fill="#F9BD38" transform="translate(571,281)"/>
<path d="M0 0 C2.97 0.99 5.94 1.98 9 3 C9.79 7.07 10.06 9.06 9 13 C5.52 18.04 0.63 22.04 -4 26 C-4.91 26.79 -5.82 27.57 -6.76 28.38 C-12.42 33 -12.42 33 -16 33 C-16.5 31.51 -16.5 31.51 -17 30 C-17.99 29.67 -18.98 29.34 -20 29 C-20.33 27.35 -20.66 25.7 -21 24 C-20.22 23.92 -19.43 23.83 -18.62 23.75 C-17.76 23.5 -16.89 23.25 -16 23 C-15.31 21.68 -14.65 20.34 -14 19 C-12.48 17.36 -12.48 17.36 -10.75 15.75 C-5.96 11.09 -1.64 6.57 0 0 Z " fill="#F9AC4B" transform="translate(475,290)"/>
<path d="M0 0 C0.66 0 1.32 0 2 0 C2.99 2.47 2.99 2.47 4 5 C1.71 7.86 0.48 8.91 -3.17 9.6 C-5.05 9.67 -5.05 9.67 -6.96 9.74 C-7.66 9.76 -8.36 9.79 -9.08 9.82 C-11.39 9.91 -13.69 9.96 -16 10 C-17.17 10.03 -17.17 10.03 -18.37 10.05 C-24.44 10.18 -30.5 10.22 -36.57 10.24 C-37.51 10.24 -38.46 10.25 -39.44 10.25 C-44.43 10.27 -49.43 10.29 -54.42 10.3 C-59.56 10.31 -64.7 10.34 -69.83 10.38 C-73.81 10.41 -77.79 10.41 -81.77 10.42 C-83.66 10.42 -85.56 10.43 -87.45 10.45 C-90.1 10.48 -92.74 10.48 -95.38 10.47 C-96.15 10.48 -96.93 10.5 -97.72 10.51 C-103.23 10.46 -106.42 9.05 -111 6 C-111 5.67 -111 5.34 -111 5 C-56.55 5.5 -56.55 5.5 -1 6 C-0.67 4.02 -0.34 2.04 0 0 Z " fill="#F9AF4D" transform="translate(703,238)"/>
<path d="M0 0 C1.31 2.63 1.21 4.73 1.32 7.66 C1.36 8.79 1.4 9.91 1.44 11.06 C1.48 12.24 1.52 13.41 1.56 14.62 C1.61 15.81 1.65 16.99 1.69 18.21 C1.8 21.14 1.9 24.07 2 27 C-1.81 28.27 -5.4 28.15 -9.38 28.12 C-10.13 28.13 -10.89 28.13 -11.66 28.14 C-15.58 28.13 -19.18 27.96 -23 27 C-22.67 26.34 -22.34 25.68 -22 25 C-18.37 25.33 -14.74 25.66 -11 26 C-11.02 24.39 -11.05 22.77 -11.07 21.11 C-11.09 18.99 -11.11 16.87 -11.12 14.75 C-11.14 13.69 -11.16 12.62 -11.18 11.53 C-11.18 10.5 -11.19 9.48 -11.2 8.42 C-11.21 7.48 -11.22 6.54 -11.23 5.57 C-10.99 2.84 -10.54 1.25 -9 -1 C-5.21 -2.26 -3.62 -1.5 0 0 Z " fill="#F9BB3A" transform="translate(554,307)"/>
<path d="M0 0 C4.09 0.3 7.46 0.88 11 3 C10.67 4.65 10.34 6.3 10 8 C8.57 8.53 7.13 9.05 5.69 9.56 C4.49 10 4.49 10 3.26 10.44 C0.3 11.17 -1.34 10.33 -4 9 C-8.95 8.6 -12.15 9.46 -16.69 11.32 C-23.21 13.23 -30.82 12.75 -37 10 C-32.33 3.67 -28.3 2.66 -20.77 1.38 C-12.51 0.25 -12.51 0.25 -9 2 C-5.5 2.25 -5.5 2.25 -2 2 C-1.34 1.34 -0.68 0.68 0 0 Z " fill="#F8929D" transform="translate(718,393)"/>
<path d="M0 0 C2.24 1.23 2.24 1.23 3.24 2.23 C4.75 2.47 6.28 2.65 7.8 2.8 C9.04 2.92 9.04 2.92 10.3 3.05 C10.94 3.11 11.58 3.17 12.24 3.23 C12.24 3.56 12.24 3.89 12.24 4.23 C11.52 4.3 10.79 4.36 10.05 4.42 C7.05 5.04 7.05 5.04 4.86 7.61 C1.75 10.73 -0.69 11.67 -4.76 13.23 C-5.09 13.56 -5.42 13.89 -5.76 14.23 C-14.06 15.89 -22.65 17.4 -30.76 14.23 C-33.03 12.65 -33.03 12.65 -34.76 11.23 C-34.43 10.57 -34.1 9.91 -33.76 9.23 C-31.83 8.67 -31.83 8.67 -29.32 8.23 C-28.42 8.06 -27.51 7.89 -26.57 7.72 C-24.81 7.41 -23.04 7.13 -21.26 6.88 C-15.06 5.88 -10.59 3.68 -5.3 0.28 C-2.76 -0.77 -2.76 -0.77 0 0 Z " fill="#F9BA3C" transform="translate(514.76171875,394.765625)"/>
<path d="M0 0 C11.36 -0.54 11.36 -0.54 16 3 C18.36 4.26 20.73 5.49 23.11 6.72 C25 8 25 8 26 11 C25.38 14.06 25.38 14.06 24 17 C19.93 19.63 15.67 19.52 11 19 C9.62 17.37 8.29 15.7 7 14 C3.36 13.11 3.36 13.11 0 13 C0.14 11.54 0.29 10.08 0.44 8.62 C0.52 7.81 0.6 7 0.68 6.16 C1 4 1 4 2 2 C1.34 1.34 0.68 0.68 0 0 Z " fill="#FB86C1" transform="translate(849,269)"/>
<path d="M0 0 C6.52 2.05 9.88 6.84 14 12 C16.64 14.85 19.06 17.04 22.31 19.19 C23.2 19.79 24.09 20.38 25 21 C25 21.66 25 22.32 25 23 C25.64 23.1 26.28 23.21 26.94 23.31 C27.62 23.54 28.3 23.77 29 24 C29.33 24.99 29.66 25.98 30 27 C25.25 31.88 25.25 31.88 23 33 C22.4 32.32 21.8 31.64 21.19 30.94 C17.78 27.47 13.61 25.25 9.43 22.84 C6.62 20.71 6.13 19.27 5 16 C3.52 14.18 3.52 14.18 1.88 12.56 C-0.41 10.01 -0.96 9.28 -1.44 5.75 C-1 3 -1 3 0 0 Z " fill="#F9AD4C" transform="translate(796,300)"/>
<path d="M0 0 C2.46 1.53 2.46 1.53 4.81 3.5 C5.6 4.15 6.39 4.8 7.21 5.47 C7.8 5.97 8.39 6.48 9 7 C8 9 8 9 6 11.38 C4.13 13.83 3.49 15.05 3 18 C2 21 2 21 0.23 22.24 C-2.51 23.17 -3.97 22.86 -6.75 22.12 C-7.55 21.92 -8.35 21.72 -9.17 21.51 C-9.78 21.34 -10.38 21.17 -11 21 C-11 20.34 -11 19.68 -11 19 C-12.32 18.34 -13.64 17.68 -15 17 C-14.58 14.17 -13.94 12.93 -12.06 10.69 C-9.76 8.03 -9.76 8.03 -8.94 4.25 C-8.63 3.18 -8.32 2.11 -8 1 C-4.95 -0.02 -3.17 -0.34 0 0 Z " fill="#F9BC3B" transform="translate(476,365)"/>
<path d="M0 0 C4.08 1.89 6.22 3.87 8 8 C8.65 11.51 8.76 13.76 6.85 16.86 C2.12 22.25 -4.03 24.71 -11 26 C-13.87 25.59 -13.87 25.59 -16 25 C-16.31 22.81 -16.31 22.81 -16 20 C-13.53 17.12 -11.16 15.1 -8 13 C-6.81 10.95 -6.81 10.95 -6 9 C-5.01 9 -4.02 9 -3 9 C-2.88 7.7 -2.75 6.4 -2.62 5.06 C-2.41 2.85 -2.41 2.85 -2 1 C-1.34 0.67 -0.68 0.34 0 0 Z " fill="#F9B843" transform="translate(835,360)"/>
<path d="M0 0 C1.5 2.31 1.5 2.31 2 5 C1.12 7.38 1.12 7.38 -1 10 C-1.52 10.64 -2.03 11.28 -2.57 11.94 C-5.55 15.12 -7.55 16.93 -12.02 17.14 C-17.59 16.34 -22.03 15.25 -26 11 C-25.27 9.09 -25.27 9.09 -24 7 C-21.98 6.13 -21.98 6.13 -19.62 5.56 C-15.22 4.29 -13.79 2.65 -11 -1 C-6.77 -2.35 -3.82 -2.34 0 0 Z " fill="#FB86C1" transform="translate(429,262)"/>
<path d="M0 0 C2.21 2.06 2.21 2.06 4 4 C3.5 4.47 3.01 4.95 2.5 5.43 C-2.5 10.3 -6.85 15.4 -11 21 C-12 22.33 -13 23.67 -14 25 C-14.43 24.26 -14.87 23.51 -15.31 22.75 C-16.91 20.03 -16.91 20.03 -18.69 17.81 C-20 16 -20 16 -20 14 C-20.66 13.67 -21.32 13.34 -22 13 C-21.4 12.76 -20.8 12.52 -20.18 12.28 C-17.53 10.72 -16.62 9.19 -15.06 6.56 C-10.92 0.14 -7.78 -2.12 0 0 Z " fill="#F9BC39" transform="translate(460,282)"/>
<path d="M0 0 C-2.74 3.06 -4.57 4.74 -8.66 5.48 C-12.05 5.65 -15.42 5.68 -18.81 5.65 C-20.75 5.66 -20.75 5.66 -22.72 5.67 C-26.25 5.7 -29.77 5.69 -33.3 5.67 C-37 5.66 -40.69 5.67 -44.39 5.68 C-50.59 5.69 -56.8 5.68 -63 5.65 C-70.17 5.62 -77.34 5.63 -84.51 5.66 C-90.67 5.68 -96.83 5.69 -102.99 5.67 C-106.67 5.67 -110.35 5.66 -114.02 5.68 C-118.12 5.7 -122.22 5.67 -126.32 5.65 C-127.53 5.66 -128.75 5.67 -130 5.68 C-139.15 5.56 -139.15 5.56 -142.29 2.46 C-142.86 1.65 -143.42 0.84 -144 0 C-143.42 0.32 -142.85 0.65 -142.26 0.98 C-139.89 2.05 -138.46 2.25 -135.89 2.25 C-135.08 2.25 -134.27 2.26 -133.43 2.26 C-132.55 2.25 -131.67 2.25 -130.76 2.24 C-129.83 2.24 -128.89 2.25 -127.93 2.25 C-124.82 2.25 -121.72 2.24 -118.61 2.23 C-116.44 2.23 -114.26 2.23 -112.08 2.23 C-107.5 2.23 -102.93 2.22 -98.35 2.21 C-92.55 2.19 -86.76 2.18 -80.96 2.19 C-76.45 2.19 -71.94 2.18 -67.43 2.17 C-65.3 2.17 -63.17 2.17 -61.04 2.17 C-49.51 2.16 -38 2 -26.49 1.56 C-25.45 1.52 -24.42 1.48 -23.36 1.45 C-16.84 1.17 -10.57 0.56 -4.16 -0.7 C-2 -1 -2 -1 0 0 Z " fill="#F7998D" transform="translate(723,257)"/>
<path d="M0 0 C0.66 0 1.32 0 2 0 C2.34 1.64 2.34 1.64 2.69 3.31 C3.58 7.1 3.58 7.1 6.31 8.31 C10.61 11.01 12 15.47 14 20 C11.79 22.82 9.57 25.49 7 28 C6.78 27.48 6.56 26.96 6.34 26.43 C4.57 22.54 3.35 20.28 -0.06 17.56 C-3.92 14.2 -4.79 10.86 -6 6 C-7.32 6 -8.64 6 -10 6 C-10 5.34 -10 4.68 -10 4 C-9.36 3.8 -8.72 3.59 -8.07 3.38 C-7.24 3.11 -6.41 2.84 -5.56 2.56 C-4.74 2.3 -3.92 2.03 -3.07 1.75 C-1.04 1.18 -1.04 1.18 0 0 Z " fill="#F9BA3F" transform="translate(825,289)"/>
<path d="M0 0 C3.12 0.31 3.12 0.31 5.06 2 C6.38 4.88 6.03 6.33 5.12 9.31 C-2.4 11.33 -9.42 11.61 -17.19 11.56 C-18.94 11.57 -18.94 11.57 -20.72 11.59 C-21.84 11.58 -22.96 11.58 -24.11 11.58 C-25.63 11.57 -25.63 11.57 -27.18 11.57 C-29.9 11.31 -31.55 10.71 -33.88 9.31 C-29.79 7.84 -25.99 6.96 -21.69 6.44 C-14.13 5.35 -7.03 0.76 0 0 Z " fill="#F9BA3D" transform="translate(447.875,393.6875)"/>
<path d="M0 0 C4.26 0.47 6.29 2.85 9 6 C10.06 8 10.06 8 10 10 C8.2 12.87 6.99 14.64 3.75 15.81 C3.17 15.87 2.6 15.94 2 16 C2 16.66 2 17.32 2 18 C-2.39 20.02 -6.15 21.41 -11 22 C-9.83 16.5 -7.68 12.75 -4.46 8.16 C-2.68 5.53 -1.33 2.88 0 0 Z " fill="#F9BD38" transform="translate(499,301)"/>
<path d="M0 0 C1.54 2.3 2.66 4.33 3.81 6.81 C5.16 9.56 6.55 11.83 8.56 14.12 C10.96 16.96 12.48 19.63 14 23 C9.52 22.48 6.8 21.35 3 19 C1.63 18.55 0.25 18.11 -1.12 17.69 C-4.28 16.54 -4.94 16.08 -7.06 13.25 C-8.22 9.24 -8.35 6.97 -7 3 C-4.7 1.44 -2.7 0.83 0 0 Z " fill="#F8BD39" transform="translate(780,310)"/>
<path d="M0 0 C1.17 -0.04 1.17 -0.04 2.37 -0.09 C4.56 0.38 4.56 0.38 6.3 2.07 C7.75 4.71 8.05 6.63 8.25 9.62 C8.35 10.96 8.35 10.96 8.45 12.33 C8.51 13.34 8.51 13.34 8.56 14.38 C5.55 15.88 2.45 15.5 -0.85 15.47 C-1.58 15.47 -2.31 15.47 -3.06 15.47 C-5.4 15.46 -7.73 15.45 -10.06 15.44 C-11.64 15.43 -13.22 15.43 -14.8 15.42 C-18.68 15.41 -22.56 15.4 -26.44 15.38 C-26.44 15.05 -26.44 14.71 -26.44 14.38 C-25.17 14.33 -23.91 14.28 -22.61 14.23 C-20.95 14.15 -19.29 14.08 -17.62 14 C-16.79 13.97 -15.96 13.94 -15.1 13.91 C-14.3 13.87 -13.49 13.83 -12.67 13.79 C-11.56 13.74 -11.56 13.74 -10.43 13.69 C-8.12 13.47 -8.12 13.47 -5.44 11.38 C-5.77 10.38 -6.1 9.39 -6.44 8.38 C-6.62 5.31 -6.62 5.31 -6.44 2.38 C-4.03 -0.03 -3.3 0.05 0 0 Z " fill="#F9BB39" transform="translate(600.4375,319.625)"/>
<path d="M0 0 C10.02 1.16 10.02 1.16 13.69 4.31 C15.11 7.22 15.6 8.82 15 12 C11.28 14.48 8.13 14.44 3.81 14.62 C3.06 14.66 2.31 14.7 1.54 14.74 C-0.31 14.84 -2.15 14.92 -4 15 C-4.62 12.66 -4.62 12.66 -5 10 C-3.72 8.29 -2.38 6.63 -1 5 C-0.35 2.41 -0.35 2.41 0 0 Z " fill="#F9BE37" transform="translate(672,347)"/>
<path d="M0 0 C-0.34 5.91 -0.69 10.9 -4 16 C-7.21 18.14 -8.28 18.48 -12 18 C-14.47 14.3 -14.67 11.3 -14 7 C-10.28 0.08 -7.67 -1.45 0 0 Z " fill="#F9C236" transform="translate(775,367)"/>
<path d="M0 0 C1.61 3.22 1.76 6.54 1 10 C-2 12.5 -2 12.5 -5 14 C-3.12 10.12 -3.12 10.12 -2 9 C-1.96 7 -1.96 5 -2 3 C-6.43 3.51 -8.67 5.12 -12 8 C-12.66 8.33 -13.32 8.66 -14 9 C-14 12.63 -14 16.26 -14 20 C-13.34 20 -12.68 20 -12 20 C-12.88 24.88 -12.88 24.88 -14 26 C-15.99 26.1 -17.98 26.13 -19.98 26.13 C-21.21 26.13 -22.43 26.14 -23.7 26.14 C-24.99 26.13 -26.29 26.13 -27.62 26.12 C-29.53 26.13 -29.53 26.13 -31.48 26.14 C-33.33 26.13 -33.33 26.13 -35.23 26.13 C-36.92 26.13 -36.92 26.13 -38.65 26.13 C-42.16 25.99 -45.53 25.52 -49 25 C-51.31 24.94 -53.63 24.91 -55.94 24.94 C-57.65 24.95 -57.65 24.95 -59.4 24.96 C-60.26 24.98 -61.12 24.99 -62 25 C-62 24.67 -62 24.34 -62 24 C-53.31 22.96 -44.97 22.67 -36.25 23.56 C-29.44 24.2 -22.8 23.65 -16 23 C-16.14 22.03 -16.29 21.06 -16.44 20.06 C-16.52 19.42 -16.6 18.79 -16.68 18.13 C-16.97 15.97 -16.97 15.97 -17.57 13.78 C-18.34 10.2 -18.66 8.03 -16.63 4.87 C-11.5 -0.23 -7.01 -0.91 0 0 Z " fill="#F7A174" transform="translate(671,372)"/>
<path d="M0 0 C1.68 0.29 3.34 0.62 5 1 C4.34 3.97 3.68 6.94 3 10 C2.34 10 1.68 10 1 10 C0.67 11.98 0.34 13.96 0 16 C-2.31 16.33 -4.62 16.66 -7 17 C-5.68 16.34 -4.36 15.68 -3 15 C-3 14.34 -3 13.68 -3 13 C-4.13 13.04 -5.27 13.08 -6.44 13.12 C-11.14 13.14 -15.46 12.18 -20 11 C-18.42 8.46 -17.53 7.19 -14.66 6.17 C-13.8 6.03 -12.95 5.89 -12.06 5.75 C-10.78 5.53 -10.78 5.53 -9.47 5.3 C-7 5 -7 5 -3 5 C-2.69 4.36 -2.38 3.72 -2.06 3.06 C-1 1 -1 1 0 0 Z " fill="#F7A56A" transform="translate(455,354)"/>
<path d="M0 0 C0.99 1.49 0.99 1.49 2 3 C-0.29 5.86 -1.52 6.91 -5.17 7.6 C-7.04 7.67 -7.04 7.67 -8.96 7.74 C-9.66 7.77 -10.36 7.79 -11.07 7.82 C-13.38 7.91 -15.69 7.96 -18 8 C-18.78 8.02 -19.57 8.03 -20.38 8.05 C-26.46 8.16 -32.55 8.19 -38.64 8.2 C-39.59 8.21 -40.54 8.21 -41.52 8.21 C-46.52 8.23 -51.53 8.24 -56.53 8.24 C-61.69 8.25 -66.84 8.27 -72 8.3 C-75.98 8.32 -79.97 8.32 -83.96 8.32 C-85.86 8.33 -87.76 8.33 -89.66 8.35 C-92.31 8.36 -94.96 8.36 -97.61 8.36 C-98.78 8.37 -98.78 8.37 -99.97 8.38 C-104.5 8.35 -107.35 7.73 -111 5 C-110.34 4.67 -109.68 4.34 -109 4 C-108.34 4.33 -107.68 4.66 -107 5 C-105.61 5.1 -104.22 5.14 -102.83 5.15 C-101.96 5.16 -101.08 5.17 -100.18 5.18 C-99.22 5.18 -98.26 5.19 -97.27 5.19 C-96.26 5.2 -95.25 5.21 -94.21 5.22 C-90.86 5.24 -87.51 5.26 -84.16 5.27 C-83.02 5.28 -81.88 5.28 -80.7 5.29 C-74.66 5.32 -68.62 5.34 -62.58 5.35 C-56.33 5.37 -50.08 5.41 -43.82 5.46 C-39.03 5.5 -34.23 5.51 -29.43 5.51 C-27.13 5.52 -24.82 5.54 -22.52 5.56 C-19.3 5.59 -16.08 5.59 -12.86 5.58 C-11.9 5.6 -10.94 5.62 -9.95 5.63 C-7.53 5.61 -5.36 5.57 -3 5 C-0.79 2.65 -0.79 2.65 0 0 Z " fill="#F7A07C" transform="translate(705,240)"/>
<path d="M0 0 C2.44 0.94 2.44 0.94 3.81 2.5 C5.1 7.5 4.16 11.57 1.81 16 C-0.56 17.94 -0.56 17.94 -4.31 17.75 C-5.38 17.48 -6.46 17.21 -7.56 16.94 C-9.04 11.58 -8.14 7.73 -5.56 2.94 C-3.06 -0.07 -3.06 -0.07 0 0 Z " fill="#F9B642" transform="translate(712.5625,366.0625)"/>
<path d="M0 0 C0.85 0.24 0.85 0.24 1.72 0.49 C4.04 1.01 6.06 1.12 8.43 1.12 C9.31 1.12 10.19 1.12 11.1 1.12 C12.06 1.12 13.01 1.12 14 1.11 C15.02 1.11 16.03 1.11 17.08 1.11 C20.43 1.11 23.79 1.11 27.14 1.1 C29.47 1.1 31.79 1.09 34.12 1.09 C40.24 1.09 46.36 1.08 52.49 1.07 C58.73 1.06 64.98 1.05 71.23 1.05 C83.48 1.04 95.74 1.02 108 1 C104.39 3.41 101.67 3.35 97.49 3.41 C96.32 3.44 96.32 3.44 95.14 3.47 C92.53 3.53 89.92 3.58 87.31 3.62 C86.41 3.64 85.51 3.66 84.59 3.68 C77.39 3.82 70.2 3.92 63 4 C61.81 4.01 60.61 4.03 59.38 4.04 C51.78 4.13 44.18 4.19 36.58 4.23 C34.07 4.24 31.57 4.26 29.07 4.28 C25.53 4.31 21.99 4.32 18.46 4.33 C17.4 4.34 16.35 4.35 15.26 4.37 C9.38 4.35 5.21 3.77 0 1 C0 0.67 0 0.34 0 0 Z " fill="#F990A4" transform="translate(595,246)"/>
<path d="M0 0 C0.99 0.66 1.98 1.32 3 2 C3.19 5.12 3.19 5.12 3 8 C3.66 8 4.32 8 5 8 C6.04 9.64 7.04 11.31 8 13 C8.66 13.66 9.32 14.32 10 15 C9.62 17.12 9.62 17.12 9 19 C3.59 18.68 0.86 15.52 -2.81 11.94 C-3.41 11.37 -4.01 10.8 -4.62 10.22 C-6.09 8.82 -7.55 7.41 -9 6 C-8.67 4.68 -8.34 3.36 -8 2 C-6.87 1.86 -5.73 1.71 -4.56 1.56 C-1.19 1.39 -1.19 1.39 0 0 Z " fill="#F9B93E" transform="translate(506,358)"/>
<path d="M0 0 C0.87 0.01 1.74 0.02 2.63 0.03 C3.58 0.04 4.52 0.04 5.49 0.05 C6.47 0.07 7.46 0.08 8.47 0.1 C9.46 0.11 10.46 0.12 11.48 0.13 C13.93 0.15 16.39 0.19 18.85 0.23 C18.85 0.89 18.85 1.55 18.85 2.23 C16.54 2.56 14.23 2.89 11.85 3.23 C11.52 5.21 11.19 7.19 10.85 9.23 C12.17 9.89 13.49 10.55 14.85 11.23 C14.52 12.22 14.19 13.21 13.85 14.23 C12.86 14.56 11.87 14.89 10.85 15.23 C8.38 12.76 7.85 10.52 6.85 7.23 C6.12 7.37 5.4 7.52 4.66 7.66 C3.73 7.85 2.8 8.04 1.85 8.23 C0.94 8.43 0.03 8.64 -0.9 8.85 C-1.65 8.98 -2.39 9.1 -3.15 9.23 C-4.15 8.23 -4.15 8.23 -4.34 5.29 C-4.13 1.75 -3.69 0.39 0 0 Z " fill="#F9BA3E" transform="translate(535.15478515625,371.77294921875)"/>
<path d="M0 0 C0.62 2.38 0.62 2.38 1 5 C0.34 5.66 -0.32 6.32 -1 7 C-1 5.35 -1 3.7 -1 2 C-2.65 2 -4.3 2 -6 2 C-6 2.66 -6 3.32 -6 4 C-6.66 4 -7.32 4 -8 4 C-8 4.66 -8 5.32 -8 6 C-8.66 6 -9.32 6 -10 6 C-10 6.66 -10 7.32 -10 8 C-13.26 10.17 -13.82 10.24 -17.5 9.81 C-18.27 9.74 -19.05 9.66 -19.84 9.58 C-22.36 8.9 -23.26 7.88 -25 6 C-27.72 6.09 -29.02 7.01 -31.25 8.56 C-34.45 13.02 -33.13 18.23 -32.38 23.38 C-32.25 24.57 -32.13 25.77 -32 27 C-34 29 -34 29 -37.62 29.23 C-39.18 29.23 -40.73 29.22 -42.29 29.2 C-43.52 29.19 -43.52 29.19 -44.77 29.19 C-47.39 29.18 -50.01 29.15 -52.62 29.12 C-54.4 29.11 -56.17 29.11 -57.95 29.1 C-62.3 29.08 -66.65 29.04 -71 29 C-68.56 26.56 -67.39 26.39 -64 26 C-62.8 26.24 -62.8 26.24 -61.57 26.48 C-56.42 27.23 -51.32 27.1 -46.12 27.06 C-45.06 27.06 -43.99 27.05 -42.88 27.05 C-40.26 27.04 -37.63 27.02 -35 27 C-33.67 23.97 -33.67 23.97 -35 20.75 C-36.49 15.16 -35.94 11.63 -33.06 6.62 C-31 4 -31 4 -29 3 C-26.06 2.69 -26.06 2.69 -23 3 C-22.53 3.66 -22.05 4.32 -21.56 5 C-20.08 7.34 -20.08 7.34 -16.81 7.69 C-12.07 6.83 -10.25 4.94 -6.99 1.53 C-4.51 -0.38 -3.06 -0.3 0 0 Z " fill="#F7A07B" transform="translate(603,368)"/>
<path d="M0 0 C3.5 0.49 6.8 0.68 10.33 0.76 C11.51 0.79 12.68 0.82 13.89 0.85 C16.33 0.9 18.78 0.94 21.22 0.98 C22.98 1.03 22.98 1.03 24.77 1.07 C25.83 1.09 26.89 1.11 27.98 1.13 C31.28 1.6 33.23 2.61 35.92 4.55 C35.92 4.88 35.92 5.21 35.92 5.55 C33 5.6 30.09 5.64 27.17 5.68 C26.34 5.69 25.52 5.71 24.67 5.73 C23.87 5.73 23.07 5.74 22.25 5.75 C21.51 5.76 20.78 5.77 20.02 5.78 C17.92 5.55 17.92 5.55 15.89 4.52 C11.91 2.56 6.52 4.44 2.29 5.24 C-1.53 5.59 -3.52 4.9 -7.08 3.55 C-10.07 2.82 -13.07 2.18 -16.08 1.55 C-16.08 1.22 -16.08 0.89 -16.08 0.55 C-14.06 0.35 -12.04 0.17 -10.02 -0.01 C-8.33 -0.17 -8.33 -0.17 -6.61 -0.33 C-3.08 -0.45 -3.08 -0.45 0 0 Z " fill="#F9BB3B" transform="translate(625.08203125,396.44921875)"/>
<path d="M0 0 C2.88 1.5 2.88 1.5 5 3 C4.57 5.48 4.28 6.73 2.44 8.5 C0.54 10.14 0.54 10.14 1 14 C-2 15 -3.17 15.01 -6.19 14.56 C-7.45 14.38 -8.7 14.19 -10 14 C-9.83 13.11 -9.67 12.23 -9.5 11.31 C-8.91 8.11 -8.91 8.11 -9.12 5.31 C-9 3 -9 3 -7.88 1.19 C-5.1 -0.57 -3.22 -0.39 0 0 Z " fill="#FB86C1" transform="translate(442,261)"/>
<path d="M0 0 C4.88 1.88 4.88 1.88 6 3 C6.31 7.7 6.16 12.4 5.5 17.06 C4.36 24.7 4.36 24.7 6 32 C6.99 32.66 7.98 33.32 9 34 C7.68 35.32 6.36 36.64 5 38 C4.34 37.67 3.68 37.34 3 37 C3 36.34 3 35.68 3 35 C2.34 35 1.68 35 1 35 C1 24.33 1 13.67 1 3 C0.67 2.01 0.34 1.02 0 0 Z " fill="#F9AF4C" transform="translate(571,281)"/>
<path d="M0 0 C1.6 -0.08 3.21 -0.14 4.81 -0.19 C6.15 -0.24 6.15 -0.24 7.52 -0.29 C10 0 10 0 11.75 1.33 C14.46 4.96 15 8.56 15 13 C13.4 13.08 11.79 13.14 10.19 13.19 C9.29 13.22 8.4 13.26 7.48 13.29 C5 13 5 13 3.21 11.74 C1.79 9.7 1.55 8.41 1.38 5.94 C1.26 2.22 1.26 2.22 0 0 Z " fill="#FA88BA" transform="translate(833,269)"/>
<path d="M0 0 C2.75 0.62 2.75 0.62 4.75 3.62 C5.19 7 5.19 7 4.75 10.62 C2.21 13.78 0.6 15.34 -3.25 16.62 C-3.58 17.29 -3.91 17.94 -4.25 18.62 C-4.91 18.62 -5.57 18.62 -6.25 18.62 C-5.21 14.76 -4.21 11.13 -2.25 7.62 C-2.99 8.1 -3.74 8.57 -4.5 9.06 C-6.86 10.4 -8.62 11.14 -11.25 11.62 C-8.8 6.4 -5.95 1.14 0 0 Z " fill="#F9C830" transform="translate(882.25,357.375)"/>
<path d="M0 0 C7.69 2.56 11.02 5.59 16 12 C12.39 13.13 9.02 13.1 5.25 13.06 C4.08 13.05 2.91 13.04 1.7 13.04 C0.81 13.02 -0.08 13.01 -1 13 C-1.08 8.48 -1.1 4.41 0 0 Z " fill="#F9BD38" transform="translate(541,345)"/>
<path d="M0 0 C2 -0.04 4 -0.04 6 0 C8.19 2.19 7.6 6.84 7.81 9.88 C7.89 10.7 7.97 11.53 8.04 12.39 C8.2 14.66 8.3 16.74 8 19 C6.01 21.07 6.01 21.07 4 22 C-0.76 17.24 -0.04 10.24 -0.06 3.94 C-0.04 2.64 -0.02 1.34 0 0 Z " fill="#F9C533" transform="translate(619,287)"/>
<path d="M0 0 C4.88 0.88 4.88 0.88 6 2 C6.6 5.66 6.59 8.07 4.58 11.24 C2.8 13.38 1.19 15.29 -1 17 C-2.32 17 -3.64 17 -5 17 C-6.15 13.54 -5.8 12.47 -4.75 9.06 C-4.5 8.21 -4.24 7.35 -3.98 6.47 C-2.97 3.93 -1.74 2.1 0 0 Z " fill="#F9C236" transform="translate(800,366)"/>
<path d="M0 0 C0.99 0.33 1.98 0.66 3 1 C2.67 4.96 2.34 8.92 2 13 C4.06 12.86 6.13 12.71 8.19 12.56 C9.34 12.48 10.48 12.4 11.67 12.32 C14.92 12.08 14.92 12.08 17.7 11.38 C21.34 10.78 23.79 12.37 27 14 C27.66 14.66 28.32 15.32 29 16 C31.11 15.68 31.11 15.68 33 15 C32.67 15.99 32.34 16.98 32 18 C29.75 18.75 29.75 18.75 27 19 C26.38 18.36 25.76 17.72 25.12 17.06 C23.11 14.69 23.11 14.69 19.88 14.62 C15.95 15.01 12.26 15.72 8.43 16.66 C5.63 17.05 3.69 16.87 1 16 C-1.17 12.74 -1.25 11.77 -1.19 8 C-1.18 7.13 -1.17 6.27 -1.17 5.38 C-1 3 -1 3 0 0 Z " fill="#F69498" transform="translate(538,345)"/>
<path d="M0 0 C1.94 0.69 1.94 0.69 4 2 C4.63 4.58 4.63 4.58 5 7 C4 7.49 3 7.99 1.97 8.5 C0.67 9.14 -0.63 9.79 -1.94 10.44 C-2.6 10.76 -3.26 11.09 -3.94 11.42 C-7.18 12.89 -7.18 12.89 -10 15 C-10.04 17 -10.04 19 -10 21 C-7.36 22.32 -4.72 23.64 -2 25 C-2 25.33 -2 25.66 -2 26 C-6.92 26.29 -10.16 26.28 -14 23 C-15.1 20.2 -15.09 18.51 -14.56 15.56 C-11.92 11.23 -7.85 7.82 -2.92 6.4 C-1 6.12 -1 6.12 2 6 C2 4.68 2 3.36 2 2 C1.34 2 0.68 2 0 2 C0 1.34 0 0.68 0 0 Z " fill="#F89791" transform="translate(629,358)"/>
<path d="M0 0 C0.6 0.5 1.2 0.99 1.81 1.5 C3.97 3.28 3.97 3.28 7 3 C8.93 6.35 9.55 9.45 10.12 13.25 C10.29 14.33 10.46 15.41 10.63 16.52 C10.75 17.34 10.88 18.16 11 19 C7.69 18.81 7.69 18.81 4 18 C0.99 14.21 0.55 10.94 0.31 6.19 C0.25 5.03 0.18 3.86 0.11 2.67 C0.08 1.79 0.04 0.91 0 0 Z " fill="#F66D29" transform="translate(620,305)"/>
<path d="M0 0 C0.71 0.52 0.71 0.52 1.43 1.06 C2.36 1.74 2.36 1.74 3.31 2.44 C3.93 2.89 4.54 3.34 5.18 3.81 C7.1 5.17 7.1 5.17 10 6 C10 5.34 10 4.68 10 4 C10.99 4.33 11.98 4.66 13 5 C13 5.66 13 6.32 13 7 C13.64 7.1 14.28 7.21 14.94 7.31 C15.62 7.54 16.3 7.77 17 8 C17.33 8.99 17.66 9.98 18 11 C13.25 15.88 13.25 15.88 11 17 C6.12 12.74 6.12 12.74 5.5 8.81 C5.34 7.88 5.17 6.96 5 6 C2.54 4.55 2.54 4.55 0 4 C0 2.68 0 1.36 0 0 Z " fill="#F9B837" transform="translate(808,316)"/>
<path d="M0 0 C6.04 -0.25 11.24 0.08 17 2 C17.99 3.49 17.99 3.49 19 5 C9.77 9.59 9.77 9.59 4 9 C3.92 8.22 3.84 7.43 3.75 6.62 C3.27 3.85 3.27 3.85 0.94 2.69 C0.3 2.46 -0.34 2.23 -1 2 C-0.67 1.34 -0.34 0.68 0 0 Z " fill="#F9B34F" transform="translate(795,396)"/>
<path d="M0 0 C3.32 2.4 4.77 3.83 5.56 7.88 C4.73 12.52 3 16.36 -0.75 19.44 C-4.32 20.33 -7.31 20.3 -11 20 C-13.51 16.24 -13.37 14.46 -13 10 C-10.34 2.39 -8.56 -1.18 0 0 Z M-5 1 C-8.29 4.29 -9.98 7.48 -11 12 C-10.71 15.27 -10.71 15.27 -10 18 C-6.7 18.94 -6.7 18.94 -3 19 C0.15 16.43 1.23 13.91 1.94 10 C2.17 7.05 1.95 5.86 0.81 3 C0.21 2.34 -0.38 1.68 -1 1 C-2.32 1 -3.64 1 -5 1 Z " fill="#F7988F" transform="translate(715,365)"/>
<path d="M0 0 C2.19 2.5 2.19 2.5 3 5 C-2.81 7.58 -8.76 7.4 -15 7 C-15.66 6.67 -16.32 6.34 -17 6 C-16.81 4.12 -16.81 4.12 -16 2 C-10.89 -0.57 -5.6 -0.91 0 0 Z " fill="#F9C731" transform="translate(702,398)"/>
<path d="M0 0 C2.81 1.44 2.81 1.44 5 3 C5 3.66 5 4.32 5 5 C3.71 5.67 2.42 6.34 1.12 7 C0.41 7.37 -0.31 7.74 -1.05 8.12 C-3 9 -3 9 -5 9 C-5 8.34 -5 7.68 -5 7 C-7.97 7 -10.94 7 -14 7 C-14 5.68 -14 4.36 -14 3 C-4.44 -1.85 -4.44 -1.85 0 0 Z " fill="#F7BE38" transform="translate(781,395)"/>
<path d="M0 0 C3.5 0.25 3.5 0.25 5.5 2.25 C6.27 7.24 6.58 12.61 3.56 16.88 C-0.41 19.96 -3.58 20.23 -8.5 20.25 C-9.85 16.19 -10.04 12.5 -9.5 8.25 C-5.2 0.37 -5.2 0.37 0 0 Z M-2.5 2.25 C-6.33 6.64 -7.91 11.47 -8.5 17.25 C-8.17 17.91 -7.84 18.57 -7.5 19.25 C-4.74 19.17 -2.97 18.64 -0.83 16.87 C2.18 13.67 3.41 11.9 4 7.44 C3.81 4.16 3.81 4.16 1.5 2.25 C0.18 2.25 -1.14 2.25 -2.5 2.25 Z " fill="#F7988F" transform="translate(802.5,363.75)"/>
<path d="M0 0 C1 1 1 1 1.06 3.56 C1.04 4.37 1.02 5.17 1 6 C0.34 6 -0.32 6 -1 6 C-1.28 6.9 -1.28 6.9 -1.56 7.81 C-3.73 11.11 -6.32 11.84 -10 13 C-10.99 12.34 -11.98 11.68 -13 11 C-10.16 3.36 -8.57 -0.36 0 0 Z " fill="#F79D81" transform="translate(489,345)"/>
<path d="M0 0 C0.66 0.66 1.32 1.32 2 2 C1.62 4.12 1.62 4.12 1 6 C0.34 5.01 -0.32 4.02 -1 3 C-5.96 2.15 -9.41 3.92 -13.79 5.98 C-20.31 8.99 -26.93 9.51 -34 10 C-33.67 9.01 -33.34 8.02 -33 7 C-31.25 6.25 -31.25 6.25 -28.99 5.72 C-27.76 5.42 -27.76 5.42 -26.5 5.11 C-25.63 4.91 -24.77 4.71 -23.88 4.5 C-16.85 2.87 -16.85 2.87 -10.12 0.33 C-6.27 -1.31 -4.02 -1.02 0 0 Z " fill="#F89595" transform="translate(452,392)"/>
<path d="M0 0 C3.63 0 7.26 0 11 0 C12.35 9.2 12.35 9.2 10.69 13 C9 15 9 15 7 17 C4.78 13.68 4.09 10.83 3 7 C2.07 4.63 1.04 2.32 0 0 Z " fill="#F9B93D" transform="translate(838,282)"/>
<path d="M0 0 C0.99 0 1.98 0 3 0 C4 3 4 3 3.07 5.04 C2.62 5.75 2.16 6.46 1.69 7.19 C1.24 7.9 0.79 8.62 0.32 9.36 C-0.33 10.17 -0.33 10.17 -1 11 C-1.66 11 -2.32 11 -3 11 C-3.27 11.93 -3.54 12.86 -3.81 13.81 C-5.21 17.55 -6.42 19.26 -10.04 20.95 C-11.1 21.31 -11.1 21.31 -12.19 21.69 C-12.9 21.94 -13.62 22.19 -14.36 22.45 C-14.9 22.63 -15.44 22.81 -16 23 C-16.33 21.68 -16.66 20.36 -17 19 C-16.11 18.79 -15.23 18.59 -14.31 18.38 C-8.49 15.96 -6.23 11.78 -3.81 6.25 C-3.51 5.49 -3.21 4.73 -2.89 3.95 C-2 2 -2 2 0 0 Z " fill="#F8C731" transform="translate(761,315)"/>
<path d="M0 0 C2.47 1.15 4.05 2.05 6 4 C5.9 7.64 5 9 2.62 11.81 C0 14 0 14 -3 14 C-3.33 14.99 -3.66 15.98 -4 17 C-4.99 17 -5.98 17 -7 17 C-7 16.34 -7 15.68 -7 15 C-7.99 15 -8.98 15 -10 15 C-9.75 13.11 -9.75 13.11 -9 11 C-7.15 9.95 -7.15 9.95 -4.94 9.25 C-3.84 8.89 -3.84 8.89 -2.71 8.52 C-2.15 8.35 -1.58 8.18 -1 8 C-0.67 5.36 -0.34 2.72 0 0 Z " fill="#F9C830" transform="translate(722,303)"/>
<path d="M0 0 C1.06 1.62 1.06 1.62 1.06 4.62 C-2.37 6.34 -6.17 6.02 -9.94 5.62 C-12.25 4.25 -12.25 4.25 -13.94 2.62 C-15.26 1.93 -16.59 1.25 -17.94 0.62 C-13.64 -3.67 -4.87 -3.45 0 0 Z " fill="#F9BC3D" transform="translate(753.9375,397.375)"/>
<path d="M0 0 C1.78 0.03 1.78 0.03 3.59 0.07 C5.37 0.1 5.37 0.1 7.19 0.12 C8.1 0.15 9.02 0.17 9.96 0.2 C9.96 0.53 9.96 0.86 9.96 1.2 C8.71 1.25 8.71 1.25 7.44 1.31 C6.35 1.37 5.27 1.44 4.15 1.51 C3.07 1.57 1.99 1.62 0.88 1.68 C-2.29 2.24 -3.03 2.83 -5.04 5.2 C-5.7 5.2 -6.36 5.2 -7.04 5.2 C-7.37 6.19 -7.7 7.18 -8.04 8.2 C-8.97 8.63 -9.89 9.06 -10.85 9.51 C-14.69 11.54 -15.89 13.49 -18.1 17.2 C-20.66 21.46 -22.55 23.95 -27.04 26.2 C-28.6 25.13 -28.6 25.13 -30.04 23.2 C-29.73 19.51 -29.73 19.51 -29.04 16.2 C-28.71 16.2 -28.38 16.2 -28.04 16.2 C-28.04 18.84 -28.04 21.48 -28.04 24.2 C-24.41 20.79 -21.87 17.47 -19.35 13.2 C-15.94 7.9 -12.96 5.39 -7.14 3.06 C-3.98 1.76 -3.64 0.23 0 0 Z " fill="#F6998A" transform="translate(766.0390625,357.8046875)"/>
<path d="M0 0 C1.28 0.08 2.56 0.17 3.88 0.25 C5.58 0.36 7.29 0.46 9 0.56 C9.84 0.62 10.68 0.67 11.54 0.73 C15.64 0.97 19.44 1.03 23.5 0.4 C24.65 0.27 25.81 0.14 27 0 C29 2 29 2 29.12 4.62 C29.08 5.41 29.04 6.19 29 7 C26.36 7.99 23.72 8.98 21 10 C20.67 8.68 20.34 7.36 20 6 C13.88 2.38 6.95 1.89 0 1 C0 0.67 0 0.34 0 0 Z " fill="#F79C84" transform="translate(797,395)"/>
<path d="M0 0 C2.06 0.44 2.06 0.44 4 1 C0.88 7.5 -3.21 12.12 -10.07 14.82 C-11.7 15.29 -13.35 15.66 -15 16 C-16.5 14.62 -16.5 14.62 -18 13 C-18 12.34 -18 11.68 -18 11 C-16.95 10.96 -16.95 10.96 -15.88 10.92 C-14.97 10.87 -14.06 10.81 -13.12 10.75 C-12.22 10.7 -11.32 10.66 -10.38 10.61 C-7.86 10.26 -7.86 10.26 -6.84 8.12 C-6.56 7.42 -6.29 6.72 -6 6 C-4.37 4.29 -2.71 2.62 -1 1 C-0.67 0.67 -0.34 0.34 0 0 Z " fill="#FAC930" transform="translate(845,417)"/>
<path d="M0 0 C2.97 0 5.94 0 9 0 C9.35 6.03 9.35 6.03 9 9 C7.12 10.88 7.12 10.88 5 12 C4.01 13.49 4.01 13.49 3 15 C2.3 13.44 1.61 11.88 0.94 10.31 C0.55 9.44 0.17 8.57 -0.22 7.68 C-1.09 4.68 -0.85 2.97 0 0 Z " fill="#F9A84E" transform="translate(431,275)"/>
<path d="M0 0 C3.41 0.9 4.51 2.72 6.38 5.62 C6.38 6.29 6.38 6.94 6.38 7.62 C10 7.62 13.63 7.62 17.38 7.62 C17.38 7.95 17.38 8.29 17.38 8.62 C15.29 8.71 13.21 8.76 11.12 8.81 C9.96 8.85 8.8 8.88 7.61 8.92 C4.08 8.6 3.02 7.83 0.38 5.62 C-4.42 6.52 -8.43 9.13 -12.57 11.6 C-14.62 12.62 -14.62 12.62 -17.62 12.62 C-17.62 11.96 -17.62 11.31 -17.62 10.62 C-17.04 10.32 -16.46 10.02 -15.87 9.71 C-12.07 7.67 -8.57 5.74 -5.38 2.81 C-2.62 0.62 -2.62 0.62 0 0 Z " fill="#F8929D" transform="translate(513.625,389.375)"/>
<path d="M0 0 C6.07 -0.51 9.77 0.96 15 4 C12.19 7.4 10.81 8.87 6.38 9.56 C3 9 3 9 1.06 7.31 C-0.15 4.68 -0.24 2.87 0 0 Z " fill="#F9BE38" transform="translate(425,373)"/>
<path d="M0 0 C0.33 0.33 0.66 0.66 1 1 C0.69 4.5 0.69 4.5 0 8 C-0.99 8.5 -0.99 8.5 -2 9 C-2 8.34 -2 7.68 -2 7 C-3.76 7.06 -3.76 7.06 -5.56 7.12 C-9.72 7.14 -13.06 6.31 -17 5 C-15 2 -15 2 -12.79 1.27 C-11.93 1.12 -11.07 0.97 -10.19 0.81 C-8.91 0.57 -8.91 0.57 -7.61 0.33 C-5.03 0 -2.6 -0.13 0 0 Z " fill="#F9BD3A" transform="translate(454,360)"/>
<path d="M0 0 C0 3.6 -1.18 4.96 -3 8 C-3 8.99 -3 9.98 -3 11 C-4.32 11.33 -5.64 11.66 -7 12 C-7 13.65 -7 15.3 -7 17 C-1.98 15.82 1.09 14.55 5 11 C3.47 14.45 1.39 17.1 -1 20 C-2.01 21.33 -3.01 22.66 -4 24 C-4.43 23.26 -4.87 22.51 -5.31 21.75 C-6.91 19.03 -6.91 19.03 -8.69 16.81 C-10 15 -10 15 -10 13 C-10.66 12.67 -11.32 12.34 -12 12 C-11.4 11.76 -10.81 11.53 -10.2 11.29 C-7.5 9.71 -6.5 8.08 -4.88 5.44 C-2.19 1.1 -2.19 1.1 0 0 Z " fill="#F9A643" transform="translate(450,283)"/>
<path d="M0 0 C4.3 -0.2 6.01 0 10 2 C9.67 4.97 9.34 7.94 9 11 C7.35 11.66 5.7 12.32 4 13 C2.68 11.68 1.36 10.36 0 9 C0.66 6.69 1.32 4.38 2 2 C1.34 2 0.68 2 0 2 C0 1.34 0 0.68 0 0 Z " fill="#F9B741" transform="translate(544,281)"/>
<path d="M0 0 C4.08 1.89 6.22 3.87 8 8 C8.65 11.51 8.76 13.76 6.85 16.86 C2.12 22.25 -4.03 24.71 -11 26 C-13.87 25.59 -13.87 25.59 -16 25 C-16 23.35 -16 21.7 -16 20 C-15.67 20.99 -15.34 21.98 -15 23 C-4.32 22.08 -4.32 22.08 4 16 C5.14 13.71 5.1 12.41 5.06 9.88 C5.04 8.6 5.02 7.32 5 6 C2.61 4.89 2.61 4.89 0 4 C-0.99 4.5 -0.99 4.5 -2 5 C-2 3.68 -2 2.36 -2 1 C-1.34 0.67 -0.68 0.34 0 0 Z " fill="#F7A46E" transform="translate(835,360)"/>
<path d="M0 0 C0.66 0.66 1.32 1.32 2 2 C4.57 2.65 4.57 2.65 7 3 C6.73 7.03 6.47 8.57 3.44 11.38 C2.63 11.91 1.83 12.45 1 13 C0.73 12.36 0.46 11.72 0.19 11.06 C-0.89 8.67 -0.89 8.67 -4 8 C-4.33 6.35 -4.66 4.7 -5 3 C-3.35 2.67 -1.7 2.34 0 2 C0 1.34 0 0.68 0 0 Z " fill="#F9BE38" transform="translate(459,311)"/>
<path d="M0 0 C0.99 0.33 1.98 0.66 3 1 C-1.06 6.78 -1.06 6.78 -5.81 7.88 C-6.86 7.92 -7.92 7.96 -9 8 C-8.16 12.62 -5.35 14.78 -1.94 17.75 C-1.37 18.26 -0.8 18.76 -0.22 19.29 C1.18 20.53 2.59 21.77 4 23 C3.01 23 2.02 23 1 23 C0.28 22.26 -0.44 21.51 -1.19 20.75 C-4.09 17.91 -6.58 16.53 -10.23 14.89 C-12 14 -12 14 -14 12 C-14.12 9.38 -14.12 9.38 -14 7 C-13.15 6.73 -12.31 6.46 -11.44 6.19 C-4.74 4.33 -4.74 4.33 0 0 Z " fill="#F89694" transform="translate(507,353)"/>
<path d="M0 0 C0.33 0.99 0.66 1.98 1 3 C-1.14 5.14 -2.08 5.48 -4.94 6.19 C-5.97 6.46 -5.97 6.46 -7.03 6.73 C-10.72 7.23 -14.5 5.17 -18 4 C-17.67 3.01 -17.34 2.02 -17 1 C-10.98 -0.47 -6.1 -1.33 0 0 Z " fill="#F7BF37" transform="translate(728,397)"/>
<path d="M0 0 C1.65 0 3.3 0 5 0 C5.44 2.06 5.44 2.06 5 5 C2.85 7.6 0.51 9.72 -2 12 C-5.63 11.01 -9.26 10.02 -13 9 C-13 8.67 -13 8.34 -13 8 C-10.03 7.34 -7.06 6.68 -4 6 C-4 5.34 -4 4.68 -4 4 C-3.34 4 -2.68 4 -2 4 C-2 3.34 -2 2.68 -2 2 C-1.34 2 -0.68 2 0 2 C0 1.34 0 0.68 0 0 Z " fill="#F9B93E" transform="translate(597,370)"/>
<path d="M0 0 C1.58 0.03 3.17 0.07 4.75 0.12 C5.59 0.14 6.43 0.16 7.29 0.18 C9.06 0.23 10.82 0.28 12.59 0.33 C15.31 0.42 18.02 0.48 20.73 0.54 C22.45 0.58 24.16 0.63 25.88 0.68 C26.69 0.7 27.51 0.72 28.35 0.74 C34.09 0.94 34.09 0.94 36.32 3.17 C35.12 3.15 35.12 3.15 33.9 3.14 C30.29 3.09 26.68 3.07 23.07 3.04 C21.19 3.02 21.19 3.02 19.27 2.99 C17.46 2.98 17.46 2.98 15.61 2.97 C14.5 2.96 13.39 2.95 12.25 2.94 C9.33 3.17 7.84 3.81 5.32 5.17 C2.52 4.71 2.52 4.71 -0.43 3.79 C-1.42 3.5 -2.4 3.2 -3.42 2.89 C-4.17 2.65 -4.91 2.41 -5.68 2.17 C-3.68 0.17 -3.68 0.17 0 0 Z " fill="#F9C036" transform="translate(534.68359375,396.8330078125)"/>
<path d="M0 0 C0.33 0.99 0.66 1.98 1 3 C-0.33 4.67 -1.66 6.34 -3 8 C-3 9.32 -3 10.64 -3 12 C1.62 12 6.24 12 11 12 C10.67 12.99 10.34 13.98 10 15 C7.37 15.05 4.75 15.09 2.12 15.12 C1.38 15.14 0.63 15.16 -0.14 15.18 C-2.09 15.19 -4.05 15.1 -6 15 C-6.66 14.34 -7.32 13.68 -8 13 C-7.88 10.5 -7.88 10.5 -7 8 C-5.68 7.3 -4.35 6.63 -3 6 C-2.19 3.95 -2.19 3.95 -2 2 C-1.34 2 -0.68 2 0 2 C0 1.34 0 0.68 0 0 Z " fill="#F7988F" transform="translate(671,349)"/>
<path d="M0 0 C3.74 1.87 5.48 3.63 7.62 7.17 C10.77 11.34 15.05 14.61 19 18 C18.67 18.66 18.34 19.32 18 20 C17.34 20 16.68 20 16 20 C15.67 19.34 15.34 18.68 15 18 C14.3 17.59 13.6 17.18 12.88 16.75 C5.97 12.55 2.21 8.44 -1 1 C-0.67 0.67 -0.34 0.34 0 0 Z " fill="#F66C29" transform="translate(805,303)"/>
<path d="M0 0 C-3.75 4.34 -7.32 6.79 -13 8 C-16.5 7.69 -16.5 7.69 -19 7 C-19 6.34 -19 5.68 -19 5 C-18.34 5 -17.68 5 -17 5 C-17 4.01 -17 3.02 -17 2 C-16.31 1.87 -15.63 1.73 -14.92 1.6 C-13.57 1.33 -13.57 1.33 -12.19 1.06 C-10.85 0.8 -10.85 0.8 -9.48 0.54 C-2.87 -0.89 -2.87 -0.89 0 0 Z " fill="#FAC930" transform="translate(522,400)"/>
<path d="M0 0 C1.66 2.28 2.43 3.53 2.69 6.31 C2.25 8.56 2.25 8.56 1.69 10.31 C-1.19 10 -1.19 10 -4.31 9.31 C-6.46 6.08 -6.51 5.03 -6.31 1.31 C-7.3 1.31 -8.29 1.31 -9.31 1.31 C-8.98 0.65 -8.65 -0.01 -8.31 -0.69 C-4.7 -1.81 -3.14 -2.29 0 0 Z " fill="#F56D29" transform="translate(833.3125,287.6875)"/>
<path d="M0 0 C0.93 0.05 1.87 0.11 2.83 0.17 C4.28 0.28 4.28 0.28 5.77 0.39 C6.75 0.45 7.73 0.51 8.75 0.57 C11.17 0.73 13.59 0.89 16.02 1.07 C16.35 2.06 16.68 3.05 17.02 4.07 C16.36 4.73 15.7 5.39 15.02 6.07 C15.02 4.75 15.02 3.43 15.02 2.07 C11.54 2.21 8.06 2.36 4.58 2.51 C3.09 2.57 3.09 2.57 1.57 2.63 C0.15 2.69 0.15 2.69 -1.29 2.76 C-2.6 2.81 -2.6 2.81 -3.94 2.87 C-5.98 2.86 -5.98 2.86 -6.98 4.07 C-7.03 6.07 -7.03 8.07 -6.98 10.07 C-6.26 9.93 -5.54 9.79 -4.8 9.64 C-3.87 9.45 -2.94 9.27 -1.98 9.07 C-1.1 8.85 -0.21 8.62 0.7 8.39 C1.47 8.28 2.23 8.18 3.02 8.07 C5.02 10.07 5.02 10.07 5.14 12.7 C5.1 13.48 5.06 14.27 5.02 15.07 C4.69 13.75 4.36 12.43 4.02 11.07 C0.3 10.87 -0.76 10.92 -3.98 13.07 C-6.05 12.95 -6.05 12.95 -7.98 12.07 C-9.74 9.73 -10 8.44 -9.86 5.51 C-8.12 0.66 -4.86 -0.33 0 0 Z " fill="#F7A07C" transform="translate(538.984375,369.92578125)"/>
<path d="M0 0 C-5.65 2.98 -11.13 5.56 -17.29 7.32 C-19.21 7.86 -19.21 7.86 -20 10 C-19.01 10.33 -18.02 10.66 -17 11 C-19.79 12.03 -20.87 12.05 -23.75 11.06 C-24.49 10.71 -25.24 10.36 -26 10 C-25.67 8.68 -25.34 7.36 -25 6 C-23.23 5.66 -21.46 5.33 -19.69 5 C-18.21 4.72 -18.21 4.72 -16.7 4.44 C-14 4 -14 4 -11 4 C-11 3.34 -11 2.68 -11 2 C-9.54 1.47 -8.09 0.95 -6.62 0.44 C-5.81 0.15 -5 -0.14 -4.16 -0.44 C-2 -1 -2 -1 0 0 Z " fill="#F8AA5C" transform="translate(828,423)"/>
<path d="M0 0 C0.99 0.33 1.98 0.66 3 1 C3.7 2.81 3.7 2.81 4.12 5 C4.54 7.77 4.54 7.77 6 10 C10.27 10.41 12.34 10.45 15.94 8 C16.62 7.34 17.3 6.68 18 6 C18.66 6.33 19.32 6.66 20 7 C14.28 13.03 14.28 13.03 11 14 C6.87 13.93 4.74 13.63 1.56 10.94 C-0.54 6.99 -0.3 4.43 0 0 Z " fill="#F89792" transform="translate(422,371)"/>
<path d="M0 0 C0.66 0.33 1.32 0.66 2 1 C2.05 3.12 2.09 5.25 2.12 7.38 C2.15 8.56 2.17 9.74 2.2 10.96 C2 14 2 14 0 16 C-2.12 16.62 -2.12 16.62 -4 17 C-4.25 19.42 -4.25 19.42 -4 22 C-3.01 22.66 -2.02 23.32 -1 24 C-0.19 26.5 -0.19 26.5 0 29 C-2 31 -2 31 -4.62 31.12 C-5.41 31.08 -6.19 31.04 -7 31 C-5.68 30.34 -4.36 29.68 -3 29 C-3.57 26.13 -3.86 25.14 -6 23 C-6.38 19.69 -6.38 19.69 -6 16 C-5.07 14.89 -5.07 14.89 -4.12 13.75 C-0.94 9.62 -0.68 5.08 0 0 Z " fill="#F8939A" transform="translate(518,347)"/>
<path d="M0 0 C1.44 1.12 1.44 1.12 3 3 C3.1 3.93 3.21 4.86 3.31 5.81 C4.17 9.77 5.76 11.01 8.82 13.51 C9.21 14 9.6 14.49 10 15 C9.68 17.18 9.68 17.18 9 19 C7.72 17.92 6.46 16.84 5.19 15.75 C4.48 15.15 3.77 14.54 3.04 13.92 C1.03 12.03 -0.6 10.39 -2 8 C-1.81 5.12 -0.88 2.78 0 0 Z " fill="#F56928" transform="translate(793,302)"/>
<path d="M0 0 C-2.23 2.57 -3.67 3.41 -7 4 C-18 4.48 -29.02 3.7 -40 3 C-40 2.67 -40 2.34 -40 2 C-39.31 1.98 -38.62 1.96 -37.91 1.94 C-20.95 1.55 -20.95 1.55 -4.16 -0.7 C-2 -1 -2 -1 0 0 Z " fill="#F8919F" transform="translate(723,257)"/>
<path d="M0 0 C1.65 0.33 3.3 0.66 5 1 C5.03 2.48 5.05 3.96 5.06 5.44 C5.07 6.26 5.09 7.08 5.1 7.93 C5 10 5 10 4 11 C2.33 11.04 0.67 11.04 -1 11 C-2.39 8.23 -2.19 6.07 -2 3 C-1.34 2.01 -0.68 1.02 0 0 Z " fill="#F9C533" transform="translate(708,373)"/>
<path d="M0 0 C0.64 0.25 1.28 0.5 1.94 0.75 C2.27 1.74 2.6 2.73 2.94 3.75 C2.28 5.07 1.62 6.39 0.94 7.75 C-2.36 7.75 -5.66 7.75 -9.06 7.75 C-8.73 6.1 -8.4 4.45 -8.06 2.75 C-6.74 2.75 -5.42 2.75 -4.06 2.75 C-4.06 2.09 -4.06 1.43 -4.06 0.75 C-2.06 -0.25 -2.06 -0.25 0 0 Z " fill="#F9C434" transform="translate(829.0625,375.25)"/>
<path d="M0 0 C0.12 0.62 0.25 1.24 0.38 1.88 C0.87 4.19 0.87 4.19 3 6 C6.13 6.24 6.13 6.24 9.62 6.12 C10.81 6.11 12 6.09 13.23 6.07 C14.6 6.04 14.6 6.04 16 6 C15.01 7.46 15.01 7.46 13 9 C10.21 9.38 7.61 9.6 4.81 9.69 C4.06 9.72 3.31 9.76 2.54 9.79 C0.69 9.87 -1.15 9.94 -3 10 C-3.62 7.68 -3.62 7.68 -4 5 C-2.06 2.19 -2.06 2.19 0 0 Z " fill="#F8AD51" transform="translate(671,352)"/>
<path d="M0 0 C0.99 0.33 1.98 0.66 3 1 C3.31 3.12 3.31 3.12 3 6 C0.62 9.12 0.62 9.12 -2 12 C-2.99 13.49 -2.99 13.49 -4 15 C-6 8.38 -6 8.38 -6 5 C-3.19 2.25 -3.19 2.25 0 0 Z " fill="#F9AF4D" transform="translate(513,351)"/>
<path d="M0 0 C2.02 0.49 4.01 1.13 5.98 1.79 C6.31 4.1 6.64 6.41 6.98 8.79 C5.99 9.28 5.99 9.28 4.98 9.79 C4.88 9.17 4.77 8.55 4.67 7.91 C4.11 5.42 4.11 5.42 0.98 3.79 C-3.83 6.34 -7.34 8.78 -11.02 12.79 C-11.68 12.46 -12.34 12.13 -13.02 11.79 C-11.3 9.8 -9.57 7.81 -7.81 5.84 C-5.93 3.75 -5.93 3.75 -4.08 1.16 C-2.02 -0.21 -2.02 -0.21 0 0 Z " fill="#F6682E" transform="translate(468.01953125,285.2109375)"/>
<path d="M0 0 C-1.59 2.47 -1.59 2.47 -4 5 C-7.09 5.56 -7.09 5.56 -10.5 5.44 C-11.62 5.42 -12.75 5.39 -13.91 5.37 C-16.79 5.03 -18.55 4.5 -21 3 C-14.16 0.37 -7.29 -0.19 0 0 Z " fill="#F9BA40" transform="translate(435,400)"/>
<path d="M0 0 C0.33 0.33 0.66 0.66 1 1 C0.52 9.21 -3.88 14.02 -9 20 C-9.66 18.68 -10.32 17.36 -11 16 C-9.88 14.83 -8.75 13.66 -7.62 12.5 C-7 11.85 -6.37 11.2 -5.73 10.53 C-4 9 -4 9 -2 9 C-2 7.02 -2 5.04 -2 3 C-4.31 3 -6.62 3 -9 3 C-6.4 -0.47 -4.17 -0.36 0 0 Z " fill="#F8939A" transform="translate(605,366)"/>
<path d="M0 0 C0.66 0.33 1.32 0.66 2 1 C1.48 1.51 0.96 2.02 0.43 2.55 C-5.25 8.46 -8.29 14.3 -11 22 C-11.66 21.67 -12.32 21.34 -13 21 C-8.95 5.75 -8.95 5.75 -2.75 1.56 C-1.84 1.05 -0.93 0.53 0 0 Z " fill="#FAC830" transform="translate(867,383)"/>
<path d="M0 0 C0.68 0.26 1.37 0.53 2.07 0.8 C3.88 1.69 3.88 1.69 5.88 3.69 C7.98 3.37 7.98 3.37 9.88 2.69 C9.54 3.68 9.22 4.67 8.88 5.69 C6.62 6.44 6.62 6.44 3.88 6.69 C3.37 6.04 2.86 5.39 2.34 4.72 C-1.54 1.52 -5.52 2.26 -10.38 2.44 C-11.78 2.46 -11.78 2.46 -13.21 2.49 C-15.52 2.54 -17.82 2.6 -20.12 2.69 C-20.46 2.03 -20.78 1.37 -21.12 0.69 C-20.23 0.63 -19.34 0.57 -18.42 0.5 C-16.67 0.38 -16.67 0.38 -14.88 0.25 C-13.71 0.17 -12.55 0.09 -11.36 0 C-8.27 -0.2 -8.27 -0.2 -5.96 -0.93 C-3.57 -1.43 -2.25 -0.9 0 0 Z " fill="#F19987" transform="translate(561.125,357.3125)"/>
<path d="M0 0 C2.97 1.12 5.33 2.22 8 4 C7.67 5.98 7.34 7.96 7 10 C4.69 10.31 4.69 10.31 2 10 C0.12 7.81 0.12 7.81 -1 5 C-0.69 2.19 -0.69 2.19 0 0 Z " fill="#F9C135" transform="translate(796,300)"/>
<path d="M0 0 C0.99 1.49 0.99 1.49 2 3 C3.14 4.44 4.29 5.88 5.44 7.31 C8.14 10.76 10.25 13.99 12 18 C9.31 18.12 9.31 18.12 6 17 C2.29 11.85 0.41 6.28 0 0 Z " fill="#F6A747" transform="translate(782,315)"/>
<path d="M0 0 C2.97 0.33 5.94 0.66 9 1 C9.38 2.66 9.71 4.32 10 6 C9 7 9 7 5.56 7.25 C4.39 7.17 3.21 7.08 2 7 C0 4 0 4 0 0 Z " fill="#F9BA3F" transform="translate(512,338)"/>
<path d="M0 0 C3.77 0.54 5.68 2 8 5 C7.75 7.25 7.75 7.25 7 9 C2.69 8.52 0.83 7.25 -2 4 C-1.34 2.68 -0.68 1.36 0 0 Z " fill="#F9B642" transform="translate(425,346)"/>
<path d="M0 0 C2.64 0.33 5.28 0.66 8 1 C8.38 2.66 8.71 4.32 9 6 C8 7 8 7 5.12 7.25 C2 7 2 7 0.06 5.75 C-1 4 -1 4 -0.69 1.81 C-0.46 1.21 -0.23 0.62 0 0 Z " fill="#F7A07C" transform="translate(450,338)"/>
<path d="M0 0 C2.31 2.06 2.31 2.06 4 4 C3.01 4.5 3.01 4.5 2 5 C1.38 4.67 0.76 4.34 0.12 4 C-2.53 2.75 -3.26 3.12 -6 4 C-8.35 5.04 -10.66 6.14 -12.98 7.26 C-13.64 7.5 -14.31 7.75 -15 8 C-15.66 7.67 -16.32 7.34 -17 7 C-12.94 2.27 -6.36 -2.83 0 0 Z " fill="#F7988F" transform="translate(781,392)"/>
<path d="M0 0 C0.66 0.33 1.32 0.66 2 1 C2.53 6.28 2.53 6.28 2 9 C-1 11.5 -1 11.5 -4 13 C-2.12 9.12 -2.12 9.12 -1 8 C-0.96 6 -0.96 4 -1 2 C-5.43 2.51 -7.67 4.12 -11 7 C-11.99 7.5 -11.99 7.5 -13 8 C-13.66 11.03 -13.66 11.03 -14 14 C-14.33 14 -14.66 14 -15 14 C-15.56 10.94 -15.56 10.94 -15 7 C-10.94 2.42 -6.36 -1.24 0 0 Z " fill="#F8A85F" transform="translate(670,373)"/>
<path d="M0 0 C3.1 -0.09 6.21 -0.14 9.31 -0.19 C10.19 -0.21 11.07 -0.24 11.98 -0.26 C13.25 -0.28 13.25 -0.28 14.55 -0.29 C15.72 -0.32 15.72 -0.32 16.92 -0.34 C19.5 0.08 20.36 1.01 22 3 C19.08 3.08 16.17 3.14 13.25 3.19 C12.01 3.23 12.01 3.23 10.75 3.26 C4.58 3.34 4.58 3.34 1.42 1.49 C0.95 1 0.48 0.51 0 0 Z " fill="#FAC930" transform="translate(639,399)"/>
<path d="M0 0 C0.66 0.33 1.32 0.66 2 1 C1.7 1.5 1.4 1.99 1.09 2.5 C-1.69 7.47 -2.37 10.29 -1 16 C-0.81 17.13 -0.63 18.27 -0.44 19.44 C-0.29 20.28 -0.15 21.13 0 22 C-0.66 22.33 -1.32 22.66 -2 23 C-2.29 21.89 -2.58 20.77 -2.88 19.62 C-3.69 16 -3.69 16 -6 14 C-6.56 10.45 -6.7 8.05 -4.66 4.98 C-3.16 3.25 -1.63 1.6 0 0 Z " fill="#F990A4" transform="translate(570,372)"/>
<path d="M0 0 C1.32 0 2.64 0 4 0 C3.53 4.63 1.87 6.63 -1.44 9.81 C-2.24 10.6 -3.04 11.39 -3.87 12.21 C-6 14 -6 14 -8 14 C-6.46 10.87 -4.84 7.79 -3.12 4.75 C-2.63 3.86 -2.14 2.97 -1.63 2.05 C-1.09 1.37 -0.56 0.7 0 0 Z " fill="#FABE38" transform="translate(477,297)"/>
<path d="M0 0 C0.66 0.66 1.32 1.32 2 2 C1.99 3.96 1.99 3.96 1 6 C-1.62 7.38 -1.62 7.38 -4.88 8.56 C-10.09 10.34 -10.09 10.34 -14 14 C-13.77 16.65 -13.77 16.65 -13 19 C-13.99 18.67 -14.98 18.34 -16 18 C-16.31 15.25 -16.31 15.25 -16 12 C-12.52 8.06 -7.97 6.74 -3.11 5.12 C-0.81 4.2 -0.81 4.2 -0.2 1.88 C-0.14 1.26 -0.07 0.64 0 0 Z " fill="#F9AF4D" transform="translate(634,361)"/>
<path d="M0 0 C1.65 0.33 3.3 0.66 5 1 C4.67 4.06 4.4 5.6 2.19 7.81 C0 9 0 9 -4 9 C-3.35 5.51 -1.9 2.97 0 0 Z " fill="#F9B93F" transform="translate(483,346)"/>
<path d="M0 0 C2.38 -0.12 2.38 -0.12 5 0 C7 2 7 2 7.12 4.62 C7.08 5.41 7.04 6.19 7 7 C4.12 7.62 4.12 7.62 1 8 C0.34 7.34 -0.32 6.68 -1 6 C-0.62 2.88 -0.62 2.88 0 0 Z " fill="#FAC930" transform="translate(599,323)"/>
<path d="M0 0 C3.49 0.15 5.51 0.65 8.38 2.69 C10.44 5.62 10.32 7.49 10 11 C5.95 12.16 3.75 11.92 0 10 C-2 8 -2 8 -2.25 5 C-2 2 -2 2 0 0 Z M1 1 C0.34 2.32 -0.32 3.64 -1 5 C1.17 7.67 1.17 7.67 4 10 C6.76 9.95 6.76 9.95 9 9 C8.46 5.21 6.92 3.41 4 1 C3.01 1 2.02 1 1 1 Z " fill="#F79C83" transform="translate(424,345)"/>
<path d="M0 0 C1 3 1 3 1 7 C2.65 6.34 4.3 5.68 6 5 C4.63 8.99 2.85 11.88 0 15 C-0.66 15 -1.32 15 -2 15 C-2.05 13.25 -2.09 11.5 -2.12 9.75 C-2.16 8.29 -2.16 8.29 -2.2 6.8 C-2 3.98 -1.45 2.39 0 0 Z " fill="#F8AC55" transform="translate(740,367)"/>
<path d="M0 0 C0.62 0.78 1.24 1.57 1.88 2.38 C3.9 4.97 3.9 4.97 6 7 C5.62 9.12 5.62 9.12 5 11 C1.33 10.69 0.22 10.24 -2.31 7.44 C-2.87 6.63 -3.43 5.83 -4 5 C-3.01 4.67 -2.02 4.34 -1 4 C-0.27 1.98 -0.27 1.98 0 0 Z " fill="#F9B741" transform="translate(510,366)"/>
<path d="M0 0 C3.3 0.33 6.6 0.66 10 1 C10.33 2.98 10.66 4.96 11 7 C9.23 7.68 9.23 7.68 7 8 C5.08 6.86 5.08 6.86 3.25 5.19 C2.64 4.64 2.02 4.1 1.39 3.54 C0 2 0 2 0 0 Z " fill="#F9C234" transform="translate(732,286)"/>
<path d="M0 0 C0.33 0 0.66 0 1 0 C1.33 4.67 0.71 7.17 -2 11 C-2.99 10.67 -3.98 10.34 -5 10 C-6.73 9.78 -8.46 9.59 -10.19 9.44 C-11.09 9.35 -11.99 9.27 -12.92 9.18 C-13.61 9.12 -14.29 9.06 -15 9 C-15 8.67 -15 8.34 -15 8 C-13.75 7.76 -13.75 7.76 -12.48 7.52 C-11.39 7.29 -10.31 7.05 -9.19 6.81 C-8.11 6.59 -7.03 6.37 -5.92 6.14 C-2.37 4.75 -1.65 3.34 0 0 Z " fill="#F56828" transform="translate(689,323)"/>
<path d="M0 0 C2.39 1.87 3.01 3.03 3.88 6 C4 9 4 9 2.56 10.88 C2.05 11.25 1.53 11.62 1 12 C-1.38 8.53 -2.57 6.24 -2 2 C-1.34 1.34 -0.68 0.68 0 0 Z " fill="#F9A042" transform="translate(648,294)"/>
<path d="M0 0 C4.68 4.23 4.68 4.23 5 8 C1.91 13.06 -2.77 17.27 -8 20 C-10.88 20.25 -10.88 20.25 -13 20 C-10 18 -10 18 -7.12 16.69 C-3.63 14.8 -1.44 13.15 1 10 C1.4 6.18 1.21 3.64 0 0 Z " fill="#F990A4" transform="translate(841,365)"/>
<path d="M0 0 C3.37 0.55 5.08 1.05 8 3 C7.67 4.65 7.34 6.3 7 8 C4.62 7.69 4.62 7.69 2 7 C0 4 0 4 0 0 Z " fill="#F9C632" transform="translate(502,363)"/>
<path d="M0 0 C0.19 0.64 0.39 1.29 0.59 1.95 C1.89 4.34 1.89 4.34 5.04 4.61 C6.22 4.66 7.41 4.7 8.62 4.75 C10.41 4.84 10.41 4.84 12.23 4.92 C13.14 4.95 14.06 4.97 15 5 C15 5.33 15 5.66 15 6 C12.92 6.08 10.83 6.14 8.75 6.19 C7.01 6.24 7.01 6.24 5.23 6.29 C1.7 5.97 0.67 5.17 -2 3 C-5.08 3.75 -5.08 3.75 -8 5 C-8.99 5 -9.98 5 -11 5 C-4.86 -0.71 -4.86 -0.71 0 0 Z " fill="#F7A07C" transform="translate(516,392)"/>
<path d="M0 0 C2.44 1.06 2.44 1.06 4 2 C3.67 2.99 3.34 3.98 3 5 C3 4.34 3 3.68 3 3 C-1.65 2.73 -1.65 2.73 -6 4 C-8 4.04 -10 4.04 -12 4 C-12 3.34 -12 2.68 -12 2 C-7.86 -1.39 -5.09 -1.2 0 0 Z " fill="#F8A666" transform="translate(725,394)"/>
<path d="M0 0 C2.01 0.29 4.01 0.62 6 1 C5 4 5 4 3.23 5.24 C0.49 6.17 -0.97 5.86 -3.75 5.12 C-4.95 4.82 -4.95 4.82 -6.17 4.51 C-6.78 4.34 -7.38 4.17 -8 4 C-8 3.67 -8 3.34 -8 3 C-6.87 2.69 -5.73 2.38 -4.56 2.06 C-1.21 1.37 -1.21 1.37 0 0 Z " fill="#F8AD51" transform="translate(473,382)"/>
<path d="M0 0 C0.33 0 0.66 0 1 0 C1.33 2.97 1.66 5.94 2 9 C3.65 9.33 5.3 9.66 7 10 C8.32 8.35 9.64 6.7 11 5 C10.67 8.02 10.39 9.6 8.25 11.81 C5.56 13.23 4 13.47 1 13 C-1.7 8.95 -1.23 6.82 -1 2 C-0.67 1.34 -0.34 0.68 0 0 Z " fill="#F7A46E" transform="translate(762,372)"/>
<path d="M0 0 C3.3 0 6.6 0 10 0 C6.7 4.77 6.7 4.77 3.31 5.88 C2.55 5.92 1.79 5.96 1 6 C0.67 5.67 0.34 5.34 0 5 C0 3.35 0 1.7 0 0 Z " fill="#F8A962" transform="translate(806,408)"/>
<path d="M0 0 C3.3 0.33 6.6 0.66 10 1 C10 1.66 10 2.32 10 3 C6.54 5.3 5.05 5.26 1 5 C0.34 4.67 -0.32 4.34 -1 4 C-0.67 2.68 -0.34 1.36 0 0 Z " fill="#F9BF38" transform="translate(485,405)"/>
<path d="M0 0 C4.56 0.56 4.56 0.56 6 2 C6.04 4.33 6.04 6.67 6 9 C5.01 9.5 5.01 9.5 4 10 C3.67 8.02 3.34 6.04 3 4 C1.68 4 0.36 4 -1 4 C-1.33 5.32 -1.66 6.64 -2 8 C-2.66 8 -3.32 8 -4 8 C-2.25 2.25 -2.25 2.25 0 0 Z " fill="#F9B642" transform="translate(800,366)"/>
<path d="M0 0 C0.33 0.99 0.66 1.98 1 3 C3.02 3.73 3.02 3.73 5 4 C3.9 6.99 3.32 7.85 0.38 9.25 C-0.41 9.5 -1.19 9.75 -2 10 C-3.06 6.62 -3.21 5.42 -1.56 2.19 C-1.05 1.47 -0.53 0.74 0 0 Z " fill="#FAC830" transform="translate(766,289)"/>
<path d="M0 0 C0.33 1.65 0.66 3.3 1 5 C-2.3 5 -5.6 5 -9 5 C-6.4 -0.2 -5.44 -0.14 0 0 Z " fill="#FAC930" transform="translate(440,400)"/>
<path d="M0 0 C0.66 0.66 1.32 1.32 2 2 C1.62 4.12 1.62 4.12 1 6 C0.34 5.01 -0.32 4.02 -1 3 C-5.05 2.57 -6.55 2.7 -10 5 C-10.99 4.67 -11.98 4.34 -13 4 C-12.34 4 -11.68 4 -11 4 C-10.71 3.36 -10.42 2.72 -10.12 2.06 C-7.74 -2.32 -4.33 -0.85 0 0 Z " fill="#F89890" transform="translate(452,392)"/>
<path d="M0 0 C0.33 0 0.66 0 1 0 C1.37 1.73 1.72 3.46 2.06 5.19 C2.26 6.15 2.46 7.11 2.66 8.11 C3 11 3 11 2 16 C-2.62 16 -7.24 16 -12 16 C-12 15.67 -12 15.34 -12 15 C-8.37 15 -4.74 15 -1 15 C-0.67 10.05 -0.34 5.1 0 0 Z " fill="#F990A4" transform="translate(653,380)"/>
<path d="M0 0 C0.99 0.33 1.98 0.66 3 1 C-1.06 6.78 -1.06 6.78 -5.81 7.88 C-6.86 7.92 -7.92 7.96 -9 8 C-8.39 10.96 -7.75 12.38 -6 15 C-8.47 13.85 -10.05 12.95 -12 11 C-11.62 8.38 -11.62 8.38 -11 6 C-10.37 5.82 -9.75 5.64 -9.1 5.45 C-7.88 5.07 -7.88 5.07 -6.62 4.69 C-5.81 4.44 -5 4.2 -4.16 3.95 C-1.67 3.09 -1.67 3.09 0 0 Z " fill="#F7A177" transform="translate(507,353)"/>
<path d="M0 0 C0.33 0 0.66 0 1 0 C1.09 4.2 0.69 6.15 -2 9.47 C-4.26 11.76 -6.49 13.97 -9 16 C-9.66 16 -10.32 16 -11 16 C-8.88 10.99 -5.51 7 -1 4 C-0.28 1.94 -0.28 1.94 0 0 Z " fill="#F8A962" transform="translate(755,346)"/>
<path d="M0 0 C4.56 1.56 4.56 1.56 6 3 C7.51 3.23 9.04 3.41 10.56 3.56 C11.8 3.69 11.8 3.69 13.07 3.82 C13.7 3.88 14.34 3.94 15 4 C15 4.33 15 4.66 15 5 C12.79 5.03 10.58 5.05 8.38 5.06 C7.15 5.07 5.92 5.09 4.65 5.1 C1.32 5.01 -1.74 4.64 -5 4 C-3.37 2.29 -2.13 1.07 0 0 Z " fill="#F9AF4D" transform="translate(512,394)"/>
<path d="M0 0 C2.31 0 4.62 0 7 0 C6.26 1.18 6.26 1.18 5.5 2.38 C3.83 4.79 3.83 4.79 4 7 C6.97 7.5 6.97 7.5 10 8 C10 8.33 10 8.66 10 9 C6.69 9.25 6.69 9.25 3 9 C1.06 7.31 1.06 7.31 0 5 C-0.19 2.25 -0.19 2.25 0 0 Z " fill="#F9AF4D" transform="translate(425,373)"/>
<path d="M0 0 C0.33 0 0.66 0 1 0 C1.33 1.98 1.66 3.96 2 6 C6.4 5.5 8.71 3.91 12 1 C10.74 4.87 9.63 7.03 6 9 C3.38 9.31 3.38 9.31 1 9 C0.34 8.34 -0.32 7.68 -1 7 C-0.62 3.38 -0.62 3.38 0 0 Z " fill="#F990A4" transform="translate(805,407)"/>
<path d="M0 0 C0.99 0 1.98 0 3 0 C4.12 2.31 4.12 2.31 5 5 C4.01 6.49 4.01 6.49 3 8 C1.68 7.67 0.36 7.34 -1 7 C-1.62 4.62 -1.62 4.62 -2 2 C-1.34 1.34 -0.68 0.68 0 0 Z " fill="#F9AE4C" transform="translate(693,294)"/>
<path d="M0 0 C0.4 0.49 0.8 0.98 1.21 1.49 C3.51 3.43 4.72 3.32 7.69 3.19 C8.9 3.15 8.9 3.15 10.14 3.11 C10.75 3.07 11.37 3.04 12 3 C11.67 3.99 11.34 4.98 11 6 C7.44 7.69 7.44 7.69 4 9 C3.34 8.34 2.68 7.68 2 7 C2 6.34 2 5.68 2 5 C1.04 3.64 0.04 2.3 -1 1 C-0.67 0.67 -0.34 0.34 0 0 Z " fill="#F56928" transform="translate(448,307)"/>
<path d="M0 0 C4.44 1.73 8.02 3.32 10.56 7.5 C12 11 12 11 11.75 13.44 C11.5 13.95 11.25 14.47 11 15 C10.34 14.01 9.68 13.02 9 12 C8.03 10.64 7.05 9.28 6.06 7.94 C5.56 7.25 5.05 6.55 4.54 5.84 C2.95 3.76 2.95 3.76 0 2 C0 1.34 0 0.68 0 0 Z " fill="#F9A048" transform="translate(822,302)"/>
<path d="M0 0 C2.81 0.56 2.81 0.56 6 2 C7.44 4.29 8.14 6.41 9 9 C5.41 9 4.89 8.34 2.31 6 C1.69 5.44 1.07 4.89 0.43 4.31 C-0.04 3.88 -0.52 3.45 -1 3 C-0.67 2.01 -0.34 1.02 0 0 Z " fill="#F56327" transform="translate(813,293)"/>
<path d="M0 0 C0.33 0.99 0.66 1.98 1 3 C-0.44 5.19 -0.44 5.19 -2 7 C-3.65 6.67 -5.3 6.34 -7 6 C-6.67 4.35 -6.34 2.7 -6 1 C-4.02 0.67 -2.04 0.34 0 0 Z " fill="#FAC930" transform="translate(781,292)"/>
<path d="M0 0 C1.98 0 3.96 0 6 0 C6.33 1.65 6.66 3.3 7 5 C5.35 4.67 3.7 4.34 2 4 C2 5.65 2 7.3 2 9 C1.34 9 0.68 9 0 9 C0 6.03 0 3.06 0 0 Z " fill="#F9BE39" transform="translate(619,287)"/>
<path d="M0 0 C0.99 0.66 1.98 1.32 3 2 C3 2.66 3 3.32 3 4 C2.11 3.89 2.11 3.89 1.21 3.78 C-2.88 3.3 -6.87 2.87 -11 3 C-11 2.34 -11 1.68 -11 1 C-6.93 -1.04 -4.4 -1.15 0 0 Z " fill="#F89692" transform="translate(751,393)"/>
<path d="M0 0 C-0.99 0.33 -1.98 0.66 -3 1 C-3 1.66 -3 2.32 -3 3 C-6.08 3.29 -6.08 3.29 -9.15 3.59 C-9.76 3.72 -10.37 3.86 -11 4 C-11.33 4.66 -11.66 5.32 -12 6 C-13.32 5.34 -14.64 4.68 -16 4 C-15.67 3.34 -15.34 2.68 -15 2 C-12.89 1.37 -12.89 1.37 -10.25 0.88 C-8.96 0.62 -8.96 0.62 -7.64 0.37 C-5.05 0.01 -2.61 -0.07 0 0 Z " fill="#F8A56A" transform="translate(496,402)"/>
<path d="M0 0 C0.66 0.33 1.32 0.66 2 1 C0.97 3.82 0.3 4.83 -2.38 6.31 C-5.13 7.03 -6.43 7.2 -9 6 C-9.33 5.01 -9.66 4.02 -10 3 C-8.91 2.88 -7.81 2.75 -6.69 2.62 C-2.93 2.25 -2.93 2.25 0 0 Z " fill="#F89693" transform="translate(479,384)"/>
<path d="M0 0 C2.99 1.1 3.85 1.68 5.25 4.62 C5.5 5.41 5.75 6.19 6 7 C3.69 7 1.38 7 -1 7 C-1.62 5.19 -1.62 5.19 -2 3 C-1.34 2.01 -0.68 1.02 0 0 Z " fill="#FAC930" transform="translate(548,348)"/>
<path d="M0 0 C2.97 0.5 2.97 0.5 6 1 C6.33 2.65 6.66 4.3 7 6 C5.35 6.33 3.7 6.66 2 7 C0 4 0 4 0 0 Z " fill="#FAC930" transform="translate(758,346)"/>
<path d="M0 0 C2.62 1.05 3.79 1.65 5.25 4.12 C5.5 4.74 5.75 5.36 6 6 C4.62 7.5 4.62 7.5 3 9 C2.34 9 1.68 9 1 9 C0.64 7.69 0.29 6.38 -0.06 5.06 C-0.36 3.97 -0.36 3.97 -0.66 2.85 C-0.77 2.24 -0.88 1.63 -1 1 C-0.67 0.67 -0.34 0.34 0 0 Z " fill="#F7C631" transform="translate(833,303)"/>
<path d="M0 0 C3.95 -0.18 6.6 -0.09 10 2 C10 2.99 10 3.98 10 5 C7.36 5.33 4.72 5.66 2 6 C2 4.68 2 3.36 2 2 C1.34 2 0.68 2 0 2 C0 1.34 0 0.68 0 0 Z " fill="#FA8930" transform="translate(544,281)"/>
<path d="M0 0 C0.33 1.65 0.66 3.3 1 5 C-0.32 5.99 -1.64 6.98 -3 8 C-3.99 5.69 -4.98 3.38 -6 1 C-4 0 -4 0 0 0 Z " fill="#FAC730" transform="translate(436,278)"/>
<path d="M0 0 C-1.6 0.81 -3.21 1.63 -4.81 2.44 C-5.71 2.89 -6.6 3.34 -7.52 3.81 C-11.09 5.53 -13.77 6.12 -17.69 6.06 C-18.9 6.05 -18.9 6.05 -20.14 6.04 C-21.06 6.02 -21.06 6.02 -22 6 C-22 5.67 -22 5.34 -22 5 C-16.55 4.5 -16.55 4.5 -11 4 C-11 3.34 -11 2.68 -11 2 C-9.54 1.47 -8.09 0.95 -6.62 0.44 C-5.81 0.15 -5 -0.14 -4.16 -0.44 C-2 -1 -2 -1 0 0 Z " fill="#F79C85" transform="translate(828,423)"/>
<path d="M0 0 C-0.33 3.3 -0.66 6.6 -1 10 C-1.33 10 -1.66 10 -2 10 C-1.67 7.36 -1.34 4.72 -1 2 C-5.97 1.64 -5.97 1.64 -10.44 3.5 C-10.95 4 -11.47 4.49 -12 5 C-9.31 -1.21 -6.29 -1.19 0 0 Z " fill="#F7A177" transform="translate(775,367)"/>
<path d="M0 0 C0.99 0.33 1.98 0.66 3 1 C2.67 1.72 2.34 2.44 2 3.19 C0.72 6.29 0.72 6.29 1 11 C4.63 11.33 8.26 11.66 12 12 C12 12.33 12 12.66 12 13 C7.71 13 3.42 13 -1 13 C-1.08 8.48 -1.1 4.41 0 0 Z " fill="#F9AF4C" transform="translate(541,345)"/>
<path d="M0 0 C0.66 0 1.32 0 2 0 C1.34 1.65 0.68 3.3 0 5 C-5.94 5.5 -5.94 5.5 -12 6 C-12 5.34 -12 4.68 -12 4 C-8.04 3.34 -4.08 2.68 0 2 C0 1.34 0 0.68 0 0 Z " fill="#F56628" transform="translate(645,328)"/>
<path d="M0 0 C0.99 0.33 1.98 0.66 3 1 C3 2.98 3 4.96 3 7 C2.01 7 1.02 7 0 7 C-0.33 7.66 -0.66 8.32 -1 9 C-1.62 5.62 -1.62 5.62 -2 2 C-1.34 1.34 -0.68 0.68 0 0 Z " fill="#FAC930" transform="translate(667,316)"/>
<path d="M0 0 C0.33 0.66 0.66 1.32 1 2 C0.69 2.91 0.38 3.81 0.06 4.75 C-1.02 8.05 -1.16 10.56 -1 14 C1.31 14.33 3.62 14.66 6 15 C6 15.33 6 15.66 6 16 C-0.15 16.1 -0.15 16.1 -2 16 C-3 15 -3 15 -3.25 11.38 C-3.22 6.96 -1.96 3.92 0 0 Z " fill="#F79C83" transform="translate(706,369)"/>
<path d="M0 0 C0.1 0.64 0.21 1.28 0.31 1.94 C0.54 2.62 0.77 3.3 1 4 C4.13 5.04 4.99 4.93 8 4 C6.31 6.06 6.31 6.06 4 8 C1.25 7.75 1.25 7.75 -1 7 C-1.62 4.62 -1.62 4.62 -2 2 C-1.34 1.34 -0.68 0.68 0 0 Z " fill="#F990A4" transform="translate(476,352)"/>
<path d="M0 0 C0.66 0 1.32 0 2 0 C2.84 2.92 3.12 5.51 3.1 8.55 C3.09 9.81 3.09 9.81 3.09 11.11 C3.08 11.98 3.07 12.85 3.06 13.75 C3.06 14.64 3.05 15.53 3.05 16.44 C3.04 18.63 3.02 20.81 3 23 C2.67 23 2.34 23 2 23 C2 17.06 2 11.12 2 5 C1.34 5 0.68 5 0 5 C-0.56 3.06 -0.56 3.06 -1 1 C-0.67 0.67 -0.34 0.34 0 0 Z " fill="#F8929E" transform="translate(643,347)"/>
<path d="M0 0 C2 2 2 2 2.5 4.69 C1.8 9.36 -0.75 11.73 -4 15 C-4.66 14.67 -5.32 14.34 -6 14 C-5.38 13.36 -4.76 12.72 -4.12 12.06 C-1.43 8.18 -0.76 4.6 0 0 Z " fill="#F9AF4D" transform="translate(839,366)"/>
<path d="M0 0 C1.98 0 3.96 0 6 0 C6 0.99 6 1.98 6 3 C5.34 3.66 4.68 4.32 4 5 C1.38 4.62 1.38 4.62 -1 4 C-0.67 2.68 -0.34 1.36 0 0 Z " fill="#FAC930" transform="translate(470,367)"/>
<path d="M0 0 C1.32 0.33 2.64 0.66 4 1 C3.13 1.8 3.13 1.8 2.25 2.62 C-0.21 5.23 -2.08 7.98 -4 11 C-4.65 9.23 -4.65 9.23 -5 7 C-4 5.08 -4 5.08 -2.56 3.25 C-2.09 2.64 -1.62 2.02 -1.13 1.39 C-0.76 0.93 -0.38 0.47 0 0 Z " fill="#F6B144" transform="translate(453,281)"/>
<path d="M0 0 C1.46 0.03 1.46 0.03 2.96 0.05 C3.69 0.08 4.43 0.1 5.19 0.12 C5.19 0.45 5.19 0.79 5.19 1.12 C3.94 1.29 3.94 1.29 2.67 1.46 C1.58 1.62 0.49 1.77 -0.62 1.94 C-1.7 2.09 -2.78 2.24 -3.89 2.39 C-6.94 3.16 -7.82 3.83 -9.81 6.12 C-10.47 6.12 -11.13 6.12 -11.81 6.12 C-11.62 4.25 -11.62 4.25 -10.81 2.12 C-7.12 0.23 -4.11 -0.1 0 0 Z " fill="#F9B544" transform="translate(696.8125,397.875)"/>
<path d="M0 0 C1.88 0.69 1.88 0.69 2.88 1.69 C2.92 3.35 2.92 5.02 2.88 6.69 C2.54 5.37 2.22 4.05 1.88 2.69 C-1.84 2.49 -2.9 2.54 -6.12 4.69 C-8.25 4.44 -8.25 4.44 -10.12 3.69 C-10.46 3.03 -10.78 2.37 -11.12 1.69 C-9.73 1.75 -9.73 1.75 -8.31 1.81 C-4.8 1.67 -3.29 -0.48 0 0 Z " fill="#F79D81" transform="translate(541.125,378.3125)"/>
<path d="M0 0 C1.46 -0.08 2.92 -0.14 4.38 -0.19 C5.19 -0.22 6 -0.26 6.84 -0.29 C7.55 -0.2 8.26 -0.1 9 0 C11.11 3.16 11.34 4.51 11.62 8.19 C11.7 9.09 11.77 9.99 11.85 10.92 C11.9 11.61 11.95 12.29 12 13 C11.34 13 10.68 13 10 13 C9.88 11.76 9.75 10.52 9.62 9.25 C9.24 6.12 8.69 3.71 7 1 C4.69 1 2.38 1 0 1 C0 0.67 0 0.34 0 0 Z " fill="#F9AF45" transform="translate(597,321)"/>
<path d="M0 0 C0.99 0.33 1.98 0.66 3 1 C1.9 2.3 0.8 3.59 -0.31 4.88 C-0.93 5.59 -1.54 6.31 -2.18 7.05 C-4 9 -4 9 -7 11 C-7 7.22 -6 6.54 -3.5 3.81 C-2.85 3.1 -2.2 2.38 -1.53 1.64 C-1.03 1.1 -0.52 0.56 0 0 Z " fill="#F9A242" transform="translate(469,300)"/>
<path d="M0 0 C0 4.25 -1.82 6.39 -4 10 C-4.99 10 -5.98 10 -7 10 C-5.61 5.57 -3.39 3.13 0 0 Z " fill="#FA8F32" transform="translate(450,283)"/>
<path d="M0 0 C0 4.04 -1.7 5.72 -4 9 C-5.01 10.66 -6.01 12.32 -7 14 C-7.66 13.67 -8.32 13.34 -9 13 C-8.34 12.34 -7.68 11.68 -7 11 C-6.73 9.89 -6.46 8.77 -6.19 7.62 C-4.85 3.54 -3.53 2.32 0 0 Z " fill="#F79B87" transform="translate(837,408)"/>
<path d="M0 0 C2.97 0.5 2.97 0.5 6 1 C6 1.99 6 2.98 6 4 C4.35 4.66 2.7 5.32 1 6 C1 5.01 1 4.02 1 3 C0.34 3 -0.32 3 -1 3 C-0.67 2.01 -0.34 1.02 0 0 Z " fill="#FAC830" transform="translate(797,397)"/>
<path d="M0 0 C1.9 -0.05 3.79 -0.09 5.69 -0.12 C6.74 -0.15 7.8 -0.17 8.89 -0.2 C12.04 0 14.14 0.73 17 2 C17.66 2 18.32 2 19 2 C19 2.66 19 3.32 19 4 C17.02 4.33 15.04 4.66 13 5 C12.34 4.01 11.68 3.02 11 2 C8.34 1.42 8.34 1.42 5.38 1.31 C4.37 1.25 3.37 1.18 2.34 1.11 C1.57 1.08 0.79 1.04 0 1 C0 0.67 0 0.34 0 0 Z " fill="#F7A07C" transform="translate(691,397)"/>
<path d="M0 0 C2.88 -0.12 2.88 -0.12 6 0 C6.66 0.66 7.32 1.32 8 2 C7.62 4.12 7.62 4.12 7 6 C6.59 5.48 6.17 4.97 5.75 4.44 C5.17 3.96 4.6 3.49 4 3 C1.68 3.28 0.09 3.95 -2 5 C-1.34 3.35 -0.68 1.7 0 0 Z " fill="#F8A95F" transform="translate(574,371)"/>
<path d="M0 0 C1.65 0.33 3.3 0.66 5 1 C4.34 3.97 3.68 6.94 3 10 C2.34 10 1.68 10 1 10 C1.66 7.36 2.32 4.72 3 2 C1.02 2.66 -0.96 3.32 -3 4 C-2.01 2.68 -1.02 1.36 0 0 Z " fill="#F79D81" transform="translate(455,354)"/>
<path d="M0 0 C1.49 0.99 1.49 0.99 3 2 C2.67 2.99 2.34 3.98 2 5 C1.93 7.23 1.92 9.46 1.94 11.69 C1.95 13.46 1.95 13.46 1.96 15.26 C1.98 16.17 1.99 17.07 2 18 C1.34 18 0.68 18 0 18 C-0.73 11.79 -1.23 6.16 0 0 Z " fill="#F6702A" transform="translate(571,283)"/>
<path d="M0 0 C1.32 0.66 2.64 1.32 4 2 C3.67 3.32 3.34 4.64 3 6 C1.68 6 0.36 6 -1 6 C-1.62 4.12 -1.62 4.12 -2 2 C-1.34 1.34 -0.68 0.68 0 0 Z " fill="#FB8E32" transform="translate(667,287)"/>
<path d="M0 0 C1.32 0 2.64 0 4 0 C4 2.31 4 4.62 4 7 C1.52 6.01 1.52 6.01 -1 5 C-0.67 3.35 -0.34 1.7 0 0 Z " fill="#FAC930" transform="translate(583,285)"/>
<path d="M0 0 C2.44 0.75 2.44 0.75 4.44 2.75 C-0.33 3.7 -4.73 3.83 -9.56 3.75 C-8.67 3.32 -8.67 3.32 -7.75 2.88 C-1.82 -0.18 -1.82 -0.18 0 0 Z " fill="#F9AF4D" transform="translate(778.5625,394.25)"/>
<path d="M0 0 C-0.96 2.15 -1.71 3.75 -3.5 5.31 C-5.46 7.52 -5.7 9.3 -6.19 12.19 C-6.35 13.09 -6.5 13.99 -6.67 14.92 C-6.78 15.61 -6.89 16.29 -7 17 C-7.33 17 -7.66 17 -8 17 C-8.38 10.8 -7.4 5.98 -3.44 1.06 C-2 0 -2 0 0 0 Z " fill="#F8919F" transform="translate(710,365)"/>
<path d="M0 0 C0.33 0.66 0.66 1.32 1 2 C-0.19 3.5 -0.19 3.5 -2 5 C-4.69 5.19 -4.69 5.19 -7 5 C-7 3.68 -7 2.36 -7 1 C-3.53 0.5 -3.53 0.5 0 0 Z " fill="#F8AA61" transform="translate(697,362)"/>
<path d="M0 0 C0.66 0 1.32 0 2 0 C2.25 0.95 2.5 1.9 2.75 2.88 C3.69 6.09 3.69 6.09 6.12 7.38 C6.74 7.58 7.36 7.79 8 8 C5.36 8 2.72 8 0 8 C0 5.36 0 2.72 0 0 Z " fill="#F76627" transform="translate(555,325)"/>
<path d="M0 0 C0.33 0 0.66 0 1 0 C1 1.65 1 3.3 1 5 C0.67 5 0.34 5 0 5 C0 3.35 0 1.7 0 0 Z " fill="#FB481D" transform="translate(522,288)"/>
<path d="M0 0 C1 4 1 4 1 4 Z " fill="#FB481D" transform="translate(522,295)"/>
<path d="M0 0 C0.99 0.33 1.98 0.66 3 1 C2.01 1 1.02 1 0 1 C0 0.67 0 0.34 0 0 Z " fill="#F99C32" transform="translate(454,278)"/>
<path d="M0 0 C0.66 0.66 1.32 1.32 2 2 C1.34 2 0.68 2 0 2 C0 1.34 0 0.68 0 0 Z " fill="#FC86C2" transform="translate(480,382)"/>
<path d="M0 0 C0.66 0.66 1.32 1.32 2 2 C1.34 2 0.68 2 0 2 C0 1.34 0 0.68 0 0 Z " fill="#FAC135" transform="translate(877,356)"/>
<path d="M0 0 C3 1 3 1 3 1 Z " fill="#F9BC3C" transform="translate(752,344)"/>
<path d="M0 0 C3 1 3 1 3 1 Z " fill="#1F5F3E" transform="translate(712,320)"/>
<path d="M0 0 C3 1 3 1 3 1 Z " fill="#FB481D" transform="translate(716,280)"/>
<path d="M0 0 C0.33 0.66 0.66 1.32 1 2 C0.34 1.67 -0.32 1.34 -1 1 C-0.67 0.67 -0.34 0.34 0 0 Z " fill="#FB481D" transform="translate(650,214)"/>
<path d="M0 0 C2 1 2 1 2 1 Z " fill="#F9AF4D" transform="translate(429,371)"/>
<path d="M0 0 C2 1 2 1 2 1 Z " fill="#FC86C2" transform="translate(702,357)"/>
<path d="M0 0 C2 1 2 1 2 1 Z " fill="#FC86C2" transform="translate(572,357)"/>
<path d="" fill="#F56628" transform="translate(0,0)"/>
<path d="" fill="#FB481D" transform="translate(0,0)"/>
<path d="" fill="#FB481D" transform="translate(0,0)"/>
<path d="" fill="#FC86C2" transform="translate(0,0)"/>
<path d="" fill="#FC86C2" transform="translate(0,0)"/>
<path d="" fill="#FC86C2" transform="translate(0,0)"/>
<path d="" fill="#FC86C2" transform="translate(0,0)"/>
<path d="" fill="#FC86C2" transform="translate(0,0)"/>
<path d="" fill="#FC86C2" transform="translate(0,0)"/>
<path d="" fill="#FC86C2" transform="translate(0,0)"/>
<path d="" fill="#FC86C2" transform="translate(0,0)"/>
<path d="" fill="#B3818D" transform="translate(0,0)"/>
<path d="" fill="#FC86C2" transform="translate(0,0)"/>
<path d="" fill="#FC86C2" transform="translate(0,0)"/>
<path d="" fill="#F9AF4D" transform="translate(0,0)"/>
<path d="" fill="#F56628" transform="translate(0,0)"/>
<path d="" fill="#FC86C2" transform="translate(0,0)"/>
<path d="" fill="#F56628" transform="translate(0,0)"/>
<path d="" fill="#FB481D" transform="translate(0,0)"/>
<path d="" fill="#FB481D" transform="translate(0,0)"/>
<path d="" fill="#FB481D" transform="translate(0,0)"/>
<path d="" fill="#FB481D" transform="translate(0,0)"/>
<path d="" fill="#FB481D" transform="translate(0,0)"/>
<path d="" fill="#FC86C2" transform="translate(0,0)"/>
<path d="" fill="#FC86C2" transform="translate(0,0)"/>
<path d="" fill="#FABE38" transform="translate(0,0)"/>
<path d="" fill="#FC86C2" transform="translate(0,0)"/>
<path d="" fill="#FABE38" transform="translate(0,0)"/>
<path d="" fill="#FAC930" transform="translate(0,0)"/>
<path d="" fill="#FABE38" transform="translate(0,0)"/>
<path d="" fill="#FB481D" transform="translate(0,0)"/>
<path d="" fill="#FB481D" transform="translate(0,0)"/>
<path d="" fill="#FB481D" transform="translate(0,0)"/>
<path d="" fill="#F56628" transform="translate(0,0)"/>
</svg>
