<?xml version="1.0" encoding="UTF-8"?>
<!-- Generator: visioncortex VTracer 0.6.3 -->
<svg version="1.1" xmlns="http://www.w3.org/2000/svg" width="1280" height="640">
<path d="M0 0 C2.44 2.38 2.44 2.38 4 5 C4 5.66 4 6.32 4 7 C4.91 6.92 5.82 6.83 6.75 6.75 C12.36 6.76 18.03 8.47 23 11 C25.86 14.8 26.35 17.45 26.18 22.15 C26.14 23.32 26.1 24.49 26.05 25.7 C26 26.91 25.94 28.12 25.88 29.38 C25.84 30.58 25.8 31.79 25.77 33.03 C25.27 44.91 25.27 44.91 22 50 C17.11 53.1 12.79 53.57 7.17 53.88 C6.34 53.94 5.51 53.99 4.66 54.05 C2.02 54.24 -0.61 54.4 -3.25 54.56 C-5.9 54.73 -8.55 54.9 -11.2 55.08 C-12.84 55.19 -14.49 55.3 -16.13 55.39 C-20.53 55.54 -20.53 55.54 -24 58 C-24 59.32 -24 60.64 -24 62 C-23.01 62.33 -22.02 62.66 -21 63 C-19 65.75 -19 65.75 -17 69 C-16.29 70.11 -16.29 70.11 -15.56 71.25 C-14.12 73.79 -12.73 76.35 -11.38 78.94 C-10.95 79.75 -10.52 80.56 -10.09 81.4 C-6.25 90.58 -6.64 103.68 -10 113 C-11.44 115.19 -11.44 115.19 -13 117 C-13.68 118.45 -13.68 118.45 -14.38 119.94 C-17.95 126.67 -23.45 129.66 -30 133 C-30.94 133.53 -31.89 134.06 -32.86 134.61 C-36.33 136.15 -38.97 136.5 -42.75 136.69 C-43.88 136.75 -45.01 136.82 -46.17 136.89 C-81.19 137.92 -81.19 137.92 -92 129 C-94.87 124.37 -95.47 121.37 -94.63 116.11 C-92.95 110.47 -87.49 107.91 -82.67 105.21 C-80.68 104.02 -80.68 104.02 -80 101 C-79.42 101.02 -78.84 101.05 -78.24 101.07 C-74.53 101.16 -71.55 101.18 -68 100 C-63.96 98.65 -60.22 98.83 -56 99 C-56.62 99.58 -57.24 100.15 -57.88 100.75 C-60.05 102.79 -60.05 102.79 -60.84 105 C-62.39 107.66 -63.93 108.14 -66.75 109.31 C-71.94 111.72 -74.6 114.44 -78 119 C-76.1 122.52 -74.51 125 -71 127 C-62.58 129.26 -52.26 128.75 -44 126 C-41.58 124.25 -41.58 124.25 -40 122 C-39.34 121.36 -38.68 120.72 -38 120.06 C-37.34 119.38 -36.68 118.7 -36 118 C-35.31 117.39 -34.61 116.78 -33.9 116.15 C-30.9 111.17 -31.5 106.2 -31.62 100.5 C-31.63 99.37 -31.63 98.24 -31.63 97.08 C-31.55 88.27 -31.55 88.27 -36 81 C-39.18 80.65 -39.18 80.65 -41.31 83.25 C-42.2 84.16 -43.09 85.06 -44 86 C-48.39 89.69 -51.35 90.45 -56.89 90.21 C-59 90 -59 90 -61.81 89.38 C-64.6 88.9 -65.55 89.67 -68 91 C-74.16 92.4 -81.35 93.32 -87 90 C-88.13 87.92 -88.13 87.92 -89 86 C-96.12 86.21 -102.6 86.61 -109.31 89.12 C-114.52 91 -118.7 92.02 -124 90 C-129.72 86.41 -132.92 82.37 -135 76 C-135.42 76.51 -135.85 77.02 -136.29 77.54 C-147.43 90.61 -147.43 90.61 -154.25 91.19 C-155.11 91.22 -155.97 91.25 -156.86 91.28 C-157.81 91.32 -158.76 91.36 -159.74 91.39 C-161.23 91.45 -161.23 91.45 -162.75 91.5 C-170.39 91.72 -170.39 91.72 -177.97 92.57 C-181.85 93.12 -184.38 92.46 -188 91 C-189.94 89.12 -189.94 89.12 -191 87 C-191 85.68 -191 84.36 -191 83 C-191.66 83 -192.32 83 -193 83 C-193.04 83.91 -193.08 84.81 -193.12 85.75 C-194 89 -194 89 -196.69 91.31 C-203.19 94.63 -207.18 93.95 -213.93 91.79 C-216 91 -216 91 -217 90 C-218.95 90.22 -218.95 90.22 -220.94 90.44 C-226.09 91 -231.2 91.18 -236.38 91.25 C-237.16 91.27 -237.94 91.29 -238.75 91.31 C-243.24 91.34 -245.66 91.01 -249 88 C-252.5 87.42 -252.5 87.42 -256 88 C-258.1 89.85 -258.1 89.85 -260 92 C-264.84 94.31 -268.9 94.29 -274 93 C-277.55 91.3 -278.79 90.31 -281 87 C-281 85.68 -281 84.36 -281 83 C-284.76 84.99 -287.55 86.53 -290.5 89.62 C-294.13 93.08 -297.43 94 -302.43 94 C-307.83 93.61 -312.18 92.62 -317 90 C-318.7 87.66 -319.83 85.82 -321 83.25 C-321.31 82.65 -321.62 82.06 -321.94 81.45 C-324.12 76.94 -324.2 73.81 -323 69 C-321.12 65.94 -321.12 65.94 -319 63 C-318.61 61.93 -318.22 60.86 -317.81 59.75 C-316 57 -316 57 -313.88 56.32 C-311.44 55.88 -311.44 55.88 -309.06 55.62 C-306.81 55.2 -306.81 55.2 -305.85 53.01 C-305.57 52.35 -305.29 51.68 -305 51 C-302.08 49.54 -299.44 49.79 -296.19 49.75 C-294.35 49.71 -294.35 49.71 -292.48 49.67 C-288.77 50.02 -286.93 50.76 -284 53 C-283.5 54.05 -283.5 54.05 -283 55.12 C-282.5 56.05 -282.5 56.05 -282 57 C-279.47 57.65 -279.47 57.65 -277 58 C-277.19 57.32 -277.38 56.65 -277.58 55.95 C-278.24 53.28 -278.78 50.75 -279 48 C-277.26 45.26 -276.16 44.36 -273.09 43.41 C-268.97 42.6 -264.65 43.01 -260.46 43.13 C-254.93 43.21 -249.53 42.98 -245 39.44 C-242.03 37.3 -239.62 37.06 -236 37 C-233.56 38.44 -233.56 38.44 -232 41 C-231.77 43.69 -231.91 46.29 -232 49 C-231.34 49.66 -230.68 50.32 -230 51 C-226.9 50.68 -226.9 50.68 -224 50 C-223.83 49.19 -223.66 48.38 -223.48 47.55 C-221.08 36.96 -221.08 36.96 -217 33 C-216.26 32.11 -215.51 31.23 -214.75 30.31 C-211.19 27.32 -208.53 26.85 -204 26 C-200.14 30.02 -199.52 32.53 -199.61 38.05 C-199.62 38.71 -199.62 39.37 -199.63 40.05 C-199.65 42.14 -199.7 44.22 -199.75 46.31 C-199.77 47.74 -199.79 49.16 -199.8 50.58 C-199.85 54.05 -199.92 57.53 -200 61 C-198.51 61.5 -198.51 61.5 -197 62 C-196.79 61.38 -196.59 60.76 -196.38 60.12 C-194.39 57.05 -192.52 56.8 -189 56 C-184.25 55.66 -180.21 55.66 -176 58 C-174.3 60.88 -173.1 63.85 -172 67 C-171.46 66.72 -170.91 66.45 -170.36 66.16 C-169.28 65.62 -169.28 65.62 -168.19 65.06 C-167.48 64.7 -166.77 64.34 -166.04 63.97 C-160.95 61.55 -155.86 61.76 -150.34 61.75 C-146.21 61.61 -144.49 61.4 -141.18 58.71 C-140.1 57.37 -140.1 57.37 -139 56 C-138.38 55.31 -137.76 54.62 -137.12 53.9 C-136.57 53.25 -136.01 52.61 -135.44 51.94 C-127.86 43.24 -127.86 43.24 -123 42 C-118.46 42.24 -115.27 42.73 -112 46 C-111.06 48.82 -110.88 50.53 -110.9 53.45 C-110.91 54.3 -110.91 55.14 -110.91 56.02 C-110.92 56.9 -110.93 57.78 -110.94 58.69 C-110.94 59.58 -110.95 60.47 -110.95 61.39 C-110.96 63.6 -110.98 65.8 -111 68 C-107.95 67.24 -107.95 67.24 -106.2 65.11 C-101.57 60.66 -94.56 58.3 -88.21 57.77 C-82.78 58.14 -77.36 59.63 -73 63 C-70.83 66.5 -70.47 69.93 -70 74 C-69.59 73.09 -69.17 72.19 -68.75 71.25 C-67.07 68.14 -65.54 66.39 -63 64 C-62.4 63.07 -61.8 62.14 -61.19 61.19 C-59 59 -59 59 -55.5 58.88 C-51.38 60.2 -50.38 61.47 -48 65 C-46.69 66.35 -45.36 67.69 -44 69 C-43.73 68.05 -43.46 67.1 -43.19 66.12 C-42 63 -42 63 -39 61 C-38.67 60.01 -38.34 59.02 -38 58 C-38.66 57.67 -39.32 57.34 -40 57 C-37.69 56.34 -35.38 55.68 -33 55 C-34.01 54.95 -35.03 54.9 -36.07 54.85 C-37.42 54.78 -38.77 54.7 -40.12 54.62 C-41.12 54.58 -41.12 54.58 -42.14 54.53 C-46.4 54.28 -50.08 53.71 -54 52 C-56.38 48.88 -56.38 48.88 -58 46 C-57.34 46 -56.68 46 -56 46 C-56.02 44.7 -56.05 43.39 -56.07 42.05 C-56.42 15.13 -56.42 15.13 -49.98 7.41 C-46.72 5.09 -43.43 5.26 -39.53 5.21 C-36.76 5.23 -36.76 5.23 -34.44 2.81 C-32 1 -32 1 -29.77 1.18 C-28.02 1.57 -26.29 1.97 -24.55 2.4 C-15.43 4.54 -8.75 -1.32 0 0 Z M-265.12 52 C-265.74 52.66 -266.36 53.32 -267 54 C-266.25 57.28 -266.25 57.28 -263 59 C-259.92 59 -259.92 59 -257 58 C-255.56 56.05 -255.56 56.05 -255 54 C-260.05 49.72 -260.05 49.72 -265.12 52 Z M-238 60 C-240.61 66.84 -239.39 75.29 -237 82 C-234.69 82 -232.38 82 -230 82 C-226.04 75.56 -226.29 69.69 -227.81 62.5 C-228.2 61.35 -228.6 60.19 -229 59 C-232.81 57.73 -234.39 58.35 -238 60 Z M-302 65 C-304.7 69.06 -304.42 72.24 -304 77 C-303.12 80.41 -303.12 80.41 -302 83 C-297.96 81.5 -295.04 78.76 -293 75 C-292.59 72.19 -292.75 69.86 -293 67 C-296.37 65.5 -298.2 65 -302 65 Z M-154 72 C-154 73.32 -154 74.64 -154 76 C-153.34 75.67 -152.68 75.34 -152 75 C-152.33 74.01 -152.66 73.02 -153 72 C-153.33 72 -153.66 72 -154 72 Z " fill="#000202" transform="translate(848,262)"/>
<path d="M0 0 C0.66 0 1.32 0 2 0 C4.66 0.58 6.01 1.58 8 3.44 C9.16 5.6 9.16 5.6 10.06 8.06 C10.39 8.95 10.72 9.84 11.06 10.75 C11.37 11.64 11.68 12.52 12 13.44 C12.28 14.22 12.56 15 12.85 15.81 C14.51 20.63 15.83 25.48 17 30.44 C17.5 28.95 17.5 28.95 18 27.44 C20.22 22.4 23.44 18.54 28 15.44 C31.7 14.35 35.17 14.38 39 14.44 C40.78 14.37 40.78 14.37 42.61 14.3 C53.48 13.98 53.48 13.98 59 17.44 C59.88 20.12 59.88 20.12 60 22.44 C60.66 22.44 61.32 22.44 62 22.44 C62.15 21.05 62.15 21.05 62.31 19.62 C63.04 16.26 63.4 15.5 66 13.44 C72.36 11.38 79.06 12.61 85 15.44 C86.95 18.36 87.45 20.06 88 23.44 C89.98 23.77 91.96 24.1 94 24.44 C95.3 18.15 95.3 18.15 93 12.44 C99.08 10.08 99.08 10.08 103.5 11.81 C105.23 12.62 105.23 12.62 107 13.44 C112.11 13.96 114.04 13.48 118 10.44 C122.41 10.81 125.57 12.74 129.31 15 C130.38 15.64 131.45 16.28 132.55 16.94 C133.36 17.44 134.17 17.93 135 18.44 C134.2 19.22 133.39 20 132.56 20.81 C130.01 23.16 130.01 23.16 129 25.44 C131.97 25.44 134.94 25.44 138 25.44 C138.15 23.8 138.15 23.8 138.31 22.12 C139.17 17.53 139.17 17.53 142 15.44 C145.41 14.69 148.58 14.74 152 15.44 C154.36 17.24 155.39 18.87 157 21.44 C157.6 21.11 158.2 20.78 158.81 20.44 C161 19.44 161 19.44 164 19.44 C164.33 18.45 164.66 17.46 165 16.44 C168.67 14.6 170.67 14.38 174.75 15.06 C178 16.44 178 16.44 179.44 18.56 C179.62 19.18 179.81 19.8 180 20.44 C183.56 19.85 183.56 19.85 186.81 18.38 C190.21 16.92 193.43 16.65 197 17.44 C200.91 20.68 202.18 22.92 202.69 27.94 C202.73 28.71 202.76 29.47 202.8 30.27 C202.92 32.68 202.92 32.68 204.31 35.69 C204.54 36.6 204.77 37.5 205 38.44 C203.31 40.87 203.31 40.87 201 43.44 C200.57 44.51 200.13 45.58 199.69 46.69 C196.57 54.4 191.44 59.92 184 63.44 C183.07 63.99 182.14 64.55 181.19 65.12 C171.62 69.06 156.56 68.94 146.88 65.24 C143.25 63.02 141.4 61.35 139.69 57.44 C140.11 53.36 141.28 51.5 144 48.44 C147.23 46.48 150.18 45.44 154 45.44 C152.47 40.63 152.47 40.63 149 37.44 C142.11 36.95 135.31 37.7 128.5 38.69 C127.61 38.8 126.72 38.91 125.8 39.02 C124.52 39.2 124.52 39.2 123.22 39.39 C122.07 39.55 122.07 39.55 120.9 39.71 C118.85 40.29 118.85 40.29 117.78 42.27 C116.86 44.66 116.86 44.66 116.25 48.19 C115.11 53.03 112.59 57 109 60.44 C106.8 61.16 106.8 61.16 105 61.44 C101 57.57 100.5 54.55 100.29 49.24 C100.28 48.38 100.26 47.52 100.25 46.62 C100.22 45.74 100.19 44.86 100.16 43.95 C100.09 41.78 100.04 39.61 100 37.44 C97.2 38 94.41 38.59 91.62 39.19 C90.83 39.34 90.04 39.5 89.22 39.66 C84.76 40.54 84.76 40.54 81.38 43.33 C80.92 45.89 81.29 47.03 82.38 49.38 C83.7 52.55 84.6 54.95 84 58.44 C82.4 60.46 81.37 61.33 78.88 62.05 C72.64 62.75 72.64 62.75 69.44 61.19 C68 59.44 68 59.44 68 56.44 C67.01 56.11 66.02 55.78 65 55.44 C64.05 53.48 64.05 53.48 63.31 51.06 C63.06 50.27 62.81 49.48 62.55 48.66 C62 46.44 62 46.44 62 43.44 C61.44 43.46 60.89 43.48 60.31 43.51 C54.19 43.65 48.29 43.37 42.88 40.19 C39.95 39.02 37.9 40.41 35 41.44 C28.81 41.97 28.81 41.97 25.81 40 C25.21 39.48 24.62 38.97 24 38.44 C22.68 38.06 21.34 37.72 20 37.44 C20.06 38.53 20.12 39.63 20.18 40.76 C20.22 42.22 20.27 43.67 20.31 45.12 C20.35 45.85 20.4 46.57 20.44 47.31 C20.53 51.48 20.36 52.98 17.69 56.38 C14.2 59.05 12.4 59.66 8 59.44 C2.87 57.05 -0.1 53.89 -2.25 48.69 C-2.63 47.55 -2.63 47.55 -3.02 46.39 C-4.3 43.85 -5.32 43.33 -8 42.44 C-14.07 42.13 -19.11 43.55 -24.31 46.6 C-26 47.44 -26 47.44 -29 47.44 C-29.17 48.08 -29.34 48.71 -29.52 49.37 C-29.76 50.2 -30 51.02 -30.25 51.88 C-30.48 52.7 -30.71 53.52 -30.95 54.37 C-32 56.44 -32 56.44 -33.86 57.36 C-38.75 57.54 -42.98 53.35 -46.44 50.25 C-47.28 49.32 -48.13 48.39 -49 47.44 C-49.74 46.63 -50.47 45.83 -51.23 45 C-60 35.39 -60 35.39 -60 31.44 C-60.62 31.19 -61.23 30.93 -61.87 30.68 C-64.37 29.23 -64.91 28.23 -66.06 25.62 C-67.17 23.18 -68.17 21.2 -69.75 19 C-71.61 15.2 -71.6 11.59 -71 7.44 C-69.5 4.88 -69.5 4.88 -68 3.44 C-63.43 3.97 -60.54 5.5 -57 8.44 C-55.8 10.38 -54.87 12.33 -53.94 14.41 C-52.6 17.3 -50.79 19.82 -49 22.44 C-48.65 23.16 -48.3 23.88 -47.94 24.62 C-47.09 26.48 -47.09 26.48 -45.63 27.8 C-43.27 30.17 -41.44 32.88 -39.5 35.6 C-37.95 37.68 -37.95 37.68 -35 39.44 C-32.81 39.54 -32.81 39.54 -30.5 39.19 C-29.73 39.1 -28.95 39.01 -28.16 38.92 C-25.72 38.51 -25.72 38.51 -23 36.44 C-19.36 35.82 -15.72 35.42 -12.05 35 C-11.05 34.81 -10.04 34.63 -9 34.44 C-7.6 31.64 -7.96 29.39 -8.04 26.26 C-8.07 24.4 -8.07 24.4 -8.11 22.5 C-8.16 19.88 -8.23 17.26 -8.3 14.64 C-8.33 12.78 -8.33 12.78 -8.36 10.88 C-8.4 9.17 -8.4 9.17 -8.44 7.43 C-7.73 2.58 -4.96 -0.15 0 0 Z M162 50.44 C160.46 52.71 159.25 54.98 158 57.44 C160.73 59.71 160.73 59.71 163.39 59.25 C166.25 58.36 168.25 57.16 170.69 55.44 C174.92 52.48 174.92 52.48 177 51.44 C176.67 50.12 176.34 48.8 176 47.44 C168.44 46.9 168.44 46.9 162 50.44 Z " fill="#000202" transform="translate(582,227.5625)"/>
<path d="M0 0 C5.44 0.03 8.48 3.05 12.44 6.44 C15.33 8.36 16.43 8.77 19.71 9.22 C20.54 9.34 21.36 9.46 22.21 9.58 C23.07 9.7 23.93 9.82 24.81 9.94 C38.72 11.86 38.72 11.86 42.69 16.88 C46.83 22.68 47.15 30.3 46.19 37.25 C44.86 41.13 42.95 44.6 39.3 46.62 C38.69 46.89 38.07 47.16 37.44 47.44 C38.6 47.55 39.75 47.66 40.95 47.77 C42.48 47.93 44.02 48.09 45.56 48.25 C46.32 48.32 47.08 48.39 47.87 48.46 C52.67 48.98 56.19 49.99 60.44 52.44 C61.2 52.83 61.96 53.21 62.75 53.61 C69.32 57.12 75.6 60.49 78.5 67.69 C79.88 72.71 79.5 77.65 77.44 82.44 C75.44 84.06 75.44 84.06 73.44 85.44 C72.96 86.3 72.49 87.17 72 88.06 C70.44 90.44 70.44 90.44 67.88 91 C66.67 91.22 66.67 91.22 65.44 91.44 C64.31 93.27 64.31 93.27 63.44 95.44 C62.35 96.43 62.35 96.43 61.25 97.44 C60.65 98.1 60.05 98.76 59.44 99.44 C59.8 101.32 59.8 101.32 60.44 103.44 C61.01 110.44 60.66 117.07 57.44 123.44 C56.47 124.47 55.47 125.47 54.44 126.44 C53.66 127.52 53.66 127.52 52.88 128.62 C52.4 129.22 51.93 129.82 51.44 130.44 C50.78 130.44 50.12 130.44 49.44 130.44 C49.44 131.1 49.44 131.76 49.44 132.44 C48.8 132.57 48.16 132.7 47.5 132.84 C46.26 133.1 46.26 133.1 45 133.38 C44.18 133.55 43.35 133.72 42.5 133.9 C40.46 134.25 40.46 134.25 39.44 135.44 C35.94 135.56 35.94 135.56 32.44 135.44 C32.11 135.11 31.78 134.78 31.44 134.44 C29.52 134.25 29.52 134.25 27.56 134.06 C23.68 133.63 23.68 133.63 21.56 131.94 C21.19 131.44 20.82 130.95 20.44 130.44 C19.78 130.11 19.12 129.78 18.44 129.44 C18.44 128.78 18.44 128.12 18.44 127.44 C17.86 127.21 17.28 126.98 16.69 126.75 C13.8 125.07 12.42 123.14 10.44 120.44 C10.01 119.87 9.58 119.31 9.14 118.73 C5.56 113.91 5.56 113.91 4.75 110.85 C3.59 108.08 3.59 108.08 0.14 107.21 C-1.2 106.91 -2.53 106.63 -3.88 106.38 C-9.01 105.33 -12.64 104.09 -16.56 100.44 C-16.13 95.5 -14.18 92.75 -10.56 89.44 C-8.59 89.2 -8.59 89.2 -6.5 89.31 C-2.66 89.83 -2.66 89.83 -0.43 87.93 C1.98 84.71 2.57 81.5 3.31 77.62 C4.74 71.07 6.3 67.02 11.44 62.44 C14.46 60.93 17.1 61.26 20.44 61.44 C23.2 62.45 24.12 62.8 25.44 65.44 C25.58 67 25.66 68.56 25.72 70.12 C25.76 71.05 25.79 71.98 25.83 72.93 C25.88 74.39 25.88 74.39 25.94 75.88 C26.01 77.79 26.08 79.71 26.16 81.62 C26.19 82.47 26.22 83.32 26.25 84.2 C26.36 86.61 26.36 86.61 27.44 89.44 C31 89.16 34.56 88.86 38.12 88.56 C39.13 88.48 40.14 88.41 41.18 88.32 C42.15 88.24 43.13 88.16 44.14 88.07 C45.48 87.96 45.48 87.96 46.85 87.85 C51.29 87.14 54.45 85.99 57.12 82.31 C57.89 81.36 58.65 80.42 59.44 79.44 C60.1 79.44 60.76 79.44 61.44 79.44 C61.19 73.66 60.91 69.55 56.44 65.44 C54.46 64.39 52.46 63.39 50.44 62.44 C49.98 61.95 49.53 61.45 49.06 60.95 C47 59.03 45.27 58.63 42.56 57.94 C38.78 56.88 35.63 55.81 32.44 53.44 C32.11 52.78 31.78 52.12 31.44 51.44 C30.28 51.38 29.12 51.32 27.93 51.25 C26.39 51.17 24.85 51.08 23.31 51 C22.55 50.96 21.79 50.92 21.01 50.88 C16.75 50.64 12.63 50.24 8.44 49.44 C8.39 50.21 8.34 50.98 8.3 51.78 C7.44 54.44 7.44 54.44 4.89 55.84 C3.31 56.39 3.31 56.39 1.69 56.94 C-3.27 58.81 -6.35 60.22 -9.56 64.44 C-10.85 68.31 -10.22 69.75 -8.56 73.44 C-6.07 75.8 -6.07 75.8 -3.56 77.44 C-3.94 79.38 -3.94 79.38 -4.56 81.44 C-7.9 83.1 -10.97 83.02 -14.56 82.44 C-20.53 80.37 -26.27 78.09 -29.38 72.31 C-30.67 69.29 -30.65 67.53 -29.56 64.44 C-26.99 58.79 -24.22 55.63 -18.43 53.32 C-16.33 52.33 -15.15 51.11 -13.56 49.44 C-11.38 48.25 -11.38 48.25 -9.56 47.44 C-9.23 48.1 -8.9 48.76 -8.56 49.44 C-5.26 48.78 -1.96 48.12 1.44 47.44 C0.26 47.15 -0.91 46.86 -2.12 46.56 C-4.71 45.92 -7.26 45.24 -9.81 44.5 C-14.09 43.29 -18.39 42.22 -22.71 41.16 C-24.89 40.61 -27.04 39.98 -29.19 39.31 C-32.2 38.53 -34.55 38.36 -37.62 38.25 C-41.45 37.91 -43.38 37.28 -46 34.44 C-50.15 28.71 -52.3 21.46 -52.56 14.44 C-51.21 11.09 -49.56 8.44 -47.56 5.44 C-45.35 4.91 -45.35 4.91 -42.61 4.71 C-41.1 4.59 -41.1 4.59 -39.56 4.46 C-38.49 4.39 -37.42 4.32 -36.31 4.25 C-35.23 4.17 -34.14 4.09 -33.02 4 C-26.08 3.51 -19.23 3.28 -12.27 3.56 C-7.51 3.34 -4.48 0.55 0 0 Z M-4.56 42.44 C-0.56 43.44 -0.56 43.44 -0.56 43.44 Z M28.44 106.44 C26.7 109.92 27.57 113.74 28.44 117.44 C30.23 119.73 30.23 119.73 32.44 121.44 C33.48 123.08 34.49 124.74 35.44 126.44 C40.17 123.88 42.43 121.61 44.69 116.75 C45.64 112.54 45.53 108.63 44.44 104.44 C39 101.72 33.29 103.36 28.44 106.44 Z " fill="#000202" transform="translate(460.5625,224.5625)"/>
<path d="M0 0 C2.44 2.38 2.44 2.38 4 5 C4 5.66 4 6.32 4 7 C5.36 6.88 5.36 6.88 6.75 6.75 C12.36 6.76 18.03 8.47 23 11 C25.86 14.8 26.35 17.45 26.18 22.15 C26.14 23.32 26.1 24.49 26.05 25.7 C25.97 27.52 25.97 27.52 25.88 29.38 C25.84 30.58 25.8 31.79 25.77 33.03 C25.27 44.91 25.27 44.91 22 50 C17.11 53.09 12.79 53.58 7.17 53.91 C6.34 53.97 5.51 54.03 4.66 54.1 C2.02 54.28 -0.61 54.46 -3.25 54.62 C-5.9 54.8 -8.55 54.99 -11.2 55.18 C-12.84 55.29 -14.49 55.4 -16.13 55.51 C-20.2 55.7 -20.2 55.7 -24 57 C-26.04 57.07 -28.08 57.08 -30.12 57.06 C-31.22 57.05 -32.32 57.04 -33.45 57.04 C-34.29 57.02 -35.13 57.01 -36 57 C-35.01 56.34 -34.02 55.68 -33 55 C-34.01 54.95 -35.03 54.9 -36.07 54.85 C-37.42 54.78 -38.77 54.7 -40.12 54.62 C-41.12 54.58 -41.12 54.58 -42.14 54.53 C-46.4 54.28 -50.08 53.71 -54 52 C-56.38 48.88 -56.38 48.88 -58 46 C-57.34 46 -56.68 46 -56 46 C-56.02 44.7 -56.05 43.39 -56.07 42.05 C-56.42 15.13 -56.42 15.13 -49.98 7.41 C-46.72 5.09 -43.43 5.26 -39.53 5.21 C-36.76 5.23 -36.76 5.23 -34.44 2.81 C-32 1 -32 1 -29.77 1.18 C-28.02 1.57 -26.29 1.97 -24.55 2.4 C-15.43 4.54 -8.75 -1.32 0 0 Z " fill="#EA939B" transform="translate(848,262)"/>
<path d="M0 0 C5.44 0.03 8.48 3.05 12.44 6.44 C15.33 8.36 16.43 8.77 19.71 9.22 C20.54 9.34 21.36 9.46 22.21 9.58 C23.07 9.7 23.93 9.82 24.81 9.94 C38.72 11.86 38.72 11.86 42.69 16.88 C46.76 22.58 46.44 28.68 46.44 35.44 C45.87 38.45 45.21 39.78 43.44 42.44 C41.41 42.83 41.41 42.83 38.88 42.85 C37.47 42.88 37.47 42.88 36.02 42.9 C35 42.91 33.97 42.91 32.92 42.91 C31.34 42.94 31.34 42.94 29.73 42.96 C26.36 43.01 22.99 43.04 19.62 43.06 C16.27 43.1 12.91 43.14 9.55 43.19 C7.46 43.21 5.36 43.23 3.27 43.25 C1.84 43.26 1.84 43.26 0.38 43.28 C-0.46 43.29 -1.29 43.29 -2.15 43.3 C-4.61 43.38 -4.61 43.38 -7.14 43.99 C-10.77 44.66 -13.95 43.59 -17.44 42.62 C-18.46 42.36 -18.46 42.36 -19.5 42.08 C-22.78 41.22 -26.02 40.3 -29.25 39.31 C-32.22 38.53 -34.59 38.27 -37.62 38.25 C-41.45 37.91 -43.38 37.28 -46 34.44 C-50.15 28.71 -52.3 21.46 -52.56 14.44 C-51.21 11.09 -49.56 8.44 -47.56 5.44 C-45.35 4.91 -45.35 4.91 -42.61 4.71 C-41.1 4.59 -41.1 4.59 -39.56 4.46 C-38.49 4.39 -37.42 4.32 -36.31 4.25 C-35.23 4.17 -34.14 4.09 -33.02 4 C-26.08 3.51 -19.23 3.28 -12.27 3.56 C-7.51 3.34 -4.48 0.55 0 0 Z " fill="#AED3C0" transform="translate(460.5625,224.5625)"/>
<path d="M0 0 C1.76 1.63 1.76 1.63 3 3 C1.49 7.24 -1.31 8.64 -5 11 C-5.7 11.7 -6.4 12.4 -7.12 13.12 C-9.02 15.02 -10.62 15.85 -13 17 C-13.43 17.45 -13.87 17.91 -14.31 18.38 C-16.4 20.38 -18.77 21.57 -21.3 22.96 C-23.54 24.33 -25.18 26.12 -27 28 C-27.64 28.31 -28.28 28.62 -28.94 28.94 C-31.25 29.97 -31.25 29.97 -33.25 32.56 C-37.03 35.91 -38.98 36.08 -44 36 C-47.48 33.72 -48.34 31.32 -49.2 27.41 C-49.52 25.63 -49.83 23.85 -50.12 22.06 C-51.29 14.3 -51.29 14.3 -54 7 C-54.66 6.67 -55.32 6.34 -56 6 C-55.34 5.01 -54.68 4.02 -54 3 C-54.02 2.03 -54.04 1.06 -54.06 0.06 C-53.99 -3.45 -53.5 -4.59 -51 -7 C-36.67 -11.6 -13.02 -7.34 0 0 Z " fill="#ECBA46" transform="translate(539,370)"/>
<path d="M0 0 C3.03 7.07 -0.12 16.44 -2.25 23.48 C-3.38 27.72 -3.87 32.02 -4.38 36.37 C-5.06 39.54 -6.2 41.65 -8.01 44.32 C-12.93 43.82 -16.85 43.09 -21.01 40.32 C-21.88 37.63 -21.88 37.63 -22.01 35.32 C-22.56 35.25 -23.12 35.19 -23.7 35.13 C-26.97 33.98 -28.6 31.8 -31.01 29.32 C-32.23 28.11 -32.23 28.11 -33.47 26.89 C-36 24.38 -38.51 21.85 -41.01 19.32 C-41.66 18.67 -42.31 18.02 -42.99 17.36 C-45.86 14.34 -46.92 12.85 -47.63 8.63 C-46.89 4.71 -46.27 3.57 -43.01 1.32 C-36.52 -1.04 -29.91 -1.37 -23.07 -1.87 C-21.36 -2.01 -21.36 -2.01 -19.61 -2.16 C-3.98 -3.34 -3.98 -3.34 0 0 Z " fill="#AED2C0" transform="translate(736.0078125,370.68359375)"/>
<path d="M0 0 C1.27 0.01 1.27 0.01 2.56 0.02 C3.43 0.04 4.3 0.05 5.2 0.07 C6.54 0.08 6.54 0.08 7.89 0.1 C10.08 0.12 12.27 0.15 14.45 0.2 C14.45 0.86 14.45 1.52 14.45 2.2 C18.86 3.24 23.25 4.18 27.73 4.89 C28.49 5.01 29.24 5.14 30.02 5.26 C31.54 5.51 33.07 5.74 34.6 5.97 C40.01 6.84 40.01 6.84 42.46 8.79 C42.95 9.49 42.95 9.49 43.45 10.2 C43 11.68 42.54 13.16 42.08 14.63 C41.7 15.87 41.7 15.87 41.3 17.13 C40.45 19.2 40.45 19.2 38.45 20.2 C36.78 19.92 35.11 19.59 33.45 19.2 C33.45 20.19 33.45 21.18 33.45 22.2 C31.8 22.53 30.15 22.86 28.45 23.2 C27.96 24.68 27.96 24.68 27.45 26.2 C24.76 27.51 24.76 27.51 21.33 28.76 C20.16 29.19 18.98 29.61 17.78 30.05 C14.35 31.23 10.96 32.3 7.45 33.2 C7.45 33.86 7.45 34.52 7.45 35.2 C-3.98 41.2 -3.98 41.2 -9.55 41.2 C-9.55 40.54 -9.55 39.88 -9.55 39.2 C-10.87 38.87 -12.19 38.54 -13.55 38.2 C-13.93 34.87 -14.26 31.53 -14.55 28.2 C-14.62 27.48 -14.68 26.77 -14.75 26.03 C-15.06 20.43 -13.21 16.9 -10.55 12.2 C-8.9 8.64 -8.32 6.12 -8.55 2.2 C-5.56 0.47 -3.44 -0.05 0 0 Z " fill="#EFB7B3" transform="translate(434.546875,350.8046875)"/>
<path d="M0 0 C0.93 0.04 1.86 0.08 2.81 0.12 C3.8 0.18 4.79 0.24 5.81 0.3 C7.33 0.39 7.33 0.39 8.89 0.47 C15.59 0.88 22.23 1.55 28.87 2.55 C30.03 2.73 30.03 2.73 31.22 2.9 C35.47 3.61 38.79 4.56 42.25 7.18 C43.31 9.62 43.31 9.62 43.25 12.18 C41.62 14.18 41.62 14.18 39.25 16.18 C36.45 18.83 34.25 21.17 32.18 24.43 C30.01 27.52 29.63 27.39 26.25 28.18 C25.56 29.84 24.89 31.51 24.25 33.18 C21.81 35.8 21.81 35.8 19.25 38.18 C18.79 38.69 18.34 39.2 17.88 39.72 C15.88 41.51 14.11 42.09 11.56 42.87 C10.75 43.12 9.94 43.37 9.11 43.63 C8.49 43.81 7.88 43.99 7.25 44.18 C3.39 39.91 1.4 35.43 -0.75 30.18 C-1.59 28.16 -2.42 26.14 -3.25 24.12 C-3.88 22.59 -3.88 22.59 -4.51 21.04 C-5.6 18.55 -6.8 16.23 -8.13 13.87 C-10.09 10.04 -10.06 7.34 -8.75 3.18 C-5.86 0.41 -3.96 -0.19 0 0 Z " fill="#AFD4C2" transform="translate(564.75390625,370.8203125)"/>
<path d="M0 0 C1.3 -0.03 2.6 -0.06 3.93 -0.09 C5.16 -0.1 6.38 -0.11 7.64 -0.11 C9.3 -0.14 9.3 -0.14 10.99 -0.16 C13.75 0.31 13.75 0.31 15.64 2.21 C16.75 4.31 16.75 4.31 16.62 6.38 C15.75 8.31 15.75 8.31 14.32 9.69 C12.63 11.44 11.81 12.98 10.81 15.19 C8.81 19.33 6.31 22.54 3.27 26 C2.75 26.6 2.23 27.19 1.69 27.81 C1.17 28.41 0.65 29 0.11 29.61 C-1.4 31.38 -1.4 31.38 -2.56 34 C-5.22 37.64 -9.12 38.76 -13.25 40.31 C-20.09 35.69 -23.71 28.56 -27.25 21.31 C-28.3 19.8 -28.3 19.8 -29.38 18.25 C-31.17 15.44 -31.87 13.58 -32.25 10.31 C-33.24 9.98 -34.23 9.65 -35.25 9.31 C-35.58 7.33 -35.91 5.35 -36.25 3.31 C-24.91 -0.85 -11.94 0.15 0 0 Z " fill="#F2B9B5" transform="translate(656.25,374.6875)"/>
<path d="M0 0 C1.05 2.91 0.94 4.31 0.31 7.44 C-0.35 11.04 -0.35 11.04 1.69 13.88 C5.95 17.79 10.42 17.23 16 17 C18.82 16.67 21.59 16.17 24.38 15.62 C25.09 15.5 25.8 15.37 26.53 15.24 C30.69 14.5 30.69 14.5 34 12 C37.62 11.88 37.62 11.88 41 12 C41.33 11.34 41.66 10.68 42 10 C42 10.99 42 11.98 42 13 C40.35 13.33 38.7 13.66 37 14 C36.67 14.99 36.34 15.98 36 17 C33.3 18.32 33.3 18.32 29.88 19.56 C28.7 19.99 27.53 20.42 26.32 20.86 C22.9 22.03 19.51 23.1 16 24 C16 24.66 16 25.32 16 26 C4.57 32 4.57 32 -1 32 C-1 31.34 -1 30.68 -1 30 C-2.32 29.67 -3.64 29.34 -5 29 C-5.38 25.67 -5.71 22.34 -6 19 C-6.07 18.29 -6.14 17.57 -6.21 16.84 C-6.57 10.05 -3.63 5.45 0 0 Z " fill="#EA949B" transform="translate(426,360)"/>
<path d="M0 0 C2.44 2.38 2.44 2.38 4 5 C4 5.66 4 6.32 4 7 C3.16 7.13 2.31 7.27 1.45 7.4 C0.35 7.58 -0.75 7.76 -1.88 7.94 C-3.51 8.2 -3.51 8.2 -5.18 8.46 C-7.94 8.86 -7.94 8.86 -10 10 C-19.4 10.5 -28.25 10.89 -37 7 C-35.85 3.56 -35.1 2.75 -32 1 C-29.7 1.14 -29.7 1.14 -27.25 1.81 C-17.01 4.22 -9.59 -1.45 0 0 Z " fill="#F0BD47" transform="translate(848,262)"/>
<path d="M0 0 C4.65 0.01 6.88 1.99 10.12 5.12 C10.74 5.77 10.74 5.77 11.38 6.44 C4.01 12.57 4.01 12.57 -0.62 12.19 C-3.62 11.44 -3.62 11.44 -5.36 10.42 C-8.55 9.04 -11.47 9.12 -14.94 9 C-20.44 8.75 -24.79 8.15 -29.62 5.44 C-29.62 5.11 -29.62 4.78 -29.62 4.44 C-24 3.33 -18.67 3.44 -12.96 3.6 C-7.9 3.35 -4.73 0.57 0 0 Z " fill="#F2B5B2" transform="translate(460.625,224.5625)"/>
<path d="M0 0 C1.3 -0.03 2.6 -0.06 3.93 -0.09 C5.16 -0.1 6.38 -0.11 7.64 -0.11 C9.3 -0.14 9.3 -0.14 10.99 -0.16 C13.75 0.31 13.75 0.31 15.64 2.21 C16.75 4.31 16.75 4.31 16.62 6.38 C15.63 8.57 14.45 9.62 12.75 11.31 C11.7 13.29 10.7 15.29 9.75 17.31 C8.76 17.31 7.77 17.31 6.75 17.31 C6.64 12.87 7.09 8.71 7.75 4.31 C-4.26 2.34 -15.23 2.19 -27.25 4.31 C-28.82 5.88 -28.86 7.74 -29.31 9.88 C-29.49 10.7 -29.67 11.53 -29.85 12.38 C-29.98 13.02 -30.11 13.66 -30.25 14.31 C-30.52 13.67 -30.79 13.03 -31.06 12.38 C-32.14 9.98 -32.14 9.98 -35.25 9.31 C-35.58 7.33 -35.91 5.35 -36.25 3.31 C-24.91 -0.85 -11.94 0.15 0 0 Z " fill="#EB949C" transform="translate(656.25,374.6875)"/>
<path d="M0 0 C0.89 0.01 1.78 0.03 2.69 0.04 C4.88 0.08 7.06 0.13 9.25 0.19 C9.25 0.85 9.25 1.51 9.25 2.19 C16.24 3.76 16.24 3.76 23.25 5.19 C22.59 6.18 21.93 7.17 21.25 8.19 C18.56 8.33 16.17 8.28 13.5 8.06 C12.8 8.03 12.09 7.99 11.37 7.95 C6.63 7.62 3.51 6.36 -0.75 4.19 C-4.17 3.62 -4.17 3.62 -7.62 3.5 C-9.35 3.4 -9.35 3.4 -11.12 3.3 C-11.99 3.26 -12.85 3.23 -13.75 3.19 C-9.88 -0.95 -5.24 -0.15 0 0 Z " fill="#EC9D96" transform="translate(439.75,350.8125)"/>
<path d="M0 0 C-0.33 2.31 -0.66 4.62 -1 7 C-4.3 6.34 -7.6 5.68 -11 5 C-10 2 -10 2 -8.31 0.81 C-5.45 -0.19 -3.01 -0.14 0 0 Z " fill="#EB939B" transform="translate(655,402)"/>
<path d="M0 0 C-0.25 2.38 -0.25 2.38 -1 5 C-2.75 6.38 -2.75 6.38 -5 7 C-7.75 6.62 -7.75 6.62 -10 6 C-10 3 -10 3 -8 1 C-5.12 0.04 -3.13 0 0 0 Z " fill="#B5D1B7" transform="translate(518,363)"/>
<path d="M0 0 C6.21 -0.33 10.28 0.55 16 3 C16 3.66 16 4.32 16 5 C13.69 5 11.38 5 9 5 C9 4.67 9 4.34 9 4 C6.03 3.67 3.06 3.34 0 3 C0 2.01 0 1.02 0 0 Z " fill="#F3BAB6" transform="translate(806,313)"/>
<path d="M0 0 C4 1 4 1 4 1 Z " fill="#F0BD47" transform="translate(487,359)"/>
<path d="M0 0 C4 1 4 1 4 1 Z " fill="#000202" transform="translate(510,230)"/>
<path d="M0 0 C3 1 3 1 3 1 Z " fill="#2B4F31" transform="translate(469,371)"/>
<path d="M0 0 C2 1 2 1 2 1 Z " fill="#AFD4C2" transform="translate(692,369)"/>
<path d="M0 0 C2 1 2 1 2 1 Z " fill="#AFD4C2" transform="translate(512,362)"/>
<path d="M0 0 C2 1 2 1 2 1 Z " fill="#F0BD47" transform="translate(502,359)"/>
<path d="M0 0 C2 1 2 1 2 1 Z " fill="#000202" transform="translate(756,318)"/>
<path d="" fill="#000202" transform="translate(0,0)"/>
<path d="" fill="#000202" transform="translate(0,0)"/>
<path d="" fill="#AFD4C2" transform="translate(0,0)"/>
<path d="" fill="#1F4025" transform="translate(0,0)"/>
<path d="" fill="#EB939B" transform="translate(0,0)"/>
<path d="" fill="#AFD4C2" transform="translate(0,0)"/>
<path d="" fill="#AFD4C2" transform="translate(0,0)"/>
<path d="" fill="#AFD4C2" transform="translate(0,0)"/>
<path d="" fill="#000202" transform="translate(0,0)"/>
<path d="" fill="#000202" transform="translate(0,0)"/>
<path d="" fill="#000202" transform="translate(0,0)"/>
<path d="" fill="#000202" transform="translate(0,0)"/>
<path d="" fill="#000202" transform="translate(0,0)"/>
<path d="" fill="#000202" transform="translate(0,0)"/>
<path d="" fill="#000202" transform="translate(0,0)"/>
<path d="" fill="#000202" transform="translate(0,0)"/>
<path d="" fill="#000202" transform="translate(0,0)"/>
<path d="" fill="#000202" transform="translate(0,0)"/>
<path d="" fill="#000202" transform="translate(0,0)"/>
<path d="" fill="#EB939B" transform="translate(0,0)"/>
<path d="" fill="#EB939B" transform="translate(0,0)"/>
<path d="" fill="#446F4B" transform="translate(0,0)"/>
<path d="" fill="#000202" transform="translate(0,0)"/>
<path d="" fill="#AFD4C2" transform="translate(0,0)"/>
<path d="" fill="#000202" transform="translate(0,0)"/>
<path d="" fill="#709B72" transform="translate(0,0)"/>
<path d="" fill="#EB939B" transform="translate(0,0)"/>
</svg>
