<?xml version="1.0" encoding="UTF-8"?>
<!-- Generator: visioncortex VTracer 0.6.3 -->
<svg version="1.1" xmlns="http://www.w3.org/2000/svg" width="1280" height="640">
<path d="M0 0 C1.62 -0.01 1.62 -0.01 3.28 -0.02 C5.01 -0.02 5.01 -0.02 6.79 -0.02 C7.99 -0.03 9.19 -0.03 10.42 -0.03 C12.96 -0.04 15.49 -0.04 18.02 -0.04 C21.9 -0.04 25.77 -0.06 29.64 -0.08 C32.11 -0.08 34.57 -0.08 37.04 -0.09 C38.77 -0.1 38.77 -0.1 40.54 -0.11 C47.85 -0.09 53.45 0.61 59.73 4.58 C60.39 4.99 61.06 5.41 61.74 5.83 C63.48 7.15 63.48 7.15 65.48 10.15 C68.79 9.74 70.68 9.02 73.54 7.21 C77.57 4.77 81.6 4.3 86.22 3.74 C88.92 3.25 90.83 2.62 93.33 1.61 C99.63 -0.56 106.13 -0.3 112.71 -0.25 C114.91 -0.23 117.11 -0.25 119.31 -0.26 C126.34 -0.27 132.79 -0.01 139.46 2.47 C144.15 4.05 148.24 3.71 152.76 1.65 C156.49 -0.01 159.7 -0.24 163.81 -0.26 C164.52 -0.26 165.22 -0.27 165.95 -0.28 C168.29 -0.3 170.64 -0.29 172.98 -0.29 C174.67 -0.3 176.35 -0.31 178.04 -0.32 C182.62 -0.35 187.19 -0.35 191.76 -0.36 C194.62 -0.36 197.48 -0.37 200.34 -0.37 C210.33 -0.4 220.32 -0.41 230.32 -0.41 C239.61 -0.41 248.91 -0.44 258.2 -0.49 C266.2 -0.53 274.19 -0.54 282.19 -0.54 C286.95 -0.54 291.72 -0.55 296.49 -0.58 C300.98 -0.61 305.47 -0.61 309.96 -0.59 C311.6 -0.59 313.24 -0.59 314.88 -0.61 C324.45 -0.71 332.69 -0.19 340.48 6.15 C343.29 11.47 342.37 16.41 341.48 22.15 C341.26 23.77 341.05 25.39 340.85 27.02 C340.76 27.74 340.66 28.46 340.56 29.2 C340.35 31.36 340.35 31.36 341.48 34.15 C342.07 41.68 341.93 49.28 338.48 56.15 C335.85 58.52 335.85 58.52 332.48 60.15 C331.93 60.48 331.39 60.82 330.83 61.16 C322.88 65.55 313.93 64.7 305.13 64.64 C303.34 64.64 301.55 64.64 299.77 64.65 C296.04 64.65 292.31 64.63 288.58 64.61 C283.81 64.58 279.04 64.59 274.27 64.6 C270.59 64.61 266.9 64.6 263.22 64.59 C261.46 64.58 259.7 64.58 257.94 64.58 C255.48 64.59 253.03 64.57 250.57 64.55 C249.85 64.55 249.13 64.56 248.39 64.56 C243.31 64.49 239.98 63.27 235.48 61.15 C231.52 60.62 228.64 61.38 224.94 62.64 C219.54 64.28 214.58 64.61 208.97 64.61 C207.53 64.63 207.53 64.63 206.06 64.64 C204.03 64.65 202.01 64.65 199.99 64.65 C196.92 64.65 193.85 64.69 190.78 64.73 C188.8 64.74 186.83 64.74 184.85 64.74 C183.94 64.76 183.04 64.77 182.1 64.79 C174.7 64.71 168.78 62.44 163.48 57.15 C163.48 56.16 163.48 55.17 163.48 54.15 C161.59 54.3 161.59 54.3 159.67 54.46 C158.96 54.52 158.25 54.57 157.52 54.63 C155.39 54.97 155.39 54.97 154.1 56.61 C152.21 58.4 151.03 58.73 148.49 59.24 C147.72 59.4 146.95 59.57 146.16 59.73 C145.36 59.89 144.55 60.05 143.73 60.21 C142.15 60.53 140.57 60.85 138.99 61.18 C138.3 61.32 137.6 61.46 136.88 61.6 C134.94 62.04 133.03 62.6 131.13 63.18 C125.01 64.8 118.83 64.53 112.54 64.52 C111.85 64.52 111.15 64.52 110.44 64.53 C101.04 64.53 92.55 63.76 83.53 60.98 C79.03 59.75 75.99 60.04 71.48 61.15 C70.73 61.65 69.98 62.16 69.21 62.68 C65.75 64.54 62.74 64.59 58.91 64.58 C58.16 64.59 57.42 64.6 56.65 64.61 C54.19 64.64 51.74 64.65 49.28 64.65 C47.56 64.66 45.84 64.67 44.13 64.68 C40.53 64.7 36.93 64.7 33.33 64.7 C28.73 64.7 24.14 64.74 19.55 64.79 C16 64.83 12.45 64.83 8.9 64.83 C7.21 64.83 5.52 64.85 3.83 64.87 C-5.74 64.99 -13.98 64.9 -21.52 58.15 C-23.38 54.43 -22.97 50.2 -22.52 46.15 C-21.27 42.79 -19.58 40.01 -16.77 37.71 C-14.94 35.42 -14.94 33.13 -15.02 30.28 C-15.8 26.95 -17.75 24.99 -20.11 22.59 C-22.34 20.3 -22.52 19.15 -22.77 15.9 C-22.49 11.63 -22.02 9.62 -19.52 6.15 C-13.31 1.7 -7.6 0.03 0 0 Z " fill="#47714E" transform="translate(480.521240234375,287.854736328125)"/>
</svg>
