<?xml version="1.0" encoding="UTF-8"?>
<!-- Generator: visioncortex VTracer 0.6.3 -->
<svg version="1.1" xmlns="http://www.w3.org/2000/svg" width="1280" height="640">
<path d="M0 0 C1.75 1.5 1.75 1.5 3 4 C3.05 6.26 2.94 8.44 2.71 10.68 C2.8 13.2 2.8 13.2 4.98 15.15 C7.53 18.74 7.6 21.68 7.61 25.93 C7.63 26.67 7.64 27.42 7.66 28.19 C7.71 30.57 7.73 32.94 7.75 35.31 C7.78 36.93 7.81 38.54 7.84 40.16 C7.91 44.11 7.96 48.05 8 52 C10.4 53.2 11.84 53.11 14.52 53.1 C15.47 53.09 16.43 53.09 17.41 53.09 C18.46 53.08 19.51 53.07 20.6 53.06 C22.9 53.05 25.2 53.04 27.51 53.04 C28.74 53.03 29.97 53.02 31.23 53.02 C37.77 52.99 44.32 52.98 50.86 52.98 C51.54 52.98 52.23 52.98 52.93 52.98 C68.45 52.98 83.96 53.07 99.47 53.26 C102.36 53.3 105.25 53.33 108.15 53.35 C112.21 53.38 116.27 53.43 120.33 53.49 C121.54 53.49 122.76 53.5 124 53.51 C125.12 53.53 126.24 53.55 127.39 53.57 C128.35 53.58 129.32 53.59 130.32 53.6 C134.25 54.19 137.01 55.75 139.47 58.87 C140.52 60.91 141.41 62.77 142 65 C140.88 67.69 140.88 67.69 139 70 C138.67 70.82 138.34 71.65 138 72.5 C136.92 75.2 135.54 77.54 134 80 C132.68 79.67 131.36 79.34 130 79 C130.33 79.33 130.66 79.66 131 80 C132.19 84.07 131.81 86.93 130.75 91 C130.5 92.01 130.24 93.02 129.98 94.06 C129 97 129 97 127.48 99.5 C125.81 102.33 125.26 104.73 124.62 107.94 C123.35 113.32 122.11 116.29 118 120 C113.82 122.16 109.85 122.31 105.23 122.34 C104.48 122.36 103.73 122.37 102.96 122.39 C100.55 122.43 98.15 122.47 95.75 122.5 C85.79 122.63 76.03 122.99 66.15 124.28 C57.89 125.33 49.62 125.39 41.3 125.48 C40.12 125.5 38.94 125.53 37.72 125.56 C36.14 125.58 36.14 125.58 34.53 125.6 C33.69 125.73 32.86 125.86 32 126 C29.75 129.38 30.02 130.89 30.11 134.8 C29.92 138.5 28.84 141.8 27 145 C24.88 146.25 24.88 146.25 23 147 C22.85 147.96 22.85 147.96 22.69 148.94 C22.46 149.62 22.23 150.3 22 151 C19.7 152.07 17.36 153.07 15 154 C14.67 154.66 14.34 155.32 14 156 C12.15 157.07 12.15 157.07 9.94 158.12 C8.84 158.65 8.84 158.65 7.71 159.2 C7.15 159.46 6.58 159.73 6 160 C6 160.99 6 161.98 6 163 C6.99 162.67 7.98 162.34 9 162 C9.33 161.01 9.66 160.02 10 159 C10 159.66 10 160.32 10 161 C12.79 160.6 13.85 160.17 15.8 158.05 C18.36 155.67 20.11 155.15 23.5 154.38 C27.35 153.5 27.35 153.5 30.95 151.96 C33.75 150.65 36.3 150.49 39.38 150.25 C41.03 150.1 41.03 150.1 42.71 149.95 C46.2 150 48.77 150.73 52 152 C52 152.66 52 153.32 52 154 C52.76 154.27 53.53 154.54 54.31 154.81 C56.89 155.95 58.27 156.81 60 159 C60 159.66 60 160.32 60 161 C61.32 161 62.64 161 64 161 C64.31 160.07 64.31 160.07 64.62 159.12 C66.67 155.97 68.32 155.82 72 155 C75.13 154.79 78.25 154.62 81.39 154.54 C84.1 154.29 84.1 154.29 85.23 152.24 C85.49 151.5 85.74 150.76 86 150 C86.33 149.27 86.66 148.54 87 147.78 C87.33 147.03 87.66 146.28 88 145.5 C91.71 137.04 91.71 137.04 95 134 C95.66 133.3 96.32 132.6 97 131.88 C100.27 128.81 103.55 128.67 107.93 128.71 C111.29 129.18 113.44 130.88 116 133 C118.22 137.43 117.84 144.42 116.33 149.07 C116.05 149.62 115.78 150.18 115.5 150.75 C113.61 154.85 113.76 157.53 114 162 C114.34 160.82 114.34 160.82 114.69 159.62 C116 157 116 157 118.44 155.75 C119.28 155.5 120.13 155.25 121 155 C121.99 154.67 122.98 154.34 124 154 C124 153.34 124 152.68 124 152 C130.72 147.11 142.1 144.09 150.47 144.46 C157.48 145.95 164.61 148.8 171 152 C172.08 150.82 172.08 150.82 173.19 149.62 C175.89 147.1 177.46 145.89 181 145 C184.1 145.15 185.46 145.43 187.61 147.7 C189.3 150.49 189.49 152.5 189.69 155.75 C189.79 157.23 189.79 157.23 189.89 158.73 C189.92 159.48 189.96 160.23 190 161 C190.35 159.95 190.7 158.9 191.06 157.81 C192.96 153.45 195.66 150.94 200 149 C203.78 148.25 206.95 148.52 210.5 150.14 C215.88 154.14 219.24 161.53 220.36 168.11 C221.05 175.71 220.35 182.06 217 189 C216.59 189.89 216.18 190.78 215.75 191.7 C210.69 202.02 204.47 208.13 194 213 C192.51 213.99 192.51 213.99 191 215 C185.44 216.36 179.75 216.18 174.06 216.19 C173.1 216.2 172.14 216.21 171.14 216.22 C162.39 216.24 156.08 215.03 149.55 208.93 C148 207 148 207 147.31 203.44 C148.08 199.61 148.69 197.17 151 194 C153 192.99 154.95 192.31 157.09 191.66 C159.16 191.08 159.16 191.08 161 189.31 C164.16 187.24 167.33 187.56 171 188 C173.44 188.81 173.44 188.81 175 190 C175.33 190.99 175.66 191.98 176 193 C175 194.61 175 194.61 173.56 196.31 C171.01 199.62 170.48 201.75 171 206 C176.67 204.63 176.67 204.63 181 201 C181.83 200.53 182.65 200.05 183.5 199.56 C186.07 197.95 187.25 196.42 189 194 C189.66 194 190.32 194 191 194 C191.02 192.72 191.04 191.44 191.06 190.12 C191.08 189.05 191.08 189.05 191.1 187.95 C191.13 185.92 191.13 185.92 190 184 C190.99 184 191.98 184 193 184 C192.67 182.35 192.34 180.7 192 179 C191.24 179.5 190.47 179.99 189.69 180.5 C186.1 181.96 184.55 182.13 180.81 182 C176.69 181.87 173.44 182.28 169.5 183.5 C162.38 185.65 155.69 185.37 148.38 184.44 C143.61 183.93 138.91 183.92 134.12 184.06 C133.02 184.06 133.02 184.06 131.89 184.07 C129.46 184.11 129.46 184.11 126 185 C123.63 187.78 123.63 187.78 122 191 C120.22 192.86 120.22 192.86 118.5 194.31 C117.93 194.8 117.37 195.29 116.78 195.8 C111.71 199.22 104.84 198.43 99 198 C94.53 196.98 91.63 195.94 89 192 C86.12 191.57 86.12 191.57 82.74 191.66 C80.84 191.64 80.84 191.64 78.91 191.62 C76.24 191.62 73.58 191.63 70.91 191.65 C64.08 191.57 59.03 191.47 53.52 187.17 C51.89 185.78 51.89 185.78 49 185 C48.91 185.84 48.91 185.84 48.81 186.69 C47.76 193.2 45.4 198.01 40 202 C36.15 203.12 33 202.36 29.25 201 C25.13 197.34 23.49 192.8 22.06 187.56 C21.99 183.55 22.9 180.8 24.3 177.09 C25.12 174.65 25.25 172.56 25 170 C24.42 170.58 23.85 171.15 23.25 171.75 C21 174 21 174 19 175.62 C15.94 179.26 14.59 183.56 13 188 C12.34 188 11.68 188 11 188 C10.67 188.99 10.34 189.98 10 191 C7.2 193.97 5.04 195.29 1 195.5 C-2.26 195.37 -2.85 195.13 -5.44 192.88 C-7.76 190.77 -7.76 190.77 -10.13 191.07 C-13.63 191.79 -16.35 192.57 -19.36 194.56 C-24.87 197.56 -32.46 196.96 -38.41 195.34 C-43.03 193.21 -46.66 189.87 -50.34 186.39 C-51.89 184.79 -51.89 184.79 -54 185 C-54.54 185.7 -55.07 186.4 -55.62 187.12 C-59.75 192.12 -62.97 195.5 -69.57 196.59 C-76.68 196.88 -82.15 196.66 -87.55 191.73 C-89.55 189.34 -90.89 186.91 -92 184 C-92.47 184.68 -92.95 185.36 -93.44 186.06 C-94.28 187.03 -95.13 188 -96 189 C-96.78 189.94 -96.78 189.94 -97.57 190.89 C-102.94 196.23 -108.06 196.66 -115.31 196.69 C-116.2 196.69 -117.08 196.7 -117.99 196.71 C-124.34 196.53 -124.34 196.53 -127.44 194.05 C-127.96 193.37 -128.47 192.7 -129 192 C-129.87 191.53 -130.73 191.05 -131.62 190.56 C-134.47 188.69 -135.04 187.21 -136 184 C-139.44 184.18 -139.44 184.18 -143 185 C-143.3 185.62 -143.61 186.24 -143.92 186.88 C-145.38 189.75 -147.05 190.34 -149.94 191.69 C-150.81 192.1 -151.69 192.52 -152.59 192.95 C-158.77 195.64 -164.72 195.3 -171.38 195.38 C-172.59 195.41 -173.8 195.45 -175.05 195.49 C-184.32 195.58 -194.03 194.4 -201.25 188.01 C-202.94 186.12 -202.94 186.12 -204.34 184.26 C-206.08 182.64 -206.08 182.64 -209.19 183.3 C-210.12 183.53 -211.05 183.76 -212 184 C-212.19 184.85 -212.39 185.71 -212.59 186.59 C-212.85 187.69 -213.11 188.8 -213.38 189.94 C-213.63 191.04 -213.89 192.14 -214.15 193.28 C-214.43 194.18 -214.71 195.07 -215 196 C-217.45 197.22 -218.73 197.02 -221.44 196.75 C-222.22 196.68 -223 196.62 -223.81 196.55 C-226.42 195.9 -227.36 195.1 -229 193 C-230.61 188.16 -230.91 183.12 -228.88 178.38 C-222 169.67 -222 169.67 -218 167 C-217.63 164.41 -217.63 164.41 -217.81 161.4 C-217.85 159.7 -217.85 159.7 -217.88 157.97 C-217.96 155.6 -218.04 153.22 -218.12 150.85 C-218.33 140.28 -216.61 133.95 -209.26 126.12 C-200.07 117.5 -192.97 116.8 -180.75 116.75 C-179.55 116.73 -178.34 116.71 -177.11 116.69 C-167.16 116.64 -159.64 118.33 -151.81 124.81 C-148.73 128.53 -147.93 131.64 -148.19 136.44 C-149.95 144.15 -152.66 148.45 -159 153 C-159.66 153.33 -160.32 153.66 -161 154 C-161.25 154.82 -161.5 155.65 -161.75 156.5 C-162.16 157.32 -162.57 158.15 -163 159 C-166.08 159.66 -166.08 159.66 -169 160 C-167.26 160.07 -167.26 160.07 -165.49 160.15 C-163.95 160.22 -162.41 160.3 -160.88 160.38 C-160.11 160.41 -159.35 160.44 -158.57 160.47 C-150.86 160.87 -146.43 162.28 -141 168 C-139.69 168.71 -138.36 169.38 -137 170 C-136.51 169.15 -136.51 169.15 -136.01 168.29 C-135.57 167.55 -135.14 166.82 -134.69 166.06 C-134.26 165.33 -133.83 164.6 -133.39 163.85 C-132 162 -132 162 -129 161 C-128.77 160.24 -128.55 159.47 -128.31 158.69 C-126.78 155.56 -126.2 155.46 -123.12 154.19 C-119.61 152.65 -118.33 151.38 -116.75 147.88 C-116.5 147.19 -116.24 146.51 -115.98 145.8 C-114.66 143.37 -113.62 142.86 -111 142 C-108.16 141.92 -108.16 141.92 -105.06 142.19 C-103.53 142.3 -103.53 142.3 -101.97 142.42 C-98.69 143.06 -96.75 144.13 -94 146 C-93.19 146.53 -92.38 147.06 -91.54 147.61 C-90.77 148.13 -89.99 148.65 -89.19 149.19 C-88.4 149.72 -87.61 150.25 -86.79 150.79 C-85.91 151.39 -85.91 151.39 -85 152 C-82.79 150.46 -82.79 150.46 -81 148 C-81.29 145.66 -81.62 143.33 -82 141 C-80.12 137.96 -77.3 137.12 -74 136 C-71.23 135.84 -71.23 135.84 -68.19 135.94 C-51.94 136.8 -51.94 136.8 -37.7 130.28 C-36 129 -36 129 -33 129 C-33 128.34 -33 127.68 -33 127 C-37.97 124.34 -42.93 124.76 -48.41 124.84 C-49.45 124.85 -50.48 124.85 -51.54 124.86 C-53.75 124.87 -55.97 124.89 -58.18 124.91 C-63.96 124.96 -69.74 124.96 -75.53 124.97 C-77.84 124.97 -80.14 124.98 -82.45 124.98 C-83.56 124.99 -84.66 124.99 -85.8 124.99 C-87.85 125 -89.89 125 -91.94 125.01 C-96.95 125.03 -101.97 125.02 -106.98 124.96 C-108.44 124.94 -109.89 124.94 -111.35 124.96 C-123.6 125.05 -123.6 125.05 -128.81 120.71 C-132.53 116.99 -133.76 113.01 -135 108 C-135.49 106.5 -135.99 105 -136.5 103.5 C-136.75 102.76 -136.99 102.01 -137.25 101.25 C-137.75 99.75 -138.26 98.25 -138.79 96.75 C-140.09 92.97 -141.18 89.3 -141.94 85.38 C-142.85 80.96 -144.67 77.84 -147 74 C-148.65 68.75 -148.91 63.15 -146.75 58.06 C-144.79 55.75 -143.84 55.05 -141 54 C-138.17 53.78 -135.42 53.65 -132.59 53.62 C-131.78 53.6 -130.96 53.59 -130.13 53.57 C-127.54 53.52 -124.96 53.48 -122.38 53.44 C-119.78 53.39 -117.19 53.35 -114.6 53.29 C-112.99 53.26 -111.38 53.24 -109.77 53.21 C-105.75 53.23 -105.75 53.23 -102 52 C-100.28 51.9 -98.56 51.87 -96.83 51.87 C-95.75 51.87 -94.68 51.86 -93.57 51.86 C-91.81 51.86 -91.81 51.86 -90.03 51.87 C-88.83 51.87 -87.64 51.87 -86.41 51.86 C-83.88 51.86 -81.36 51.87 -78.83 51.87 C-74.95 51.87 -71.07 51.87 -67.19 51.86 C-64.74 51.86 -62.29 51.87 -59.84 51.87 C-58.67 51.87 -57.5 51.86 -56.3 51.86 C-55.22 51.86 -54.15 51.87 -53.04 51.87 C-52.09 51.87 -51.14 51.87 -50.16 51.87 C-48 52 -48 52 -47 53 C-45.07 53.1 -43.14 53.13 -41.21 53.13 C-39.43 53.13 -39.43 53.13 -37.61 53.14 C-36.36 53.13 -35.1 53.13 -33.81 53.12 C-31.96 53.13 -31.96 53.13 -30.08 53.14 C-28.88 53.14 -27.69 53.13 -26.46 53.13 C-25.36 53.13 -24.27 53.13 -23.14 53.13 C-20.02 53 -17.07 52.58 -14 52 C-14.01 50.96 -14.02 49.91 -14.03 48.83 C-14.07 44.96 -14.09 41.09 -14.11 37.21 C-14.12 35.53 -14.13 33.86 -14.15 32.18 C-14.18 29.77 -14.19 27.36 -14.2 24.95 C-14.21 24.2 -14.22 23.45 -14.23 22.68 C-14.23 18.9 -14.15 17.23 -12 14 C-11.87 11.85 -11.87 11.85 -12.06 9.56 C-12.12 6.63 -12.12 5.24 -10.81 2.56 C-7.49 -0.3 -4.18 -1.95 0 0 Z M-23 124 C-23 124.33 -23 124.66 -23 125 C-20.52 125.5 -20.52 125.5 -18 126 C-18.52 126.35 -19.03 126.7 -19.56 127.06 C-21.4 129.07 -21.4 129.07 -20.5 132.44 C-20 136 -20 136 -21.44 138 C-21.95 138.66 -22.47 139.32 -23 140 C-23.25 143.67 -23.25 143.67 -23 147 C-22.01 147.33 -21.02 147.66 -20 148 C-19.82 147.36 -19.64 146.72 -19.45 146.07 C-19.07 144.83 -19.07 144.83 -18.69 143.56 C-18.44 142.74 -18.2 141.92 -17.95 141.07 C-17.64 140.38 -17.32 139.7 -17 139 C-16.01 138.67 -15.02 138.34 -14 138 C-12.66 136.01 -11.32 134.01 -10 132 C-7.75 130.12 -7.75 130.12 -6 129 C-6.66 127.35 -7.32 125.7 -8 124 C-9.7 124.28 -9.7 124.28 -11.44 124.56 C-13.2 124.78 -13.2 124.78 -15 125 C-15.33 124.67 -15.66 124.34 -16 124 C-18.33 123.96 -20.67 123.96 -23 124 Z M27 124 C27 124.33 27 124.66 27 125 C28.65 125 30.3 125 32 125 C32 124.67 32 124.34 32 124 C30.35 124 28.7 124 27 124 Z M-182 128 C-186.72 134.57 -188.92 140.99 -188 149 C-186.79 150.43 -186.79 150.43 -183.25 150.19 C-179.74 150.12 -177.07 149.84 -174 148 C-172.39 145.62 -172.39 145.62 -171 143 C-170.28 142.38 -169.56 141.76 -168.81 141.12 C-166.72 139.02 -166.72 139.02 -166.31 135.62 C-167.17 131.13 -168.71 129.85 -172.18 127.07 C-175.69 125.01 -178.63 126.2 -182 128 Z M10 139 C10 139.99 10 140.98 10 142 C10.66 142 11.32 142 12 142 C12 141.01 12 140.02 12 139 C11.34 139 10.68 139 10 139 Z M-70 147 C-68.64 151.91 -66.24 153.38 -62 156 C-60.41 159.19 -60.9 162.63 -60.94 166.12 C-60.94 166.88 -60.95 167.63 -60.95 168.41 C-60.96 170.27 -60.98 172.14 -61 174 C-60.01 174 -59.02 174 -58 174 C-58.09 172.68 -58.09 172.68 -58.18 171.32 C-58.47 163.5 -57.8 158.09 -54 151.21 C-52.66 148.9 -52.66 148.9 -54 146 C-56.92 143.68 -58.84 143.02 -62.56 142.56 C-66.5 143.06 -67.6 143.93 -70 147 Z M-113 159 C-113.32 162.35 -113.32 162.35 -113.25 166.19 C-113.26 167.48 -113.26 168.77 -113.27 170.11 C-112.99 174.11 -112.24 177.21 -111 181 C-107.22 179.74 -106.89 178.38 -105 175 C-104.34 174.34 -103.68 173.68 -103 173 C-101.68 168.52 -100.88 162.24 -103 158 C-104.82 157.46 -104.82 157.46 -106.94 157.25 C-107.65 157.15 -108.36 157.05 -109.09 156.95 C-111.25 156.79 -111.25 156.79 -113 159 Z M-28 158 C-30.88 160.88 -30.29 163.21 -30.32 167.14 C-30.32 168.06 -30.32 168.99 -30.31 169.94 C-30.33 170.86 -30.34 171.78 -30.36 172.72 C-30.36 174.05 -30.36 174.05 -30.36 175.4 C-30.37 176.21 -30.37 177.02 -30.37 177.86 C-29.92 180.47 -29.02 181.35 -27 183 C-24 181.71 -24 181.71 -21 180 C-18.99 173.96 -19.33 165.87 -22 160 C-24.98 158.31 -24.98 158.31 -28 158 Z M29 165 C28.67 165.99 28.34 166.98 28 168 C28.99 168 29.98 168 31 168 C31 167.01 31 166.02 31 165 C30.34 165 29.68 165 29 165 Z M-169 172 C-168.67 172.99 -168.34 173.98 -168 175 C-165.67 175.38 -163.34 175.71 -161 176 C-160.67 175.67 -160.34 175.34 -160 175 C-159.01 174.67 -158.02 174.34 -157 174 C-157.92 171.62 -158.46 170.29 -160.75 169.06 C-164.04 168.97 -166.19 170.4 -169 172 Z " fill="#000100" transform="translate(645,195)"/>
<path d="M0 0 C1.75 1.5 1.75 1.5 3 4 C3.05 6.26 2.94 8.44 2.71 10.68 C2.8 13.2 2.8 13.2 4.98 15.15 C7.53 18.74 7.6 21.68 7.61 25.93 C7.63 26.67 7.64 27.42 7.66 28.19 C7.71 30.57 7.73 32.94 7.75 35.31 C7.78 36.93 7.81 38.54 7.84 40.16 C7.91 44.11 7.96 48.05 8 52 C10.4 53.2 11.84 53.11 14.52 53.1 C15.47 53.09 16.43 53.09 17.41 53.09 C18.46 53.08 19.51 53.07 20.6 53.06 C22.9 53.05 25.2 53.04 27.51 53.04 C28.74 53.03 29.97 53.02 31.23 53.02 C37.77 52.99 44.32 52.98 50.86 52.98 C51.54 52.98 52.23 52.98 52.93 52.98 C68.45 52.98 83.96 53.07 99.47 53.26 C102.36 53.3 105.25 53.33 108.15 53.35 C112.21 53.38 116.27 53.43 120.33 53.49 C121.54 53.49 122.76 53.5 124 53.51 C125.12 53.53 126.24 53.55 127.39 53.57 C128.35 53.58 129.32 53.59 130.32 53.6 C134.25 54.19 137.01 55.75 139.47 58.87 C140.52 60.91 141.41 62.77 142 65 C140.88 67.69 140.88 67.69 139 70 C138.67 70.82 138.34 71.65 138 72.5 C136.92 75.2 135.54 77.54 134 80 C132.68 79.67 131.36 79.34 130 79 C130.33 79.33 130.66 79.66 131 80 C132.19 84.07 131.81 86.93 130.75 91 C130.5 92.01 130.24 93.02 129.98 94.06 C129 97 129 97 127.48 99.5 C125.81 102.33 125.26 104.73 124.62 107.94 C123.35 113.32 122.11 116.29 118 120 C113.82 122.16 109.85 122.31 105.23 122.34 C104.48 122.36 103.73 122.37 102.96 122.39 C100.55 122.43 98.15 122.47 95.75 122.5 C85.78 122.63 76.01 123 66.12 124.29 C59.24 125.16 52.43 125.3 45.5 125.25 C44.32 125.26 43.13 125.27 41.91 125.27 C36.06 125.26 30.79 124.91 25.12 123.45 C21.31 122.64 17.5 122.75 13.62 122.81 C12.44 122.81 12.44 122.81 11.22 122.81 C7.91 122.84 5.17 122.94 2 124 C-1.18 124.26 -4.36 124.44 -7.55 124.61 C-10.58 124.78 -13.1 125.03 -16 126 C-16 125.34 -16 124.68 -16 124 C-17.95 124.11 -17.95 124.11 -19.94 124.21 C-34.2 124.95 -48.42 125.17 -62.69 125.12 C-64.34 125.12 -64.34 125.12 -66.02 125.12 C-71.59 125.1 -77.16 125.07 -82.73 125.03 C-87.57 125 -92.42 125 -97.27 125.02 C-100.5 125.02 -103.73 124.99 -106.96 124.96 C-108.43 124.94 -109.89 124.94 -111.35 124.96 C-123.6 125.05 -123.6 125.05 -128.81 120.71 C-132.53 116.99 -133.76 113.01 -135 108 C-135.49 106.5 -135.99 105 -136.5 103.5 C-136.75 102.76 -136.99 102.01 -137.25 101.25 C-137.75 99.75 -138.26 98.25 -138.79 96.75 C-140.09 92.97 -141.18 89.3 -141.94 85.38 C-142.85 80.96 -144.67 77.84 -147 74 C-148.65 68.75 -148.91 63.15 -146.75 58.06 C-144.79 55.75 -143.84 55.05 -141 54 C-138.17 53.78 -135.42 53.65 -132.59 53.62 C-131.78 53.6 -130.96 53.59 -130.13 53.57 C-127.54 53.52 -124.96 53.48 -122.38 53.44 C-119.78 53.39 -117.19 53.35 -114.6 53.29 C-112.99 53.26 -111.38 53.24 -109.77 53.21 C-105.75 53.23 -105.75 53.23 -102 52 C-100.28 51.9 -98.56 51.87 -96.83 51.87 C-95.75 51.87 -94.68 51.86 -93.57 51.86 C-91.81 51.86 -91.81 51.86 -90.03 51.87 C-88.83 51.87 -87.64 51.87 -86.41 51.86 C-83.88 51.86 -81.36 51.87 -78.83 51.87 C-74.95 51.87 -71.07 51.87 -67.19 51.86 C-64.74 51.86 -62.29 51.87 -59.84 51.87 C-58.67 51.87 -57.5 51.86 -56.3 51.86 C-55.22 51.86 -54.15 51.87 -53.04 51.87 C-52.09 51.87 -51.14 51.87 -50.16 51.87 C-48 52 -48 52 -47 53 C-45.07 53.1 -43.14 53.13 -41.21 53.13 C-39.43 53.13 -39.43 53.13 -37.61 53.14 C-36.36 53.13 -35.1 53.13 -33.81 53.12 C-31.96 53.13 -31.96 53.13 -30.08 53.14 C-28.88 53.14 -27.69 53.13 -26.46 53.13 C-25.36 53.13 -24.27 53.13 -23.14 53.13 C-20.02 53 -17.07 52.58 -14 52 C-14.01 50.96 -14.02 49.91 -14.03 48.83 C-14.07 44.96 -14.09 41.09 -14.11 37.21 C-14.12 35.53 -14.13 33.86 -14.15 32.18 C-14.18 29.77 -14.19 27.36 -14.2 24.95 C-14.21 24.2 -14.22 23.45 -14.23 22.68 C-14.23 18.9 -14.15 17.23 -12 14 C-11.87 11.85 -11.87 11.85 -12.06 9.56 C-12.12 6.63 -12.12 5.24 -10.81 2.56 C-7.49 -0.3 -4.18 -1.95 0 0 Z " fill="#EA9AAA" transform="translate(645,195)"/>
<path d="M0 0 C1.75 1.5 1.75 1.5 3 4 C3.05 6.26 2.94 8.44 2.71 10.68 C2.8 13.2 2.8 13.2 4.98 15.15 C7.53 18.74 7.6 21.68 7.61 25.93 C7.63 26.67 7.64 27.42 7.66 28.19 C7.71 30.57 7.73 32.94 7.75 35.31 C7.78 36.93 7.81 38.54 7.84 40.16 C7.91 44.11 7.96 48.05 8 52 C10.4 53.2 11.84 53.11 14.52 53.1 C15.47 53.09 16.43 53.09 17.41 53.09 C18.46 53.08 19.51 53.07 20.6 53.06 C22.9 53.05 25.2 53.04 27.51 53.04 C28.74 53.03 29.97 53.02 31.23 53.02 C37.77 52.99 44.32 52.98 50.86 52.98 C51.54 52.98 52.23 52.98 52.93 52.98 C68.45 52.98 83.96 53.07 99.47 53.26 C102.36 53.3 105.25 53.33 108.15 53.35 C112.21 53.38 116.27 53.43 120.33 53.49 C121.54 53.49 122.76 53.5 124 53.51 C125.12 53.53 126.24 53.55 127.39 53.57 C128.35 53.58 129.32 53.59 130.32 53.6 C134.25 54.19 137.01 55.75 139.47 58.87 C140.52 60.91 141.41 62.77 142 65 C140.88 67.69 140.88 67.69 139 70 C138.67 70.82 138.34 71.65 138 72.5 C136.92 75.2 135.54 77.54 134 80 C133.28 79.69 132.56 79.38 131.81 79.06 C128.25 77.72 125.42 76.7 121.62 77.5 C116.99 78.38 113.31 77.87 109.38 75.25 C106.87 72.88 104.41 70.47 102 68 C100.93 68.47 99.86 68.95 98.75 69.44 C96.66 70.35 94.86 71.03 92.62 71.5 C92.09 71.67 91.55 71.83 91 72 C90.67 72.99 90.34 73.98 90 75 C83.34 78.1 77.86 79.14 70.75 76.69 C68.46 75.82 67.15 75.15 65.43 73.39 C64.72 72.7 64.72 72.7 64 72 C60.01 72.09 57.16 73.41 53.69 75.19 C48.49 77.59 45.29 76.59 40 75 C27.37 72.21 27.37 72.21 15 75 C14.67 75.99 14.34 76.98 14 78 C11.18 79.41 9.13 79.25 6 79 C4.9 78.29 4.9 78.29 3.77 77.57 C-0.67 75.06 -5.5 74.84 -10.5 74.14 C-14.89 72.71 -15.79 70.93 -18 67 C-21.72 65.14 -25.94 65.55 -30 66 C-32.39 66.89 -32.39 66.89 -34.62 68.06 C-38.33 69.91 -40.67 70.16 -44.84 69.38 C-52.83 67.96 -58.78 68.74 -65.81 72.81 C-67.94 73.97 -69.59 74.72 -72 75 C-72.76 74.36 -73.53 73.72 -74.31 73.06 C-76.88 70.79 -76.88 70.79 -80.19 70.31 C-87.47 71.63 -92.98 76.78 -98 82 C-98 81.01 -98 80.02 -98 79 C-98.66 79 -99.32 79 -100 79 C-100.6 78.34 -101.2 77.68 -101.81 77 C-103.85 74.73 -103.85 74.73 -106.75 74.75 C-107.49 74.83 -108.24 74.92 -109 75 C-109 75.66 -109 76.32 -109 77 C-109.99 77 -110.98 77 -112 77 C-112.12 76.36 -112.24 75.72 -112.37 75.07 C-112.53 74.24 -112.7 73.41 -112.88 72.56 C-113.04 71.74 -113.2 70.92 -113.37 70.07 C-113.58 69.38 -113.78 68.7 -114 68 C-118.88 65.56 -126.65 66.16 -132 67 C-134.8 68.33 -136.81 69.72 -139.11 71.79 C-141 73 -141 73 -143.61 72.81 C-146 72 -146 72 -148 70 C-148.64 65.76 -148.43 62.01 -146.75 58.06 C-144.79 55.75 -143.84 55.05 -141 54 C-138.17 53.78 -135.42 53.65 -132.59 53.62 C-131.78 53.6 -130.96 53.59 -130.13 53.57 C-127.54 53.52 -124.96 53.48 -122.38 53.44 C-119.78 53.39 -117.19 53.35 -114.6 53.29 C-112.99 53.26 -111.38 53.24 -109.77 53.21 C-105.75 53.23 -105.75 53.23 -102 52 C-100.28 51.9 -98.56 51.87 -96.83 51.87 C-95.75 51.87 -94.68 51.86 -93.57 51.86 C-91.81 51.86 -91.81 51.86 -90.03 51.87 C-88.83 51.87 -87.64 51.87 -86.41 51.86 C-83.88 51.86 -81.36 51.87 -78.83 51.87 C-74.95 51.87 -71.07 51.87 -67.19 51.86 C-64.74 51.86 -62.29 51.87 -59.84 51.87 C-58.67 51.87 -57.5 51.86 -56.3 51.86 C-55.22 51.86 -54.15 51.87 -53.04 51.87 C-52.09 51.87 -51.14 51.87 -50.16 51.87 C-48 52 -48 52 -47 53 C-45.07 53.1 -43.14 53.13 -41.21 53.13 C-39.43 53.13 -39.43 53.13 -37.61 53.14 C-36.36 53.13 -35.1 53.13 -33.81 53.12 C-31.96 53.13 -31.96 53.13 -30.08 53.14 C-28.88 53.14 -27.69 53.13 -26.46 53.13 C-25.36 53.13 -24.27 53.13 -23.14 53.13 C-20.02 53 -17.07 52.58 -14 52 C-14.01 50.96 -14.02 49.91 -14.03 48.83 C-14.07 44.96 -14.09 41.09 -14.11 37.21 C-14.12 35.53 -14.13 33.86 -14.15 32.18 C-14.18 29.77 -14.19 27.36 -14.2 24.95 C-14.21 24.2 -14.22 23.45 -14.23 22.68 C-14.23 18.9 -14.15 17.23 -12 14 C-11.87 11.85 -11.87 11.85 -12.06 9.56 C-12.12 6.63 -12.12 5.24 -10.81 2.56 C-7.49 -0.3 -4.18 -1.95 0 0 Z " fill="#F1D6D4" transform="translate(645,195)"/>
<path d="M0 0 C3.56 2.11 4.69 3.08 6 7 C6.99 7.99 6.99 7.99 8 9 C3.05 9.5 3.05 9.5 -2 10 C-1.96 11.09 -1.93 12.17 -1.89 13.29 C-1.76 17.3 -1.64 21.31 -1.52 25.33 C-1.46 27.07 -1.41 28.8 -1.35 30.54 C-1.27 33.04 -1.19 35.53 -1.12 38.03 C-1.09 38.81 -1.07 39.59 -1.04 40.4 C-0.99 42.26 -0.99 44.13 -1 46 C-1.33 46.33 -1.66 46.66 -2 47 C-4.34 46.71 -6.67 46.38 -9 46 C-9.31 45.15 -9.62 44.31 -9.95 43.43 C-11.12 40.27 -12.3 37.1 -13.48 33.94 C-13.99 32.57 -14.5 31.21 -15 29.84 C-15.73 27.87 -16.46 25.9 -17.2 23.93 C-17.86 22.15 -17.86 22.15 -18.54 20.34 C-20.04 16.9 -21.74 14 -24 11 C-26.11 10.28 -26.11 10.28 -28.25 10.62 C-29.49 10.75 -30.73 10.87 -32 11 C-36.35 21.77 -40.9 35.25 -40 47 C-38.93 48.3 -38.93 48.3 -36.44 48.06 C-35.63 48.04 -34.83 48.02 -34 48 C-33.82 47.17 -33.64 46.34 -33.45 45.48 C-33.2 44.39 -32.95 43.31 -32.69 42.19 C-32.44 41.11 -32.2 40.03 -31.95 38.92 C-31.01 36.04 -30.45 34.73 -28 33 C-25 32.94 -25 32.94 -22 34 C-19.16 38.11 -18.49 42.09 -18 47 C-11.22 48.85 -4.67 49.37 2.32 49.66 C7.9 49.9 7.9 49.9 9 51 C12.27 51.25 15.53 51.38 18.8 51.52 C22.14 52.02 23.56 52.74 26 55 C25.67 55.99 25.34 56.98 25 58 C20.88 59.37 16.75 59.38 12.45 59.61 C9.42 59.78 6.9 60.03 4 61 C4 60.34 4 59.68 4 59 C2.7 59.07 1.4 59.14 0.06 59.21 C-14.2 59.95 -28.42 60.17 -42.69 60.12 C-44.34 60.12 -44.34 60.12 -46.02 60.12 C-51.59 60.1 -57.16 60.07 -62.73 60.03 C-67.57 60 -72.42 60 -77.27 60.02 C-80.5 60.02 -83.73 59.99 -86.96 59.96 C-88.43 59.94 -89.89 59.94 -91.35 59.96 C-103.6 60.05 -103.6 60.05 -108.81 55.71 C-112.53 51.99 -113.76 48.01 -115 43 C-115.49 41.5 -115.99 40 -116.5 38.5 C-116.75 37.76 -116.99 37.01 -117.25 36.25 C-117.75 34.75 -118.26 33.25 -118.79 31.75 C-120.09 27.97 -121.18 24.3 -121.94 20.38 C-122.58 17.22 -123.5 14.87 -125.19 12.12 C-125.79 11.09 -126.38 10.06 -127 9 C-126.67 8.01 -126.34 7.02 -126 6 C-125.3 6.25 -124.6 6.5 -123.88 6.75 C-119.82 7.1 -118.17 5.41 -115 3 C-111.29 0.53 -108.36 0.63 -104.06 0.62 C-103.35 0.6 -102.63 0.58 -101.89 0.55 C-98.4 0.53 -96.38 0.73 -93.51 2.79 C-91.39 5.89 -91.72 8.33 -92 12 C-91.01 12 -90.02 12 -89 12 C-89 11.34 -89 10.68 -89 10 C-86.19 9.31 -86.19 9.31 -83 9 C-81.12 10.31 -81.12 10.31 -80 12 C-80 12.66 -80 13.32 -80 14 C-79.34 14 -78.68 14 -78 14 C-77.5 14.99 -77.5 14.99 -77 16 C-76.34 15.11 -75.68 14.23 -75 13.31 C-71 8.55 -66.57 5.4 -60.38 4.44 C-57 5 -57 5 -54.12 7.25 C-51.24 9.33 -51.24 9.33 -48.77 8.45 C-45.75 7.09 -42.91 5.53 -40.05 3.86 C-37.5 2.79 -35.52 2.77 -32.75 2.81 C-31.29 2.83 -31.29 2.83 -29.8 2.85 C-27.41 2.98 -25.22 3.29 -22.88 3.75 C-18.95 4 -17.97 3.73 -14.62 2.06 C-9.75 -0.36 -5.38 -0.95 0 0 Z " fill="#E99AA9" transform="translate(625,260)"/>
<path d="M0 0 C0.91 0.54 0.91 0.54 1.84 1.09 C3.37 2.03 4.84 3.04 6.31 4.06 C6.31 4.72 6.31 5.38 6.31 6.06 C8.62 6.39 10.93 6.72 13.31 7.06 C13.58 6.13 13.85 5.21 14.12 4.25 C15.27 1.17 15.8 0.02 18.31 -1.94 C21.36 -2.55 24.25 -2.45 27.31 -1.94 C29.87 0.14 30.21 1.65 31 4.81 C31.24 7.33 31.34 9.67 31.31 12.19 C31.31 15.24 31.5 17.22 32.31 20.06 C33.46 15.96 34.34 12.77 34.19 8.5 C34.34 4.19 35.25 1.17 38.31 -1.94 C41.04 -3.11 43.34 -3.49 46.31 -3.94 C55.68 7.67 55.68 7.67 55.31 15.06 C54.19 18.56 54.19 18.56 52.31 22.06 C52.02 22.72 51.72 23.39 51.42 24.07 C47.99 30.84 42.3 33.62 35.31 36.06 C30.49 37.03 26.82 36.6 22.5 34.25 C20.92 33.17 20.92 33.17 19.31 32.06 C18.55 31.59 17.79 31.11 17 30.62 C14.89 28.67 14.19 26.77 13.31 24.06 C9.74 24.96 7.78 25.46 5.5 28.44 C1.96 32.68 -2.58 34.54 -7.99 35.45 C-13.63 35.73 -18.03 34.21 -22.69 31.06 C-23.71 30.09 -24.72 29.1 -25.69 28.06 C-28.12 28.41 -28.12 28.41 -30.69 30.06 C-31.8 32.22 -32.62 34.37 -33.4 36.68 C-36.01 41.51 -39.41 43.64 -44.46 45.31 C-45.85 45.59 -47.23 45.84 -48.62 46.06 C-49.73 46.25 -49.73 46.25 -50.86 46.43 C-59.02 47.57 -67.6 46.92 -74.92 42.81 C-78.11 40.27 -79.52 38.19 -80.12 34.19 C-79.69 31.06 -79.69 31.06 -76.69 28.69 C-75.7 28.15 -74.71 27.62 -73.69 27.06 C-74.55 26.73 -75.42 26.4 -76.31 26.06 C-80.69 23.47 -83.46 20.67 -85.69 16.06 C-86.39 11.74 -85.54 8.47 -83.3 4.75 C-81.56 2.39 -79.76 0.14 -77.69 -1.94 C-70.55 -2.4 -70.55 -2.4 -67.81 -0.94 C-66.03 2.23 -65.44 5.51 -64.69 9.06 C-64.03 8.4 -63.37 7.74 -62.69 7.06 C-61.03 5.72 -59.36 4.39 -57.69 3.06 C-56.76 2.15 -55.83 1.25 -54.88 0.31 C-51.74 -1.9 -49.73 -2.88 -45.84 -2.61 C-41.07 -1.13 -37.72 2.21 -34.69 6.06 C-33.22 9.34 -32.32 12.53 -31.69 16.06 C-31.23 15.39 -30.77 14.71 -30.3 14.02 C-29.68 13.12 -29.07 12.23 -28.44 11.31 C-27.83 10.43 -27.23 9.55 -26.61 8.64 C-23.94 5.06 -20.92 2.16 -17.44 -0.62 C-16.53 -1.39 -15.62 -2.15 -14.69 -2.94 C-14.69 -3.27 -14.69 -3.6 -14.69 -3.94 C-8.52 -5.44 -5.2 -3.18 0 0 Z M-64.69 10.06 C-64.69 10.72 -64.69 11.38 -64.69 12.06 C-64.03 12.06 -63.37 12.06 -62.69 12.06 C-62.69 11.4 -62.69 10.74 -62.69 10.06 C-63.35 10.06 -64.01 10.06 -64.69 10.06 Z M-51.69 23.06 C-55.17 24.14 -58.5 25.27 -61.69 27.06 C-62.99 30.17 -62.99 30.17 -62.69 33.06 C-59.04 34.71 -57.33 35.26 -53.44 34.06 C-50.14 31.67 -49.56 29.98 -48.69 26.06 C-49.68 25.07 -50.67 24.08 -51.69 23.06 Z " fill="#000100" transform="translate(706.6875,398.9375)"/>
<path d="M0 0 C2.49 2.81 2.95 3.37 3.19 6.88 C2.5 10.81 2.5 10.81 0.38 13.12 C-0.57 13.68 -1.52 14.24 -2.5 14.81 C-3.37 15.33 -4.23 15.84 -5.12 16.38 C-9.08 18.06 -13.04 19.07 -17.21 20.07 C-18.34 20.44 -18.34 20.44 -19.5 20.81 C-21.34 24.49 -20.97 28.88 -21.22 32.94 C-21.5 35.81 -21.5 35.81 -22.5 36.81 C-24.89 36.77 -27.24 36.67 -29.62 36.5 C-30.93 36.42 -32.23 36.34 -33.57 36.26 C-38.13 35.74 -42.49 35.2 -46.33 32.54 C-47.93 30.18 -48.5 27.89 -49.19 25.12 C-49.44 24.13 -49.69 23.14 -49.95 22.11 C-50.13 21.35 -50.31 20.59 -50.5 19.81 C-53.14 19.81 -55.78 19.81 -58.5 19.81 C-58.7 20.81 -58.91 21.81 -59.12 22.84 C-59.39 24.13 -59.66 25.42 -59.94 26.75 C-60.2 28.04 -60.47 29.33 -60.75 30.65 C-61.5 33.81 -61.5 33.81 -62.5 34.81 C-64.94 35 -64.94 35 -67.5 34.81 C-69.5 32.81 -69.5 32.81 -69.55 30.6 C-66.4 1.71 -66.4 1.71 -60.5 -4.19 C-55.53 -5.03 -55.53 -5.03 -52.5 -4.19 C-46.87 1.56 -44.28 9.78 -41.62 17.19 C-41.22 18.27 -40.82 19.35 -40.41 20.46 C-37.5 28.38 -37.5 28.38 -37.5 31.81 C-35.19 31.81 -32.88 31.81 -30.5 31.81 C-30.41 22.6 -30.78 13.45 -31.23 4.25 C-31.28 3.17 -31.33 2.1 -31.38 0.99 C-31.43 0.02 -31.47 -0.95 -31.52 -1.95 C-31.5 -4.19 -31.5 -4.19 -30.5 -5.19 C-19.85 -7.09 -9.07 -6.31 0 0 Z " fill="#050503" transform="translate(653.5,274.1875)"/>
<path d="M0 0 C3.17 1.04 6.03 2.49 9 4 C10.11 4.43 10.11 4.43 11.24 4.88 C14.19 6.09 16.36 7.04 18.16 9.75 C20.74 15.91 20.86 21.93 18.81 28.25 C16.15 34.52 10.54 37.19 4.61 40 C0.54 41.56 -2.74 42.03 -7 41 C-10.63 39.36 -13.75 37.28 -17 35 C-17.72 34.64 -18.44 34.27 -19.19 33.9 C-21.65 32.44 -22.65 31.56 -24 29 C-25.08 22.33 -25.82 13.74 -22 8 C-20.34 7.33 -18.67 6.66 -17 6 C-15.3 4.71 -13.63 3.37 -12 2 C-7.91 -0.72 -4.8 -0.62 0 0 Z M-5 16 C-7.37 18.85 -7.37 18.85 -6.62 22.19 C-6.42 23.12 -6.21 24.04 -6 25 C-3.69 25 -1.38 25 1 25 C2.37 22.27 2.13 20.02 2 17 C0.89 15.67 0.89 15.67 -1.94 15.75 C-2.95 15.83 -3.96 15.92 -5 16 Z " fill="#000100" transform="translate(585,395)"/>
<path d="M0 0 C0.99 0.33 1.98 0.66 3 1 C5.84 1.03 8.67 0.93 11.5 0.84 C14 1 14 1 16 3 C16.41 3.52 16.83 4.03 17.25 4.56 C19.97 6.8 21.43 7 25 7 C26.86 6.2 28.69 5.34 30.5 4.44 C35.58 1.93 35.58 1.93 39.56 2.56 C42.97 4.57 43.85 5.42 44.88 9.31 C45 13 45 13 43.44 15.62 C38.56 20.37 34.34 23.46 28 26 C27.22 26.52 26.43 27.03 25.62 27.56 C19.27 31.04 11.14 32.07 4 31 C0.9 28.81 0.2 27.59 -1 24 C-1.47 23.53 -1.95 23.05 -2.44 22.56 C-4.24 20.76 -5.06 19.37 -6 17 C-5.98 14.42 -5.98 14.42 -5.62 11.75 C-5.51 10.86 -5.4 9.97 -5.29 9.05 C-5.15 8.03 -5.15 8.03 -5 7 C-4.34 7 -3.68 7 -3 7 C-2.88 6.22 -2.75 5.43 -2.62 4.62 C-2 2 -2 2 0 0 Z " fill="#EA9AAA" transform="translate(791,292)"/>
<path d="M0 0 C1.75 1.5 1.75 1.5 3 4 C3.05 6.26 2.94 8.44 2.71 10.68 C2.79 13.19 2.79 13.19 4.98 15.11 C7.7 19 7.6 21.94 7.61 26.58 C7.63 27.8 7.63 27.8 7.66 29.05 C7.71 31.64 7.73 34.22 7.75 36.81 C7.78 38.57 7.81 40.33 7.84 42.09 C7.91 46.39 7.96 50.7 8 55 C6.27 55.35 4.53 55.69 2.79 56.02 C1.83 56.21 0.86 56.4 -0.14 56.59 C-4.26 57.18 -7.93 56.68 -12 56 C-13.52 55.81 -15.04 55.62 -16.56 55.44 C-17.7 55.29 -18.83 55.15 -20 55 C-20 54.34 -20 53.68 -20 53 C-17.03 52.5 -17.03 52.5 -14 52 C-14.01 50.96 -14.02 49.91 -14.03 48.83 C-14.07 44.96 -14.09 41.09 -14.11 37.21 C-14.12 35.53 -14.13 33.86 -14.15 32.18 C-14.18 29.77 -14.19 27.36 -14.2 24.95 C-14.21 24.2 -14.22 23.45 -14.23 22.68 C-14.23 18.9 -14.15 17.23 -12 14 C-11.87 11.85 -11.87 11.85 -12.06 9.56 C-12.12 6.63 -12.12 5.24 -10.81 2.56 C-7.49 -0.3 -4.18 -1.95 0 0 Z " fill="#F5D45A" transform="translate(645,195)"/>
<path d="M0 0 C9.39 4.34 9.39 4.34 10.89 7.34 C11.04 9.27 11.12 11.21 11.14 13.15 C11.17 14.19 11.2 15.22 11.22 16.29 C10.85 19.76 9.87 21.5 7.89 24.34 C7.49 24.99 7.1 25.65 6.68 26.32 C3.54 31.09 3.54 31.09 0.27 32.34 C-2.11 32.34 -2.11 32.34 -5.11 31.34 C-6.1 31.34 -7.09 31.34 -8.11 31.34 C-9.71 30.78 -11.29 30.17 -12.86 29.52 C-14.19 28.97 -14.19 28.97 -15.55 28.41 C-16.39 28.05 -17.24 27.7 -18.11 27.34 C-19.3 26.86 -20.5 26.39 -21.73 25.9 C-27.29 23.32 -33.32 20.28 -37.11 15.34 C-38.36 11.59 -38.36 11.59 -39.11 8.34 C-36.26 5.07 -34.47 3.64 -30.11 3.34 C-25.93 3.7 -23.62 3.99 -20.11 6.34 C-13.78 7.12 -10.75 4.32 -5.89 0.67 C-3.11 -0.66 -3.11 -0.66 0 0 Z " fill="#E99AAA" transform="translate(483.10546875,275.6640625)"/>
<path d="M0 0 C3.37 -0.12 6.75 -0.19 10.12 -0.25 C11.08 -0.28 12.03 -0.32 13.01 -0.35 C18.96 -0.43 22.57 -0.15 27 4 C27.62 8.43 27.5 10.25 25 14 C22.38 15.19 22.38 15.19 20 16 C20.06 17.17 20.12 18.34 20.18 19.54 C20.22 21.09 20.27 22.64 20.31 24.19 C20.35 24.96 20.4 25.73 20.44 26.52 C20.53 30.8 20.41 32.47 17.7 35.97 C14.23 38.58 12.35 39.31 8 39 C4.97 36.5 2.75 33.5 1 30 C0.72 26.89 0.55 23.77 0.38 20.65 C0.25 19.78 0.13 18.9 0 18 C-0.66 17.67 -1.32 17.34 -2 17 C-2 16.34 -2 15.68 -2 15 C-3.09 14.9 -4.19 14.79 -5.31 14.69 C-8.86 14.03 -9.93 13.8 -12 11 C-10.68 6.33 -10.68 6.33 -9 4 C-6.1 2.51 -3.17 1.7 0 1 C0 0.67 0 0.34 0 0 Z " fill="#000100" transform="translate(532,395)"/>
<path d="M0 0 C2.67 2.28 3.83 3.33 4.69 6.75 C3.61 11.86 1.01 14.73 -3 18 C-6.56 20.16 -10.3 21.92 -14.09 23.65 C-16.84 24.72 -16.84 24.72 -18 26 C-18.21 27.66 -18.37 29.33 -18.5 31 C-18.89 35.89 -18.89 35.89 -20 37 C-21.81 37.13 -21.81 37.13 -24 37.12 C-24.72 37.13 -25.44 37.13 -26.19 37.13 C-28 37 -28 37 -29 36 C-30.71 23.48 -30.1 10.6 -30 -2 C-19.2 -4.85 -10.38 -4.93 0 0 Z " fill="#26231D" transform="translate(693,272)"/>
<path d="M0 0 C2.75 2.87 2.49 5.24 2.63 9.15 C2.69 10.42 2.74 11.69 2.8 13 C2.84 14.47 2.84 14.47 2.88 15.96 C6.82 16.11 10.75 16.19 14.69 16.27 C15.81 16.32 16.93 16.36 18.08 16.4 C19.16 16.42 20.23 16.43 21.34 16.45 C22.33 16.48 23.32 16.5 24.34 16.53 C27.1 16.2 27.1 16.2 28.7 13.58 C29.87 10.99 30.32 9.09 30.5 6.27 C30.8 2.13 30.8 2.13 31.88 -0.04 C34.69 -0.35 34.69 -0.35 37.88 -0.04 C41.32 3.75 41.08 7.03 40.88 11.96 C40.52 15.14 40.02 18.3 39.5 21.46 C39.31 22.68 39.31 22.68 39.12 23.93 C38.35 28.74 37.32 33.31 35.88 37.96 C32.5 38.09 32.5 38.09 28.88 37.96 C28.22 37.3 27.56 36.64 26.88 35.96 C26.99 32.58 27.4 29.28 27.79 25.93 C27.82 24.95 27.85 23.97 27.88 22.96 C25.27 20.35 23.41 20.7 19.86 20.69 C18.69 20.7 18.69 20.7 17.5 20.71 C16.74 20.7 15.97 20.7 15.18 20.69 C9.75 20.7 9.75 20.7 4.88 22.96 C4.89 23.96 4.9 24.96 4.91 25.99 C4.92 27.28 4.93 28.57 4.94 29.9 C4.95 31.19 4.96 32.47 4.98 33.8 C4.88 36.96 4.88 36.96 3.88 37.96 C-1.49 38.43 -1.49 38.43 -3.75 36.75 C-8.5 30.56 -7.42 19.36 -7.81 11.84 C-7.86 10.9 -7.91 9.96 -7.96 9 C-7.99 8.12 -8.03 7.24 -8.07 6.33 C-8.1 5.54 -8.14 4.74 -8.17 3.93 C-8.12 1.96 -8.12 1.96 -7.12 -0.04 C-4.23 -1.05 -2.79 -1.37 0 0 Z " fill="#27231D" transform="translate(543.12109375,270.0390625)"/>
<path d="M0 0 C2.06 2.43 1.93 3.05 1.81 6.12 C1.79 7.42 1.77 8.72 1.75 10.06 C2.74 10.72 3.73 11.38 4.75 12.06 C7.67 9.56 9.09 7.38 10.5 3.88 C11.47 1.77 11.47 1.77 12.75 0.06 C15.58 -0.97 17.68 -0.94 20.75 -0.94 C24.91 4.17 26.04 8.43 26.06 15 C26.08 16.18 26.1 17.37 26.11 18.59 C25.4 25.39 22.08 29.38 16.97 33.58 C13.33 36.01 10.06 36.69 5.75 37.06 C4.14 37.22 4.14 37.22 2.5 37.38 C-5.84 37.82 -5.84 37.82 -9.41 35.89 C-11.97 33.54 -13.18 31.64 -13.62 28.19 C-13.5 27.49 -13.38 26.79 -13.25 26.06 C-5.97 26.56 -5.97 26.56 -2.19 29.19 C0.67 31.37 0.67 31.37 4.31 31.12 C8.48 29.84 10.12 28.52 12.75 25.06 C14.68 20.11 14.68 20.11 13.75 15.06 C13.04 15.38 12.32 15.71 11.59 16.04 C5.73 18.15 -0.18 17.87 -5.94 15.62 C-8.87 12.38 -8.83 10.52 -8.66 6.28 C-8.22 3.88 -7.52 2.15 -6.25 0.06 C-3.66 -1.23 -2.68 -1.12 0 0 Z " fill="#27271F" transform="translate(716.25,271.9375)"/>
<path d="M0 0 C2.49 2.81 2.95 3.37 3.19 6.88 C2.5 10.81 2.5 10.81 0.38 13.12 C-0.57 13.68 -1.52 14.24 -2.5 14.81 C-3.8 15.59 -3.8 15.59 -5.12 16.38 C-9.05 18.05 -12.97 19.07 -17.11 20.07 C-19.65 20.66 -19.65 20.66 -21.5 22.81 C-21.83 16.87 -22.16 10.93 -22.5 4.81 C-24.81 5.47 -27.12 6.13 -29.5 6.81 C-29.5 6.15 -29.5 5.49 -29.5 4.81 C-30.16 4.81 -30.82 4.81 -31.5 4.81 C-31.53 3.33 -31.55 1.85 -31.56 0.38 C-31.57 -0.45 -31.59 -1.27 -31.6 -2.12 C-31.5 -4.19 -31.5 -4.19 -30.5 -5.19 C-19.85 -7.09 -9.07 -6.31 0 0 Z " fill="#282820" transform="translate(653.5,274.1875)"/>
<path d="M0 0 C0.59 0.21 1.18 0.42 1.78 0.64 C2.11 2.29 2.44 3.94 2.78 5.64 C5.09 5.64 7.4 5.64 9.78 5.64 C9.78 5.97 9.78 6.3 9.78 6.64 C6.48 6.97 3.18 7.3 -0.22 7.64 C-0.17 9.27 -0.17 9.27 -0.11 10.93 C0.02 14.94 0.14 18.95 0.26 22.97 C0.32 24.71 0.37 26.45 0.43 28.18 C0.51 30.68 0.59 33.17 0.66 35.67 C0.7 36.84 0.7 36.84 0.74 38.04 C0.79 39.91 0.79 41.77 0.78 43.64 C0.45 43.97 0.12 44.3 -0.22 44.64 C-2.56 44.35 -4.89 44.02 -7.22 43.64 C-7.53 42.8 -7.84 41.96 -8.17 41.09 C-9.34 37.94 -10.52 34.78 -11.7 31.64 C-12.21 30.28 -12.71 28.92 -13.22 27.56 C-17.01 17.26 -17.01 17.26 -22.22 7.64 C-21.06 7.4 -21.06 7.4 -19.88 7.16 C-13.77 5.79 -8.94 4.35 -3.94 0.53 C-2.22 -0.36 -2.22 -0.36 0 0 Z " fill="#EA9AAA" transform="translate(623.21875,262.359375)"/>
<path d="M0 0 C2.81 -0.31 2.81 -0.31 6 0 C9.45 3.79 9.2 7.07 9 12 C8.64 15.18 8.14 18.34 7.62 21.5 C7.5 22.32 7.37 23.13 7.24 23.97 C6.47 28.78 5.44 33.35 4 38 C0.62 38.12 0.62 38.12 -3 38 C-3.66 37.34 -4.32 36.68 -5 36 C-4.98 33.41 -4.86 30.95 -4.62 28.38 C-4.57 27.67 -4.51 26.96 -4.45 26.23 C-4.31 24.49 -4.16 22.74 -4 21 C-3.34 21 -2.68 21 -2 21 C-2 19.35 -2 17.7 -2 16 C-2.66 16.33 -3.32 16.66 -4 17 C-3.69 16.2 -3.38 15.39 -3.06 14.56 C-1.99 10.97 -1.56 7.68 -1.25 3.95 C-1 2 -1 2 0 0 Z " fill="#020302" transform="translate(575,270)"/>
<path d="M0 0 C2.88 1.69 2.88 1.69 5 4 C5.73 9 4.98 11.95 2 16 C1 17 1 17 -1.13 17.11 C-2.05 17.11 -2.97 17.1 -3.91 17.1 C-4.9 17.09 -5.89 17.09 -6.91 17.09 C-7.95 17.08 -8.99 17.07 -10.06 17.06 C-11.11 17.06 -12.15 17.05 -13.23 17.05 C-15.82 17.04 -18.41 17.02 -21 17 C-8.18 -3.43 -8.18 -3.43 0 0 Z " fill="#EA9AAA" transform="translate(569,270)"/>
<path d="M0 0 C2.41 -0.26 2.41 -0.26 5.41 -0.11 C7.02 -0.03 7.02 -0.03 8.66 0.04 C9.78 0.11 10.91 0.18 12.06 0.25 C13.19 0.3 14.32 0.36 15.48 0.41 C23.84 0.84 23.84 0.84 25 2 C28.27 2.25 31.53 2.38 34.8 2.52 C38.14 3.02 39.56 3.74 42 6 C41.67 6.99 41.34 7.98 41 9 C26.48 9 11.96 9 -3 9 C-2 3 -2 3 0 0 Z " fill="#F2B0BC" transform="translate(609,309)"/>
<path d="M0 0 C3.16 1.81 4.58 2.83 5.81 6.25 C5.87 6.83 5.94 7.4 6 8 C4.35 8 2.7 8 1 8 C0.5 5.52 0.5 5.52 0 3 C-4.99 3.37 -8.05 5.07 -12.07 7.84 C-15.65 9.99 -19.07 10.13 -23.18 10.13 C-24.67 10.13 -24.67 10.13 -26.19 10.14 C-27.73 10.13 -27.73 10.13 -29.31 10.12 C-30.33 10.13 -31.35 10.13 -32.4 10.14 C-37.71 10.13 -42.77 9.93 -48 9 C-47.01 8.34 -46.02 7.68 -45 7 C-44.01 6.3 -43.02 5.6 -42 4.88 C-36.13 1.54 -29.27 2.54 -22.88 3.75 C-18.95 4 -17.97 3.73 -14.62 2.06 C-9.74 -0.36 -5.39 -0.94 0 0 Z " fill="#F3B2BD" transform="translate(625,260)"/>
<path d="M0 0 C0.99 0.5 0.99 0.5 2 1 C4.01 0.72 6.01 0.39 8 0 C10.55 8.92 11.29 22.41 7 31 C5.68 31 4.36 31 3 31 C-1.94 22.24 -0.11 9.8 0 0 Z " fill="#020201" transform="translate(623,279)"/>
<path d="M0 0 C3.77 3.77 5.12 8.09 5.12 13.31 C5.08 14.53 5.04 15.75 5 17 C4.44 16.86 3.89 16.71 3.31 16.56 C-1.94 15.28 -6.6 14.8 -12 15 C-13.02 12.33 -13.07 11.2 -12.11 8.46 C-11.66 7.58 -11.21 6.71 -10.75 5.81 C-10.09 4.49 -10.09 4.49 -9.42 3.14 C-7.11 -0.34 -3.93 -0.49 0 0 Z " fill="#020301" transform="translate(737,271)"/>
<path d="M0 0 C2.06 2.43 1.93 3.05 1.81 6.12 C1.79 7.42 1.77 8.72 1.75 10.06 C4.7 12.43 4.7 12.43 8.75 12.06 C8.75 12.72 8.75 13.38 8.75 14.06 C10.07 14.39 11.39 14.72 12.75 15.06 C7.94 17.88 3.17 17.66 -2.25 17.06 C-5.94 15.62 -5.94 15.62 -8.25 13.06 C-9.2 8.32 -8.79 4.22 -6.25 0.06 C-3.66 -1.23 -2.68 -1.12 0 0 Z " fill="#27231D" transform="translate(716.25,271.9375)"/>
<path d="M0 0 C3.31 1.94 3.31 1.94 6 4 C6.66 4.33 7.32 4.66 8 5 C7.01 6.32 6.02 7.64 5 9 C4.22 8.46 4.22 8.46 3.43 7.91 C-1.8 4.29 -1.8 4.29 -8 4 C-8.25 4.72 -8.5 5.44 -8.75 6.19 C-10.13 9.29 -11.83 11.39 -14 14 C-15.27 15.87 -16.52 17.75 -17.75 19.64 C-18.17 20.09 -18.58 20.54 -19 21 C-19.99 21 -20.98 21 -22 21 C-23.26 18.48 -23.1 16.69 -23.06 13.88 C-23.05 12.96 -23.04 12.05 -23.04 11.12 C-23.02 10.42 -23.01 9.72 -23 9 C-22.34 9 -21.68 9 -21 9 C-20.67 9.66 -20.34 10.32 -20 11 C-19.01 9.67 -19.01 9.67 -18 8.31 C-13.23 2.64 -7.65 -1.27 0 0 Z " fill="#F2B0BB" transform="translate(568,265)"/>
<path d="M0 0 C0.72 -0.02 1.43 -0.05 2.17 -0.07 C5.66 -0.09 7.69 0.11 10.55 2.16 C12.67 5.27 12.34 7.71 12.06 11.38 C12.72 11.38 13.38 11.38 14.06 11.38 C14.06 13.02 14.06 14.68 14.06 16.38 C11.16 13.98 10.56 12.06 10.06 8.38 C6.72 7.26 4.14 7.24 0.62 7.25 C-0.51 7.25 -1.64 7.24 -2.81 7.24 C-5.77 7.26 -5.77 7.26 -7.93 7.88 C-10.86 8.6 -13.68 8.47 -16.69 8.44 C-17.86 8.43 -19.03 8.42 -20.23 8.41 C-21.13 8.4 -22.02 8.39 -22.94 8.38 C-22.61 7.38 -22.28 6.39 -21.94 5.38 C-21.24 5.62 -20.54 5.87 -19.81 6.12 C-15.76 6.48 -14.1 4.78 -10.94 2.38 C-7.23 -0.1 -4.29 0.01 0 0 Z " fill="#F2B1BC" transform="translate(520.9375,260.625)"/>
<path d="M0 0 C2.65 2.99 3.9 4.88 4.25 8.88 C4.17 9.58 4.09 10.28 4 11 C2.76 11.68 1.5 12.34 0.25 13 C-0.45 13.37 -1.14 13.74 -1.86 14.12 C-4 15 -4 15 -8 15 C-8 14.34 -8 13.68 -8 13 C-8.66 13 -9.32 13 -10 13 C-11.47 4.3 -11.47 4.3 -9 0 C-5.74 -1.63 -3.45 -0.89 0 0 Z " fill="#EA9AAA" transform="translate(642,274)"/>
<path d="M0 0 C1.05 0.16 1.05 0.16 2.12 0.32 C3.18 0.47 3.18 0.47 4.25 0.62 C6.12 1.01 6.12 1.01 8.12 2.01 C9.5 4.7 9.5 4.7 10.12 8.01 C8.17 11.84 5.97 14.97 2.12 17.01 C-0.23 16.74 -1.76 16.07 -3.88 15.01 C-3.93 12.89 -3.97 10.76 -4 8.64 C-4.02 7.45 -4.05 6.27 -4.07 5.05 C-3.86 1.83 -3.57 0.02 0 0 Z " fill="#EA9AAA" transform="translate(676.875,271.98828125)"/>
<path d="M0 0 C2.98 2.98 4 5.8 4 10 C6.97 10 9.94 10 13 10 C13.33 8.68 13.66 7.36 14 6 C14 8.64 14 11.28 14 14 C15.32 14 16.64 14 18 14 C18.33 9.71 18.66 5.42 19 1 C19.33 1 19.66 1 20 1 C20.03 3.15 20.05 5.29 20.06 7.44 C20.07 8.63 20.09 9.83 20.1 11.06 C20 14 20 14 19 15 C16.61 14.96 14.26 14.85 11.88 14.69 C10.57 14.61 9.27 14.53 7.93 14.45 C3.42 13.93 -1.04 13.31 -4.88 10.75 C-6.47 8.28 -6.68 5.89 -7 3 C-6.34 2.67 -5.68 2.34 -5 2 C-4.67 2.66 -4.34 3.32 -4 4 C-3.01 4 -2.02 4 -1 4 C-0.67 2.68 -0.34 1.36 0 0 Z " fill="#27241E" transform="translate(612,296)"/>
<path d="M0 0 C2.81 -0.31 2.81 -0.31 6 0 C8.58 2.84 8.98 4.68 9.25 8.5 C9.04 11.44 8.69 14.14 8 17 C7.63 16.34 7.26 15.68 6.88 15 C5.09 12.65 5.09 12.65 1.81 12.75 C0.42 12.87 0.42 12.87 -1 13 C-1.03 11.21 -1.05 9.42 -1.06 7.62 C-1.07 6.63 -1.09 5.63 -1.1 4.6 C-1 2 -1 2 0 0 Z " fill="#27251E" transform="translate(575,270)"/>
<path d="M0 0 C2.54 2.27 4.97 4.59 7.31 7.06 C9.28 9.03 12.66 8.72 15.31 9.06 C15.31 10.05 15.31 11.04 15.31 12.06 C12.76 13.02 10.99 13.32 8.41 12.34 C5.31 10.77 2.31 9.06 -0.69 7.31 C-4.61 5.68 -7.46 5.84 -11.69 6.06 C-10.54 2.62 -10.02 2.32 -6.94 0.69 C-3.12 -1.09 -3.12 -1.09 0 0 Z " fill="#F3B2BD" transform="translate(748.6875,262.9375)"/>
<path d="M0 0 C5.13 -0.62 5.13 -0.62 8 0 C9.45 1.52 9.45 1.52 10.75 3.44 C12.76 6.23 13.61 6.91 17.04 7.69 C20.04 7.91 22.99 8.03 26 8 C26 8.33 26 8.66 26 9 C7 9.37 7 9.37 -1 7 C-0.67 4.69 -0.34 2.38 0 0 Z " fill="#F2AFBB" transform="translate(669,311)"/>
<path d="M0 0 C-2.35 2.35 -3.97 2.95 -7.27 3.11 C-8.13 3.11 -9 3.1 -9.89 3.1 C-10.82 3.09 -11.76 3.09 -12.73 3.09 C-13.7 3.08 -14.68 3.07 -15.69 3.06 C-17.17 3.06 -17.17 3.06 -18.68 3.05 C-21.12 3.04 -23.56 3.02 -26 3 C-25.67 1.68 -25.34 0.36 -25 -1 C-16.81 -3.43 -8.09 -2.16 0 0 Z " fill="#F3B2BD" transform="translate(763,314)"/>
<path d="M0 0 C1.94 1.88 1.94 1.88 3 4 C3 4.99 3 5.98 3 7 C1.01 6.97 -0.97 6.93 -2.96 6.9 C-5.2 6.92 -5.2 6.92 -8 8 C-8 7.01 -8 6.02 -8 5 C-8.66 5 -9.32 5 -10 5 C-9.62 2.56 -9.62 2.56 -9 0 C-5.82 -1.59 -3.39 -0.77 0 0 Z " fill="#F2AFBB" transform="translate(642,274)"/>
<path d="M0 0 C3.26 -0.29 3.26 -0.29 7.12 -0.19 C9.05 -0.15 9.05 -0.15 11.01 -0.11 C12 -0.07 12.98 -0.04 14 0 C15.12 4.75 15.12 4.75 14 7 C8.47 6.27 3.3 4.67 -2 3 C-1.34 2.01 -0.68 1.02 0 0 Z " fill="#F2B5BF" transform="translate(461,298)"/>
<path d="M0 0 C0.99 0 1.98 0 3 0 C3 0.99 3 1.98 3 3 C0.94 3.69 0.94 3.69 -1.12 4.38 C-1.94 4.65 -2.76 4.92 -3.61 5.21 C-5.54 5.85 -7.49 6.46 -9.44 7.06 C-12.12 7.84 -12.12 7.84 -14 10 C-14 6.7 -14 3.4 -14 0 C-13.34 0 -12.68 0 -12 0 C-12 0.66 -12 1.32 -12 2 C-11.08 1.66 -11.08 1.66 -10.14 1.31 C-9.33 1.02 -8.52 0.73 -7.69 0.44 C-6.49 0 -6.49 0 -5.26 -0.44 C-3 -1 -3 -1 0 0 Z " fill="#181612" transform="translate(646,287)"/>
<path d="M0 0 C2.7 2.7 3.04 5.35 4 9 C4.33 9.99 4.66 10.98 5 12 C2.03 12 -0.94 12 -4 12 C-4.3 4.32 -4.3 4.32 -2 1 C-1.34 0.67 -0.68 0.34 0 0 Z " fill="#272820" transform="translate(599,282)"/>
<path d="M0 0 C0.33 0 0.66 0 1 0 C1.03 2.15 1.05 4.29 1.06 6.44 C1.07 7.63 1.09 8.83 1.1 10.06 C1 13 1 13 0 14 C-2.54 13.91 -5.04 13.76 -7.56 13.56 C-8.27 13.51 -8.98 13.46 -9.72 13.4 C-11.48 13.27 -13.24 13.14 -15 13 C-15 11.68 -15 10.36 -15 9 C-12.03 9 -9.06 9 -6 9 C-5.67 7.68 -5.34 6.36 -5 5 C-5 7.64 -5 10.28 -5 13 C-3.68 13 -2.36 13 -1 13 C-0.67 8.71 -0.34 4.42 0 0 Z " fill="#334331" transform="translate(631,297)"/>
<path d="M0 0 C0.33 0.99 0.66 1.98 1 3 C3.02 3.73 3.02 3.73 5 4 C3.66 3.97 3.66 3.97 2.3 3.93 C1.13 3.91 -0.04 3.89 -1.25 3.88 C-2.41 3.85 -3.57 3.83 -4.77 3.8 C-7.9 3.99 -9.33 4.5 -12 6 C-15.25 6.12 -15.25 6.12 -18 6 C-16.5 3.01 -14.29 2.6 -11.25 1.31 C-10.2 0.85 -9.16 0.4 -8.08 -0.07 C-4.84 -1.05 -3.19 -0.98 0 0 Z " fill="#F3B2BD" transform="translate(711,267)"/>
<path d="M0 0 C0.99 0.33 1.98 0.66 3 1 C4.89 1.07 6.79 1.08 8.69 1.06 C9.68 1.05 10.68 1.04 11.7 1.04 C12.46 1.02 13.22 1.01 14 1 C14 1.99 14 2.98 14 4 C6.08 4.5 6.08 4.5 -2 5 C-2 2 -2 2 0 0 Z " fill="#F2B0BB" transform="translate(791,292)"/>
<path d="M0 0 C0.33 0 0.66 0 1 0 C1 1.65 1 3.3 1 5 C3.31 5 5.62 5 8 5 C7.67 6.65 7.34 8.3 7 10 C3.62 10.12 3.62 10.12 0 10 C-2 8 -2 8 -2.12 5.38 C-2.08 4.59 -2.04 3.81 -2 3 C-1.34 3 -0.68 3 0 3 C0 2.01 0 1.02 0 0 Z " fill="#272820" transform="translate(572,298)"/>
<path d="M0 0 C1.37 0.02 1.37 0.02 2.78 0.04 C3.7 0.04 4.62 0.05 5.56 0.06 C6.27 0.07 6.98 0.09 7.71 0.1 C7.71 0.76 7.71 1.42 7.71 2.1 C6.06 2.1 4.41 2.1 2.71 2.1 C2.43 2.7 2.14 3.29 1.84 3.91 C0.71 6.1 0.71 6.1 -1.29 9.1 C-1.65 7.79 -2 6.47 -2.35 5.16 C-2.64 4.06 -2.64 4.06 -2.95 2.95 C-3.06 2.34 -3.17 1.73 -3.29 1.1 C-2.29 0.1 -2.29 0.1 0 0 Z " fill="#2B472E" transform="translate(673.28515625,267.90234375)"/>
<path d="M0 0 C6.65 1.48 6.65 1.48 8.44 4.12 C8.72 5.05 8.72 5.05 9 6 C8.01 6.33 7.02 6.66 6 7 C5.34 6.67 4.68 6.34 4 6 C4 5.34 4 4.68 4 4 C1.69 3.67 -0.62 3.34 -3 3 C-2.01 2.01 -1.02 1.02 0 0 Z " fill="#EEADB7" transform="translate(826,294)"/>
<path d="M0 0 C1.88 1.81 1.88 1.81 3 4 C2.67 4.99 2.34 5.98 2 7 C1.34 5.35 0.68 3.7 0 2 C-3.44 2.18 -3.44 2.18 -7 3 C-8.51 4.94 -8.51 4.94 -9 7 C-9 5.35 -9 3.7 -9 2 C-5.9 0.16 -3.61 -0.55 0 0 Z " fill="#1B1915" transform="translate(737,271)"/>
<path d="M0 0 C2 1 2 1 2 1 Z " fill="#13110E" transform="translate(642,404)"/>
<path d="M0 0 C2 1 2 1 2 1 Z " fill="#000100" transform="translate(653,395)"/>
<path d="M0 0 C2 1 2 1 2 1 Z " fill="#000100" transform="translate(794,388)"/>
<path d="M0 0 C2 1 2 1 2 1 Z " fill="#000100" transform="translate(710,350)"/>
<path d="M0 0 C2 1 2 1 2 1 Z " fill="#000100" transform="translate(842,343)"/>
<path d="" fill="#EA9AAA" transform="translate(0,0)"/>
<path d="M0 0 C2 1 2 1 2 1 Z " fill="#EA9AAA" transform="translate(786,296)"/>
<path d="M0 0 C2 1 2 1 2 1 Z " fill="#F2D7D6" transform="translate(499,249)"/>
<path d="" fill="#000100" transform="translate(0,0)"/>
<path d="" fill="#000100" transform="translate(0,0)"/>
<path d="" fill="#000100" transform="translate(0,0)"/>
<path d="" fill="#000100" transform="translate(0,0)"/>
<path d="" fill="#000100" transform="translate(0,0)"/>
<path d="" fill="#000100" transform="translate(0,0)"/>
<path d="" fill="#000100" transform="translate(0,0)"/>
<path d="" fill="#000100" transform="translate(0,0)"/>
<path d="" fill="#EA9AAA" transform="translate(0,0)"/>
<path d="" fill="#F2D7D6" transform="translate(0,0)"/>
<path d="" fill="#EA9AAA" transform="translate(0,0)"/>
<path d="" fill="#F3B2BD" transform="translate(0,0)"/>
<path d="" fill="#F6D558" transform="translate(0,0)"/>
</svg>
