<?xml version="1.0" encoding="UTF-8"?>
<!-- Generator: visioncortex VTracer 0.6.3 -->
<svg version="1.1" xmlns="http://www.w3.org/2000/svg" width="1280" height="640">
<path d="M0 0 C14.58 -0.58 14.58 -0.58 21.31 4.88 C23.25 7.31 23.76 8.92 24 12 C23.67 12.66 23.34 13.32 23 14 C24.32 14.33 25.64 14.66 27 15 C27 15.66 27 16.32 27 17 C27.66 17.04 28.32 17.08 29 17.12 C32.09 18.03 33.42 19 35.88 21 C39.66 24.01 42.2 24.8 47 25 C46.98 24.22 46.96 23.43 46.94 22.62 C47 20 47 20 48 18 C47.75 15.71 47.36 13.46 46.96 11.19 C47 9 47 9 48.37 7.26 C52.28 4.24 57.26 4.61 62 5 C65.17 5.97 66.65 6.65 69 9 C69.09 11.36 69.09 11.36 68.94 14.19 C68.84 19.35 69.51 22.49 72 27 C72.99 27.99 72.99 27.99 74 29 C74 29.99 74 30.98 74 32 C74.66 32 75.32 32 76 32 C76.7 33.41 77.39 34.83 78.06 36.25 C78.45 37.04 78.83 37.83 79.22 38.64 C80.11 41.32 80.07 42.42 79 45 C76.5 47.69 76.5 47.69 74 50 C73.67 50.33 73.34 50.66 73 51 C73.66 51.33 74.32 51.66 75 52 C78.19 59.39 77.47 68.07 74.69 75.5 C72.9 78.14 71.08 80.58 69 83 C68.47 83.64 67.94 84.29 67.4 84.95 C63.92 89.09 60.69 92.21 56 95 C54.93 95.74 53.86 96.49 52.75 97.25 C50 99 50 99 48 99 C45.6 103.15 45 107.24 45 112 C50.47 110.79 53.26 109.31 57.31 105.25 C62.16 100.63 67.02 97.02 73 94 C73.83 93.57 74.67 93.14 75.52 92.7 C78 92 78 92 80.2 92.83 C81.22 93.53 81.22 93.53 82.25 94.25 C82.94 94.71 83.62 95.17 84.33 95.64 C86 97 86 97 87 99 C87.52 106.06 85.9 112.22 84 119 C87.33 119.42 87.33 119.42 91 119 C93.24 116.83 93.24 116.83 95 114 C97.4 111.48 99.75 109.19 102.5 107.06 C105.46 104.62 107.62 102 110 99 C109.28 98.61 108.56 98.22 107.81 97.81 C103.68 95.15 100.72 92.08 98 88 C97.13 83.67 97.09 79.69 99.21 75.74 C103.35 70.62 108.6 66.74 115 65 C118.21 65.18 121 65.86 124 67 C123.4 67.72 122.8 68.44 122.19 69.19 C119.96 71.91 119.96 71.91 118.38 74.81 C117.92 75.53 117.47 76.26 117 77 C116.34 77 115.68 77 115 77 C115.33 80.3 115.66 83.6 116 87 C116.79 87.3 117.57 87.61 118.38 87.92 C124.55 90.38 129.8 92.86 135 97 C137.35 90.26 138.62 83.74 135.69 76.98 C134.21 74.26 132.65 71.63 131 69 C130.67 68.34 130.34 67.68 130 67 C133.5 66.05 135.73 65.48 139.14 66.87 C143.38 69.39 145.6 71.66 148 76 C150.57 77.81 150.57 77.81 153 79 C153.27 78.48 153.54 77.96 153.81 77.43 C156.88 71.96 160.03 68.24 166 66 C174.84 64.22 186.06 66.84 194 71 C200.06 76.41 202.97 83.27 205 91 C212.48 87.59 219.34 83.7 223 76 C224.65 71.56 225.51 67.32 226.12 62.62 C226.29 61.38 226.46 60.13 226.63 58.85 C226.75 57.91 226.88 56.97 227 56 C224.99 56.8 224.99 56.8 223 58 C222.02 61.68 221.89 65.2 222 69 C218.87 70.66 217.4 71.08 213.88 70.38 C210.76 68.88 209.54 68.07 208 65 C207.41 60.34 208.31 57.81 211 54 C210.34 54 209.68 54 209 54 C205.68 48.58 206.67 42.14 206.69 36 C206.67 34.72 206.66 33.43 206.64 32.11 C206.64 30.88 206.64 29.64 206.64 28.38 C206.63 27.25 206.63 26.12 206.63 24.96 C207.03 21.73 207.82 20.37 210 18 C213.72 18.29 216.3 18.5 219.38 20.69 C221.33 23.46 221.5 25.69 222 29 C222.99 29.66 223.98 30.32 225 31 C225.18 30.39 225.36 29.77 225.55 29.14 C225.8 28.33 226.05 27.52 226.31 26.69 C226.56 25.89 226.8 25.09 227.05 24.26 C228.09 21.8 228.83 20.56 231 19 C233.38 18.67 233.38 18.67 236 18.75 C236.87 18.77 237.73 18.78 238.62 18.8 C241 19 241 19 244 20 C246.69 18.13 246.69 18.13 249 16 C252.38 17.19 254.65 18.28 257 21 C257.64 20.22 258.28 19.43 258.94 18.62 C262.4 15.21 266.19 14.16 271 14 C276.07 14.95 280.83 16.96 285 20 C287.71 24.07 287.51 27.23 287 32 C285.62 36.13 284.7 37.56 281 39.88 C278 41 278 41 275 41 C274.89 41.69 274.78 42.37 274.67 43.08 C274.51 43.98 274.35 44.88 274.19 45.81 C273.96 47.15 273.96 47.15 273.73 48.52 C272.91 51.31 272.27 52.22 270 54 C266.55 54.63 263.06 54.46 259.56 54.44 C258.61 54.46 257.65 54.48 256.67 54.5 C249.72 54.49 249.72 54.49 246.39 52.21 C244.5 49.21 244.27 46.49 244 43 C243.67 43 243.34 43 243 43 C242.92 44.07 242.84 45.14 242.75 46.25 C242 50 242 50 240.56 52.44 C236.57 54.87 232.56 54.31 228 54 C228 54.66 228 55.32 228 56 C228.85 55.98 229.69 55.96 230.56 55.94 C235.76 57.54 238.19 61.47 241 66 C241 66.66 241 67.32 241 68 C244.47 67.54 247.67 67.11 251 66 C254.44 67.83 256.55 69.18 258.44 72.62 C259 75 259 75 258 77 C257.34 77 256.68 77 256 77 C255.77 77.87 255.55 78.73 255.31 79.62 C253.39 84.56 250.24 87.82 246.44 91.44 C244.05 93.95 242.59 96.23 240.96 99.25 C240 101 240 101 238 103.94 C234.48 109.32 231.85 114.83 230 121 C233.51 119.79 233.51 119.79 237 118 C238.04 115.93 238.04 115.93 238 114 C238.95 113.92 239.9 113.83 240.88 113.75 C241.91 113.5 242.94 113.25 244 113 C245.14 111.22 245.14 111.22 246 109 C248.38 106.42 250.7 104.22 253.56 102.19 C256.32 99.71 257.37 97.53 258.91 94.22 C262.13 87.66 265.54 82.65 272 79 C272.62 78.48 273.24 77.97 273.88 77.44 C276.45 75.69 279.07 74.76 282 73.75 C284.01 73.07 284.01 73.07 285.7 71.93 C289.35 70.46 292.98 70.67 296.88 70.69 C297.67 70.67 298.46 70.66 299.27 70.64 C305.75 70.63 309.75 72.27 314.94 76.25 C317 79 317 79 317 82.25 C316.04 85.86 314.87 89.33 313.63 92.84 C312.82 95.61 312.78 98.13 313 101 C313.66 101 314.32 101 315 101 C316.01 99.34 317.01 97.67 318 96 C319.49 95.01 319.49 95.01 321 94 C321.12 92.95 321.25 91.9 321.38 90.81 C322.06 86.65 323.15 85.04 325.68 81.83 C327.09 79.88 328.02 77.94 329 75.75 C330.72 72.2 332.19 70.45 336 69 C339.16 68.62 341.09 68.48 343.88 70.06 C345.71 73.22 345.4 75.38 345 79 C343.86 82.43 342.45 85.7 341 89 C340.33 90.66 339.66 92.33 339 94 C339.99 94 340.98 94 342 94 C342.33 92.35 342.66 90.7 343 89 C343.89 88.76 343.89 88.76 344.79 88.52 C350.16 86.94 353.28 85.34 357 81 C360.33 77.67 363.67 74.33 367 71 C367.84 70.1 367.84 70.1 368.69 69.19 C370 68 370 68 372 68 C372.27 67.38 372.54 66.76 372.81 66.12 C374.71 62.72 377.09 61.97 380.69 60.69 C385.34 59.59 388.91 60.63 393 63 C397.83 67.12 400.51 73.16 401.31 79.41 C401.7 84.56 401.84 89.72 401.87 94.88 C401.92 97.03 401.92 97.03 402.62 99.13 C402.75 99.75 402.87 100.37 403 101 C401.19 103.25 401.19 103.25 399 105 C398.34 105 397.68 105 397 105 C396.85 105.89 396.85 105.89 396.7 106.79 C395.72 111.97 394.57 115 391 119 C390.57 119.92 390.14 120.84 389.7 121.79 C387.79 125.39 385.62 127.85 382.75 130.75 C381.84 131.69 380.92 132.64 379.98 133.61 C376.7 136.24 374.02 136.92 370 138 C369.67 138.99 369.34 139.98 369 141 C366.59 142 364.3 142.82 361.81 143.56 C360.82 143.87 360.82 143.87 359.81 144.19 C358.56 144.59 357.3 144.98 356.04 145.36 C354.42 145.87 352.81 146.45 351.22 147.05 C345.68 148.68 339.99 148.37 334.26 148.37 C332.07 148.37 329.89 148.41 327.7 148.45 C314.77 148.55 314.77 148.55 309 144 C307.76 143.07 307.76 143.07 306.5 142.12 C305 140 305 140 305 137.12 C307.58 129.06 312.99 125.21 320 121 C322.95 119.52 325.93 118.2 329 117 C329 116.34 329 115.68 329 115 C334.94 114.01 334.94 114.01 341 113 C341.33 112.01 341.66 111.02 342 110 C330.14 109.44 330.14 109.44 319 113 C318.52 113.51 318.04 114.02 317.55 114.54 C314.24 117.66 309.89 117.19 305.56 117.25 C304.45 117.28 303.34 117.3 302.19 117.33 C297.53 116.85 295.03 114.97 291.66 111.8 C288.14 109.42 285.41 109.76 281.38 110.25 C279.95 110.39 278.52 110.53 277.09 110.66 C276.39 110.73 275.7 110.8 274.98 110.87 C272.28 111.05 269.64 110.83 266.94 110.62 C263.9 110.58 262.46 110.69 259.91 112.38 C258.09 114.16 256.54 115.97 255 118 C254.3 118.87 253.6 119.73 252.88 120.62 C252.26 121.41 251.64 122.19 251 123 C245.11 129.78 237.02 135.53 227.94 136.24 C226.83 136.26 225.71 136.29 224.56 136.31 C223.45 136.35 222.34 136.39 221.19 136.43 C216.37 135.78 214.12 133.09 210.75 129.81 C208.31 125.9 207.67 122.6 208 118 C208.81 115.4 209.82 112.99 210.94 110.51 C212.52 106.76 213.23 102.99 214 99 C213.3 99.29 212.6 99.58 211.88 99.88 C209 101 209 101 205.81 101.88 C202.97 102.69 202.97 102.69 202.01 104.62 C200.39 108.44 198.81 112.27 197.3 116.13 C196.61 117.79 195.81 119.4 195 121 C194.01 121.33 193.02 121.66 192 122 C191.69 122.78 191.38 123.57 191.06 124.38 C189.27 128.79 185.55 130.42 181.31 132.25 C175.32 134.54 170.74 134.39 164.77 132.17 C160.94 130.42 158.08 128.79 156 125 C155.01 122.04 154.9 120.18 154.94 117.1 C154.95 116.13 154.95 115.16 154.96 114.16 C154.98 113.14 154.99 112.12 155 111.06 C155.06 102.98 154.97 95.04 154 87 C153.96 87.81 153.93 88.62 153.89 89.45 C153.79 91.05 153.79 91.05 153.69 92.69 C153.63 93.74 153.57 94.8 153.51 95.89 C152.8 100.23 151.08 102.92 148 106 C147.39 107.99 146.84 109.99 146.31 112 C144.38 118.49 141.77 124.11 137 129 C135.34 129.68 133.67 130.34 132 131 C131.67 131.99 131.34 132.98 131 134 C126.27 136.64 121.49 136.64 116.31 135.31 C112.7 133.26 110.53 130.64 109.25 126.69 C109.17 126.13 109.09 125.57 109 125 C106.21 124.5 106.21 124.5 103 125 C101.17 126.97 99.6 128.86 98 131 C93.26 136.33 89.24 136.69 82.22 137.15 C77.79 136.94 74.44 136.13 70.92 133.37 C66.49 128.43 64.72 124.68 65 118 C65.44 114.44 65.44 114.44 66 112 C65.01 112 64.02 112 63 112 C61.98 113.66 60.98 115.32 60 117 C58.51 117.5 58.51 117.5 57 118 C56.3 119.65 55.63 121.32 55 123 C53.89 124.6 52.72 126.17 51.5 127.69 C50.89 128.45 50.28 129.22 49.66 130.01 C46.38 133.94 46.38 133.94 42.44 134.56 C36.62 134.39 32.99 130.92 29 127 C22 119.1 22 119.1 22 116 C20.08 116.43 18.16 116.87 16.25 117.31 C15.18 117.56 14.12 117.8 13.02 118.05 C10.02 118.8 10.02 118.8 8.03 120.53 C5.21 122.57 2.67 122.74 -0.75 123.19 C-1.92 123.35 -3.09 123.5 -4.3 123.67 C-5.19 123.78 -6.08 123.89 -7 124 C-8.49 121.52 -8.49 121.52 -10 119 C-7.34 116.57 -4.89 115.6 -1.5 114.62 C2.82 113.3 4.21 111.54 7 108 C10.62 107.35 10.62 107.35 14 107 C14.01 106.16 14.03 105.32 14.04 104.45 C14.11 101.3 14.18 98.15 14.26 94.99 C14.3 93.64 14.32 92.28 14.35 90.92 C14.5 81.82 14.92 75.63 20 68 C20.39 65.68 20.73 63.34 21 61 C17.37 60.67 13.74 60.34 10 60 C10 59.34 10 58.68 10 58 C9.28 58.08 8.56 58.17 7.81 58.25 C4.11 57.92 2.77 56.42 0 54 C-0.87 53.48 -1.73 52.97 -2.62 52.44 C-5 51 -5 51 -6.39 49.52 C-8.24 47.77 -9.8 47.14 -12.19 46.31 C-12.9 46.06 -13.62 45.81 -14.36 45.55 C-14.9 45.37 -15.44 45.19 -16 45 C-15.67 44.01 -15.34 43.02 -15 42 C-15.62 41.82 -16.23 41.64 -16.87 41.45 C-18.65 40.92 -20.42 40.39 -22.2 39.85 C-23.95 39.32 -25.7 38.8 -27.46 38.31 C-32.71 36.74 -36.02 34.78 -40 31 C-39.53 26.73 -37.04 24.83 -34 22 C-33.29 21.1 -33.29 21.1 -32.56 20.19 C-31 19 -31 19 -28.12 18.56 C-24.28 19.1 -22.86 20.43 -20 23 C-19.11 23.5 -18.23 23.99 -17.31 24.5 C-14.81 26.12 -14.04 27.25 -13 30 C-12.13 29.94 -11.26 29.87 -10.37 29.81 C-6.46 30.03 -4.43 31.12 -1.06 33.06 C3.84 35.75 3.84 35.75 9.25 35.88 C10.16 35.59 11.06 35.3 12 35 C11.65 33.02 11.65 33.02 11 31 C10.34 30.67 9.68 30.34 9 30 C8.74 28.04 8.49 26.08 8.34 24.11 C7.95 21.67 7.35 20.07 6 18 C4.14 16.75 4.14 16.75 2 15.88 C-0.57 14.73 -1.98 14.02 -4 12 C-3.84 8.26 -3.41 6.47 -0.94 3.62 C0.02 2.82 0.02 2.82 1 2 C0.5 1.01 0.5 1.01 0 0 Z M224 41 C221.67 44.63 221.69 47.76 222 52 C222.66 52.66 223.32 53.32 224 54 C225.32 54 226.64 54 228 54 C227.72 46.86 227.72 46.86 224 41 Z M48 61 C42.56 67.13 41.95 75.13 41.75 83.06 C41.56 87.01 41.56 87.01 44 89 C46.09 88.91 46.09 88.91 48 88 C48.33 87.01 48.66 86.02 49 85 C50.32 84.3 51.65 83.63 53 83 C54.75 81.58 54.75 81.58 56 80 C56 79.34 56 78.68 56 78 C56.99 77.67 57.98 77.34 59 77 C61.95 72.47 65.36 66.47 65 61 C63.31 58.34 61.4 56.05 59 54 C54.75 54 51.07 58.32 48 61 Z M179 69 C175.99 70.77 173.54 72.21 171.56 75.12 C170.7 79.55 170.72 83.66 172 88 C174.76 90.53 174.76 90.53 178 92 C178.52 92.54 179.03 93.07 179.56 93.62 C181.48 95.46 183.53 96.13 186 97 C187.6 95.81 187.6 95.81 189 94 C189.25 91.54 189.25 91.54 189 89 C189 87.68 189 86.36 189 85 C188.91 81.97 188.91 81.97 188 79 C186.37 77.62 184.7 76.29 183 75 C181.81 72.31 181.81 72.31 181 70 C180.34 69.67 179.68 69.34 179 69 Z M294 79 C294.33 80.32 294.66 81.64 295 83 C295.33 82.01 295.66 81.02 296 80 C295.34 79.67 294.68 79.34 294 79 Z M286 84 C285.77 84.78 285.55 85.57 285.31 86.38 C284 89 284 89 281.38 90.31 C280.59 90.54 279.81 90.77 279 91 C279 92.32 279 93.64 279 95 C282.09 96.36 282.09 96.36 285.56 94.88 C289.1 93.34 289.1 93.34 290.38 90.5 C290.58 89.68 290.79 88.85 291 88 C291.33 87.01 291.66 86.02 292 85 C290.93 83.7 290.93 83.7 288.44 83.94 C287.63 83.96 286.83 83.98 286 84 Z M371 85 C370.16 86.11 370.16 86.11 369.3 87.25 C365.74 91.51 361.4 94.64 357 98 C356.05 98.75 356.05 98.75 355.07 99.52 C350.95 102.65 346.91 104.36 342 106 C342.33 106.99 342.66 107.98 343 109 C352.38 109.35 359.37 107.91 368 104 C368.86 103.75 369.71 103.5 370.59 103.24 C373.21 102.2 373.21 102.2 374.14 99.57 C374.48 98.15 374.48 98.15 374.81 96.69 C375.16 95.27 375.16 95.27 375.52 93.82 C375.97 91.15 376.09 88.71 376 86 C374.35 85.67 372.7 85.34 371 85 Z M176.12 105.25 C173.35 108.85 172.87 111.27 172.94 115.69 C172.95 116.5 172.96 117.3 172.96 118.14 C172.98 118.75 172.99 119.37 173 120 C176.47 119.5 176.47 119.5 180 119 C180.33 117.02 180.66 115.04 181 113 C181.66 113 182.32 113 183 113 C185.43 109.63 186 108.27 186 104 C180.7 102.6 180.7 102.6 176.12 105.25 Z M134 103 C132.02 103.33 130.04 103.66 128 104 C126.69 107.92 126.8 110.86 127 115 C127.66 115.66 128.32 116.32 129 117 C129.18 116.36 129.36 115.72 129.55 115.07 C129.8 114.24 130.05 113.41 130.31 112.56 C130.68 111.33 130.68 111.33 131.05 110.07 C131.36 109.38 131.68 108.7 132 108 C132.99 107.67 133.98 107.34 135 107 C134.67 105.68 134.34 104.36 134 103 Z M344 122 C342.82 122.5 341.65 122.99 340.44 123.5 C336.97 125.01 334.13 126.89 331 129 C330.09 129.25 329.18 129.5 328.25 129.75 C325.88 130.77 325.88 130.77 325.18 132.83 C324.58 134.94 324.08 136.81 324 139 C326.38 141.38 327.05 141.37 330.31 141.5 C337.31 141.4 342.88 138.1 349 135 C349.9 134.66 350.79 134.31 351.72 133.96 C354.88 132.63 356.7 130.49 359 128 C361 126 361 126 364.06 123.56 C367.19 121.27 367.19 121.27 368 118 C367.13 115.83 367.13 115.83 366 114 C358.37 114 350.36 118.06 344 122 Z " fill="#000302" transform="translate(438,249)"/>
<path d="M0 0 C14.58 -0.58 14.58 -0.58 21.31 4.88 C23.25 7.31 23.76 8.92 24 12 C23.67 12.66 23.34 13.32 23 14 C24.32 14.33 25.64 14.66 27 15 C27 15.66 27 16.32 27 17 C27.66 17.04 28.32 17.08 29 17.12 C32.09 18.03 33.42 19 35.88 21 C39.66 24.01 42.2 24.8 47 25 C46.98 24.22 46.96 23.43 46.94 22.62 C47 20 47 20 48 18 C47.75 15.71 47.36 13.46 46.96 11.19 C47 9 47 9 48.37 7.26 C52.28 4.24 57.26 4.61 62 5 C65.17 5.97 66.65 6.65 69 9 C69.09 11.36 69.09 11.36 68.94 14.19 C68.84 19.35 69.51 22.49 72 27 C72.99 27.99 72.99 27.99 74 29 C74 29.99 74 30.98 74 32 C74.66 32 75.32 32 76 32 C76.7 33.41 77.39 34.83 78.06 36.25 C78.45 37.04 78.83 37.83 79.22 38.64 C80.11 41.32 80.08 42.42 79 45 C76.44 47.75 76.44 47.75 74 50 C72.51 49.5 72.51 49.5 71 49 C71 48.34 71 47.68 71 47 C67.88 47.65 67.88 47.65 67 50 C63.15 50.09 59.76 49.75 56 49 C55.67 49.33 55.34 49.66 55 50 C53.01 50.33 51 50.61 49 50.88 C43.35 51.71 38.33 53.04 33 55 C30.65 55.72 28.3 56.45 25.95 57.16 C23.91 57.88 23.91 57.88 22.6 59.61 C21 61 21 61 18.3 61.07 C16.82 60.88 16.82 60.88 15.31 60.69 C14.32 60.57 13.32 60.45 12.3 60.32 C11.54 60.22 10.78 60.11 10 60 C10 59.34 10 58.68 10 58 C9.28 58.08 8.56 58.17 7.81 58.25 C4.11 57.92 2.77 56.42 0 54 C-0.87 53.48 -1.73 52.97 -2.62 52.44 C-5 51 -5 51 -6.39 49.52 C-8.24 47.77 -9.8 47.14 -12.19 46.31 C-12.9 46.06 -13.62 45.81 -14.36 45.55 C-14.9 45.37 -15.44 45.19 -16 45 C-15.67 44.01 -15.34 43.02 -15 42 C-15.62 41.82 -16.23 41.64 -16.87 41.45 C-18.65 40.92 -20.42 40.39 -22.2 39.85 C-23.95 39.32 -25.7 38.8 -27.46 38.31 C-32.71 36.74 -36.02 34.78 -40 31 C-39.53 26.73 -37.04 24.83 -34 22 C-33.29 21.1 -33.29 21.1 -32.56 20.19 C-31 19 -31 19 -28.12 18.56 C-24.28 19.1 -22.86 20.43 -20 23 C-19.11 23.5 -18.23 23.99 -17.31 24.5 C-14.81 26.12 -14.04 27.25 -13 30 C-12.13 29.94 -11.26 29.87 -10.37 29.81 C-6.46 30.03 -4.43 31.12 -1.06 33.06 C3.84 35.75 3.84 35.75 9.25 35.88 C10.16 35.59 11.06 35.3 12 35 C11.65 33.02 11.65 33.02 11 31 C10.34 30.67 9.68 30.34 9 30 C8.74 28.04 8.49 26.08 8.34 24.11 C7.95 21.67 7.35 20.07 6 18 C4.14 16.75 4.14 16.75 2 15.88 C-0.57 14.73 -1.98 14.02 -4 12 C-3.84 8.26 -3.41 6.47 -0.94 3.62 C0.02 2.82 0.02 2.82 1 2 C0.5 1.01 0.5 1.01 0 0 Z " fill="#EBB824" transform="translate(438,249)"/>
<path d="M0 0 C3.63 0.35 5.74 0.81 8.75 2.94 C12.5 5.32 15.59 5.91 19.93 6.61 C22 7 22 7 23 8 C25.33 8.41 27.66 8.81 30 9.19 C38.09 10.65 44.46 13.74 50 20 C51.75 25.25 51.89 30.86 49.75 36 C47.92 38.09 46.46 38.81 44 40 C43.71 40.66 43.43 41.31 43.13 41.99 C42 44 42 44 40.17 44.76 C39.44 44.88 38.72 45 37.97 45.12 C37.18 45.27 36.39 45.42 35.57 45.58 C34.74 45.72 33.92 45.86 33.06 46 C26.9 46.81 26.9 46.81 21.93 50.12 C21.63 50.74 21.32 51.36 21 52 C-15.08 47.73 -15.08 47.73 -22.77 39.73 C-25.83 35.42 -27.95 31.28 -28.06 25.94 C-26.86 22.61 -25.25 19.93 -23.25 17.03 C-21.86 14.77 -20.93 12.48 -20 10 C-19.06 9.95 -18.12 9.9 -17.15 9.84 C-9.92 9.39 -9.92 9.39 -3.73 6.09 C-2.3 4.11 -1.07 2.19 0 0 Z " fill="#EBB824" transform="translate(796,238)"/>
<path d="M0 0 C3.01 1.45 5.34 2.72 7.72 5.1 C9.11 9.83 9.16 13.98 7.09 18.48 C4.54 22.92 1.51 24.51 -3.28 26.1 C-4.2 28.37 -4.2 28.37 -4.78 31.04 C-5.95 35.88 -5.95 35.88 -9.28 38.1 C-11.26 38.04 -11.26 38.04 -13.47 37.66 C-16.66 37.2 -19.24 37.14 -22.41 37.73 C-27.26 38.2 -29.11 37.52 -33.28 35.1 C-35.54 32.13 -35.78 28.75 -36.28 25.1 C-36.32 26.01 -36.32 26.01 -36.36 26.93 C-36.64 30.82 -36.84 33.43 -39.03 36.73 C-41.28 38.1 -41.28 38.1 -43.7 37.96 C-46.97 36.87 -47.93 35.52 -49.91 32.73 C-51.89 29.97 -53.8 27.43 -56.28 25.1 C-56.32 25.7 -56.36 26.31 -56.39 26.93 C-56.69 30.46 -56.97 33.43 -58.47 36.66 C-60.28 38.1 -60.28 38.1 -63.16 38.6 C-67.07 37.97 -68.59 37.01 -71.28 34.1 C-73.8 27.72 -73.51 21.45 -73.41 14.66 C-73.4 13.55 -73.39 12.44 -73.38 11.29 C-73.36 8.56 -73.32 5.83 -73.28 3.1 C-72.29 3.1 -71.3 3.1 -70.28 3.1 C-69.95 2.77 -69.62 2.44 -69.28 2.1 C-61.93 1.63 -61.93 1.63 -59.59 3.33 C-58.01 5.47 -57.66 7.11 -57.22 9.73 C-56.86 12.08 -56.86 12.08 -56.28 14.1 C-55.62 14.43 -54.96 14.76 -54.28 15.1 C-53.95 14.44 -53.62 13.78 -53.28 13.1 C-53.28 13.76 -53.28 14.42 -53.28 15.1 C-51.96 14.77 -50.64 14.44 -49.28 14.1 C-49.26 13.49 -49.23 12.87 -49.2 12.24 C-48.74 5.66 -48.74 5.66 -46.53 2.98 C-43.62 1.85 -42.2 2.05 -39.28 3.1 C-37.47 4.66 -37.47 4.66 -36.28 6.1 C-35.68 5.3 -35.09 4.49 -34.47 3.66 C-32.28 1.1 -32.28 1.1 -29.28 0.1 C-28.7 0.43 -28.13 0.76 -27.53 1.1 C-24.16 2.6 -21.84 1.89 -18.28 1.1 C-17.17 0.57 -16.05 0.03 -14.91 -0.52 C-9.58 -2.54 -5.27 -2.08 0 0 Z " fill="#000302" transform="translate(628.28125,264.8984375)"/>
<path d="M0 0 C3.04 1.41 5.59 3.09 8.25 5.12 C8.96 5.66 9.66 6.2 10.39 6.76 C10.92 7.17 11.45 7.58 12 8 C11.34 9.32 10.68 10.64 10 12 C2.29 10.95 2.29 10.95 0 9 C-0.73 6.26 -0.86 3.87 -1 1 C-0.67 0.67 -0.34 0.34 0 0 Z " fill="#E8B827" transform="translate(840,283)"/>
<path d="M0 0 C-0.81 1.94 -0.81 1.94 -2 4 C-2.99 4.33 -3.98 4.66 -5 5 C-6.21 7 -6.21 7 -7 9 C-10 9 -10 9 -12 8 C-11.13 2.63 -11.13 2.63 -10 0 C-6.1 -2.2 -3.74 -2.59 0 0 Z " fill="#ECB924" transform="translate(863,239)"/>
<path d="M0 0 C2.25 3.37 3.23 6.03 4 10 C2.62 12.44 2.62 12.44 1 14 C-1.31 13.34 -3.62 12.68 -6 12 C-5.42 8.11 -3.45 5.99 -1 3 C-0.67 2.01 -0.34 1.02 0 0 Z " fill="#ECB924" transform="translate(790,288)"/>
<path d="M0 0 C3.13 1.04 3.92 1.84 5.5 4.81 C6 8 6 8 4.12 10.88 C3.42 11.58 2.72 12.28 2 13 C-1 12 -1 12 -2.38 9.31 C-3.16 5.18 -2.17 3.51 0 0 Z " fill="#E7B625" transform="translate(815,291)"/>
<path d="M0 0 C1.98 0 3.96 0 6 0 C5.07 1.14 5.07 1.14 4.12 2.31 C1.94 5 1.94 5 0 8 C-3.12 8.69 -3.12 8.69 -6 9 C-6 7.68 -6 6.36 -6 5 C-5.38 4.92 -4.76 4.83 -4.12 4.75 C-1.82 4.19 -1.82 4.19 -0.75 1.94 C-0.5 1.3 -0.25 0.66 0 0 Z " fill="#ECB924" transform="translate(764,284)"/>
<path d="M0 0 C0.78 0.19 1.57 0.37 2.38 0.56 C4.97 1.26 4.97 1.26 7 0 C7 0.99 7 1.98 7 3 C8.32 3.33 9.64 3.66 11 4 C9 6 9 6 7.05 6.2 C5.04 6.13 3.02 6.07 1 6 C0.45 3.92 0 2.16 0 0 Z " fill="#CDAB2B" transform="translate(865,255)"/>
<path d="M0 0 C0.99 0.33 1.98 0.66 3 1 C3.62 3.38 3.62 3.38 4 6 C3.34 6.66 2.68 7.32 2 8 C-0.06 7.81 -0.06 7.81 -2 7 C-2.33 6.01 -2.66 5.02 -3 4 C-1.56 1.81 -1.56 1.81 0 0 Z " fill="#ECB924" transform="translate(828,235)"/>
<path d="M0 0 C4.62 0 9.24 0 14 0 C12 2 12 2 9.4 2.2 C8.4 2.17 7.4 2.15 6.38 2.12 C4.87 2.1 4.87 2.1 3.34 2.07 C2.57 2.05 1.79 2.02 1 2 C0.67 1.34 0.34 0.68 0 0 Z " fill="#ECB924" transform="translate(750,252)"/>
<path d="M0 0 C0.95 0.35 1.9 0.7 2.88 1.06 C2.54 1.72 2.22 2.38 1.88 3.06 C-0.5 3.25 -0.5 3.25 -3.12 3.06 C-3.78 2.07 -4.45 1.08 -5.12 0.06 C-3.12 -0.94 -3.12 -0.94 0 0 Z " fill="#AA9C33" transform="translate(866.125,276.9375)"/>
<path d="M0 0 C2 1 2 1 3.12 4.06 C3.41 5.03 3.7 6 4 7 C2.68 7 1.36 7 0 7 C0 4.69 0 2.38 0 0 Z " fill="#ECB924" transform="translate(770,240)"/>
<path d="M0 0 C0.99 0.33 1.98 0.66 3 1 C2.01 1 1.02 1 0 1 C0 0.67 0 0.34 0 0 Z " fill="#000302" transform="translate(789,330)"/>
<path d="M0 0 C0.99 0.5 0.99 0.5 2 1 C1.01 1.5 1.01 1.5 0 2 C0 1.34 0 0.68 0 0 Z " fill="#000302" transform="translate(490,356)"/>
<path d="M0 0 C0.66 0 1.32 0 2 0 C1.67 0.66 1.34 1.32 1 2 C0.67 1.34 0.34 0.68 0 0 Z " fill="#000302" transform="translate(785,334)"/>
<path d="" fill="#000302" transform="translate(0,0)"/>
<path d="" fill="#000302" transform="translate(0,0)"/>
<path d="M0 0 C2 1 2 1 2 1 Z " fill="#000302" transform="translate(792,328)"/>
<path d="M0 0 C2 1 2 1 2 1 Z " fill="#000302" transform="translate(764,323)"/>
<path d="M0 0 C2 1 2 1 2 1 Z " fill="#000302" transform="translate(730,318)"/>
<path d="" fill="#000302" transform="translate(0,0)"/>
<path d="M0 0 C2 1 2 1 2 1 Z " fill="#ECB924" transform="translate(811,293)"/>
<path d="M0 0 C2 1 2 1 2 1 Z " fill="#ECB924" transform="translate(764,282)"/>
<path d="M0 0 C2 1 2 1 2 1 Z " fill="#ECB924" transform="translate(751,265)"/>
<path d="" fill="#ECB924" transform="translate(0,0)"/>
<path d="" fill="#000302" transform="translate(0,0)"/>
<path d="" fill="#000302" transform="translate(0,0)"/>
<path d="" fill="#000302" transform="translate(0,0)"/>
<path d="" fill="#000302" transform="translate(0,0)"/>
<path d="" fill="#000302" transform="translate(0,0)"/>
<path d="" fill="#000302" transform="translate(0,0)"/>
<path d="" fill="#000302" transform="translate(0,0)"/>
<path d="" fill="#000302" transform="translate(0,0)"/>
<path d="" fill="#000302" transform="translate(0,0)"/>
<path d="" fill="#000302" transform="translate(0,0)"/>
<path d="" fill="#000302" transform="translate(0,0)"/>
<path d="" fill="#000302" transform="translate(0,0)"/>
<path d="" fill="#000302" transform="translate(0,0)"/>
<path d="" fill="#000302" transform="translate(0,0)"/>
<path d="" fill="#000302" transform="translate(0,0)"/>
<path d="" fill="#ECB924" transform="translate(0,0)"/>
<path d="" fill="#ECB924" transform="translate(0,0)"/>
<path d="" fill="#000302" transform="translate(0,0)"/>
<path d="" fill="#ECB924" transform="translate(0,0)"/>
<path d="" fill="#ECB924" transform="translate(0,0)"/>
<path d="" fill="#446F4B" transform="translate(0,0)"/>
<path d="" fill="#000302" transform="translate(0,0)"/>
<path d="" fill="#ECB924" transform="translate(0,0)"/>
<path d="" fill="#446F4B" transform="translate(0,0)"/>
<path d="" fill="#ECB924" transform="translate(0,0)"/>
</svg>
