<?xml version="1.0" encoding="UTF-8"?>
<!-- Generator: visioncortex VTracer 0.6.3 -->
<svg version="1.1" xmlns="http://www.w3.org/2000/svg" width="1280" height="640">
<path d="M0 0 C1.06 -0 1.06 -0 2.14 -0 C7.92 0.11 12.37 1.34 17.25 4.38 C17.58 3.72 17.91 3.06 18.25 2.38 C18.25 3.37 18.25 4.35 18.25 5.38 C19.2 5.19 20.15 5 21.12 4.81 C24.25 4.38 24.25 4.38 26.25 5.38 C28.13 4.64 28.13 4.64 30.12 3.5 C35.45 0.61 39.6 0.22 45.69 0.19 C46.99 0.17 48.28 0.16 49.62 0.14 C53.09 0.36 55.13 0.97 58.25 2.38 C60.28 2.93 62.33 3.45 64.38 3.94 C67.39 4.66 70.31 5.39 73.25 6.38 C73.25 7.03 73.25 7.69 73.25 8.38 C74.9 8.71 76.55 9.03 78.25 9.38 C78.58 8.38 78.91 7.4 79.25 6.38 C83.49 1.87 88.45 0.26 94.49 -0.12 C96.43 -0.16 98.37 -0.19 100.31 -0.19 C101.25 -0.19 102.18 -0.19 103.14 -0.19 C109.36 -0.05 114.46 1.17 120.25 3.38 C121.87 3.85 123.49 4.29 125.12 4.69 C126.2 4.96 126.2 4.96 127.3 5.24 C129.58 5.6 129.58 5.6 132.25 3.38 C142.35 1.11 150.04 3.55 158.94 8.27 C161.68 9.58 164.23 10.14 167.25 10.38 C167.65 9.77 168.04 9.17 168.45 8.54 C172.11 4.13 177.92 2.15 183.25 0.38 C187.09 0.38 190.21 1.47 193.84 2.67 C196.71 3.51 199.27 3.61 202.25 3.38 C202.25 4.03 202.25 4.69 202.25 5.38 C203.03 5.5 203.82 5.62 204.62 5.75 C207.25 6.38 207.25 6.38 209.25 8.38 C209.77 12.64 209.62 14.77 207.35 18.46 C206.53 19.4 205.72 20.34 204.88 21.31 C204.06 22.27 203.25 23.23 202.41 24.21 C200.25 26.38 200.25 26.38 198.25 26.38 C198 27.14 197.75 27.9 197.5 28.69 C196.1 31.7 194.88 32.46 192.25 34.38 C191.23 36.03 190.23 37.7 189.25 39.38 C187.94 40.73 186.6 42.06 185.25 43.38 C184.18 44.64 183.12 45.91 182.06 47.19 C180.81 48.6 179.54 49.99 178.25 51.38 C177.3 52.4 177.3 52.4 176.32 53.45 C171.66 57.78 168.12 58.86 161.75 59 C151.76 58.48 145.38 56.45 138.25 49.38 C138.58 44.02 141.82 40.27 145.25 36.38 C145.91 36.05 146.57 35.72 147.25 35.38 C147.72 33.48 147.72 33.48 147.88 31.31 C148 30.01 148.12 28.71 148.25 27.38 C143.98 27.85 142.14 30.41 139.25 33.38 C137.76 33.87 137.76 33.87 136.25 34.38 C136.25 35.03 136.25 35.69 136.25 36.38 C132.19 38.48 128.36 40.38 124 41.75 C119.82 43.28 118.29 45.36 116.25 49.38 C115.46 51.45 114.72 53.52 114.06 55.64 C113.25 57.38 113.25 57.38 110.25 59.38 C100.06 60.6 91.42 58.83 83.25 52.56 C79.92 49.5 79.04 46.77 78.25 42.38 C69.97 44.35 69.97 44.35 63.86 49.61 C63.15 51.96 63.15 51.96 62.84 54.29 C62 57.26 60.93 57.86 58.25 59.38 C55.52 59.66 53.03 59.77 50.3 59.74 C49.53 59.74 48.76 59.74 47.96 59.74 C46.33 59.74 44.69 59.73 43.06 59.71 C40.59 59.69 38.12 59.69 35.64 59.7 C15.2 59.66 15.2 59.66 9.38 54.81 C6.46 52.26 6.46 52.26 3.25 51.38 C2.59 50.72 1.93 50.06 1.25 49.38 C0.9 49.93 0.55 50.48 0.18 51.05 C-0.56 52.14 -0.56 52.14 -1.31 53.25 C-1.79 53.97 -2.26 54.69 -2.75 55.43 C-7.46 60.02 -14.42 59.67 -20.61 59.64 C-21.84 59.64 -21.84 59.64 -23.1 59.65 C-24.83 59.65 -26.56 59.64 -28.29 59.64 C-30.94 59.62 -33.59 59.64 -36.23 59.65 C-37.92 59.65 -39.61 59.64 -41.29 59.64 C-42.08 59.64 -42.87 59.65 -43.68 59.65 C-47.54 59.62 -50.46 59.48 -53.75 57.38 C-54.08 57.38 -54.41 57.38 -54.75 57.38 C-58.68 56.14 -60.54 54.86 -62.75 51.38 C-63.33 52.32 -63.9 53.27 -64.5 54.25 C-67.11 57.87 -68.76 59.03 -73.11 59.79 C-74.29 59.89 -74.29 59.89 -75.5 60 C-76.3 60.07 -77.1 60.15 -77.92 60.23 C-78.53 60.28 -79.13 60.32 -79.75 60.38 C-79.2 60.63 -78.64 60.88 -78.07 61.14 C-77.35 61.49 -76.62 61.83 -75.88 62.19 C-75.16 62.52 -74.44 62.86 -73.7 63.21 C-71.75 64.38 -71.75 64.38 -69.75 67.38 C-63.66 72.74 -56.57 73.03 -48.87 73.63 C-42.35 74.18 -36.71 75.61 -30.75 78.38 C-30.3 77.19 -30.3 77.19 -29.84 75.98 C-28.48 72.73 -27.03 71.21 -24.11 69.31 C-20.86 68.02 -17.75 68.09 -14.31 68.11 C-13.59 68.11 -12.86 68.11 -12.12 68.1 C-10.59 68.1 -9.06 68.11 -7.53 68.11 C-5.22 68.12 -2.91 68.11 -0.61 68.1 C8.3 68.09 16.79 68.5 25.4 71 C27.35 71.58 27.35 71.58 29.44 70.44 C33.96 68.73 38.69 68.36 43.26 70.17 C44.56 70.86 45.85 71.57 47.14 72.3 C50.27 73.9 53.56 74.7 56.95 75.57 C59.51 76.47 61.24 77.56 63.25 79.38 C63.25 80.03 63.25 80.69 63.25 81.38 C63.91 81.38 64.57 81.38 65.25 81.38 C65.29 80.49 65.33 79.6 65.38 78.69 C66.3 75.19 67.4 73.47 70.3 71.28 C75.21 69 82.2 69.75 87.25 71.38 C87.58 72.03 87.91 72.69 88.25 73.38 C90.78 74.03 90.78 74.03 93.25 74.38 C93.58 73.38 93.91 72.39 94.25 71.38 C94.91 71.38 95.57 71.38 96.25 71.38 C97.59 71.06 98.92 70.73 100.25 70.38 C100.25 69.72 100.25 69.06 100.25 68.38 C111.36 68.04 122.95 68.13 133.32 72.59 C135.65 73.54 138.01 74.16 140.44 74.81 C144.52 76 147.01 77.57 150.25 80.38 C152.56 81.62 154.76 82.48 157.25 83.38 C157.91 83.05 158.57 82.72 159.25 82.38 C161.61 83.31 163.95 84.31 166.25 85.38 C166.25 84.38 166.25 83.39 166.25 82.38 C166.91 82.05 167.57 81.72 168.25 81.38 C168.25 80.72 168.25 80.06 168.25 79.38 C169.93 77.72 169.93 77.72 172.12 75.88 C174.24 74.09 176.29 72.33 178.25 70.38 C179.57 70.38 180.89 70.38 182.25 70.38 C182.25 69.72 182.25 69.06 182.25 68.38 C194.76 68.14 194.76 68.14 200.25 69.38 C202.75 71.94 202.75 71.94 204.25 74.38 C205.39 74.16 205.39 74.16 206.56 73.94 C218.8 71.74 228.43 72.14 240.25 76.38 C242.07 78.01 242.07 78.01 243.25 79.38 C243.91 79.38 244.57 79.38 245.25 79.38 C245.91 78.72 246.57 78.06 247.25 77.38 C248.24 77.38 249.23 77.38 250.25 77.38 C250.58 76.06 250.91 74.74 251.25 73.38 C251.79 73.27 252.32 73.17 252.88 73.06 C255.4 72.43 255.4 72.43 258 70.81 C261.95 69.06 264.99 68.72 269.25 69.38 C272.44 70.81 272.44 70.81 275.25 72.38 C276.91 72.76 278.57 73.09 280.25 73.38 C284.56 74.42 287.28 75.08 290.25 78.38 C289.82 79.96 289.38 81.54 288.94 83.12 C288.69 84.01 288.45 84.89 288.2 85.8 C287.22 88.46 286.16 90.28 284.25 92.38 C283.59 92.38 282.93 92.38 282.25 92.38 C281.94 93.37 281.94 93.37 281.62 94.38 C279.22 99.63 275.68 103.98 271.56 108 C269.07 110.31 269.07 110.31 267.69 113.62 C266.25 116.38 266.25 116.38 264.06 117.25 C263.46 117.29 262.87 117.33 262.25 117.38 C262.16 118.12 262.08 118.87 261.99 119.64 C261.1 122.93 259.97 123.97 257.38 126.12 C256.33 127.01 256.33 127.01 255.26 127.92 C251.11 130.92 246.83 130.53 241.94 130.5 C240.7 130.49 240.7 130.49 239.43 130.49 C232.78 130.44 226.14 130.26 219.5 130 C218.58 129.97 217.67 129.94 216.73 129.91 C204.5 129.36 204.5 129.36 200.62 125.94 C200.17 125.42 199.72 124.91 199.25 124.38 C198.38 123.9 197.52 123.43 196.62 122.94 C194.25 121.38 194.25 121.38 193.44 119.19 C193.34 118.29 193.34 118.29 193.25 117.38 C192.59 117.38 191.93 117.38 191.25 117.38 C190.88 118.33 190.88 118.33 190.5 119.31 C190.09 119.99 189.67 120.67 189.25 121.38 C188.59 121.52 187.93 121.66 187.25 121.81 C186.59 122 185.93 122.18 185.25 122.38 C184.53 124.02 183.87 125.69 183.25 127.38 C179.13 130.12 175.84 129.71 171 129.69 C170.17 129.7 169.33 129.72 168.47 129.74 C162.97 129.74 159.14 128.93 154.25 126.38 C153.92 126.05 153.59 125.72 153.25 125.38 C152.01 124.69 152.01 124.69 150.75 124 C148.25 122.38 148.25 122.38 147.25 119.38 C144.4 122.79 144.4 122.79 142.19 126.62 C141.25 128.38 141.25 128.38 138.25 129.38 C134.1 129.58 129.95 129.56 125.8 129.56 C123.76 129.56 121.72 129.58 119.68 129.6 C117.75 129.6 117.75 129.6 115.78 129.61 C114.6 129.61 113.42 129.61 112.21 129.62 C109.25 129.38 109.25 129.38 106.25 127.38 C102.35 127.38 98.69 129.7 95.44 131.62 C91.36 133.73 88.76 133.35 84.44 132.09 C83.35 131.74 83.35 131.74 82.25 131.38 C80.9 131 79.54 130.62 78.19 130.25 C77.22 129.96 76.25 129.67 75.25 129.38 C75.25 128.38 75.25 127.39 75.25 126.38 C74.26 127.03 73.27 127.69 72.25 128.38 C67.01 123.27 66.02 120.39 65.19 113.25 C65.05 112.12 65.05 112.12 64.91 110.96 C64.69 109.1 64.47 107.24 64.25 105.38 C61.89 107.73 61.76 109.15 61.25 112.38 C61.58 112.38 61.91 112.38 62.25 112.38 C62.84 124.63 62.84 124.63 59.25 129.38 C54.85 132.72 51.33 134.08 45.79 133.84 C40.63 132.9 35.95 130.62 31.25 128.38 C30.51 128.05 29.78 127.73 29.02 127.4 C27.25 126.38 27.25 126.38 25.25 123.38 C24.45 124.27 24.45 124.27 23.62 125.19 C18.33 130.07 13.7 130.88 6.69 130.76 C1.44 130.17 -3.4 128.61 -8.4 126.96 C-12.49 126.25 -13.43 127.09 -16.75 129.38 C-19.29 129.7 -19.29 129.7 -21.81 129.62 C-22.65 129.61 -23.49 129.59 -24.35 129.58 C-28.05 129.27 -30.08 129.05 -32.75 126.38 C-34.35 125.48 -35.98 124.63 -37.62 123.81 C-38.49 123.38 -39.35 122.94 -40.24 122.5 C-42.43 121.52 -44.41 120.86 -46.75 120.38 C-46.42 121.03 -46.09 121.69 -45.75 122.38 C-46.74 125.79 -47.95 127.81 -50.86 129.88 C-56.42 132.91 -61.42 134.49 -67.75 133.38 C-68.83 132.87 -68.83 132.87 -69.94 132.35 C-73.95 130.96 -77.67 131.25 -81.88 131.38 C-89.06 131.5 -95.74 131.14 -102.75 129.38 C-103.08 128.38 -103.41 127.39 -103.75 126.38 C-104.41 127.03 -105.07 127.69 -105.75 128.38 C-107.39 128.1 -107.39 128.1 -109.06 127.81 C-113.38 127.3 -114.31 127.91 -117.75 130.38 C-125.44 134.63 -132.72 134.58 -141.31 134.62 C-142.85 134.66 -142.85 134.66 -144.43 134.69 C-153.55 134.73 -153.55 134.73 -157.75 131.38 C-160.34 130.21 -162.57 129.41 -165.38 128.94 C-168.15 128.28 -169.1 127.69 -170.75 125.38 C-175.04 108.27 -171.4 85.65 -162.75 70.38 C-159.37 67.74 -155.42 68.07 -151.31 68.12 C-150.61 68.13 -149.9 68.14 -149.17 68.15 C-135.54 68.41 -123.67 70.45 -113.75 80.38 C-110.03 78.06 -107.14 76.09 -104.75 72.38 C-105.08 71.72 -105.41 71.06 -105.75 70.38 C-106.19 67.5 -106.19 67.5 -105.75 64.38 C-100.91 60.38 -100.91 60.38 -97.75 60.38 C-98.08 55.36 -98.08 55.36 -100.75 51.38 C-103.38 36.01 -99.96 19.48 -93.75 5.38 C-90.4 2.03 -86.37 1.64 -81.75 1.38 C-78.11 1.94 -74.6 2.76 -71.03 3.63 C-66.61 4.63 -62.38 5.1 -57.95 3.88 C-49.01 1.84 -38.19 2.87 -29.75 6.38 C-27.41 8.36 -27.41 8.36 -25.75 10.38 C-25.75 11.03 -25.75 11.69 -25.75 12.38 C-25.15 11.88 -24.55 11.38 -23.94 10.88 C-21.75 9.38 -21.75 9.38 -18.75 9.38 C-19.08 8.06 -19.41 6.74 -19.75 5.38 C-14.77 3.23 -14.77 3.23 -12.75 2.38 C-12.01 2.02 -11.26 1.66 -10.5 1.3 C-6.99 0.12 -3.66 -0.01 0 0 Z M91.25 54.38 C91.58 55.03 91.91 55.69 92.25 56.38 C92.58 55.72 92.91 55.06 93.25 54.38 C92.59 54.38 91.93 54.38 91.25 54.38 Z M221.25 93.38 C221.56 93.91 221.87 94.45 222.19 95 C223.43 97.77 223.84 100.38 224.25 103.38 C227.36 102.71 227.36 102.71 228.44 100.31 C228.71 99.67 228.97 99.03 229.25 98.38 C228.3 97.55 227.35 96.73 226.38 95.88 C225.84 95.41 225.31 94.95 224.76 94.47 C223.29 93.18 223.29 93.18 221.25 93.38 Z M-18.75 102.38 C-19.41 103.03 -20.07 103.69 -20.75 104.38 C-20.43 107.97 -20.43 107.97 -19.75 111.38 C-19.09 111.38 -18.43 111.38 -17.75 111.38 C-17.07 107.97 -17.07 107.97 -16.75 104.38 C-17.41 103.72 -18.07 103.06 -18.75 102.38 Z M-15.75 125.38 C-14.75 127.38 -14.75 127.38 -14.75 127.38 Z M-146.75 132.38 C-146.75 132.71 -146.75 133.03 -146.75 133.38 C-145.1 133.38 -143.45 133.38 -141.75 133.38 C-141.75 133.04 -141.75 132.72 -141.75 132.38 C-143.4 132.38 -145.05 132.38 -146.75 132.38 Z " fill="#FA81BD" transform="translate(578.75,243.625)"/>
<path d="M0 0 C0.72 -0 1.44 -0 2.18 -0 C3.7 0 5.22 0.01 6.74 0.03 C9.03 0.05 11.31 0.05 13.6 0.04 C22.44 0.06 30.98 0.51 39.52 2.99 C41.46 3.57 41.46 3.57 43.55 2.43 C48.07 0.72 52.8 0.35 57.37 2.16 C58.68 2.85 59.97 3.56 61.25 4.29 C64.38 5.88 67.67 6.68 71.07 7.55 C73.63 8.46 75.35 9.55 77.36 11.36 C77.36 12.02 77.36 12.68 77.36 13.36 C78.02 13.36 78.68 13.36 79.36 13.36 C79.4 12.48 79.45 11.59 79.49 10.68 C80.41 7.18 81.52 5.46 84.42 3.27 C89.32 0.99 96.32 1.74 101.36 3.36 C101.86 4.35 101.86 4.35 102.36 5.36 C104.89 6.02 104.89 6.02 107.36 6.36 C107.69 5.37 108.02 4.38 108.36 3.36 C109.02 3.36 109.68 3.36 110.36 3.36 C111.7 3.05 113.04 2.72 114.36 2.36 C114.36 1.7 114.36 1.04 114.36 0.36 C125.47 0.03 137.06 0.12 147.43 4.58 C149.76 5.52 152.12 6.15 154.55 6.8 C158.64 7.99 161.12 9.56 164.36 12.36 C166.67 13.6 168.88 14.47 171.36 15.36 C172.02 15.03 172.68 14.7 173.36 14.36 C175.72 15.3 178.06 16.3 180.36 17.36 C180.36 16.37 180.36 15.38 180.36 14.36 C181.02 14.03 181.68 13.7 182.36 13.36 C182.36 12.7 182.36 12.04 182.36 11.36 C184.04 9.71 184.04 9.71 186.24 7.86 C188.35 6.07 190.4 4.32 192.36 2.36 C193.68 2.36 195 2.36 196.36 2.36 C196.36 1.7 196.36 1.04 196.36 0.36 C208.87 0.13 208.87 0.13 214.36 1.36 C216.86 3.93 216.86 3.93 218.36 6.36 C219.13 6.22 219.89 6.07 220.67 5.93 C232.91 3.73 242.54 4.12 254.36 8.36 C256.18 10 256.18 10 257.36 11.36 C258.02 11.36 258.68 11.36 259.36 11.36 C260.02 10.7 260.68 10.04 261.36 9.36 C262.35 9.36 263.34 9.36 264.36 9.36 C264.69 8.04 265.02 6.72 265.36 5.36 C265.9 5.26 266.44 5.16 266.99 5.05 C269.51 4.42 269.51 4.42 272.11 2.8 C276.07 1.05 279.11 0.71 283.36 1.36 C286.55 2.8 286.55 2.8 289.36 4.36 C291.02 4.75 292.69 5.08 294.36 5.36 C298.67 6.4 301.39 7.07 304.36 10.36 C303.94 11.95 303.5 13.53 303.05 15.11 C302.81 16 302.56 16.88 302.31 17.79 C301.33 20.45 300.27 22.27 298.36 24.36 C297.7 24.36 297.04 24.36 296.36 24.36 C296.05 25.35 296.05 25.35 295.74 26.36 C293.33 31.62 289.8 35.96 285.68 39.99 C283.18 42.3 283.18 42.3 281.8 45.61 C280.36 48.36 280.36 48.36 278.18 49.24 C277.58 49.28 276.98 49.32 276.36 49.36 C276.28 50.11 276.19 50.86 276.11 51.63 C275.21 54.92 274.09 55.96 271.49 58.11 C270.79 58.71 270.09 59.3 269.37 59.91 C265.22 62.91 260.95 62.52 256.05 62.49 C254.81 62.48 254.81 62.48 253.54 62.48 C246.9 62.42 240.26 62.25 233.61 61.99 C232.7 61.96 231.78 61.93 230.84 61.9 C218.61 61.35 218.61 61.35 214.74 57.93 C214.28 57.41 213.83 56.89 213.36 56.36 C212.5 55.89 211.63 55.41 210.74 54.93 C208.36 53.36 208.36 53.36 207.55 51.18 C207.49 50.58 207.43 49.98 207.36 49.36 C206.7 49.36 206.04 49.36 205.36 49.36 C204.99 50.32 204.99 50.32 204.61 51.3 C204.2 51.98 203.79 52.66 203.36 53.36 C202.7 53.51 202.04 53.65 201.36 53.8 C200.7 53.99 200.04 54.17 199.36 54.36 C198.65 56.01 197.98 57.68 197.36 59.36 C193.24 62.11 189.96 61.69 185.11 61.68 C184.28 61.69 183.45 61.71 182.59 61.72 C177.08 61.73 173.25 60.92 168.36 58.36 C168.03 58.03 167.7 57.7 167.36 57.36 C166.54 56.91 165.71 56.46 164.86 55.99 C162.36 54.36 162.36 54.36 161.36 51.36 C158.51 54.78 158.51 54.78 156.3 58.61 C155.36 60.36 155.36 60.36 152.36 61.36 C148.21 61.57 144.07 61.55 139.91 61.55 C137.87 61.55 135.83 61.57 133.79 61.59 C131.86 61.59 131.86 61.59 129.89 61.59 C128.71 61.6 127.53 61.6 126.32 61.61 C123.36 61.36 123.36 61.36 120.36 59.36 C116.46 59.36 112.8 61.69 109.55 63.61 C105.47 65.71 102.87 65.34 98.55 64.08 C97.83 63.84 97.11 63.61 96.36 63.36 C95.01 62.99 93.66 62.61 92.3 62.24 C91.33 61.95 90.36 61.66 89.36 61.36 C89.36 60.37 89.36 59.38 89.36 58.36 C88.37 59.02 87.38 59.68 86.36 60.36 C81.12 55.26 80.13 52.38 79.3 45.24 C79.16 44.11 79.16 44.11 79.03 42.95 C78.8 41.09 78.58 39.23 78.36 37.36 C76 39.72 75.87 41.14 75.36 44.36 C75.69 44.36 76.02 44.36 76.36 44.36 C76.95 56.62 76.95 56.62 73.36 61.36 C68.96 64.71 65.44 66.07 59.9 65.83 C54.75 64.88 50.07 62.61 45.36 60.36 C44.63 60.04 43.89 59.72 43.13 59.39 C41.36 58.36 41.36 58.36 39.36 55.36 C38.56 56.26 38.56 56.26 37.74 57.18 C32.44 62.06 27.82 62.87 20.8 62.75 C15.55 62.16 10.71 60.6 5.71 58.95 C1.62 58.23 0.69 59.08 -2.64 61.36 C-5.17 61.69 -5.17 61.69 -7.7 61.61 C-8.54 61.6 -9.37 61.58 -10.23 61.57 C-12.48 61.38 -14.48 60.98 -16.64 60.36 C-16.97 59.04 -17.3 57.72 -17.64 56.36 C-18.3 56.36 -18.96 56.36 -19.64 56.36 C-19.31 55.04 -18.98 53.72 -18.64 52.36 C-16.33 52.36 -14.02 52.36 -11.64 52.36 C-11.64 50.38 -11.64 48.4 -11.64 46.36 C-12.3 46.36 -12.96 46.36 -13.64 46.36 C-13.64 45.7 -13.64 45.04 -13.64 44.36 C-14.3 44.36 -14.96 44.36 -15.64 44.36 C-15.64 43.7 -15.64 43.04 -15.64 42.36 C-16.3 42.36 -16.96 42.36 -17.64 42.36 C-20.4 37.55 -21.72 33.88 -21.64 28.36 C-20.13 27.17 -18.61 25.99 -17.01 24.93 C-14.44 22 -15.22 18.28 -15.43 14.59 C-15.53 13.49 -15.53 13.49 -15.64 12.36 C-12.34 12.03 -9.04 11.7 -5.64 11.36 C-6.96 10.41 -8.28 9.47 -9.64 8.49 C-11.89 6.87 -11.89 6.87 -13.64 5.36 C-13.64 4.7 -13.64 4.04 -13.64 3.36 C-9.02 0.66 -5.26 -0.07 0 0 Z M235.36 25.36 C235.67 25.9 235.98 26.44 236.3 26.99 C237.54 29.76 237.95 32.36 238.36 35.36 C241.48 34.69 241.48 34.69 242.55 32.3 C242.82 31.66 243.09 31.02 243.36 30.36 C242.41 29.54 241.47 28.71 240.49 27.86 C239.95 27.4 239.42 26.94 238.87 26.46 C237.4 25.17 237.4 25.17 235.36 25.36 Z M-4.64 34.36 C-5.3 35.02 -5.96 35.68 -6.64 36.36 C-6.31 39.96 -6.31 39.96 -5.64 43.36 C-4.98 43.36 -4.32 43.36 -3.64 43.36 C-2.96 39.96 -2.96 39.96 -2.64 36.36 C-3.3 35.7 -3.96 35.04 -4.64 34.36 Z M-1.64 57.36 C-0.64 59.36 -0.64 59.36 -0.64 59.36 Z " fill="#FA81BD" transform="translate(564.63671875,311.63671875)"/>
<path d="M0 0 C2.97 0.33 5.94 0.66 9 1 C9 1.66 9 2.32 9 3 C9.99 2.67 10.98 2.34 12 2 C12 2.66 12 3.32 12 4 C12.59 4.04 13.18 4.07 13.79 4.11 C18.57 4.51 22.12 4.94 26 8 C26.99 9.49 26.99 9.49 28 11 C34.09 16.36 41.18 16.66 48.88 17.26 C55.4 17.8 61.04 19.24 67 22 C67.99 19.52 67.99 19.52 69 17 C73.43 18.39 75.87 20.61 79 24 C75.37 24 71.74 24 68 24 C68.33 24.66 68.66 25.32 69 26 C69.48 29.08 69.59 31.93 69 35 C67.2 37.29 65.49 38.39 63 40 C63.31 41.58 63.62 43.17 63.94 44.75 C64.11 45.63 64.29 46.51 64.46 47.42 C64.92 49.63 65.43 51.82 66 54 C66.66 54 67.32 54 68 54 C68 54.66 68 55.32 68 56 C68.66 56 69.32 56 70 56 C70 56.66 70 57.32 70 58 C70.66 58 71.32 58 72 58 C72 59.98 72 61.96 72 64 C68.53 64.5 68.53 64.5 65 65 C65 66.65 65 68.3 65 70 C63.99 69.48 63.99 69.48 62.95 68.94 C62.06 68.49 61.17 68.03 60.25 67.56 C59.37 67.11 58.49 66.66 57.58 66.19 C55.36 65.17 53.39 64.48 51 64 C51.33 64.66 51.66 65.32 52 66 C51.01 69.41 49.8 71.43 46.89 73.5 C41.33 76.54 36.33 78.12 30 77 C28.92 76.49 28.92 76.49 27.81 75.97 C23.8 74.58 20.08 74.87 15.88 75 C8.69 75.12 2.01 74.76 -5 73 C-5.33 72.01 -5.66 71.02 -6 70 C-6.66 70.66 -7.32 71.32 -8 72 C-9.64 71.72 -9.64 71.72 -11.31 71.44 C-15.63 70.93 -16.56 71.53 -20 74 C-27.69 78.25 -34.97 78.21 -43.56 78.25 C-44.59 78.27 -45.62 78.29 -46.68 78.31 C-55.8 78.36 -55.8 78.36 -60 75 C-62.59 73.83 -64.82 73.03 -67.62 72.56 C-70.4 71.9 -71.35 71.31 -73 69 C-77.29 51.9 -73.65 29.27 -65 14 C-61.62 11.36 -57.67 11.69 -53.56 11.75 C-52.86 11.76 -52.15 11.76 -51.42 11.77 C-37.79 12.03 -25.92 14.08 -16 24 C-12.28 21.68 -9.39 19.71 -7 16 C-7.5 15.01 -7.5 15.01 -8 14 C-8.44 11.12 -8.44 11.12 -8 8 C-3.16 4 -3.16 4 0 4 C0 2.68 0 1.36 0 0 Z M-49 76 C-49 76.33 -49 76.66 -49 77 C-47.35 77 -45.7 77 -44 77 C-44 76.67 -44 76.34 -44 76 C-45.65 76 -47.3 76 -49 76 Z " fill="#FA81BE" transform="translate(481,300)"/>
<path d="M0 0 C0.72 -0 1.44 -0 2.18 -0 C3.7 0 5.22 0.01 6.74 0.03 C9.03 0.05 11.31 0.05 13.6 0.04 C22.44 0.06 30.98 0.51 39.52 2.99 C41.46 3.57 41.46 3.57 43.55 2.43 C48.07 0.72 52.8 0.35 57.37 2.16 C58.68 2.85 59.97 3.56 61.25 4.29 C64.38 5.88 67.67 6.68 71.07 7.55 C73.63 8.46 75.35 9.55 77.36 11.36 C77.36 12.02 77.36 12.68 77.36 13.36 C78.02 13.36 78.68 13.36 79.36 13.36 C79.4 12.48 79.45 11.59 79.49 10.68 C80.41 7.18 81.52 5.46 84.42 3.27 C89.5 0.9 96.1 1.96 101.36 3.36 C101.34 4.15 101.32 4.93 101.3 5.74 C101.18 8.34 101.18 8.34 102.36 10.36 C102.47 13.37 102.53 16.35 102.53 19.35 C102.54 20.69 102.54 20.69 102.54 22.06 C102.55 23.96 102.55 25.86 102.55 27.76 C102.55 30.65 102.57 33.55 102.59 36.45 C102.59 38.29 102.59 40.13 102.59 41.98 C102.6 42.84 102.61 43.71 102.62 44.6 C102.6 48.89 102.58 52.54 100.36 56.36 C97.87 57.22 97.87 57.22 94.93 57.55 C91.18 58 89.57 58.23 86.36 60.36 C81.12 55.26 80.13 52.38 79.3 45.24 C79.16 44.11 79.16 44.11 79.03 42.95 C78.8 41.09 78.58 39.23 78.36 37.36 C76 39.72 75.87 41.14 75.36 44.36 C75.69 44.36 76.02 44.36 76.36 44.36 C76.95 56.62 76.95 56.62 73.36 61.36 C68.96 64.71 65.44 66.07 59.9 65.83 C54.75 64.88 50.07 62.61 45.36 60.36 C44.63 60.04 43.89 59.72 43.13 59.39 C41.36 58.36 41.36 58.36 39.36 55.36 C38.56 56.26 38.56 56.26 37.74 57.18 C32.44 62.06 27.82 62.87 20.8 62.75 C15.55 62.16 10.71 60.6 5.71 58.95 C1.62 58.23 0.69 59.08 -2.64 61.36 C-5.17 61.69 -5.17 61.69 -7.7 61.61 C-8.54 61.6 -9.37 61.58 -10.23 61.57 C-12.48 61.38 -14.48 60.98 -16.64 60.36 C-16.97 59.04 -17.3 57.72 -17.64 56.36 C-18.3 56.36 -18.96 56.36 -19.64 56.36 C-19.31 55.04 -18.98 53.72 -18.64 52.36 C-16.33 52.36 -14.02 52.36 -11.64 52.36 C-11.64 50.38 -11.64 48.4 -11.64 46.36 C-12.3 46.36 -12.96 46.36 -13.64 46.36 C-13.64 45.7 -13.64 45.04 -13.64 44.36 C-14.3 44.36 -14.96 44.36 -15.64 44.36 C-15.64 43.7 -15.64 43.04 -15.64 42.36 C-16.3 42.36 -16.96 42.36 -17.64 42.36 C-20.4 37.55 -21.72 33.88 -21.64 28.36 C-20.13 27.17 -18.61 25.99 -17.01 24.93 C-14.44 22 -15.22 18.28 -15.43 14.59 C-15.53 13.49 -15.53 13.49 -15.64 12.36 C-12.34 12.03 -9.04 11.7 -5.64 11.36 C-6.96 10.41 -8.28 9.47 -9.64 8.49 C-11.89 6.87 -11.89 6.87 -13.64 5.36 C-13.64 4.7 -13.64 4.04 -13.64 3.36 C-9.02 0.66 -5.26 -0.07 0 0 Z M-4.64 34.36 C-5.3 35.02 -5.96 35.68 -6.64 36.36 C-6.31 39.96 -6.31 39.96 -5.64 43.36 C-4.98 43.36 -4.32 43.36 -3.64 43.36 C-2.96 39.96 -2.96 39.96 -2.64 36.36 C-3.3 35.7 -3.96 35.04 -4.64 34.36 Z M-1.64 57.36 C-0.64 59.36 -0.64 59.36 -0.64 59.36 Z " fill="#FA81BD" transform="translate(564.63671875,311.63671875)"/>
<path d="M0 0 C3 0.56 5.97 0.97 9.01 1.27 C10.27 1.4 10.27 1.4 11.56 1.54 C14.53 1.59 17.21 1.09 20.13 0.59 C29.23 0.01 41.11 -0.68 48.47 5.57 C50.13 7.59 50.13 7.59 50.13 9.59 C51.12 9.26 52.11 8.93 53.13 8.59 C52.73 13.37 51.75 16.72 49.45 21 C47.28 25.27 45.46 29.71 43.6 34.13 C41.35 39.37 41.35 39.37 39.13 41.59 C39.63 42.2 40.12 42.82 40.63 43.46 C42.13 45.59 42.13 45.59 42.13 47.59 C45.6 48.65 48.77 48.69 52.38 48.65 C53.46 48.64 54.54 48.63 55.65 48.62 C56.47 48.61 57.29 48.6 58.13 48.59 C58.27 47.82 58.41 47.05 58.55 46.25 C59.55 41.7 61.27 39.16 65.13 36.59 C67.73 36.32 67.73 36.32 70.63 36.34 C72.07 36.33 72.07 36.33 73.54 36.32 C76.13 36.59 76.13 36.59 79.13 38.59 C79.57 41.96 79.57 41.96 79.13 45.59 C77.45 47.65 77.45 47.65 75.13 49.59 C74.41 50.64 73.69 51.69 72.95 52.77 C67.08 58.64 56.04 56.75 48.1 56.77 C47.31 56.77 46.53 56.77 45.72 56.77 C43.31 56.77 40.9 56.79 38.49 56.81 C36.95 56.81 35.4 56.82 33.86 56.82 C32.79 56.83 32.79 56.83 31.69 56.84 C27.98 56.82 25.31 56.57 22.13 54.59 C21.8 54.59 21.47 54.59 21.13 54.59 C17.21 53.35 15.34 52.07 13.13 48.59 C12.56 49.53 11.98 50.48 11.38 51.46 C9.13 54.59 8.58 55.33 5.13 56.59 C2.58 56.91 0.13 57.14 -2.43 57.27 C-3.1 57.32 -3.77 57.37 -4.47 57.42 C-7.61 57.61 -9.85 57.59 -12.87 56.59 C-12.87 55.93 -12.87 55.27 -12.87 54.59 C-13.8 54.79 -14.72 55 -15.68 55.21 C-18.87 55.59 -18.87 55.59 -21.87 53.59 C-25.73 48.96 -25.48 43.97 -25.49 38.21 C-25.5 37.21 -25.5 36.21 -25.5 35.18 C-25.27 24.99 -23.44 8.16 -15.87 0.59 C-10.18 -1.89 -6 -1.16 0 0 Z " fill="#FA80BC" transform="translate(502.8671875,246.4140625)"/>
<path d="M0 0 C0.8 0.48 1.6 0.95 2.43 1.44 C6.77 3.34 10.51 3.62 15.19 3.94 C22.64 4.56 29.15 5.83 36 9 C36.66 7.35 37.32 5.7 38 4 C42.43 5.39 44.87 7.61 48 11 C44.37 11 40.74 11 37 11 C37.5 11.99 37.5 11.99 38 13 C38.48 16.08 38.59 18.93 38 22 C36.2 24.29 34.49 25.39 32 27 C32.31 28.58 32.62 30.17 32.94 31.75 C33.11 32.63 33.29 33.51 33.46 34.42 C33.92 36.63 34.43 38.82 35 41 C35.66 41 36.32 41 37 41 C37 41.66 37 42.32 37 43 C37.66 43 38.32 43 39 43 C39 43.66 39 44.32 39 45 C39.66 45 40.32 45 41 45 C41 46.98 41 48.96 41 51 C37.53 51.5 37.53 51.5 34 52 C34 53.65 34 55.3 34 57 C30.67 55.33 27.33 53.67 24 52 C22.9 51.53 22.9 51.53 21.77 51.05 C18.76 49.27 18.2 46.16 17 43 C16.35 41.66 15.69 40.32 15 39 C12.69 39 10.38 39 8 39 C6.79 41.41 6.83 43.19 6.69 45.88 C6.37 49.39 6.23 50.69 4.06 53.56 C0.44 56.08 -1.96 56.22 -6.38 56.31 C-8.09 56.37 -8.09 56.37 -9.84 56.43 C-13.7 55.91 -14.61 55.02 -17 52 C-17.39 49.51 -17.39 49.51 -17.24 46.75 C-17.19 45.75 -17.14 44.75 -17.09 43.72 C-17.02 42.68 -16.95 41.63 -16.88 40.56 C-16.83 39.53 -16.78 38.49 -16.73 37.42 C-16.45 32.45 -15.92 28.61 -14 24 C-13.72 21.65 -13.51 19.3 -13.38 16.94 C-13.3 15.73 -13.23 14.52 -13.15 13.28 C-13.04 10.85 -13 8.43 -13 6 C-11.97 5.73 -11.97 5.73 -10.92 5.45 C-10.02 5.2 -9.12 4.95 -8.19 4.69 C-7.29 4.44 -6.4 4.2 -5.48 3.95 C-2.95 2.98 -1.73 2.05 0 0 Z " fill="#FA80BC" transform="translate(512,313)"/>
<path d="M0 0 C0.71 -0 1.42 -0 2.15 -0 C7.87 0.11 11.47 1.23 16.19 4.38 C16.19 5.03 16.19 5.69 16.19 6.38 C16.85 6.71 17.51 7.03 18.19 7.38 C17.2 7.38 16.21 7.38 15.19 7.38 C15.58 11.56 15.58 11.56 17.63 15.1 C19.74 18.19 20.2 21.38 20.81 25 C21.55 29.82 21.55 29.82 23.19 34.38 C23.5 37.22 23.75 40.03 23.94 42.88 C24.04 44.05 24.04 44.05 24.14 45.25 C24.3 47.53 24.3 47.53 24.19 51.38 C21 53.5 18.92 53.88 15.19 54.38 C15.19 55.37 15.19 56.36 15.19 57.38 C11.7 56.12 9.11 54.62 6.19 52.38 C5.2 52.05 4.21 51.72 3.19 51.38 C3.14 50.66 3.09 49.95 3.04 49.22 C2.96 48.3 2.89 47.38 2.81 46.44 C2.71 45.06 2.71 45.06 2.6 43.66 C2.4 42.53 2.4 42.53 2.19 41.38 C-0.38 40.09 -2.32 40.17 -5.19 40.12 C-6.62 40.09 -6.62 40.09 -8.09 40.05 C-11.28 40.43 -12.55 41.12 -14.81 43.38 C-15.81 45.36 -15.81 45.36 -16.38 47.5 C-17 49.63 -17 49.63 -17.81 51.38 C-20.58 52.3 -22.38 52.54 -25.25 52.56 C-26.39 52.58 -26.39 52.58 -27.56 52.61 C-30.13 52.34 -31.65 51.79 -33.81 50.38 C-35.44 48.16 -36.54 45.83 -37.81 43.38 C-36.82 42.88 -36.82 42.88 -35.81 42.38 C-34.63 39.91 -33.55 37.46 -32.5 34.94 C-30.46 30.13 -28.39 25.43 -25.94 20.81 C-23.93 16.93 -23.1 13.73 -22.81 9.38 C-21.49 9.38 -20.17 9.38 -18.81 9.38 C-19.14 8.06 -19.47 6.74 -19.81 5.38 C-14.83 3.23 -14.83 3.23 -12.81 2.38 C-12.07 2.02 -11.33 1.66 -10.56 1.3 C-7.03 0.11 -3.68 -0.01 0 0 Z " fill="#FA81BD" transform="translate(578.8125,243.625)"/>
<path d="M0 0 C1.38 1.63 2.72 3.29 4 5 C4.76 4.86 5.52 4.71 6.31 4.56 C18.55 2.36 28.18 2.76 40 7 C41.82 8.64 41.82 8.64 43 10 C43.66 10 44.32 10 45 10 C45.66 9.34 46.32 8.68 47 8 C47.99 8 48.98 8 50 8 C50.33 6.68 50.66 5.36 51 4 C51.54 3.9 52.07 3.79 52.62 3.69 C55.15 3.06 55.15 3.06 57.75 1.44 C62.62 -0.72 66.57 -0.87 71.51 0.9 C73.71 1.87 75.86 2.89 78 4 C76.76 6.74 76.11 7.92 73.62 9.75 C70.81 12.16 69.8 14.37 68.27 17.68 C66.17 21.51 63.31 24.67 60.5 28 C57.87 31.16 55.32 34.37 52.81 37.62 C52.39 38.17 51.97 38.72 51.53 39.28 C48.58 43.13 45.95 47.09 43.55 51.29 C40.43 54.73 36.59 54.97 32.13 55.2 C30.8 55.18 29.46 55.16 28.12 55.12 C27.44 55.12 26.75 55.11 26.04 55.1 C24.36 55.07 22.68 55.04 21 55 C19.77 50.56 19.77 50.56 20.84 47.96 C21.23 47.31 21.61 46.67 22 46 C25.51 37.2 25.51 37.2 27 28 C25.57 26.77 24.13 25.54 22.66 24.36 C19.34 21.64 16.56 18.98 14.44 15.25 C13.23 12.81 13.23 12.81 10.88 12.38 C10.26 12.25 9.64 12.13 9 12 C8.67 11.01 8.34 10.02 8 9 C6.97 8.85 6.97 8.85 5.92 8.7 C5.02 8.55 4.12 8.4 3.19 8.25 C2.29 8.11 1.4 7.97 0.48 7.83 C-2.51 6.83 -3.38 5.64 -5 3 C-2.25 0 -2.25 0 0 0 Z " fill="#FA81BF" transform="translate(779,313)"/>
<path d="M0 0 C1.53 0.01 1.53 0.01 3.08 0.02 C11.53 0.29 17.43 1.73 23.75 7.69 C26.28 10.48 28.47 13.12 29.75 16.69 C29.42 19.55 28.66 21.95 27.75 24.69 C29.73 25.35 31.71 26.01 33.75 26.69 C34.08 26.03 34.41 25.37 34.75 24.69 C34.75 25.35 34.75 26.01 34.75 26.69 C39.23 24.9 43.42 23.23 47.06 20 C50.19 17.31 51.92 16.55 56 16.85 C59.7 17.59 62.14 18.15 65 20.69 C66 24.69 65.55 27.42 64.24 31.31 C61.12 36.29 55.25 37.71 49.83 39.22 C46.36 40 42.85 40 39.31 40.06 C38.19 40.12 38.19 40.12 37.04 40.18 C32.79 40.24 31.31 40.19 28.03 37.23 C27.28 36.39 26.53 35.55 25.75 34.69 C23.25 33.79 23.25 33.79 20.69 33.56 C16.88 33.08 14.56 32.4 11.75 29.69 C11.75 28.7 11.75 27.71 11.75 26.69 C11.09 26.69 10.43 26.69 9.75 26.69 C9.72 26.06 9.7 25.43 9.67 24.79 C9.62 23.97 9.56 23.15 9.5 22.31 C9.45 21.5 9.41 20.69 9.36 19.85 C8.94 17.58 8.94 17.58 7.07 16.32 C3.94 15.47 2.03 16.1 -1.06 17 C-2.13 17.28 -3.19 17.57 -4.29 17.86 C-5.27 18.14 -6.24 18.41 -7.25 18.69 C-13.23 20.31 -16.19 19.17 -21.43 16.3 C-23.25 14.69 -23.25 14.69 -24.13 12.17 C-24.25 9.69 -24.25 9.69 -22.31 7.12 C-15.17 1.44 -9.09 -0.07 0 0 Z " fill="#F8441C" transform="translate(719.25,382.3125)"/>
<path d="M0 0 C0 0.66 0 1.32 0 2 C0.8 2.14 1.61 2.29 2.44 2.44 C5 3 5 3 6 4 C7.79 4.09 9.58 4.18 11.37 4.24 C24.08 4.67 24.08 4.67 28.52 7.29 C32.47 11.84 34 19.09 34 25 C32.44 27.78 31.57 28.82 28.5 29.81 C26 30 26 30 23 29 C22.5 28.01 22.5 28.01 22 27 C21.2 26.69 20.39 26.38 19.56 26.06 C17 25 17 25 15 22 C12.82 23.01 11.11 23.9 9.35 25.56 C6.04 27.59 2.95 27.36 -0.81 27.25 C-1.84 27.24 -1.84 27.24 -2.89 27.23 C-14.93 27.05 -14.93 27.05 -17.78 24.26 C-18.16 23.55 -18.54 22.85 -18.94 22.12 C-19.34 21.43 -19.74 20.73 -20.15 20.01 C-21 18 -21 18 -21 15 C-21.66 14.67 -22.32 14.34 -23 14 C-22.34 14 -21.68 14 -21 14 C-21 13.01 -21 12.02 -21 11 C-22.11 10.73 -23.23 10.46 -24.38 10.19 C-28 9 -28 9 -30 6 C-29.81 3.44 -29.81 3.44 -29 1 C-20.62 -4.59 -9.26 -1.97 0 0 Z " fill="#F8BD26" transform="translate(482,383)"/>
<path d="M0 0 C1.44 0.43 2.88 0.87 4.31 1.31 C5.11 1.56 5.91 1.8 6.74 2.05 C9.1 3.04 10.34 4.08 12 6 C11.57 7.59 11.13 9.17 10.69 10.75 C10.44 11.63 10.2 12.51 9.95 13.42 C8.97 16.09 7.91 17.9 6 20 C5.34 20 4.68 20 4 20 C3.79 20.66 3.59 21.32 3.38 22 C0.97 27.25 -2.57 31.6 -6.69 35.62 C-9.18 37.93 -9.18 37.93 -10.56 41.25 C-12 44 -12 44 -14.19 44.88 C-14.79 44.92 -15.38 44.96 -16 45 C-16.09 45.75 -16.17 46.5 -16.26 47.27 C-17.15 50.56 -18.28 51.6 -20.88 53.75 C-21.57 54.34 -22.27 54.94 -22.99 55.55 C-27.14 58.55 -31.42 58.15 -36.31 58.12 C-37.55 58.12 -37.55 58.12 -38.81 58.11 C-45.5 58.05 -52.19 57.91 -58.88 57.69 C-59.81 57.67 -60.74 57.64 -61.7 57.62 C-66.51 57.42 -70.18 57.26 -74 54 C-74.5 52.51 -74.5 52.51 -75 51 C-71.73 49.02 -69.64 48.85 -65.88 49.31 C-65.01 49.41 -64.14 49.51 -63.24 49.61 C-61 50 -61 50 -59 51 C-56.24 51.1 -53.51 51.14 -50.75 51.12 C-50 51.13 -49.25 51.13 -48.47 51.14 C-42.15 51.2 -42.15 51.2 -36 50 C-34.85 47.79 -34.85 47.79 -34 45 C-32.41 42.64 -30.61 40.46 -28.81 38.25 C-27.81 37 -26.82 35.76 -25.82 34.51 C-25.34 33.91 -24.85 33.3 -24.35 32.68 C-21.52 29.16 -18.76 25.58 -16 22 C-15.45 21.3 -14.91 20.61 -14.35 19.89 C-12.05 16.91 -10.11 14.23 -8.5 10.81 C-7.07 8.13 -6.17 7.14 -3.88 5.31 C-0.78 3.25 -0.78 3.25 0 0 Z " fill="#F9431B" transform="translate(857,316)"/>
<path d="M0 0 C4.32 0.25 6.45 0.52 9.75 3.44 C10.49 4.28 11.24 5.13 12 6 C12.99 6.66 13.98 7.32 15 8 C13.38 10.64 12.51 11.83 9.52 12.83 C8.63 12.97 7.73 13.11 6.81 13.25 C5.91 13.4 5.01 13.55 4.08 13.7 C3.39 13.8 2.71 13.9 2 14 C2.1 14.59 2.19 15.19 2.29 15.8 C3.07 21.62 2.81 26.53 1.57 32.26 C0.3 38.35 -0.3 44.49 -0.75 50.69 C-0.82 51.43 -0.89 52.18 -0.96 52.95 C-1.18 56.13 -1.2 58.55 0.09 61.5 C2.86 63.68 4.89 63.46 8.38 63.38 C9.5 63.36 10.62 63.35 11.77 63.34 C14.89 63.01 17.18 62.32 20 61 C20.05 60.08 20.1 59.17 20.15 58.23 C20.22 57.04 20.3 55.85 20.38 54.62 C20.44 53.44 20.51 52.26 20.59 51.04 C21 48 21 48 23 46 C29.16 45.44 29.16 45.44 31.88 47.25 C33.12 49.19 33.47 50.76 34 53 C34.21 53.64 34.42 54.27 34.64 54.93 C35.74 58.44 36.11 60.55 35.25 64.19 C31.5 68.87 26.46 71.47 20.52 72.38 C17.24 72.46 14.81 72.38 11.81 70.97 C7.8 69.58 4.08 69.87 -0.12 70 C-7.31 70.12 -13.99 69.76 -21 68 C-21 66.33 -21 64.67 -21 63 C-18.03 63 -15.06 63 -12 63 C-8.47 55.94 -6.63 50.97 -6.99 43.1 C-7 41 -7 41 -6 39 C-5.85 37.48 -5.75 35.96 -5.68 34.43 C-5.64 33.53 -5.6 32.64 -5.56 31.71 C-5.52 30.78 -5.48 29.84 -5.44 28.88 C-5.39 27.93 -5.35 26.99 -5.31 26.01 C-5.2 23.67 -5.1 21.34 -5 19 C-5.66 19 -6.32 19 -7 19 C-7.31 16.31 -7.31 16.31 -7 13 C-4.83 10.43 -3.02 8.51 0 7 C0 4.69 0 2.38 0 0 Z " fill="#F8441C" transform="translate(497,305)"/>
<path d="M0 0 C0.5 0.99 0.5 0.99 1 2 C2.67 2.34 4.33 2.67 6 3 C8 5 8 5 8.4 8.25 C7.91 12.8 6.6 14.52 3.62 17.94 C2.41 19.37 2.41 19.37 1.16 20.84 C-1 23 -1 23 -3 23 C-3.25 23.76 -3.5 24.53 -3.75 25.31 C-5.15 28.32 -6.37 29.09 -9 31 C-10.02 32.66 -11.02 34.32 -12 36 C-13.31 37.36 -14.65 38.69 -16 40 C-17.07 41.27 -18.13 42.54 -19.19 43.81 C-20.44 45.22 -21.71 46.62 -23 48 C-23.64 48.68 -24.27 49.37 -24.93 50.07 C-30.69 55.43 -35.65 55.69 -43.35 55.44 C-47.13 54.98 -50.38 54.15 -54 53 C-54 52.01 -54 51.02 -54 50 C-52.37 49.58 -50.74 49.15 -49.12 48.73 C-43.18 46.68 -39.6 43.88 -35.75 39 C-34.79 37.83 -33.84 36.66 -32.88 35.49 C-32.16 34.61 -32.16 34.61 -31.43 33.71 C-29.28 31.13 -27.02 28.66 -24.75 26.19 C-18.47 19.33 -12.47 12.45 -6.89 5 C-4.84 2.83 -3.85 2.53 -1 2 C-0.67 1.34 -0.34 0.68 0 0 Z " fill="#F9431B" transform="translate(780,247)"/>
<path d="M0 0 C0.99 0 1.98 0 3 0 C3 0.66 3 1.32 3 2 C3.93 2.37 3.93 2.37 4.88 2.75 C7.49 4.29 8.07 5.12 9 8 C9.44 11.5 9.44 11.5 9 15 C6.62 17.44 6.62 17.44 4 19 C3.34 19 2.68 19 2 19 C2 19.66 2 20.32 2 21 C-2.06 23.1 -5.89 25.01 -10.25 26.38 C-14.43 27.91 -15.96 29.99 -18 34 C-18.79 36.08 -19.53 38.15 -20.19 40.27 C-21 42 -21 42 -24 44 C-26.93 44.27 -26.93 44.27 -30.31 44.25 C-31.42 44.26 -32.53 44.26 -33.68 44.27 C-37.08 43.99 -39.82 43.21 -43 42 C-42.38 40.19 -42.38 40.19 -41 38 C-39.55 37.5 -39.55 37.5 -38.06 37 C-34.78 35.32 -34.78 35.32 -34.12 32.25 C-33.67 30.11 -33.27 27.97 -32.93 25.81 C-32 23 -32 23 -29.9 21.3 C-27.06 20.02 -24.18 18.95 -21.23 17.96 C-10.7 14.4 -5.1 10 0 0 Z " fill="#F9431B" transform="translate(713,259)"/>
<path d="M0 0 C0.99 0 1.98 0 3 0 C3.92 2.77 4.12 4.38 4.1 7.23 C4.09 8.43 4.09 8.43 4.09 9.66 C4.08 10.91 4.08 10.91 4.06 12.19 C4.06 13.03 4.05 13.88 4.05 14.75 C4.04 16.83 4.02 18.92 4 21 C3.01 19.02 3.01 19.02 2 17 C-6.28 18.97 -6.28 18.97 -12.39 24.23 C-13.1 26.59 -13.1 26.59 -13.41 28.91 C-14.25 31.88 -15.32 32.48 -18 34 C-20.75 34.28 -23.27 34.4 -26.02 34.36 C-26.8 34.36 -27.57 34.36 -28.37 34.36 C-30.02 34.36 -31.66 34.35 -33.3 34.34 C-35.79 34.31 -38.29 34.32 -40.78 34.32 C-42.38 34.32 -43.98 34.31 -45.58 34.3 C-46.32 34.3 -47.06 34.3 -47.82 34.3 C-52.55 34.24 -56.57 33.71 -61 32 C-61.33 31.01 -61.66 30.02 -62 29 C-50.23 25.4 -50.23 25.4 -46.25 26.48 C-43.06 27.22 -40.01 27.09 -36.75 27.06 C-35.49 27.05 -34.22 27.04 -32.92 27.04 C-31.48 27.02 -31.48 27.02 -30 27 C-28.42 24.19 -27.8 22.14 -27.69 18.94 C-27 15 -27 15 -25 13.19 C-21.86 11.95 -18.69 10.91 -15.48 9.88 C-7.55 7.16 -7.55 7.16 -1.4 1.84 C-0.94 1.23 -0.48 0.63 0 0 Z " fill="#F9431B" transform="translate(655,269)"/>
<path d="M0 0 C2.15 0.14 4.29 0.29 6.44 0.44 C7.63 0.52 8.83 0.6 10.06 0.68 C13 1 13 1 14 2 C14.26 3.32 14.46 4.66 14.62 6 C14.72 6.72 14.82 7.44 14.91 8.19 C14.94 8.79 14.97 9.38 15 10 C14.67 10.33 14.34 10.66 14 11 C13.97 12.97 14.01 14.93 14.09 16.9 C14.13 18.1 14.17 19.3 14.22 20.54 C14.3 22.44 14.3 22.44 14.38 24.38 C14.42 25.63 14.46 26.89 14.51 28.19 C14.63 34.7 14.63 34.7 16 41 C15.69 44.62 15.69 44.62 15 48 C12.54 49.23 10.87 49.13 8.12 49.12 C7.26 49.13 6.4 49.13 5.51 49.13 C3.19 49.01 1.22 48.65 -1 48 C-1.33 46.68 -1.66 45.36 -2 44 C-2.66 44 -3.32 44 -4 44 C-3.67 42.68 -3.34 41.36 -3 40 C-0.69 40 1.62 40 4 40 C4 38.02 4 36.04 4 34 C3.34 34 2.68 34 2 34 C2 33.34 2 32.68 2 32 C1.34 32 0.68 32 0 32 C0 31.34 0 30.68 0 30 C-0.66 30 -1.32 30 -2 30 C-4.77 25.19 -6.09 21.51 -6 16 C-4.49 14.81 -2.97 13.63 -1.37 12.56 C1.19 9.64 0.42 5.92 0.21 2.23 C0.11 1.13 0.11 1.13 0 0 Z M11 22 C10.34 22.66 9.68 23.32 9 24 C9.32 27.6 9.32 27.6 10 31 C10.66 31 11.32 31 12 31 C12.68 27.6 12.68 27.6 13 24 C12.34 23.34 11.68 22.68 11 22 Z " fill="#F9451E" transform="translate(549,324)"/>
<path d="M0 0 C0.75 1.69 0.75 1.69 1 4 C0.03 5.05 0.03 5.05 -0.96 6.12 C-3.63 9.89 -3.48 13 -3.36 17.44 C-3.36 19.09 -3.36 20.74 -3.37 22.4 C-3.34 24.99 -3.31 27.58 -3.26 30.16 C-3.23 32.67 -3.23 35.18 -3.24 37.69 C-3.21 38.46 -3.18 39.24 -3.16 40.03 C-3.18 42.23 -3.18 42.23 -4 46 C-8.77 50.41 -14.04 50.47 -20.18 50.27 C-23.35 49.97 -26.09 49.29 -29 48 C-27.68 47.34 -26.36 46.68 -25 46 C-25 45.34 -25 44.68 -25 44 C-23.03 42.62 -21.03 41.29 -19 40 C-16.97 37.97 -17.63 33.86 -17.5 31.06 C-17.46 30.27 -17.42 29.47 -17.38 28.65 C-17.25 26.1 -17.12 23.55 -17 21 C-16.84 17.65 -16.67 14.29 -16.5 10.94 C-16.46 10.16 -16.43 9.38 -16.39 8.58 C-16.11 3.11 -16.11 3.11 -15 2 C-12.86 1.6 -10.71 1.26 -8.56 0.94 C-7.39 0.76 -6.21 0.58 -5 0.4 C-2 0 -2 0 0 0 Z " fill="#FA431B" transform="translate(605,324)"/>
<path d="M0 0 C2.88 1.88 2.88 1.88 5 4 C5 4.66 5 5.32 5 6 C6.65 5.67 8.3 5.34 10 5 C10.99 6.49 10.99 6.49 12 8 C13.63 9.05 15.3 10.06 17 11 C16.25 18.75 16.25 18.75 14 21 C12.68 21 11.36 21 10 21 C9.67 21.99 9.34 22.98 9 24 C7.36 25.05 5.7 26.05 4 27 C3.34 27.66 2.68 28.32 2 29 C-0.62 29.56 -0.62 29.56 -4 29 C-7 27 -9.47 24.57 -12 22 C-12.69 21.32 -13.39 20.63 -14.1 19.93 C-17.83 16.02 -17.83 16.02 -19 14 C-18.9 10.88 -18.52 9.51 -16.29 7.3 C-15.6 6.83 -14.9 6.36 -14.19 5.88 C-13.5 5.4 -12.81 4.92 -12.11 4.43 C-11.41 3.96 -10.72 3.49 -10 3 C-9.31 2.45 -8.63 1.91 -7.92 1.35 C-5.13 -0.61 -3.34 -0.48 0 0 Z " fill="#F8BD26" transform="translate(830,273)"/>
<path d="M0 0 C1.11 0.37 2.23 0.74 3.38 1.12 C4.24 1.41 5.11 1.7 6 2 C6 2.66 6 3.32 6 4 C7.65 5.02 9.32 6.02 11 7 C13.06 8.61 15.02 10.3 17 12 C13.01 19.03 13.01 19.03 9.06 20.94 C6.85 21.9 6.85 21.9 5.31 24.06 C1.88 26.94 -1.59 27.35 -6 27 C-9.06 25.25 -9.06 25.25 -11 23 C-11 22.01 -11 21.02 -11 20 C-11.95 19.73 -12.9 19.46 -13.88 19.19 C-17 18 -17 18 -19 15 C-19.33 8.67 -19.33 8.67 -18 6 C-18.66 5.34 -19.32 4.68 -20 4 C-18.11 3.88 -18.11 3.88 -16.19 3.75 C-12.72 3.37 -12.72 3.37 -10.19 1 C-9.8 0.34 -9.4 -0.32 -9 -1 C-5.16 -2.28 -3.75 -1.4 0 0 Z " fill="#F8BC25" transform="translate(444,264)"/>
<path d="M0 0 C16.31 -0.73 16.31 -0.73 23.89 3.03 C26.24 4.11 28.45 4.54 31 5 C33.69 6 33.69 6 36 8 C37.21 10.95 38.05 13.8 38 17 C36.74 18.76 36.74 18.76 35 20 C31.42 20.34 28.78 20.31 25.43 18.97 C19.91 17.41 14.39 17.99 8.7 18.25 C2.73 18.4 -0.44 17.95 -5 14 C-6.88 11.75 -6.88 11.75 -8 10 C-5.67 6.25 -3.66 3.49 0 1 C0 0.67 0 0.34 0 0 Z " fill="#F8BD26" transform="translate(662,217)"/>
<path d="M0 0 C5.12 1.71 8.48 3.98 12.25 7.75 C13.28 8.25 14.31 8.74 15.38 9.25 C18.52 10.89 18.91 11.64 20.25 14.75 C19.16 16.09 18.05 17.42 16.94 18.75 C16.32 19.49 15.71 20.24 15.07 21 C13.25 22.75 13.25 22.75 10.25 22.75 C9.92 23.74 9.59 24.73 9.25 25.75 C7.54 26.95 7.54 26.95 5.44 28 C4.75 28.36 4.06 28.71 3.36 29.08 C0.8 29.89 -0.28 29.77 -2.75 28.75 C-6.89 25.5 -10.34 21.92 -11.75 16.75 C-12.41 17.08 -13.07 17.41 -13.75 17.75 C-13.75 17.09 -13.75 16.43 -13.75 15.75 C-14.74 15.75 -15.73 15.75 -16.75 15.75 C-16.47 11.13 -14.36 8.52 -11.38 5.19 C-9.28 3.33 -7.51 2.99 -4.75 2.75 C-4.42 2.09 -4.09 1.43 -3.75 0.75 C-1.75 -0.25 -1.75 -0.25 0 0 Z " fill="#F7BC26" transform="translate(649.75,386.25)"/>
<path d="M0 0 C1.94 0.38 1.94 0.38 4 1 C6.15 5.29 5.04 11.05 4.92 15.8 C4.89 17.22 4.87 18.65 4.86 20.07 C4.84 22.12 4.8 24.16 4.74 26.21 C4.72 27.44 4.7 28.67 4.68 29.94 C4 33 4 33 1.64 34.82 C0.33 35.41 0.33 35.41 -1 36 C-1.97 36.54 -2.94 37.07 -3.94 37.62 C-10.51 40.57 -17.49 40.21 -24.56 40.25 C-26.1 40.28 -26.1 40.28 -27.68 40.31 C-36.84 40.36 -36.84 40.36 -41 37 C-42.33 36.32 -43.66 35.65 -45 35 C-41.82 32.88 -40.89 32.96 -37.27 33.05 C-28.36 32.86 -15.07 31.5 -8.16 25.37 C-7.59 24.69 -7.59 24.69 -7 24 C-7 24.99 -7 25.98 -7 27 C-3.31 21.45 -3.31 21.45 -3 15 C-3.66 14.34 -4.32 13.68 -5 13 C-4.81 7.26 -4.12 4.25 0 0 Z M-30 38 C-30 38.33 -30 38.66 -30 39 C-28.35 39 -26.7 39 -25 39 C-25 38.67 -25 38.34 -25 38 C-26.65 38 -28.3 38 -30 38 Z " fill="#F9431B" transform="translate(462,338)"/>
<path d="M0 0 C2.13 0.11 4.25 0.24 6.38 0.38 C8.15 0.48 8.15 0.48 9.96 0.59 C13 1 13 1 15 3 C14.67 6.3 14.38 7.62 12 10 C11.35 12.57 11.35 12.57 11 15 C11.33 15 11.66 15 12 15 C12.59 27.25 12.59 27.25 9 32 C4.6 35.34 1.09 36.69 -4.45 36.47 C-9.6 35.52 -14.29 33.23 -19 31 C-19 30.34 -19 29.68 -19 29 C-11.08 26.52 -11.08 26.52 -3 24 C-2.95 22.6 -2.9 21.21 -2.85 19.77 C-2.78 17.93 -2.7 16.09 -2.62 14.25 C-2.59 13.33 -2.56 12.41 -2.53 11.46 C-2.49 10.57 -2.45 9.68 -2.41 8.77 C-2.38 7.95 -2.35 7.13 -2.32 6.29 C-1.98 3.83 -1.23 2.14 0 0 Z " fill="#F9431D" transform="translate(629,341)"/>
<path d="M0 0 C1.04 -0.02 1.04 -0.02 2.11 -0.04 C7.98 -0.05 12.24 0.93 17.12 4.19 C18.62 6.95 19.16 8.66 18.94 11.81 C17.64 15.59 15.05 17.48 11.62 19.38 C5.84 22.19 -0.82 22.2 -6.88 20.19 C-6.88 19.53 -6.88 18.87 -6.88 18.19 C-7.64 17.96 -8.4 17.73 -9.19 17.5 C-11.88 16.19 -11.88 16.19 -13.88 14.19 C-15.25 10.06 -14.24 7.38 -13.03 3.3 C-11.88 1.19 -11.88 1.19 -10.25 0.4 C-6.83 0.09 -3.43 0 0 0 Z M1.12 19.19 C1.12 19.52 1.12 19.85 1.12 20.19 C2.77 20.19 4.42 20.19 6.12 20.19 C6.12 19.86 6.12 19.53 6.12 19.19 C4.48 19.19 2.83 19.19 1.12 19.19 Z " fill="#F8441D" transform="translate(599.875,221.8125)"/>
<path d="M0 0 C1.44 -0.01 1.44 -0.01 2.91 -0.02 C5.5 0.25 5.5 0.25 8.5 2.25 C8.94 5.62 8.94 5.62 8.5 9.25 C6.81 11.31 6.81 11.31 4.5 13.25 C3.78 14.3 3.06 15.35 2.31 16.44 C-3.55 22.3 -14.59 20.42 -22.54 20.44 C-23.32 20.44 -24.11 20.44 -24.91 20.44 C-27.32 20.44 -29.74 20.46 -32.15 20.47 C-33.69 20.48 -35.23 20.48 -36.77 20.48 C-37.84 20.49 -37.84 20.49 -38.94 20.5 C-42.63 20.49 -45.37 20.29 -48.5 18.25 C-47.56 15.75 -47.56 15.75 -45.5 13.25 C-43.12 12.96 -40.95 13.06 -38.56 13.27 C-36.27 13.49 -36.27 13.49 -34.5 11.25 C-30.77 10.87 -29.72 11.1 -26.5 13.25 C-21.72 13.53 -17.22 13.02 -12.5 12.25 C-12.4 11.53 -12.29 10.81 -12.19 10.06 C-10.48 3.08 -7.2 -0.04 0 0 Z " fill="#F9431B" transform="translate(573.5,282.75)"/>
<path d="M0 0 C2 2 2 2 2.23 4.35 C2.21 5.69 2.21 5.69 2.19 7.06 C2.18 7.96 2.17 8.86 2.17 9.79 C2 12 2 12 1 13 C0.96 15.33 0.96 17.67 1 20 C1 23.65 0.11 25.06 -2 28 C-5.56 30.41 -9.4 30.47 -13.56 30.69 C-14.23 30.73 -14.91 30.78 -15.6 30.83 C-18.75 31.02 -20.98 31.01 -24 30 C-24 29.34 -24 28.68 -24 28 C-24.99 28 -25.98 28 -27 28 C-26.78 26.1 -26.78 26.1 -26 24 C-24 23.06 -24 23.06 -21.56 22.44 C-17.54 21.43 -17.54 21.43 -15 18 C-14.49 16.1 -14.04 14.18 -13.62 12.25 C-12.4 7.15 -11.04 3.27 -8 -1 C-4.35 -2.22 -3.37 -1.64 0 0 Z " fill="#FA431B" transform="translate(514,273)"/>
<path d="M0 0 C1.16 2.33 1.2 3.85 1.25 6.44 C1.28 7.22 1.3 8 1.33 8.81 C0.92 11.55 0.17 12.34 -2 14 C-9.14 16.69 -16.55 16.37 -24 15 C-26.39 13.76 -26.39 13.76 -28 12 C-28.5 9.62 -28.5 9.62 -28.44 7 C-28.44 6.13 -28.43 5.27 -28.43 4.38 C-27.92 1.55 -27.29 0.69 -25 -1 C-16.22 -3.78 -8.57 -3.58 0 0 Z " fill="#FA431B" transform="translate(596,390)"/>
<path d="M0 0 C5.53 3.65 5.53 3.65 6.76 7.2 C7.43 11.55 7.43 11.55 7 14 C2.36 19.73 -4.45 22.59 -11.66 23.42 C-17.75 23.55 -21.9 23.59 -27 20 C-25.55 16.61 -23.58 14.58 -21 12 C-21 11.34 -21 10.68 -21 10 C-20.2 9.88 -19.39 9.75 -18.56 9.62 C-17.72 9.42 -16.87 9.21 -16 9 C-15.67 8.34 -15.34 7.68 -15 7 C-13.68 7 -12.36 7 -11 7 C-9.34 5.1 -9.34 5.1 -8 3 C-5.14 1.57 -3.07 2.4 0 3 C0 2.01 0 1.02 0 0 Z " fill="#F8BD26" transform="translate(545,393)"/>
<path d="M0 0 C2.97 0.5 2.97 0.5 6 1 C6.75 12.53 7.23 23.82 6.14 35.34 C5.62 42.07 7.2 46 10.69 51.81 C12 54 12 54 12 56 C8.73 58.16 5.72 60.08 1.71 59.89 C-0.58 59.37 -2.77 58.73 -5 58 C-6.35 57.62 -7.71 57.25 -9.06 56.88 C-10.03 56.59 -11 56.3 -12 56 C-11.29 54.08 -11.29 54.08 -10 52 C-7.84 51.17 -7.84 51.17 -5.38 50.75 C-4.56 50.6 -3.74 50.45 -2.9 50.3 C-1.96 50.15 -1.96 50.15 -1 50 C-0.2 47.18 0.12 44.68 0.11 41.75 C0.11 40.93 0.11 40.1 0.11 39.25 C0.11 38.36 0.1 37.47 0.1 36.56 C0.1 35.65 0.09 34.73 0.09 33.78 C0.09 30.86 0.08 27.93 0.06 25 C0.06 23.03 0.05 21.06 0.05 19.09 C0.04 14.74 0.02 10.39 0.01 6.05 C0 4.03 0 2.02 0 0 Z " fill="#F9431C" transform="translate(666,317)"/>
<path d="M0 0 C1.21 -0.03 2.42 -0.05 3.67 -0.08 C7.57 0.28 9.95 1.18 13.25 3.25 C14.66 6.81 14.19 9.6 13.25 13.25 C12.59 13.25 11.93 13.25 11.25 13.25 C10.92 14.24 10.59 15.23 10.25 16.25 C6.81 17.4 4.06 17.42 0.44 17.44 C-0.77 17.45 -1.97 17.47 -3.21 17.48 C-6.73 17.25 -9.47 16.52 -12.75 15.25 C-13.4 11.89 -13.89 8.67 -13.75 5.25 C-9.56 0.61 -6.04 0.08 0 0 Z " fill="#F8431C" transform="translate(780.75,291.75)"/>
<path d="M0 0 C0 3.96 0 7.92 0 12 C-1.32 12.33 -2.64 12.66 -4 13 C-4.72 14.65 -5.38 16.31 -6 18 C-10.12 20.75 -13.41 20.33 -18.25 20.31 C-19.08 20.33 -19.92 20.34 -20.78 20.36 C-26.28 20.37 -30.09 19.51 -35 17 C-34.67 16.34 -34.34 15.68 -34 15 C-32.01 14.74 -30.01 14.49 -28.01 14.34 C-25.69 14.09 -25.69 14.09 -23 12 C-22.01 12 -21.02 12 -20 12 C-19.9 11.25 -19.81 10.51 -19.71 9.74 C-18.67 5.73 -16.59 3.99 -13.48 1.38 C-9.02 -1.1 -4.99 -0.44 0 0 Z " fill="#FA431B" transform="translate(768,353)"/>
<path d="M0 0 C2.87 1.25 4.46 2.65 6.44 5.06 C6.44 5.72 6.44 6.38 6.44 7.06 C7.43 6.73 8.42 6.4 9.44 6.06 C9.04 10.85 8.07 14.2 5.74 18.47 C4.64 20.65 3.71 22.8 2.79 25.06 C2.5 25.78 2.2 26.49 1.9 27.23 C1.31 28.69 0.73 30.14 0.16 31.6 C-1.99 36.8 -1.99 36.8 -5.18 38.28 C-5.97 38.54 -6.75 38.8 -7.56 39.06 C-7.69 34.31 -7.78 29.56 -7.84 24.81 C-7.86 23.2 -7.9 21.58 -7.94 19.97 C-8 17.64 -8.03 15.32 -8.05 12.99 C-8.08 12.27 -8.1 11.55 -8.13 10.81 C-8.13 6.86 -7.68 5.21 -5.19 2.07 C-2.56 0.06 -2.56 0.06 0 0 Z " fill="#F9431B" transform="translate(546.5625,248.9375)"/>
<path d="M0 0 C1.94 0.81 1.94 0.81 4 2 C4.33 2.99 4.66 3.98 5 5 C6.21 5.93 6.21 5.93 7.44 6.88 C10.21 9.17 10.94 10.63 12 14 C12.33 14.66 12.66 15.32 13 16 C13.04 18 13.04 20 13 22 C13.99 21.67 14.98 21.34 16 21 C14.38 27.03 12.83 30.95 8 35 C7.01 34.67 6.02 34.34 5 34 C3.42 30.83 3.71 27.46 4 24 C5 21.5 5 21.5 6 20 C5.22 19.86 4.43 19.71 3.62 19.56 C1 19 1 19 -1 18 C-1.63 15.89 -1.63 15.89 -2.12 13.25 C-2.29 12.39 -2.46 11.53 -2.63 10.64 C-3 8.03 -3.17 5.63 -3 3 C-1.5 1.19 -1.5 1.19 0 0 Z " fill="#F9431C" transform="translate(790,325)"/>
<path d="M0 0 C4.32 0.25 6.45 0.52 9.75 3.44 C10.49 4.28 11.24 5.13 12 6 C12.99 6.66 13.98 7.32 15 8 C13.38 10.64 12.51 11.83 9.52 12.83 C8.63 12.97 7.73 13.11 6.81 13.25 C5.91 13.4 5.01 13.55 4.08 13.7 C3.05 13.85 3.05 13.85 2 14 C1.94 15.05 1.88 16.1 1.82 17.18 C1.73 18.55 1.65 19.93 1.56 21.31 C1.5 22.35 1.5 22.35 1.44 23.4 C1.25 26.47 0.98 29.07 0 32 C-3.88 30.25 -3.88 30.25 -5 28 C-5.07 26.46 -5.08 24.92 -5.06 23.38 C-5.05 22.56 -5.04 21.74 -5.04 20.9 C-5.02 20.27 -5.01 19.65 -5 19 C-5.66 19 -6.32 19 -7 19 C-7.31 16.31 -7.31 16.31 -7 13 C-4.83 10.43 -3.02 8.51 0 7 C0 4.69 0 2.38 0 0 Z " fill="#F9431C" transform="translate(497,305)"/>
<path d="M0 0 C0.5 5.27 -0.67 7.91 -4 12 C-9 13.67 -14.22 13.19 -19.45 13.19 C-21.49 13.19 -23.53 13.21 -25.57 13.22 C-27.5 13.23 -27.5 13.23 -29.47 13.23 C-30.65 13.23 -31.83 13.24 -33.04 13.24 C-36 13 -36 13 -39 11 C-36.56 7.86 -35.37 7.06 -31.36 6.43 C-30.01 6.37 -28.66 6.33 -27.31 6.31 C-22.79 6.58 -22.79 6.58 -19 5 C-17.42 4.87 -15.83 4.77 -14.25 4.69 C-8.35 4.18 -5.64 0 0 0 Z " fill="#FA431B" transform="translate(724,360)"/>
<path d="M0 0 C0.33 0.99 0.66 1.98 1 3 C2.98 2.67 4.96 2.34 7 2 C8.81 11.09 9.4 19.99 9.62 29.25 C9.66 30.59 9.7 31.93 9.74 33.28 C9.84 36.52 9.92 39.76 10 43 C8.04 42.25 8.04 42.25 6 41 C5.7 38.89 5.42 36.77 5.27 34.64 C4.79 29.95 3.32 25.51 2 21 C1.74 19.97 1.74 19.97 1.46 18.92 C0.71 16.02 0.02 14.03 -1.81 11.62 C-3.28 8.38 -2.79 7.48 -1.69 4.19 C-1.14 2.78 -0.59 1.39 0 0 Z " fill="#F84621" transform="translate(596,246)"/>
<path d="M0 0 C0.66 0.66 1.32 1.32 2 2 C3.32 2 4.64 2 6 2 C7.73 14.07 8.24 25.81 8 38 C5 37 5 37 3 34 C2.34 34.66 1.68 35.32 1 36 C-0.53 32.93 -0.12 29.73 -0.1 26.37 C-0.1 25.62 -0.09 24.86 -0.09 24.09 C-0.09 21.68 -0.08 19.28 -0.06 16.88 C-0.06 15.25 -0.05 13.62 -0.05 11.99 C-0.04 7.99 -0.02 4 0 0 Z " fill="#FA88CC" transform="translate(601,333)"/>
<path d="M0 0 C4.26 -0.37 6.54 0.5 10 3 C11.85 6.69 11.52 11.06 10.47 14.98 C9.03 18.66 7.58 21.21 4 23 C1.25 23.19 1.25 23.19 -1 23 C-2.16 20.68 -2.06 19.54 -1.91 16.97 C-1.87 16.18 -1.83 15.39 -1.78 14.57 C-1.73 13.74 -1.68 12.92 -1.62 12.06 C-1.58 11.24 -1.54 10.41 -1.49 9.56 C-1.29 6.12 -1.1 3.29 0 0 Z " fill="#FA431B" transform="translate(699,329)"/>
<path d="M0 0 C0.33 0 0.66 0 1 0 C0.89 2.23 0.76 4.46 0.62 6.69 C0.56 7.93 0.49 9.17 0.41 10.45 C0.03 13.73 -0.74 16 -2 19 C-2.2 21 -2.2 21 -2.06 23 C-1.93 28.07 -2.39 33.04 -2.88 38.08 C-3.15 41.21 -3.15 41.21 -2 45 C-5.63 45 -9.26 45 -13 45 C-12.34 43.68 -11.68 42.36 -11 41 C-9.33 34.95 -8.89 29.24 -9 23 C-8.67 22.34 -8.34 21.68 -8 21 C-7.77 19.13 -7.59 17.25 -7.44 15.38 C-7.35 14.37 -7.27 13.37 -7.18 12.34 C-7.12 11.57 -7.06 10.79 -7 10 C-4.52 11.98 -4.52 11.98 -2 14 C-1.94 13.24 -1.88 12.48 -1.82 11.7 C-1.73 10.71 -1.65 9.71 -1.56 8.69 C-1.48 7.7 -1.4 6.72 -1.32 5.7 C-1 3 -1 3 0 0 Z " fill="#F56858" transform="translate(499,323)"/>
<path d="M0 0 C0.33 0.66 0.66 1.32 1 2 C2.21 2.15 2.21 2.15 3.44 2.31 C6 3 6 3 7.38 5.25 C8.05 8.24 7.84 10.08 7 13 C2.55 14.42 -1.27 15.54 -6 15 C-7.69 13.8 -7.69 13.8 -9 12 C-9.07 9.52 -9.07 9.52 -8.69 6.81 C-8.57 5.91 -8.45 5.01 -8.32 4.08 C-8.22 3.39 -8.11 2.71 -8 2 C-5.36 1.34 -2.72 0.68 0 0 Z " fill="#F389C6" transform="translate(417,286)"/>
<path d="M0 0 C0.96 -0.01 1.92 -0.02 2.91 -0.02 C5.5 0.38 5.5 0.38 7.35 1.71 C8.5 3.38 8.5 3.38 8.38 6.31 C6.92 11.41 6.92 11.41 4.5 13.38 C1.44 13.88 -1.45 13.99 -4.5 13.38 C-7.24 11.29 -7.5 10.36 -8.38 6.88 C-8.5 3.38 -8.5 3.38 -7.35 1.68 C-4.83 -0.1 -3.06 -0.02 0 0 Z " fill="#FA87CA" transform="translate(556.5,222.625)"/>
<path d="M0 0 C3.06 2 3.06 2 5 4 C4.44 6.81 4.44 6.81 3 10 C-0.33 11.95 -2.75 13 -6.62 13 C-9.94 11.6 -11.78 9.81 -14 7 C-14.08 4.22 -13.29 3.33 -11.5 1.25 C-7.71 -0.64 -4.15 -0.7 0 0 Z " fill="#FA89CD" transform="translate(790,382)"/>
<path d="M0 0 C1.84 1.34 1.84 1.34 3 3 C3 6 3 6 2 9 C-0.25 10.81 -0.25 10.81 -3 12 C-3.78 12.35 -4.57 12.7 -5.38 13.06 C-9.14 12.97 -10.81 11.09 -13.55 8.64 C-15 7 -15 7 -16 4 C-11.56 -0.9 -6.24 -1.07 0 0 Z " fill="#FA89CD" transform="translate(625,408)"/>
<path d="M0 0 C2.2 0.97 4.35 1.99 6.49 3.1 C5.68 5.04 5.68 5.04 4.49 7.1 C-1.1 8.7 -6.07 7.8 -11.51 6.1 C-11.84 5.77 -12.17 5.44 -12.51 5.1 C-12.84 5.76 -13.17 6.42 -13.51 7.1 C-14.5 7.43 -15.49 7.76 -16.51 8.1 C-16.51 8.76 -16.51 9.42 -16.51 10.1 C-18.16 10.43 -19.81 10.76 -21.51 11.1 C-22.17 10.11 -22.83 9.12 -23.51 8.1 C-22.85 7.77 -22.19 7.44 -21.51 7.1 C-20.86 5.07 -20.86 5.07 -20.51 3.1 C-19.71 2.94 -19.71 2.94 -18.89 2.79 C-16.36 2.15 -16.36 2.15 -13.76 0.54 C-8.89 -1.62 -4.94 -1.78 0 0 Z " fill="#F788C9" transform="translate(850.51171875,313.90234375)"/>
<path d="M0 0 C4.43 1.39 6.87 3.61 10 7 C6.04 7 2.08 7 -2 7 C-2 10.51 -1.62 13.56 -1 17 C-3.62 17.06 -3.62 17.06 -7 16 C-9.36 13.21 -11.12 10.13 -13 7 C-13.83 5.93 -13.83 5.93 -14.68 4.83 C-16 3 -16 3 -16 1 C-14.42 1.28 -12.83 1.58 -11.25 1.88 C-10.37 2.04 -9.49 2.2 -8.58 2.37 C-6.13 2.97 -4.19 3.78 -2 5 C-1.34 3.35 -0.68 1.7 0 0 Z " fill="#F788CA" transform="translate(550,317)"/>
<path d="M0 0 C0.75 0.01 1.49 0.02 2.26 0.03 C4.09 0.05 5.92 0.09 7.75 0.12 C7.75 0.79 7.75 1.44 7.75 2.12 C13.19 2.62 13.19 2.62 18.75 3.12 C18.75 3.79 18.75 4.44 18.75 5.12 C5.12 5.31 5.12 5.31 -1.25 4.12 C-1.25 4.45 -1.25 4.79 -1.25 5.12 C-2.53 5.25 -3.81 5.37 -5.12 5.5 C-8.6 5.82 -8.6 5.82 -11.25 8.12 C-11.25 7.46 -11.25 6.81 -11.25 6.12 C-11.91 6.12 -12.57 6.12 -13.25 6.12 C-13 4.25 -13 4.25 -12.25 2.12 C-8.56 -0.59 -4.37 -0.1 0 0 Z " fill="#F989CC" transform="translate(428.25,311.875)"/>
<path d="M0 0 C1.32 0 2.64 0 4 0 C4.87 5.2 5.13 10.17 5.06 15.44 C5.06 16.17 5.05 16.9 5.05 17.65 C5.04 19.44 5.02 21.22 5 23 C3.68 23.33 2.36 23.66 1 24 C0.66 21.48 0.33 18.96 0 16.44 C-0.1 15.73 -0.19 15.03 -0.29 14.3 C-0.86 9.84 -1.19 5.51 -1 1 C-0.67 0.67 -0.34 0.34 0 0 Z " fill="#FA88CC" transform="translate(563,334)"/>
<path d="M0 0 C7.75 0.88 7.75 0.88 10 2 C10.36 9.39 10.36 9.39 8.81 12 C6.44 13.31 4.67 13.22 2 13 C0.22 9.94 -0.23 7.78 -0.12 4.25 C-0.11 3.45 -0.09 2.65 -0.07 1.83 C-0.05 1.22 -0.02 0.62 0 0 Z " fill="#FA431B" transform="translate(628,318)"/>
<path d="M0 0 C1.98 0.66 3.96 1.32 6 2 C5.84 2.55 5.67 3.1 5.5 3.67 C4.94 6.27 4.9 8.6 4.94 11.25 C4.95 12.59 4.95 12.59 4.96 13.95 C4.98 14.63 4.99 15.3 5 16 C6.98 15.67 8.96 15.34 11 15 C11.33 15.66 11.66 16.32 12 17 C11.34 17.99 10.68 18.98 10 20 C9.83 22.63 9.83 22.63 10 25 C5.54 24.01 5.54 24.01 1 23 C1.66 22.67 2.32 22.34 3 22 C2.59 16 2.03 10.69 0 5 C-0.12 2.12 -0.12 2.12 0 0 Z " fill="#F86C7D" transform="translate(790,343)"/>
<path d="M0 0 C0.33 0 0.66 0 1 0 C0.92 1.07 0.84 2.14 0.75 3.25 C0.67 6.97 0.67 6.97 2.69 9.38 C7.39 12.68 12.47 12.09 18 12 C18 12.66 18 13.32 18 14 C11.51 17.24 1.02 14.87 -6 14 C-5.67 13.34 -5.34 12.68 -5 12 C-4.96 9.67 -4.96 7.33 -5 5 C-4.01 5 -3.02 5 -2 5 C-1.34 3.35 -0.68 1.7 0 0 Z " fill="#F86970" transform="translate(607,282)"/>
<path d="M0 0 C0.33 0 0.66 0 1 0 C1.36 3.4 1.5 6.61 1 10 C-1.62 12.94 -1.62 12.94 -5 15 C-5.93 15.62 -6.86 16.24 -7.81 16.88 C-11.59 18.21 -14.06 17.91 -17.95 17.23 C-20.2 16.83 -20.2 16.83 -23 18 C-22.98 16.91 -22.96 15.81 -22.94 14.69 C-22.81 11.06 -22.81 11.06 -24 8 C-21.39 9.12 -20.07 9.9 -18.31 12.19 C-15.62 14.3 -14.87 14.27 -11.56 14.06 C-8.26 13.51 -6.89 12.92 -4.06 10.94 C-1.48 7.26 -0.82 4.4 0 0 Z " fill="#F66B6F" transform="translate(587,353)"/>
<path d="M0 0 C0.54 0.82 1.07 1.65 1.62 2.5 C3.67 5.16 3.67 5.16 6.04 5.33 C8.03 5.31 10.02 5.17 12 5 C12.66 6.32 13.32 7.64 14 9 C14.66 9 15.32 9 16 9 C16.66 10.98 17.32 12.96 18 15 C14.85 14.3 11.91 13.42 9 12 C8.67 11.01 8.34 10.02 8 9 C6.97 8.85 6.97 8.85 5.92 8.7 C5.02 8.55 4.12 8.4 3.19 8.25 C2.29 8.11 1.4 7.97 0.48 7.83 C-2.51 6.83 -3.38 5.64 -5 3 C-2.25 0 -2.25 0 0 0 Z " fill="#FA88CC" transform="translate(779,313)"/>
<path d="M0 0 C1.68 0.29 3.34 0.62 5 1 C5 1.33 5 1.66 5 2 C3.35 2 1.7 2 0 2 C-0.33 8.93 -0.66 15.86 -1 23 C4.05 24.15 4.05 24.15 8 22 C8 22.99 8 23.98 8 25 C4.53 27.31 3.08 27.42 -1 27 C-2.66 26 -2.66 26 -4 24 C-4.3 21.14 -4.42 18.54 -4.38 15.69 C-4.39 14.94 -4.4 14.19 -4.41 13.42 C-4.38 8.4 -3.76 3.76 0 0 Z " fill="#F86D7A" transform="translate(699,327)"/>
<path d="M0 0 C1.48 0.14 2.96 0.29 4.44 0.44 C5.67 0.56 5.67 0.56 6.93 0.68 C9 1 9 1 10 2 C10.47 8.24 10.47 8.24 8.5 11.44 C8 11.95 7.51 12.47 7 13 C4.58 12.35 4.58 12.35 2 11 C1.07 8.4 1.07 8.4 0.69 5.38 C0.55 4.37 0.41 3.37 0.26 2.34 C0.18 1.57 0.09 0.79 0 0 Z " fill="#FA431B" transform="translate(506,248)"/>
<path d="M0 0 C2.62 0.38 2.62 0.38 5 1 C5 4.33 5 7.67 5 11 C4 12 4 12 1.44 12.06 C0.63 12.04 -0.17 12.02 -1 12 C-2.11 9.77 -2.16 8.47 -2.19 6 C-2.2 5.3 -2.22 4.6 -2.23 3.88 C-2 2 -2 2 0 0 Z " fill="#F76B73" transform="translate(685,256)"/>
<path d="M0 0 C8.04 -0.63 8.04 -0.63 12.06 2 C12.7 2.66 13.34 3.32 14 4 C13.34 5.98 12.68 7.96 12 10 C9.99 8.91 7.99 7.8 6 6.69 C4.89 6.07 3.77 5.46 2.62 4.82 C1.76 4.22 0.89 3.62 0 3 C0 2.01 0 1.02 0 0 Z " fill="#FA83C3" transform="translate(781,382)"/>
<path d="M0 0 C0.98 0.29 1.95 0.57 2.96 0.87 C3.69 1.1 4.43 1.33 5.19 1.56 C3.21 2.55 3.21 2.55 1.19 3.56 C0.86 2.9 0.53 2.24 0.19 1.56 C-1.09 1.75 -2.37 1.93 -3.69 2.12 C-7.56 2.69 -7.56 2.69 -9.81 1.56 C-10 2.18 -10.18 2.8 -10.38 3.44 C-12.53 6.62 -15.19 6.76 -18.81 7.56 C-18.81 6.24 -18.81 4.92 -18.81 3.56 C-17.59 2.91 -16.36 2.27 -15.12 1.62 C-14.44 1.27 -13.76 0.91 -13.05 0.54 C-8.21 -1.57 -5.04 -1.52 0 0 Z " fill="#FA89CD" transform="translate(769.8125,245.4375)"/>
<path d="M0 0 C1.75 1.5 1.75 1.5 2.56 5 C2.75 8.5 2.75 8.5 1.75 10.5 C-1.21 9.89 -2.63 9.25 -5.25 7.5 C-6.44 3.88 -6.44 3.88 -7.25 0.5 C-4.59 -0.24 -2.72 -0.6 0 0 Z " fill="#FA431D" transform="translate(739.25,326.5)"/>
<path d="M0 0 C7.21 1.77 7.21 1.77 10 5 C10.66 5 11.32 5 12 5 C12.66 4.34 13.32 3.68 14 3 C14.12 5.38 14.12 5.38 14 8 C13.34 8.66 12.68 9.32 12 10 C7.82 10 5.57 8.93 2.62 6.12 C0.33 3.78 0 3.44 0 0 Z " fill="#F86B79" transform="translate(812,318)"/>
<path d="M0 0 C1.71 1.62 3.37 3.29 5 5 C5 5.66 5 6.32 5 7 C7.97 7.66 10.94 8.32 14 9 C14 9.33 14 9.66 14 10 C7.38 10.25 7.38 10.25 4 8 C1.46 7.67 1.46 7.67 -1 8 C-1.66 8.66 -2.32 9.32 -3 10 C-6 10.25 -6 10.25 -9 10 C-9.66 9.34 -10.32 8.68 -11 8 C-8.36 8 -5.72 8 -3 8 C-2.88 7.05 -2.75 6.1 -2.62 5.12 C-2 2 -2 2 0 0 Z " fill="#F7686A" transform="translate(540,287)"/>
<path d="M0 0 C2.31 0.33 4.62 0.66 7 1 C7 3.64 7 6.28 7 9 C4.14 10.43 2.07 9.6 -1 9 C-1.12 2.25 -1.12 2.25 0 0 Z " fill="#FA89CD" transform="translate(522,341)"/>
<path d="M0 0 C0 0.66 0 1.32 0 2 C0.57 1.84 1.14 1.69 1.73 1.53 C9.02 -0.22 15.59 0.14 23 1 C23 1.33 23 1.66 23 2 C17.11 3.27 11.25 3.18 5.25 3.19 C3.67 3.21 3.67 3.21 2.06 3.22 C0.55 3.23 0.55 3.23 -0.98 3.23 C-1.9 3.23 -2.81 3.24 -3.76 3.24 C-6 3 -6 3 -8 1 C-5.29 -0.35 -2.99 -0.07 0 0 Z " fill="#E36745" transform="translate(432,375)"/>
<path d="M0 0 C1.67 -0.04 3.33 -0.04 5 0 C6 1 6 1 6.1 2.85 C6.07 4.9 6.03 6.95 6 9 C4.68 9.33 3.36 9.66 2 10 C0.44 8.38 0.44 8.38 -1 6 C-0.69 2.75 -0.69 2.75 0 0 Z " fill="#F76B6F" transform="translate(629,259)"/>
<path d="M0 0 C0.33 0 0.66 0 1 0 C1.14 2.4 1.23 4.79 1.31 7.19 C1.35 7.86 1.4 8.53 1.44 9.23 C1.54 13.32 1.16 14.81 -1.52 17.99 C-2.75 18.98 -2.75 18.98 -4 20 C-4.98 16.94 -5.01 15.15 -4 12.11 C-3.78 11.4 -3.55 10.69 -3.31 9.96 C-3.06 9.23 -2.82 8.5 -2.56 7.75 C-2.2 6.63 -2.2 6.63 -1.83 5.49 C-1.23 3.66 -0.61 1.83 0 0 Z " fill="#F588C5" transform="translate(483,256)"/>
<path d="M0 0 C2.1 2.36 2.97 3.55 3.19 6.75 C3.13 7.49 3.06 8.24 3 9 C1.19 10.06 1.19 10.06 -1 11 C-1.99 10.67 -2.98 10.34 -4 10 C-3.52 5.78 -2.83 3.2 0 0 Z " fill="#FA431B" transform="translate(437,326)"/>
<path d="M0 0 C0.66 0 1.32 0 2 0 C6 4.47 6 4.47 6 7 C6.51 6.78 7.02 6.57 7.55 6.34 C14.11 3.83 20.02 3.68 27 4 C27 4.33 27 4.66 27 5 C26.34 5.04 25.67 5.07 24.99 5.11 C19.8 5.5 16.37 6.01 12 9 C10.34 9.37 8.68 9.71 7 10 C5.83 8.52 4.66 7.04 3.5 5.56 C2.85 4.74 2.2 3.92 1.53 3.07 C0 1 0 1 0 0 Z " fill="#F86870" transform="translate(672,362)"/>
<path d="M0 0 C1.91 0.59 1.91 0.59 4 2 C4.9 4.97 4.9 4.97 5.38 8.5 C5.55 9.67 5.72 10.83 5.9 12.03 C5.93 13.01 5.97 13.99 6 15 C5.34 15.66 4.68 16.32 4 17 C1.34 13.16 0.57 10.33 0.31 5.69 C0.25 4.62 0.18 3.55 0.11 2.45 C0.08 1.64 0.04 0.83 0 0 Z " fill="#FA89CD" transform="translate(644,353)"/>
<path d="M0 0 C0.33 0 0.66 0 1 0 C1 5.61 1 11.22 1 17 C-0.33 17 -1.67 17 -3 17 C-5.03 10.74 -2.39 5.77 0 0 Z " fill="#F889CB" transform="translate(413,321)"/>
<path d="M0 0 C3.88 0.88 3.88 0.88 5 2 C5.44 4.81 5.44 4.81 5 8 C3.03 9.38 1.03 10.71 -1 12 C-1.96 14.63 -1.96 14.63 -2 17 C-2.99 16.67 -3.98 16.34 -5 16 C-4.94 13.31 -4.94 13.31 -4 10 C-1.86 8.01 0.48 6.48 3 5 C2.22 1.93 2.22 1.93 0 0 Z " fill="#F86A73" transform="translate(493,304)"/>
<path d="M0 0 C0.66 0 1.32 0 2 0 C2 7.26 2 14.52 2 22 C1.34 22 0.68 22 0 22 C-0.85 19.09 -1.07 16.69 -0.88 13.67 C-0.83 12.87 -0.78 12.07 -0.73 11.25 C-0.68 10.43 -0.62 9.6 -0.56 8.75 C-0.51 7.91 -0.46 7.07 -0.4 6.2 C-0.28 4.14 -0.14 2.07 0 0 Z " fill="#F97598" transform="translate(672,339)"/>
<path d="M0 0 C2.73 1.43 4.82 2.82 7 5 C7 6.32 7 7.64 7 9 C3.92 7.8 0.94 6.52 -2 5 C-2 3.68 -2 2.36 -2 1 C-1.34 0.67 -0.68 0.34 0 0 Z " fill="#FA88CC" transform="translate(534,358)"/>
<path d="M0 0 C0.99 0 1.98 0 3 0 C4.18 2.35 4.17 3.88 4.19 6.5 C4.2 7.29 4.22 8.09 4.23 8.91 C4 11 4 11 2 13 C-1.12 13.12 -1.12 13.12 -4 13 C-4 12.01 -4 11.02 -4 10 C-2.35 9.67 -0.7 9.34 1 9 C0.67 6.03 0.34 3.06 0 0 Z " fill="#F86E7E" transform="translate(438,326)"/>
<path d="M0 0 C1.32 0.99 2.64 1.98 4 3 C3.62 5.44 3.62 5.44 3 8 C2.01 8.5 2.01 8.5 1 9 C-1.62 8.06 -1.62 8.06 -4 7 C-1.12 1.12 -1.12 1.12 0 0 Z " fill="#FA88CC" transform="translate(586,288)"/>
<path d="M0 0 C2.48 0.99 2.48 0.99 5 2 C4.67 3.65 4.34 5.3 4 7 C2.02 7.33 0.04 7.66 -2 8 C-2.69 5.69 -2.69 5.69 -3 3 C-1.56 1.19 -1.56 1.19 0 0 Z " fill="#FA431B" transform="translate(522,331)"/>
<path d="M0 0 C5.75 1.88 5.75 1.88 8 3 C7.67 4.32 7.34 5.64 7 7 C4.62 6.69 4.62 6.69 2 6 C0 3 0 3 0 0 Z " fill="#FA88CB" transform="translate(799,331)"/>
<path d="M0 0 C0 3 0 3 -2.31 5.56 C-6.05 8.56 -10.05 8.97 -14.71 9.54 C-15.46 9.69 -16.22 9.84 -17 10 C-17.33 10.66 -17.66 11.32 -18 12 C-18 10.68 -18 9.36 -18 8 C-17.02 7.85 -17.02 7.85 -16.02 7.7 C-9.21 6.54 -4.96 4.96 0 0 Z " fill="#F86C79" transform="translate(742,287)"/>
<path d="M0 0 C1.65 0.33 3.3 0.66 5 1 C5 2.65 5 4.3 5 6 C3.35 6.66 1.7 7.32 0 8 C-1.12 2.25 -1.12 2.25 0 0 Z " fill="#FA431B" transform="translate(685,258)"/>
<path d="M0 0 C0.25 2.81 0.25 2.81 0 6 C-1.88 7.88 -1.88 7.88 -4 9 C-4.66 9 -5.32 9 -6 9 C-6.25 6.75 -6.25 6.75 -6 4 C-2.76 0 -2.76 0 0 0 Z " fill="#FA88CB" transform="translate(716,333)"/>
<path d="M0 0 C0.81 0.1 1.62 0.2 2.45 0.31 C3.06 0.39 3.68 0.48 4.31 0.56 C4.31 1.22 4.31 1.88 4.31 2.56 C-0.34 3.4 -4.06 3.58 -8.69 2.56 C-6.81 -1.2 -3.64 -0.47 0 0 Z " fill="#FA89CD" transform="translate(630.6875,244.4375)"/>
<path d="M0 0 C2.12 0.38 2.12 0.38 4 1 C4 2.65 4 4.3 4 6 C2.35 6.33 0.7 6.66 -1 7 C-1.62 4.62 -1.62 4.62 -2 2 C-1.34 1.34 -0.68 0.68 0 0 Z " fill="#F86C7D" transform="translate(433,352)"/>
<path d="M0 0 C2 1 4 2 6 3 C5.67 4.32 5.34 5.64 5 7 C2.03 6.5 2.03 6.5 -1 6 C-1.04 4.33 -1.04 2.67 -1 1 C-0.67 0.67 -0.34 0.34 0 0 Z " fill="#FA89CD" transform="translate(661,252)"/>
<path d="M0 0 C0.33 0 0.66 0 1 0 C1.91 8.71 1.91 8.71 -0.23 11.74 C-2.67 13.78 -4.99 15 -8 16 C-7 13 -7 13 -4.56 10.81 C-1.28 7.21 -0.88 4.73 0 0 Z " fill="#F86C78" transform="translate(587,353)"/>
<path d="M0 0 C1.65 1.65 3.3 3.3 5 5 C3.62 6.5 3.62 6.5 2 8 C1.34 8 0.68 8 0 8 C-0.33 8.66 -0.66 9.32 -1 10 C-1.33 7.03 -1.66 4.06 -2 1 C-1.34 0.67 -0.68 0.34 0 0 Z " fill="#FA89CD" transform="translate(661,282)"/>
<path d="M0 0 C1.13 0.02 2.27 0.04 3.44 0.06 C2.78 0.72 2.12 1.38 1.44 2.06 C0.79 4.13 0.79 4.13 0.44 6.06 C-1.21 5.73 -2.86 5.4 -4.56 5.06 C-4.56 0.08 -4.56 0.08 0 0 Z " fill="#F66A68" transform="translate(486.5625,295.9375)"/>
<path d="M0 0 C3.44 0.81 3.44 0.81 7 2 C7.33 2.99 7.66 3.98 8 5 C7.67 5.66 7.34 6.32 7 7 C6.34 7 5.68 7 5 7 C5 6.34 5 5.68 5 5 C3.35 4.67 1.7 4.34 0 4 C-0.33 3.01 -0.66 2.02 -1 1 C-0.67 0.67 -0.34 0.34 0 0 Z " fill="#FB82C0" transform="translate(620,410)"/>
<path d="M0 0 C0.78 0.19 1.57 0.37 2.38 0.56 C4.97 1.26 4.97 1.26 7 0 C6.62 2.94 6.62 2.94 6 6 C5.01 6.5 5.01 6.5 4 7 C3.01 6.67 2.02 6.34 1 6 C0.67 4.02 0.34 2.04 0 0 Z " fill="#F84923" transform="translate(652,252)"/>
<path d="M0 0 C3.67 0.31 4.78 0.76 7.31 3.56 C8.15 4.77 8.15 4.77 9 6 C7.31 6.81 7.31 6.81 5 7 C2.25 4.69 2.25 4.69 0 2 C0 1.34 0 0.68 0 0 Z " fill="#FA431B" transform="translate(814,319)"/>
<path d="M0 0 C0.33 0 0.66 0 1 0 C1.06 0.68 1.12 1.35 1.18 2.05 C1.27 2.94 1.35 3.83 1.44 4.75 C1.52 5.63 1.6 6.51 1.68 7.42 C1.96 9.69 2.39 11.8 3 14 C4.32 14 5.64 14 7 14 C7 14.66 7 15.32 7 16 C4.62 16.19 4.62 16.19 2 16 C-0.42 12.37 -0.21 10.62 -0.12 6.31 C-0.1 4.54 -0.1 4.54 -0.07 2.74 C-0.05 1.83 -0.02 0.93 0 0 Z " fill="#F86D7D" transform="translate(627,317)"/>
<path d="M0 0 C1.98 0.66 3.96 1.32 6 2 C5.34 3.98 4.68 5.96 4 8 C2 6.81 2 6.81 0 5 C-0.25 2.31 -0.25 2.31 0 0 Z " fill="#F46747" transform="translate(790,343)"/>
<path d="M0 0 C1.32 0.66 2.64 1.32 4 2 C3.67 3.32 3.34 4.64 3 6 C1.35 5.67 -0.3 5.34 -2 5 C-1.12 1.12 -1.12 1.12 0 0 Z " fill="#F96D81" transform="translate(575,269)"/>
<path d="M0 0 C1.98 0.5 1.98 0.5 4 1 C4 2.65 4 4.3 4 6 C2.68 6.33 1.36 6.66 0 7 C-0.93 3.99 -1.04 3.13 0 0 Z " fill="#FA431B" transform="translate(629,260)"/>
<path d="M0 0 C1.48 0.28 2.96 0.58 4.44 0.88 C5.67 1.12 5.67 1.12 6.93 1.37 C7.62 1.58 8.3 1.78 9 2 C9.33 2.66 9.66 3.32 10 4 C7.36 4.33 4.72 4.66 2 5 C1.34 3.35 0.68 1.7 0 0 Z " fill="#FA431B" transform="translate(735,252)"/>
<path d="M0 0 C2.06 0.44 2.06 0.44 4 1 C3.01 2.49 3.01 2.49 2 4 C2 4.66 2 5.32 2 6 C2.99 6.33 3.98 6.66 5 7 C4.01 7.33 3.02 7.66 2 8 C1.01 7.34 0.02 6.68 -1 6 C-1.25 3.44 -1.25 3.44 -1 1 C-0.67 0.67 -0.34 0.34 0 0 Z " fill="#ED6C6F" transform="translate(781,364)"/>
<path d="M0 0 C1.32 0 2.64 0 4 0 C4.33 1.32 4.66 2.64 5 4 C3.02 4.99 3.02 4.99 1 6 C-0.06 4.12 -0.06 4.12 -1 2 C-0.67 1.34 -0.34 0.68 0 0 Z " fill="#F96D81" transform="translate(763,339)"/>
<path d="M0 0 C2.97 0.5 2.97 0.5 6 1 C6 2.32 6 3.64 6 5 C2.25 6.12 2.25 6.12 0 5 C0 3.35 0 1.7 0 0 Z " fill="#FA89CD" transform="translate(658,314)"/>
<path d="M0 0 C3.63 0 7.26 0 11 0 C11 0.33 11 0.66 11 1 C7.37 1 3.74 1 0 1 C0 0.67 0 0.34 0 0 Z " fill="#FB82C0" transform="translate(574,242)"/>
<path d="M0 0 C3.3 0 6.6 0 10 0 C10 0.33 10 0.66 10 1 C6.7 1 3.4 1 0 1 C0 0.67 0 0.34 0 0 Z " fill="#FB82C0" transform="translate(575,311)"/>
<path d="M0 0 C3.3 0 6.6 0 10 0 C10 0.33 10 0.66 10 1 C6.7 1 3.4 1 0 1 C0 0.67 0 0.34 0 0 Z " fill="#FB82C0" transform="translate(671,242)"/>
<path d="M0 0 C0 0.99 0 1.98 0 3 C-0.66 2.67 -1.32 2.34 -2 2 C-1.34 1.34 -0.68 0.68 0 0 Z " fill="#FA89CD" transform="translate(548,222)"/>
<path d="M0 0 C0 3 0 3 0 3 Z " fill="#FA7CB0" transform="translate(724,366)"/>
<path d="M0 0 C3 1 3 1 3 1 Z " fill="#F46747" transform="translate(481,410)"/>
<path d="M0 0 C3 1 3 1 3 1 Z " fill="#F46747" transform="translate(470,410)"/>
<path d="M0 0 C3 1 3 1 3 1 Z " fill="#FA431B" transform="translate(705,382)"/>
<path d="M0 0 C3 1 3 1 3 1 Z " fill="#1B5539" transform="translate(417,301)"/>
<path d="" fill="#FB82C0" transform="translate(0,0)"/>
<path d="M0 0 C3 1 3 1 3 1 Z " fill="#FB82C0" transform="translate(611,243)"/>
<path d="" fill="#F8BD26" transform="translate(0,0)"/>
<path d="M0 0 C2 1 2 1 2 1 Z " fill="#F75531" transform="translate(637,318)"/>
<path d="M0 0 C2 1 2 1 2 1 Z " fill="#FA89CD" transform="translate(834,312)"/>
<path d="M0 0 C2 1 2 1 2 1 Z " fill="#FB82C0" transform="translate(550,312)"/>
<path d="M0 0 C2 1 2 1 2 1 Z " fill="#FB82C0" transform="translate(446,312)"/>
<path d="" fill="#FA431B" transform="translate(0,0)"/>
<path d="" fill="#FA89CD" transform="translate(0,0)"/>
<path d="M0 0 C2 1 2 1 2 1 Z " fill="#FA89CD" transform="translate(625,242)"/>
<path d="" fill="#F46747" transform="translate(0,0)"/>
<path d="" fill="#FA431B" transform="translate(0,0)"/>
<path d="" fill="#F8BD26" transform="translate(0,0)"/>
<path d="" fill="#F8BD26" transform="translate(0,0)"/>
<path d="" fill="#F8BD26" transform="translate(0,0)"/>
<path d="" fill="#FA89CD" transform="translate(0,0)"/>
<path d="" fill="#F8BD26" transform="translate(0,0)"/>
<path d="" fill="#F8BD26" transform="translate(0,0)"/>
<path d="" fill="#F8BD26" transform="translate(0,0)"/>
<path d="" fill="#F46747" transform="translate(0,0)"/>
<path d="" fill="#F46747" transform="translate(0,0)"/>
<path d="" fill="#F96D81" transform="translate(0,0)"/>
<path d="" fill="#F96D81" transform="translate(0,0)"/>
<path d="" fill="#F96D81" transform="translate(0,0)"/>
<path d="" fill="#FA89CD" transform="translate(0,0)"/>
<path d="" fill="#FB82C0" transform="translate(0,0)"/>
<path d="" fill="#FB82C0" transform="translate(0,0)"/>
<path d="" fill="#FB82C0" transform="translate(0,0)"/>
<path d="" fill="#C89296" transform="translate(0,0)"/>
<path d="" fill="#FA89CD" transform="translate(0,0)"/>
<path d="" fill="#F46747" transform="translate(0,0)"/>
<path d="" fill="#F46747" transform="translate(0,0)"/>
<path d="" fill="#C89296" transform="translate(0,0)"/>
<path d="" fill="#FA431B" transform="translate(0,0)"/>
<path d="" fill="#FB82C0" transform="translate(0,0)"/>
<path d="" fill="#FA431B" transform="translate(0,0)"/>
<path d="" fill="#FA431B" transform="translate(0,0)"/>
<path d="" fill="#FA89CD" transform="translate(0,0)"/>
<path d="" fill="#FA89CD" transform="translate(0,0)"/>
<path d="" fill="#FB82C0" transform="translate(0,0)"/>
<path d="" fill="#FA89CD" transform="translate(0,0)"/>
<path d="" fill="#FA89CD" transform="translate(0,0)"/>
<path d="" fill="#FA89CD" transform="translate(0,0)"/>
<path d="" fill="#FA89CD" transform="translate(0,0)"/>
<path d="" fill="#F8BD26" transform="translate(0,0)"/>
</svg>
