<?xml version="1.0" encoding="UTF-8"?>
<!-- Generator: visioncortex VTracer 0.6.3 -->
<svg version="1.1" xmlns="http://www.w3.org/2000/svg" width="1280" height="640">
<path d="M0 0 C1.23 0.25 2.46 0.5 3.73 0.76 C8.21 1.72 12.17 2.57 16.25 4.69 C20.27 6.61 23.63 6.73 28 6 C30.05 4.93 30.05 4.93 32.06 3.58 C37.45 0.45 42.62 -0.16 48.75 -0.75 C50.77 -0.97 52.78 -1.2 54.8 -1.42 C55.68 -1.51 56.56 -1.6 57.46 -1.69 C60.01 -1.97 60.01 -1.97 62.54 -2.53 C66.63 -3.31 70.72 -3.18 74.88 -3.19 C76.18 -3.21 76.18 -3.21 77.52 -3.22 C82.75 -3.24 86.97 -2.57 92 -1 C94.7 -0.54 97.41 -0.23 100.12 0.06 C107.55 0.9 107.55 0.9 110.87 1.62 C113.04 2.23 113.04 2.23 115 1 C115.23 1.62 115.45 2.23 115.69 2.87 C117.41 5.67 118.92 6.03 122 7.06 C126.79 8.68 126.79 8.68 129 12 C130.96 12.82 130.96 12.82 133 13 C133.66 12.67 134.32 12.34 135 12 C135 12.99 135 13.98 135 15 C136.15 15.06 137.31 15.12 138.5 15.19 C143.3 15.71 147.73 17 152.31 18.44 C153.01 18.65 153.7 18.87 154.41 19.1 C157.75 20.17 160.93 21.3 164 23 C164 23.66 164 24.32 164 25 C164.74 25.23 165.49 25.45 166.25 25.69 C170.58 27.76 172.26 30.18 174.05 34.61 C176.15 41.28 176.32 46.01 173.5 52.46 C170.98 56.72 167.74 59.81 164 63 C163.45 63.52 162.89 64.03 162.32 64.57 C159.24 67.37 157 68.22 153 69 C152.73 69.62 152.46 70.24 152.19 70.88 C150.48 73.93 148.25 74.15 145.03 75.21 C142.23 76.3 140.24 78.02 138 80 C136.51 80.99 136.51 80.99 135 82 C134.39 84.56 134.12 87.08 133.82 89.69 C133 92 133 92 130.43 93.31 C129.63 93.54 128.83 93.77 128 94 C128.26 94.99 128.53 95.98 128.8 97 C131.76 108.99 131.76 108.99 129.81 113.5 C126.01 119.27 119.43 123.28 113 125.5 C109.61 126.77 109.61 126.77 108.56 130.69 C108.38 131.78 108.19 132.87 108 134 C108.58 134.23 109.15 134.45 109.75 134.69 C112 136 112 136 113.94 138.44 C116.11 141.14 118.02 142.29 121 144 C122.36 145.31 123.69 146.65 125 148 C126.33 149.15 127.66 150.3 129 151.44 C132.05 154.08 134.56 156.77 137 160 C137.68 160.66 138.36 161.32 139.06 162 C141.19 164.19 142.53 166.32 144 169 C144.52 169.86 145.03 170.71 145.57 171.6 C147.38 175.91 147.44 179.44 147.38 184.06 C147.39 184.85 147.4 185.64 147.41 186.46 C147.38 192.67 145.89 195.9 141.69 200.56 C135.49 206.18 131.03 208.31 122.75 208.06 C116.53 207.53 113.29 205.86 109.27 201.12 C108 199 108 199 107.88 195.88 C108.61 193.99 109.36 192.12 110.12 190.25 C111.59 184.8 111.49 179.75 108.75 174.71 C103.62 167.75 96.75 160.81 89.29 156.4 C87 155 87 155 85 152 C84.15 151.5 83.31 151.01 82.44 150.5 C80 149 80 149 79 146 C78.2 145.42 77.39 144.85 76.56 144.25 C72.49 140.68 72.16 136.79 71.69 131.56 C72.2 125.67 73.71 121.51 77.56 117 C80 115 80 115 82 115 C82.66 113.35 83.32 111.7 84 110 C84.99 110 85.98 110 87 110 C87.33 109.34 87.66 108.68 88 108 C89.32 108.33 90.64 108.66 92 109 C92 108.01 92 107.02 92 106 C91.42 105.73 90.85 105.46 90.25 105.19 C88 104 88 104 86.19 102.62 C83.27 100.46 80.21 98.68 77 97 C76.03 96.48 75.06 95.97 74.06 95.44 C69.92 94.85 68.21 96.33 64.93 98.74 C62.94 100.04 61.33 100.56 59 101 C59.05 101.92 59.09 102.84 59.14 103.78 C59.36 111.32 59.42 116.73 55 123 C54.31 123.17 53.63 123.34 52.92 123.51 C51.97 123.75 51.97 123.75 51 124 C50.67 124.99 50.34 125.98 50 127 C46.87 129.9 43.24 132.01 39.31 133.62 C36.09 134.8 36.09 134.8 34 136.5 C31.24 138.57 28.16 139.65 25 141 C24.34 141.66 23.68 142.32 23 143 C20.38 143.62 20.38 143.62 18 144 C18.99 148.45 18.99 148.45 20 153 C21.03 153.15 21.03 153.15 22.08 153.3 C22.98 153.45 23.88 153.6 24.81 153.75 C25.71 153.89 26.6 154.03 27.52 154.17 C30.55 155.18 31.23 156.42 33 159 C34.71 159.74 36.43 160.48 38.17 161.16 C43.25 163.49 47.15 168.05 51 172 C51.89 172.82 52.77 173.65 53.69 174.5 C58.02 179.18 58.34 183.75 58.31 189.94 C58.33 190.63 58.34 191.32 58.36 192.03 C58.37 199.27 55.46 203.75 51.06 209.25 C50.39 210.1 49.72 210.95 49.04 211.83 C47.06 213.94 45.54 214.75 43 216 C42.67 216.99 42.34 217.98 42 219 C39.79 220.97 39.79 220.97 37.06 223.06 C33.4 225.88 33.4 225.88 30 229 C29.01 229 28.02 229 27 229 C26.66 229.9 26.66 229.9 26.31 230.81 C24.64 233.6 22.79 234.38 20 236 C18.31 237.64 16.65 239.31 15 241 C13.68 242.18 12.34 243.34 11 244.5 C6.64 248.29 2.63 252 -0.69 256.75 C-3 260 -3 260 -5 261 C-6.06 263.01 -6.06 263.01 -7 265.38 C-8.18 268.2 -9.29 270.43 -11 273 C-12.51 279.64 -12.31 286.57 -10 293 C-9.03 294.03 -8.03 295.03 -7 296 C-6.03 298.91 -5.8 300.97 -5.75 304 C-5.72 304.87 -5.7 305.73 -5.67 306.62 C-6 309 -6 309 -7.25 310.68 C-11.44 313.85 -16.18 315.66 -21.31 316.62 C-28.94 315.33 -37.37 311.39 -42 305 C-42.81 301.69 -42.81 301.69 -43 299 C-43.66 299 -44.32 299 -45 299 C-47.88 292.5 -48.52 287.01 -48.5 279.94 C-48.53 278.98 -48.56 278.03 -48.59 277.04 C-48.6 270.3 -47.36 267.13 -43 262 C-41.71 259.24 -41.71 259.24 -41 257 C-41.66 256.67 -42.32 256.34 -43 256 C-41.69 254 -41.69 254 -40 252 C-39.01 252 -38.02 252 -37 252 C-36.44 250.95 -35.89 249.9 -35.31 248.81 C-32.21 243.39 -27.83 239.86 -23 236 C-22.24 235.24 -21.47 234.47 -20.69 233.69 C-18.45 231.45 -16.17 229.3 -13.81 227.19 C-13.14 226.58 -12.46 225.98 -11.77 225.36 C-10 224 -10 224 -8 224 C-7.67 223.01 -7.34 222.02 -7 221 C-7.66 220.34 -8.32 219.68 -9 219 C-8.34 218.84 -7.67 218.68 -6.99 218.52 C-1.24 217 2.03 215.61 6 211 C7.21 209.9 8.44 208.81 9.69 207.75 C10.56 207 10.56 207 11.45 206.23 C13 205 13 205 15 204 C15.47 203.18 15.95 202.35 16.44 201.5 C18 199 18 199 21 198 C22.22 190.91 22.22 190.91 21 184 C18.56 181.8 18.56 181.8 16 180 C15.67 179.34 15.34 178.68 15 178 C13.07 177.16 11.11 176.54 9.11 175.88 C7 175 7 175 5.06 173.53 C2.03 171.28 -1.32 170.3 -4.86 169.06 C-5.56 168.71 -6.27 168.36 -7 168 C-7.33 167.01 -7.66 166.02 -8 165 C-9.11 164.66 -9.11 164.66 -10.25 164.31 C-14.88 162.1 -16.77 157.46 -19 153 C-19.63 146.91 -18.32 141.2 -15 136 C-12.42 134.83 -12.42 134.83 -10 134 C-9.67 133.34 -9.34 132.68 -9 132 C-8 130 -8 130 -5.38 128.75 C-4.59 128.5 -3.81 128.25 -3 128 C-3 127.34 -3 126.68 -3 126 C-4.24 125.81 -4.24 125.81 -5.5 125.62 C-6.65 125.42 -7.81 125.21 -9 125 C-9.65 124.89 -10.3 124.78 -10.97 124.66 C-16.23 123.59 -19.35 122.01 -23 118 C-24.54 113.47 -24.16 110.8 -22.12 106.62 C-20.28 103.28 -20.28 103.28 -19 102 C-21.12 101.44 -23.25 100.91 -25.38 100.38 C-26.56 100.07 -27.74 99.77 -28.96 99.46 C-29.96 99.31 -30.97 99.16 -32 99 C-32.66 99.66 -33.32 100.32 -34 101 C-34.99 101 -35.98 101 -37 101 C-37.11 101.61 -37.22 102.23 -37.33 102.86 C-37.57 104.08 -37.57 104.08 -37.81 105.31 C-38.04 106.51 -38.04 106.51 -38.27 107.74 C-39.09 110.28 -40.01 111.27 -42 113 C-42.6 113.68 -43.2 114.36 -43.81 115.06 C-46.39 117.35 -48.7 118.1 -52 119 C-52.35 122.03 -52.35 122.03 -50.39 123.65 C-49.33 124.5 -49.33 124.5 -48.25 125.38 C-44.17 128.8 -40.72 131.83 -39 137 C-38.64 144.47 -39.81 148.82 -44.5 154.81 C-45.11 155.6 -45.72 156.39 -46.34 157.21 C-46.89 157.8 -47.44 158.39 -48 159 C-48.66 159 -49.32 159 -50 159 C-50.23 159.62 -50.45 160.24 -50.69 160.88 C-52 163 -52 163 -54.56 164 C-55.37 164.33 -56.17 164.66 -57 165 C-57.74 166.97 -57.74 166.97 -58 169 C-58.66 169.66 -59.32 170.32 -60 171 C-60.99 171 -61.98 171 -63 171 C-63.43 172.36 -63.43 172.36 -63.88 173.75 C-65 177 -65 177 -66.12 178.88 C-67.27 181.66 -66.77 183.31 -66.19 186.25 C-65.77 189.73 -65.65 191.4 -67.41 194.46 C-69.73 197.1 -71.84 199.42 -75 201 C-77.8 201.12 -80.57 201.19 -83.38 201.19 C-84.14 201.2 -84.91 201.21 -85.7 201.22 C-92.68 201.24 -92.68 201.24 -96 199 C-96 198.34 -96 197.68 -96 197 C-96.58 196.81 -97.15 196.63 -97.75 196.44 C-101.09 194.3 -102.72 191.66 -104 188 C-105.06 180.77 -104.16 175.94 -100 170 C-99.55 169.18 -99.09 168.35 -98.62 167.5 C-96.77 164.64 -94.62 162.24 -92.3 159.75 C-90.87 157.83 -90.55 156.3 -90 154 C-89.34 153.67 -88.68 153.34 -88 153 C-88 153.99 -88 154.98 -88 156 C-82.27 151.63 -76.39 146.36 -75 139 C-76.21 138.63 -76.21 138.63 -77.44 138.25 C-80 137 -80 137 -80.81 134.88 C-80.87 134.26 -80.94 133.64 -81 133 C-81.89 132.88 -81.89 132.88 -82.79 132.76 C-86.49 131.49 -87.84 128.61 -89.87 125.43 C-91.47 121.99 -91.02 119.58 -90 116 C-89.81 113.85 -89.81 113.85 -91.44 111.88 C-93.46 108.15 -93.64 105.21 -94 101 C-94.57 100.9 -95.14 100.79 -95.72 100.68 C-98.38 99.88 -100.17 98.67 -102.44 97.06 C-105.55 94.86 -108.46 93.39 -112 92 C-113.38 90.71 -114.71 89.37 -116 88 C-117.19 87.06 -118.37 86.12 -119.56 85.19 C-123.86 81.53 -125.22 77.49 -126.88 72.19 C-127.06 67.55 -126.07 63.16 -124 59 C-122.68 58.31 -121.35 57.64 -120 57 C-119.67 56.34 -119.35 55.68 -119.01 55 C-117.7 52.4 -116.55 52.04 -113.88 51 C-110.08 49.45 -106.45 47.74 -102.82 45.83 C-100.91 44.96 -99.06 44.45 -97 44 C-97.31 42.51 -97.31 42.51 -97.62 41 C-98.69 33.19 -95.19 25.45 -91 19 C-88.55 16.36 -86 14 -83 12 C-82.34 12 -81.68 12 -81 12 C-80.67 11.01 -80.34 10.02 -80 9 C-77.31 7.68 -77.31 7.68 -74 6.44 C-69.7 5.15 -69.7 5.15 -67 2 C-64.67 1.42 -64.67 1.42 -61.61 0.96 C-60.51 0.8 -59.41 0.63 -58.27 0.45 C-57.11 0.28 -55.95 0.11 -54.75 -0.06 C-52.47 -0.41 -50.2 -0.75 -47.92 -1.1 C-46.4 -1.32 -46.4 -1.32 -44.85 -1.55 C-43.02 -1.84 -41.2 -2.17 -39.4 -2.54 C-26.48 -5 -12.67 -2.77 0 0 Z " fill="#F8F8F8" transform="translate(616,164)"/>
<path d="M0 0 C2.42 1.47 2.42 1.47 5.07 1.12 C7.62 0.22 9.4 -0.84 11.57 -2.43 C31.06 -15.69 55.62 -16.25 78.47 -12.21 C87.49 -10.15 96.4 -5.81 102.51 1.26 C102.51 1.92 102.51 2.58 102.51 3.26 C103.46 3.57 104.41 3.88 105.38 4.2 C108.51 5.26 108.51 5.26 110.51 6.26 C110.51 6.92 110.51 7.58 110.51 8.26 C111.77 7.73 111.77 7.73 113.07 7.18 C117.12 6.09 119.5 6.5 123.57 7.45 C124.76 7.71 125.94 7.97 127.17 8.24 C133.64 10.22 136.85 13.22 140.4 18.85 C142.64 23.73 141.13 27.36 139.51 32.32 C136.55 36.67 132.8 39.28 128.51 42.26 C127.49 42.97 126.48 43.69 125.44 44.42 C118.14 49.41 110.63 53.23 102.46 56.61 C101.73 56.91 101 57.22 100.25 57.53 C99.6 57.79 98.95 58.06 98.28 58.33 C96.3 59.37 95.01 60.61 93.51 62.26 C93.94 63.12 93.94 63.12 94.38 64.01 C95.42 66.09 96.47 68.17 97.51 70.26 C88.91 70.86 82.44 70.73 75.51 65.26 C74.47 64.17 73.44 63.07 72.45 61.95 C69.37 59.13 69 58.88 65.13 58.88 C63.94 59.01 62.74 59.13 61.51 59.26 C61.18 60.25 60.85 61.24 60.51 62.26 C57.77 63.91 57.77 63.91 54.2 65.63 C53.56 65.94 52.93 66.25 52.28 66.57 C48.41 68.43 44.5 70.11 40.51 71.7 C33.46 74.54 27.02 78.37 20.51 82.26 C20.51 83.58 20.51 84.9 20.51 86.26 C21.15 86.55 21.79 86.84 22.45 87.13 C24.51 88.26 24.51 88.26 25.51 90.26 C26.07 92.88 26.07 92.88 25.51 96.26 C23.2 99.37 20.7 102.06 17.51 104.26 C14.74 104.48 14.74 104.48 12.51 104.26 C12.84 101.62 13.17 98.98 13.51 96.26 C12.5 96.37 12.5 96.37 11.47 96.48 C2.7 97.29 -5.99 97.33 -14.8 97.22 C-16.24 97.21 -16.24 97.21 -17.72 97.2 C-18.59 97.18 -19.46 97.17 -20.36 97.16 C-22.55 97.12 -22.55 97.12 -24.49 98.26 C-24.49 97.6 -24.49 96.94 -24.49 96.26 C-25.98 96.75 -25.98 96.75 -27.49 97.26 C-27.13 94.65 -26.86 93.55 -24.75 91.88 C-24.05 91.49 -23.34 91.1 -22.62 90.7 C-19.83 89.13 -17.66 87.61 -15.49 85.26 C-16.07 83.26 -16.07 83.26 -17.49 81.26 C-20.27 80.07 -20.27 80.07 -23.55 79.32 C-28.72 77.88 -32.97 76.11 -37.55 73.36 C-40.08 71.92 -42.71 71.09 -45.49 70.26 C-45.82 69.93 -46.15 69.6 -46.49 69.26 C-53.73 69.26 -59.28 72.44 -65.52 75.76 C-68.49 77.26 -68.49 77.26 -70.49 77.26 C-70.67 78.08 -70.86 78.9 -71.04 79.74 C-71.42 81.36 -71.42 81.36 -71.8 83.01 C-72.05 84.08 -72.29 85.14 -72.54 86.24 C-73.47 89.18 -74.49 90.95 -76.49 93.26 C-77.81 92.93 -79.13 92.6 -80.49 92.26 C-80.82 90.94 -81.15 89.62 -81.49 88.26 C-82.32 88.22 -83.16 88.18 -84.01 88.14 C-85.1 88.08 -86.19 88.01 -87.3 87.95 C-88.38 87.89 -89.46 87.83 -90.57 87.77 C-93.67 87.23 -94.62 86.7 -96.49 84.26 C-95.17 82.94 -93.85 81.62 -92.49 80.26 C-93.15 80.26 -93.81 80.26 -94.49 80.26 C-94.49 79.6 -94.49 78.94 -94.49 78.26 C-95.37 78.02 -95.37 78.02 -96.26 77.78 C-101.26 76.35 -106.15 74.72 -110.99 72.82 C-111.99 72.43 -112.99 72.04 -114.02 71.64 C-116.79 70.09 -117.3 69.1 -118.49 66.26 C-119.58 65.89 -119.58 65.89 -120.68 65.51 C-125.11 63.54 -127.92 60.33 -130.49 56.26 C-131.64 52.16 -130.82 49.01 -129.12 45.13 C-124.76 40.37 -119.83 36.77 -113.33 35.77 C-109.99 35.67 -106.71 35.73 -103.37 35.88 C-102.22 35.91 -101.07 35.94 -99.89 35.96 C-97.09 36.03 -94.29 36.13 -91.49 36.26 C-92.26 35.54 -93.02 34.81 -93.8 34.07 C-98.67 28.97 -100 25.33 -99.93 18.32 C-99.96 17.28 -99.96 17.28 -99.99 16.23 C-99.98 9.13 -96.51 5 -91.74 0.13 C-88.59 -2.94 -85.64 -5.08 -81.6 -6.8 C-79.6 -7.69 -77.75 -8.71 -75.85 -9.77 C-71.24 -12.08 -66.9 -12.66 -61.8 -13.05 C-60.9 -13.13 -60 -13.21 -59.07 -13.29 C-37.3 -14.89 -18.11 -12.92 0 0 Z " fill="#ECB6C2" transform="translate(634.4921875,181.7421875)"/>
<path d="M0 0 C6.58 -0.43 13.7 0.19 18.9 4.62 C22.58 8.8 25.09 12.17 24.81 17.88 C23.59 25.12 20.6 28.81 14.78 33.08 C-9.34 49.77 -9.34 49.77 -23.66 51.58 C-26.1 52.02 -27.82 52.86 -30 54 C-42.49 55.86 -56.23 45.92 -66.77 40.2 C-68.76 39.13 -70.77 38.09 -72.79 37.08 C-80.52 33.13 -89.55 28.47 -93 20 C-93.62 16.69 -93.62 16.69 -93 13 C-88.64 7.74 -82.67 3.5 -75.83 2.56 C-72.16 2.49 -68.49 2.44 -64.81 2.44 C-63.55 2.4 -62.28 2.36 -60.98 2.33 C-52.16 2.29 -46.29 4 -39 9 C-39 9.66 -39 10.32 -39 11 C-33.19 10.76 -30.25 9.08 -25.8 5.38 C-22.47 2.83 -19.28 2.83 -15.24 2.68 C-14.12 2.64 -13 2.6 -11.85 2.56 C-10.1 2.5 -10.1 2.5 -8.31 2.44 C-7.13 2.39 -5.95 2.35 -4.74 2.31 C-1.83 2.2 1.09 2.1 4 2 C2.68 1.34 1.36 0.68 0 0 Z " fill="#70B8E4" transform="translate(751,189)"/>
<path d="M0 0 C1.87 1.42 1.87 1.42 4.5 1.19 C8.48 0.01 11.94 -1.72 15.61 -3.66 C22.68 -7.26 30.43 -6.58 37.81 -4.19 C41.32 -2.76 42.89 -1.8 45.56 1 C47.14 4.83 47.53 7.09 46.88 11.19 C41.64 19.74 31.92 23.31 22.95 26.82 C19.68 28.27 16.87 30.05 13.88 32 C7.62 35.66 3.01 36.75 -4.12 35.19 C-15.62 31.38 -27.28 26.42 -36 17.88 C-36.95 16.97 -37.89 16.07 -38.87 15.14 C-41.55 11.64 -42.16 9.58 -42.12 5.19 C-40.76 2.75 -40.76 2.75 -38.81 0.75 C-38.18 0.07 -37.54 -0.61 -36.89 -1.31 C-35.12 -2.81 -35.12 -2.81 -33.12 -2.81 C-32.79 -3.47 -32.47 -4.13 -32.12 -4.81 C-28.63 -5.1 -25.13 -5.34 -21.62 -5.56 C-20.64 -5.64 -19.66 -5.72 -18.65 -5.81 C-11 -6.27 -5.87 -5 0 0 Z " fill="#FACF49" transform="translate(549.125,225.8125)"/>
<path d="M0 0 C0.66 0.33 1.32 0.66 2 1 C1.09 6.73 1.09 6.73 0.39 8.85 C-0.87 15.79 3.2 26.16 7 32 C11.07 34.9 15.05 35.62 20 36 C20.66 35.67 21.32 35.34 22 35 C22.99 35.5 22.99 35.5 24 36 C24.5 35.01 24.5 35.01 25 34 C26.98 34 28.96 34 31 34 C31 33.34 31 32.68 31 32 C41.31 31.52 50.78 32.22 59 39 C61.38 42.03 61.37 45.26 61.24 49.05 C60.56 54.5 56.56 57.5 52.62 60.86 C51 62 51 62 49 62 C49 62.66 49 63.32 49 64 C48.17 64.23 47.33 64.46 46.47 64.7 C40.08 66.55 34.38 68.55 28.71 72.05 C27 73 27 73 25 73 C24.82 73.82 24.64 74.64 24.45 75.48 C24.07 77.1 24.07 77.1 23.69 78.75 C23.44 79.82 23.2 80.88 22.95 81.98 C22.02 84.92 21 86.69 19 89 C17.68 88.67 16.36 88.34 15 88 C14.67 86.68 14.34 85.36 14 84 C13.17 83.96 12.34 83.93 11.48 83.89 C10.39 83.82 9.31 83.76 8.19 83.69 C7.11 83.63 6.03 83.57 4.92 83.51 C1.83 82.97 0.87 82.45 -1 80 C0.32 78.68 1.64 77.36 3 76 C2.34 76 1.68 76 1 76 C1 75.34 1 74.68 1 74 C0.13 73.76 0.13 73.76 -0.77 73.52 C-5.77 72.1 -10.65 70.46 -15.5 68.56 C-16.5 68.17 -17.5 67.78 -18.53 67.38 C-21.3 65.83 -21.81 64.84 -23 62 C-23.72 61.75 -24.44 61.5 -25.19 61.25 C-29.62 59.28 -32.43 56.07 -35 52 C-36.15 47.9 -35.33 44.75 -33.62 40.88 C-29.27 36.11 -24.34 32.51 -17.84 31.52 C-14.5 31.41 -11.21 31.47 -7.88 31.62 C-6.15 31.67 -6.15 31.67 -4.4 31.71 C-1.6 31.78 1.2 31.88 4 32 C3.24 31.28 2.47 30.56 1.69 29.81 C-3.18 24.72 -4.51 21.07 -4.44 14.06 C-4.47 13.03 -4.47 13.03 -4.5 11.97 C-4.49 6.64 -3.19 4.04 0 0 Z M-5.13 34.22 C-6.16 34.26 -7.2 34.31 -8.26 34.36 C-9.35 34.4 -10.44 34.45 -11.56 34.5 C-12.65 34.55 -13.75 34.6 -14.87 34.64 C-17.58 34.76 -20.29 34.88 -23 35 C-23 35.66 -23 36.32 -23 37 C-23.56 37.21 -24.11 37.41 -24.69 37.62 C-28.03 39.61 -29.86 41.76 -32 45 C-31.94 49.34 -31.4 51.48 -28.74 54.95 C-27.8 55.85 -26.85 56.76 -25.88 57.69 C-24.94 58.6 -24.01 59.51 -23.05 60.45 C-13.75 68.22 2.65 76.77 14.99 75.86 C20.46 74.3 25.14 71.34 29.96 68.38 C33.7 66.1 37.43 64.48 41.5 62.88 C47.58 60.39 53.93 57.13 57 51 C57.38 47.07 57.2 44.48 55.69 40.81 C50.62 35.51 43.77 33.82 36.56 33.44 C29.07 33.71 22.17 36.89 16 41 C10.58 41 7.1 38.3 2.86 35.28 C0.18 33.44 -1.87 34.08 -5.13 34.22 Z " fill="#C98D94" transform="translate(539,186)"/>
<path d="M0 0 C0 0.66 0 1.32 0 2 C0.66 1.67 1.32 1.34 2 1 C5.31 0.62 5.31 0.62 9 1 C9.83 1.85 10.65 2.69 11.5 3.56 C12.33 4.37 13.15 5.17 14 6 C17.59 5.94 20.21 5.34 23.5 3.94 C26.74 2.72 29.57 2.87 33 3 C32.01 3.66 31.02 4.32 30 5 C29.24 5.58 28.48 6.16 27.7 6.76 C26.85 7.4 26 8.03 25.12 8.69 C24.28 9.33 23.44 9.97 22.57 10.64 C20 12 20 12 17.18 11.71 C16.46 11.47 15.74 11.24 15 11 C15 10.34 15 9.68 15 9 C14.3 8.73 13.6 8.46 12.88 8.19 C10 7 10 7 7.23 5.46 C1.6 2.92 -4.23 3.49 -10.31 3.5 C-11.59 3.47 -12.87 3.44 -14.19 3.41 C-22.11 3.4 -27.58 4.25 -34 9 C-34.85 9.62 -35.69 10.24 -36.56 10.88 C-38.73 14.08 -38.52 16.22 -38 20 C-32.94 30.55 -20.8 35.43 -10.81 40.25 C-9.55 40.87 -8.3 41.48 -7.04 42.1 C-4.73 43.24 -2.42 44.36 -0.11 45.49 C2.02 46.52 4.15 47.57 6.27 48.64 C12.18 51.59 17.25 53.74 24 53 C26.35 52.03 28.68 51.03 31 50 C33.94 49.81 33.94 49.81 36 50 C34.35 51.65 32.7 53.3 31 55 C31.29 55.58 31.58 56.16 31.88 56.75 C32.92 58.83 33.96 60.92 35 63 C26.39 63.6 19.95 63.46 13 58 C11.92 56.92 10.85 55.81 9.81 54.69 C7.25 51.72 7.25 51.72 3.81 51.56 C0.93 51.93 0.93 51.93 -2 53 C-2.33 52.01 -2.66 51.02 -3 50 C-3.66 50 -4.32 50 -5 50 C-5.33 48.35 -5.66 46.7 -6 45 C-7.18 44.65 -7.18 44.65 -8.39 44.29 C-20.59 39.93 -34.69 33.65 -43.06 23.5 C-44.35 20.07 -44.45 17.64 -44 14 C-40.15 6.6 -34.36 2.38 -26.62 -0.28 C-19.34 -1.73 -6.83 -3.41 0 0 Z " fill="#C68A90" transform="translate(697,189)"/>
<path d="M0 0 C8.93 3.63 14.49 8.85 18.37 17.69 C20.13 24.15 18.35 28.86 15.35 34.59 C10.73 41.88 3.48 47.42 -3 53 C-3.62 53.54 -4.24 54.07 -4.88 54.62 C-7.63 56.99 -10.39 59.34 -13.18 61.66 C-21.02 68.18 -28.53 75.06 -36 82 C-36.7 82.63 -37.39 83.26 -38.11 83.91 C-45.58 90.92 -50.63 99.79 -52 110 C-52.12 117.44 -51.3 124.21 -48.63 131.16 C-47.83 133.49 -47.76 135.56 -48 138 C-48.66 138 -49.32 138 -50 138 C-50.63 136.6 -51.25 135.21 -51.88 133.81 C-52.22 133.04 -52.57 132.26 -52.93 131.46 C-53.46 130.24 -53.46 130.24 -54 129 C-54.36 128.24 -54.72 127.49 -55.09 126.71 C-58.71 115.88 -56.31 104.33 -51.63 94.3 C-47.96 87.15 -42.34 79.67 -35 76 C-34.24 75.05 -33.47 74.1 -32.69 73.12 C-25.79 64.92 -16.57 58.41 -8.21 51.77 C5.42 40.88 5.42 40.88 14 26 C14.4 21.05 13.98 19.25 10.91 15.34 C9.29 13.56 7.63 11.81 5.93 10.1 C4 8 4 8 4 6 C3.2 5.73 2.39 5.46 1.56 5.19 C0.29 4.6 0.29 4.6 -1 4 C-1.5 2.51 -1.5 2.51 -2 1 C-1.34 0.67 -0.68 0.34 0 0 Z " fill="#C88C93" transform="translate(640,330)"/>
<path d="M0 0 C0.66 0.33 1.32 0.66 2 1 C1.09 6.73 1.09 6.73 0.39 8.85 C-0.87 15.79 3.2 26.16 7 32 C11.07 34.9 15.05 35.62 20 36 C20.66 35.67 21.32 35.34 22 35 C22.99 35.5 22.99 35.5 24 36 C24.5 35.01 24.5 35.01 25 34 C26.98 34 28.96 34 31 34 C28.12 35.92 25.24 37.57 22.19 39.19 C21.17 39.74 20.15 40.29 19.11 40.86 C15.3 42.26 13.85 42.27 10 41 C8.6 40.01 7.22 38.99 5.85 37.96 C0.43 34.17 -4.13 34.25 -10.56 34.69 C-11.55 34.7 -12.54 34.72 -13.56 34.74 C-20.13 35.07 -23.76 36.62 -28.51 41.18 C-30.24 43.12 -30.24 43.12 -31.44 46.44 C-30.78 51.79 -27.7 54.29 -24 58 C-23.01 59.15 -22.03 60.32 -21.06 61.5 C-20.38 62.32 -19.7 63.15 -19 64 C-26.16 62 -30.85 58.17 -35 52 C-35.97 47.81 -35.34 44.78 -33.62 40.88 C-29.27 36.11 -24.34 32.51 -17.84 31.52 C-14.5 31.41 -11.21 31.47 -7.88 31.62 C-6.15 31.67 -6.15 31.67 -4.4 31.71 C-1.6 31.78 1.2 31.88 4 32 C3.24 31.28 2.47 30.56 1.69 29.81 C-3.18 24.72 -4.51 21.07 -4.44 14.06 C-4.47 13.03 -4.47 13.03 -4.5 11.97 C-4.49 6.64 -3.19 4.04 0 0 Z " fill="#C68A90" transform="translate(539,186)"/>
<path d="M0 0 C10.31 -0.48 19.78 0.22 28 7 C30.38 10.03 30.37 13.26 30.24 17.05 C29.56 22.5 25.56 25.5 21.62 28.86 C20 30 20 30 18 30 C18 30.66 18 31.32 18 32 C17.14 32.24 16.29 32.48 15.4 32.73 C7.84 34.88 7.84 34.88 0.81 38.31 C-0.12 38.87 -1.04 39.43 -2 40 C-2.66 39.67 -3.32 39.34 -4 39 C-0.13 34.59 3.46 32.66 8.88 30.56 C18.46 26.71 18.46 26.71 25 19 C25.38 13.93 25.05 11.09 22 7 C15.28 3.14 7.62 2.29 0 2 C0 1.34 0 0.68 0 0 Z " fill="#C68A90" transform="translate(570,218)"/>
<path d="M0 0 C3.57 0.59 5.5 1.99 8.19 4.38 C8.88 4.98 9.58 5.59 10.29 6.21 C12 8 12 8 13 11 C12.67 11.66 12.34 12.32 12 13 C12.66 13.45 13.32 13.91 14 14.38 C14.66 14.91 15.32 15.45 16 16 C16 16.66 16 17.32 16 18 C16.56 18.1 17.13 18.2 17.71 18.3 C22.18 19.66 25.78 22.68 29 26 C30.03 28.59 30.06 30.17 30 33 C27.25 32.94 27.25 32.94 24 32 C23.1 30.34 22.22 28.68 21.4 26.98 C18.91 23.47 15.14 21.69 11.46 19.58 C9 18 9 18 7 15 C6.01 14.67 5.02 14.34 4 14 C1.97 10.8 0.9 8.94 1.31 5.12 C1.54 4.42 1.77 3.72 2 3 C1.34 2.67 0.68 2.34 0 2 C0 1.34 0 0.68 0 0 Z " fill="#EDB6C3" transform="translate(701,240)"/>
<path d="M0 0 C-0.33 0.99 -0.66 1.98 -1 3 C-2.93 3.47 -4.86 3.93 -6.8 4.34 C-11.16 5.64 -14.73 8.29 -17.44 11.94 C-18.71 16.62 -18.36 20.76 -16 25 C-14.18 26.2 -14.18 26.2 -12 27 C-9.25 28.38 -9.25 28.38 -7 30 C-7 31.32 -7 32.64 -7 34 C-10.79 33.74 -12.64 33.31 -15.56 30.81 C-16.37 29.88 -17.17 28.96 -18 28 C-18.93 27.09 -19.86 26.19 -20.81 25.25 C-23.28 21.58 -23.77 19.63 -23.46 15.3 C-22.33 9.68 -19.98 6.32 -15.21 3.13 C-9.67 0.15 -6.29 -1.57 0 0 Z " fill="#EDB6C3" transform="translate(726,278)"/>
<path d="M0 0 C7.56 0.76 7.56 0.76 9.84 2.02 C16.68 5.12 26.1 3.35 33 1 C33.66 1.33 34.32 1.66 35 2 C33.63 4.95 32.01 7.44 30 10 C29.03 9.83 28.06 9.67 27.06 9.5 C20.94 8.64 15.56 8.09 10 11 C7.25 11.12 7.25 11.12 5 11 C4.81 10.43 4.61 9.87 4.41 9.29 C4.15 8.55 3.89 7.82 3.62 7.06 C3.24 5.97 3.24 5.97 2.85 4.85 C2.15 2.81 2.15 2.81 0 2 C0 1.34 0 0.68 0 0 Z " fill="#C68A90" transform="translate(615,260)"/>
<path d="M0 0 C1.32 0 2.64 0 4 0 C4.27 0.62 4.54 1.24 4.81 1.88 C5.96 4.3 5.96 4.3 9 6 C9.29 6.64 9.58 7.28 9.88 7.94 C10.87 10.21 10.87 10.21 13.38 11.31 C16.87 13.56 18.19 16.4 20 20 C20.46 20.79 20.92 21.58 21.39 22.4 C24.63 28.2 25.73 31.52 24 38 C22.44 41.5 22.44 41.5 21 44 C18.57 40.57 19.22 38.07 19.82 34.07 C20.38 27.74 16.92 23.02 13.44 18.11 C12 16 12 16 11 13.79 C10.07 11.65 10.07 11.65 7 11 C7 10.34 7 9.68 7 9 C3.73 7.12 0.72 6.51 -3 6 C-2.43 3.13 -2.14 2.14 0 0 Z " fill="#C88C93" transform="translate(723,314)"/>
<path d="M0 0 C1.49 1.49 1.49 1.49 3 3 C-0.36 11.58 -6.68 17.5 -13 24 C-13.77 24.83 -13.77 24.83 -14.55 25.68 C-16 27 -16 27 -18 27 C-18.26 27.54 -18.52 28.08 -18.78 28.64 C-20.22 31.43 -21.83 34.08 -23.5 36.75 C-24.11 37.73 -24.72 38.72 -25.34 39.73 C-26.16 40.86 -26.16 40.86 -27 42 C-27.66 42 -28.32 42 -29 42 C-29.33 42.66 -29.66 43.32 -30 44 C-30.74 41.83 -30.74 41.83 -31 39 C-29.42 36.36 -29.42 36.36 -27.19 33.75 C-26.1 32.44 -26.1 32.44 -24.98 31.11 C-23 29 -23 29 -21 28 C-20.73 27.24 -20.45 26.48 -20.17 25.7 C-18.75 22.42 -17.06 21.02 -14.31 18.75 C-8.1 13.35 -2.85 7.83 0 0 Z " fill="#EDB6C3" transform="translate(557,304)"/>
<path d="M0 0 C-0.06 1.86 -0.06 1.86 -1 4 C-3.39 4.96 -5.59 5.66 -8.06 6.31 C-16.07 8.7 -21.64 11.83 -25.88 19.31 C-26.25 20.2 -26.62 21.09 -27 22 C-27.66 22.66 -28.32 23.32 -29 24 C-29.99 23.34 -30.98 22.68 -32 22 C-27.69 10.1 -18.86 4.29 -8 -1 C-4.38 -2.21 -3.36 -1.54 0 0 Z " fill="#EDB6C3" transform="translate(642,291)"/>
<path d="M0 0 C0 1.32 0 2.64 0 4 C1.15 3.8 1.15 3.8 2.32 3.6 C8.57 2.57 14.81 1.74 21.12 1.25 C22.37 1.15 23.61 1.05 24.88 0.95 C28 1 28 1 31 3 C30 4.44 30 4.44 28 6 C21.37 7.17 14.84 7.08 8.12 7 C6.07 6.97 4.01 6.95 1.95 6.94 C1.04 6.93 0.14 6.91 -0.79 6.9 C-3.04 6.85 -3.04 6.85 -5 8 C-5 7.34 -5 6.68 -5 6 C-5.99 6.33 -6.98 6.66 -8 7 C-7.62 4.25 -7.19 3.18 -5.12 1.25 C-3 0 -3 0 0 0 Z " fill="#C68A90" transform="translate(615,272)"/>
<path d="M0 0 C0.99 0 1.98 0 3 0 C2.1 6.66 2.1 6.66 1.45 8.82 C-0.12 16.44 1.62 25 4.37 32.16 C5.17 34.49 5.24 36.56 5 39 C4.34 39 3.68 39 3 39 C2.37 37.6 1.75 36.21 1.12 34.81 C0.78 34.04 0.43 33.26 0.07 32.46 C-0.28 31.65 -0.64 30.84 -1 30 C-1.37 29.26 -1.73 28.52 -2.11 27.75 C-3.37 23.86 -3.33 20.19 -3.31 16.12 C-3.33 15.35 -3.34 14.57 -3.36 13.77 C-3.37 8.44 -2.41 4.76 0 0 Z " fill="#C68A90" transform="translate(587,429)"/>
<path d="M0 0 C9.04 3.68 14.54 8.96 18.47 17.89 C19.08 20.3 18.8 21.67 18 24 C16.68 24 15.36 24 14 24 C13.81 23.01 13.63 22.02 13.44 21 C12.24 16.66 9.63 13.99 6.56 10.8 C5 9 5 9 4 6 C2.76 5.5 2.76 5.5 1.5 5 C0.26 4.5 0.26 4.5 -1 4 C-1.33 3.01 -1.66 2.02 -2 1 C-1.34 0.67 -0.68 0.34 0 0 Z " fill="#EBB5C1" transform="translate(640,330)"/>
<path d="M0 0 C5.45 1.04 7.79 3.45 10.79 7.86 C13 11.77 13.53 14.81 12.47 19.19 C10.1 25.66 5.86 29.53 0 33 C-2.28 33.69 -2.28 33.69 -4 34 C-1.17 30.62 1.66 27.34 4.81 24.25 C8.07 20.9 8.4 17.74 8.36 13.13 C7.61 8.66 4.48 5.45 1.33 2.36 C0 1 0 1 0 0 Z " fill="#C68A90" transform="translate(763,191)"/>
<path d="M0 0 C4.13 0.61 7.33 2.04 11 4 C11 4.66 11 5.32 11 6 C12.98 5.34 14.96 4.68 17 4 C17 4.66 17 5.32 17 6 C18.98 6 20.96 6 23 6 C21 8 21 8 18.48 8.23 C17.44 8.22 16.4 8.21 15.34 8.2 C14.21 8.19 13.09 8.18 11.94 8.18 C10.76 8.16 9.59 8.14 8.38 8.12 C6.6 8.11 6.6 8.11 4.79 8.1 C1.86 8.07 -1.07 8.04 -4 8 C-2.68 5.36 -1.36 2.72 0 0 Z " fill="#C68A90" transform="translate(734,184)"/>
<path d="M0 0 C0.66 0.33 1.32 0.66 2 1 C1.48 1.5 0.97 1.99 0.43 2.5 C-0.55 3.52 -0.55 3.52 -1.56 4.56 C-2.22 5.22 -2.89 5.89 -3.57 6.57 C-5.28 9.02 -5.28 9.02 -5.06 12.41 C-3.79 16.7 -1.67 19.02 1.56 21.94 C2.08 22.43 2.6 22.92 3.14 23.43 C4.41 24.64 5.7 25.82 7 27 C6.34 27.33 5.68 27.66 5 28 C-5.6 21.49 -5.6 21.49 -9 16 C-9.73 12.32 -9.58 9.16 -7.88 5.75 C-5.45 3.49 -2.81 1.75 0 0 Z " fill="#C68A8F" transform="translate(513,222)"/>
<path d="M0 0 C0.33 0.99 0.66 1.98 1 3 C0.04 3.03 0.04 3.03 -0.94 3.06 C-3.86 3.16 -6.77 3.27 -9.69 3.38 C-10.69 3.41 -11.7 3.44 -12.74 3.47 C-14.2 3.53 -14.2 3.53 -15.7 3.59 C-16.59 3.62 -17.49 3.65 -18.41 3.68 C-23.22 4.27 -26.95 6.46 -31 9 C-29.58 4.73 -27.32 3.49 -23.52 1.23 C-16.06 -1.38 -7.8 -0.44 0 0 Z " fill="#F0BD99" transform="translate(538,218)"/>
<path d="M0 0 C1.27 0.62 2.54 1.25 3.81 1.88 C4.52 2.22 5.23 2.57 5.96 2.93 C8 4 8 4 11 6 C13.63 6.17 13.63 6.17 16 6 C16.62 8.38 16.62 8.38 17 11 C16.34 11.66 15.68 12.32 15 13 C12.38 12.62 12.38 12.62 10 12 C9.67 11.01 9.34 10.02 9 9 C7.23 7.99 7.23 7.99 5 7 C2.99 5.68 0.99 4.35 -1 3 C-0.67 2.01 -0.34 1.02 0 0 Z " fill="#C68A90" transform="translate(626,177)"/>
<path d="M0 0 C4.41 1.35 6.43 3.19 9 7 C9 7.66 9 8.32 9 9 C9.8 9.23 10.61 9.45 11.44 9.69 C12.71 10.34 12.71 10.34 14 11 C14.81 13.62 14.81 13.62 15 16 C12 16 12 16 9.62 13.81 C8.76 12.88 7.89 11.96 7 11 C6.13 10.18 5.27 9.35 4.38 8.5 C2.12 6.13 0.56 3.87 -1 1 C-0.67 0.67 -0.34 0.34 0 0 Z " fill="#EDB6C3" transform="translate(541,283)"/>
<path d="M0 0 C0.99 0 1.98 0 3 0 C1.62 3.85 -0.17 6.88 -2.56 10.19 C-4.97 13.48 -4.97 13.48 -7 17 C-7.66 17 -8.32 17 -9 17 C-9.33 17.66 -9.66 18.32 -10 19 C-10.74 16.83 -10.74 16.83 -11 14 C-9.42 11.36 -9.42 11.36 -7.19 8.75 C-6.46 7.88 -5.73 7.01 -4.98 6.11 C-3 4 -3 4 -1 3 C-0.67 2.01 -0.34 1.02 0 0 Z " fill="#C68A90" transform="translate(537,329)"/>
<path d="M0 0 C1.25 2.95 1.01 3.97 -0.21 7.02 C-0.78 8.08 -1.35 9.15 -1.94 10.25 C-2.5 11.33 -3.07 12.41 -3.65 13.52 C-4.1 14.34 -4.54 15.16 -5 16 C-5.99 16 -6.98 16 -8 16 C-8.33 15.34 -8.66 14.68 -9 14 C-7.79 11.18 -7.79 11.18 -6.06 7.88 C-5.5 6.78 -4.93 5.68 -4.35 4.55 C-3.9 3.71 -3.46 2.87 -3 2 C-2.01 2 -1.02 2 0 2 C0 1.34 0 0.68 0 0 Z " fill="#C68A90" transform="translate(658,352)"/>
<path d="M0 0 C1.32 0 2.64 0 4 0 C4.27 0.62 4.54 1.24 4.81 1.88 C5.96 4.3 5.96 4.3 9 6 C8.67 6.66 8.34 7.32 8 8 C7.3 7.86 6.6 7.71 5.88 7.56 C2.92 6.99 -0.03 6.48 -3 6 C-2.43 3.13 -2.14 2.14 0 0 Z " fill="#ECB5C1" transform="translate(723,314)"/>
<path d="M0 0 C0.66 0.33 1.32 0.66 2 1 C0.62 3 0.62 3 -1 5 C-1.66 5 -2.32 5 -3 5 C-3.66 8.3 -4.32 11.6 -5 15 C-7.83 12.17 -8.38 11.62 -9 8 C-8.34 8 -7.68 8 -7 8 C-7.33 7.01 -7.66 6.02 -8 5 C-6.71 4.14 -5.42 3.28 -4.12 2.44 C-3.05 1.72 -3.05 1.72 -1.95 1 C-1.3 0.67 -0.66 0.34 0 0 Z " fill="#E0AAB4" transform="translate(567,254)"/>
<path d="M0 0 C0.99 0.99 1.98 1.98 3 3 C0.75 8.17 -1.17 11.78 -6 15 C-6.33 14.01 -6.66 13.02 -7 12 C-6.07 10.35 -6.07 10.35 -4.69 8.62 C-2.57 5.86 -1.11 3.34 0 0 Z " fill="#CA9298" transform="translate(557,304)"/>
<path d="M0 0 C2.36 0.17 3.7 0.7 5.38 2.37 C9 6.68 9 6.68 9 8 C6.03 8 3.06 8 0 8 C0 5.36 0 2.72 0 0 Z " fill="#EDB6C3" transform="translate(526,345)"/>
<path d="M0 0 C0.99 0 1.98 0 3 0 C3.33 2.31 3.66 4.62 4 7 C6.48 7.99 6.48 7.99 9 9 C9 9.99 9 10.98 9 12 C4.98 11.09 3.27 10.32 0.56 7.12 C-1 4 -1 4 -0.75 1.62 C-0.5 1.09 -0.25 0.55 0 0 Z " fill="#EDB6C3" transform="translate(615,315)"/>
<path d="M0 0 C1.32 0.66 2.64 1.32 4 2 C2.68 5.3 1.36 8.6 0 12 C-2.62 6.77 -1.62 5.4 0 0 Z " fill="#C68A90" transform="translate(744,346)"/>
<path d="M0 0 C0.99 0.33 1.98 0.66 3 1 C1.55 4.83 -0.43 6.12 -4 8 C-4.66 7.01 -5.32 6.02 -6 5 C-1.61 1 -1.61 1 0 0 Z " fill="#EDB6C3" transform="translate(648,367)"/>
<path d="M0 0 C4.64 1.46 4.64 1.46 6.31 3.94 C7 6 7 6 7 9 C5.35 8.67 3.7 8.34 2 8 C1.34 5.36 0.68 2.72 0 0 Z " fill="#EBB4C1" transform="translate(741,338)"/>
<path d="M0 0 C-0.81 2.44 -0.81 2.44 -2 5 C-2.99 5.33 -3.98 5.66 -5 6 C-6.5 4.62 -6.5 4.62 -8 3 C-8 2.34 -8 1.68 -8 1 C-5.29 -0.35 -2.99 -0.07 0 0 Z " fill="#EDB6C3" transform="translate(561,269)"/>
<path d="M0 0 C2.31 0 4.62 0 7 0 C7 0.33 7 0.66 7 1 C4.69 1 2.38 1 0 1 C0 0.67 0 0.34 0 0 Z " fill="#F9F9F9" transform="translate(685,159)"/>
<path d="M0 0 C2.31 0 4.62 0 7 0 C7 0.33 7 0.66 7 1 C4.69 1 2.38 1 0 1 C0 0.67 0 0.34 0 0 Z " fill="#F9F9F9" transform="translate(584,159)"/>
<path d="M0 0 C0 3 0 3 0 3 Z " fill="#F9F9F9" transform="translate(534,170)"/>
<path d="M0 0 C0.99 0.5 0.99 0.5 2 1 C1.01 1.5 1.01 1.5 0 2 C0 1.34 0 0.68 0 0 Z " fill="#F9F9F9" transform="translate(617,375)"/>
<path d="M0 0 C0.99 0.5 0.99 0.5 2 1 C1.01 1.5 1.01 1.5 0 2 C0 1.34 0 0.68 0 0 Z " fill="#F9F9F9" transform="translate(535,310)"/>
<path d="M0 0 C2 1 2 1 2 1 Z " fill="#F9F9F9" transform="translate(613,379)"/>
<path d="M0 0 C2 1 2 1 2 1 Z " fill="#F9F9F9" transform="translate(625,367)"/>
<path d="" fill="#F9F9F9" transform="translate(0,0)"/>
<path d="" fill="#F9F9F9" transform="translate(0,0)"/>
<path d="" fill="#F9F9F9" transform="translate(0,0)"/>
<path d="" fill="#F9F9F9" transform="translate(0,0)"/>
<path d="" fill="#F9F9F9" transform="translate(0,0)"/>
<path d="" fill="#F9F9F9" transform="translate(0,0)"/>
<path d="" fill="#F9F9F9" transform="translate(0,0)"/>
<path d="" fill="#F9F9F9" transform="translate(0,0)"/>
<path d="" fill="#F9F9F9" transform="translate(0,0)"/>
<path d="" fill="#F9F9F9" transform="translate(0,0)"/>
<path d="" fill="#F9F9F9" transform="translate(0,0)"/>
<path d="" fill="#F9F9F9" transform="translate(0,0)"/>
<path d="" fill="#F9F9F9" transform="translate(0,0)"/>
<path d="" fill="#F9F9F9" transform="translate(0,0)"/>
<path d="" fill="#F9F9F9" transform="translate(0,0)"/>
<path d="" fill="#F9F9F9" transform="translate(0,0)"/>
<path d="" fill="#F9F9F9" transform="translate(0,0)"/>
<path d="" fill="#F9F9F9" transform="translate(0,0)"/>
<path d="" fill="#F9F9F9" transform="translate(0,0)"/>
<path d="" fill="#F9F9F9" transform="translate(0,0)"/>
<path d="" fill="#F9F9F9" transform="translate(0,0)"/>
<path d="" fill="#456F4C" transform="translate(0,0)"/>
<path d="" fill="#0C2D12" transform="translate(0,0)"/>
<path d="" fill="#F9F9F9" transform="translate(0,0)"/>
<path d="" fill="#F9F9F9" transform="translate(0,0)"/>
<path d="" fill="#F9F9F9" transform="translate(0,0)"/>
<path d="" fill="#F9F9F9" transform="translate(0,0)"/>
<path d="" fill="#F9F9F9" transform="translate(0,0)"/>
<path d="" fill="#F9F9F9" transform="translate(0,0)"/>
<path d="" fill="#F9F9F9" transform="translate(0,0)"/>
<path d="" fill="#F9F9F9" transform="translate(0,0)"/>
<path d="" fill="#F9F9F9" transform="translate(0,0)"/>
<path d="" fill="#F9F9F9" transform="translate(0,0)"/>
<path d="" fill="#F9F9F9" transform="translate(0,0)"/>
</svg>
