<?xml version="1.0" encoding="UTF-8"?>
<!-- Generator: visioncortex VTracer 0.6.3 -->
<svg version="1.1" xmlns="http://www.w3.org/2000/svg" width="1280" height="640">
<path d="M0 0 C2.37 0.2 4.75 0.37 7.12 0.55 C15.74 1.23 24.01 2.39 32.47 4.2 C37.01 5.13 41.52 5.63 46.12 6.01 C47.01 6.09 47.89 6.17 48.8 6.25 C53.05 6.63 57.29 6.93 61.55 7.09 C62.7 7.13 62.7 7.13 63.86 7.18 C65.89 7.25 67.92 7.3 69.95 7.34 C74.32 7.65 78.46 8.75 82.7 9.82 C91.86 12.11 100.91 12.9 110.31 13.51 C128.84 14.77 128.84 14.77 136.81 16.88 C137.9 17.13 138.98 17.38 140.1 17.63 C145.38 18.89 150.11 20.14 154.81 22.88 C154.81 23.54 154.81 24.2 154.81 24.88 C155.71 25.14 155.71 25.14 156.64 25.4 C164.02 27.64 166.86 30.3 170.81 36.88 C171.51 37.56 172.21 38.24 172.93 38.95 C174.81 40.88 174.81 40.88 175.31 43.01 C175.47 43.63 175.64 44.25 175.81 44.88 C177.13 45.57 178.47 46.23 179.81 46.88 C180.49 48.21 181.16 49.54 181.81 50.88 C182.54 51.61 183.28 52.34 184.03 53.09 C187.07 56.14 189.68 59.36 192.31 62.76 C192.77 63.34 193.23 63.93 193.7 64.54 C196.45 68.06 199.08 71.63 201.62 75.31 C202.89 76.99 204.3 78.41 205.81 79.88 C210.83 85.85 215.46 92.07 219.95 98.44 C221.76 100.93 221.76 100.93 224.01 103.07 C225.81 104.88 225.81 104.88 226.31 107.01 C226.47 107.63 226.64 108.25 226.81 108.88 C228.13 109.57 229.47 110.23 230.81 110.88 C233.16 113.94 233.23 117.26 233.12 120.99 C232.81 122.88 232.81 122.88 231.25 125.13 C224.39 130.06 219.28 131.6 210.93 132.45 C204.57 133.12 198.83 134.04 192.8 136.23 C190.16 137.1 187.64 137.36 184.87 137.51 C181.2 137.66 181.2 137.66 177.81 138.88 C175.98 139.2 174.15 139.49 172.31 139.76 C168.24 140.4 164.42 141.23 160.5 142.51 C156.39 143.83 153.1 144.07 148.81 143.88 C148.48 144.21 148.15 144.54 147.81 144.88 C144.32 145.54 140.83 146.13 137.33 146.69 C136.59 146.81 135.84 146.94 135.08 147.07 C134.4 147.18 133.73 147.28 133.03 147.4 C130.67 147.87 130.67 147.87 127.91 148.87 C124.89 149.86 122.07 150.42 118.93 150.88 C117.84 151.05 116.76 151.21 115.64 151.38 C113.37 151.72 111.11 152.05 108.84 152.38 C107.76 152.55 106.67 152.71 105.55 152.88 C104.08 153.1 104.08 153.1 102.58 153.32 C99.78 153.8 99.78 153.8 97.17 154.95 C94.01 156.2 91.19 155.88 87.81 155.88 C87.08 156.19 86.34 156.5 85.59 156.82 C81.44 158.4 77.16 158.62 72.78 159.01 C69.49 159.35 66.96 159.8 64.01 161.36 C59.33 163.59 54.62 163.85 49.5 164.38 C41.31 165.2 41.31 165.2 33.41 167.35 C27.61 169.46 21.59 170.11 15.5 170.95 C13.19 171.26 10.88 171.59 8.57 171.92 C7.56 172.06 6.55 172.19 5.51 172.34 C2.92 172.86 1.14 173.69 -1.19 174.88 C-3.38 175.34 -3.38 175.34 -5.75 175.63 C-7.06 175.8 -7.06 175.8 -8.4 175.97 C-9.32 176.09 -10.24 176.2 -11.19 176.32 C-19.03 177.36 -26.56 178.76 -34.19 180.88 C-45.6 183.81 -61.09 186.79 -72.19 181.88 C-75.79 178.95 -78.71 176.33 -80.19 171.88 C-82.66 169.28 -85.22 166.85 -87.88 164.45 C-90.39 161.66 -91.27 159.48 -92.19 155.88 C-92.95 155.86 -93.72 155.84 -94.5 155.82 C-95.39 155.51 -96.28 155.2 -97.19 154.88 C-98.69 151.7 -98.69 151.7 -99.37 149.79 C-100.27 147.7 -101.36 146.33 -102.88 144.63 C-105.19 141.88 -105.19 141.88 -105.19 138.88 C-106.09 138.54 -106.09 138.54 -107 138.2 C-109.79 136.52 -110.57 134.68 -112.19 131.88 C-113.84 130.2 -115.5 128.53 -117.19 126.88 C-121.19 122.23 -121.19 122.23 -121.19 119.88 C-122.68 119.39 -122.68 119.39 -124.19 118.88 C-125.25 117.25 -126.23 115.58 -127.19 113.88 C-128.01 112.66 -128.84 111.46 -129.69 110.26 C-130.29 109.4 -130.29 109.4 -130.91 108.53 C-132.17 106.83 -132.17 106.83 -133.79 105.33 C-135.19 103.88 -135.19 103.88 -136.13 101.32 C-136.94 98.73 -136.94 98.73 -139.19 97.95 C-141.19 96.88 -141.19 96.88 -142.44 94.45 C-143.71 88.42 -144.02 82.56 -142.19 76.63 C-139.37 72.76 -135.91 69.87 -132.19 66.88 C-132.85 66.22 -133.51 65.56 -134.19 64.88 C-132.87 64.88 -131.55 64.88 -130.19 64.88 C-129.7 63.89 -129.7 63.89 -129.19 62.88 C-127.52 62.88 -125.86 62.88 -124.19 62.88 C-123.94 62.26 -123.7 61.65 -123.44 61.01 C-122.19 58.88 -122.19 58.88 -120.38 58.01 C-118.05 56.81 -117.17 55.78 -115.57 53.76 C-114.78 52.81 -114 51.86 -113.19 50.88 C-112.53 50.88 -111.87 50.88 -111.19 50.88 C-110.94 50.1 -110.7 49.32 -110.44 48.51 C-108.98 45.44 -108.14 45.27 -105.19 43.88 C-104.88 43.22 -104.57 42.56 -104.25 41.88 C-103.19 39.88 -103.19 39.88 -100.75 38.63 C-98.19 37.88 -98.19 37.88 -95.19 37.88 C-95.19 37.22 -95.19 36.56 -95.19 35.88 C-91.92 32.61 -88.68 32.31 -84.19 31.88 C-83.53 30.23 -82.87 28.58 -82.19 26.88 C-81.2 26.88 -80.21 26.88 -79.19 26.88 C-78.86 26.22 -78.53 25.56 -78.19 24.88 C-76.88 23.85 -75.55 22.85 -74.19 21.88 C-74.69 20.89 -74.69 20.89 -75.19 19.88 C-74.32 19.82 -73.46 19.76 -72.57 19.7 C-68.38 18.69 -66.38 16.72 -63.19 13.88 C-62.51 13.55 -61.83 13.22 -61.13 12.88 C-58.91 11.87 -58.91 11.87 -56.69 9.32 C-54.33 7.02 -53.38 6.24 -50.19 5.88 C-50.19 5.22 -50.19 4.56 -50.19 3.88 C-49.53 3.55 -48.87 3.22 -48.19 2.88 C-47.53 1.89 -46.87 0.9 -46.19 -0.12 C-45.7 0.38 -45.7 0.38 -45.19 0.88 C-43.33 0.62 -41.48 0.29 -39.63 -0.05 C-26.49 -2.18 -13.19 -1.1 0 0 Z " fill="#FBD664" transform="translate(595.191162109375,228.116943359375)"/>
<path d="M0 0 C2.37 0.2 4.75 0.37 7.12 0.55 C15.74 1.23 24.01 2.39 32.47 4.2 C37.01 5.13 41.52 5.63 46.12 6.01 C47.01 6.09 47.89 6.17 48.8 6.25 C53.05 6.63 57.29 6.93 61.55 7.09 C62.7 7.13 62.7 7.13 63.86 7.18 C65.89 7.25 67.92 7.3 69.95 7.34 C74.32 7.65 78.46 8.75 82.7 9.82 C91.86 12.11 100.91 12.9 110.31 13.51 C128.84 14.77 128.84 14.77 136.81 16.88 C137.9 17.13 138.98 17.38 140.1 17.63 C145.38 18.89 150.11 20.14 154.81 22.88 C154.81 23.54 154.81 24.2 154.81 24.88 C155.71 25.14 155.71 25.14 156.64 25.4 C164.02 27.64 166.86 30.3 170.81 36.88 C171.51 37.56 172.21 38.24 172.93 38.95 C174.81 40.88 174.81 40.88 175.31 43.01 C175.47 43.63 175.64 44.25 175.81 44.88 C177.13 45.57 178.47 46.23 179.81 46.88 C180.49 48.21 181.16 49.54 181.81 50.88 C182.54 51.61 183.28 52.34 184.03 53.09 C187.07 56.14 189.68 59.36 192.31 62.76 C192.77 63.34 193.23 63.93 193.7 64.54 C196.45 68.06 199.08 71.63 201.62 75.31 C202.89 76.99 204.3 78.41 205.81 79.88 C210.83 85.85 215.46 92.07 219.95 98.44 C221.76 100.93 221.76 100.93 224.01 103.07 C225.81 104.88 225.81 104.88 226.31 107.01 C226.47 107.63 226.64 108.25 226.81 108.88 C228.13 109.57 229.47 110.23 230.81 110.88 C233.16 113.94 233.23 117.26 233.12 120.99 C232.81 122.88 232.81 122.88 231.25 125.13 C224.39 130.06 219.28 131.6 210.93 132.45 C204.57 133.12 198.83 134.04 192.8 136.23 C190.16 137.1 187.64 137.36 184.87 137.51 C181.2 137.66 181.2 137.66 177.81 138.88 C175.98 139.2 174.15 139.49 172.31 139.76 C168.24 140.4 164.42 141.23 160.5 142.51 C156.39 143.83 153.1 144.07 148.81 143.88 C148.48 144.21 148.15 144.54 147.81 144.88 C144.32 145.54 140.83 146.13 137.33 146.69 C136.59 146.81 135.84 146.94 135.08 147.07 C134.4 147.18 133.73 147.28 133.03 147.4 C130.67 147.87 130.67 147.87 127.91 148.87 C124.89 149.86 122.07 150.42 118.93 150.88 C117.84 151.05 116.76 151.21 115.64 151.38 C113.37 151.72 111.11 152.05 108.84 152.38 C107.76 152.55 106.67 152.71 105.55 152.88 C104.08 153.1 104.08 153.1 102.58 153.32 C99.78 153.8 99.78 153.8 97.17 154.95 C94.01 156.2 91.19 155.88 87.81 155.88 C87.08 156.19 86.34 156.5 85.59 156.82 C81.44 158.4 77.16 158.62 72.78 159.01 C69.49 159.35 66.96 159.8 64.01 161.36 C59.33 163.59 54.62 163.85 49.5 164.38 C41.31 165.2 41.31 165.2 33.41 167.35 C27.61 169.46 21.59 170.11 15.5 170.95 C13.19 171.26 10.88 171.59 8.57 171.92 C7.56 172.06 6.55 172.19 5.51 172.34 C2.92 172.86 1.14 173.69 -1.19 174.88 C-3.38 175.34 -3.38 175.34 -5.75 175.63 C-7.06 175.8 -7.06 175.8 -8.4 175.97 C-9.32 176.09 -10.24 176.2 -11.19 176.32 C-19.03 177.36 -26.56 178.76 -34.19 180.88 C-45.6 183.81 -61.09 186.79 -72.19 181.88 C-75.79 178.95 -78.71 176.33 -80.19 171.88 C-82.66 169.28 -85.22 166.85 -87.88 164.45 C-90.39 161.66 -91.27 159.48 -92.19 155.88 C-92.95 155.86 -93.72 155.84 -94.5 155.82 C-95.39 155.51 -96.28 155.2 -97.19 154.88 C-98.69 151.7 -98.69 151.7 -99.37 149.79 C-100.27 147.7 -101.36 146.33 -102.88 144.63 C-105.19 141.88 -105.19 141.88 -105.19 138.88 C-106.09 138.54 -106.09 138.54 -107 138.2 C-109.79 136.52 -110.57 134.68 -112.19 131.88 C-113.84 130.2 -115.5 128.53 -117.19 126.88 C-121.19 122.23 -121.19 122.23 -121.19 119.88 C-122.68 119.39 -122.68 119.39 -124.19 118.88 C-125.25 117.25 -126.23 115.58 -127.19 113.88 C-128.01 112.66 -128.84 111.46 -129.69 110.26 C-130.29 109.4 -130.29 109.4 -130.91 108.53 C-132.17 106.83 -132.17 106.83 -133.79 105.33 C-135.19 103.88 -135.19 103.88 -136.13 101.32 C-136.94 98.73 -136.94 98.73 -139.19 97.95 C-141.19 96.88 -141.19 96.88 -142.44 94.45 C-143.71 88.42 -144.02 82.56 -142.19 76.63 C-139.37 72.76 -135.91 69.87 -132.19 66.88 C-132.85 66.22 -133.51 65.56 -134.19 64.88 C-132.87 64.88 -131.55 64.88 -130.19 64.88 C-129.7 63.89 -129.7 63.89 -129.19 62.88 C-127.52 62.88 -125.86 62.88 -124.19 62.88 C-123.94 62.26 -123.7 61.65 -123.44 61.01 C-122.19 58.88 -122.19 58.88 -120.38 58.01 C-118.05 56.81 -117.17 55.78 -115.57 53.76 C-114.78 52.81 -114 51.86 -113.19 50.88 C-112.53 50.88 -111.87 50.88 -111.19 50.88 C-110.94 50.1 -110.7 49.32 -110.44 48.51 C-108.98 45.44 -108.14 45.27 -105.19 43.88 C-104.88 43.22 -104.57 42.56 -104.25 41.88 C-103.19 39.88 -103.19 39.88 -100.75 38.63 C-98.19 37.88 -98.19 37.88 -95.19 37.88 C-95.19 37.22 -95.19 36.56 -95.19 35.88 C-91.92 32.61 -88.68 32.31 -84.19 31.88 C-83.53 30.23 -82.87 28.58 -82.19 26.88 C-81.2 26.88 -80.21 26.88 -79.19 26.88 C-78.86 26.22 -78.53 25.56 -78.19 24.88 C-76.88 23.85 -75.55 22.85 -74.19 21.88 C-74.69 20.89 -74.69 20.89 -75.19 19.88 C-74.32 19.82 -73.46 19.76 -72.57 19.7 C-68.38 18.69 -66.38 16.72 -63.19 13.88 C-62.51 13.55 -61.83 13.22 -61.13 12.88 C-58.91 11.87 -58.91 11.87 -56.69 9.32 C-54.33 7.02 -53.38 6.24 -50.19 5.88 C-50.19 5.22 -50.19 4.56 -50.19 3.88 C-49.53 3.55 -48.87 3.22 -48.19 2.88 C-47.53 1.89 -46.87 0.9 -46.19 -0.12 C-45.7 0.38 -45.7 0.38 -45.19 0.88 C-43.33 0.62 -41.48 0.29 -39.63 -0.05 C-26.49 -2.18 -13.19 -1.1 0 0 Z M75.81 17.88 C75.15 18.87 74.49 19.86 73.81 20.88 C77.96 22.99 82.06 25 86.37 26.76 C91.42 28.98 95.95 31.99 98.97 36.69 C101.11 42.3 100.8 49.03 98.85 54.64 C90.29 70.38 70.53 78.37 55.34 86.27 C49.58 89.26 44.39 92.19 39.81 96.88 C39.81 97.54 39.81 98.2 39.81 98.88 C32.59 99.14 32.59 99.14 28.9 97.94 C23.67 96.41 18.31 96.22 12.89 95.85 C11.76 95.76 10.62 95.68 9.45 95.59 C5.84 95.33 2.23 95.07 -1.38 94.82 C-5 94.56 -8.62 94.3 -12.24 94.04 C-14.49 93.87 -16.74 93.71 -18.99 93.55 C-20.01 93.48 -21.03 93.41 -22.07 93.33 C-22.97 93.27 -23.86 93.21 -24.78 93.14 C-27.01 92.9 -29.03 92.45 -31.19 91.88 C-33.04 91.78 -34.9 91.7 -36.75 91.63 C-52.45 90.52 -68.26 85.13 -82.13 77.88 C-82.77 77.55 -83.41 77.22 -84.07 76.88 C-89.01 74.21 -92.45 72.19 -94.2 66.72 C-94.43 65.58 -94.65 64.43 -94.88 63.26 C-95.66 58.94 -95.66 58.94 -97.19 54.88 C-98.18 55.38 -98.18 55.38 -99.19 55.88 C-99.52 55.22 -99.85 54.56 -100.19 53.88 C-100.57 54.36 -100.95 54.83 -101.34 55.32 C-107.14 62.29 -113.96 68.9 -122.13 73.01 C-125.97 75.36 -127.75 77.63 -129.19 81.88 C-130.06 87.09 -129.11 90.54 -126.19 94.88 C-124.91 96.51 -123.59 98.11 -122.25 99.7 C-118.34 104.41 -114.61 109.23 -110.94 114.13 C-110.45 114.79 -109.95 115.46 -109.44 116.14 C-107.09 119.29 -104.77 122.47 -102.5 125.69 C-98.3 131.52 -98.3 131.52 -92.19 134.88 C-91.52 136.55 -90.85 138.21 -90.19 139.88 C-88.52 142.45 -86.67 144.88 -84.82 147.32 C-83.85 148.61 -82.88 149.9 -81.92 151.19 C-81.45 151.81 -80.99 152.43 -80.51 153.06 C-79.26 154.79 -78.14 156.55 -77.03 158.36 C-76.42 159.19 -75.82 160.02 -75.19 160.88 C-74.2 160.88 -73.21 160.88 -72.19 160.88 C-71.92 161.67 -71.65 162.45 -71.38 163.26 C-70.34 166.16 -70.34 166.16 -67.19 167.88 C-66.29 169.92 -65.68 171.97 -65.03 174.11 C-64.76 174.69 -64.48 175.28 -64.19 175.88 C-63.2 176.21 -62.21 176.54 -61.19 176.88 C-60.53 176.55 -59.87 176.22 -59.19 175.88 C-55.81 175.74 -53.42 175.81 -50.19 176.88 C-48.63 176.22 -47.08 175.56 -45.54 174.85 C-38.03 171.76 -30.44 169.5 -22.31 169.93 C-19.83 169.87 -17.91 169.29 -15.57 168.51 C-11.36 167.12 -7.34 166.42 -2.94 165.88 C5.89 164.8 14.45 162.96 23.08 160.84 C30.21 159.09 37 157.62 44.35 157.16 C47.76 156.78 50.83 155.71 54.08 154.64 C58.46 153.43 62.92 152.94 67.42 152.34 C73.61 151.5 79.56 150.32 85.5 148.38 C91.01 146.65 96.58 145.99 102.29 145.31 C108.91 144.66 108.91 144.66 114.81 141.88 C116.93 141.44 116.93 141.44 119.39 141.17 C120.29 141.06 121.2 140.96 122.13 140.84 C123.1 140.73 124.06 140.62 125.06 140.51 C133.02 139.52 140.44 138.1 148.14 135.86 C156.09 133.74 164.31 132.44 172.47 131.43 C175.67 130.91 178.26 130.06 181.25 128.82 C185.3 127.29 188.41 126.56 192.71 126.8 C197.09 126.97 201.46 126.34 205.81 125.88 C207.09 125.78 208.37 125.68 209.68 125.57 C213.3 124.77 215.13 123.4 217.81 120.88 C217.15 116.54 215.77 112.81 213.81 108.88 C212.82 108.55 211.83 108.22 210.81 107.88 C210.12 105.82 210.12 105.82 209.81 103.88 C209.15 103.88 208.49 103.88 207.81 103.88 C207.38 102.68 207.38 102.68 206.93 101.45 C206.08 98.75 206.08 98.75 203.81 97.88 C203.48 96.89 203.15 95.9 202.81 94.88 C202.15 94.88 201.49 94.88 200.81 94.88 C200.72 94.29 200.64 93.7 200.55 93.1 C199.6 90.26 198.27 89.29 195.93 87.45 C192.81 84.84 190.61 82.6 188.81 78.88 C188.48 78.22 188.15 77.56 187.81 76.88 C186.82 76.88 185.83 76.88 184.81 76.88 C184.73 76.16 184.64 75.44 184.56 74.7 C183.43 70.48 180.84 67.92 177.81 64.88 C177.44 63.99 177.44 63.99 177.06 63.07 C175.27 59.93 172.59 58.15 169.81 55.88 C169.15 54.89 168.49 53.9 167.81 52.88 C167.15 52.88 166.49 52.88 165.81 52.88 C165.56 51.95 165.31 51.03 165.06 50.07 C163.69 46.57 162.78 45.95 159.81 43.88 C159.4 43.14 158.98 42.4 158.56 41.63 C155.27 36.46 150.83 32.27 144.81 30.88 C144.41 29.95 144.41 29.95 144 29.01 C142.19 25.78 139.18 24.98 135.81 23.88 C133.16 23.47 130.66 23.18 128 23 C127.28 22.95 126.56 22.89 125.81 22.83 C123.52 22.65 121.23 22.48 118.93 22.32 C98.64 20.83 98.64 20.83 89.81 17.88 C87.46 17.74 85.1 17.66 82.75 17.63 C81.5 17.61 80.25 17.58 78.96 17.55 C77.92 17.66 76.88 17.77 75.81 17.88 Z " fill="#EEB7C0" transform="translate(595.191162109375,228.116943359375)"/>
<path d="M0 0 C0.68 0.01 1.35 0.02 2.05 0.02 C3.36 0.02 4.68 0.01 6.04 0.01 C9.51 0.26 11.6 0.89 14.74 2.27 C21.46 3.71 28.3 4.27 35.15 4.7 C36.87 4.82 36.87 4.82 38.62 4.93 C40.91 5.07 43.2 5.2 45.5 5.31 C52.21 5.73 57.04 6.59 62.74 10.27 C63.07 11.26 63.4 12.25 63.74 13.27 C64.58 13.5 65.43 13.73 66.3 13.96 C71.59 15.98 76.26 20.27 78.78 25.41 C79.72 27.61 79.72 27.61 82.74 29.27 C83.07 30.28 83.4 31.29 83.74 32.34 C84.07 33.31 84.4 34.27 84.74 35.27 C85.73 35.6 86.72 35.93 87.74 36.27 C89.44 37.9 91.11 39.57 92.74 41.27 C93.4 41.93 94.06 42.59 94.74 43.27 C95.4 44.61 96.07 45.94 96.74 47.27 C97.4 47.93 98.06 48.59 98.74 49.27 C103.74 54.75 103.74 54.75 103.74 59.27 C104.73 59.27 105.72 59.27 106.74 59.27 C107.11 60.16 107.48 61.05 107.86 61.96 C110 65.73 112.37 67.59 115.74 70.27 C119.74 74.8 119.74 74.8 119.74 77.27 C120.4 77.27 121.06 77.27 121.74 77.27 C122.07 78.26 122.4 79.25 122.74 80.27 C123.42 80.95 124.1 81.63 124.8 82.34 C125.44 82.98 126.08 83.61 126.74 84.27 C126.74 84.93 126.74 85.59 126.74 86.27 C127.73 86.6 128.72 86.93 129.74 87.27 C130.42 89.34 130.42 89.34 130.74 91.27 C131.4 91.27 132.06 91.27 132.74 91.27 C136.74 98.19 136.74 98.19 136.74 102.09 C135.45 104.9 134.48 105.83 131.74 107.27 C127.18 108.1 122.74 108.36 118.13 108.46 C109.25 108.69 101.98 110.04 93.74 113.31 C90.77 114.26 89.57 114.43 86.74 113.27 C90.32 110 91.97 109.15 96.74 109.27 C97.85 108.5 97.85 108.5 98.99 107.71 C103 105.61 106.39 106.49 110.74 107.27 C110.74 106.61 110.74 105.95 110.74 105.27 C112.22 104.78 112.22 104.78 113.74 104.27 C113.96 103.35 114.19 102.42 114.42 101.46 C116.13 97.31 118.09 96.67 122.06 94.94 C122.61 94.72 123.17 94.5 123.74 94.27 C123.26 89.24 121.62 86.37 118.74 82.27 C118.74 81.61 118.74 80.95 118.74 80.27 C117.75 79.94 116.76 79.61 115.74 79.27 C113.97 77.3 113.97 77.3 112.05 74.77 C109.35 71.29 106.59 67.95 103.61 64.71 C93.74 53.74 93.74 53.74 93.74 49.27 C92.75 48.94 91.76 48.61 90.74 48.27 C89.23 46.56 89.23 46.56 87.61 44.34 C84.93 40.77 82.13 37.43 79.11 34.15 C76.48 31.27 74.02 28.42 71.8 25.21 C70.06 22.24 70.06 22.24 67.74 21.27 C57.81 21.43 49.88 24.96 42.92 31.95 C39.65 35.38 36.49 38.91 33.36 42.46 C31.43 44.62 29.39 46.64 27.3 48.65 C23.79 52.09 20.84 55.88 17.82 59.76 C15.68 62.34 13.4 64.64 10.99 66.96 C7.36 70.48 4.95 73.74 2.74 78.27 C6.61 80.06 9.86 80.57 14.11 80.77 C18.21 80.97 21.66 81.54 25.57 82.74 C30.67 83.99 35.96 84.34 41.17 84.9 C42.38 85.03 43.59 85.17 44.84 85.3 C47.8 85.63 50.77 85.96 53.74 86.27 C53.74 86.93 53.74 87.59 53.74 88.27 C55.06 88.93 56.38 89.59 57.74 90.27 C47.94 89.8 38.41 88.93 28.74 87.27 C26.71 86.94 24.69 86.62 22.66 86.29 C20.46 85.93 18.25 85.57 16.05 85.21 C14.97 85.04 13.89 84.86 12.79 84.68 C11.78 84.52 10.77 84.35 9.72 84.18 C8.81 84.03 7.9 83.88 6.96 83.72 C4.74 83.27 4.74 83.27 2.74 82.27 C-4.64 81.59 -11.63 83.03 -18.72 84.93 C-25.82 86.84 -32.95 88.1 -40.2 89.27 C-43.31 89.79 -46.42 90.3 -49.53 90.82 C-51.18 91.09 -52.83 91.36 -54.48 91.63 C-62.85 93.02 -68.06 95.51 -74.26 101.27 C-75.05 101.98 -75.84 102.69 -76.65 103.41 C-78.33 104.92 -80.01 106.44 -81.67 107.96 C-84.25 110.26 -86.89 112.43 -89.58 114.59 C-94.33 118.43 -98.81 122.5 -103.28 126.68 C-107.12 130.26 -111.05 133.71 -115.08 137.09 C-115.89 137.77 -115.89 137.77 -116.72 138.46 C-119.07 140.44 -121.43 142.41 -123.79 144.38 C-124.86 145.28 -124.86 145.28 -125.95 146.21 C-126.85 146.97 -126.85 146.97 -127.78 147.74 C-129.43 149.45 -130.31 151.11 -131.26 153.27 C-127.85 153.44 -127.85 153.44 -124.26 153.27 C-123.6 152.61 -122.94 151.95 -122.26 151.27 C-119.84 150.61 -119.84 150.61 -116.95 150.09 C-116.01 149.91 -115.06 149.73 -114.09 149.54 C-111.22 149.27 -109.04 149.56 -106.26 150.27 C-105.93 149.61 -105.6 148.95 -105.26 148.27 C-103.94 148.27 -102.62 148.27 -101.26 148.27 C-100.23 147.8 -99.2 147.32 -98.14 146.84 C-92.9 144.44 -86.76 143.44 -81.26 145.27 C-80.4 144.82 -79.53 144.37 -78.64 143.9 C-75.08 142.19 -72.58 141.85 -68.71 141.68 C-65.96 141.22 -63.72 140.17 -61.19 139.03 C-57.82 137.71 -54.33 137.17 -50.76 136.59 C-50.04 136.46 -49.32 136.33 -48.58 136.19 C-45.13 135.6 -41.99 135.27 -38.47 135.29 C-35.51 135.27 -34.09 135.05 -31.51 133.77 C-28.06 132.32 -25.32 132.15 -21.58 132.27 C-17.11 132.41 -14.96 131.91 -11.26 129.27 C-9.27 128.89 -7.27 128.57 -5.26 128.27 C-3.66 127.83 -2.05 127.37 -0.45 126.9 C4.51 125.52 9.49 124.46 14.55 123.52 C15.27 123.38 15.98 123.24 16.72 123.1 C21 122.34 24.5 122.29 28.74 123.27 C28.74 122.61 28.74 121.95 28.74 121.27 C34.68 121.27 40.62 121.27 46.74 121.27 C46.74 121.6 46.74 121.93 46.74 122.27 C45.43 122.44 45.43 122.44 44.1 122.61 C37.14 123.46 37.14 123.46 30.61 125.84 C26.98 127.65 23.89 127.7 19.87 127.96 C14.06 128.54 8.42 129.97 2.74 131.27 C1.11 131.63 -0.51 131.98 -2.14 132.34 C-4.75 132.91 -7.3 133.56 -9.89 134.27 C-13.77 135.27 -17.66 135.73 -21.64 136.21 C-26.99 136.88 -31.86 137.84 -36.92 139.69 C-39.26 140.27 -39.26 140.27 -42.59 140.25 C-46.56 140.28 -49.75 140.99 -53.58 142.02 C-54.98 142.39 -56.39 142.76 -57.79 143.12 C-58.52 143.31 -59.25 143.5 -60 143.7 C-69.54 146.13 -78.98 148.39 -88.82 148.99 C-91.5 149.3 -93.83 149.99 -96.39 150.84 C-99.6 151.89 -102.03 152.38 -105.39 152.15 C-113.57 151.8 -122.07 155.75 -129.63 158.5 C-132.26 159.27 -132.26 159.27 -134.26 158.27 C-137.64 158.13 -140.04 158.2 -143.26 159.27 C-145.55 157.41 -146.26 156.28 -147.14 153.4 C-148.47 149.69 -150.43 147.95 -153.26 145.27 C-153.26 144.61 -153.26 143.95 -153.26 143.27 C-154.25 143.27 -155.24 143.27 -156.26 143.27 C-157.99 141.18 -159.5 139.14 -161.01 136.9 C-161.45 136.27 -161.89 135.63 -162.34 134.98 C-163.23 133.69 -164.12 132.4 -165 131.11 C-167.31 127.76 -169.71 124.47 -172.08 121.16 C-173.26 119.27 -173.26 119.27 -173.26 117.27 C-173.86 117.01 -174.46 116.74 -175.08 116.47 C-184.55 111.29 -191.5 97.72 -197.84 89.14 C-200.98 84.9 -204.27 80.92 -207.85 77.04 C-210.44 73.81 -210.61 70.44 -210.53 66.39 C-210.07 62.76 -208.64 59.98 -206.26 57.27 C-204.43 55.9 -202.53 54.78 -200.54 53.64 C-192.97 49.1 -186.77 43.12 -181.26 36.27 C-180.93 36.93 -180.6 37.59 -180.26 38.27 C-178.78 37.78 -178.78 37.78 -177.26 37.27 C-177.11 38.73 -177.11 38.73 -176.95 40.21 C-175.57 49.27 -175.57 49.27 -170.14 56.34 C-157.8 64.41 -144.49 68.75 -130.17 71.83 C-128.26 72.27 -128.26 72.27 -125.26 73.27 C-123.37 73.45 -121.47 73.59 -119.58 73.71 C-114.71 74.05 -109.92 74.56 -105.09 75.21 C-94.44 76.6 -83.72 77.25 -73 77.95 C-70.38 78.12 -67.76 78.31 -65.13 78.49 C-63.95 78.57 -63.95 78.57 -62.74 78.64 C-57.98 78.98 -53.82 79.86 -49.26 81.27 C-46.55 81.49 -44 81.37 -41.26 81.27 C-41 80.67 -40.74 80.07 -40.47 79.45 C-36.38 72.08 -26.19 68.48 -19.01 64.9 C-10.37 60.49 -2.03 56.12 5.74 50.27 C6.41 49.79 7.09 49.31 7.78 48.81 C13.68 44.26 18.1 38.41 19.25 30.95 C19.41 26.07 19.2 22.33 17.24 17.84 C10.99 11.43 4.88 8.27 -3.6 5.35 C-6.26 4.27 -6.26 4.27 -7.26 2.27 C-4.8 -0.19 -3.37 0.01 0 0 Z " fill="#DD9F69" transform="translate(676.263671875,245.7265625)"/>
<path d="M0 0 C2.37 0.2 4.75 0.37 7.12 0.55 C15.74 1.23 24.01 2.39 32.47 4.2 C37.01 5.13 41.52 5.63 46.12 6.01 C47.01 6.09 47.89 6.17 48.8 6.25 C53.05 6.63 57.29 6.93 61.55 7.09 C62.7 7.13 62.7 7.13 63.86 7.18 C65.89 7.25 67.92 7.3 69.95 7.34 C74.32 7.65 78.46 8.75 82.7 9.82 C91.86 12.11 100.91 12.9 110.31 13.51 C128.84 14.77 128.84 14.77 136.81 16.88 C137.9 17.13 138.98 17.38 140.1 17.63 C145.38 18.89 150.11 20.14 154.81 22.88 C154.81 23.54 154.81 24.2 154.81 24.88 C155.71 25.14 155.71 25.14 156.64 25.4 C164.02 27.64 166.86 30.3 170.81 36.88 C171.51 37.56 172.21 38.24 172.93 38.95 C174.81 40.88 174.81 40.88 175.31 43.01 C175.47 43.63 175.64 44.25 175.81 44.88 C177.13 45.57 178.47 46.23 179.81 46.88 C180.49 48.21 181.16 49.54 181.81 50.88 C182.54 51.61 183.28 52.34 184.03 53.09 C187.07 56.14 189.68 59.36 192.31 62.76 C192.77 63.34 193.23 63.93 193.7 64.54 C196.45 68.06 199.08 71.63 201.62 75.31 C202.89 76.99 204.3 78.41 205.81 79.88 C210.83 85.85 215.46 92.07 219.95 98.44 C221.76 100.93 221.76 100.93 224.01 103.07 C225.81 104.88 225.81 104.88 226.31 107.01 C226.47 107.63 226.64 108.25 226.81 108.88 C228.13 109.57 229.47 110.23 230.81 110.88 C233.16 113.94 233.23 117.26 233.12 120.99 C232.81 122.88 232.81 122.88 231.25 125.13 C224.39 130.06 219.28 131.6 210.93 132.45 C204.57 133.12 198.83 134.04 192.8 136.23 C190.16 137.1 187.64 137.36 184.87 137.51 C181.2 137.66 181.2 137.66 177.81 138.88 C175.98 139.2 174.15 139.49 172.31 139.76 C168.24 140.4 164.42 141.23 160.5 142.51 C156.39 143.83 153.1 144.07 148.81 143.88 C148.48 144.21 148.15 144.54 147.81 144.88 C144.32 145.54 140.83 146.13 137.33 146.69 C136.59 146.81 135.84 146.94 135.08 147.07 C134.4 147.18 133.73 147.28 133.03 147.4 C130.67 147.87 130.67 147.87 127.91 148.87 C124.89 149.86 122.07 150.42 118.93 150.88 C117.84 151.05 116.76 151.21 115.64 151.38 C113.37 151.72 111.11 152.05 108.84 152.38 C107.76 152.55 106.67 152.71 105.55 152.88 C104.08 153.1 104.08 153.1 102.58 153.32 C99.78 153.8 99.78 153.8 97.17 154.95 C94.01 156.2 91.19 155.88 87.81 155.88 C87.08 156.19 86.34 156.5 85.59 156.82 C81.44 158.4 77.16 158.62 72.78 159.01 C69.49 159.35 66.96 159.8 64.01 161.36 C59.33 163.59 54.62 163.85 49.5 164.38 C41.31 165.2 41.31 165.2 33.41 167.35 C27.61 169.46 21.59 170.11 15.5 170.95 C13.19 171.26 10.88 171.59 8.57 171.92 C7.56 172.06 6.55 172.19 5.51 172.34 C2.92 172.86 1.14 173.69 -1.19 174.88 C-3.38 175.34 -3.38 175.34 -5.75 175.63 C-7.06 175.8 -7.06 175.8 -8.4 175.97 C-9.32 176.09 -10.24 176.2 -11.19 176.32 C-19.03 177.36 -26.56 178.76 -34.19 180.88 C-45.6 183.81 -61.09 186.79 -72.19 181.88 C-75.79 178.95 -78.71 176.33 -80.19 171.88 C-82.66 169.28 -85.22 166.85 -87.88 164.45 C-90.39 161.66 -91.27 159.48 -92.19 155.88 C-92.95 155.86 -93.72 155.84 -94.5 155.82 C-95.39 155.51 -96.28 155.2 -97.19 154.88 C-98.69 151.7 -98.69 151.7 -99.37 149.79 C-100.27 147.7 -101.36 146.33 -102.88 144.63 C-105.19 141.88 -105.19 141.88 -105.19 138.88 C-106.09 138.54 -106.09 138.54 -107 138.2 C-109.79 136.52 -110.57 134.68 -112.19 131.88 C-113.84 130.2 -115.5 128.53 -117.19 126.88 C-121.19 122.23 -121.19 122.23 -121.19 119.88 C-122.68 119.39 -122.68 119.39 -124.19 118.88 C-125.25 117.25 -126.23 115.58 -127.19 113.88 C-128.01 112.66 -128.84 111.46 -129.69 110.26 C-130.29 109.4 -130.29 109.4 -130.91 108.53 C-132.17 106.83 -132.17 106.83 -133.79 105.33 C-135.19 103.88 -135.19 103.88 -136.13 101.32 C-136.94 98.73 -136.94 98.73 -139.19 97.95 C-141.19 96.88 -141.19 96.88 -142.44 94.45 C-143.71 88.42 -144.02 82.56 -142.19 76.63 C-139.37 72.76 -135.91 69.87 -132.19 66.88 C-132.85 66.22 -133.51 65.56 -134.19 64.88 C-132.87 64.88 -131.55 64.88 -130.19 64.88 C-129.7 63.89 -129.7 63.89 -129.19 62.88 C-127.52 62.88 -125.86 62.88 -124.19 62.88 C-123.94 62.26 -123.7 61.65 -123.44 61.01 C-122.19 58.88 -122.19 58.88 -120.38 58.01 C-118.05 56.81 -117.17 55.78 -115.57 53.76 C-114.78 52.81 -114 51.86 -113.19 50.88 C-112.53 50.88 -111.87 50.88 -111.19 50.88 C-110.94 50.1 -110.7 49.32 -110.44 48.51 C-108.98 45.44 -108.14 45.27 -105.19 43.88 C-104.88 43.22 -104.57 42.56 -104.25 41.88 C-103.19 39.88 -103.19 39.88 -100.75 38.63 C-98.19 37.88 -98.19 37.88 -95.19 37.88 C-95.19 37.22 -95.19 36.56 -95.19 35.88 C-91.92 32.61 -88.68 32.31 -84.19 31.88 C-83.53 30.23 -82.87 28.58 -82.19 26.88 C-81.2 26.88 -80.21 26.88 -79.19 26.88 C-78.86 26.22 -78.53 25.56 -78.19 24.88 C-76.88 23.85 -75.55 22.85 -74.19 21.88 C-74.69 20.89 -74.69 20.89 -75.19 19.88 C-74.32 19.82 -73.46 19.76 -72.57 19.7 C-68.38 18.69 -66.38 16.72 -63.19 13.88 C-62.51 13.55 -61.83 13.22 -61.13 12.88 C-58.91 11.87 -58.91 11.87 -56.69 9.32 C-54.33 7.02 -53.38 6.24 -50.19 5.88 C-50.19 5.22 -50.19 4.56 -50.19 3.88 C-49.53 3.55 -48.87 3.22 -48.19 2.88 C-47.53 1.89 -46.87 0.9 -46.19 -0.12 C-45.7 0.38 -45.7 0.38 -45.19 0.88 C-43.33 0.62 -41.48 0.29 -39.63 -0.05 C-26.49 -2.18 -13.19 -1.1 0 0 Z M-43.19 12.88 C-45.37 14.72 -47.62 16.46 -49.88 18.2 C-51.13 19.16 -52.37 20.13 -53.62 21.1 C-54.23 21.57 -54.84 22.05 -55.46 22.53 C-57.84 24.39 -60.17 26.29 -62.5 28.2 C-68.12 32.67 -73.74 36.7 -80.2 39.88 C-91.09 45.35 -98.57 51.73 -106.54 60.93 C-110.98 65.96 -115.97 69.79 -121.94 72.82 C-125.86 75.3 -127.7 77.51 -129.19 81.88 C-130.06 87.09 -129.11 90.54 -126.19 94.88 C-124.91 96.51 -123.59 98.11 -122.25 99.7 C-118.34 104.41 -114.61 109.23 -110.94 114.13 C-110.45 114.79 -109.95 115.46 -109.44 116.14 C-107.09 119.29 -104.77 122.47 -102.5 125.69 C-98.3 131.52 -98.3 131.52 -92.19 134.88 C-91.52 136.55 -90.85 138.21 -90.19 139.88 C-88.52 142.45 -86.67 144.88 -84.82 147.32 C-83.85 148.61 -82.88 149.9 -81.92 151.19 C-81.45 151.81 -80.99 152.43 -80.51 153.06 C-79.26 154.79 -78.14 156.55 -77.03 158.36 C-76.42 159.19 -75.82 160.02 -75.19 160.88 C-74.2 160.88 -73.21 160.88 -72.19 160.88 C-71.92 161.67 -71.65 162.45 -71.38 163.26 C-70.34 166.16 -70.34 166.16 -67.19 167.88 C-66.29 169.92 -65.68 171.97 -65.03 174.11 C-64.76 174.69 -64.48 175.28 -64.19 175.88 C-63.2 176.21 -62.21 176.54 -61.19 176.88 C-60.53 176.55 -59.87 176.22 -59.19 175.88 C-55.81 175.74 -53.42 175.81 -50.19 176.88 C-48.63 176.22 -47.08 175.56 -45.54 174.85 C-38.03 171.76 -30.44 169.5 -22.31 169.93 C-19.83 169.87 -17.91 169.29 -15.57 168.51 C-11.36 167.12 -7.34 166.42 -2.94 165.88 C5.89 164.8 14.45 162.96 23.08 160.84 C30.21 159.09 37 157.62 44.35 157.16 C47.76 156.78 50.83 155.71 54.08 154.64 C58.46 153.43 62.92 152.94 67.42 152.34 C73.61 151.5 79.56 150.32 85.5 148.38 C91.01 146.65 96.58 145.99 102.29 145.31 C108.91 144.66 108.91 144.66 114.81 141.88 C116.93 141.44 116.93 141.44 119.39 141.17 C120.29 141.06 121.2 140.96 122.13 140.84 C123.1 140.73 124.06 140.62 125.06 140.51 C133.02 139.52 140.44 138.1 148.14 135.86 C156.09 133.74 164.31 132.44 172.47 131.43 C175.67 130.91 178.26 130.06 181.25 128.82 C185.3 127.29 188.41 126.56 192.71 126.8 C197.09 126.97 201.46 126.34 205.81 125.88 C207.09 125.78 208.37 125.68 209.68 125.57 C213.3 124.77 215.13 123.4 217.81 120.88 C217.15 116.54 215.77 112.81 213.81 108.88 C212.82 108.55 211.83 108.22 210.81 107.88 C210.12 105.82 210.12 105.82 209.81 103.88 C209.15 103.88 208.49 103.88 207.81 103.88 C207.38 102.68 207.38 102.68 206.93 101.45 C206.08 98.75 206.08 98.75 203.81 97.88 C203.48 96.89 203.15 95.9 202.81 94.88 C202.15 94.88 201.49 94.88 200.81 94.88 C200.72 94.29 200.64 93.7 200.55 93.1 C199.6 90.26 198.27 89.29 195.93 87.45 C192.81 84.84 190.61 82.6 188.81 78.88 C188.48 78.22 188.15 77.56 187.81 76.88 C186.82 76.88 185.83 76.88 184.81 76.88 C184.73 76.16 184.64 75.44 184.56 74.7 C183.43 70.48 180.84 67.92 177.81 64.88 C177.44 63.99 177.44 63.99 177.06 63.07 C175.27 59.93 172.59 58.15 169.81 55.88 C169.15 54.89 168.49 53.9 167.81 52.88 C167.15 52.88 166.49 52.88 165.81 52.88 C165.56 51.95 165.31 51.03 165.06 50.07 C163.69 46.57 162.78 45.95 159.81 43.88 C159.4 43.14 158.98 42.4 158.56 41.63 C155.27 36.46 150.83 32.27 144.81 30.88 C144.41 29.95 144.41 29.95 144 29.01 C142.19 25.78 139.18 24.98 135.81 23.88 C133.16 23.47 130.66 23.18 128 23 C127.28 22.95 126.56 22.89 125.81 22.83 C123.52 22.65 121.23 22.48 118.93 22.32 C98.64 20.83 98.64 20.83 89.81 17.88 C87.79 17.84 85.77 17.84 83.75 17.88 C78.03 17.99 78.03 17.99 75.81 16.88 C73.46 16.54 71.1 16.23 68.75 15.95 C64.38 15.4 60.09 14.8 55.81 13.76 C52.03 12.85 48.69 12.64 44.81 12.88 C44.48 13.21 44.15 13.54 43.81 13.88 C40.09 14.18 39.03 14.03 35.81 11.88 C28.66 10.65 21.39 10.87 14.17 11.1 C3.99 11.4 -3.16 11.39 -12.03 6.23 C-16.3 4.41 -20.1 4.31 -24.69 4.32 C-25.46 4.32 -26.23 4.32 -27.02 4.31 C-34.55 4.53 -37.99 7.6 -43.19 12.88 Z " fill="#F8F8F8" transform="translate(595.191162109375,228.116943359375)"/>
<path d="M0 0 C5.41 2.1 9.04 4.72 13 9 C20.95 16.95 35.09 17.2 45.75 19 C50.8 19.86 55.84 20.73 60.88 21.62 C62.31 21.88 63.74 22.13 65.17 22.38 C67.24 22.74 69.32 23.12 71.39 23.5 C72.59 23.72 73.79 23.93 75.03 24.16 C77.98 25 79.23 25.53 81 28 C81.05 29.86 81.05 29.86 80 32 C78.08 33.86 76.2 35.52 74.12 37.19 C73.25 37.91 73.25 37.91 72.35 38.65 C70.57 40.11 68.79 41.56 67 43 C60.62 48.16 54.41 53.4 48.41 58.98 C45.37 61.8 42.26 64.45 39 67 C32.31 72.23 26 78 20 84 C15.84 83.92 13.68 83.63 10.58 80.77 C9.3 79.4 9.3 79.4 8 78 C6.78 76.71 6.78 76.71 5.54 75.39 C0.7 70.11 -3.83 64.81 -8 59 C-12.58 52.73 -17.24 46.63 -22.31 40.75 C-28.09 34.04 -33.43 27.01 -38.64 19.85 C-39.57 18.59 -40.52 17.34 -41.5 16.11 C-45.06 11.5 -45.06 11.5 -44.76 8.86 C-44 7 -44 7 -42 6 C-40.1 5.84 -38.2 5.73 -36.29 5.64 C-35.15 5.58 -34 5.51 -32.83 5.45 C-30.41 5.32 -28 5.2 -25.58 5.1 C-18.56 4.95 -18.56 4.95 -12.8 1.48 C-12.21 0.66 -11.61 -0.16 -11 -1 C-7.45 -2.78 -3.67 -1.09 0 0 Z " fill="#FCD764" transform="translate(520,312)"/>
<path d="M0 0 C2.51 1.26 2.87 2.5 4 5 C4.97 4.94 5.94 4.88 6.94 4.81 C10.03 4.79 12.29 5.38 15.16 6.5 C20.04 8.18 24.34 8.36 29.45 8.22 C30.75 8.21 30.75 8.21 32.07 8.2 C34.8 8.17 37.52 8.12 40.25 8.06 C42.99 8.01 45.73 7.97 48.47 7.94 C50.17 7.92 51.87 7.89 53.57 7.85 C57.86 7.8 61.09 8 65 10 C64 12 64 12 61.11 13.04 C59.86 13.42 58.6 13.8 57.31 14.19 C45.23 18.04 33.42 22.41 26.87 34 C25.6 36.92 25.36 39.86 25 43 C23.44 43.7 23.44 43.7 21 44 C18.56 43.03 16.33 42.01 14 40.81 C12.64 40.16 11.28 39.5 9.92 38.86 C9.25 38.54 8.58 38.22 7.89 37.89 C-2.33 33.09 -11.77 32.4 -22.87 32.09 C-26.3 31.95 -29.69 31.54 -33.09 31.09 C-35.24 30.99 -36.93 31.46 -39 32 C-41.75 31.56 -41.75 31.56 -44 31 C-42.72 25.87 -40.99 23.68 -36.81 20.5 C-35.82 19.73 -34.83 18.96 -33.8 18.17 C-32.88 17.45 -31.95 16.74 -31 16 C-29.8 14.95 -28.62 13.89 -27.44 12.81 C-23.95 9.75 -20.01 7.6 -15.94 5.39 C-14.98 4.7 -14.98 4.7 -14 4 C-14 3.01 -14 2.02 -14 1 C-13.4 0.86 -12.8 0.71 -12.19 0.56 C-7.54 -0.63 -4.83 -0.88 0 0 Z " fill="#FBD664" transform="translate(574,237)"/>
<path d="M0 0 C1.23 0.08 2.46 0.15 3.73 0.23 C4.75 0.42 5.76 0.61 6.81 0.81 C9.32 4.57 9.27 6.36 8.81 10.81 C5.87 15.91 2.04 20 -2 24.25 C-2.89 25.19 -2.89 25.19 -3.79 26.16 C-6.77 29.32 -9.8 32.43 -12.89 35.48 C-15.51 38.08 -17.82 40.76 -20.06 43.69 C-25.09 49.97 -30.77 55.53 -36.51 61.15 C-37.23 61.85 -37.95 62.56 -38.69 63.29 C-39.34 63.92 -39.99 64.55 -40.66 65.2 C-42.28 66.75 -42.28 66.75 -43.19 68.81 C-47.24 70.16 -50.94 69.79 -55.18 69.65 C-58.31 69.82 -60.34 70.59 -63.19 71.81 C-69.54 72.14 -69.54 72.14 -72.19 70.81 C-72.19 68.69 -72.19 68.69 -71.19 65.81 C-66.07 60.98 -59.87 57.97 -53.56 55 C-36.61 46.74 -19.86 37.23 -11.62 19.44 C-9.91 16.31 -8.42 15.27 -5.19 13.81 C-4.2 13.81 -3.21 13.81 -2.19 13.81 C-2.19 13.15 -2.19 12.49 -2.19 11.81 C-4.07 11.66 -4.07 11.66 -6 11.5 C-8.52 11.17 -10.03 10.9 -12.25 9.62 C-13.19 7.81 -13.19 7.81 -13.19 4.75 C-12.19 1.81 -12.19 1.81 -10.07 0.62 C-6.54 -0.37 -3.66 -0.27 0 0 Z " fill="#FCD764" transform="translate(712.1875,258.1875)"/>
<path d="M0 0 C-0.07 1.72 -0.07 1.72 -1 4 C-3.25 5.65 -5.42 7.09 -7.81 8.5 C-12.01 11.01 -15.69 13.33 -19 17 C-18.67 17.99 -18.34 18.98 -18 20 C-17.09 20.03 -16.18 20.05 -15.25 20.08 C-2.11 20.67 9.66 23.65 21.71 29.05 C23.89 30.13 23.89 30.13 26 30 C27.45 28.15 27.45 28.15 28.88 25.81 C35.01 16.34 35.01 16.34 40 14 C40.58 13.4 41.16 12.79 41.76 12.17 C44.28 9.73 46.84 8.13 49.88 6.38 C50.88 5.78 51.89 5.19 52.93 4.59 C58.7 1.61 62.58 0.55 69 2 C69.99 2.66 70.98 3.32 72 4 C70.88 4.42 69.75 4.84 68.59 5.27 C49.1 11.81 49.1 11.81 34.56 25.5 C32.9 29.23 32.33 31.97 32 36 C30.44 36.7 30.44 36.7 28 37 C25.56 36.03 23.33 35.01 21 33.81 C19.64 33.16 18.28 32.5 16.92 31.86 C16.25 31.54 15.58 31.22 14.89 30.89 C4.67 26.09 -4.77 25.4 -15.87 25.09 C-19.3 24.95 -22.69 24.54 -26.09 24.09 C-28.24 23.99 -29.93 24.46 -32 25 C-34.75 24.56 -34.75 24.56 -37 24 C-37 23.67 -37 23.34 -37 23 C-35.35 23 -33.7 23 -32 23 C-31.67 22.01 -31.34 21.02 -31 20 C-28.81 18.2 -28.81 18.2 -26 16.25 C-22.36 13.68 -18.79 11.09 -15.31 8.31 C-4.69 0 -4.69 0 0 0 Z " fill="#DD9F67" transform="translate(567,244)"/>
<path d="M0 0 C5.94 0 11.88 0 18 0 C18 0.33 18 0.66 18 1 C17.13 1.11 16.26 1.22 15.37 1.33 C8.4 2.19 8.4 2.19 1.88 4.56 C-1.76 6.38 -4.85 6.42 -8.87 6.69 C-14.68 7.26 -20.32 8.69 -26 10 C-27.62 10.36 -29.25 10.71 -30.88 11.06 C-33.49 11.64 -36.04 12.29 -38.62 13 C-42.5 14 -46.4 14.45 -50.38 14.94 C-55.73 15.6 -60.59 16.56 -65.66 18.41 C-68 19 -68 19 -71.32 18.98 C-75.29 19 -78.49 19.72 -82.31 20.75 C-83.72 21.12 -85.12 21.48 -86.53 21.85 C-87.26 22.04 -87.99 22.23 -88.74 22.42 C-98.27 24.86 -107.71 27.12 -117.55 27.72 C-120.24 28.03 -122.56 28.72 -125.12 29.56 C-128.33 30.62 -130.76 31.11 -134.12 30.88 C-142.27 30.53 -150.78 34.43 -158.28 37.22 C-161.79 38.23 -163.7 37.41 -167 36 C-164.74 33.67 -163.05 32.09 -159.73 31.8 C-158.15 31.85 -156.57 31.93 -154.99 32.05 C-152.76 32.22 -152.76 32.22 -151 30 C-148.57 29.33 -148.57 29.33 -145.69 28.81 C-144.74 28.63 -143.8 28.45 -142.82 28.27 C-139.95 28 -137.78 28.29 -135 29 C-134.67 28.34 -134.34 27.68 -134 27 C-132.68 27 -131.36 27 -130 27 C-128.97 26.53 -127.94 26.05 -126.88 25.56 C-121.64 23.17 -115.5 22.17 -110 24 C-108.7 23.32 -108.7 23.32 -107.38 22.62 C-103.82 20.91 -101.32 20.58 -97.44 20.41 C-94.7 19.95 -92.45 18.89 -89.93 17.76 C-86.56 16.43 -83.06 15.9 -79.5 15.31 C-78.78 15.18 -78.06 15.05 -77.32 14.92 C-73.86 14.33 -70.72 14 -67.2 14.01 C-64.24 14 -62.83 13.78 -60.25 12.5 C-56.79 11.04 -54.06 10.88 -50.31 11 C-45.85 11.14 -43.69 10.64 -40 8 C-38.01 7.62 -36.01 7.3 -34 7 C-32.39 6.56 -30.79 6.09 -29.19 5.62 C-24.23 4.25 -19.25 3.19 -14.19 2.25 C-13.47 2.11 -12.75 1.97 -12.01 1.83 C-7.73 1.06 -4.24 1.02 0 2 C0 1.34 0 0.68 0 0 Z " fill="#ECB5BA" transform="translate(705,367)"/>
<path d="M0 0 C3.24 1.3 3.24 1.3 6.12 2.94 C13.37 6.95 20.63 6.62 28.78 6.42 C36.28 6.38 36.28 6.38 38.6 8.37 C39.71 10.03 39.71 10.03 41 13 C36.71 13.09 32.42 13.14 28.12 13.19 C26.92 13.21 25.72 13.24 24.48 13.26 C17.87 13.32 12.26 12.92 6.03 10.66 C3.34 9.79 0.81 9.93 -2 10 C-2.66 9.34 -3.32 8.68 -4 8 C-4 7.01 -4 6.02 -4 5 C-9.42 4.11 -13.92 3.4 -19 6 C-19.27 6.62 -19.53 7.24 -19.8 7.88 C-21.5 10.88 -23.66 11.72 -26.69 13.31 C-31.27 15.87 -34.74 18.38 -38.27 22.22 C-41.49 25.53 -45.17 28.43 -49 31 C-49.66 31 -50.32 31 -51 31 C-51.5 32.49 -51.5 32.49 -52 34 C-54.48 34.5 -54.48 34.5 -57 35 C-57 34.34 -57 33.68 -57 33 C-57.66 32.67 -58.32 32.34 -59 32 C-58 31.26 -56.99 30.52 -55.96 29.76 C-48.02 23.89 -40.31 17.87 -32.87 11.38 C-30.03 9.02 -27.08 7.02 -24 5 C-22.65 3.69 -21.31 2.36 -20 1 C-14.64 -1.68 -5.87 -0.77 0 0 Z " fill="#DEA16B" transform="translate(580,233)"/>
<path d="M0 0 C1.03 0.04 2.06 0.08 3.12 0.12 C4.24 0.18 5.35 0.24 6.5 0.3 C7.64 0.36 8.78 0.41 9.96 0.47 C18.48 0.92 26.95 1.68 35.43 2.62 C37.11 2.8 37.11 2.8 38.83 2.99 C39.86 3.11 40.9 3.24 41.96 3.36 C43.33 3.53 43.33 3.53 44.73 3.69 C46.93 4.18 46.93 4.18 48.93 6.18 C48.93 7.17 48.93 8.16 48.93 9.18 C43.37 11.06 38.47 11.5 32.62 11.43 C31.78 11.42 30.94 11.42 30.07 11.41 C24.16 11.32 18.64 10.78 12.93 9.18 C11.58 8.82 10.23 8.47 8.87 8.12 C8.24 7.95 7.6 7.78 6.95 7.61 C4.69 7.13 2.48 6.93 0.18 6.74 C-3.37 6.41 -5.46 5.78 -8.07 3.18 C-5.56 0.03 -3.94 -0.17 0 0 Z " fill="#FCD764" transform="translate(576.06640625,323.8203125)"/>
<path d="M0 0 C2.45 1.15 4.46 2.53 6.61 4.18 C7.38 4.76 8.16 5.35 8.96 5.95 C11.2 8.14 12.03 9.97 12.98 12.93 C8.08 16.85 5.24 17.45 -1.02 16.93 C-1.68 16.6 -2.34 16.27 -3.02 15.93 C-2.69 14.28 -2.36 12.63 -2.02 10.93 C-6.21 11.48 -6.21 11.48 -10.08 13.05 C-12.69 14.23 -14.32 13.68 -17.02 12.93 C-13.86 9.56 -10.49 6.53 -6.96 3.55 C-6.12 2.85 -5.28 2.14 -4.42 1.41 C-2.02 -0.07 -2.02 -0.07 0 0 Z " fill="#FCD764" transform="translate(491.01953125,294.0703125)"/>
<path d="M0 0 C0.71 0.16 1.42 0.33 2.15 0.49 C5.03 1.01 7.67 1.11 10.6 1.11 C11.65 1.12 12.69 1.14 13.78 1.15 C15.97 1.18 18.17 1.18 20.36 1.17 C28.21 1.33 28.21 1.33 30.64 3.39 C31.75 5.05 31.75 5.05 33 8 C28.71 8.09 24.42 8.14 20.12 8.19 C18.92 8.21 17.72 8.24 16.48 8.26 C9.87 8.32 4.26 7.92 -1.97 5.65 C-4.2 4.82 -4.2 4.82 -7.5 5 C-8.33 5 -9.15 5 -10 5 C-10.66 4.01 -11.32 3.02 -12 2 C-9.48 0.74 -7.69 0.9 -4.88 0.94 C-3.96 0.95 -3.05 0.96 -2.12 0.96 C-1.42 0.98 -0.72 0.99 0 1 C0 0.67 0 0.34 0 0 Z " fill="#DD9F67" transform="translate(588,238)"/>
<path d="M0 0 C1 0.3 1 0.3 2.02 0.6 C11.81 3.31 21.52 3.97 31.6 4.66 C33.84 4.81 36.07 4.98 38.3 5.16 C39.61 5.25 40.92 5.34 42.27 5.43 C46.43 6.07 49.28 7.08 53 9 C53.94 11.19 53.94 11.19 54 13 C51.42 12.52 48.83 12.04 46.25 11.56 C45.16 11.36 45.16 11.36 44.04 11.15 C38.27 10.08 38.27 10.08 36.21 9.48 C33.05 8.8 29.94 8.76 26.71 8.64 C25.28 8.58 23.85 8.51 22.42 8.45 C20.17 8.34 17.93 8.25 15.68 8.18 C13.5 8.1 11.33 8 9.15 7.89 C7.85 7.84 6.55 7.79 5.21 7.74 C2 7 2 7 -0.01 4.57 C-0.34 3.72 -0.66 2.87 -1 2 C-0.67 1.34 -0.34 0.68 0 0 Z " fill="#EDB5BC" transform="translate(685,246)"/>
<path d="M0 0 C1.98 0 3.96 0 6 0 C6 0.33 6 0.66 6 1 C4.02 1 2.04 1 0 1 C0 0.67 0 0.34 0 0 Z M-1.56 1.31 C-0.79 1.65 -0.79 1.65 0 2 C-0.33 2.99 -0.66 3.98 -1 5 C-5.45 7.15 -10.2 8.21 -15.12 7.88 C-23.27 7.53 -31.78 11.43 -39.28 14.22 C-42.79 15.23 -44.7 14.41 -48 13 C-45.74 10.67 -44.05 9.09 -40.73 8.8 C-39.15 8.85 -37.57 8.93 -35.99 9.05 C-33.76 9.22 -33.76 9.22 -32 7 C-29.57 6.33 -29.57 6.33 -26.69 5.81 C-25.27 5.54 -25.27 5.54 -23.82 5.27 C-20.95 5 -18.78 5.29 -16 6 C-15.67 5.34 -15.34 4.68 -15 4 C-13.68 4 -12.36 4 -11 4 C-9.27 3.23 -9.27 3.23 -7.5 2.44 C-4 1 -4 1 -1.56 1.31 Z " fill="#EDB6BE" transform="translate(586,390)"/>
<path d="M0 0 C5.94 0 11.88 0 18 0 C18 0.33 18 0.66 18 1 C16.7 1.16 16.7 1.16 15.37 1.33 C8.4 2.19 8.4 2.19 1.88 4.56 C-1.8 6.4 -5.06 6.54 -9.12 6.79 C-12.09 6.97 -12.09 6.97 -15.35 7.52 C-19.26 8.03 -23 8.1 -26.94 8.06 C-27.62 8.06 -28.31 8.05 -29.01 8.05 C-30.67 8.04 -32.34 8.02 -34 8 C-30.28 4.28 -24.28 4.26 -19.25 3.31 C-18.07 3.07 -16.89 2.84 -15.67 2.59 C-14.53 2.37 -13.38 2.15 -12.2 1.93 C-11.16 1.72 -10.11 1.52 -9.04 1.31 C-5.8 0.98 -3.17 1.32 0 2 C0 1.34 0 0.68 0 0 Z " fill="#DEA16E" transform="translate(705,367)"/>
<path d="M0 0 C1.83 -0.05 3.67 -0.09 5.5 -0.12 C6.52 -0.15 7.54 -0.17 8.59 -0.2 C11.88 -0.01 14.75 0.67 17.91 1.53 C22.12 2.48 26.43 2.43 30.73 2.57 C35.41 2.76 39.56 3.34 44 5 C44.66 5.99 45.32 6.98 46 8 C11.07 6.04 11.07 6.04 2 3 C1.34 2.01 0.68 1.02 0 0 Z " fill="#DD9F67" transform="translate(737,335)"/>
<path d="M0 0 C0.77 -0.02 1.55 -0.05 2.34 -0.07 C7.94 -0.1 12.71 0.93 17.25 4.38 C17.75 5.86 17.75 5.86 18.25 7.38 C13.96 7.38 9.67 7.38 5.25 7.38 C5.25 6.72 5.25 6.06 5.25 5.38 C-1.23 4.33 -5.06 4.31 -10.88 7.56 C-12.75 8.38 -12.75 8.38 -15.75 7.38 C-11.91 0.07 -7.66 0.01 0 0 Z " fill="#EDB6BC" transform="translate(570.75,232.625)"/>
<path d="M0 0 C0.46 0.4 0.92 0.8 1.39 1.21 C5.32 4.6 5.32 4.6 9.44 7.75 C9.95 8.16 10.47 8.57 11 9 C11 9.66 11 10.32 11 11 C11.66 11 12.32 11 13 11 C13.33 11.99 13.66 12.98 14 14 C15.63 15.66 15.63 15.66 17.56 17.19 C18.2 17.72 18.84 18.25 19.5 18.79 C20.24 19.39 20.24 19.39 21 20 C20.67 20.99 20.34 21.98 20 23 C18.7 21.92 17.41 20.84 16.12 19.75 C15.41 19.15 14.69 18.54 13.95 17.92 C12.02 16.02 11.15 14.42 10 12 C9.34 11.67 8.68 11.34 8 11 C5.47 9.74 5.24 8.47 4 6 C2.67 5.32 1.34 4.65 0 4 C-0.33 3.01 -0.66 2.02 -1 1 C-0.67 0.67 -0.34 0.34 0 0 Z " fill="#EEB7C0" transform="translate(753,261)"/>
<path d="M0 0 C0.99 0.33 1.98 0.66 3 1 C2.68 3.92 2.4 5.57 0.38 7.75 C-4.1 10.11 -9.02 10.15 -14 10 C-13.67 9.01 -13.34 8.02 -13 7 C-10.82 5.94 -10.82 5.94 -8.12 5 C-4.67 3.79 -2.4 2.8 0 0 Z " fill="#EEB7C0" transform="translate(810,344)"/>
<path d="M0 0 C-1.71 3.41 -5.27 3.89 -8.72 5.11 C-14.08 6.56 -19.47 6.82 -25 7 C-25 6.01 -25 5.02 -25 4 C-16.84 1.46 -8.58 -0.38 0 0 Z " fill="#E3A88A" transform="translate(640,381)"/>
<path d="M0 0 C1.18 0.09 1.18 0.09 2.39 0.19 C4.32 0.34 6.26 0.51 8.19 0.69 C8.19 1.02 8.19 1.35 8.19 1.69 C5.02 2.31 2.19 2.69 -1.05 2.56 C-5.23 2.7 -8.63 3.78 -12.5 5.25 C-20.25 8.19 -20.25 8.19 -23.81 6.69 C-20.23 3.41 -18.58 2.57 -13.81 2.69 C-13.12 2.19 -12.42 1.69 -11.71 1.17 C-7.66 -0.9 -4.44 -0.42 0 0 Z " fill="#E3A786" transform="translate(786.8125,352.3125)"/>
<path d="M0 0 C0 0.66 0 1.32 0 2 C-0.66 2 -1.32 2 -2 2 C-2 2.66 -2 3.32 -2 4 C-4.37 4.68 -6.75 5.34 -9.12 6 C-9.79 6.19 -10.46 6.38 -11.14 6.58 C-15.2 7.69 -18.8 8.21 -23 8 C-22 6 -22 6 -20.21 5.25 C-19.46 5.03 -18.71 4.8 -17.94 4.56 C-14.82 3.59 -11.78 2.54 -8.75 1.31 C-5.47 0.17 -3.4 -0.32 0 0 Z " fill="#ECB5B9" transform="translate(654,378)"/>
<path d="M0 0 C5.94 0 11.88 0 18 0 C18 0.33 18 0.66 18 1 C16.7 1.16 16.7 1.16 15.37 1.33 C14.21 1.49 13.06 1.65 11.88 1.81 C10.74 1.96 9.6 2.11 8.43 2.27 C4.99 2.84 4.99 2.84 2.16 4.53 C-2.05 6.49 -5.79 6.56 -10.38 6.69 C-11.62 6.74 -11.62 6.74 -12.89 6.79 C-14.93 6.87 -16.96 6.94 -19 7 C-15.75 4.83 -13.82 4.49 -10 3.94 C-6.84 3.47 -4.03 3.01 -1 2 C-0.67 1.34 -0.34 0.68 0 0 Z " fill="#EDB6BE" transform="translate(705,367)"/>
<path d="M0 0 C3.98 0.55 5.89 2.46 8.69 5.25 C9.48 6.02 10.26 6.79 11.07 7.58 C13.12 10.15 13.66 11.77 14 15 C10.28 12.63 6.9 10.35 4 7 C4 6.34 4 5.68 4 5 C2.68 4.34 1.36 3.68 0 3 C0 2.01 0 1.02 0 0 Z " fill="#EEB7C0" transform="translate(788,304)"/>
<path d="M0 0 C2.34 0.29 4.67 0.62 7 1 C4.38 2.75 2.5 3.61 -0.44 4.56 C-1.58 4.94 -1.58 4.94 -2.75 5.32 C-3.49 5.54 -4.23 5.77 -5 6 C-5.69 6.21 -6.37 6.43 -7.08 6.65 C-10.03 7.19 -12.26 6.06 -15 5 C-12.73 2.65 -11.02 1.1 -7.7 0.77 C-6.1 0.8 -4.49 0.86 -2.89 0.96 C-2.27 0.97 -1.64 0.99 -1 1 C-0.67 0.67 -0.34 0.34 0 0 Z " fill="#EEB7C0" transform="translate(553,398)"/>
<path d="M0 0 C1.18 0.01 1.18 0.01 2.39 0.01 C4.32 0.03 6.25 0.04 8.19 0.06 C1.17 4.74 -7.57 5.47 -15.81 5.06 C-14.82 4.4 -13.83 3.74 -12.81 3.06 C-13.14 2.4 -13.47 1.74 -13.81 1.06 C-9.19 -0.11 -4.73 -0.05 0 0 Z " fill="#EDB6BC" transform="translate(738.8125,361.9375)"/>
<path d="M0 0 C-6.3 3.39 -12.92 4.3 -20 4 C-20 3.34 -20 2.68 -20 2 C-17.79 1.47 -15.59 0.95 -13.38 0.44 C-12.15 0.15 -10.92 -0.14 -9.65 -0.44 C-6.06 -0.99 -3.51 -0.82 0 0 Z " fill="#DD9F68" transform="translate(730,364)"/>
<path d="M0 0 C0 3.52 -0.57 4.06 -2.81 6.62 C-3.6 7.54 -3.6 7.54 -4.39 8.48 C-6 10 -6 10 -9 11 C-9.33 10.34 -9.66 9.68 -10 9 C-9.45 8.52 -8.89 8.04 -8.32 7.54 C-7.6 6.91 -6.87 6.28 -6.12 5.62 C-5.41 5 -4.69 4.37 -3.95 3.73 C-2.59 2.53 -1.28 1.28 0 0 Z M-13 11 C-12.34 11 -11.68 11 -11 11 C-12.05 13.62 -12.65 14.79 -15.12 16.25 C-15.74 16.5 -16.36 16.75 -17 17 C-15.85 14.53 -14.95 12.95 -13 11 Z " fill="#E3A973" transform="translate(493,285)"/>
<path d="M0 0 C0.66 0.33 1.32 0.66 2 1 C3.87 1.07 5.75 1.08 7.62 1.06 C8.63 1.05 9.63 1.04 10.66 1.04 C11.43 1.02 12.21 1.01 13 1 C10.24 2.84 8.7 3.48 5.56 4.19 C4.8 4.37 4.04 4.55 3.25 4.73 C0.87 5.02 -0.73 4.73 -3 4 C-2.01 2.68 -1.02 1.36 0 0 Z " fill="#EEBCC4" transform="translate(669,374)"/>
<path d="M0 0 C-1.96 2.05 -3.43 2.95 -6.27 3.2 C-8.52 3.19 -10.75 3.13 -13 3 C-13.33 2.34 -13.66 1.68 -14 1 C-8.84 -0.51 -5.34 -1.34 0 0 Z " fill="#E1A47B" transform="translate(568,396)"/>
<path d="M0 0 C1.24 0.02 1.24 0.02 2.5 0.04 C3.32 0.04 4.15 0.05 5 0.06 C5.64 0.07 6.28 0.09 6.93 0.1 C7.59 1.42 8.25 2.74 8.93 4.1 C7.5 3.98 6.06 3.86 4.62 3.72 C3.82 3.65 3.02 3.58 2.2 3.51 C-0.07 3.1 -0.07 3.1 -3.07 1.1 C-2.07 0.1 -2.07 0.1 0 0 Z " fill="#DD9F67" transform="translate(522.06640625,319.90234375)"/>
<path d="M0 0 C-8.34 4.26 -8.34 4.26 -12.38 3.62 C-12.91 3.42 -13.45 3.21 -14 3 C-9.48 -1.82 -6.01 -1.21 0 0 Z " fill="#EDB8BF" transform="translate(777,356)"/>
<path d="M0 0 C2.33 0.04 4.67 0.05 7 0 C2.12 3.25 -2.22 3.11 -8 3 C-8 2.01 -8 1.02 -8 0 C-4.59 -1.14 -3.45 -0.71 0 0 Z " fill="#ECB4B7" transform="translate(755,359)"/>
<path d="M0 0 C-1 2 -1 2 -4.12 3.12 C-7.9 3.98 -11.15 4.16 -15 4 C-10.03 -0.09 -6.37 -0.12 0 0 Z " fill="#DEA06C" transform="translate(640,381)"/>
<path d="M0 0 C-3.16 2.11 -4.51 2.34 -8.19 2.62 C-9.54 2.74 -9.54 2.74 -10.92 2.85 C-11.95 2.93 -11.95 2.93 -13 3 C-12 1 -12 1 -8.75 -0.19 C-5.23 -0.95 -3.38 -1.03 0 0 Z " fill="#DD9F67" transform="translate(750,360)"/>
<path d="M0 0 C0.99 0.5 0.99 0.5 2 1 C1.01 1.5 1.01 1.5 0 2 C0 1.34 0 0.68 0 0 Z " fill="#F9F9F9" transform="translate(470,286)"/>
<path d="M0 0 C0.99 0.5 0.99 0.5 2 1 C1.01 1.5 1.01 1.5 0 2 C0 1.34 0 0.68 0 0 Z " fill="#F9F9F9" transform="translate(518,249)"/>
<path d="" fill="#F9F9F9" transform="translate(0,0)"/>
<path d="M0 0 C2 1 2 1 2 1 Z " fill="#F9F9F9" transform="translate(727,242)"/>
<path d="" fill="#456F4C" transform="translate(0,0)"/>
<path d="" fill="#F9F9F9" transform="translate(0,0)"/>
<path d="" fill="#F9F9F9" transform="translate(0,0)"/>
<path d="" fill="#F9F9F9" transform="translate(0,0)"/>
<path d="" fill="#F9F9F9" transform="translate(0,0)"/>
<path d="" fill="#F9F9F9" transform="translate(0,0)"/>
<path d="" fill="#F9F9F9" transform="translate(0,0)"/>
<path d="" fill="#F9F9F9" transform="translate(0,0)"/>
<path d="" fill="#EEB7C0" transform="translate(0,0)"/>
<path d="" fill="#F9F9F9" transform="translate(0,0)"/>
<path d="" fill="#F9F9F9" transform="translate(0,0)"/>
</svg>
