<?xml version="1.0" encoding="UTF-8"?>
<!-- Generator: visioncortex VTracer 0.6.3 -->
<svg version="1.1" xmlns="http://www.w3.org/2000/svg" width="1280" height="640">
<path d="M0 0 C0.72 -0.01 1.44 -0.01 2.18 -0.02 C5.98 -0.04 9.79 -0.06 13.59 -0.08 C16.72 -0.09 19.85 -0.12 22.97 -0.16 C26.78 -0.21 30.58 -0.23 34.38 -0.24 C35.82 -0.25 37.26 -0.26 38.69 -0.29 C46.72 -0.41 52.91 -0.09 59.89 4.1 C62.94 5.87 65.75 6.31 69.23 6.9 C75.42 7.97 75.42 7.97 78.31 9.77 C81.85 11.81 85.23 12.15 89.23 12.71 C95.45 13.71 100.62 14.64 105.91 18.27 C106.53 19.26 107.15 20.25 107.79 21.27 C110.54 25.16 113.26 25.92 117.67 27.41 C119.91 28.27 119.91 28.27 121.91 30.27 C122.91 29.84 122.91 29.84 123.93 29.4 C132.76 25.84 139.99 25.23 149.23 27.52 C152.9 28.33 153.74 28.34 157.41 26.9 C160.72 23.43 161 20.93 161.91 16.27 C162.57 15.94 163.23 15.61 163.91 15.27 C162.92 14.28 162.92 14.28 161.91 13.27 C167.85 13.27 173.79 13.27 179.91 13.27 C179.91 13.93 179.91 14.59 179.91 15.27 C182.83 15.52 185.75 15.75 188.66 15.96 C189.49 16.03 190.31 16.11 191.16 16.18 C195.96 16.51 198.17 16.52 201.91 13.27 C210.47 11.78 219.18 13.67 227.54 15.46 C228.98 15.75 228.98 15.75 230.45 16.05 C234.7 17.04 237.3 17.71 240.55 20.71 C242.32 24.04 242.21 26.56 241.91 30.27 C246.96 32.49 249.8 32.26 254.91 30.27 C255.57 29.76 256.23 29.24 256.91 28.71 C260.78 25.94 265.5 26.23 270.1 26.27 C273.05 26.27 275.17 26.19 277.91 25.27 C277.91 25.93 277.91 26.59 277.91 27.27 C278.57 26.94 279.23 26.61 279.91 26.27 C279.87 25.66 279.82 25.04 279.77 24.41 C279.48 17.83 279.48 17.83 281.48 15.27 C288.85 12.25 297.1 13.18 304.91 13.27 C304.91 13.93 304.91 14.59 304.91 15.27 C305.48 15.25 306.05 15.23 306.64 15.2 C311.72 15.08 316.23 15.07 320.91 17.27 C321.92 19.15 321.92 19.15 322.79 21.34 C323.59 23.43 323.59 23.43 324.91 25.27 C326.77 25.97 326.77 25.97 328.93 26.02 C329.74 26.08 330.54 26.13 331.37 26.19 C335.51 26.33 339.63 26.34 343.77 26.27 C345.63 26.25 347.48 26.23 349.34 26.21 C352.23 26.18 355.12 26.15 358.01 26.1 C360.83 26.06 363.64 26.04 366.46 26.02 C367.32 26 368.18 25.98 369.06 25.96 C374.12 25.94 377.5 26.51 381.91 29.27 C382.24 29.6 382.57 29.93 382.91 30.27 C386.54 29.99 389.23 29.7 392.34 27.74 C397.81 25.5 403.13 25.92 408.98 26.02 C410.15 26.03 411.32 26.03 412.53 26.04 C417.48 26.08 422.06 26.25 426.91 27.27 C430.01 27.27 433.08 27.15 436.17 27.02 C438.91 27.27 438.91 27.27 440.75 28.57 C442.76 31.51 442.39 33.84 441.91 37.27 C439.37 40.43 437.77 41.99 433.91 43.27 C432.2 44.89 430.54 46.57 428.91 48.27 C427.77 49.39 427.77 49.39 426.6 50.52 C425.71 51.43 424.83 52.34 423.91 53.27 C422.96 54.21 422.96 54.21 422 55.17 C416.46 60.93 413.55 66.77 410.91 74.27 C410.25 74.27 409.59 74.27 408.91 74.27 C408.82 74.95 408.72 75.62 408.62 76.32 C407.73 81.64 407.15 84.68 402.91 88.27 C402.5 89.22 402.09 90.17 401.66 91.15 C398.04 97.63 391.62 100.67 384.91 103.27 C384.58 103.6 384.25 103.93 383.91 104.27 C380.44 104.56 376.96 104.51 373.48 104.52 C372.52 104.54 371.55 104.56 370.56 104.59 C364.63 104.62 359.69 103.87 354.06 101.98 C351.63 101.18 349.26 100.82 346.73 100.52 C341.24 99.49 338.12 96.76 334.91 92.27 C333.79 89.71 333.79 89.71 333.91 87.27 C334.85 85.24 335.85 83.24 336.91 81.27 C336.91 80.28 336.91 79.29 336.91 78.27 C343.93 75.18 351.28 74.8 358.79 76.02 C363.14 76.54 367.54 76.35 371.91 76.27 C371.91 74.29 371.91 72.31 371.91 70.27 C368.49 70.68 365.99 71.23 362.91 72.84 C359.63 74.41 357.51 74.53 353.91 74.27 C353.58 72.62 353.25 70.97 352.91 69.27 C344.53 68.6 344.53 68.6 336.85 71.4 C332.57 73.94 329.24 73.1 324.53 72.05 C321.91 71.27 321.91 71.27 319.28 70.17 C316.13 68.98 314.14 69.43 310.91 70.27 C309.43 71.26 309.43 71.26 307.91 72.27 C305.79 72.57 305.79 72.57 303.48 72.59 C302.71 72.6 301.95 72.62 301.17 72.64 C298.39 72.19 297.14 70.95 294.91 69.27 C288.46 68.04 283.65 69.65 277.93 72.52 C274.82 73.68 272.88 72.54 269.91 71.27 C265.38 70.91 262.32 70.96 258.16 72.77 C248.94 76.52 239.73 74 230.65 71.05 C226.8 70.25 224.14 70.42 220.31 70.97 C216.08 71.51 211.85 71.46 207.6 71.46 C206.72 71.47 205.84 71.49 204.94 71.5 C204.09 71.5 203.24 71.5 202.36 71.5 C201.6 71.51 200.84 71.51 200.06 71.52 C197.91 71.27 197.91 71.27 195.87 70.24 C191.91 68.28 186.51 70.16 182.29 70.96 C178.45 71.32 176.52 70.59 172.91 69.27 C171.09 68.91 169.25 68.58 167.41 68.27 C166.46 68.1 165.51 67.92 164.53 67.74 C162.56 67.39 160.58 67.07 158.6 66.77 C152.81 63.54 150.19 56.26 147.91 50.27 C145.27 49.94 142.63 49.61 139.91 49.27 C138.92 52.24 137.93 55.21 136.91 58.27 C137.57 58.27 138.23 58.27 138.91 58.27 C139.28 65.63 139.28 65.63 137.7 68.4 C135.91 70.27 135.91 70.27 133.68 70.64 C132.83 70.57 131.97 70.51 131.08 70.45 C130.12 70.39 129.17 70.33 128.18 70.27 C127.16 70.19 126.15 70.11 125.1 70.02 C123.02 69.9 120.93 69.77 118.84 69.64 C117.83 69.58 116.81 69.51 115.77 69.44 C112.08 69.22 108.42 69.12 104.73 69.09 C103.68 69.07 102.64 69.06 101.56 69.04 C98.93 69.09 98.93 69.09 96.95 70.38 C93.84 71.74 91.69 70.73 88.48 69.84 C84.22 68.66 81.17 67.85 76.91 69.27 C76.13 70.06 75.35 70.84 74.54 71.65 C71.42 74.77 68.99 75.71 64.91 77.27 C64.58 77.6 64.25 77.93 63.91 78.27 C55.24 80.01 45.25 81.98 37.18 77.26 C33.71 75.75 30.08 75.61 26.35 75.27 C20.25 74.68 14.34 73.91 8.37 72.45 C5.63 72.25 3.65 72.95 1.05 73.76 C-11.75 76.83 -26.87 75.12 -39.27 71.27 C-40.16 71.01 -41.05 70.74 -41.97 70.47 C-48.19 68.31 -52.68 65 -56.09 59.27 C-56.84 55.71 -56.97 52.82 -56.09 49.27 C-53.84 46.4 -53.84 46.4 -51.09 44.27 C-50.48 43.6 -49.88 42.92 -49.26 42.22 C-44.72 38.16 -37.87 38.24 -32 38.31 C-27.46 38.64 -24.13 39.19 -20.09 41.27 C-17.8 41.84 -15.52 42.27 -13.21 42.71 C-11.09 43.27 -11.09 43.27 -8.09 45.27 C-5.79 45.3 -5.79 45.3 -3.4 44.9 C-2.59 44.79 -1.78 44.68 -0.95 44.56 C-0.33 44.47 0.28 44.37 0.91 44.27 C1.16 43.47 1.41 42.66 1.66 41.84 C2.91 39.27 2.91 39.27 5.04 38.46 C5.66 38.4 6.28 38.34 6.91 38.27 C6.91 37.61 6.91 36.95 6.91 36.27 C5.8 36.31 4.68 36.35 3.52 36.38 C-1.4 36.38 -6.03 35.53 -10.84 34.52 C-11.71 34.34 -12.59 34.16 -13.49 33.97 C-30.74 30.29 -30.74 30.29 -35.77 25.96 C-38.07 21.26 -38.44 17.82 -37.27 12.71 C-34.93 7.83 -29.8 5.48 -25.09 3.27 C-24.43 3.27 -23.77 3.27 -23.09 3.27 C-23.09 2.61 -23.09 1.95 -23.09 1.27 C-15.41 0.06 -7.75 0.05 0 0 Z M37.91 42.27 C36.62 43.71 36.62 43.71 35.29 45.52 C34.82 46.13 34.36 46.73 33.88 47.35 C32.72 49.24 32.72 49.24 33.14 51.43 C33.79 53.47 33.79 53.47 35.98 54.52 C36.62 54.77 37.26 55.02 37.91 55.27 C39.58 52.6 40.91 50.27 41.91 47.27 C40.61 44.58 40.61 44.58 38.91 42.27 C38.58 42.27 38.25 42.27 37.91 42.27 Z M190.91 42.27 C189.56 43.4 189.56 43.4 189.85 46.34 C189.87 47.31 189.89 48.27 189.91 49.27 C190.9 49.77 190.9 49.77 191.91 50.27 C192.57 47.96 193.23 45.65 193.91 43.27 C192.92 42.94 191.93 42.61 190.91 42.27 Z M101.91 44.27 C100.61 47.27 100.61 47.27 99.91 50.27 C101.4 51.26 101.4 51.26 102.91 52.27 C105.59 51.47 105.59 51.47 107.91 50.27 C108.24 47.96 108.57 45.65 108.91 43.27 C105.28 43.21 105.28 43.21 101.91 44.27 Z " fill="#FA87BF" transform="translate(445.0859375,330.7265625)"/>
<path d="M0 0 C0.5 0.99 0.5 0.99 1 2 C4.71 2.51 8.39 2.84 12.12 3.12 C17.05 3.57 20.66 4.42 25 7 C25.33 6.01 25.66 5.02 26 4 C31.75 2.07 37.1 1.69 43.12 1.75 C43.9 1.74 44.67 1.73 45.46 1.73 C50.06 1.74 53.65 2.36 58 4 C60.75 4.17 60.75 4.17 63 4 C63 3.67 63 3.34 63 3 C68.21 2.14 73.22 1.85 78.5 1.88 C79.22 1.87 79.94 1.87 80.68 1.86 C92.4 1.88 92.4 1.88 96.88 5 C100.89 7.57 104.32 7.79 109 8 C109 6.68 109 5.36 109 4 C109 3.67 109 3.34 109 3 C114.64 1.82 120.2 1.78 125.94 1.75 C126.9 1.73 127.86 1.71 128.86 1.69 C134.75 1.66 138.77 2.29 144 5 C147.4 6.1 148.72 6.09 152.19 5 C158.23 3.41 164.02 4.39 170 6 C170 6.66 170 7.32 170 8 C175.44 8.5 175.44 8.5 181 9 C181.33 8.01 181.66 7.02 182 6 C182 6.99 182 7.98 182 9 C183.48 8.19 184.96 7.38 186.44 6.56 C187.26 6.11 188.08 5.66 188.93 5.19 C190.92 4.16 190.92 4.16 192 3 C197.79 2.61 200.83 3.17 206 6 C206.66 5.67 207.32 5.34 208 5 C208 5.66 208 6.32 208 7 C209.14 7.04 209.14 7.04 210.3 7.08 C211.29 7.13 212.29 7.19 213.31 7.25 C214.3 7.3 215.28 7.34 216.3 7.39 C219 8 219 8 220.89 9.83 C222 12 222 12 221.44 15.44 C220 18.99 218.5 21.13 216 24 C215.3 25.05 214.6 26.1 213.88 27.19 C212 30 212 30 210 32 C209.75 32.95 209.5 33.9 209.25 34.88 C207.65 38.88 205.55 39.68 202 42 C200.11 45.1 200.11 45.1 199 48 C198.34 48 197.68 48 197 48 C196.73 48.93 196.46 49.86 196.19 50.81 C194.48 55.39 192.83 56.59 188.45 58.77 C183.36 60.55 178.95 59.73 173.75 58.75 C172.87 58.6 171.98 58.45 171.07 58.3 C168.71 57.9 166.35 57.47 164 57 C163.3 56.86 162.61 56.72 161.89 56.58 C159.07 55.72 157.21 53.9 155 52 C156 50 156 50 159 48 C160.22 44.44 160.22 44.44 161 41 C160.34 40.67 159.68 40.34 159 40 C158.67 40.33 158.34 40.66 158 41 C155.23 41.66 152.85 42 150 42 C149.67 42.66 149.34 43.32 149 44 C148.01 44.33 147.02 44.66 146 45 C145.3 46.98 145.3 46.98 145 49.31 C144.31 52.9 143.72 55.39 141 58 C137.58 59.14 135.39 58.94 131.81 58.62 C130.08 58.48 130.08 58.48 128.32 58.32 C124.53 57.95 120.77 57.52 117 57 C117 56.34 117 55.68 117 55 C115.68 55.33 114.36 55.66 113 56 C110.3 53.13 109.05 51.69 108.75 47.69 C108.83 46.8 108.91 45.91 109 45 C108.01 45 107.02 45 106 45 C105.79 45.66 105.59 46.32 105.38 47 C103.47 51.17 101.25 54.75 98 58 C92.45 60.04 86.79 58.46 81.1 57.48 C78.63 57.1 76.42 56.88 73.94 56.94 C71 57 71 57 69.1 56.51 C66.83 55.96 64.85 55.87 62.52 55.87 C61.69 55.87 60.85 55.86 59.99 55.86 C59.13 55.87 58.26 55.87 57.38 55.88 C56.07 55.87 56.07 55.87 54.73 55.86 C53.9 55.86 53.07 55.87 52.21 55.87 C51.45 55.87 50.69 55.87 49.91 55.87 C47.91 55.88 47.91 55.88 46 57 C44.57 57.09 43.13 57.13 41.69 57.13 C40.35 57.13 40.35 57.13 38.99 57.14 C37.54 57.14 37.54 57.14 36.07 57.13 C35.08 57.13 34.09 57.13 33.07 57.14 C30.98 57.14 28.88 57.13 26.79 57.13 C23.58 57.13 20.37 57.13 17.16 57.14 C15.13 57.14 13.1 57.13 11.07 57.13 C10.1 57.13 9.14 57.14 8.15 57.14 C7.26 57.14 6.36 57.13 5.44 57.13 C4.65 57.13 3.87 57.13 3.06 57.13 C1 57 1 57 -2 56 C-4 56.32 -6 56.65 -8 57 C-28.14 57.86 -28.14 57.86 -36 55 C-38.11 51.84 -38.25 51.08 -38.23 47.47 C-38.23 46.6 -38.23 45.72 -38.22 44.82 C-38.21 43.91 -38.2 43 -38.19 42.06 C-38.19 41.16 -38.19 40.25 -38.19 39.31 C-38.16 35.36 -38.09 31.82 -37 28 C-37.99 27.67 -38.98 27.34 -40 27 C-39.01 27 -38.02 27 -37 27 C-37.03 26.24 -37.07 25.48 -37.11 24.69 C-37.29 17.78 -36.62 12.38 -34 6 C-33.67 5.01 -33.34 4.02 -33 3 C-29.79 2.94 -26.58 2.91 -23.38 2.88 C-22.47 2.86 -21.57 2.84 -20.64 2.82 C-15.67 2.79 -11.66 3.04 -7 5 C-7.5 3.51 -7.5 3.51 -8 2 C-6.87 1.86 -5.73 1.71 -4.56 1.56 C-1.19 1.39 -1.19 1.39 0 0 Z M5 54 C5 54.33 5 54.66 5 55 C10.61 55 16.22 55 22 55 C22 54.67 22 54.34 22 54 C16.39 54 10.78 54 5 54 Z " fill="#F94A1D" transform="translate(561,278)"/>
<path d="M0 0 C2.88 -0.11 5.75 -0.19 8.62 -0.25 C9.43 -0.28 10.24 -0.32 11.07 -0.35 C16.67 -0.44 19.45 0.5 24 4 C26.32 4.89 26.32 4.89 28.56 5.44 C32.83 6.76 35.1 8.52 38 12 C38.76 12.89 39.53 13.77 40.31 14.69 C42 17 42 17 42 19 C45.4 18.9 45.4 18.9 49 18 C50.68 15.64 50.68 15.64 52 13 C53.66 11.99 55.33 10.99 57 10 C57 9.01 57 8.02 57 7 C57 6.67 57 6.34 57 6 C58.28 5.73 58.28 5.73 59.59 5.45 C60.69 5.2 61.8 4.95 62.94 4.69 C64.04 4.44 65.14 4.2 66.28 3.95 C67.18 3.64 68.07 3.32 69 3 C69.33 2.01 69.66 1.02 70 0 C77.59 0 85.18 0 93 0 C93 0.66 93 1.32 93 2 C93.99 2.33 94.98 2.66 96 3 C98.06 6.17 99 8.26 99 12.06 C97.32 17 94.26 19.29 89.81 21.81 C87 23 87 23 85 23 C84.5 25.47 84.5 25.47 84 28 C82.68 28.33 81.36 28.66 80 29 C80.55 29.02 81.11 29.04 81.68 29.06 C84.2 29.16 86.73 29.27 89.25 29.38 C90.56 29.42 90.56 29.42 91.89 29.47 C92.74 29.51 93.58 29.55 94.45 29.59 C95.23 29.62 96 29.65 96.8 29.68 C99.29 30.04 100.9 30.62 103 32 C103.58 33.16 104.15 34.31 104.75 35.5 C106.2 38.29 106.2 38.29 108.89 39.73 C110.3 39.99 111.7 40.25 113.11 40.5 C116.87 41.5 118.23 44.69 120.09 47.85 C121.08 49.56 122.04 51.28 123 53 C124.66 54.66 126.91 54.44 129.19 54.75 C134.58 55.66 137.22 57.11 141 61 C137.95 68.69 137.95 68.69 135 71 C132.3 71.42 132.3 71.42 129.09 71.48 C127.94 71.51 126.78 71.54 125.59 71.57 C123.78 71.6 123.78 71.6 121.94 71.62 C119.55 71.68 117.16 71.73 114.78 71.79 C113.72 71.81 112.66 71.82 111.57 71.84 C109.01 71.83 109.01 71.83 107 73 C105.17 73.11 103.33 73.15 101.49 73.16 C100.32 73.17 99.15 73.18 97.94 73.19 C96.01 73.2 96.01 73.2 94.03 73.21 C92.66 73.22 91.3 73.23 89.93 73.24 C85.43 73.27 80.93 73.29 76.43 73.31 C75.66 73.31 74.89 73.32 74.11 73.32 C66.88 73.35 59.66 73.38 52.44 73.39 C43.2 73.41 33.96 73.46 24.73 73.53 C18.23 73.57 11.74 73.6 5.24 73.61 C1.36 73.61 -2.52 73.63 -6.39 73.66 C-10.05 73.7 -13.7 73.71 -17.35 73.7 C-19.32 73.7 -21.29 73.73 -23.27 73.76 C-32.97 73.68 -32.97 73.68 -37.35 69.96 C-38.66 68.49 -38.66 68.49 -40 67 C-39.01 66.5 -39.01 66.5 -38 66 C-38.08 65.07 -38.16 64.14 -38.25 63.19 C-38 60 -38 60 -36.38 58.38 C-33.48 56.7 -31.05 56.28 -27.75 55.81 C-26.67 55.65 -25.59 55.5 -24.48 55.33 C-23.66 55.22 -22.84 55.11 -22 55 C-21.99 54.41 -21.97 53.82 -21.96 53.21 C-21.7 48.99 -21.44 46.59 -18.88 43.12 C-16 41 -16 41 -12.38 39.5 C-8.57 37.81 -7.78 36.65 -6 33 C-3.15 30.15 -0.2 30.54 3.62 30.38 C4.68 30.32 4.68 30.32 5.77 30.26 C7.51 30.16 9.25 30.08 11 30 C10.5 29.01 10.5 29.01 10 28 C9.09 28.1 8.18 28.21 7.25 28.31 C4 28 4 28 2 25.75 C1.34 24.84 0.68 23.94 0 23 C-1.03 22.36 -2.06 21.72 -3.12 21.06 C-6.6 18.57 -7.25 17.16 -8 13 C-8.06 10 -8.06 10 -7 7 C-5.27 5.22 -3.47 3.71 -1.5 2.2 C-1 1.8 -0.51 1.41 0 1 C0 0.67 0 0.34 0 0 Z M73 28 C74 30 74 30 74 30 Z " fill="#F9491D" transform="translate(601,204)"/>
<path d="M0 0 C0.55 0.31 1.1 0.63 1.66 0.95 C4.28 2.13 6.53 2.45 9.38 2.81 C14.69 3.69 17.27 5.17 21 9 C17.95 16.69 17.95 16.69 15 19 C12.3 19.42 12.3 19.42 9.09 19.48 C7.94 19.51 6.78 19.54 5.59 19.57 C3.78 19.6 3.78 19.6 1.94 19.62 C-0.45 19.68 -2.84 19.73 -5.22 19.79 C-6.28 19.81 -7.34 19.82 -8.43 19.84 C-10.99 19.83 -10.99 19.83 -13 21 C-14.83 21.11 -16.67 21.15 -18.51 21.16 C-20.26 21.18 -20.26 21.18 -22.06 21.19 C-23.99 21.2 -23.99 21.2 -25.97 21.21 C-27.34 21.22 -28.7 21.23 -30.07 21.24 C-34.57 21.27 -39.07 21.29 -43.57 21.31 C-44.34 21.31 -45.11 21.32 -45.89 21.32 C-53.12 21.35 -60.34 21.38 -67.56 21.39 C-76.8 21.41 -86.04 21.46 -95.27 21.53 C-101.77 21.57 -108.26 21.6 -114.76 21.61 C-118.64 21.61 -122.52 21.63 -126.39 21.66 C-130.05 21.7 -133.7 21.71 -137.35 21.7 C-139.32 21.7 -141.29 21.73 -143.27 21.76 C-152.97 21.68 -152.97 21.68 -157.35 17.96 C-158.23 16.98 -159.1 16.01 -160 15 C-159.34 14.67 -158.68 14.34 -158 14 C-158.08 13.07 -158.16 12.14 -158.25 11.19 C-158 8 -158 8 -156.38 6.38 C-153.48 4.7 -151.05 4.28 -147.75 3.81 C-146.13 3.57 -146.13 3.57 -144.48 3.33 C-143.66 3.22 -142.84 3.11 -142 3 C-142 2.34 -142 1.68 -142 1 C-138.12 2.88 -138.12 2.88 -137 4 C-135.3 4.1 -133.6 4.14 -131.9 4.15 C-130.8 4.15 -129.69 4.16 -128.55 4.17 C-126.72 4.17 -126.72 4.17 -124.85 4.18 C-123.57 4.18 -122.29 4.19 -120.97 4.2 C-117.45 4.21 -113.93 4.22 -110.41 4.23 C-108.21 4.24 -106.01 4.24 -103.81 4.25 C-96.93 4.27 -90.06 4.28 -83.18 4.29 C-75.24 4.3 -67.29 4.33 -59.35 4.37 C-53.21 4.4 -47.08 4.41 -40.94 4.42 C-37.28 4.42 -33.61 4.43 -29.94 4.45 C-25.85 4.48 -21.76 4.48 -17.67 4.47 C-16.45 4.48 -15.24 4.5 -13.99 4.51 C-7.51 4.54 -7.51 4.54 -1.71 1.97 C-1.14 1.32 -0.58 0.67 0 0 Z " fill="#F9C037" transform="translate(721,256)"/>
<path d="M0 0 C1.6 -0.08 3.21 -0.14 4.81 -0.19 C6.15 -0.24 6.15 -0.24 7.52 -0.29 C10 0 10 0 11.68 1.02 C13.7 4.05 14.42 7.38 15.25 10.88 C15.44 11.58 15.62 12.29 15.81 13.02 C17.53 20.02 16.33 23.77 13 30 C12.34 30 11.68 30 11 30 C10.67 31.32 10.34 32.64 10 34 C9.34 34 8.68 34 8 34 C7.67 34.99 7.34 35.98 7 37 C4.05 43.61 -0.78 50.06 -6 55.06 C-6.66 55.7 -7.32 56.34 -8 57 C-8 57.66 -8 58.32 -8 59 C-9.96 60.71 -11.96 62.38 -14 64 C-14.33 64.33 -14.66 64.66 -15 65 C-24.6 68.85 -35.51 66.38 -45 63 C-47.62 61.56 -47.62 61.56 -50 60 C-51.56 59.37 -53.12 58.74 -54.69 58.12 C-58.77 56.32 -58.77 56.32 -60.62 53.69 C-61.14 49.97 -61.18 47.6 -60 44 C-57.5 42.2 -54.88 41.06 -52 40 C-52.33 38.35 -52.66 36.7 -53 35 C-52.44 35.54 -51.89 36.07 -51.31 36.62 C-50.55 37.08 -49.79 37.53 -49 38 C-46.46 37.23 -46.46 37.23 -44 36 C-42.68 36 -41.36 36 -40 36 C-39.67 35.01 -39.34 34.02 -39 33 C-38.01 32.5 -38.01 32.5 -37 32 C-37 31.67 -37 31.34 -37 31 C-36.18 30.81 -35.36 30.61 -34.52 30.41 C-33.44 30.15 -32.36 29.89 -31.25 29.62 C-30.18 29.37 -29.12 29.11 -28.02 28.85 C-25.42 28.12 -23.28 27.42 -21 26 C-20.19 23.95 -20.19 23.95 -20 22 C-20 22.99 -20 23.98 -20 25 C-18.37 24.58 -16.75 24.14 -15.12 23.69 C-13.77 23.32 -13.77 23.32 -12.38 22.95 C-9.68 22.13 -9.68 22.13 -8 19 C-5.18 18.05 -5.18 18.05 -1.88 17.31 C-0.78 17.06 0.32 16.81 1.45 16.55 C2.29 16.37 3.13 16.19 4 16 C3.43 13.65 2.8 11.42 2 9.12 C1.03 6.08 0.45 3.16 0 0 Z M11 23 C12 25 12 25 12 25 Z M3 34 C3.66 34.66 4.32 35.32 5 36 C5 35.34 5 34.68 5 34 C4.34 34 3.68 34 3 34 Z " fill="#F94A1D" transform="translate(833,269)"/>
<path d="M0 0 C2.88 1.5 2.88 1.5 5 3 C4.57 5.47 4.31 6.71 2.44 8.44 C0.72 9.98 0.72 9.98 0.81 12.69 C0.87 13.45 0.94 14.21 1 15 C4.54 17.12 7.92 17.62 12 18 C12.66 17.67 13.32 17.34 14 17 C14.33 17.99 14.66 18.98 15 20 C18.09 22.39 21.23 23.4 24.94 24.44 C29.29 25.67 32.23 27.49 36 30 C40.29 31.79 44.65 33.38 49 35 C55.62 37.48 61.31 40.55 66 46 C66.82 48.05 66.82 48.05 67 50 C65.2 52.87 63.99 54.64 60.75 55.81 C60.17 55.87 59.6 55.94 59 56 C59 56.66 59 57.32 59 58 C54.64 60.01 50.84 61.54 46 62 C45.67 61.67 45.34 61.34 45 61 C44.67 61.99 44.34 62.98 44 64 C36.84 67.86 28.96 67.73 21 67 C18 65 18 65 17 61.94 C16.67 60.97 16.34 60 16 59 C14.51 58.5 14.51 58.5 13 58 C12.34 57.01 11.68 56.02 11 55 C10.01 54.34 9.02 53.68 8 53 C8 52.34 8 51.68 8 51 C6.68 49.32 5.35 47.66 4 46 C2.99 44.34 1.99 42.67 1 41 C0.44 40.28 -0.11 39.56 -0.69 38.81 C-2 37 -2 37 -2 35 C-2.99 34.67 -3.98 34.34 -5 34 C-6.1 32.44 -6.1 32.44 -7.06 30.56 C-8.26 28.26 -9.13 26.87 -11 25 C-11 23.68 -11 22.36 -11 21 C-11.34 19.48 -11.34 19.48 -11.69 17.94 C-11.79 16.97 -11.89 16 -12 15 C-11.51 14.54 -11.02 14.07 -10.52 13.6 C-8.78 12.1 -8.78 12.1 -8.81 9.84 C-8.87 9.07 -8.94 8.3 -9 7.5 C-9.33 3.43 -9.33 3.43 -7.68 1.24 C-5.07 -0.69 -3.16 -0.38 0 0 Z M47 57 C47.33 57.66 47.66 58.32 48 59 C48.33 58.34 48.66 57.68 49 57 C48.34 57 47.68 57 47 57 Z " fill="#F94C21" transform="translate(442,261)"/>
<path d="M0 0 C4.8 -0.06 8.93 1.04 12.5 4.25 C14.06 7.11 15.12 9.86 16 13 C13.27 16.05 11.44 17.74 7.35 18.48 C3.99 18.65 0.65 18.68 -2.72 18.65 C-4 18.66 -5.28 18.66 -6.6 18.67 C-10.1 18.7 -13.6 18.69 -17.1 18.67 C-20.77 18.66 -24.43 18.67 -28.1 18.68 C-34.26 18.69 -40.42 18.68 -46.57 18.65 C-53.69 18.62 -60.8 18.63 -67.92 18.66 C-74.03 18.68 -80.15 18.69 -86.26 18.67 C-89.91 18.67 -93.56 18.66 -97.21 18.68 C-101.28 18.7 -105.34 18.67 -109.41 18.65 C-111.22 18.66 -111.22 18.66 -113.07 18.68 C-122.15 18.56 -122.15 18.56 -125.27 15.59 C-127 13 -127 13 -127.26 10.9 C-126.15 7.09 -125.3 5.28 -122.31 2.5 C-118.47 0.76 -116.17 0.47 -112 1 C-110.92 1.75 -110.92 1.75 -109.81 2.51 C-106.08 4.49 -102.73 4.41 -98.61 4.36 C-97.36 4.36 -97.36 4.36 -96.08 4.36 C-93.33 4.37 -90.58 4.35 -87.82 4.33 C-85.9 4.33 -83.97 4.32 -82.04 4.32 C-78 4.32 -73.95 4.3 -69.9 4.28 C-64.76 4.25 -59.62 4.24 -54.48 4.24 C-49.53 4.23 -44.58 4.22 -39.64 4.2 C-38.71 4.2 -37.79 4.2 -36.84 4.2 C-27.85 4.17 -18.87 4.1 -9.9 3.67 C-8.63 3.62 -7.37 3.56 -6.07 3.5 C-2.79 2.97 -2.05 2.46 0 0 Z " fill="#FA88BD" transform="translate(706,243)"/>
<path d="M0 0 C1.91 3.12 1.68 5.36 1.19 8.94 C-1.35 12.1 -2.96 13.65 -6.81 14.94 C-8.52 16.56 -10.19 18.23 -11.81 19.94 C-12.96 21.05 -12.96 21.05 -14.12 22.19 C-15.01 23.1 -15.9 24 -16.81 24.94 C-17.45 25.56 -18.08 26.19 -18.73 26.83 C-24.26 32.59 -27.17 38.43 -29.81 45.94 C-30.47 45.94 -31.13 45.94 -31.81 45.94 C-31.91 46.61 -32.01 47.29 -32.11 47.98 C-33 53.31 -33.58 56.35 -37.81 59.94 C-38.23 60.89 -38.64 61.83 -39.06 62.81 C-42.69 69.29 -49.1 72.34 -55.81 74.94 C-56.14 75.27 -56.47 75.6 -56.81 75.94 C-60.39 76.19 -63.98 76.12 -67.56 76.12 C-68.57 76.14 -69.57 76.15 -70.6 76.16 C-71.57 76.16 -72.55 76.17 -73.55 76.17 C-74.88 76.17 -74.88 76.17 -76.24 76.18 C-79.07 75.91 -81.23 75.11 -83.81 73.94 C-83.48 72.62 -83.15 71.3 -82.81 69.94 C-81.94 69.79 -81.07 69.64 -80.17 69.49 C-66.03 66.89 -66.03 66.89 -54.84 58.5 C-53.34 56.03 -52.06 53.54 -50.81 50.94 C-50.29 50.07 -49.76 49.21 -49.22 48.32 C-47.68 45.93 -47.68 45.93 -46.88 42.94 C-45.81 39.94 -45.81 39.94 -43.94 37.62 C-42.02 35.2 -41.09 33.43 -39.94 30.62 C-35.72 20.68 -27.88 13.72 -19.88 6.75 C-19.28 6.22 -18.69 5.68 -18.07 5.13 C-13.25 0.95 -6.36 -3.73 0 0 Z " fill="#F9C037" transform="translate(885.8125,359.0625)"/>
<path d="M0 0 C1.24 0.02 1.24 0.02 2.5 0.04 C3.32 0.04 4.15 0.05 5 0.06 C5.64 0.07 6.28 0.09 6.93 0.1 C5.61 0.76 4.29 1.42 2.93 2.1 C3.49 2.12 4.04 2.14 4.61 2.16 C7.14 2.25 9.66 2.36 12.18 2.47 C13.49 2.52 13.49 2.52 14.83 2.57 C16.09 2.62 16.09 2.62 17.39 2.68 C18.16 2.72 18.94 2.75 19.74 2.78 C22.17 3.13 23.83 3.82 25.93 5.1 C27.3 7.34 28.01 9.61 28.93 12.1 C26.65 14.95 25.42 16.01 21.77 16.7 C20.52 16.74 19.26 16.79 17.97 16.83 C17.28 16.86 16.58 16.89 15.86 16.92 C13.55 17.01 11.24 17.06 8.93 17.1 C8.15 17.11 7.36 17.13 6.56 17.15 C0.47 17.26 -5.62 17.29 -11.7 17.3 C-12.65 17.3 -13.6 17.31 -14.58 17.31 C-19.59 17.32 -24.59 17.33 -29.6 17.34 C-34.75 17.34 -39.91 17.37 -45.06 17.4 C-49.05 17.41 -53.04 17.42 -57.02 17.42 C-58.93 17.42 -60.83 17.43 -62.73 17.45 C-65.38 17.46 -68.03 17.46 -70.67 17.45 C-71.84 17.47 -71.84 17.47 -73.04 17.48 C-77.6 17.45 -80.38 16.79 -84.07 14.1 C-85.39 13.42 -86.72 12.74 -88.07 12.1 C-87.41 11.77 -86.75 11.44 -86.07 11.1 C-85.05 9.44 -84.05 7.78 -83.07 6.1 C-80.14 3.18 -76.93 3.6 -73 3.41 C-72.26 3.36 -71.51 3.32 -70.74 3.27 C-68.85 3.16 -66.96 3.12 -65.07 3.1 C-64.74 3.43 -64.41 3.76 -64.07 4.1 C-61.45 4.35 -58.87 4.53 -56.25 4.66 C-55.43 4.7 -54.61 4.74 -53.76 4.78 C-45.99 5.13 -38.22 5.24 -30.44 5.29 C-28.66 5.3 -28.66 5.3 -26.85 5.32 C-18.48 5.33 -10.76 4.71 -3.07 1.1 C-2.07 0.1 -2.07 0.1 0 0 Z " fill="#FAC037" transform="translate(678.06640625,230.90234375)"/>
<path d="M0 0 C0.75 2.12 0.75 2.12 1 5 C-1.36 9.35 -4.42 12.62 -8 16 C-8.99 14.51 -8.99 14.51 -10 13 C-11.96 12.42 -11.96 12.42 -14.12 12.31 C-15.4 12.21 -16.68 12.11 -18 12 C-18.99 14.97 -19.98 17.94 -21 21 C-20.34 21 -19.68 21 -19 21 C-18.63 28.36 -18.63 28.36 -20.22 31.12 C-22 33 -22 33 -24.23 33.36 C-25.52 33.27 -25.52 33.27 -26.83 33.17 C-27.79 33.11 -28.75 33.06 -29.73 33 C-31.26 32.87 -31.26 32.87 -32.81 32.75 C-34.9 32.62 -36.98 32.5 -39.07 32.37 C-40.09 32.31 -41.1 32.24 -42.15 32.17 C-45.83 31.95 -49.5 31.85 -53.19 31.81 C-54.76 31.79 -54.76 31.79 -56.36 31.77 C-58.99 31.82 -58.99 31.82 -60.96 33.1 C-64.07 34.47 -66.23 33.46 -69.44 32.56 C-73.69 31.38 -76.74 30.58 -81 32 C-81.78 32.78 -82.57 33.57 -83.38 34.38 C-86.49 37.49 -88.93 38.43 -93 40 C-93.33 40.33 -93.66 40.66 -94 41 C-102.3 42.66 -110.89 44.17 -119 41 C-121.27 39.42 -121.27 39.42 -123 38 C-122.67 37.34 -122.34 36.68 -122 36 C-120.07 35.68 -118.13 35.44 -116.19 35.25 C-107.94 34.11 -100.8 31.11 -94.33 25.82 C-91.62 23.71 -90.35 23.62 -87 24 C-86.34 25.32 -85.68 26.64 -85 28 C-75.88 28.51 -75.88 28.51 -67 26.94 C-64 26 -64 26 -61.55 26.44 C-56.41 27.25 -51.32 27.1 -46.12 27.06 C-44.52 27.06 -44.52 27.06 -42.88 27.05 C-40.26 27.04 -37.63 27.02 -35 27 C-33.67 23.97 -33.67 23.97 -35 20.75 C-36.49 15.16 -35.94 11.63 -33.06 6.62 C-30.63 3.53 -29.97 3.13 -26.12 2.62 C-23 3 -23 3 -20.94 5.5 C-20.3 6.32 -19.66 7.15 -19 8 C-16.64 9 -16.64 9 -14 8 C-12.03 6.32 -10.29 4.54 -8.55 2.63 C-5.83 -0.23 -3.8 -0.1 0 0 Z " fill="#F8A769" transform="translate(603,368)"/>
<path d="M0 0 C0.5 0.99 0.5 0.99 1 2 C3.78 2.32 6.54 2.38 9.34 2.46 C12 3 12 3 13.89 4.82 C15 7 15 7 14.44 10.44 C13 13.99 11.5 16.13 9 19 C8.3 20.05 7.6 21.1 6.88 22.19 C5 25 5 25 3 27 C2.75 27.95 2.5 28.9 2.25 29.88 C0.65 33.88 -1.45 34.68 -5 37 C-6.89 40.1 -6.89 40.1 -8 43 C-8.66 43 -9.32 43 -10 43 C-10.27 43.93 -10.54 44.86 -10.81 45.81 C-12.51 50.38 -14.17 51.59 -18.53 53.77 C-23.7 55.58 -28.23 54.69 -33.5 53.69 C-34.42 53.53 -35.34 53.37 -36.28 53.21 C-38.52 52.83 -40.76 52.42 -43 52 C-40.48 50.32 -38.91 49.57 -36.12 48.69 C-28.74 45.93 -26.16 40.58 -22.67 33.91 C-19.57 28.5 -15.51 23.81 -11.37 19.17 C-6.49 13.7 -1.43 7.34 0 0 Z " fill="#F9BF38" transform="translate(768,283)"/>
<path d="M0 0 C1.6 -0.08 3.21 -0.14 4.81 -0.19 C6.15 -0.24 6.15 -0.24 7.52 -0.29 C10 0 10 0 11.68 1.02 C13.7 4.05 14.42 7.38 15.25 10.88 C15.44 11.58 15.62 12.29 15.81 13.02 C17.53 20.02 16.33 23.77 13 30 C12.34 30 11.68 30 11 30 C10.67 31.32 10.34 32.64 10 34 C9.34 34 8.68 34 8 34 C7.67 34.99 7.34 35.98 7 37 C5.28 41.01 2.73 44.61 0 48 C-0.33 48 -0.66 48 -1 48 C-1.27 47.07 -1.54 46.14 -1.81 45.19 C-2.94 42.17 -3.71 41.08 -6 39 C-6 38.34 -6 37.68 -6 37 C-6.59 36.91 -7.17 36.83 -7.77 36.74 C-10.63 35.79 -11.71 34.43 -13.62 32.12 C-14.22 31.43 -14.81 30.73 -15.41 30.01 C-17 28 -17 28 -19 25 C-18.29 24.73 -17.58 24.47 -16.85 24.2 C-15.93 23.84 -15.01 23.49 -14.06 23.12 C-13.15 22.78 -12.23 22.43 -11.29 22.07 C-8.85 21.22 -8.85 21.22 -8 19 C-5.28 18.15 -5.28 18.15 -1.94 17.38 C-0.83 17.11 0.27 16.85 1.41 16.59 C2.69 16.3 2.69 16.3 4 16 C3.43 13.65 2.8 11.42 2 9.12 C1.03 6.08 0.45 3.16 0 0 Z M11 23 C12 25 12 25 12 25 Z M3 34 C3.66 34.66 4.32 35.32 5 36 C5 35.34 5 34.68 5 34 C4.34 34 3.68 34 3 34 Z " fill="#F94F1F" transform="translate(833,269)"/>
<path d="M0 0 C2.88 1.5 2.88 1.5 5 3 C4.57 5.47 4.31 6.71 2.44 8.44 C0.72 9.98 0.72 9.98 0.81 12.69 C0.87 13.45 0.94 14.21 1 15 C4.54 17.12 7.92 17.62 12 18 C12.66 17.67 13.32 17.34 14 17 C14.33 17.99 14.66 18.98 15 20 C16.63 21.22 16.63 21.22 18.56 22.19 C19.7 22.79 20.83 23.38 22 24 C18.32 28.4 14.55 32.54 10.42 36.52 C8.9 37.96 8.9 37.96 8 40 C7.34 40 6.68 40 6 40 C5.34 41.32 4.68 42.64 4 44 C2.99 42.88 2 41.75 1 40.62 C0.44 40 -0.11 39.37 -0.69 38.73 C-2 37 -2 37 -2 35 C-2.99 34.67 -3.98 34.34 -5 34 C-6.1 32.44 -6.1 32.44 -7.06 30.56 C-8.26 28.26 -9.13 26.87 -11 25 C-11 23.68 -11 22.36 -11 21 C-11.34 19.48 -11.34 19.48 -11.69 17.94 C-11.79 16.97 -11.89 16 -12 15 C-11.51 14.54 -11.02 14.07 -10.52 13.6 C-8.78 12.1 -8.78 12.1 -8.81 9.84 C-8.87 9.07 -8.94 8.3 -9 7.5 C-9.33 3.43 -9.33 3.43 -7.68 1.24 C-5.07 -0.69 -3.16 -0.38 0 0 Z " fill="#F94E1E" transform="translate(442,261)"/>
<path d="M0 0 C4.08 1.13 8.04 2.5 12 4 C13.12 9.75 13.12 9.75 12 12 C10.07 12.49 10.07 12.49 7.56 12.88 C3.74 13.59 0.11 14.47 -3.56 15.75 C-4.39 16.03 -5.22 16.32 -6.07 16.61 C-8.34 17.93 -8.34 17.93 -8.78 21.14 C-8.85 22.08 -8.92 23.03 -9 24 C-6.94 23.91 -4.87 23.8 -2.81 23.69 C-1.66 23.63 -0.52 23.57 0.67 23.51 C4.17 22.97 6.05 21.88 9 20 C11.81 20.31 11.81 20.31 14 21 C13.4 25.14 11.99 28.18 9.94 31.81 C9.39 32.79 8.84 33.76 8.28 34.77 C7.86 35.51 7.43 36.24 7 37 C5.35 37 3.7 37 2 37 C3.32 36.34 4.64 35.68 6 35 C6 34.34 6 33.68 6 33 C4.3 33.06 4.3 33.06 2.56 33.12 C-2.14 33.14 -6.46 32.18 -11 31 C-11.02 30.24 -11.04 29.47 -11.06 28.69 C-11.37 27.8 -11.68 26.91 -12 26 C-13.7 25.28 -15.4 24.57 -17.14 23.94 C-20.41 22.29 -22.61 19.36 -24 16 C-23.62 13.78 -23.62 13.78 -23 12 C-19.59 11.22 -16.49 10.9 -13 11 C-12.85 9.11 -12.85 9.11 -12.69 7.19 C-12.48 4.64 -12.25 3.33 -10.7 1.27 C-7.52 -1.1 -3.74 -0.51 0 0 Z " fill="#F990A4" transform="translate(446,334)"/>
<path d="M0 0 C1.32 0.33 2.64 0.66 4 1 C4.15 1.96 4.15 1.96 4.31 2.94 C4.65 3.96 4.65 3.96 5 5 C5.99 5.33 6.98 5.66 8 6 C10 9 10 9 9.94 10.88 C8.57 13.98 6.56 15.81 4 18 C3.01 18 2.02 18 1 18 C0.5 19.49 0.5 19.49 0 21 C-2.31 21 -4.62 21 -7 21 C-7.33 21.66 -7.66 22.32 -8 23 C-8.99 23.33 -9.98 23.66 -11 24 C-11.7 25.98 -11.7 25.98 -12 28.31 C-12.69 31.9 -13.28 34.39 -16 37 C-19.49 38.16 -21.84 37.93 -25.5 37.62 C-27.22 37.49 -27.22 37.49 -28.97 37.35 C-32 37 -32 37 -35 36 C-35 35.34 -35 34.68 -35 34 C-34.05 33.5 -33.1 33.01 -32.12 32.5 C-29.79 31.06 -29.11 30.37 -28.33 27.69 C-28.2 26.82 -28.07 25.96 -27.94 25.06 C-27.39 21.51 -27.04 20.05 -24.94 17 C-22.09 15.06 -20.99 14.7 -17.75 14.19 C-10.01 12.84 -4.41 6.14 0 0 Z " fill="#F9C037" transform="translate(718,299)"/>
<path d="M0 0 C1.63 0.06 3.25 0.15 4.88 0.25 C6.23 0.32 6.23 0.32 7.62 0.39 C10 1 10 1 11.29 2.5 C13.24 9.37 13.84 19.25 10.66 25.74 C9 27.62 9 27.62 6 30 C5.01 29.01 4.02 28.02 3 27 C2.75 28.07 2.5 29.14 2.25 30.25 C0.99 34.04 0.31 35.79 -3 38 C-8.15 38 -11.96 36.01 -16 33 C-16.94 29.25 -16.94 29.25 -17 26 C-11.89 21.8 -7.31 19.03 -1 17 C-1.65 13.67 -1.65 13.67 -4.06 11.25 C-5.02 10.63 -5.02 10.63 -6 10 C-5.61 7.18 -5.29 6.23 -3 4.44 C-2.34 3.96 -1.68 3.49 -1 3 C-0.67 2.01 -0.34 1.02 0 0 Z " fill="#F9C037" transform="translate(633,347)"/>
<path d="M0 0 C1.45 2.9 1.37 4.77 1 8 C-0.28 9.44 -1.56 10.88 -2.88 12.3 C-5.04 15.58 -4.66 19.25 -4 23 C-2.67 25.98 -2.67 25.98 -1 28 C-6.82 30 -12.05 30.3 -18.19 30.25 C-19.08 30.26 -19.97 30.27 -20.88 30.27 C-21.74 30.27 -22.6 30.27 -23.48 30.27 C-24.25 30.26 -25.03 30.26 -25.82 30.26 C-28 30 -28 30 -30.04 28.96 C-34.01 27.01 -39.41 28.89 -43.62 29.69 C-47.45 30.04 -49.44 29.35 -53 28 C-55.99 27.27 -58.99 26.63 -62 26 C-62 25.34 -62 24.68 -62 24 C-53.31 22.96 -44.97 22.67 -36.25 23.56 C-29.44 24.2 -22.8 23.65 -16 23 C-16.25 21.51 -16.25 21.51 -16.5 20 C-16.58 19.36 -16.66 18.72 -16.74 18.06 C-16.99 16.05 -17.31 14.06 -17.62 12.06 C-17.59 9.14 -17.06 8.08 -15.27 5.71 C-10.24 0.82 -6.99 -1.02 0 0 Z " fill="#FAC137" transform="translate(671,372)"/>
<path d="M0 0 C8.09 0.35 8.09 0.35 11.44 2.75 C13 5 13 5 13.88 7.62 C14.84 10.34 14.84 10.34 18.12 11.31 C19.55 11.65 19.55 11.65 21 12 C21 12.33 21 12.66 21 13 C20.24 13 19.48 13.01 18.69 13.01 C11.79 13.27 7.44 14.29 1.94 18.53 C0 20 0 20 -1.96 20.75 C-5.16 22.71 -6.69 25.85 -8.56 29 C-12.62 35.75 -12.62 35.75 -16 38 C-17.53 36.78 -17.53 36.78 -19 35 C-19.33 24.67 -12.21 14.85 -5.61 7.56 C-4 6 -4 6 -1 4 C-0.28 1.94 -0.28 1.94 0 0 Z " fill="#F9C037" transform="translate(755,346)"/>
<path d="M0 0 C0.66 0.99 1.32 1.98 2 3 C2.99 3.66 3.98 4.32 5 5 C6.04 6.31 7.03 7.64 8 9 C10.79 12.94 10.79 12.94 15 15 C18.35 18.28 19.8 19.86 20.62 24.5 C19.81 29.07 18.2 30.72 15 34 C12.83 33.49 11 33 9 32 C9 31.34 9 30.68 9 30 C8.1 29.91 8.1 29.91 7.19 29.81 C4.12 28.67 3.65 26.79 2 24 C0.04 22.29 -1.96 20.62 -4 19 C-5.88 17.31 -5.88 17.31 -7 16 C-7 15.34 -7 14.68 -7 14 C-7.6 13.73 -8.2 13.46 -8.81 13.19 C-10.98 12.01 -12.31 10.77 -14 9 C-13.32 8.81 -12.65 8.61 -11.95 8.41 C-10.62 8.02 -10.62 8.02 -9.25 7.62 C-8.37 7.37 -7.49 7.11 -6.58 6.85 C-4.24 6.08 -2.17 5.16 0 4 C0 2.68 0 1.36 0 0 Z " fill="#F94D1E" transform="translate(812,291)"/>
<path d="M0 0 C3 2 3 2 4 5 C4.07 6.89 4.08 8.79 4.06 10.69 C4.05 11.68 4.04 12.68 4.04 13.7 C4.02 14.46 4.01 15.22 4 16 C2.68 15.67 1.36 15.34 0 15 C-0.21 15.66 -0.41 16.32 -0.62 17 C-2.53 21.17 -4.75 24.75 -8 28 C-13.54 30.04 -19.2 28.46 -24.89 27.48 C-28.35 26.95 -31.51 26.84 -35 27 C-32.87 24.87 -31.96 24.52 -29.12 23.81 C-28.45 23.63 -27.77 23.45 -27.07 23.27 C-24.77 22.97 -23.19 23.31 -21 24 C-21.06 23.32 -21.12 22.65 -21.18 21.95 C-21.22 21.06 -21.27 20.17 -21.31 19.25 C-21.4 17.93 -21.4 17.93 -21.49 16.58 C-21 14 -21 14 -18.86 11.86 C-15.01 9.36 -10.99 7.49 -6.84 5.56 C-4.01 4.01 -2.15 2.39 0 0 Z " fill="#FABE36" transform="translate(667,308)"/>
<path d="M0 0 C1.44 0.11 2.88 0.24 4.31 0.38 C5.51 0.48 5.51 0.48 6.74 0.59 C9 1 9 1 12 3 C11.81 4.88 11.81 4.88 11 7 C8.44 8.25 8.44 8.25 6 9 C6.12 10.76 6.12 10.76 6.25 12.56 C6.28 17.38 4.66 20.05 2 24 C1.67 24.33 1.34 24.66 1 25 C0.5 27.83 0.5 27.83 1 31 C3.38 33.88 3.38 33.88 6 36 C5.34 37.32 4.68 38.64 4 40 C0.15 40 -2.01 39.81 -5.04 37.33 C-6.4 35.93 -7.74 34.51 -9.07 33.08 C-11.52 30.44 -14.19 28.25 -17 26 C-16.67 24.35 -16.34 22.7 -16 21 C-15.15 20.78 -15.15 20.78 -14.28 20.55 C-8.73 18.94 -3.15 17.14 0 12 C0.57 7.93 0.42 4.08 0 0 Z " fill="#F8A175" transform="translate(512,338)"/>
<path d="M0 0 C2.86 1.17 5.6 2.5 8.32 3.95 C8.08 13.4 -1.02 20.55 -7.05 26.98 C-10.27 29.4 -12.72 29.68 -16.68 29.95 C-16.68 28.96 -16.68 27.97 -16.68 26.95 C-17.38 26.19 -18.08 25.43 -18.8 24.64 C-19.42 23.75 -20.04 22.87 -20.68 21.95 C-19.93 18.64 -19.93 18.64 -18.68 15.95 C-18.02 15.95 -17.36 15.95 -16.68 15.95 C-16.47 15.42 -16.26 14.89 -16.04 14.35 C-14.12 10.97 -11.58 8.41 -8.87 5.64 C-8.35 5.08 -7.82 4.52 -7.29 3.94 C-3.37 -0.06 -3.37 -0.06 0 0 Z " fill="#F94D1F" transform="translate(466.6796875,285.046875)"/>
<path d="M0 0 C5.71 0.37 9.93 1.15 15 4 C15.66 4 16.32 4 17 4 C17.63 10.59 16 14.9 13.29 20.89 C12.03 23.92 11.24 26.81 10.5 30 C9.56 33.77 9.16 34.84 6.31 37.69 C5.55 38.12 4.79 38.55 4 39 C0.67 36.78 0.25 35.65 -1 32 C-0.34 32 0.32 32 1 32 C0.84 31.03 0.68 30.07 0.51 29.07 C-0.12 24.65 -0.15 20.28 -0.12 15.81 C-0.13 15.02 -0.13 14.23 -0.14 13.41 C-0.14 12.64 -0.13 11.87 -0.13 11.08 C-0.13 10.39 -0.13 9.7 -0.13 9 C0 7 0 7 0.57 4.93 C1.22 2.8 1.22 2.8 0 0 Z " fill="#FAC036" transform="translate(571,281)"/>
<path d="M0 0 C5.44 1.98 5.44 1.98 11 4 C9.93 11.89 7.46 15.53 1.69 20.88 C0.69 21.85 0.69 21.85 -0.33 22.84 C-8.81 31 -8.81 31 -13 31 C-13.5 32.49 -13.5 32.49 -14 34 C-14.99 33.34 -15.98 32.68 -17 32 C-17 31.34 -17 30.68 -17 30 C-17.99 29.67 -18.98 29.34 -20 29 C-21.19 26.94 -21.19 26.94 -22 25 C-20.82 24.32 -20.82 24.32 -19.62 23.62 C-11.47 18.14 -5.12 10.89 -1 2 C-0.67 1.34 -0.34 0.68 0 0 Z " fill="#FBA636" transform="translate(475,290)"/>
<path d="M0 0 C4.31 0.32 6.91 3.26 10 6 C9.01 9.3 8.02 12.6 7 16 C7.66 16 8.32 16 9 16 C9.37 23.36 9.37 23.36 7.78 26.12 C6 28 6 28 3.77 28.36 C2.91 28.3 2.05 28.24 1.17 28.17 C0.21 28.11 -0.75 28.06 -1.73 28 C-2.75 27.91 -3.77 27.83 -4.81 27.75 C-6.9 27.62 -8.98 27.5 -11.07 27.37 C-12.09 27.31 -13.1 27.24 -14.15 27.17 C-17.83 26.95 -21.5 26.85 -25.19 26.81 C-26.76 26.79 -26.76 26.79 -28.36 26.77 C-30.99 26.82 -30.99 26.82 -33 28.1 C-35.94 29.42 -37.73 28.56 -40.75 27.62 C-41.73 27.33 -42.72 27.03 -43.73 26.73 C-44.86 26.37 -44.86 26.37 -46 26 C-42.11 23.39 -38.01 23.75 -33.52 23.8 C-32.7 23.81 -31.88 23.81 -31.04 23.81 C-28.45 23.82 -25.85 23.85 -23.25 23.88 C-21.49 23.89 -19.72 23.89 -17.96 23.9 C-13.64 23.92 -9.32 23.96 -5 24 C-4.22 20.46 -4.11 18.47 -5 15 C-5.5 8.82 -5.02 6 -1 1 C-0.67 0.67 -0.34 0.34 0 0 Z " fill="#F9C037" transform="translate(575,373)"/>
<path d="M0 0 C0.66 0 1.32 0 2 0 C2.99 2.47 2.99 2.47 4 5 C1.71 7.86 0.48 8.91 -3.17 9.6 C-5.04 9.67 -5.04 9.67 -6.96 9.74 C-7.66 9.77 -8.36 9.79 -9.07 9.82 C-11.38 9.91 -13.69 9.96 -16 10 C-16.78 10.02 -17.57 10.03 -18.38 10.05 C-24.46 10.16 -30.55 10.19 -36.64 10.2 C-37.59 10.21 -38.54 10.21 -39.52 10.21 C-44.52 10.23 -49.53 10.24 -54.53 10.24 C-59.69 10.25 -64.84 10.27 -70 10.3 C-73.98 10.32 -77.97 10.32 -81.96 10.32 C-83.86 10.33 -85.76 10.33 -87.66 10.35 C-90.31 10.36 -92.96 10.36 -95.61 10.36 C-96.78 10.37 -96.78 10.37 -97.97 10.38 C-102.56 10.35 -105.29 9.68 -109 7 C-110.32 6.34 -111.64 5.68 -113 5 C-76.37 5.33 -39.74 5.66 -2 6 C-1.34 4.02 -0.68 2.04 0 0 Z " fill="#F8A769" transform="translate(703,238)"/>
<path d="M0 0 C2.46 1.87 4.75 3.88 7 6 C6.67 6.99 6.34 7.98 6 9 C5.34 8.67 4.68 8.34 4 8 C1.83 10.71 1.83 10.71 0 14 C0.32 15.67 0.65 17.34 1 19 C-0.96 21.9 -2.28 22.83 -5.69 23.62 C-10.52 22.71 -14.39 20.32 -18 17 C-18.9 14.97 -18.9 14.97 -19 13 C-17.82 11.52 -16.62 10.04 -15.33 8.65 C-13.91 6.89 -13.26 5.37 -12.5 3.25 C-11 0 -11 0 -8.69 -1.56 C-5.05 -2.15 -3.33 -1.6 0 0 Z " fill="#FAC036" transform="translate(479,366)"/>
<path d="M0 0 C6.46 0.46 6.46 0.46 9 3 C9.38 5.4 9.38 5.4 9.56 8.38 C9.64 9.44 9.71 10.51 9.79 11.61 C9.93 13.87 10.07 16.13 10.21 18.39 C10.29 19.46 10.36 20.53 10.44 21.62 C10.5 22.61 10.56 23.59 10.62 24.6 C10.79 27.18 10.79 27.18 13 29 C8.22 29.94 3.55 30.19 -1.31 30.19 C-2.43 30.19 -2.43 30.19 -3.58 30.19 C-8.97 30.14 -13.8 29.51 -19 28 C-19 27.67 -19 27.34 -19 27 C-18.1 27.01 -17.19 27.02 -16.26 27.04 C-14.49 27.05 -14.49 27.05 -12.69 27.06 C-11.52 27.07 -10.34 27.09 -9.14 27.1 C-5.97 27.15 -5.97 27.15 -3 26 C-3.01 25.36 -3.02 24.71 -3.04 24.05 C-3.11 16.72 -3.13 9.26 -2 2 C-1.34 1.34 -0.68 0.68 0 0 Z " fill="#FAC036" transform="translate(546,305)"/>
<path d="M0 0 C3.44 1.24 6.25 2.56 9 5 C9 5.66 9 6.32 9 7 C9.99 7.33 10.98 7.66 12 8 C13.37 9.64 14.7 11.31 16 13 C16.7 13.7 17.4 14.4 18.12 15.12 C20 17 20 17 22 20 C22.99 20.33 23.98 20.66 25 21 C29 25.46 29 25.46 29 28 C27.04 29.71 25.04 31.38 23 33 C23 32.34 23 31.68 23 31 C22.34 31 21.68 31 21 31 C19.99 30.01 18.99 29.01 18 28 C16.45 26.96 14.89 25.94 13.31 24.94 C7.44 20.88 1.28 15.48 -0.74 8.4 C-1.06 5.44 -0.61 2.9 0 0 Z " fill="#FCA635" transform="translate(796,300)"/>
<path d="M0 0 C11.36 -0.54 11.36 -0.54 16 3 C18.36 4.26 20.73 5.49 23.11 6.72 C25 8 25 8 26 11 C24.98 15.15 24.63 16.58 21 19 C17.61 19.54 14.38 19.57 11 19 C8.81 16.56 8.81 16.56 7 14 C3.36 13.11 3.36 13.11 0 13 C0.14 11.54 0.29 10.08 0.44 8.62 C0.52 7.81 0.6 7 0.68 6.16 C1 4 1 4 2 2 C1.34 1.34 0.68 0.68 0 0 Z " fill="#F987C0" transform="translate(849,269)"/>
<path d="M0 0 C7.69 6.18 7.69 6.18 8.56 11.25 C7.88 15.78 6.67 17.41 3.34 20.42 C-1.6 23.76 -7.85 26.45 -13.87 25.59 C-14.57 25.4 -15.27 25.2 -16 25 C-16.33 23.35 -16.66 21.7 -17 20 C-16.25 19.47 -15.5 18.93 -14.73 18.38 C-8.68 13.8 -4.88 10.34 -2.68 2.97 C-2 1 -2 1 0 0 Z " fill="#FAC137" transform="translate(835,360)"/>
<path d="M0 0 C1.5 2.31 1.5 2.31 2 5 C1.12 7.38 1.12 7.38 -1 10 C-1.52 10.64 -2.03 11.28 -2.57 11.94 C-5.55 15.12 -7.55 16.93 -12.02 17.14 C-17.59 16.34 -22.03 15.25 -26 11 C-25.27 9.09 -25.27 9.09 -24 7 C-21.98 6.13 -21.98 6.13 -19.62 5.56 C-15.22 4.29 -13.79 2.65 -11 -1 C-6.77 -2.35 -3.82 -2.34 0 0 Z " fill="#FA87C1" transform="translate(429,262)"/>
<path d="M0 0 C4.57 0.34 7.58 0.86 11 4 C10.77 5.88 10.77 5.88 10 8 C8.07 9.12 8.07 9.12 5.69 9.88 C4.91 10.14 4.13 10.41 3.32 10.68 C0.48 11.07 -0.54 10.38 -3 9 C-7.5 8.62 -10.62 8.69 -14.75 10.5 C-20.97 13.12 -28.57 12.9 -35 11 C-33.85 8.53 -32.95 6.95 -31 5 C-27.72 3.85 -24.52 3.83 -21.06 3.81 C-20.04 3.8 -19.02 3.78 -17.97 3.77 C-15 4 -15 4 -12.42 5.16 C-10 6.28 -10 6.28 -7.58 5.14 C-6.43 4.42 -6.43 4.42 -5.25 3.69 C-4.47 3.22 -3.69 2.75 -2.89 2.26 C-1.07 1.14 -1.07 1.14 0 0 Z " fill="#F8A272" transform="translate(718,393)"/>
<path d="M0 0 C2.72 1.54 3.95 2.63 5.44 5.38 C5.62 8.12 5.62 8.12 5.44 10.38 C4.55 10.52 3.66 10.66 2.75 10.81 C0.86 11.13 -1.02 11.48 -2.89 11.9 C-8.08 12.82 -13.37 12.56 -18.62 12.56 C-19.81 12.57 -20.99 12.59 -22.21 12.6 C-23.92 12.6 -23.92 12.6 -25.66 12.61 C-27.21 12.61 -27.21 12.61 -28.8 12.62 C-31.57 12.37 -33.21 11.8 -35.56 10.38 C-31.81 7.82 -28.93 6.93 -24.44 6.44 C-17.36 5.48 -10.72 3.63 -4.41 0.21 C-2.56 -0.62 -2.56 -0.62 0 0 Z " fill="#F9BF38" transform="translate(449.5625,392.625)"/>
<path d="M0 0 C4.98 1.49 7.67 1.39 12.44 -0.62 C14.44 1.38 14.44 1.38 14.56 4.06 C13.12 8.32 10.87 10 7.43 12.77 C5.31 14.4 5.31 14.4 3.25 16.75 C0.98 18.78 -0.54 19.22 -3.56 19.38 C-4.55 18.71 -5.54 18.06 -6.56 17.38 C-6.23 15.06 -5.9 12.75 -5.56 10.38 C-1.6 10.38 2.36 10.38 6.44 10.38 C6.44 8.39 6.44 6.42 6.44 4.38 C3.01 4.78 0.52 5.33 -2.56 6.94 C-5.85 8.51 -7.97 8.63 -11.56 8.38 C-11.89 6.73 -12.22 5.07 -12.56 3.38 C-13.88 3.05 -15.2 2.71 -16.56 2.38 C-16.23 1.38 -15.9 0.39 -15.56 -0.62 C-10.55 -3.13 -5.06 -1.58 0 0 Z " fill="#F98FA7" transform="translate(810.5625,396.625)"/>
<path d="M0 0 C0 0.33 0 0.66 0 1 C-0.72 1.06 -1.44 1.12 -2.19 1.19 C-5.19 1.81 -5.19 1.81 -7.38 4.38 C-10.49 7.49 -12.93 8.43 -17 10 C-17.33 10.33 -17.66 10.66 -18 11 C-26.63 12.73 -34.46 13.61 -43 11 C-43 9.68 -43 8.36 -43 7 C-42.35 6.91 -41.69 6.83 -41.02 6.74 C-35.71 5.92 -31.37 4.8 -26.56 2.38 C-18.15 -1.42 -9.02 -0.4 0 0 Z " fill="#F9BE39" transform="translate(527,398)"/>
<path d="M0 0 C0.66 0 1.32 0 2 0 C2.33 0.99 2.66 1.98 3 3 C4.63 4.22 4.63 4.22 6.56 5.19 C8.26 6.08 8.26 6.08 10 7 C6.32 11.4 2.55 15.54 -1.58 19.52 C-3.1 20.96 -3.1 20.96 -4 23 C-4.66 23 -5.32 23 -6 23 C-6.66 24.32 -7.32 25.64 -8 27 C-9.01 25.93 -10.01 24.84 -11 23.75 C-11.56 23.15 -12.11 22.54 -12.69 21.92 C-14 20 -14 20 -14 16 C-12.58 14.78 -11.15 13.56 -9.66 12.43 C-7.84 10.86 -6.65 9.24 -5.31 7.25 C-3 4 -3 4 0 3 C0 2.01 0 1.02 0 0 Z " fill="#FABC36" transform="translate(454,278)"/>
<path d="M0 0 C0.99 0.33 1.98 0.66 3 1 C3.62 2.88 3.62 2.88 4 5 C5.34 9.01 7.76 10.36 11 13 C13.22 16.33 13.61 17.14 13 21 C11.55 23.51 9.92 25.82 8 28 C7.67 28 7.34 28 7 28 C6.73 27.07 6.46 26.14 6.19 25.19 C5.06 22.17 4.29 21.08 2 19 C2 18.34 2 17.68 2 17 C1.41 16.91 0.83 16.83 0.23 16.74 C-2.63 15.79 -3.71 14.43 -5.62 12.12 C-6.22 11.43 -6.81 10.73 -7.41 10.01 C-9 8 -9 8 -11 5 C-9.93 4.58 -9.93 4.58 -8.85 4.16 C-7.47 3.62 -7.47 3.62 -6.06 3.06 C-5.15 2.7 -4.23 2.34 -3.29 1.97 C-1.08 1.2 -1.08 1.2 0 0 Z " fill="#FAB73B" transform="translate(825,289)"/>
<path d="M0 0 C2.06 -0.4 2.06 -0.4 4.44 -0.38 C5.22 -0.38 6 -0.39 6.81 -0.4 C9.54 0.1 10.43 0.73 12 3 C12.26 5.19 12.26 5.19 12.12 7.56 C11.9 10.91 11.9 10.91 13 14 C10.65 15.18 9.26 15.12 6.64 15.11 C5.29 15.11 5.29 15.11 3.91 15.11 C2.94 15.11 1.96 15.1 0.96 15.1 C-0.04 15.1 -1.03 15.09 -2.06 15.09 C-5.25 15.09 -8.44 15.08 -11.62 15.06 C-13.78 15.06 -15.94 15.05 -18.1 15.05 C-23.4 15.04 -28.7 15.02 -34 15 C-33.34 14.01 -32.68 13.02 -32 12 C-29.33 11.66 -29.33 11.66 -25.97 11.71 C-24.16 11.72 -24.16 11.72 -22.32 11.74 C-20.43 11.77 -20.43 11.77 -18.5 11.81 C-17.24 11.83 -15.98 11.84 -14.68 11.85 C-11.45 11.89 -8.23 11.94 -5 12 C-4.34 12 -3.68 12 -3 12 C-2.67 11.67 -2.34 11.34 -2 11 C-2.03 9 -2.07 7 -2.16 5.01 C-2 3 -2 3 0 0 Z " fill="#FABD36" transform="translate(596,320)"/>
<path d="M0 0 C10.02 1.16 10.02 1.16 13.69 4.31 C15.08 7.17 15.36 8.87 15 12 C8.57 16.78 2.81 16.42 -5 16 C-6.21 14.39 -6.21 14.39 -7 12 C-5.66 8.98 -5.66 8.98 -3.62 5.75 C-2.96 4.67 -2.29 3.59 -1.6 2.48 C-1.07 1.66 -0.54 0.84 0 0 Z " fill="#FAC137" transform="translate(672,347)"/>
<path d="M0 0 C0.66 0 1.32 0 2 0 C0.7 2.89 -0.49 5.03 -3 7 C-5.43 7.38 -5.43 7.38 -8.37 7.39 C-9.48 7.41 -10.6 7.42 -11.75 7.43 C-12.97 7.43 -14.19 7.42 -15.45 7.42 C-17.39 7.43 -17.39 7.43 -19.36 7.45 C-22.89 7.47 -26.43 7.47 -29.96 7.47 C-32.92 7.47 -35.87 7.48 -38.82 7.49 C-45.79 7.5 -52.75 7.51 -59.72 7.5 C-66.9 7.49 -74.09 7.52 -81.27 7.55 C-87.44 7.59 -93.61 7.6 -99.78 7.59 C-103.46 7.59 -107.14 7.6 -110.83 7.62 C-114.94 7.65 -119.05 7.63 -123.16 7.62 C-124.98 7.64 -124.98 7.64 -126.85 7.66 C-136.04 7.56 -136.04 7.56 -139.8 4.46 C-140.53 3.65 -141.25 2.84 -142 2 C-141.01 2 -140.02 2 -139 2 C-138.34 2.66 -137.68 3.32 -137 4 C-134.61 4.31 -134.61 4.31 -131.78 4.27 C-130.12 4.28 -130.12 4.28 -128.43 4.29 C-126.6 4.29 -126.6 4.29 -124.74 4.29 C-123.46 4.3 -122.18 4.3 -120.86 4.31 C-117.34 4.33 -113.82 4.33 -110.31 4.33 C-107.37 4.34 -104.44 4.34 -101.5 4.35 C-94.58 4.37 -87.65 4.37 -80.73 4.37 C-73.58 4.37 -66.44 4.39 -59.3 4.42 C-53.16 4.45 -47.03 4.46 -40.9 4.46 C-37.24 4.46 -33.58 4.46 -29.91 4.48 C-25.83 4.51 -21.74 4.5 -17.65 4.49 C-16.44 4.5 -15.23 4.51 -13.98 4.52 C-7.55 4.56 -7.55 4.56 -1.83 1.97 C-0.93 0.99 -0.93 0.99 0 0 Z " fill="#F8A769" transform="translate(721,256)"/>
<path d="M0 0 C1.45 2.9 1.37 4.77 1 8 C-0.28 9.44 -1.56 10.88 -2.88 12.3 C-5.04 15.58 -4.66 19.25 -4 23 C-2.67 25.98 -2.67 25.98 -1 28 C-3.44 27.62 -3.44 27.62 -6 27 C-8.09 22.82 -7.57 17.54 -7 13 C-4.5 10.06 -4.5 10.06 -2 8 C-1.58 5.29 -1.58 5.29 -2 3 C-6.43 3.51 -8.67 5.12 -12 8 C-12.66 8.33 -13.32 8.66 -14 9 C-14.29 13.71 -14.29 13.71 -12.94 18.12 C-11.63 20.74 -12.12 22.28 -13 25 C-15.4 26.2 -16.87 26.12 -19.54 26.11 C-20.48 26.11 -21.42 26.11 -22.39 26.11 C-23.41 26.11 -24.43 26.1 -25.48 26.1 C-26.52 26.1 -27.56 26.09 -28.63 26.09 C-31.96 26.09 -35.29 26.08 -38.62 26.06 C-40.88 26.06 -43.14 26.05 -45.39 26.05 C-50.93 26.04 -56.46 26.02 -62 26 C-62 25.34 -62 24.68 -62 24 C-53.31 22.96 -44.97 22.67 -36.25 23.56 C-29.44 24.2 -22.8 23.65 -16 23 C-16.25 21.51 -16.25 21.51 -16.5 20 C-16.58 19.36 -16.66 18.72 -16.74 18.06 C-16.99 16.05 -17.31 14.06 -17.62 12.06 C-17.59 9.14 -17.06 8.08 -15.27 5.71 C-10.24 0.82 -6.99 -1.02 0 0 Z " fill="#F8A46F" transform="translate(671,372)"/>
<path d="M0 0 C0.93 0.05 1.87 0.11 2.83 0.17 C4.28 0.28 4.28 0.28 5.77 0.39 C6.75 0.45 7.73 0.51 8.75 0.57 C11.17 0.73 13.59 0.89 16.02 1.07 C16.35 2.06 16.68 3.05 17.02 4.07 C16.36 4.73 15.7 5.39 15.02 6.07 C15.02 5.41 15.02 4.75 15.02 4.07 C12.71 4.4 10.4 4.73 8.02 5.07 C7.69 7.05 7.36 9.03 7.02 11.07 C8.34 11.4 9.66 11.73 11.02 12.07 C10.36 13.72 9.7 15.37 9.02 17.07 C6.58 16.45 6.58 16.45 4.02 15.07 C3.2 11.95 3.2 11.95 3.02 9.07 C1.94 9.75 0.87 10.44 -0.23 11.14 C-3.65 13.07 -3.65 13.07 -6.3 13.07 C-8.61 11.7 -9.2 10.65 -9.98 8.07 C-9.83 4.96 -9.53 3.59 -7.24 1.43 C-4.53 -0.2 -3.13 -0.21 0 0 Z " fill="#F9BE3A" transform="translate(538.984375,369.92578125)"/>
<path d="M0 0 C2.31 0.69 2.31 0.69 4.12 2.25 C6.08 6.26 5.93 9.63 4.66 13.88 C3.73 16.1 2.85 17.84 1.31 19.69 C-2.19 20.88 -2.19 20.88 -5.69 20.69 C-7.9 19.47 -7.9 19.47 -9.69 17.69 C-10.42 13.41 -9.56 9.24 -7.45 5.48 C-5.16 2.58 -3.62 0.93 0 0 Z " fill="#FAC137" transform="translate(712.6875,364.3125)"/>
<path d="M0 0 C4.14 2.42 7.74 4.56 10 8.94 C10 11 10 11 8.31 13.69 C6.05 15.95 5.1 16.67 2 17 C2 17.66 2 18.32 2 19 C-2.39 21.02 -6.15 22.41 -11 23 C-9.8 19.91 -8.5 16.95 -7 14 C-6.43 12.86 -5.86 11.72 -5.27 10.55 C-3.52 7.03 -1.76 3.52 0 0 Z " fill="#F9BD37" transform="translate(499,300)"/>
<path d="M0 0 C0.27 1.22 0.54 2.43 0.81 3.69 C1.86 7.88 3.24 11.38 6.49 14.38 C8.22 16.24 8.87 17.8 9.69 20.19 C9.94 20.9 10.19 21.62 10.45 22.36 C10.63 22.9 10.81 23.44 11 24 C6.97 23.42 4.45 22.11 1 20 C-0.56 19.37 -2.12 18.74 -3.69 18.12 C-7.77 16.32 -7.77 16.32 -9.62 13.69 C-10.14 9.97 -10.18 7.6 -9 4 C-6.53 2.19 -3.17 0 0 0 Z " fill="#F7BF38" transform="translate(782,309)"/>
<path d="M0 0 C1.32 0 2.64 0 4 0 C6.39 6.67 5.85 12.28 5.1 19.24 C4.56 24.2 4.56 24.2 6.91 28.39 C7.6 28.92 8.29 29.45 9 30 C9.33 30.99 9.66 31.98 10 33 C8.6 35.26 6.8 37.02 5 39 C2.01 37.9 1.15 37.32 -0.25 34.38 C-0.5 33.59 -0.75 32.81 -1 32 C-0.34 32 0.32 32 1 32 C0.84 31.03 0.68 30.07 0.51 29.07 C-0.12 24.65 -0.15 20.28 -0.12 15.81 C-0.13 15.02 -0.13 14.23 -0.14 13.41 C-0.14 12.64 -0.13 11.87 -0.13 11.08 C-0.13 10.39 -0.13 9.7 -0.13 9 C0 7 0 7 0.57 4.93 C1.22 2.8 1.22 2.8 0 0 Z " fill="#FBA534" transform="translate(571,281)"/>
<path d="M0 0 C2.55 4.17 1.89 6.97 0.83 11.58 C-0.38 15.1 -1.93 16.93 -5 19 C-8.45 18.92 -9.56 18.44 -12 16 C-12.48 11.17 -12.5 8.94 -10.19 4.62 C-6.93 0.72 -4.97 -0.27 0 0 Z " fill="#FAC036" transform="translate(773,366)"/>
<path d="M0 0 C0.66 0 1.32 0 2 0 C2.29 2.25 2.29 2.25 2 5 C0.02 7.04 0.02 7.04 -2.62 9.06 C-8.28 13.85 -11.44 19.07 -14 26 C-14 26.99 -14 27.98 -14 29 C-13.34 29 -12.68 29 -12 29 C-10.76 27.31 -9.59 25.57 -8.44 23.81 C-4.6 18.36 -0.99 15.7 5 13 C5.33 12.67 5.66 12.34 6 12 C8.53 11.93 11.03 11.91 13.56 11.94 C14.27 11.94 14.98 11.95 15.72 11.95 C17.48 11.96 19.24 11.98 21 12 C21 12.33 21 12.66 21 13 C20.24 13 19.48 13.01 18.69 13.01 C11.79 13.27 7.44 14.29 1.94 18.53 C0 20 0 20 -1.96 20.75 C-5.16 22.71 -6.69 25.85 -8.56 29 C-12.62 35.75 -12.62 35.75 -16 38 C-17.53 36.78 -17.53 36.78 -19 35 C-19.33 24.67 -12.21 14.85 -5.61 7.56 C-4 6 -4 6 -1 4 C-0.28 1.94 -0.28 1.94 0 0 Z " fill="#F8A867" transform="translate(755,346)"/>
<path d="M0 0 C2 2 2 2 2.5 5.62 C2.41 11.28 -1.15 15.15 -5 19 C-7 19.04 -9 19.04 -11 19 C-12.59 13.36 -11.39 9.18 -9 4 C-6.33 0.35 -4.53 -0.72 0 0 Z " fill="#FAC137" transform="translate(805,365)"/>
<path d="M0 0 C7.95 1.9 12.34 4.01 17 11 C19.05 12.19 19.05 12.19 21 13 C21 13.33 21 13.66 21 14 C18.06 14.44 15.13 14.86 12.19 15.25 C10.94 15.44 10.94 15.44 9.66 15.64 C3.56 16.42 3.56 16.42 0.94 14.44 C-0.23 11.39 -0.29 9.01 -0.19 5.75 C-0.15 4.13 -0.15 4.13 -0.11 2.48 C-0.07 1.66 -0.04 0.84 0 0 Z " fill="#FAC036" transform="translate(538,344)"/>
<path d="M0 0 C2.75 0.25 2.75 0.25 5 1 C4.4 5.14 2.99 8.18 0.94 11.81 C0.39 12.79 -0.16 13.76 -0.72 14.77 C-1.14 15.51 -1.57 16.24 -2 17 C-3.65 17 -5.3 17 -7 17 C-5.68 16.34 -4.36 15.68 -3 15 C-3 14.34 -3 13.68 -3 13 C-4.13 13.04 -5.27 13.08 -6.44 13.12 C-11.14 13.14 -15.46 12.18 -20 11 C-18.28 8.01 -17.36 7.11 -14 6.09 C-12.87 5.9 -11.73 5.7 -10.56 5.5 C-5.56 4.64 -3.44 3.69 0 0 Z " fill="#F8A46F" transform="translate(455,354)"/>
<path d="M0 0 C0.66 0 1.32 0 2 0 C1.75 2.38 1.75 2.38 1 5 C-1.06 6.31 -1.06 6.31 -3 7 C-1.54 9.51 -0.13 11.84 1.75 14.06 C3 16 3 16 2.95 17.96 C1.49 21.1 -0.71 21.45 -3.88 22.62 C-7.25 23.9 -9.99 24.99 -13 27 C-12.97 29.42 -12.97 29.42 -12 32 C-8.28 34.45 -5.44 35.39 -1 35 C-0.34 33.68 0.32 32.36 1 31 C1 34 1 34 -0.62 36.25 C-3 38 -3 38 -5.81 38 C-9.88 36.72 -12.55 35.57 -16 33 C-16.94 29.25 -16.94 29.25 -17 26 C-11.89 21.8 -7.31 19.03 -1 17 C-1.65 13.67 -1.65 13.67 -4.06 11.25 C-5.02 10.63 -5.02 10.63 -6 10 C-5.61 7.18 -5.29 6.23 -3 4.44 C-2.34 3.96 -1.68 3.49 -1 3 C-0.67 2.01 -0.34 1.02 0 0 Z " fill="#F8AA65" transform="translate(633,347)"/>
<path d="M0 0 C0.66 0.33 1.32 0.66 2 1 C1.44 1.65 0.87 2.29 0.29 2.96 C-2.49 6.65 -4.52 10.52 -6.62 14.62 C-7.41 16.14 -8.19 17.65 -8.98 19.16 C-9.49 20.16 -9.49 20.16 -10.01 21.18 C-11 23 -11 23 -13 26 C-13.43 27.67 -13.43 27.67 -13.88 29.38 C-15.07 33.21 -16.42 34.98 -19 38 C-19.3 38.62 -19.6 39.24 -19.91 39.88 C-23.5 47.11 -29.6 49.47 -37 52 C-39.99 52.68 -42.91 53.21 -45.95 53.58 C-46.63 53.72 -47.3 53.86 -48 54 C-48.33 54.66 -48.66 55.32 -49 56 C-46.36 56.33 -43.72 56.66 -41 57 C-41 57.33 -41 57.66 -41 58 C-42.46 57.86 -43.92 57.71 -45.38 57.56 C-46.19 57.48 -47 57.4 -47.84 57.32 C-50 57 -50 57 -52 56 C-51.67 54.68 -51.34 53.36 -51 52 C-50.13 51.85 -49.26 51.71 -48.36 51.55 C-34.22 48.96 -34.22 48.96 -23.03 40.56 C-21.53 38.09 -20.25 35.6 -19 33 C-18.47 32.14 -17.95 31.27 -17.41 30.38 C-15.87 27.99 -15.87 27.99 -15.06 25 C-14 22 -14 22 -12.12 19.69 C-10.21 17.27 -9.28 15.49 -8.12 12.69 C-6.11 7.88 -3.29 4.02 0 0 Z " fill="#F8A66C" transform="translate(854,377)"/>
<path d="M0 0 C0.75 2.12 0.75 2.12 1 5 C-1.36 9.35 -4.42 12.62 -8 16 C-8.66 15.01 -9.32 14.02 -10 13 C-12.73 12.1 -15.47 11.54 -18.27 10.94 C-21.4 9.86 -22.86 8.47 -25 6 C-24.67 5.34 -24.34 4.68 -24 4 C-22.92 4.99 -22.92 4.99 -21.81 6 C-19.22 8.08 -19.22 8.08 -16.62 8.69 C-12.9 7.71 -11.1 5.43 -8.55 2.63 C-5.83 -0.23 -3.8 -0.1 0 0 Z " fill="#F8A66C" transform="translate(603,368)"/>
<path d="M0 0 C7.69 6.18 7.69 6.18 8.56 11.25 C7.88 15.78 6.67 17.41 3.34 20.42 C-1.6 23.76 -7.85 26.45 -13.87 25.59 C-14.57 25.4 -15.27 25.2 -16 25 C-16.33 23.35 -16.66 21.7 -17 20 C-16.25 19.47 -15.5 18.93 -14.73 18.38 C-8.68 13.8 -4.88 10.34 -2.68 2.97 C-2 1 -2 1 0 0 Z M-1 3 C-1.31 3.87 -1.31 3.87 -1.63 4.76 C-4.54 12.13 -8.52 15.68 -15 20 C-14.67 21.32 -14.34 22.64 -14 24 C-7.99 23.27 -2.83 21.98 1.38 17.44 C4.08 13.39 4.34 10.91 4 6 C2.77 4.02 2.77 4.02 1 3 C0.34 3 -0.32 3 -1 3 Z " fill="#F8A273" transform="translate(835,360)"/>
<path d="M0 0 C2.94 2.56 2.94 2.56 5 5 C0.52 8.23 -2.59 10.45 -8.21 9.71 C-12.45 8.9 -15.1 8.36 -18 5 C-16.35 3.98 -14.68 2.98 -13 2 C-12.05 1.42 -11.1 0.85 -10.12 0.25 C-6.16 -1.34 -4.08 -1.19 0 0 Z " fill="#F8BF37" transform="translate(782,394)"/>
<path d="M0 0 C2.88 1.5 2.88 1.5 5 3 C4.57 5.47 4.31 6.71 2.44 8.44 C0.44 10.26 0.44 10.26 1 15 C-2.63 14.67 -6.26 14.34 -10 14 C-9.83 13.11 -9.67 12.23 -9.5 11.31 C-8.91 8.11 -8.91 8.11 -9.12 5.31 C-9 3 -9 3 -7.88 1.19 C-5.1 -0.57 -3.22 -0.39 0 0 Z " fill="#FA87C1" transform="translate(442,261)"/>
<path d="M0 0 C1.6 -0.08 3.21 -0.14 4.81 -0.19 C6.15 -0.24 6.15 -0.24 7.52 -0.29 C10 0 10 0 11.75 1.22 C14.03 4.47 14.27 8.14 15 12 C11.37 12.33 7.74 12.66 4 13 C1.98 8.61 0.59 4.85 0 0 Z " fill="#F987BE" transform="translate(833,269)"/>
<path d="M0 0 C5.88 0.88 5.88 0.88 7 2 C7.16 3.34 7.25 4.69 7.32 6.04 C7.38 7.25 7.38 7.25 7.44 8.49 C7.48 9.34 7.52 10.19 7.56 11.06 C7.61 11.92 7.65 12.77 7.69 13.65 C7.8 15.77 7.9 17.88 8 20 C3.25 21.12 3.25 21.12 1 20 C0.49 17.37 0.11 14.84 -0.19 12.19 C-0.33 11.1 -0.33 11.1 -0.47 9.99 C-0.9 6.45 -1.25 3.39 0 0 Z " fill="#FABD36" transform="translate(619,287)"/>
<path d="M0 0 C6.23 1.59 12.16 3.28 18 6 C14.25 10.88 14.25 10.88 12 12 C4.65 12.47 4.65 12.47 2.29 10.78 C0.68 8.56 0.51 7.03 0.31 4.31 C0.25 3.5 0.18 2.7 0.11 1.86 C0.08 1.25 0.04 0.63 0 0 Z " fill="#F8A868" transform="translate(423,371)"/>
<path d="M0 0 C3.64 2.43 3.53 3.87 4.39 7.97 C5.26 10.86 7.06 12.74 9 15 C9 15.99 9 16.98 9 18 C5.89 17.93 3.73 17.71 1.44 15.48 C0.43 14.24 -0.56 12.99 -1.54 11.72 C-3.39 9.53 -5.45 8.27 -8 7 C-7.94 5.19 -7.94 5.19 -7 3 C-3.62 1.12 -3.62 1.12 0 0 Z " fill="#FABF37" transform="translate(506,358)"/>
<path d="M0 0 C2.46 1.87 4.75 3.88 7 6 C6.67 6.99 6.34 7.98 6 9 C4.89 7.86 4.89 7.86 3.75 6.69 C-0.69 2.05 -0.69 2.05 -6.75 0.81 C-8.36 0.91 -8.36 0.91 -10 1 C-10.25 2.24 -10.5 3.48 -10.75 4.75 C-11.68 8.61 -13.14 10.24 -16 13 C-15.86 15.22 -15.86 15.22 -15 17 C-9.65 18 -5.38 17.85 0 17 C0 20 0 20 -1.12 21.69 C-4.03 23.72 -5.49 23.58 -9 23 C-17.2 18.8 -17.2 18.8 -18.9 14.97 C-19 13 -19 13 -16.75 10.19 C-16.28 9.68 -15.81 9.17 -15.33 8.65 C-13.91 6.89 -13.26 5.37 -12.5 3.25 C-11 0 -11 0 -8.69 -1.56 C-5.05 -2.15 -3.33 -1.6 0 0 Z " fill="#F8A867" transform="translate(479,366)"/>
<path d="M0 0 C2.32 1.91 2.82 2.81 3.12 5.75 C-0.9 8.43 -4.15 8.33 -8.88 7.75 C-11.19 6.38 -11.19 6.38 -12.88 4.75 C-14.19 4.05 -15.52 3.38 -16.88 2.75 C-11.62 -1.42 -6.39 -2.78 0 0 Z " fill="#FABC36" transform="translate(752.875,395.25)"/>
<path d="M0 0 C1.07 3.65 0.76 6.26 0 10 C4.38 12.19 10.37 11.16 15 10 C15 10.66 15 11.32 15 12 C8.57 16.78 2.81 16.42 -5 16 C-6.21 14.39 -6.21 14.39 -7 12 C-5.66 8.98 -5.66 8.98 -3.62 5.75 C-2.96 4.67 -2.29 3.59 -1.6 2.48 C-1.07 1.66 -0.54 0.84 0 0 Z " fill="#F8A966" transform="translate(672,347)"/>
<path d="M0 0 C1.24 0.02 1.24 0.02 2.5 0.04 C3.32 0.04 4.15 0.05 5 0.06 C5.64 0.07 6.28 0.09 6.93 0.1 C9.03 6.4 9.18 9.45 6.37 15.41 C5.9 16.3 5.42 17.18 4.93 18.1 C4.27 18.1 3.61 18.1 2.93 18.1 C3.04 17.07 3.14 16.04 3.25 14.97 C2.84 9.89 1.3 8.79 -2.07 5.1 C-2.94 2.79 -2.94 2.79 -3.07 1.1 C-2.07 0.1 -2.07 0.1 0 0 Z " fill="#F9B547" transform="translate(841.06640625,280.90234375)"/>
<path d="M0 0 C0.93 0.05 1.87 0.11 2.83 0.17 C4.28 0.28 4.28 0.28 5.77 0.39 C6.75 0.45 7.73 0.51 8.75 0.57 C11.17 0.73 13.59 0.89 16.02 1.07 C16.35 2.06 16.68 3.05 17.02 4.07 C16.36 4.73 15.7 5.39 15.02 6.07 C15.02 5.41 15.02 4.75 15.02 4.07 C12.08 3.88 9.14 3.69 6.2 3.51 C4.95 3.43 4.95 3.43 3.68 3.34 C2.88 3.29 2.07 3.25 1.25 3.2 C0.14 3.12 0.14 3.12 -0.99 3.05 C-3.2 2.97 -3.2 2.97 -5.98 4.07 C-5.98 5.72 -5.98 7.37 -5.98 9.07 C-5.43 8.93 -4.87 8.79 -4.3 8.64 C-3.53 8.45 -2.77 8.27 -1.98 8.07 C-1.12 7.85 -0.25 7.62 0.64 7.39 C1.42 7.28 2.21 7.18 3.02 7.07 C5.02 9.07 5.02 9.07 5.14 12.2 C5.1 13.15 5.06 14.1 5.02 15.07 C3.02 11.32 3.02 11.32 3.02 9.07 C1.94 9.75 0.87 10.44 -0.23 11.14 C-3.65 13.07 -3.65 13.07 -6.3 13.07 C-8.61 11.7 -9.2 10.65 -9.98 8.07 C-9.83 4.96 -9.53 3.59 -7.24 1.43 C-4.53 -0.2 -3.13 -0.21 0 0 Z " fill="#F8A46F" transform="translate(538.984375,369.92578125)"/>
<path d="M0 0 C2.31 0.69 2.31 0.69 4.12 2.25 C6.08 6.26 5.93 9.63 4.66 13.88 C3.73 16.1 2.85 17.84 1.31 19.69 C-2.19 20.88 -2.19 20.88 -5.69 20.69 C-7.9 19.47 -7.9 19.47 -9.69 17.69 C-10.42 13.41 -9.56 9.24 -7.45 5.48 C-5.16 2.58 -3.62 0.93 0 0 Z M-4.88 5.69 C-7.24 9.59 -7.54 12.13 -7.69 16.69 C-7.03 17.35 -6.37 18.01 -5.69 18.69 C-2.59 18.37 -2.59 18.37 0.31 17.69 C2.86 11.8 2.86 11.8 2.5 5.62 C2.11 4.99 1.72 4.35 1.31 3.69 C-2.69 3.24 -2.69 3.24 -4.88 5.69 Z " fill="#F8A967" transform="translate(712.6875,364.3125)"/>
<path d="M0 0 C0.33 1.32 0.66 2.64 1 4 C2.65 4.33 4.3 4.66 6 5 C6.66 3.35 7.32 1.7 8 0 C8.33 0 8.66 0 9 0 C9.25 3.31 9.25 3.31 9 7 C7.06 8.69 7.06 8.69 5 10 C4.67 11.32 4.34 12.64 4 14 C7.96 14 11.92 14 16 14 C16 14.33 16 14.66 16 15 C9.2 15.09 2.74 14.96 -4 14 C-7.31 14.37 -7.31 14.37 -10 15 C-8.05 12.84 -6.49 11.72 -3.88 10.31 C-0.76 7.81 -0.57 7.46 -0.12 3.75 C-0.08 2.51 -0.04 1.27 0 0 Z " fill="#F8919F" transform="translate(542,381)"/>
<path d="M0 0 C2.33 -0.04 4.67 -0.04 7 0 C8.69 1.69 8.69 3.95 9.12 6.25 C9.31 7.2 9.5 8.16 9.7 9.14 C10 12.04 9.73 14.19 9 17 C6.69 16.94 6.69 16.94 4 16 C1.45 11.52 0.77 8.09 1 3 C0.67 2.01 0.34 1.02 0 0 Z " fill="#F9742B" transform="translate(620,307)"/>
<path d="M0 0 C3.49 0.15 5.51 0.65 8.38 2.69 C10.44 5.62 10.32 7.49 10 11 C7.88 11.81 7.88 11.81 5 12 C1.57 9.76 -0.55 8.2 -2 4.31 C-2 2 -2 2 0 0 Z " fill="#F8A66C" transform="translate(424,345)"/>
<path d="M0 0 C0.33 1.65 0.66 3.3 1 5 C-0.1 5.98 -1.2 6.96 -2.31 7.94 C-2.93 8.48 -3.54 9.03 -4.18 9.59 C-6 11 -6 11 -9 12 C-9.99 11.34 -10.98 10.68 -12 10 C-7.62 -1.8 -7.62 -1.8 0 0 Z " fill="#F8A56E" transform="translate(488,346)"/>
<path d="M0 0 C0.99 0 1.98 0 3 0 C2.25 4.86 -0.49 8.67 -4.12 11.88 C-6 13 -6 13 -8 13 C-8 14.65 -8 16.3 -8 18 C-4.54 17.5 -4.54 17.5 -1 17 C-1 17.66 -1 18.32 -1 19 C-1.66 19 -2.32 19 -3 19 C-3.66 20.32 -4.32 21.64 -5 23 C-6.01 21.93 -7.01 20.84 -8 19.75 C-8.56 19.15 -9.11 18.54 -9.69 17.92 C-11 16 -11 16 -11 12 C-9.58 10.78 -8.15 9.57 -6.66 8.44 C-4.82 6.85 -3.65 5.21 -2.31 3.19 C-1.55 2.14 -0.79 1.08 0 0 Z " fill="#FBA739" transform="translate(451,282)"/>
<path d="M0 0 C6.52 -0.35 11.18 -0.04 17 3 C12.18 6.79 9.25 8.28 3 8 C2.67 6.35 2.34 4.7 2 3 C1.01 2.67 0.02 2.34 -1 2 C-0.67 1.34 -0.34 0.68 0 0 Z " fill="#F9B848" transform="translate(796,397)"/>
<path d="M0 0 C2 2 2 2 2.5 5.62 C2.41 11.28 -1.15 15.15 -5 19 C-7 19.04 -9 19.04 -11 19 C-12.59 13.36 -11.39 9.18 -9 4 C-6.33 0.35 -4.53 -0.72 0 0 Z M-4 2 C-8.14 6.28 -9.06 10.32 -10 16 C-8.68 16.33 -7.36 16.66 -6 17 C-1.25 12.36 -1.25 12.36 0.38 6.06 C0.25 5.05 0.13 4.04 0 3 C-1.32 2.67 -2.64 2.34 -4 2 Z " fill="#F8A76A" transform="translate(805,365)"/>
<path d="M0 0 C1.36 1.3 2.7 2.63 4 4 C3.2 3.94 2.4 3.88 1.58 3.82 C-6.01 3.51 -11.22 4.53 -18.06 7.76 C-21.92 9.39 -25.69 10 -29.82 10.54 C-32.2 10.83 -32.2 10.83 -34 13 C-34.66 12.34 -35.32 11.68 -36 11 C-35.67 10.34 -35.34 9.68 -35 9 C-33.07 8.68 -31.13 8.44 -29.19 8.25 C-22.92 7.4 -18.17 5.47 -12.66 2.44 C-4.9 -1.76 -4.9 -1.76 0 0 Z " fill="#F8A66C" transform="translate(516,395)"/>
<path d="M0 0 C2.72 1.54 3.95 2.63 5.44 5.38 C5.62 8.12 5.62 8.12 5.44 10.38 C3.44 9.38 3.44 9.38 2.31 6.31 C2.02 5.34 1.74 4.37 1.44 3.38 C-3.68 3.95 -8.07 5.12 -12.94 6.88 C-18.54 8.83 -23.64 10 -29.56 10.38 C-31.57 10.69 -33.57 11.02 -35.56 11.38 C-31.86 7.99 -29.4 6.86 -24.44 6.38 C-17.33 5.47 -10.74 3.64 -4.41 0.21 C-2.56 -0.62 -2.56 -0.62 0 0 Z " fill="#F5A56C" transform="translate(449.5625,392.625)"/>
<path d="M0 0 C0 1.32 0 2.64 0 4 C-3.46 5.07 -6.64 5.1 -10.25 5.06 C-11.33 5.05 -12.41 5.04 -13.52 5.04 C-14.34 5.02 -15.16 5.01 -16 5 C-16 3.68 -16 2.36 -16 1 C-10.82 -2.45 -5.49 -2.92 0 0 Z " fill="#FAC036" transform="translate(703,400)"/>
<path d="M0 0 C4.98 1.49 7.67 1.39 12.44 -0.62 C13.1 0.04 13.76 0.69 14.44 1.38 C14.06 4 14.06 4 13.44 6.38 C11.46 7.04 9.48 7.69 7.44 8.38 C7.11 7.06 6.78 5.74 6.44 4.38 C5.74 4.25 5.03 4.13 4.31 4 C1.44 3.38 1.44 3.38 -1.25 2.31 C-5.95 0.98 -12.05 0.12 -16.56 2.38 C-16.23 1.38 -15.9 0.39 -15.56 -0.62 C-10.55 -3.13 -5.06 -1.58 0 0 Z " fill="#F8A372" transform="translate(810.5625,396.625)"/>
<path d="M0 0 C2.55 4.17 1.89 6.97 0.83 11.58 C-0.38 15.1 -1.93 16.93 -5 19 C-8.45 18.92 -9.56 18.44 -12 16 C-12.48 11.17 -12.5 8.94 -10.19 4.62 C-6.93 0.72 -4.97 -0.27 0 0 Z M-3 1 C-7.5 4.24 -7.5 4.24 -10 9 C-10.08 11.33 -10.09 13.67 -10 16 C-7.52 16.5 -7.52 16.5 -5 17 C-1.32 12.25 -0.41 8.99 0 3 C-0.99 2.34 -1.98 1.68 -3 1 Z " fill="#F8A76A" transform="translate(773,366)"/>
<path d="M0 0 C2.62 -0.19 2.62 -0.19 5 0 C5.66 1.32 6.32 2.64 7 4 C16.12 4.51 16.12 4.51 25 2.94 C28 2 28 2 30.45 2.43 C35.55 3.25 40.59 3.14 45.75 3.12 C46.8 3.13 47.86 3.13 48.94 3.14 C50.45 3.13 50.45 3.13 51.98 3.13 C53.36 3.13 53.36 3.13 54.76 3.13 C57.04 3.15 57.04 3.15 59 2 C58.67 2.99 58.34 3.98 58 5 C50.95 5.22 43.91 5.41 36.86 5.59 C34.46 5.66 32.06 5.72 29.66 5.8 C26.22 5.91 22.77 5.99 19.33 6.07 C17.72 6.13 17.72 6.13 16.08 6.19 C15.08 6.21 14.08 6.23 13.04 6.25 C12.16 6.27 11.29 6.3 10.38 6.32 C7.49 5.93 6.25 4.79 4 3 C0.83 2.75 0.83 2.75 -2 3 C-1.34 2.01 -0.68 1.02 0 0 Z " fill="#F8A077" transform="translate(511,392)"/>
<path d="M0 0 C2.97 0 5.94 0 9 0 C8.67 0.99 8.34 1.98 8 3 C8.99 4.49 8.99 4.49 10 6 C8.68 7.65 7.36 9.3 6 11 C4.35 10.67 2.7 10.34 1 10 C-1.12 3.38 -1.12 3.38 0 0 Z " fill="#FAB33F" transform="translate(431,275)"/>
<path d="M0 0 C0.66 0.66 1.32 1.32 2 2 C1.62 4.12 1.62 4.12 1 6 C-5.62 8.25 -8.66 7.94 -15 5 C-15 4.34 -15 3.68 -15 3 C-5.25 -0.64 -5.25 -0.64 0 0 Z " fill="#F8BF37" transform="translate(726,396)"/>
<path d="M0 0 C0.31 2.12 0.31 2.12 0 5 C-2.38 8.12 -2.38 8.12 -5 11 C-5.99 12.49 -5.99 12.49 -7 14 C-7.66 11.69 -8.32 9.38 -9 7 C-11.31 7.33 -13.62 7.66 -16 8 C-15.16 7.66 -15.16 7.66 -14.31 7.31 C-11.8 6.02 -11.8 6.02 -9.5 3.5 C-4.5 -1.5 -4.5 -1.5 0 0 Z " fill="#F8AE5D" transform="translate(516,352)"/>
<path d="M0 0 C1.14 0.34 1.14 0.34 2.31 0.69 C3.06 3.94 3.06 3.94 3.31 7.69 C1.62 10.19 1.62 10.19 -0.69 11.69 C-3.09 11.48 -4.54 10.76 -6.69 9.69 C-6.09 3.33 -6.09 3.33 -4.44 0.69 C-2.69 -0.31 -2.69 -0.31 0 0 Z " fill="#FBA635" transform="translate(550.6875,282.3125)"/>
<path d="M0 0 C1.98 0.66 3.96 1.32 6 2 C5.54 3.05 5.54 3.05 5.06 4.12 C3.73 7.45 3.73 7.45 3 13 C11.41 12.5 11.41 12.5 20 12 C20.33 12.66 20.66 13.32 21 14 C18.06 14.44 15.13 14.86 12.19 15.25 C10.94 15.44 10.94 15.44 9.66 15.64 C3.56 16.42 3.56 16.42 0.94 14.44 C-0.23 11.39 -0.29 9.01 -0.19 5.75 C-0.15 4.13 -0.15 4.13 -0.11 2.48 C-0.07 1.66 -0.04 0.84 0 0 Z " fill="#F3A56A" transform="translate(538,344)"/>
<path d="M0 0 C2.81 0.38 2.81 0.38 4.81 1.38 C5.12 4 5.12 4 4.81 7.38 C3.53 8.82 2.25 10.26 0.94 11.67 C-1.23 14.96 -0.85 18.62 -0.19 22.38 C1.14 25.35 1.14 25.35 2.81 27.38 C0.38 27 0.38 27 -2.19 26.38 C-4.28 22.19 -3.76 16.92 -3.19 12.38 C-0.69 9.44 -0.69 9.44 1.81 7.38 C2.23 4.66 2.23 4.66 1.81 2.38 C-1.88 2.87 -3.79 3.48 -6.19 6.38 C-6.85 6.05 -7.51 5.71 -8.19 5.38 C-4.02 0.47 -4.02 0.47 0 0 Z " fill="#F8A867" transform="translate(667.1875,372.625)"/>
<path d="M0 0 C0.33 0 0.66 0 1 0 C1.27 1.22 1.54 2.43 1.81 3.69 C2.86 7.88 4.24 11.38 7.49 14.38 C9.22 16.24 9.87 17.8 10.69 20.19 C10.94 20.9 11.19 21.62 11.45 22.36 C11.63 22.9 11.81 23.44 12 24 C9.14 23.68 7.32 23.23 4.97 21.53 C2.15 17.91 1.56 14.25 0.69 9.81 C0.51 8.98 0.33 8.15 0.14 7.29 C-0.3 5.21 -0.66 3.1 -1 1 C-0.67 0.67 -0.34 0.34 0 0 Z " fill="#F9A536" transform="translate(781,309)"/>
<path d="M0 0 C0 0.66 0 1.32 0 2 C-2.5 3.62 -2.5 3.62 -5 5 C-4.97 7.42 -4.97 7.42 -4 10 C-0.28 12.45 2.56 13.39 7 13 C7.66 11.68 8.32 10.36 9 9 C9 12 9 12 7.38 14.25 C5 16 5 16 2.19 16 C-1.88 14.72 -4.55 13.57 -8 11 C-9.12 7.44 -9.12 7.44 -9 4 C-7.54 1.7 -6.5 1.17 -3.94 0.31 C-2 0 -2 0 0 0 Z " fill="#F8A76A" transform="translate(625,369)"/>
<path d="M0 0 C4.74 0.74 9.47 0.89 14.26 1.09 C15.23 1.13 16.21 1.18 17.21 1.22 C19.6 1.33 21.99 1.43 24.38 1.53 C24.38 1.86 24.38 2.19 24.38 2.53 C8.87 2.53 -6.64 2.53 -22.62 2.53 C-22.62 1.87 -22.62 1.21 -22.62 0.53 C-7.23 -1.31 -7.23 -1.31 0 0 Z " fill="#F8A966" transform="translate(631.6171875,395.47265625)"/>
<path d="M0 0 C-0.26 2.34 -0.59 4.68 -1 7 C-3.87 8.44 -5.86 7.71 -9 7.19 C-10.07 7.02 -11.14 6.84 -12.25 6.67 C-15 6 -15 6 -17 4 C-14.92 3.33 -12.84 2.66 -10.75 2 C-9.59 1.63 -8.43 1.26 -7.23 0.88 C-4 0 -4 0 0 0 Z " fill="#FAC036" transform="translate(455,360)"/>
<path d="M0 0 C1.52 -0 1.52 -0 3.08 -0.01 C4.66 0 4.66 0 6.27 0.02 C7.87 0 7.87 0 9.49 -0.01 C10.51 -0.01 11.52 -0 12.56 0 C13.49 0 14.42 0 15.37 0.01 C17.65 0.27 17.65 0.27 19.65 2.27 C18.68 2.31 17.72 2.36 16.73 2.41 C15.46 2.49 14.2 2.56 12.9 2.64 C11.02 2.75 11.02 2.75 9.1 2.85 C5.77 3.04 5.77 3.04 3.55 4.39 C0.69 5.71 -1.15 4.8 -4.1 3.89 C-5.09 3.59 -6.07 3.3 -7.09 2.99 C-7.83 2.75 -8.58 2.51 -9.35 2.27 C-6.13 0.36 -3.72 0.01 0 0 Z " fill="#FABA36" transform="translate(538.3515625,396.734375)"/>
<path d="M0 0 C2.42 1.89 2.99 2.96 3.75 6 C4 9 4 9 3 12 C0.62 11.75 0.62 11.75 -2 11 C-3.79 8.44 -4 7.17 -4 4 C-4.66 3.34 -5.32 2.68 -6 2 C-4.02 1.34 -2.04 0.68 0 0 Z " fill="#F9712A" transform="translate(831,286)"/>
<path d="M0 0 C0.72 0.27 1.44 0.54 2.19 0.81 C1.85 3.86 0.93 5.15 -1 7.62 C-3.81 9.81 -3.81 9.81 -7.12 9.62 C-8.01 9.36 -8.9 9.09 -9.81 8.81 C-7.99 4.33 -5.23 -0.35 0 0 Z " fill="#FABB36" transform="translate(598.8125,371.1875)"/>
<path d="M0 0 C-1.65 0.33 -3.3 0.66 -5 1 C-5.66 2.98 -6.32 4.96 -7 7 C-6.3 7.19 -5.6 7.37 -4.88 7.56 C-1.96 9.02 -1.02 10.01 0.94 12.5 C3.6 15.82 5.75 17.09 10 18 C10 18.33 10 18.66 10 19 C7.5 19.5 7.5 19.5 4 19 C1.78 17.19 -0.09 15.21 -2.03 13.11 C-4.5 10.46 -7.17 8.26 -10 6 C-9.67 4.35 -9.34 2.7 -9 1 C-2.25 -1.12 -2.25 -1.12 0 0 Z " fill="#F8A372" transform="translate(505,358)"/>
<path d="M0 0 C-2.19 1.62 -2.19 1.62 -5 3 C-5.71 2.7 -6.42 2.4 -7.16 2.09 C-10.89 0.66 -14.38 0.78 -18.31 0.88 C-19.42 0.89 -19.42 0.89 -20.56 0.9 C-22.37 0.93 -24.19 0.96 -26 1 C-18.43 -4.04 -7.95 -4.35 0 0 Z " fill="#F990A4" transform="translate(713,397)"/>
<path d="M0 0 C1.44 2.06 1.44 2.06 2 4 C1.3 3.46 0.6 2.93 -0.12 2.38 C-2.88 0.7 -2.88 0.7 -5.62 1.56 C-6.74 2.04 -7.85 2.51 -9 3 C-10.87 3.7 -12.75 4.38 -14.62 5.06 C-16.01 5.57 -16.01 5.57 -17.41 6.1 C-21.35 7.47 -24.57 8.12 -28.75 8.06 C-29.55 8.05 -30.35 8.04 -31.17 8.04 C-31.78 8.02 -32.38 8.01 -33 8 C-28.82 5.21 -24.27 4.6 -19.42 3.59 C-1.36 -0.39 -1.36 -0.39 0 0 Z " fill="#F990A4" transform="translate(452,392)"/>
<path d="M0 0 C5.5 -0.37 5.5 -0.37 7.88 1.38 C9 3 9 3 9 5 C7.04 6.71 5.04 8.38 3 10 C3 9.34 3 8.68 3 8 C2.34 8 1.68 8 1 8 C-1 5 -1 5 -0.62 2.31 C-0.42 1.55 -0.21 0.79 0 0 Z " fill="#FABE36" transform="translate(816,323)"/>
<path d="M0 0 C2.94 2.56 2.94 2.56 5 5 C4.01 4.67 3.02 4.34 2 4 C-4.76 3.55 -11.47 4.17 -18 6 C-14 0 -6.84 -2.24 0 0 Z " fill="#F8A868" transform="translate(782,394)"/>
<path d="M0 0 C0.66 0 1.32 0 2 0 C4.45 4.36 4.4 8.09 4.44 13 C4.49 14.21 4.49 14.21 4.54 15.45 C4.56 17.74 4.51 19.76 4 22 C1.47 24.56 1.47 24.56 -1 26 C-0.67 25.35 -0.35 24.7 -0.01 24.04 C1.31 20.08 1.25 16.57 1.19 12.44 C1.19 11.31 1.19 11.31 1.19 10.15 C1.16 6.6 0.95 3.41 0 0 Z " fill="#F8A76B" transform="translate(641,348)"/>
<path d="M0 0 C0.66 0.33 1.32 0.66 2 1 C1.8 2.88 1.8 2.88 1 5 C-1.11 6.12 -1.11 6.12 -3.75 7 C-9.48 9.05 -9.48 9.05 -14 13 C-14.41 16.61 -14.41 16.61 -13 20 C-10.07 22.01 -10.07 22.01 -7 23 C-9.72 24.11 -10.9 24.03 -13.75 23.12 C-16.32 20.7 -16.45 20.03 -16.69 16.62 C-16.46 12.82 -16.11 12.13 -13.44 9.12 C-9.36 6.33 -5.01 4 0 4 C0 2.68 0 1.36 0 0 Z " fill="#F990A4" transform="translate(631,360)"/>
<path d="M0 0 C2.64 0.33 5.28 0.66 8 1 C8.38 2.66 8.71 4.32 9 6 C8 7 8 7 5.12 7.25 C2 7 2 7 0.06 5.75 C-1 4 -1 4 -0.69 1.81 C-0.46 1.21 -0.23 0.62 0 0 Z " fill="#F89E7B" transform="translate(450,338)"/>
<path d="M0 0 C0.33 0 0.66 0 1 0 C1.05 0.72 1.1 1.43 1.15 2.17 C1.38 5.41 1.63 8.64 1.88 11.88 C1.95 13 2.03 14.13 2.11 15.29 C2.2 16.37 2.28 17.45 2.37 18.55 C2.44 19.55 2.51 20.54 2.59 21.57 C2.79 24.17 2.79 24.17 5 26 C2.69 26.33 0.38 26.66 -2 27 C-2.62 25.19 -2.62 25.19 -3 23 C-2.01 21.51 -2.01 21.51 -1 20 C-0.63 17.78 -0.63 17.78 -0.59 15.33 C-0.55 14.44 -0.51 13.55 -0.47 12.63 C-0.44 11.7 -0.41 10.77 -0.38 9.81 C-0.34 8.87 -0.3 7.93 -0.26 6.96 C-0.16 4.64 -0.08 2.32 0 0 Z " fill="#FCA635" transform="translate(554,308)"/>
<path d="M0 0 C0.99 0.33 1.98 0.66 3 1 C3 1.66 3 2.32 3 3 C1.32 4.52 -0.42 5.97 -2.19 7.38 C-3.15 8.15 -4.11 8.92 -5.11 9.71 C-6.06 10.47 -7.02 11.22 -8 12 C-9.67 13.33 -11.33 14.67 -13 16 C-13 13 -13 13 -11.81 11.47 C-11.26 10.94 -10.72 10.41 -10.16 9.86 C-9.57 9.29 -8.98 8.71 -8.38 8.12 C-7.76 7.52 -7.14 6.93 -6.5 6.31 C-5.88 5.71 -5.26 5.1 -4.62 4.47 C-3.09 2.98 -1.54 1.49 0 0 Z " fill="#F95C23" transform="translate(464,285)"/>
<path d="M0 0 C0.66 0 1.32 0 2 0 C2.33 4.29 2.66 8.58 3 13 C0.04 14.48 -2.65 14.17 -5.94 14.19 C-7.18 14.2 -8.43 14.22 -9.71 14.23 C-13 14 -13 14 -16 12 C-15.1 12.01 -14.19 12.02 -13.26 12.04 C-11.49 12.05 -11.49 12.05 -9.69 12.06 C-8.52 12.07 -7.34 12.09 -6.14 12.1 C-2.97 12.15 -2.97 12.15 0 11 C0 7.37 0 3.74 0 0 Z " fill="#F6A335" transform="translate(543,320)"/>
<path d="M0 0 C1 1 1 1 1.06 3.56 C1.04 4.37 1.02 5.17 1 6 C0.34 6 -0.32 6 -1 6 C-1.33 6.99 -1.66 7.98 -2 9 C-2.99 8.34 -3.98 7.68 -5 7 C-5 6.34 -5 5.68 -5 5 C-5.99 4.67 -6.98 4.34 -8 4 C-8 3.01 -8 2.02 -8 1 C-5.06 0.02 -3.06 -0.16 0 0 Z " fill="#FABF36" transform="translate(463,315)"/>
<path d="M0 0 C0.66 0.33 1.32 0.66 2 1 C1.7 1.5 1.4 1.99 1.09 2.5 C-1.69 7.47 -2.37 10.29 -1 16 C-0.81 17.13 -0.63 18.27 -0.44 19.44 C-0.29 20.28 -0.15 21.13 0 22 C-0.66 22.33 -1.32 22.66 -2 23 C-2.43 21.36 -2.43 21.36 -2.88 19.69 C-3.82 15.96 -3.82 15.96 -6 13 C-5.88 6.9 -4.03 4.24 0 0 Z " fill="#F990A4" transform="translate(570,372)"/>
<path d="M0 0 C0 3 0 3 -1.12 4.69 C-3.83 6.58 -5.77 6.34 -9 6 C-9.99 5.34 -10.98 4.68 -12 4 C-12 3.34 -12 2.68 -12 2 C-7.88 0.71 -4.33 -0.26 0 0 Z " fill="#F8AA64" transform="translate(479,383)"/>
<path d="M0 0 C3.69 0.5 5.6 1.1 8 4 C5.45 6.35 4.29 6.98 0.75 7.19 C-0.16 7.13 -1.06 7.06 -2 7 C-2 3 -2 3 0 0 Z " fill="#FAC137" transform="translate(431,374)"/>
<path d="M0 0 C1.48 -0.03 2.96 -0.05 4.44 -0.06 C5.26 -0.07 6.08 -0.09 6.93 -0.1 C9 0 9 0 10 1 C10.25 3.44 10.25 3.44 10 6 C9.01 6.66 8.02 7.32 7 8 C3.83 6.42 2.27 5.55 0.69 2.31 C0.46 1.55 0.23 0.79 0 0 Z " fill="#FABC36" transform="translate(733,287)"/>
<path d="M0 0 C-3.57 3.43 -6.42 3.35 -11.25 3.25 C-12.25 3.23 -12.25 3.23 -13.27 3.22 C-17.91 3.11 -22.42 2.75 -27 2 C-27 1.67 -27 1.34 -27 1 C-22.88 0.64 -18.75 0.29 -14.62 -0.06 C-13.45 -0.17 -12.27 -0.27 -11.06 -0.38 C-9.94 -0.47 -8.82 -0.56 -7.66 -0.66 C-6.63 -0.75 -5.59 -0.84 -4.52 -0.93 C-2 -1 -2 -1 0 0 Z " fill="#F990A4" transform="translate(720,258)"/>
<path d="M0 0 C0.33 0 0.66 0 1 0 C1.28 1.43 1.52 2.87 1.75 4.31 C1.89 5.11 2.03 5.91 2.17 6.74 C2 9 2 9 0.44 10.78 C-2.77 12.39 -5.18 12.29 -8.75 12.19 C-9.92 12.16 -11.09 12.13 -12.3 12.11 C-13.19 12.07 -14.08 12.04 -15 12 C-12.87 9.87 -11.96 9.52 -9.12 8.81 C-8.45 8.63 -7.77 8.45 -7.07 8.27 C-5 8 -5 8 -1 9 C-0.67 6.03 -0.34 3.06 0 0 Z " fill="#FB9A32" transform="translate(647,323)"/>
<path d="M0 0 C2.92 1.07 4.78 1.78 7 4 C6.62 6.62 6.62 6.62 6 9 C3.62 9.19 3.62 9.19 1 9 C-1 6 -1 6 -0.62 2.81 C-0.42 1.88 -0.21 0.96 0 0 Z " fill="#FABD36" transform="translate(796,300)"/>
<path d="M0 0 C0.33 0.66 0.66 1.32 1 2 C0.67 2.66 0.34 3.32 0 4 C-0.66 4 -1.32 4 -2 4 C-2.33 4.99 -2.66 5.98 -3 7 C-4.98 7.33 -6.96 7.66 -9 8 C-10 5 -10 5 -9 2.88 C-6.21 0.26 -3.73 0.28 0 0 Z " fill="#F89E80" transform="translate(697,362)"/>
<path d="M0 0 C2.71 -0.34 2.71 -0.34 6.1 -0.29 C7.31 -0.28 8.52 -0.27 9.77 -0.26 C11.04 -0.24 12.32 -0.21 13.62 -0.19 C14.9 -0.17 16.18 -0.16 17.5 -0.15 C20.67 -0.11 23.83 -0.06 27 0 C27 0.66 27 1.32 27 2 C7.03 3.15 7.03 3.15 -2 3 C-1.34 2.01 -0.68 1.02 0 0 Z " fill="#FBA635" transform="translate(564,332)"/>
<path d="M0 0 C2.31 0.69 2.31 0.69 4.12 2.25 C5.7 5.49 5.52 8.13 5.31 11.69 C4.98 11.69 4.65 11.69 4.31 11.69 C3.65 9.05 2.99 6.41 2.31 3.69 C0.99 3.36 -0.33 3.03 -1.69 2.69 C-5.14 7.29 -6.52 11.05 -7.69 16.69 C-8.02 16.69 -8.35 16.69 -8.69 16.69 C-9.18 12.68 -9.48 9.17 -7.53 5.53 C-5.21 2.64 -3.64 0.93 0 0 Z " fill="#F8A56E" transform="translate(712.6875,364.3125)"/>
<path d="M0 0 C0.7 6.59 -1.5 10.49 -5 16 C-6.65 16 -8.3 16 -10 16 C-8.82 15.23 -8.82 15.23 -7.62 14.44 C-4.44 11.48 -3.89 9.18 -3 5 C-3.99 4.67 -4.98 4.34 -6 4 C-2.25 0 -2.25 0 0 0 Z " fill="#F8AA65" transform="translate(458,355)"/>
<path d="M0 0 C0.99 0.33 1.98 0.66 3 1 C1.93 1.76 0.86 2.53 -0.25 3.31 C-6.22 7.77 -11.57 12.92 -17 18 C-17.66 17.67 -18.32 17.34 -19 17 C-16.17 13.23 -13.18 10.32 -9.5 7.38 C-8.56 6.62 -7.62 5.86 -6.66 5.09 C-5.78 4.4 -4.9 3.71 -4 3 C-3.29 2.39 -2.58 1.79 -1.84 1.16 C-0.93 0.59 -0.93 0.59 0 0 Z " fill="#F8A56D" transform="translate(875,359)"/>
<path d="M0 0 C-5.03 3.35 -9.91 4.22 -15.81 4.78 C-18.56 5.06 -21.28 5.51 -24 6 C-20.25 2.57 -17.58 1.39 -12.56 0.75 C-11.47 0.6 -10.38 0.45 -9.25 0.3 C-6.15 0.01 -3.12 -0.06 0 0 Z " fill="#F8A66B" transform="translate(438,398)"/>
<path d="M0 0 C6.36 1.24 9.18 5.14 13 10 C12.34 11.65 11.68 13.3 11 15 C10.67 15 10.34 15 10 15 C9.73 14.07 9.46 13.14 9.19 12.19 C8.06 9.17 7.29 8.08 5 6 C5 5.34 5 4.68 5 4 C4.36 3.9 3.72 3.79 3.06 3.69 C2.38 3.46 1.7 3.23 1 3 C0.67 2.01 0.34 1.02 0 0 Z " fill="#FBA440" transform="translate(822,302)"/>
<path d="M0 0 C0.66 0 1.32 0 2 0 C0.7 2.89 -0.48 5.04 -3 7 C-5.54 7.34 -5.54 7.34 -8.54 7.29 C-10.15 7.28 -10.15 7.28 -11.79 7.26 C-12.91 7.24 -14.03 7.21 -15.19 7.19 C-16.32 7.17 -17.45 7.16 -18.62 7.15 C-21.41 7.11 -24.21 7.06 -27 7 C-27 6.34 -27 5.68 -27 5 C-26.32 5.03 -25.65 5.05 -24.95 5.08 C-21.89 5.18 -18.82 5.25 -15.75 5.31 C-14.69 5.35 -13.62 5.4 -12.53 5.44 C-6.33 5.75 -6.33 5.75 -1.39 2.48 C-0.93 1.66 -0.47 0.84 0 0 Z " fill="#F8AD5F" transform="translate(721,256)"/>
<path d="M0 0 C3.37 0.89 4.47 2.81 6.38 5.62 C5.38 6.12 5.38 6.12 4.38 6.62 C3.72 5.63 3.05 4.64 2.38 3.62 C-0.6 3.16 -2.12 3.33 -4.72 4.87 C-5.37 5.41 -6.02 5.94 -6.69 6.5 C-9.23 8.58 -11.54 10.44 -14.62 11.62 C-15.62 11.3 -16.61 10.96 -17.62 10.62 C-17.04 10.32 -16.46 10.02 -15.87 9.71 C-12.07 7.67 -8.57 5.74 -5.38 2.81 C-2.62 0.62 -2.62 0.62 0 0 Z " fill="#F990A4" transform="translate(513.625,389.375)"/>
<path d="M0 0 C3.3 0 6.6 0 10 0 C6.7 4.77 6.7 4.77 3.31 5.88 C2.55 5.92 1.79 5.96 1 6 C0.67 5.67 0.34 5.34 0 5 C0 3.35 0 1.7 0 0 Z " fill="#F8A862" transform="translate(806,408)"/>
<path d="M0 0 C0.33 0 0.66 0 1 0 C0.98 0.69 0.95 1.37 0.93 2.08 C0.91 2.98 0.89 3.88 0.88 4.81 C0.85 5.71 0.83 6.6 0.8 7.52 C0.82 10.25 0.82 10.25 3 13 C6.13 13.37 6.13 13.37 9.62 13.19 C10.81 13.16 12 13.13 13.23 13.11 C14.14 13.07 15.06 13.04 16 13 C16 13.33 16 13.66 16 14 C12.61 14.9 9.3 15.15 5.81 15.25 C4.52 15.29 4.52 15.29 3.21 15.33 C2.48 15.22 1.75 15.11 1 15 C-1.18 11.73 -1.25 10.73 -1.19 6.94 C-1.18 6.06 -1.17 5.18 -1.17 4.28 C-1 2 -1 2 0 0 Z " fill="#F990A4" transform="translate(538,346)"/>
<path d="M0 0 C0.66 0.33 1.32 0.66 2 1 C2 5.29 2 9.58 2 14 C1.05 14.45 0.1 14.91 -0.88 15.38 C-4 16.8 -4 16.8 -6 19 C-5.53 16.04 -4.61 14.37 -3 11.75 C-0.67 7.86 -0.31 4.49 0 0 Z " fill="#F990A4" transform="translate(518,347)"/>
<path d="M0 0 C3.94 3.32 3.94 3.32 4.25 6.75 C4.17 7.49 4.09 8.24 4 9 C2.68 9.33 1.36 9.66 0 10 C0 9.34 0 8.68 0 8 C-0.66 8 -1.32 8 -2 8 C-2.12 5.12 -2.12 5.12 -2 2 C-1.34 1.34 -0.68 0.68 0 0 Z " fill="#FBA434" transform="translate(648,295)"/>
<path d="M0 0 C2.32 1.91 2.82 2.81 3.12 5.75 C2.13 6.25 2.13 6.25 1.12 6.75 C0.79 5.1 0.47 3.45 0.12 1.75 C-5.88 1.53 -11.07 2.24 -16.88 3.75 C-12.01 -1.45 -6.81 -2.96 0 0 Z " fill="#F8A66B" transform="translate(752.875,395.25)"/>
<path d="M0 0 C2.44 1.56 2.44 1.56 4 3 C3.67 3.99 3.34 4.98 3 6 C2.34 5.01 1.68 4.02 1 3 C-3.41 2.59 -7.64 3.3 -12 4 C-12 3.34 -12 2.68 -12 2 C-7.87 -1.38 -5.06 -1.29 0 0 Z " fill="#F8A76A" transform="translate(725,394)"/>
<path d="M0 0 C0.33 0 0.66 0 1 0 C1.37 1.73 1.72 3.46 2.06 5.19 C2.26 6.15 2.46 7.11 2.66 8.11 C3 11 3 11 2 16 C-2.62 16 -7.24 16 -12 16 C-12 15.67 -12 15.34 -12 15 C-8.37 15 -4.74 15 -1 15 C-0.67 10.05 -0.34 5.1 0 0 Z " fill="#F990A4" transform="translate(653,380)"/>
<path d="M0 0 C2 2 2 2 2.56 5.12 C1.78 10.52 -0.68 13.72 -5 17 C-8.94 17.5 -8.94 17.5 -12 17 C-9 15 -9 15 -6.5 13.69 C-3.55 11.7 -2.47 10.23 -1 7 C-0.28 3.3 -0.28 3.3 0 0 Z " fill="#F8AE5D" transform="translate(839,366)"/>
<path d="M0 0 C0.33 0.99 0.66 1.98 1 3 C-6.4 9 -6.4 9 -11 9 C-11 8.34 -11 7.68 -11 7 C-12.32 7.33 -13.64 7.66 -15 8 C-15.33 7.34 -15.66 6.68 -16 6 C-15.41 5.95 -14.82 5.9 -14.21 5.85 C-7.88 5.28 -7.88 5.28 -2 3 C-1.34 2.01 -0.68 1.02 0 0 Z " fill="#F97E2C" transform="translate(689,326)"/>
<path d="M0 0 C0.33 0.99 0.66 1.98 1 3 C0.44 2.73 -0.11 2.46 -0.69 2.19 C-1.83 2.09 -1.83 2.09 -3 2 C-5.51 4.16 -7.51 6.02 -9 9 C-9.66 9 -10.32 9 -11 9 C-11 11.31 -11 13.62 -11 16 C-11.33 16 -11.66 16 -12 16 C-12.42 9.91 -12.07 6.88 -8 2 C-4.77 -0.15 -3.72 -0.2 0 0 Z " fill="#F8A46F" transform="translate(773,366)"/>
<path d="M0 0 C0.66 0 1.32 0 2 0 C1.75 2.38 1.75 2.38 1 5 C-1.06 6.31 -1.06 6.31 -3 7 C-2.53 7.72 -2.05 8.44 -1.56 9.19 C-0.06 11.89 0.57 13.96 1 17 C-1.96 14.19 -4.44 11.82 -6 8 C-5.2 7.24 -4.39 6.47 -3.56 5.69 C-0.83 3.21 -0.83 3.21 0 0 Z " fill="#F8A66C" transform="translate(633,347)"/>
<path d="M0 0 C0.66 0 1.32 0 2 0 C4.34 3.71 3.96 4.19 3 9 C-2.61 9 -8.22 9 -14 9 C-14 8.67 -14 8.34 -14 8 C-9.38 7.67 -4.76 7.34 0 7 C0 4.69 0 2.38 0 0 Z " fill="#F8A371" transform="translate(655,388)"/>
<path d="M0 0 C2.5 0 2.5 0 5 1 C6.32 2.32 7.64 3.64 9 5 C4.71 4.67 0.42 4.34 -4 4 C-2.68 2.68 -1.36 1.36 0 0 Z " fill="#F8B05B" transform="translate(511,394)"/>
<path d="M0 0 C0.7 0.01 1.4 0.03 2.13 0.04 C3.86 0.08 5.58 0.13 7.31 0.19 C7.31 0.52 7.31 0.85 7.31 1.19 C6.55 1.19 5.79 1.19 5 1.2 C-2.06 1.46 -6.32 2.54 -11.85 7.01 C-12.45 7.4 -13.06 7.79 -13.69 8.19 C-14.68 7.86 -15.67 7.53 -16.69 7.19 C-15.76 6.59 -14.83 5.99 -13.88 5.38 C-10.79 3.51 -10.79 3.51 -9.47 1.56 C-6.62 -0.64 -3.44 -0.13 0 0 Z " fill="#F4A173" transform="translate(768.6875,357.8125)"/>
<path d="M0 0 C2.31 -0.25 2.31 -0.25 5 0 C6.98 2.04 8 3.12 8 6 C6.25 6.69 6.25 6.69 4 7 C1.75 5.81 1.75 5.81 0 4 C0 2.68 0 1.36 0 0 Z " fill="#FABE36" transform="translate(513,338)"/>
<path d="M0 0 C1.32 0.66 2.64 1.32 4 2 C4 3.32 4 4.64 4 6 C2.02 6.99 2.02 6.99 0 8 C-1.12 5.69 -1.12 5.69 -2 3 C-1.34 2.01 -0.68 1.02 0 0 Z " fill="#FCA635" transform="translate(693,294)"/>
<path d="M0 0 C0.33 0 0.66 0 1 0 C1.25 1.07 1.5 2.14 1.75 3.25 C3 7 4.02 8.52 7 11 C6.34 12.32 5.68 13.64 5 15 C3.35 15 1.7 15 0 15 C1.32 14.67 2.64 14.34 4 14 C3.02 11.29 2.18 9.21 0.31 7 C-1 5 -1 5 -0.69 2.25 C-0.46 1.51 -0.23 0.76 0 0 Z " fill="#F8A272" transform="translate(511,363)"/>
<path d="M0 0 C0.33 0 0.66 0 1 0 C1.25 2.25 1.25 2.25 1 5 C-0.33 6.33 -1.67 7.67 -3 9 C-3.1 11.2 -3.1 11.2 -2 13 C-1.01 13.33 -0.02 13.66 1 14 C1 14.66 1 15.32 1 16 C-1.38 15.31 -1.38 15.31 -4 14 C-5.31 11.38 -5.31 11.38 -6 9 C-4.73 7.54 -3.46 6.07 -2.19 4.61 C-0.79 2.89 -0.79 2.89 0 0 Z " fill="#F8A56D" transform="translate(466,370)"/>
<path d="M0 0 C1.32 0.99 2.64 1.98 4 3 C0.04 3 -3.92 3 -8 3 C-7.67 2.01 -7.34 1.02 -7 0 C-4.26 -1.37 -2.92 -0.83 0 0 Z " fill="#F9742B" transform="translate(575,329)"/>
<path d="M0 0 C3.3 0 6.6 0 10 0 C10 0.33 10 0.66 10 1 C8.87 1.12 7.73 1.25 6.56 1.38 C4.8 1.68 4.8 1.68 3 2 C2.67 2.66 2.34 3.32 2 4 C4.64 4.33 7.28 4.66 10 5 C10 5.33 10 5.66 10 6 C8.54 5.86 7.08 5.71 5.62 5.56 C4.41 5.44 4.41 5.44 3.16 5.32 C1 5 1 5 -1 4 C-0.67 2.68 -0.34 1.36 0 0 Z " fill="#F8A966" transform="translate(803,429)"/>
<path d="M0 0 C0.33 0.33 0.66 0.66 1 1 C0.53 7.34 0.53 7.34 -1.56 9.94 C-2.04 10.29 -2.51 10.64 -3 11 C-2.67 8.36 -2.34 5.72 -2 3 C-4.31 3 -6.62 3 -9 3 C-7.16 -0.67 -3.67 -0.19 0 0 Z " fill="#F990A4" transform="translate(605,366)"/>
<path d="M0 0 C2.84 1.12 4.01 2.01 5.88 4.5 C8.38 7.45 10.3 8.07 14 9 C14 9.33 14 9.66 14 10 C11.5 10.5 11.5 10.5 8 10 C4.99 7.64 2.37 5 0 2 C0 1.34 0 0.68 0 0 Z " fill="#F8AA65" transform="translate(501,367)"/>
<path d="M0 0 C0.66 0 1.32 0 2 0 C2.25 2.26 2.25 2.26 2 5 C0.25 7.02 0.25 7.02 -2 8.81 C-2.74 9.42 -3.49 10.02 -4.25 10.64 C-4.83 11.09 -5.4 11.54 -6 12 C-6.33 11.01 -6.66 10.02 -7 9 C-6.03 8.26 -5.06 7.51 -4.06 6.75 C-1.98 5.03 -1.1 4.26 -0.12 1.69 C-0.08 1.13 -0.04 0.57 0 0 Z " fill="#F8A868" transform="translate(755,346)"/>
<path d="M0 0 C1.32 0.99 2.64 1.98 4 3 C3.67 3.99 3.34 4.98 3 6 C1.68 5.01 0.36 4.02 -1 3 C-1.66 5.64 -2.32 8.28 -3 11 C-4.1 6.59 -3.73 5.09 -2 1 C-1.34 0.67 -0.68 0.34 0 0 Z " fill="#F8A967" transform="translate(835,360)"/>
<path d="M0 0 C1.65 0.33 3.3 0.66 5 1 C4.34 2.65 3.68 4.3 3 6 C1.68 6 0.36 6 -1 6 C-0.67 4.02 -0.34 2.04 0 0 Z " fill="#FAC137" transform="translate(482,347)"/>
<path d="M0 0 C2.9 0.47 3.87 0.87 6 3 C6 3.99 6 4.98 6 6 C3.62 5.75 3.62 5.75 1 5 C-0.31 2.94 -0.31 2.94 -1 1 C-0.67 0.67 -0.34 0.34 0 0 Z " fill="#FAC036" transform="translate(425,347)"/>
<path d="M0 0 C1.68 0.29 3.34 0.62 5 1 C5 2.32 5 3.64 5 5 C3.35 5.33 1.7 5.66 0 6 C-0.38 4.34 -0.71 2.68 -1 1 C-0.67 0.67 -0.34 0.34 0 0 Z " fill="#FABC36" transform="translate(547,288)"/>
<path d="M0 0 C1 0.02 2 0.05 3.02 0.07 C4.53 0.1 4.53 0.1 6.06 0.12 C6.83 0.15 7.6 0.17 8.4 0.2 C8.4 0.53 8.4 0.86 8.4 1.2 C7.7 1.3 7 1.41 6.28 1.53 C5.37 1.69 4.46 1.84 3.52 2.01 C2.62 2.16 1.71 2.31 0.78 2.46 C-1.95 3.03 -1.95 3.03 -3.6 6.2 C-4.59 6.2 -5.58 6.2 -6.6 6.2 C-3.85 0.29 -3.85 0.29 0 0 Z " fill="#F8AA65" transform="translate(689.6015625,397.8046875)"/>
<path d="M0 0 C1.32 0.66 2.64 1.32 4 2 C3.67 3.65 3.34 5.3 3 7 C1.68 6.34 0.36 5.68 -1 5 C-0.67 3.35 -0.34 1.7 0 0 Z " fill="#F8A66B" transform="translate(821,396)"/>
<path d="M0 0 C0.66 0 1.32 0 2 0 C0.7 3.91 -0.67 6.5 -4 9 C-7.25 9.25 -7.25 9.25 -10 9 C-9.67 8.34 -9.34 7.68 -9 7 C-7.02 7.5 -7.02 7.5 -5 8 C-4.73 7.42 -4.46 6.85 -4.19 6.25 C-2.97 3.94 -1.7 1.98 0 0 Z " fill="#F8A371" transform="translate(804,375)"/>
<path d="M0 0 C0.1 0.64 0.21 1.28 0.31 1.94 C0.54 2.62 0.77 3.3 1 4 C4.13 5.04 4.99 4.93 8 4 C6.25 6.06 6.25 6.06 4 8 C1.88 8 1.88 8 0 7 C-1.25 4.94 -1.25 4.94 -2 3 C-1.34 2.01 -0.68 1.02 0 0 Z " fill="#F990A4" transform="translate(476,352)"/>
<path d="M0 0 C1.24 0.02 1.24 0.02 2.5 0.04 C3.32 0.04 4.15 0.05 5 0.06 C5.64 0.07 6.28 0.09 6.93 0.1 C7.26 0.76 7.59 1.42 7.93 2.1 C3.48 2.59 3.48 2.59 -1.07 3.1 C-1.4 4.09 -1.73 5.08 -2.07 6.1 C-2.73 6.1 -3.39 6.1 -4.07 6.1 C-3 0.14 -3 0.14 0 0 Z " fill="#FBB235" transform="translate(598.06640625,319.90234375)"/>
<path d="M0 0 C0.99 0.5 0.99 0.5 2 1 C2.49 2.97 2.98 4.94 3.43 6.92 C4.17 9.6 5.43 11.72 7 14 C3.94 12.95 3.02 12.03 1.25 9.25 C-0.04 5.89 -0.25 3.56 0 0 Z " fill="#F9742B" transform="translate(793,302)"/>
<path d="M0 0 C3.3 0.33 6.6 0.66 10 1 C8 3 8 3 5.62 3.2 C4.71 3.17 3.81 3.15 2.88 3.12 C1.51 3.1 1.51 3.1 0.12 3.07 C-0.58 3.05 -1.28 3.02 -2 3 C-1.34 2.01 -0.68 1.02 0 0 Z " fill="#F8A66B" transform="translate(700,274)"/>
<path d="M0 0 C0.33 0 0.66 0 1 0 C1 1.65 1 3.3 1 5 C-2.09 6.76 -3.23 7 -7 7 C-7 6.34 -7 5.68 -7 5 C-5.03 3.62 -3.03 2.29 -1 1 C-0.67 0.67 -0.34 0.34 0 0 Z " fill="#FCA635" transform="translate(690,328)"/>
<path d="M0 0 C1.65 0 3.3 0 5 0 C7.88 6.62 7.88 6.62 9 10 C5.62 8.87 5.47 8.55 3.94 5.56 C2.74 3.26 1.87 1.87 0 0 Z " fill="#F96E2F" transform="translate(431,286)"/>
<path d="M0 0 C0.99 1.49 0.99 1.49 2 3 C1.34 3 0.68 3 0 3 C0 2.01 0 1.02 0 0 Z " fill="#FAC137" transform="translate(877,355)"/>
<path d="M0 0 C1 4 1 4 1 4 Z " fill="#FA491D" transform="translate(522,300)"/>
<path d="M0 0 C1 4 1 4 1 4 Z " fill="#FA491D" transform="translate(522,295)"/>
<path d="M0 0 C1 4 1 4 1 4 Z " fill="#FA491D" transform="translate(522,289)"/>
<path d="M0 0 C0.66 0.66 1.32 1.32 2 2 C1.34 2 0.68 2 0 2 C0 1.34 0 0.68 0 0 Z " fill="#FB87C2" transform="translate(480,382)"/>
<path d="M0 0 C3 1 3 1 3 1 Z " fill="#FB9531" transform="translate(822,287)"/>
<path d="M0 0 C3 1 3 1 3 1 Z " fill="#FA491D" transform="translate(620,281)"/>
<path d="M0 0 C3 1 3 1 3 1 Z " fill="#FA491D" transform="translate(716,280)"/>
<path d="" fill="#FA491D" transform="translate(0,0)"/>
<path d="M0 0 C2 1 2 1 2 1 Z " fill="#F8B05B" transform="translate(429,371)"/>
<path d="M0 0 C2 1 2 1 2 1 Z " fill="#FB87C2" transform="translate(702,357)"/>
<path d="M0 0 C2 1 2 1 2 1 Z " fill="#FB87C2" transform="translate(572,357)"/>
<path d="M0 0 C2 1 2 1 2 1 Z " fill="#1F5F3E" transform="translate(712,320)"/>
<path d="" fill="#F9742B" transform="translate(0,0)"/>
<path d="M0 0 C2 1 2 1 2 1 Z " fill="#FCA635" transform="translate(549,281)"/>
<path d="" fill="#FA491D" transform="translate(0,0)"/>
<path d="" fill="#FB87C2" transform="translate(0,0)"/>
<path d="" fill="#FB87C2" transform="translate(0,0)"/>
<path d="" fill="#FB87C2" transform="translate(0,0)"/>
<path d="" fill="#FB87C2" transform="translate(0,0)"/>
<path d="" fill="#FB87C2" transform="translate(0,0)"/>
<path d="" fill="#FB87C2" transform="translate(0,0)"/>
<path d="" fill="#FB87C2" transform="translate(0,0)"/>
<path d="" fill="#FAC137" transform="translate(0,0)"/>
<path d="" fill="#B6838E" transform="translate(0,0)"/>
<path d="" fill="#FB87C2" transform="translate(0,0)"/>
<path d="" fill="#FB87C2" transform="translate(0,0)"/>
<path d="" fill="#FA491D" transform="translate(0,0)"/>
<path d="" fill="#FA491D" transform="translate(0,0)"/>
<path d="" fill="#FA491D" transform="translate(0,0)"/>
<path d="" fill="#F9742B" transform="translate(0,0)"/>
<path d="" fill="#F9742B" transform="translate(0,0)"/>
<path d="" fill="#FA491D" transform="translate(0,0)"/>
<path d="" fill="#FA491D" transform="translate(0,0)"/>
<path d="" fill="#FA491D" transform="translate(0,0)"/>
<path d="" fill="#FA491D" transform="translate(0,0)"/>
<path d="" fill="#FA491D" transform="translate(0,0)"/>
<path d="" fill="#FA491D" transform="translate(0,0)"/>
<path d="" fill="#FA491D" transform="translate(0,0)"/>
<path d="" fill="#FB87C2" transform="translate(0,0)"/>
<path d="" fill="#FB87C2" transform="translate(0,0)"/>
<path d="" fill="#FAC137" transform="translate(0,0)"/>
<path d="" fill="#FA491D" transform="translate(0,0)"/>
<path d="" fill="#FA491D" transform="translate(0,0)"/>
<path d="" fill="#FA491D" transform="translate(0,0)"/>
<path d="" fill="#FA491D" transform="translate(0,0)"/>
<path d="" fill="#FA491D" transform="translate(0,0)"/>
<path d="" fill="#FA491D" transform="translate(0,0)"/>
</svg>
