<?xml version="1.0" encoding="UTF-8"?>
<!-- Generator: visioncortex VTracer 0.6.3 -->
<svg version="1.1" xmlns="http://www.w3.org/2000/svg" width="1280" height="640">
<path d="M0 0 C5.56 2.25 11.44 2.11 17.34 2.14 C18.62 2.15 18.62 2.15 19.94 2.16 C21.75 2.17 23.55 2.17 25.36 2.18 C28.11 2.19 30.85 2.22 33.6 2.25 C35.37 2.26 37.13 2.26 38.9 2.27 C39.71 2.28 40.52 2.29 41.35 2.3 C47.17 2.28 51.91 1.02 57.32 -1.06 C76.9 -7.84 106.39 -6.22 125.32 1.94 C126.04 2.22 126.76 2.5 127.51 2.79 C132.17 4.65 132.17 4.65 133.32 6.94 C134.2 7.33 135.09 7.72 136 8.12 C142.52 11.69 146.32 17.41 148.9 24.3 C149.66 29.11 147.5 32.77 145.32 36.94 C144.99 37.93 144.66 38.92 144.32 39.94 C144.98 40.93 145.64 41.92 146.32 42.94 C147.26 42.73 148.2 42.53 149.18 42.32 C173.93 37.12 173.93 37.12 183.32 40.94 C186.41 43.43 188.06 46.16 189.32 49.94 C189.44 51.89 189.49 53.85 189.5 55.81 C189.52 56.84 189.53 57.87 189.55 58.93 C189.02 65.84 185.35 70.45 180.32 74.94 C173.73 79.36 166.87 83.24 159.18 85.37 C157.27 85.89 157.27 85.89 155.47 86.92 C153.25 87.97 151.4 88.41 148.99 88.79 C148.19 88.92 147.39 89.05 146.57 89.18 C145.74 89.31 144.92 89.43 144.07 89.56 C142.81 89.76 142.81 89.76 141.52 89.97 C139.45 90.3 137.38 90.62 135.32 90.94 C137.09 95.36 137.09 95.36 140.66 98.29 C141.94 98.7 141.94 98.7 143.25 99.12 C146.85 100.31 149.32 101.64 152.32 103.94 C153.53 104.37 154.75 104.8 156 105.25 C161.93 107.38 167.89 110.21 170.88 115.94 C171.02 116.93 171.17 117.92 171.32 118.94 C171.46 119.91 171.61 120.88 171.75 121.88 C171.16 126.03 169.24 128.95 166.32 131.94 C165.66 131.94 165 131.94 164.32 131.94 C164.31 133.57 164.31 133.57 164.31 135.24 C164.3 145.53 164.25 155.81 164.18 166.1 C164.15 171.39 164.12 176.67 164.12 181.96 C164.12 187.07 164.09 192.17 164.04 197.27 C164.03 199.22 164.03 201.16 164.03 203.11 C164.04 205.84 164.01 208.56 163.98 211.29 C163.99 212.5 163.99 212.5 164 213.73 C163.92 217.84 163.54 219.67 160.87 222.87 C159.6 223.89 159.6 223.89 158.32 224.94 C157.84 225.51 157.37 226.09 156.88 226.69 C152.47 230.21 144.72 229.08 139.33 229.08 C138.33 229.08 137.32 229.08 136.29 229.09 C132.94 229.1 129.58 229.1 126.22 229.1 C123.82 229.1 121.41 229.11 119 229.11 C112.47 229.13 105.93 229.13 99.4 229.14 C95.32 229.14 91.24 229.14 87.16 229.15 C75.86 229.16 64.55 229.17 53.25 229.18 C52.17 229.18 52.17 229.18 51.06 229.18 C50.34 229.18 49.61 229.18 48.87 229.18 C47.4 229.18 45.93 229.18 44.46 229.18 C43.37 229.18 43.37 229.18 42.26 229.18 C30.45 229.18 18.64 229.2 6.84 229.22 C-5.29 229.25 -17.42 229.26 -29.54 229.26 C-36.35 229.26 -43.16 229.27 -49.97 229.29 C-56.36 229.3 -62.76 229.3 -69.16 229.3 C-71.51 229.29 -73.86 229.3 -76.21 229.31 C-79.41 229.32 -82.62 229.32 -85.82 229.3 C-87.22 229.32 -87.22 229.32 -88.65 229.33 C-93.52 229.29 -96.71 229.05 -100.68 225.94 C-101.27 225.48 -101.86 225.02 -102.46 224.55 C-108.83 217.58 -107.48 208.07 -107.38 199.25 C-107.39 197.41 -107.39 195.58 -107.4 193.75 C-107.42 188.94 -107.41 184.13 -107.38 179.32 C-107.35 171.62 -107.36 163.92 -107.38 156.22 C-107.38 153.54 -107.37 150.86 -107.35 148.18 C-107.34 146.53 -107.35 144.88 -107.35 143.22 C-107.33 142.12 -107.33 142.12 -107.31 140.99 C-107.34 135.48 -108.28 130.34 -112.31 126.31 C-114.33 124.29 -114.49 122.76 -114.68 119.94 C-114.21 116.33 -113.3 114.49 -110.58 112.07 C-108.97 110.84 -107.33 109.63 -105.68 108.45 C-103.57 107.09 -103.57 107.09 -102.68 104.94 C-100.72 104.45 -100.72 104.45 -98.31 104.06 C-94.55 103.37 -94.55 103.37 -91.75 100.81 C-91.4 100.19 -91.04 99.57 -90.68 98.94 C-90.02 98.94 -89.36 98.94 -88.68 98.94 C-88.35 98.28 -88.02 97.62 -87.68 96.94 C-87.68 97.6 -87.68 98.26 -87.68 98.94 C-84.22 98.32 -84.22 98.32 -80.68 96.94 C-79.22 94.52 -79.22 94.52 -78.68 91.94 C-78.35 91.28 -78.02 90.62 -77.68 89.94 C-78.73 89.9 -79.78 89.86 -80.87 89.82 C-88.61 89.49 -95.47 88.97 -102.68 85.94 C-104.08 85.44 -105.47 84.94 -106.87 84.44 C-116.35 80.79 -127.44 75.05 -132.68 65.94 C-134.65 60.29 -135.31 54.76 -133.68 48.94 C-131.68 46.75 -131.68 46.75 -129.68 44.94 C-129.04 42.88 -129.04 42.88 -128.68 40.94 C-117.41 38.25 -107.53 39.39 -96.28 41.73 C-93.35 41.96 -92.09 41.58 -89.68 39.94 C-89.19 38.95 -89.19 38.95 -88.68 37.94 C-89.34 37.94 -90 37.94 -90.68 37.94 C-90.74 37.32 -90.8 36.71 -90.87 36.07 C-90.95 35.27 -91.03 34.46 -91.12 33.62 C-91.2 32.82 -91.28 32.02 -91.37 31.2 C-91.64 28.78 -91.64 28.78 -92.68 25.94 C-91.03 19.42 -87.89 13.28 -82.68 8.94 C-79.81 8 -79.81 8 -77.68 7.94 C-77.35 6.95 -77.02 5.96 -76.68 4.94 C-74.02 3.81 -71.42 2.85 -68.68 1.94 C-67.26 1.42 -65.85 0.9 -64.43 0.38 C-63.81 0.15 -63.19 -0.08 -62.54 -0.32 C-60.64 -1.03 -60.64 -1.03 -58.82 -2.11 C-44.9 -8.3 -13.33 -6.31 0 0 Z " fill="#FBE391" transform="translate(612.68359375,207.0625)"/>
<path d="M0 0 C1.16 0.04 2.33 0.08 3.52 0.12 C9.41 0.4 13.88 0.78 19 3.94 C21 4.28 23 4.61 25 4.94 C25.33 5.6 25.66 6.26 26 6.94 C31.07 10.29 31.07 10.29 37 10.94 C41.62 14.61 42.77 18.14 43.5 23.88 C43.44 29.73 40.66 34.66 38.12 39.8 C36.72 42.78 36.72 42.78 37.63 45.23 C40.28 48.54 42.97 49.38 47 49.94 C49.35 50.03 51.71 50.07 54.06 50.06 C55.27 50.07 56.48 50.07 57.72 50.07 C60.39 49.96 62.46 49.62 65 48.94 C67.75 49.38 67.75 49.38 70 49.94 C70.33 49.28 70.66 48.62 71 47.94 C71 48.6 71 49.26 71 49.94 C74.3 49.28 77.6 48.62 81 47.94 C86 53.74 86 53.74 86 56.94 C81.99 64.62 74.59 70 67 73.94 C66.34 73.94 65.68 73.94 65 73.94 C65 74.6 65 75.26 65 75.94 C59.71 79.94 59.71 79.94 56 79.94 C56 79.28 56 78.62 56 77.94 C54.14 78.15 54.14 78.15 52.25 78.38 C51.55 78.46 50.86 78.54 50.14 78.62 C48.06 78.87 48.06 78.87 46.35 79.45 C43.01 80.14 39.7 80.1 36.3 80.11 C35.56 80.11 34.81 80.11 34.04 80.12 C32.46 80.12 30.88 80.12 29.29 80.12 C26.9 80.12 24.51 80.14 22.12 80.16 C14.91 80.19 8.06 80.21 1.05 78.27 C-1.51 77.85 -3.51 78.32 -6 78.94 C-5.48 79.19 -4.96 79.45 -4.43 79.71 C-1.3 81.25 1.74 82.77 4.69 84.62 C6.91 86.05 6.91 86.05 9.34 86.37 C12.18 86.98 14.31 87.96 16.88 89.31 C19.69 90.77 22.46 92.13 25.38 93.38 C28.52 94.73 31.52 96.2 34.56 97.75 C42.71 101.86 51.05 105.7 59.75 108.5 C63 109.94 63 109.94 64.31 112.56 C64.54 113.35 64.77 114.13 65 114.94 C65.99 115.27 66.98 115.6 68 115.94 C67.66 119.04 67.15 120.74 65.25 123.25 C62.59 125.25 61.25 125.3 58 124.94 C58 125.6 58 126.26 58 126.94 C57.34 126.94 56.68 126.94 56 126.94 C56 154.99 56 183.04 56 211.94 C55.67 211.94 55.34 211.94 55 211.94 C55 183.89 55 155.84 55 126.94 C54.34 126.94 53.68 126.94 53 126.94 C52.59 126.33 52.18 125.73 51.76 125.11 C49.45 122.26 47.29 121.57 43.88 120.25 C38.42 118.05 33.23 115.56 28.06 112.75 C21.35 109.11 14.53 105.76 7.62 102.5 C-4.07 96.97 -15.53 91.03 -26.88 84.82 C-33.65 81.12 -40.49 77.66 -47.5 74.44 C-48.61 73.91 -48.61 73.91 -49.75 73.37 C-55.36 70.86 -59.83 70.1 -65.93 71.71 C-72.99 74.5 -79.61 77.74 -86.28 81.35 C-91.63 84.25 -97.05 86.92 -102.56 89.5 C-110.46 93.19 -118.27 97.03 -126.05 100.95 C-130.02 102.96 -134.01 104.94 -137.99 106.93 C-141.37 108.62 -144.74 110.31 -148.11 112.01 C-149.47 112.69 -150.83 113.38 -152.19 114.06 C-152.84 114.39 -153.5 114.72 -154.18 115.06 C-159.59 117.77 -165.08 120.28 -170.62 122.71 C-173.13 123.71 -173.13 123.71 -174 125.94 C-174.08 128.61 -174.1 131.25 -174.08 133.92 C-174.08 134.74 -174.08 135.57 -174.07 136.42 C-174.07 138.21 -174.06 140.01 -174.04 141.8 C-174.03 144.64 -174.02 147.47 -174.01 150.31 C-173.98 158.37 -173.95 166.44 -173.9 174.51 C-173.88 179.44 -173.86 184.37 -173.85 189.3 C-173.84 191.18 -173.83 193.06 -173.82 194.94 C-173.8 197.57 -173.79 200.2 -173.79 202.83 C-173.78 203.61 -173.77 204.39 -173.76 205.19 C-173.77 208.99 -173.84 210.7 -176 213.94 C-176.99 213.28 -177.98 212.62 -179 211.94 C-179.28 209.36 -179.36 207.03 -179.31 204.46 C-179.31 203.69 -179.3 202.92 -179.3 202.13 C-179.29 199.57 -179.26 197.01 -179.22 194.45 C-179.21 192.68 -179.2 190.9 -179.2 189.12 C-179.17 184.44 -179.13 179.75 -179.09 175.06 C-179.02 167.58 -178.96 160.09 -178.93 152.6 C-178.91 149.99 -178.88 147.38 -178.85 144.76 C-178.84 143.15 -178.83 141.54 -178.82 139.93 C-178.81 139.21 -178.8 138.48 -178.78 137.74 C-178.77 131.95 -179.79 127.75 -183 122.94 C-185.55 121.73 -185.55 121.73 -188 120.94 C-187.77 116.4 -187.58 113.82 -185.06 110 C-181.86 107.84 -181.04 107.72 -177.38 107.59 C-171.72 107.12 -167.74 105.18 -162.88 102.38 C-161.23 101.47 -159.58 100.56 -157.93 99.65 C-157.11 99.2 -156.29 98.74 -155.45 98.27 C-151.03 95.86 -146.51 93.67 -141.99 91.45 C-139.19 90.07 -136.6 88.67 -134 86.94 C-134.33 85.29 -134.66 83.64 -135 81.94 C-142.92 82.43 -142.92 82.43 -151 82.94 C-151 82.28 -151 81.62 -151 80.94 C-151.57 81.02 -152.14 81.11 -152.72 81.19 C-157.77 81.86 -162 81.89 -167 80.94 C-167 80.28 -167 79.62 -167 78.94 C-167.76 79 -168.53 79.06 -169.31 79.12 C-173.58 78.91 -177.23 77.85 -181.32 76.66 C-184.17 75.82 -184.17 75.82 -187.88 75.5 C-191.62 74.83 -193.17 73.4 -196 70.94 C-197.18 70.57 -197.18 70.57 -198.38 70.19 C-202.87 68.05 -206.99 63.68 -208.73 58.96 C-209.04 56.68 -208.91 54.72 -208.62 52.44 C-208.49 51.31 -208.49 51.31 -208.35 50.16 C-208.02 48.04 -207.55 46.01 -207 43.94 C-204.94 44.22 -202.87 44.52 -200.81 44.81 C-199.66 44.97 -198.52 45.14 -197.33 45.3 C-194 45.94 -194 45.94 -191.62 46.96 C-187.85 48.37 -184.18 48.52 -180.19 48.75 C-179.42 48.81 -178.65 48.88 -177.86 48.94 C-170.92 49.36 -165.85 47.84 -160 43.94 C-160.3 39.3 -161.14 36.46 -163.62 32.5 C-165.83 28.71 -166.7 26.17 -165.75 21.84 C-162.73 14.23 -154.8 8.93 -148 4.94 C-145.59 4.13 -143.39 3.61 -140.88 3.29 C-138.67 3 -138.67 3 -136 0.94 C-116.74 -1.83 -100.46 2.12 -82.63 9.01 C-76.99 11 -73.04 11.06 -67.22 9.43 C-60.53 7.95 -54.45 8.69 -48 10.75 C-42.07 12.39 -39.08 11.22 -33.8 8.34 C-29.94 6.41 -26.03 5.64 -21.82 4.81 C-18.86 4.09 -18.86 4.09 -16.46 1.84 C-11.09 -1.11 -6 -0.35 0 0 Z " fill="#EDAFBC" transform="translate(701,209.0625)"/>
<path d="M0 0 C5.56 2.25 11.44 2.11 17.34 2.14 C18.62 2.15 18.62 2.15 19.94 2.16 C21.75 2.17 23.55 2.17 25.36 2.18 C28.11 2.19 30.85 2.22 33.6 2.25 C35.37 2.26 37.13 2.26 38.9 2.27 C39.71 2.28 40.52 2.29 41.35 2.3 C47.17 2.28 51.91 1.02 57.32 -1.06 C76.9 -7.84 106.39 -6.22 125.32 1.94 C126.04 2.22 126.76 2.5 127.51 2.79 C132.17 4.65 132.17 4.65 133.32 6.94 C134.2 7.33 135.09 7.72 136 8.12 C142.52 11.69 146.32 17.41 148.9 24.3 C149.66 29.11 147.5 32.77 145.32 36.94 C144.99 37.93 144.66 38.92 144.32 39.94 C144.98 40.93 145.64 41.92 146.32 42.94 C147.26 42.73 148.2 42.53 149.18 42.32 C173.93 37.12 173.93 37.12 183.32 40.94 C186.41 43.43 188.06 46.16 189.32 49.94 C189.44 51.89 189.49 53.85 189.5 55.81 C189.52 56.84 189.53 57.87 189.55 58.93 C189.02 65.84 185.35 70.45 180.32 74.94 C173.73 79.36 166.87 83.24 159.18 85.37 C157.27 85.89 157.27 85.89 155.47 86.92 C153.25 87.97 151.4 88.41 148.99 88.79 C148.19 88.92 147.39 89.05 146.57 89.18 C145.74 89.31 144.92 89.43 144.07 89.56 C142.81 89.76 142.81 89.76 141.52 89.97 C139.45 90.3 137.38 90.62 135.32 90.94 C137.09 95.36 137.09 95.36 140.66 98.29 C141.94 98.7 141.94 98.7 143.25 99.12 C146.85 100.31 149.32 101.64 152.32 103.94 C153.53 104.37 154.75 104.8 156 105.25 C161.93 107.38 167.89 110.21 170.88 115.94 C171.02 116.93 171.17 117.92 171.32 118.94 C171.46 119.91 171.61 120.88 171.75 121.88 C171.16 126.03 169.24 128.95 166.32 131.94 C165.66 131.94 165 131.94 164.32 131.94 C164.31 133.57 164.31 133.57 164.31 135.24 C164.3 145.53 164.25 155.81 164.18 166.1 C164.15 171.39 164.12 176.67 164.12 181.96 C164.12 187.07 164.09 192.17 164.04 197.27 C164.03 199.22 164.03 201.16 164.03 203.11 C164.04 205.84 164.01 208.56 163.98 211.29 C163.99 212.5 163.99 212.5 164 213.73 C163.92 217.84 163.54 219.67 160.87 222.87 C159.6 223.89 159.6 223.89 158.32 224.94 C157.84 225.51 157.37 226.09 156.88 226.69 C152.47 230.21 144.72 229.08 139.33 229.08 C138.33 229.08 137.32 229.08 136.29 229.09 C132.94 229.1 129.58 229.1 126.22 229.1 C123.82 229.1 121.41 229.11 119 229.11 C112.47 229.13 105.93 229.13 99.4 229.14 C95.32 229.14 91.24 229.14 87.16 229.15 C75.86 229.16 64.55 229.17 53.25 229.18 C52.17 229.18 52.17 229.18 51.06 229.18 C50.34 229.18 49.61 229.18 48.87 229.18 C47.4 229.18 45.93 229.18 44.46 229.18 C43.37 229.18 43.37 229.18 42.26 229.18 C30.45 229.18 18.64 229.2 6.84 229.22 C-5.29 229.25 -17.42 229.26 -29.54 229.26 C-36.35 229.26 -43.16 229.27 -49.97 229.29 C-56.36 229.3 -62.76 229.3 -69.16 229.3 C-71.51 229.29 -73.86 229.3 -76.21 229.31 C-79.41 229.32 -82.62 229.32 -85.82 229.3 C-87.22 229.32 -87.22 229.32 -88.65 229.33 C-93.52 229.29 -96.71 229.05 -100.68 225.94 C-101.27 225.48 -101.86 225.02 -102.46 224.55 C-108.83 217.58 -107.48 208.07 -107.38 199.25 C-107.39 197.41 -107.39 195.58 -107.4 193.75 C-107.42 188.94 -107.41 184.13 -107.38 179.32 C-107.35 171.62 -107.36 163.92 -107.38 156.22 C-107.38 153.54 -107.37 150.86 -107.35 148.18 C-107.34 146.53 -107.35 144.88 -107.35 143.22 C-107.33 142.12 -107.33 142.12 -107.31 140.99 C-107.34 135.48 -108.28 130.34 -112.31 126.31 C-114.33 124.29 -114.49 122.76 -114.68 119.94 C-114.21 116.33 -113.3 114.49 -110.58 112.07 C-108.97 110.84 -107.33 109.63 -105.68 108.45 C-103.57 107.09 -103.57 107.09 -102.68 104.94 C-100.72 104.45 -100.72 104.45 -98.31 104.06 C-94.55 103.37 -94.55 103.37 -91.75 100.81 C-91.4 100.19 -91.04 99.57 -90.68 98.94 C-90.02 98.94 -89.36 98.94 -88.68 98.94 C-88.35 98.28 -88.02 97.62 -87.68 96.94 C-87.68 97.6 -87.68 98.26 -87.68 98.94 C-84.22 98.32 -84.22 98.32 -80.68 96.94 C-79.22 94.52 -79.22 94.52 -78.68 91.94 C-78.35 91.28 -78.02 90.62 -77.68 89.94 C-78.73 89.9 -79.78 89.86 -80.87 89.82 C-88.61 89.49 -95.47 88.97 -102.68 85.94 C-104.08 85.44 -105.47 84.94 -106.87 84.44 C-116.35 80.79 -127.44 75.05 -132.68 65.94 C-134.65 60.29 -135.31 54.76 -133.68 48.94 C-131.68 46.75 -131.68 46.75 -129.68 44.94 C-129.04 42.88 -129.04 42.88 -128.68 40.94 C-117.41 38.25 -107.53 39.39 -96.28 41.73 C-93.35 41.96 -92.09 41.58 -89.68 39.94 C-89.19 38.95 -89.19 38.95 -88.68 37.94 C-89.34 37.94 -90 37.94 -90.68 37.94 C-90.74 37.32 -90.8 36.71 -90.87 36.07 C-90.95 35.27 -91.03 34.46 -91.12 33.62 C-91.2 32.82 -91.28 32.02 -91.37 31.2 C-91.64 28.78 -91.64 28.78 -92.68 25.94 C-91.03 19.42 -87.89 13.28 -82.68 8.94 C-79.81 8 -79.81 8 -77.68 7.94 C-77.35 6.95 -77.02 5.96 -76.68 4.94 C-74.02 3.81 -71.42 2.85 -68.68 1.94 C-67.26 1.42 -65.85 0.9 -64.43 0.38 C-63.81 0.15 -63.19 -0.08 -62.54 -0.32 C-60.64 -1.03 -60.64 -1.03 -58.82 -2.11 C-44.9 -8.3 -13.33 -6.31 0 0 Z M69.32 5.94 C65.73 7.06 65.73 7.06 61.94 7.94 C57.66 8.95 53.87 9.98 50.13 12.38 C46.59 14.36 44.42 13.75 40.57 12.69 C39.04 12.23 39.04 12.23 37.48 11.75 C29.76 9.76 22.84 10.72 15.32 12.94 C9.84 12.49 5.1 10.97 0 9.06 C-2.88 8 -5.78 6.96 -8.68 5.94 C-9.42 5.66 -10.17 5.37 -10.93 5.08 C-18.45 2.47 -25.73 2.53 -33.62 2.62 C-34.93 2.62 -36.25 2.62 -37.6 2.62 C-44.53 2.36 -44.53 2.36 -50.68 4.94 C-52.3 5.27 -53.93 5.58 -55.56 5.88 C-60.94 7.27 -64.51 9.72 -68.68 13.25 C-69.24 13.71 -69.79 14.17 -70.35 14.65 C-73.82 17.72 -75.99 20.63 -77.68 24.94 C-77.68 30.5 -75.65 34.17 -72.74 38.73 C-71.51 41.3 -71.49 43.12 -71.68 45.94 C-80.97 51.94 -89.93 51.4 -100.68 49.94 C-102.79 49.3 -104.72 48.53 -106.73 47.64 C-110.56 46.27 -114.65 46.18 -118.68 45.94 C-121.15 54.92 -121.15 54.92 -119.18 63.69 C-115.54 69.02 -110.78 72.85 -104.68 74.94 C-103.88 75.47 -103.07 76.01 -102.25 76.56 C-99.14 78.23 -97.17 78.01 -93.68 77.94 C-91.68 78.6 -89.68 79.27 -87.68 79.94 C-84.69 80.38 -81.7 80.68 -78.68 80.94 C-78.68 81.6 -78.68 82.26 -78.68 82.94 C-73 83.85 -68.37 83.85 -62.68 82.94 C-62.35 83.6 -62.02 84.26 -61.68 84.94 C-56.73 84.61 -51.78 84.28 -46.68 83.94 C-46.35 85.59 -46.02 87.24 -45.68 88.94 C-52.74 93.36 -59.95 97.11 -67.5 100.62 C-69.5 101.56 -71.51 102.51 -73.52 103.45 C-74.39 103.86 -75.26 104.26 -76.16 104.68 C-78.75 105.92 -78.75 105.92 -81.35 107.57 C-84.01 109.13 -85.64 109.26 -88.68 109.31 C-92.36 109.6 -93.57 109.86 -96.75 112 C-99.27 115.82 -99.45 118.4 -99.68 122.94 C-98.73 123.37 -97.79 123.8 -96.81 124.25 C-93.68 125.94 -93.68 125.94 -91.68 128.94 C-90.57 133.74 -90.55 138.5 -90.59 143.41 C-90.59 144.23 -90.59 145.06 -90.59 145.92 C-90.59 147.7 -90.6 149.49 -90.61 151.28 C-90.62 154.11 -90.63 156.94 -90.63 159.77 C-90.64 165.76 -90.66 171.76 -90.68 177.75 C-90.71 184.71 -90.73 191.68 -90.74 198.64 C-90.75 201.43 -90.76 204.23 -90.77 207.02 C-90.77 208.72 -90.78 210.42 -90.78 212.12 C-90.79 212.9 -90.79 213.68 -90.8 214.49 C-90.8 216.3 -90.75 218.12 -90.68 219.94 C-88.54 222.08 -83.62 221.11 -80.66 221.12 C-79.22 221.13 -79.22 221.13 -77.75 221.14 C-74.51 221.16 -71.27 221.18 -68.03 221.19 C-65.72 221.2 -63.41 221.22 -61.09 221.24 C-54.79 221.28 -48.49 221.31 -42.19 221.34 C-38.26 221.36 -34.33 221.38 -30.4 221.4 C-19.53 221.46 -8.66 221.52 2.22 221.57 C3.26 221.57 3.26 221.57 4.33 221.58 C5.02 221.58 5.72 221.58 6.44 221.59 C7.86 221.59 9.27 221.6 10.68 221.6 C11.74 221.61 11.74 221.61 12.81 221.61 C24.19 221.67 35.56 221.73 46.94 221.8 C58.61 221.88 70.28 221.94 81.95 221.99 C88.5 222.02 95.06 222.05 101.61 222.1 C107.78 222.14 113.94 222.17 120.1 222.19 C122.37 222.2 124.64 222.21 126.91 222.23 C129.99 222.26 133.08 222.26 136.16 222.27 C137.07 222.28 137.98 222.29 138.91 222.3 C141.64 222.33 141.64 222.33 145.32 221.94 C147.8 218.21 147.59 215.33 147.56 211.01 C147.56 209.8 147.56 209.8 147.57 208.57 C147.57 205.9 147.56 203.22 147.55 200.55 C147.55 198.69 147.55 196.83 147.55 194.97 C147.54 191.07 147.54 187.17 147.52 183.26 C147.51 178.27 147.5 173.28 147.5 168.3 C147.5 164.45 147.5 160.61 147.49 156.76 C147.49 154.92 147.48 153.09 147.48 151.25 C147.48 148.67 147.47 146.09 147.46 143.51 C147.46 142.76 147.46 142.01 147.46 141.23 C147.43 136.39 147 131.73 146.32 126.94 C147.04 127.04 147.76 127.14 148.5 127.25 C151.54 127.16 151.54 127.16 154.19 124.75 C156.64 122.15 156.64 122.15 156.13 119.12 C155.73 118.04 155.73 118.04 155.32 116.94 C154.66 116.94 154 116.94 153.32 116.94 C153.15 116.18 152.99 115.42 152.82 114.64 C150.62 110.68 147.28 109.99 143.19 108.62 C134.79 105.6 126.95 101.95 119.04 97.83 C115.87 96.19 112.68 94.62 109.49 93.03 C108.03 92.3 106.58 91.55 105.14 90.78 C101.12 88.66 97.84 87.66 93.32 86.94 C91.96 85.97 90.63 84.97 89.32 83.94 C87.02 82.83 84.68 81.89 82.32 80.94 C87.25 79.91 90.23 80.14 95.17 81.46 C98.58 82.22 101.97 82.22 105.44 82.2 C106.55 82.21 106.55 82.21 107.69 82.21 C109.25 82.21 110.82 82.21 112.38 82.2 C114.74 82.19 117.11 82.2 119.47 82.21 C127.01 82.22 134 81.94 141.32 79.94 C142.31 79.94 143.3 79.94 144.32 79.94 C144.32 80.6 144.32 81.26 144.32 81.94 C147.8 81.29 150.41 79.96 153.32 77.94 C153.32 77.28 153.32 76.62 153.32 75.94 C154.4 75.54 154.4 75.54 155.5 75.14 C162.64 72.09 168.86 67.27 173.32 60.94 C174.75 57.78 174.75 57.78 172.63 54.31 C171.34 52.24 170.63 51.12 168.5 49.88 C165.25 49.97 162.39 50.93 159.32 51.94 C158.99 51.28 158.66 50.62 158.32 49.94 C158.32 50.6 158.32 51.26 158.32 51.94 C156.37 51.66 156.37 51.66 154.38 51.38 C152.23 51.04 152.23 51.04 150.32 50.94 C149.99 51.27 149.66 51.6 149.32 51.94 C147.09 52.06 144.86 52.11 142.63 52.12 C141.41 52.14 140.19 52.15 138.93 52.17 C134.62 51.89 130.94 51.22 127.5 48.5 C126.32 46.94 126.32 46.94 125.32 43.94 C126.53 41.12 126.53 41.12 128.25 37.81 C131.5 31.05 132.49 26.34 130.57 19.12 C129.08 16.53 127.66 14.81 125.32 12.94 C123.66 12.58 121.99 12.25 120.32 11.94 C117.9 10.72 115.63 9.35 113.32 7.94 C113.32 7.61 113.32 7.28 113.32 6.94 C112.26 6.65 111.21 6.36 110.13 6.06 C106.32 4.94 106.32 4.94 103.95 3.9 C98.96 2.08 93.64 2.28 88.38 2.06 C87.21 1.99 86.04 1.92 84.84 1.84 C78.24 1.56 74.63 1.65 69.32 5.94 Z " fill="#FBFAFA" transform="translate(612.68359375,207.0625)"/>
<path d="M0 0 C1.16 0.04 2.33 0.08 3.52 0.12 C9.41 0.4 13.88 0.78 19 3.94 C21 4.28 23 4.61 25 4.94 C25.5 5.93 25.5 5.93 26 6.94 C31.07 10.29 31.07 10.29 37 10.94 C41.62 14.61 42.77 18.14 43.5 23.88 C43.44 29.73 40.66 34.66 38.12 39.8 C36.72 42.78 36.72 42.78 37.63 45.23 C40.28 48.54 42.97 49.38 47 49.94 C49.35 50.03 51.71 50.07 54.06 50.06 C55.87 50.07 55.87 50.07 57.72 50.07 C60.39 49.96 62.46 49.62 65 48.94 C67.75 49.38 67.75 49.38 70 49.94 C70.5 48.95 70.5 48.95 71 47.94 C71 48.6 71 49.26 71 49.94 C74.3 49.28 77.6 48.62 81 47.94 C86 53.74 86 53.74 86 56.94 C81.99 64.62 74.59 70 67 73.94 C66.34 73.94 65.68 73.94 65 73.94 C65 74.6 65 75.26 65 75.94 C59.71 79.94 59.71 79.94 56 79.94 C56 79.28 56 78.62 56 77.94 C54.14 78.15 54.14 78.15 52.25 78.38 C51.55 78.46 50.86 78.54 50.14 78.62 C48.06 78.88 48.06 78.88 46.33 79.44 C43.07 80.13 39.84 80.14 36.52 80.18 C35.42 80.19 35.42 80.19 34.29 80.2 C32.74 80.21 31.18 80.22 29.62 80.23 C28.06 80.24 26.5 80.26 24.94 80.29 C13.65 80.51 3.8 79.23 -7 75.94 C-7.96 75.65 -8.91 75.36 -9.9 75.07 C-27.54 69.5 -43.89 63.07 -54.79 47.35 C-56.91 43.13 -56.85 39.54 -56 34.94 C-52.49 25.54 -47.29 19.46 -39 13.94 C-39.99 13.94 -40.98 13.94 -42 13.94 C-42 13.28 -42 12.62 -42 11.94 C-35.38 8.64 -29.1 6.25 -21.82 4.81 C-18.86 4.09 -18.86 4.09 -16.46 1.84 C-11.09 -1.11 -6 -0.35 0 0 Z " fill="#77B7E1" transform="translate(701,209.0625)"/>
<path d="M0 0 C0.9 0.43 1.81 0.86 2.74 1.3 C10.33 5.29 14.3 10.91 17 19 C17.65 24.5 16.59 27.65 13.55 32.09 C11.03 35.2 8.22 37.63 5 40 C4.42 40.44 3.83 40.88 3.23 41.34 C-10.09 50.57 -27.74 51.36 -43.42 51.32 C-45.56 51.31 -47.71 51.34 -49.85 51.36 C-66.23 51.44 -79.37 46.91 -93 38 C-93.7 37.57 -94.4 37.14 -95.12 36.7 C-99.32 33.74 -100.56 31.11 -101.56 26.06 C-102.22 19.76 -102.15 15.69 -98.05 10.57 C-92.15 4.18 -85.98 0.35 -78 -3 C-77.34 -3.3 -76.67 -3.61 -75.99 -3.92 C-52.85 -13.76 -22.17 -11.17 0 0 Z " fill="#FACF49" transform="translate(683,336)"/>
<path d="M0 0 C-2.25 3.15 -4.04 5.02 -7.38 7.06 C-13.2 11.06 -16.14 17.98 -17.58 24.72 C-17.96 30.39 -16.5 33.83 -12.8 38.07 C-11.91 39.03 -11.91 39.03 -11 40 C-10.47 40.66 -9.93 41.31 -9.38 41.99 C1.91 54.89 21.31 59.11 37 64 C37 64.33 37 64.66 37 65 C34.52 65.5 34.52 65.5 32 66 C32.52 66.25 33.04 66.51 33.57 66.77 C36.7 68.31 39.74 69.83 42.69 71.69 C44.91 73.12 44.91 73.12 47.34 73.43 C50.18 74.04 52.31 75.02 54.88 76.38 C57.69 77.83 60.46 79.19 63.38 80.44 C66.52 81.79 69.52 83.26 72.56 84.81 C80.71 88.92 89.05 92.76 97.75 95.56 C101 97 101 97 102.31 99.62 C102.54 100.41 102.77 101.19 103 102 C103.99 102.33 104.98 102.66 106 103 C105.66 106.1 105.15 107.8 103.25 110.31 C100.59 112.31 99.25 112.36 96 112 C96 112.66 96 113.32 96 114 C95.34 114 94.68 114 94 114 C94 142.05 94 170.1 94 199 C93.67 199 93.34 199 93 199 C93 170.95 93 142.9 93 114 C92.34 114 91.68 114 91 114 C90.59 113.4 90.18 112.79 89.76 112.17 C87.45 109.32 85.29 108.63 81.88 107.31 C76.42 105.11 71.23 102.63 66.06 99.81 C59.35 96.17 52.53 92.82 45.62 89.56 C33.93 84.03 22.47 78.1 11.12 71.88 C4.35 68.18 -2.49 64.72 -9.5 61.5 C-10.61 60.97 -10.61 60.97 -11.75 60.44 C-17.36 57.92 -21.83 57.16 -27.93 58.78 C-34.99 61.56 -41.61 64.8 -48.28 68.42 C-53.63 71.31 -59.05 73.99 -64.56 76.56 C-72.46 80.26 -80.27 84.09 -88.05 88.02 C-92.02 90.02 -96.01 92.01 -99.99 94 C-103.37 95.68 -106.74 97.37 -110.11 99.07 C-111.47 99.76 -112.83 100.44 -114.19 101.12 C-114.84 101.46 -115.5 101.79 -116.18 102.13 C-121.59 104.84 -127.08 107.34 -132.62 109.77 C-135.13 110.77 -135.13 110.77 -136 113 C-136.08 115.67 -136.1 118.31 -136.08 120.98 C-136.08 122.22 -136.08 122.22 -136.07 123.48 C-136.07 125.27 -136.06 127.07 -136.04 128.86 C-136.03 131.7 -136.02 134.53 -136.01 137.37 C-135.98 145.44 -135.95 153.5 -135.9 161.57 C-135.88 166.5 -135.86 171.43 -135.85 176.36 C-135.84 178.24 -135.83 180.12 -135.82 182 C-135.8 184.63 -135.79 187.26 -135.79 189.89 C-135.78 190.67 -135.77 191.45 -135.76 192.25 C-135.77 196.05 -135.84 197.76 -138 201 C-138.99 200.34 -139.98 199.68 -141 199 C-141.28 196.43 -141.36 194.1 -141.31 191.52 C-141.31 190.75 -141.3 189.98 -141.3 189.19 C-141.29 186.63 -141.26 184.07 -141.22 181.52 C-141.21 179.74 -141.2 177.96 -141.2 176.19 C-141.17 171.5 -141.13 166.81 -141.09 162.13 C-141.02 154.64 -140.96 147.15 -140.93 139.67 C-140.91 137.05 -140.88 134.44 -140.85 131.83 C-140.84 130.21 -140.83 128.6 -140.82 126.99 C-140.81 126.27 -140.8 125.55 -140.78 124.8 C-140.77 119.02 -141.79 114.81 -145 110 C-147.55 108.8 -147.55 108.8 -150 108 C-149.77 103.46 -149.58 100.89 -147.06 97.06 C-143.86 94.9 -143.04 94.78 -139.38 94.66 C-133.72 94.18 -129.74 92.24 -124.88 89.44 C-123.22 88.53 -121.57 87.62 -119.92 86.71 C-119.1 86.26 -118.28 85.8 -117.44 85.33 C-113.08 82.95 -108.62 80.79 -104.16 78.6 C-100.67 76.88 -97.31 75.05 -94 73 C-94 73.99 -94 74.98 -94 76 C-93.13 75.4 -92.27 74.8 -91.38 74.19 C-87.27 71.48 -83.62 69.21 -78.66 68.57 C-75.11 68.02 -72.65 67.17 -69.44 65.62 C-68.33 65.09 -67.23 64.56 -66.09 64.02 C-64.73 63.34 -63.36 62.67 -62 62 C-61.12 61.57 -60.24 61.15 -59.34 60.71 C-56.39 59.27 -53.44 57.82 -50.5 56.38 C-49.07 55.67 -49.07 55.67 -47.6 54.96 C-42.99 52.66 -38.9 50.42 -35 47 C-33.34 45.99 -31.67 44.99 -30 44 C-29.01 43.01 -29.01 43.01 -28 42 C-28 42.66 -28 43.32 -28 44 C-25.03 44 -22.06 44 -19 44 C-19 43.34 -19 42.68 -19 42 C-18.01 42 -17.02 42 -16 42 C-18.31 36.91 -20.44 33.27 -25.55 30.73 C-28 29 -28 29 -28.9 26.43 C-29.06 25.44 -29.21 24.46 -29.38 23.44 C-30.77 16.76 -33.76 12.25 -38 7 C-37.67 6.34 -37.34 5.68 -37 5 C-30.79 6.91 -30.79 6.91 -28.64 9.88 C-26.99 13.11 -26 15.32 -26 19 C-24.35 19.33 -22.7 19.66 -21 20 C-20.73 19.31 -20.47 18.63 -20.2 17.92 C-19.84 17.02 -19.49 16.12 -19.12 15.19 C-18.78 14.29 -18.43 13.4 -18.07 12.48 C-17 10 -17 10 -15 7 C-13.48 6.54 -13.48 6.54 -11.94 6.06 C-10.97 5.71 -10 5.36 -9 5 C-8.19 2.99 -8.19 2.99 -8 1 C-5.29 -0.35 -2.99 -0.07 0 0 Z " fill="#E6A05D" transform="translate(663,222)"/>
<path d="M0 0 C0.5 0.99 0.5 0.99 1 2 C3.97 2 6.94 2 10 2 C10 1.34 10 0.68 10 0 C14.02 0.55 16.31 1.7 19.5 4.17 C25.29 8.37 31.45 11.29 37.94 14.25 C40.16 15.27 42.38 16.3 44.59 17.33 C45.56 17.77 46.53 18.21 47.52 18.67 C49.85 19.92 51.21 21.09 53 23 C55.3 24.36 57.58 25.64 59.94 26.88 C60.95 27.41 60.95 27.41 61.98 27.96 C65.84 29.97 69.7 31.77 73.75 33.38 C79.16 35.53 84.24 38.14 89.38 40.88 C90.59 41.52 90.59 41.52 91.83 42.18 C93.45 43.04 95.06 43.9 96.67 44.76 C100.12 46.6 103.58 48.41 107.06 50.19 C108.17 50.76 109.27 51.33 110.41 51.92 C111.26 52.28 112.12 52.63 113 53 C113.66 52.67 114.32 52.34 115 52 C115.4 52.45 115.8 52.89 116.21 53.36 C118.22 55.2 120.16 56.15 122.62 57.31 C126.85 59.57 126.85 59.57 128.12 63.25 C128 66 128 66 127 67 C122.33 67.38 119.42 66.57 115.29 64.44 C114.21 63.89 113.13 63.34 112.01 62.77 C110.89 62.19 109.78 61.6 108.62 61 C106.43 59.87 104.23 58.75 102.04 57.62 C100.9 57.04 99.76 56.45 98.59 55.84 C92.09 52.5 85.54 49.26 79 46 C77.49 45.25 75.98 44.5 74.48 43.75 C73.32 43.17 73.32 43.17 72.15 42.59 C68.16 40.6 64.17 38.61 60.19 36.62 C59.35 36.21 58.52 35.79 57.66 35.37 C48.36 30.73 39.09 26.05 29.94 21.12 C16.96 13.49 16.96 13.49 2.63 12.14 C-0.65 13.21 -3.64 14.73 -6.71 16.3 C-8.15 17.03 -9.59 17.76 -11.03 18.49 C-11.82 18.89 -12.61 19.29 -13.42 19.71 C-18.25 22.13 -23.11 24.5 -27.96 26.87 C-30.15 27.94 -32.34 29.02 -34.53 30.09 C-35.65 30.64 -36.77 31.18 -37.92 31.75 C-56.44 40.81 -74.93 49.9 -93.34 59.19 C-93.98 59.51 -94.63 59.84 -95.3 60.17 C-96.99 61.03 -98.69 61.88 -100.38 62.74 C-103.82 64.39 -106.41 65.12 -110.19 65.06 C-111.45 65.04 -112.7 65.02 -114 65 C-113.94 62.75 -113.94 62.75 -113 60 C-107.92 56.77 -102.51 54.28 -97.06 51.75 C-88.92 47.93 -80.85 43.97 -72.82 39.91 C-71.04 39.02 -69.24 38.15 -67.45 37.27 C-65.83 36.49 -65.83 36.49 -64.19 35.69 C-63.25 35.24 -62.32 34.79 -61.36 34.32 C-58.5 32.72 -56.73 30.94 -54.75 28.38 C-53 27 -53 27 -49.74 26.56 C-46.14 26.02 -43.69 25.19 -40.44 23.62 C-39.33 23.09 -38.23 22.56 -37.09 22.02 C-35.73 21.34 -34.36 20.67 -33 20 C-32.12 19.57 -31.24 19.15 -30.34 18.71 C-27.39 17.27 -24.44 15.82 -21.5 14.38 C-20.54 13.91 -19.59 13.44 -18.6 12.96 C-13.99 10.66 -9.9 8.42 -6 5 C-5.09 4.46 -4.18 3.93 -3.25 3.38 C-0.88 2.2 -0.88 2.2 0 0 Z " fill="#F9CE49" transform="translate(634,264)"/>
<path d="M0 0 C0.99 0 1.98 0 3 0 C4.92 4.83 5.29 9.21 5.26 14.34 C5.26 15.57 5.26 15.57 5.27 16.82 C5.28 19.5 5.27 22.18 5.27 24.86 C5.27 26.72 5.27 28.59 5.27 30.46 C5.27 34.36 5.27 38.27 5.26 42.18 C5.25 47.19 5.26 52.2 5.27 57.21 C5.28 61.06 5.27 64.91 5.27 68.77 C5.27 70.61 5.27 72.46 5.27 74.31 C5.28 76.89 5.27 79.47 5.26 82.04 C5.26 82.81 5.27 83.57 5.27 84.36 C5.24 88.12 5.14 89.79 3 93 C-0.12 93.28 -3.04 93.37 -6.16 93.33 C-7.6 93.33 -7.6 93.33 -9.07 93.33 C-12.31 93.32 -15.54 93.29 -18.78 93.26 C-21.1 93.26 -23.41 93.25 -25.73 93.24 C-32.02 93.22 -38.32 93.18 -44.62 93.14 C-51.2 93.09 -57.78 93.07 -64.36 93.04 C-75.4 92.99 -86.45 92.92 -97.5 92.85 C-108.88 92.78 -120.25 92.72 -131.63 92.67 C-132.33 92.66 -133.03 92.66 -133.76 92.66 C-135.17 92.65 -136.58 92.64 -137.99 92.64 C-138.69 92.64 -139.38 92.63 -140.1 92.63 C-140.8 92.63 -141.49 92.62 -142.21 92.62 C-153.69 92.57 -165.17 92.5 -176.65 92.44 C-180.58 92.42 -184.51 92.4 -188.43 92.38 C-194.6 92.35 -200.76 92.32 -206.92 92.27 C-209.19 92.26 -211.46 92.25 -213.72 92.24 C-216.81 92.22 -219.89 92.2 -222.97 92.18 C-223.88 92.18 -224.79 92.17 -225.73 92.17 C-231.89 92.11 -231.89 92.11 -233 91 C-233.04 89 -233.04 87 -233 85 C-232.01 84.5 -232.01 84.5 -231 84 C-230.67 84.66 -230.34 85.32 -230 86 C-229.01 84.68 -228.02 83.36 -227 82 C-226.44 82.48 -225.87 82.96 -225.29 83.46 C-222.76 85.16 -221.34 85.47 -218.33 85.68 C-217.45 85.75 -216.57 85.81 -215.66 85.88 C-211.67 86.06 -207.7 86.12 -203.71 86.08 C-202.39 86.08 -202.39 86.08 -201.05 86.07 C-198.14 86.06 -195.22 86.04 -192.31 86.02 C-190.21 86.01 -188.11 86 -186.01 85.99 C-180.33 85.97 -174.65 85.93 -168.98 85.9 C-163.03 85.87 -157.09 85.84 -151.15 85.81 C-139.9 85.75 -128.66 85.69 -117.41 85.63 C-104.61 85.55 -91.8 85.49 -79 85.42 C-52.66 85.29 -26.33 85.15 0 85 C0 56.95 0 28.9 0 0 Z " fill="#EEBF92" transform="translate(755,336)"/>
<path d="M0 0 C0.9 0.43 1.81 0.86 2.74 1.3 C10.33 5.29 14.3 10.91 17 19 C17.65 24.5 16.59 27.65 13.55 32.09 C11.03 35.2 8.22 37.63 5 40 C4.42 40.44 3.83 40.88 3.23 41.34 C-10.09 50.57 -27.74 51.36 -43.42 51.32 C-45.56 51.31 -47.71 51.34 -49.85 51.36 C-66.23 51.44 -79.37 46.91 -93 38 C-93.7 37.57 -94.4 37.14 -95.12 36.7 C-99.32 33.74 -100.56 31.11 -101.56 26.06 C-102.22 19.76 -102.15 15.69 -98.05 10.57 C-92.15 4.18 -85.98 0.35 -78 -3 C-77.34 -3.3 -76.67 -3.61 -75.99 -3.92 C-52.85 -13.76 -22.17 -11.17 0 0 Z M-81 10 C-82.69 12.53 -82.69 12.53 -84 15 C-84.62 15.9 -84.62 15.9 -85.25 16.81 C-86.76 21.21 -85.74 25.05 -84.15 29.24 C-79.68 37.56 -71.29 40.51 -63 44 C-62.02 44.46 -61.03 44.92 -60.02 45.39 C-44.42 51.52 -23.89 49.91 -8.63 43.64 C-7.43 43.1 -6.23 42.56 -5 42 C-4.06 41.59 -3.12 41.19 -2.15 40.77 C3.41 38.05 7.45 34.05 11 29 C12.59 24.23 13.07 20.22 10.87 15.65 C3.63 4.33 -7.33 -0.56 -20 -4 C-23 -4.51 -25.96 -4.74 -29 -4.88 C-30.23 -4.93 -30.23 -4.93 -31.48 -4.99 C-47.88 -5.47 -68.76 -1.55 -81 10 Z " fill="#E6A05C" transform="translate(683,336)"/>
<path d="M0 0 C-2.25 3.15 -4.04 5.02 -7.38 7.06 C-13.2 11.06 -16.14 17.98 -17.58 24.72 C-17.96 30.39 -16.5 33.83 -12.8 38.07 C-11.91 39.03 -11.91 39.03 -11 40 C-10.47 40.66 -9.93 41.31 -9.38 41.99 C1.91 54.89 21.31 59.11 37 64 C37 64.33 37 64.66 37 65 C25.66 67.11 15.79 60.93 6 56 C5.24 55.62 4.49 55.24 3.71 54.85 C-2.58 51.67 -8.54 48.51 -14 44 C-14.66 43.67 -15.32 43.34 -16 43 C-16.72 41.26 -17.44 39.52 -18.16 37.78 C-19.81 34.3 -22.15 32.42 -25.55 30.74 C-28 29 -28 29 -28.9 26.43 C-29.06 25.44 -29.21 24.46 -29.38 23.44 C-30.77 16.76 -33.76 12.25 -38 7 C-37.67 6.34 -37.34 5.68 -37 5 C-30.79 6.91 -30.79 6.91 -28.64 9.88 C-26.99 13.11 -26 15.32 -26 19 C-24.35 19.33 -22.7 19.66 -21 20 C-20.73 19.31 -20.47 18.63 -20.2 17.92 C-19.84 17.02 -19.49 16.12 -19.12 15.19 C-18.78 14.29 -18.43 13.4 -18.07 12.48 C-17 10 -17 10 -15 7 C-13.99 6.69 -12.98 6.38 -11.94 6.06 C-10.97 5.71 -10 5.36 -9 5 C-8.19 2.99 -8.19 2.99 -8 1 C-5.29 -0.35 -2.99 -0.07 0 0 Z " fill="#BA8793" transform="translate(663,222)"/>
<path d="M0 0 C0 0.66 0 1.32 0 2 C-0.66 2 -1.32 2 -2 2 C-2.1 2.62 -2.21 3.24 -2.31 3.88 C-3 6 -3 6 -6 8 C-6.99 8 -7.98 8 -9 8 C-9.25 8.82 -9.5 9.65 -9.75 10.5 C-11.19 14.52 -13.02 18.22 -15 22 C-17.25 21.56 -17.25 21.56 -20 20 C-21.22 17.78 -22.13 15.56 -23.01 13.19 C-24.05 10.88 -25.06 9.61 -27 8 C-28.32 7.63 -29.66 7.29 -31 7 C-31.99 6.34 -32.98 5.68 -34 5 C-34.19 2.38 -34.19 2.38 -34 0 C-22.01 -3.57 -11.85 -4.41 0 0 Z " fill="#E3A067" transform="translate(657,221)"/>
<path d="M0 0 C3.14 2.74 3.54 4.89 3.87 9.04 C4.16 15.75 4.16 22.46 4.17 29.18 C4.17 30.84 4.17 32.5 4.18 34.16 C4.18 37.63 4.19 41.09 4.19 44.56 C4.19 49 4.2 53.44 4.22 57.88 C4.23 61.31 4.23 64.73 4.23 68.15 C4.23 69.79 4.23 71.43 4.24 73.07 C4.25 75.35 4.25 77.63 4.24 79.92 C4.24 81.22 4.25 82.51 4.25 83.85 C4 87 4 87 2 90 C1.01 89.34 0.02 88.68 -1 88 C-1.29 85.26 -1.39 82.76 -1.36 80.02 C-1.36 79.19 -1.36 78.37 -1.36 77.52 C-1.37 74.78 -1.35 72.05 -1.33 69.32 C-1.33 67.42 -1.32 65.53 -1.32 63.63 C-1.32 59.65 -1.3 55.68 -1.28 51.7 C-1.25 46.6 -1.24 41.49 -1.24 36.39 C-1.23 32.47 -1.22 28.56 -1.21 24.64 C-1.21 22.76 -1.2 20.88 -1.2 19 C-1.19 16.37 -1.18 13.74 -1.16 11.11 C-1.16 10.33 -1.16 9.55 -1.16 8.75 C-1.13 5.57 -1.01 3.04 0 0 Z " fill="#E7A377" transform="translate(523,333)"/>
<path d="M0 0 C3.69 -0.01 7.37 0.05 11.06 0.12 C12.62 0.12 12.62 0.12 14.21 0.12 C20.65 0.28 24.29 1.06 28.89 5.72 C29.26 6.14 29.62 6.56 30 7 C27.45 12.2 27.45 12.2 25 14 C23 14.48 21 14.96 18.98 15.39 C16.73 15.95 16.73 15.95 14.38 18.12 C11.41 20.47 9.69 20.34 6 20 C4.29 17.33 4 15.98 4.12 12.75 C3.98 8.52 2.89 6.23 0.88 2.6 C0 1 0 1 0 0 Z " fill="#B98A95" transform="translate(634,299)"/>
<path d="M0 0 C1.59 0.26 3.17 0.53 4.75 0.81 C5.63 0.96 6.51 1.11 7.42 1.27 C10.21 2.06 11.77 3.18 14 5 C15.66 5.68 17.33 6.35 19 7 C20.24 7.77 20.24 7.77 21.5 8.56 C23.87 10.11 23.87 10.11 26.35 10.44 C29.19 11.04 31.31 12.02 33.88 13.38 C36.69 14.83 39.46 16.19 42.38 17.44 C45.52 18.79 48.52 20.26 51.56 21.81 C59.71 25.92 68.05 29.76 76.75 32.56 C80 34 80 34 81.31 36.62 C81.54 37.41 81.77 38.19 82 39 C83.49 39.5 83.49 39.5 85 40 C84.67 41.65 84.34 43.3 84 45 C83.14 44.24 82.28 43.48 81.39 42.7 C78.39 40.21 75.34 38.45 71.81 36.75 C71.22 36.46 70.62 36.17 70.01 35.87 C66.53 34.18 63.03 32.54 59.53 30.9 C57.96 30.16 56.39 29.43 54.81 28.69 C54.02 28.32 53.22 27.94 52.4 27.56 C45.65 24.37 39.08 20.9 32.5 17.38 C27.96 14.97 23.46 12.9 18.62 11.14 C12.15 8.33 6.09 4.54 0 1 C0 0.67 0 0.34 0 0 Z " fill="#E6A260" transform="translate(684,285)"/>
<path d="M0 0 C-3.81 3.29 -7.8 5.58 -12.31 7.75 C-13.74 8.45 -15.18 9.15 -16.61 9.86 C-17.34 10.21 -18.07 10.57 -18.82 10.93 C-21.58 12.29 -24.33 13.67 -27.08 15.06 C-34.22 18.67 -41.43 22.11 -48.7 25.46 C-49.79 25.97 -50.88 26.48 -52 27 C-53.1 27.51 -54.21 28.01 -55.34 28.53 C-58.21 29.79 -58.21 29.79 -59.38 32.69 C-59.58 33.45 -59.79 34.21 -60 35 C-61.32 34.34 -62.64 33.68 -64 33 C-64 33.99 -64 34.98 -64 36 C-63.34 36.33 -62.68 36.66 -62 37 C-63.65 36.67 -65.3 36.34 -67 36 C-66.77 31.46 -66.58 28.89 -64.06 25.06 C-60.86 22.9 -60.04 22.78 -56.38 22.66 C-50.72 22.18 -46.74 20.24 -41.88 17.44 C-40.22 16.53 -38.57 15.62 -36.92 14.71 C-36.1 14.26 -35.28 13.8 -34.44 13.33 C-30.08 10.95 -25.62 8.79 -21.16 6.6 C-17.67 4.88 -14.31 3.05 -11 1 C-11 1.99 -11 2.98 -11 4 C-10.11 3.34 -9.23 2.68 -8.31 2 C-5.02 0.01 -3.72 -0.44 0 0 Z " fill="#EAAB5E" transform="translate(580,294)"/>
<path d="M0 0 C0.91 0.01 1.82 0.02 2.76 0.03 C3.46 0.04 4.16 0.05 4.88 0.06 C9.23 6.5 10.6 11.31 9.88 19.06 C3.34 18.76 -1.51 17.41 -7.12 14.06 C-7.95 13.61 -8.77 13.15 -9.62 12.69 C-11.12 11.06 -11.12 11.06 -11.38 7.88 C-11.29 6.95 -11.21 6.02 -11.12 5.06 C-10.13 4.73 -9.14 4.4 -8.12 4.06 C-7.79 3.07 -7.47 2.08 -7.12 1.06 C-4.6 -0.2 -2.81 -0.04 0 0 Z " fill="#EDAEBA" transform="translate(629.125,298.9375)"/>
<path d="M0 0 C0.66 0.33 1.32 0.66 2 1 C2.99 0.67 3.98 0.34 5 0 C7.16 -0.12 9.33 -0.18 11.5 -0.19 C12.64 -0.2 13.79 -0.22 14.97 -0.23 C18 0 18 0 21 2 C21.5 4.88 21.5 4.88 21 8 C16.59 12.53 12.61 13.15 6.5 13.25 C5.09 13.29 5.09 13.29 3.66 13.33 C0.6 12.95 -0.73 12.03 -3 10 C-2.25 2.25 -2.25 2.25 0 0 Z " fill="#DCD0CD" transform="translate(576,256)"/>
<path d="M0 0 C0.5 1.49 0.5 1.49 1 3 C-4.98 9.33 -11.73 13.03 -19.38 17 C-20.19 17.43 -21 17.85 -21.84 18.29 C-28.79 21.92 -35.77 25.48 -42.88 28.81 C-43.8 29.25 -44.73 29.69 -45.68 30.14 C-46.45 30.43 -47.21 30.71 -48 31 C-48.66 30.67 -49.32 30.34 -50 30 C-46.71 25.65 -44.23 23 -39 21 C-37.68 21 -36.36 21 -35 21 C-35 20.34 -35 19.68 -35 19 C-34.24 18.7 -33.48 18.39 -32.69 18.08 C-22.18 13.82 -13.96 9.28 -5.38 1.79 C-3 0 -3 0 0 0 Z " fill="#E49F5F" transform="translate(634,261)"/>
<path d="M0 0 C3.04 3.04 2.98 5.25 3.08 9.52 C3.07 10.94 3.05 12.37 3.02 13.8 C3.01 14.58 3 15.36 2.99 16.16 C2.96 18.74 2.92 21.32 2.88 23.89 C2.85 25.68 2.83 27.47 2.81 29.25 C2.74 33.96 2.68 38.66 2.61 43.36 C2.53 48.16 2.47 52.96 2.4 57.76 C2.28 67.17 2.14 76.59 2 86 C1.01 86.5 1.01 86.5 0 87 C0 58.29 0 29.58 0 0 Z " fill="#BC8792" transform="translate(757,336)"/>
<path d="M0 0 C1.98 0.5 1.98 0.5 4 1 C3.67 2.98 3.34 4.96 3 7 C-0.81 7.89 -4.31 8.11 -8.22 8.08 C-9.47 8.08 -10.72 8.07 -12.01 8.06 C-13.39 8.05 -14.77 8.03 -16.15 8.02 C-17.61 8.01 -19.07 8 -20.53 7.99 C-24.48 7.97 -28.44 7.93 -32.39 7.9 C-36.53 7.87 -40.66 7.84 -44.8 7.81 C-52.62 7.75 -60.45 7.69 -68.28 7.63 C-77.19 7.55 -86.1 7.49 -95.01 7.42 C-113.34 7.29 -131.67 7.15 -150 7 C-150 6.67 -150 6.34 -150 6 C-100.83 5.67 -51.66 5.34 -1 5 C-0.67 3.35 -0.34 1.7 0 0 Z " fill="#ECB2BE" transform="translate(756,421)"/>
<path d="M0 0 C0.7 0.01 1.4 0.03 2.13 0.04 C3.86 0.08 5.58 0.13 7.31 0.19 C9.35 3.85 9.35 3.85 9 6.88 C8.31 9.19 8.31 9.19 7.31 10.19 C4.84 10.31 2.41 10.37 -0.06 10.38 C-0.75 10.39 -1.43 10.4 -2.14 10.41 C-5.88 10.42 -7.5 10.31 -10.69 8.19 C-11.11 5.46 -11.13 3.89 -9.64 1.54 C-6.63 -0.54 -3.52 -0.13 0 0 Z " fill="#E6A05D" transform="translate(641.6875,401.8125)"/>
<path d="M0 0 C3.63 0 7.26 0 11 0 C13 5 13 5 12.1 7.89 C11.61 8.86 11.13 9.82 10.62 10.81 C9.9 12.28 9.9 12.28 9.16 13.77 C8.78 14.51 8.4 15.24 8 16 C5.08 15.09 3.39 14.55 1.6 12.01 C1.28 11.24 0.96 10.48 0.62 9.69 C0.29 8.93 -0.05 8.17 -0.4 7.39 C-1 5 -1 5 0 0 Z " fill="#FBFBFA" transform="translate(634,227)"/>
<path d="M0 0 C2 1.19 2 1.19 3 3 C3.5 5.44 3.5 5.44 3 8 C0.33 10.67 -2.15 12.76 -6 13 C-8.75 12.06 -8.75 12.06 -11 11 C-11.08 9.54 -11.14 8.08 -11.19 6.62 C-11.22 5.81 -11.26 5 -11.29 4.16 C-11.2 3.45 -11.1 2.74 -11 2 C-7.2 -0.54 -4.46 -0.59 0 0 Z " fill="#77B7E2" transform="translate(655,302)"/>
<path d="M0 0 C1.7 0.07 1.7 0.07 3.44 0.14 C4.61 0.2 5.79 0.27 7 0.33 C8.18 0.38 9.35 0.42 10.56 0.47 C15.83 0.71 20.15 0.93 25 3.14 C25 4.13 25 5.12 25 6.14 C12.79 6.14 0.58 6.14 -12 6.14 C-11 3.14 -11 3.14 -8.81 1.47 C-5.57 -0.06 -3.57 -0.16 0 0 Z " fill="#E9B2BF" transform="translate(694,208.85546875)"/>
<path d="M0 0 C3 0 3 0 5.06 1.69 C8.58 5.88 9.53 9.76 9.48 15.27 C8.63 20.09 6.25 24.35 4.02 28.67 C2.61 32.04 2.61 32.04 4.32 35.43 C4.88 36.28 5.43 37.12 6 38 C4.12 37.69 4.12 37.69 2 37 C-0.39 33.42 -0.48 32.23 0 28 C0.63 26.75 1.3 25.52 2 24.31 C4.69 19.33 4.73 14.54 4 9 C2.71 5.58 2.71 5.58 1 3 C0.67 2.01 0.34 1.02 0 0 Z " fill="#BE8994" transform="translate(735,220)"/>
<path d="M0 0 C0.66 0.27 1.31 0.54 1.99 0.82 C4.29 1.72 6.58 2.55 8.92 3.33 C9.96 3.69 9.96 3.69 11.03 4.06 C12.48 4.57 13.93 5.05 15.38 5.53 C20.71 7.41 20.71 7.41 22.3 10.64 C22.53 11.42 22.76 12.2 23 13 C23.99 13.33 24.98 13.66 26 14 C25.67 15.65 25.34 17.3 25 19 C24.28 18.32 23.56 17.64 22.81 16.94 C17.82 12.73 11.77 9.97 6 7 C6 6.34 6 5.68 6 5 C4.02 4.34 2.04 3.68 0 3 C0 2.01 0 1.02 0 0 Z " fill="#EBC59F" transform="translate(743,311)"/>
<path d="M0 0 C0.66 0.33 1.32 0.66 2 1 C1.51 1.44 1.01 1.87 0.5 2.32 C-0.14 2.92 -0.78 3.51 -1.44 4.12 C-2.08 4.71 -2.71 5.29 -3.37 5.88 C-5.53 8.7 -5.9 10.45 -6 14 C-5.12 16.55 -4.23 18.78 -3.06 21.19 C0 27.67 0 27.67 0 31 C-0.66 31 -1.32 31 -2 31 C-3.66 28.73 -3.66 28.73 -5.5 25.75 C-6.11 24.78 -6.72 23.8 -7.34 22.8 C-10.21 17.96 -11.44 15.49 -10.54 9.89 C-9.13 4.92 -4.1 2.61 0 0 Z " fill="#BC8792" transform="translate(546,221)"/>
<path d="M0 0 C0.62 0.8 1.24 1.61 1.88 2.44 C3.74 5.04 3.74 5.04 6 6 C8.41 6.12 10.79 6.19 13.2 6.21 C14.32 6.22 14.32 6.22 15.45 6.24 C17.91 6.27 20.36 6.29 22.82 6.32 C24.52 6.34 26.22 6.36 27.92 6.38 C32.41 6.43 36.89 6.48 41.37 6.53 C45.94 6.58 50.51 6.64 55.08 6.69 C64.05 6.8 73.03 6.9 82 7 C82 7.33 82 7.66 82 8 C71.33 8.02 60.65 8.04 49.98 8.05 C45.02 8.06 40.07 8.06 35.11 8.08 C30.33 8.09 25.55 8.09 20.77 8.09 C18.95 8.1 17.12 8.1 15.29 8.11 C12.74 8.11 10.19 8.11 7.64 8.11 C6.88 8.12 6.11 8.12 5.33 8.12 C0.11 8.11 0.11 8.11 -1 7 C-1.12 4 -1.12 4 -1 1 C-0.67 0.67 -0.34 0.34 0 0 Z " fill="#EBB4BF" transform="translate(523,420)"/>
<path d="M0 0 C-0.99 0.5 -0.99 0.5 -2 1 C-2 1.66 -2 2.32 -2 3 C-2.78 3.43 -3.57 3.87 -4.38 4.31 C-7.42 6.27 -7.99 7.6 -9 11 C-10.32 10.34 -11.64 9.68 -13 9 C-13 9.99 -13 10.98 -13 12 C-12.34 12.33 -11.68 12.66 -11 13 C-12.65 12.67 -14.3 12.34 -16 12 C-15.77 7.42 -15.53 4.84 -13.06 0.94 C-8.61 -1.88 -5.01 -0.98 0 0 Z " fill="#F0C296" transform="translate(529,318)"/>
<path d="M0 0 C1.99 3.33 2.26 5.87 2.27 9.72 C2.27 10.82 2.27 11.91 2.27 13.04 C2.27 14.18 2.26 15.32 2.25 16.5 C2.26 17.64 2.27 18.78 2.27 19.96 C2.27 21.05 2.27 22.15 2.27 23.28 C2.26 24.28 2.26 25.28 2.26 26.31 C2 29.03 1.39 30.68 0 33 C-1.13 29.6 -1.13 26.98 -1.13 23.4 C-1.13 22.1 -1.14 20.81 -1.14 19.48 C-1.13 18.8 -1.13 18.13 -1.13 17.44 C-1.13 15.38 -1.13 13.31 -1.14 11.25 C-1.14 9.96 -1.13 8.67 -1.13 7.34 C-1.13 6.15 -1.13 4.95 -1.13 3.73 C-1 1 -1 1 0 0 Z " fill="#E49E5F" transform="translate(525,341)"/>
<path d="M0 0 C0.99 0 1.98 0 3 0 C3 0.66 3 1.32 3 2 C-0.08 3.65 -3.16 5.3 -6.25 6.94 C-7.12 7.41 -8 7.87 -8.89 8.36 C-9.74 8.81 -10.58 9.25 -11.45 9.71 C-12.23 10.13 -13 10.54 -13.8 10.97 C-15.87 11.94 -17.77 12.54 -20 13 C-20 12.34 -20 11.68 -20 11 C-20.66 10.34 -21.32 9.68 -22 9 C-20.51 8.38 -20.51 8.38 -19 7.75 C-16.24 6.58 -13.59 5.28 -10.94 3.88 C-7.64 2.19 -4.69 1.45 -1 1 C-0.67 0.67 -0.34 0.34 0 0 Z " fill="#EAAA66" transform="translate(547,308)"/>
<path d="M0 0 C1.1 3.29 0.8 4.71 0 8 C-5.75 6.25 -5.75 6.25 -8 4 C-9.18 3.5 -10.35 3.01 -11.56 2.5 C-15 1 -15 1 -16 -1 C-10.31 -2.5 -5.58 -1.33 0 0 Z " fill="#DCD1CE" transform="translate(710,288)"/>
<path d="M0 0 C1.31 -0.04 1.31 -0.04 2.65 -0.08 C5.48 0.31 6.31 1.06 8.06 3.25 C-1.35 8.62 -1.35 8.62 -5.94 10.25 C-5.73 9.69 -5.52 9.14 -5.31 8.56 C-4.83 5.59 -5.67 3.93 -6.94 1.25 C-4.48 0.02 -2.74 0.05 0 0 Z " fill="#DDCECB" transform="translate(572.9375,288.75)"/>
<path d="M0 0 C2.56 -0.06 2.56 -0.06 6 1 C7.95 3.12 9.58 5.36 11.25 7.7 C13.52 10.68 16.06 12.71 19 15 C19 15.33 19 15.66 19 16 C15.66 16.39 14.29 16.2 11.46 14.28 C6.66 9.83 2.79 5.96 0 0 Z " fill="#BC8792" transform="translate(701,251)"/>
<path d="M0 0 C2.74 2.22 3.89 3.42 4.56 6.94 C3.81 11.05 2.27 12.46 -1 15 C-3.81 15.81 -3.81 15.81 -6 16 C-5.36 12.3 -5.36 12.3 -3.44 10.69 C-1.19 8.05 -1.94 5.35 -2 2 C-1.34 1.34 -0.68 0.68 0 0 Z " fill="#BC8792" transform="translate(602,254)"/>
<path d="M0 0 C0.66 0.33 1.32 0.66 2 1 C1.67 1.66 1.34 2.32 1 3 C0.96 7.57 1.4 11.09 3.94 14.94 C4.96 15.96 4.96 15.96 6 17 C6.66 17.66 7.32 18.32 8 19 C2.74 18.68 -0.59 15.77 -4 12 C-5.12 9.44 -5.12 9.44 -5 7 C-3.61 4.16 -2.23 2.23 0 0 Z " fill="#BC8792" transform="translate(680,253)"/>
<path d="M0 0 C4.31 2.99 4.91 3.54 6 9 C2.37 9 -1.26 9 -5 9 C-4.51 3.46 -4.51 3.46 -1.94 1.12 C-1.3 0.75 -0.66 0.38 0 0 Z " fill="#DDCECC" transform="translate(641,255)"/>
<path d="M0 0 C3.43 0.41 6.74 0.62 10.19 0.56 C9.2 2.87 8.21 5.18 7.19 7.56 C6.8 7.06 6.41 6.56 6.01 6.04 C4.26 4.31 4.26 4.31 1.71 4.49 C0.81 4.62 -0.08 4.74 -1 4.88 C-1.9 4.99 -2.8 5.11 -3.73 5.24 C-4.42 5.35 -5.1 5.45 -5.81 5.56 C-6.14 3.91 -6.47 2.26 -6.81 0.56 C-4.25 -0.72 -2.83 -0.34 0 0 Z " fill="#DCD0CD" transform="translate(777.8125,253.4375)"/>
<path d="M0 0 C1.15 0.1 2.29 0.2 3.48 0.3 C6.38 0.69 6.38 0.69 8.38 1.69 C8.38 2.35 8.38 3.01 8.38 3.69 C2.03 4.84 -4.19 4.78 -10.62 4.69 C-10.62 3.7 -10.62 2.71 -10.62 1.69 C-6.99 -0.65 -4.22 -0.4 0 0 Z " fill="#BC8792" transform="translate(593.625,230.3125)"/>
<path d="M0 0 C0.33 0.99 0.66 1.98 1 3 C-2.94 7.56 -6.27 9.15 -12 11 C-10.53 5.46 -5.96 0 0 0 Z " fill="#BC8792" transform="translate(634,261)"/>
<path d="M0 0 C2.29 1.81 2.95 2.61 3.31 5.56 C3 8 3 8 1 10 C0.75 12.5 0.63 14.91 0.59 17.41 C0.57 18.14 0.55 18.87 0.53 19.63 C0.47 21.96 0.42 24.29 0.38 26.62 C0.34 28.21 0.3 29.79 0.26 31.37 C0.16 35.24 0.08 39.12 0 43 C-0.33 43 -0.66 43 -1 43 C-1.02 37.36 -1.04 31.72 -1.05 26.07 C-1.06 24.16 -1.07 22.24 -1.08 20.32 C-1.09 17.56 -1.09 14.8 -1.1 12.04 C-1.1 11.18 -1.11 10.32 -1.11 9.44 C-1.11 8.64 -1.11 7.84 -1.11 7.01 C-1.12 6.31 -1.12 5.6 -1.12 4.88 C-1 3 -1 3 0 0 Z " fill="#E39F62" transform="translate(523,333)"/>
<path d="M0 0 C0.99 0 1.98 0 3 0 C3 2.31 3 4.62 3 7 C3.97 7.45 4.94 7.91 5.94 8.38 C9 10 9 10 10 12 C9.06 14.12 9.06 14.12 8 16 C5.75 15.56 5.75 15.56 3 14 C0.52 10.14 -1.13 6.55 -0.75 1.94 C-0.5 1.3 -0.25 0.66 0 0 Z " fill="#E5C3C6" transform="translate(634,227)"/>
<path d="M0 0 C0 0.66 0 1.32 0 2 C-5.29 6 -5.29 6 -9 6 C-9 5.34 -9 4.68 -9 4 C-14.94 4.5 -14.94 4.5 -21 5 C-17.55 1.55 -16.31 1.44 -11.62 0.81 C-10.5 0.65 -9.38 0.5 -8.23 0.33 C-5.45 0.05 -2.79 -0.07 0 0 Z " fill="#D0B3B6" transform="translate(766,283)"/>
<path d="M0 0 C4.82 0.27 6.87 2.51 10 6 C8.73 8.84 7.55 11.14 5 13 C2.81 12.69 2.81 12.69 1 12 C1.66 11.34 2.32 10.68 3 10 C3.17 6.42 3.17 6.42 3 3 C1.68 2.34 0.36 1.68 -1 1 C-0.67 0.67 -0.34 0.34 0 0 Z " fill="#BD8790" transform="translate(654,300)"/>
<path d="M0 0 C0.99 0 1.98 0 3 0 C3.03 2.71 3.05 5.42 3.06 8.12 C3.07 8.89 3.08 9.65 3.09 10.43 C3.11 14.74 2.86 18.76 2 23 C1.67 23 1.34 23 1 23 C-0.25 15.35 -0.09 7.73 0 0 Z " fill="#BC8792" transform="translate(523,376)"/>
<path d="M0 0 C0.66 0.99 1.32 1.98 2 3 C-1.86 9.49 -7.14 14.67 -14 18 C-14.66 17.67 -15.32 17.34 -16 17 C-15.26 16.44 -14.53 15.89 -13.77 15.31 C-7.83 10.67 -3.53 6.69 0 0 Z " fill="#BC8792" transform="translate(785,263)"/>
<path d="M0 0 C0.33 0.99 0.66 1.98 1 3 C0.34 3 -0.32 3 -1 3 C-1 3.66 -1 4.32 -1 5 C-1.99 5.66 -2.98 6.32 -4 7 C-4.73 10.07 -4.73 10.07 -5 13 C-4.34 13.33 -3.68 13.66 -3 14 C-4.65 13.67 -6.3 13.34 -8 13 C-7.63 5.78 -7.63 5.78 -4.56 2 C-2 0 -2 0 0 0 Z " fill="#E7C2B9" transform="translate(521,317)"/>
<path d="M0 0 C2.97 0 5.94 0 9 0 C8.67 1.98 8.34 3.96 8 6 C6.68 6.33 5.36 6.66 4 7 C0 2.25 0 2.25 0 0 Z " fill="#FACF49" transform="translate(637,402)"/>
<path d="M0 0 C-0.53 3.82 -1.5 6.06 -4 9 C-5.32 8.34 -6.64 7.68 -8 7 C-4.72 0 -4.72 0 0 0 Z " fill="#BC8792" transform="translate(577,252)"/>
<path d="M0 0 C1.32 0.33 2.64 0.66 4 1 C3.67 2.98 3.34 4.96 3 7 C-1.26 8.16 -4.68 7.76 -9 7 C-9 6.67 -9 6.34 -9 6 C-6.36 5.67 -3.72 5.34 -1 5 C-0.67 3.35 -0.34 1.7 0 0 Z " fill="#E4C1C6" transform="translate(756,421)"/>
<path d="M0 0 C0.99 0.33 1.98 0.66 3 1 C2.34 1 1.68 1 1 1 C-0.03 6.55 -0.03 6.55 1 12 C-1.5 10.88 -1.5 10.88 -4 9 C-4.31 5.81 -4.31 5.81 -4 3 C-3.01 2.67 -2.02 2.34 -1 2 C-0.67 1.34 -0.34 0.68 0 0 Z " fill="#E6A05D" transform="translate(622,301)"/>
<path d="M0 0 C2.44 1.25 2.44 1.25 3.44 4.25 C0.52 5.06 -1.02 5.47 -3.88 4.31 C-4.43 3.96 -4.99 3.61 -5.56 3.25 C-5.23 2.26 -4.9 1.27 -4.56 0.25 C-2.56 -0.75 -2.56 -0.75 0 0 Z " fill="#BC8792" transform="translate(551.5625,266.75)"/>
<path d="M0 0 C0.6 0.76 1.2 1.53 1.81 2.31 C3.47 4.35 5.1 6.2 7 8 C4.67 8.04 2.33 8.04 0 8 C-1 7 -1 7 -1.12 4 C-1 1 -1 1 0 0 Z " fill="#ECB2BE" transform="translate(523,420)"/>
<path d="M0 0 C1.13 0.02 2.27 0.04 3.44 0.06 C3.44 1.05 3.44 2.04 3.44 3.06 C0.8 3.72 -1.84 4.38 -4.56 5.06 C-4.56 0.08 -4.56 0.08 0 0 Z " fill="#BC8792" transform="translate(731.5625,267.9375)"/>
<path d="M0 0 C3.96 0.33 7.92 0.66 12 1 C12 1.66 12 2.32 12 3 C8.04 3 4.08 3 0 3 C0 2.01 0 1.02 0 0 Z " fill="#BC8792" transform="translate(680,232)"/>
<path d="M0 0 C0 0.66 0 1.32 0 2 C-0.99 2 -1.98 2 -3 2 C-3 2.66 -3 3.32 -3 4 C-5.38 3.69 -5.38 3.69 -8 3 C-8.66 2.01 -9.32 1.02 -10 0 C-6.34 -0.75 -3.58 -1.24 0 0 Z " fill="#ECB2BE" transform="translate(704,287)"/>
<path d="M0 0 C-0.99 2.31 -1.98 4.62 -3 7 C-4.65 5.35 -6.3 3.7 -8 2 C-4.77 -0.15 -3.72 -0.2 0 0 Z " fill="#E8B8C1" transform="translate(788,254)"/>
<path d="M0 0 C1.5 1.19 1.5 1.19 3 3 C3.19 5.69 3.19 5.69 3 8 C2.01 8.5 2.01 8.5 1 9 C0.34 8.67 -0.32 8.34 -1 8 C-0.67 5.36 -0.34 2.72 0 0 Z " fill="#BF888D" transform="translate(523,333)"/>
<path d="M0 0 C4.83 0.41 6.83 2.46 10 6 C6.06 5.44 3.25 4.32 0 2 C0 1.34 0 0.68 0 0 Z " fill="#E6A05D" transform="translate(644,264)"/>
<path d="M0 0 C0.33 0 0.66 0 1 0 C1 6.6 1 13.2 1 20 C0.67 20 0.34 20 0 20 C0 13.4 0 6.8 0 0 Z " fill="#FCFCFC" transform="translate(504,388)"/>
<path d="M0 0 C0.33 0 0.66 0 1 0 C1 6.6 1 13.2 1 20 C0.67 20 0.34 20 0 20 C0 13.4 0 6.8 0 0 Z " fill="#FCFCFC" transform="translate(504,356)"/>
<path d="M0 0 C3 1 3 1 3 1 Z " fill="#FCFCFC" transform="translate(518,306)"/>
<path d="" fill="#FCFCFC" transform="translate(0,0)"/>
<path d="" fill="#FCFCFC" transform="translate(0,0)"/>
<path d="" fill="#DCD1CE" transform="translate(0,0)"/>
<path d="" fill="#FCFCFC" transform="translate(0,0)"/>
<path d="" fill="#FCFCFC" transform="translate(0,0)"/>
<path d="" fill="#FCFCFC" transform="translate(0,0)"/>
<path d="" fill="#FCFCFC" transform="translate(0,0)"/>
<path d="" fill="#FCFCFC" transform="translate(0,0)"/>
<path d="" fill="#FCFCFC" transform="translate(0,0)"/>
<path d="" fill="#FCFCFC" transform="translate(0,0)"/>
<path d="" fill="#FCFCFC" transform="translate(0,0)"/>
<path d="" fill="#FCFCFC" transform="translate(0,0)"/>
</svg>
