<?xml version="1.0" encoding="UTF-8"?>
<!-- Generator: visioncortex VTracer 0.6.3 -->
<svg version="1.1" xmlns="http://www.w3.org/2000/svg" width="1280" height="640">
<path d="M0 0 C0.99 0.33 1.98 0.66 3 1 C5.16 1.09 7.33 1.12 9.49 1.11 C10.47 1.11 10.47 1.11 11.47 1.11 C13.63 1.11 15.79 1.11 17.95 1.1 C19.45 1.1 20.94 1.09 22.44 1.09 C26.38 1.09 30.32 1.08 34.26 1.07 C38.29 1.06 42.31 1.05 46.33 1.05 C54.22 1.04 62.11 1.02 70 1 C70 1.66 70 2.32 70 3 C71.24 2.69 72.48 2.38 73.75 2.06 C84.94 -0.39 96.42 -0.15 107.82 -0.15 C109.49 -0.15 111.15 -0.15 112.81 -0.16 C117.29 -0.16 121.77 -0.17 126.25 -0.17 C129.05 -0.17 131.86 -0.17 134.66 -0.17 C144.45 -0.18 154.25 -0.19 164.04 -0.19 C173.15 -0.18 182.26 -0.2 191.37 -0.21 C199.22 -0.22 207.06 -0.23 214.91 -0.23 C219.58 -0.23 224.26 -0.23 228.93 -0.24 C233.33 -0.25 237.72 -0.25 242.11 -0.24 C243.72 -0.24 245.33 -0.25 246.93 -0.25 C267.08 -0.32 267.08 -0.32 272.44 3.94 C275.18 7.55 276.29 9.54 276.31 14.06 C276.33 14.94 276.35 15.82 276.36 16.72 C276.18 17.85 276.18 17.85 276 19 C274.51 19.99 274.51 19.99 273 21 C272.27 23.56 272.27 23.56 272 26 C273.32 26.33 274.64 26.66 276 27 C277.05 31.5 276.92 33.84 275 38 C274.86 38.89 274.71 39.77 274.56 40.69 C274 43 274 43 271 45 C271.16 46.05 271.33 47.1 271.5 48.19 C271.97 52.02 272.16 55.83 272.25 59.69 C272.28 60.76 272.3 61.84 272.33 62.95 C271.95 66.44 271.12 68.22 269 71 C266.77 72.67 264.5 73.73 262 75 C262.27 76.98 262.27 76.98 263 79 C263.99 79.33 264.98 79.66 266 80 C266.41 80.45 266.83 80.91 267.25 81.38 C269.06 83.25 269.06 83.25 272.25 84.31 C276.49 86.05 280.1 88.41 283 92 C283.44 95.31 283.44 95.31 283 98 C283 98.33 283 98.66 283 99 C283.33 99 283.66 99 284 99 C284.88 105.15 284.88 105.15 285 107 C284.67 107.33 284.34 107.66 284 108 C284.34 109.59 284.72 111.17 285.12 112.75 C285.84 116.2 286.11 117.66 285 121.06 C282.41 123.57 280.51 123.56 277 124 C276.57 124.5 276.13 124.99 275.69 125.5 C273.2 127.71 271.26 127.36 267.98 127.33 C266.79 127.32 265.6 127.32 264.38 127.31 C263.14 127.29 261.9 127.27 260.62 127.25 C259.39 127.24 258.16 127.24 256.89 127.23 C247.76 127.16 247.76 127.16 244.17 126.42 C243.45 126.28 242.74 126.14 242 126 C241.67 126.33 241.34 126.66 241 127 C239.5 127.1 238 127.13 236.5 127.12 C235.69 127.13 234.87 127.13 234.03 127.13 C232 127 232 127 231 126 C228 125.83 228 125.83 225 126 C224.67 126.33 224.34 126.66 224 127 C221.79 127.1 219.58 127.13 217.38 127.13 C216.71 127.13 216.05 127.13 215.37 127.14 C213.97 127.14 212.56 127.13 211.16 127.13 C209.01 127.13 206.86 127.13 204.7 127.14 C203.34 127.14 201.98 127.13 200.62 127.13 C199.38 127.13 198.13 127.13 196.85 127.13 C194 127 194 127 193 126 C191.45 125.9 189.9 125.87 188.34 125.87 C187.4 125.87 186.46 125.86 185.5 125.86 C184.51 125.87 183.52 125.87 182.5 125.88 C181.02 125.87 181.02 125.87 179.5 125.86 C178.09 125.87 178.09 125.87 176.66 125.87 C175.35 125.87 175.35 125.87 174.03 125.87 C172 125.78 172 125.78 171 127 C167.92 127.25 164.83 127.19 161.75 127.19 C160.89 127.2 160.03 127.21 159.14 127.22 C154.54 127.24 151.25 126.89 147 125 C144.65 124.93 144.65 124.93 142.38 125.31 C141.62 125.41 140.86 125.51 140.09 125.61 C137.82 125.98 137.82 125.98 135 127 C133.34 127.09 131.67 127.13 130 127.13 C129.03 127.13 128.06 127.14 127.06 127.14 C125.55 127.13 125.55 127.13 124 127.12 C122.99 127.13 121.98 127.13 120.94 127.14 C119.97 127.14 119 127.13 118 127.13 C116.67 127.13 116.67 127.13 115.31 127.13 C113 127 113 127 110 126 C110 126.33 110 126.66 110 127 C106.33 127 102.67 127 99 127 C98.13 127.01 97.26 127.02 96.37 127.04 C95.4 127.04 94.43 127.05 93.44 127.06 C92.47 127.07 91.5 127.09 90.5 127.1 C88 127 88 127 86 126 C84.22 125.9 82.44 125.87 80.66 125.87 C79.6 125.87 78.53 125.86 77.44 125.86 C76.33 125.87 75.21 125.87 74.06 125.88 C72.4 125.87 72.4 125.87 70.7 125.86 C69.63 125.86 68.57 125.87 67.47 125.87 C66.01 125.87 66.01 125.87 64.51 125.87 C61.87 125.89 61.87 125.89 59 127 C57.72 127.12 56.44 127.25 55.12 127.38 C51.08 127.84 47.94 129.06 45 132 C43.46 132.1 41.92 132.13 40.38 132.13 C39.44 132.13 38.51 132.14 37.54 132.14 C36.56 132.13 35.58 132.13 34.56 132.12 C33.58 132.13 32.6 132.13 31.59 132.14 C30.66 132.14 29.72 132.13 28.75 132.13 C27.46 132.13 27.46 132.13 26.14 132.13 C24 132 24 132 22 131 C20.63 130.9 19.25 130.82 17.88 130.75 C14.22 130.4 12.05 129.62 9.06 127.5 C5.99 125.36 3.93 124.69 0.19 124.5 C-5.83 124.15 -10.99 122.38 -16 119 C-17.69 115.81 -17.69 115.81 -18 112 C-18.09 111.16 -18.18 110.33 -18.27 109.47 C-18.69 102.84 -18.69 102.84 -15.94 99.5 C-13 98 -13 98 -9.5 97.06 C-5.42 95.82 -3.89 94.04 -1 91 C1.31 90.19 1.31 90.19 3 90 C2.71 84.71 2.71 84.71 -0.44 80.62 C-4.38 76.59 -4.96 72.24 -5.03 66.71 C-4.88 64.56 -4.88 64.56 -4 61 C-2.19 59.94 -2.19 59.94 0 59 C1.56 56.75 2.74 54.44 4 52 C3.39 51.77 2.77 51.54 2.14 51.3 C-4.48 48.63 -4.48 48.63 -7 45.56 C-8.94 40.6 -8.94 40.6 -9 38 C-7.72 35.97 -6.38 33.97 -5 32 C-4.14 29.68 -3.58 27.41 -3 25 C-3.66 24.67 -4.32 24.34 -5 24 C-5.63 22.07 -5.63 22.07 -6.12 19.69 C-6.29 18.91 -6.46 18.13 -6.63 17.32 C-7.45 12.17 -6.38 9.48 -4 5 C-3.67 4.01 -3.34 3.02 -3 2 C-2.01 2 -1.02 2 0 2 C0 1.34 0 0.68 0 0 Z M282 103 C283 105 283 105 283 105 Z M268 124 C268 124.33 268 124.66 268 125 C269.98 125 271.96 125 274 125 C274 124.67 274 124.34 274 124 C272.02 124 270.04 124 268 124 Z " fill="#F4EFF3" transform="translate(502,253)"/>
<path d="M0 0 C1.05 -0 2.1 -0.01 3.18 -0.01 C4.32 -0 5.47 0.01 6.65 0.02 C8.46 0.02 8.46 0.02 10.32 0.02 C13.63 0.02 16.94 0.04 20.26 0.06 C23.72 0.08 27.19 0.08 30.65 0.08 C37.21 0.09 43.77 0.11 50.33 0.14 C57.79 0.18 65.26 0.19 72.73 0.21 C88.09 0.24 103.45 0.29 118.81 0.36 C120.67 4.08 120.4 8.32 119.81 12.36 C118.38 14.7 116.72 16.36 114.81 18.36 C115.14 19.35 115.47 20.34 115.81 21.36 C116.8 21.69 117.79 22.02 118.81 22.36 C120.4 25.54 120.23 27.86 119.81 31.36 C117 34.17 114.11 36.16 110.81 38.36 C110.48 39.35 110.15 40.34 109.81 41.36 C110.8 41.36 111.79 41.36 112.81 41.36 C116.22 44.97 117.19 47.91 117.56 52.86 C117.44 56.04 117.27 57.76 115.33 60.3 C103.74 69.55 88.38 68.54 74.37 68.49 C72.4 68.48 72.4 68.48 70.4 68.48 C39.91 68.33 39.91 68.33 29.5 65.8 C26.93 65.38 24.65 65.33 22.06 65.36 C16.14 65.42 10.42 64.92 4.62 63.67 C1.16 63.29 -0.93 64.17 -4.19 65.36 C-6.52 65.71 -8.85 66.04 -11.19 66.36 C-17.92 67.57 -24.66 68.78 -31.19 70.86 C-60.28 79.94 -101.2 83.49 -129.19 69.36 C-130.6 66.54 -130.43 64.49 -130.19 61.36 C-125.37 51.68 -115.18 47.54 -105.45 44.27 C-94.24 41.45 -82 42.19 -70.5 42.24 C-69.76 42.24 -69.01 42.24 -68.25 42.24 C-38.19 42.31 -38.19 42.31 -25.71 44.88 C-20.9 45.79 -16.07 46.1 -11.19 46.36 C-10.09 46.44 -9 46.52 -7.87 46.6 C1.83 46.98 10.37 45.1 19.74 42.79 C24.07 41.73 28.4 40.86 32.79 40.09 C33.96 39.88 35.13 39.68 36.33 39.47 C38.6 39.07 40.88 38.69 43.16 38.32 C49.57 37.19 53.27 36.07 57.81 31.36 C58.75 30.59 59.69 29.82 60.66 29.03 C63.54 25.46 63.39 23.21 63.25 18.67 C63.24 18 63.24 17.32 63.23 16.62 C63.2 12.54 63.2 12.54 60.81 9.36 C56.03 13.59 53.25 18.43 50.19 23.99 C49.24 25.69 48.29 27.39 47.33 29.09 C46.71 30.21 46.71 30.21 46.08 31.36 C44.8 33.39 43.71 34.89 41.81 36.36 C40.49 36.36 39.17 36.36 37.81 36.36 C37.48 37.02 37.15 37.68 36.81 38.36 C35.53 38.05 34.25 37.74 32.94 37.42 C27.01 36.19 21.1 36.02 15.06 35.97 C13.93 35.93 13.93 35.93 12.79 35.9 C12.12 35.89 11.45 35.88 10.76 35.87 C7.88 35.12 6.7 33.62 4.81 31.36 C3.4 28.87 3.4 28.87 2.12 26.11 C1.65 25.11 1.18 24.11 0.7 23.08 C0.22 22.04 -0.26 21 -0.75 19.92 C-1.71 17.86 -2.67 15.8 -3.63 13.74 C-4.05 12.83 -4.47 11.92 -4.9 10.98 C-6.2 8.34 -7.64 5.86 -9.19 3.36 C-6.07 0.61 -4.14 -0.01 0 0 Z " fill="#CF98A6" transform="translate(641.1885375976563,259.6392364501953)"/>
<path d="M0 0 C2.98 2.21 3.89 3.52 4.72 7.16 C4.83 8.31 4.95 9.45 5.06 10.62 C5.34 14.02 5.34 14.02 6 17 C9.19 19.13 11.27 19.5 15 20 C14.72 18.58 14.42 17.17 14.12 15.75 C13.88 14.57 13.88 14.57 13.63 13.36 C13.08 10.98 13.08 10.98 11.91 8.87 C10.65 6.28 11.2 4.7 12 2 C13.57 0.43 15.12 0.87 17.3 0.87 C18.22 0.87 19.14 0.86 20.09 0.86 C21.11 0.86 22.12 0.87 23.17 0.87 C24.24 0.87 25.3 0.87 26.4 0.86 C28.69 0.86 30.97 0.87 33.26 0.87 C36.61 0.87 39.96 0.87 43.31 0.86 C53.17 0.86 63.03 0.91 72.88 1.24 C73.57 1.26 74.25 1.28 74.95 1.3 C76 1.34 76 1.34 77.07 1.37 C95.1 1.96 113.11 2.05 131.14 1.99 C132.43 1.99 133.71 1.98 135.03 1.98 C147.02 1.94 159.02 1.9 171.01 1.83 C177.65 1.79 184.29 1.77 190.92 1.75 C193.43 1.75 195.93 1.73 198.43 1.71 C201.9 1.69 205.38 1.68 208.85 1.68 C209.86 1.66 210.88 1.65 211.93 1.64 C217.99 1.65 222.45 2.52 228 5 C226.98 10.47 225.93 15.76 224 21 C224.76 21.27 225.53 21.54 226.31 21.81 C230.42 23.63 230.42 23.63 232 26 C231.69 28.69 231.69 28.69 231 31 C224.61 32.42 217.15 32.91 210.71 31.5 C206.69 30.76 202.71 30.86 198.62 30.88 C197.39 30.87 197.39 30.87 196.12 30.86 C195.31 30.86 194.5 30.87 193.66 30.87 C192.94 30.87 192.21 30.87 191.46 30.87 C188.9 30.96 188.9 30.96 186 31.5 C180.47 32.33 174.89 32.16 169.31 32.17 C168.1 32.17 166.88 32.17 165.63 32.18 C163.06 32.18 160.5 32.19 157.93 32.19 C154.01 32.19 150.1 32.21 146.18 32.22 C143.68 32.23 141.18 32.23 138.69 32.23 C137.52 32.24 136.35 32.24 135.15 32.25 C129.37 32.24 124.45 31.98 119 30 C119.5 29.09 119.99 28.19 120.5 27.25 C122.79 22.04 122.25 16.57 122 11 C117.59 12.14 115.9 14.13 113.56 17.96 C113 18.91 113 18.91 112.44 19.88 C106.24 30.25 106.24 30.25 101 32 C97.19 32.28 93.38 32.28 89.56 32.31 C88.51 32.34 87.46 32.37 86.38 32.4 C85.37 32.41 84.36 32.42 83.32 32.43 C82.39 32.44 81.47 32.45 80.52 32.47 C77.21 31.85 76.11 30.57 74 28 C72.81 26.2 72.81 26.2 71.86 24.4 C71.51 23.74 71.16 23.09 70.8 22.41 C70.46 21.74 70.11 21.07 69.75 20.38 C69.39 19.69 69.02 19.01 68.65 18.31 C66 13.27 66 13.27 66 11 C62.5 12.28 62.5 12.28 59 14 C58.67 14.99 58.34 15.98 58 17 C58.8 17.37 59.61 17.74 60.44 18.12 C63 20 63 20 64.06 22.88 C63.98 26.88 62.78 28.22 60 31 C56.67 32.67 52.92 32.14 49.26 32.13 C48.38 32.13 47.5 32.13 46.59 32.14 C44.73 32.14 42.86 32.13 40.99 32.13 C38.17 32.13 35.35 32.13 32.53 32.14 C23.3 32.14 14.18 32.05 5 31 C4.69 31.64 4.38 32.28 4.06 32.94 C3 35 3 35 2 36 C-3.88 36.93 -10.06 37.87 -16 37 C-18.51 35.15 -19.65 33.42 -21.3 30.81 C-22.92 28.72 -22.92 28.72 -25.86 28.54 C-27.96 28.59 -30.07 28.7 -32.18 28.85 C-35.5 29.03 -37.97 28.35 -41 27 C-40.79 22.97 -40.28 21.31 -37.52 18.29 C-36.44 17.38 -35.35 16.5 -34.25 15.62 C-33.67 15.15 -33.1 14.68 -32.5 14.2 C-23.04 6.65 -12.63 -1.22 0 0 Z " fill="#EFAE59" transform="translate(540,339)"/>
<path d="M0 0 C0.79 -0 1.58 -0.01 2.39 -0.01 C4.06 -0.02 5.73 -0.02 7.4 -0.02 C9.96 -0.02 12.52 -0.04 15.07 -0.06 C16.69 -0.06 18.32 -0.06 19.94 -0.06 C21.09 -0.07 21.09 -0.07 22.26 -0.08 C26.06 -0.07 27.79 0.01 31.04 2.17 C31.22 5.29 31.22 5.29 31.04 8.17 C30.09 8.58 29.14 8.99 28.16 9.42 C24.9 11.25 24.09 11.71 23.04 15.17 C22.65 17.49 22.31 19.83 22.04 22.17 C24.62 22.56 26.39 22.62 28.57 21.09 C29.39 20.42 29.39 20.42 30.22 19.73 C33.26 17.35 35.32 16.84 39.16 16.67 C42.93 16.46 43.77 16.38 46.85 13.92 C47.57 13.01 48.29 12.1 49.04 11.17 C54.01 5.49 60.61 1.7 68.04 0.17 C71.89 -0.08 75.74 -0.06 79.6 -0.08 C81.15 -0.11 81.15 -0.11 82.73 -0.14 C92.98 -0.2 102.92 1.49 111.04 8.17 C113.51 11.11 113.99 12.72 114.41 16.54 C113.84 22.02 112.32 25.67 108.72 29.86 C99.97 36.23 89.11 36.54 78.72 36.61 C77.71 36.62 76.7 36.63 75.65 36.64 C66.61 36.53 60.05 34.98 53.04 29.17 C51.72 29.17 50.4 29.17 49.04 29.17 C46.8 32.06 46.8 32.06 45.04 35.17 C43.45 36.75 41.83 36.3 39.63 36.31 C38.69 36.32 37.75 36.33 36.78 36.33 C35.25 36.33 35.25 36.33 33.68 36.34 C32.64 36.34 31.59 36.34 30.51 36.35 C28.29 36.35 26.06 36.35 23.84 36.35 C20.45 36.36 17.05 36.37 13.66 36.39 C11.5 36.4 9.34 36.4 7.18 36.4 C5.67 36.41 5.67 36.41 4.12 36.42 C-1.31 36.4 -5.83 35.97 -10.96 34.17 C-10.59 30.9 -10.24 29.45 -7.9 27.04 C-4.93 22.63 -5.06 18.33 -5.96 13.17 C-7.07 11.06 -7.07 11.06 -8.53 9.29 C-10.96 6.17 -10.96 6.17 -10.9 3.29 C-8.92 -1.2 -4.26 0.01 0 0 Z " fill="#D098A6" transform="translate(520.96484375,259.83203125)"/>
<path d="M0 0 C1.52 -0.01 1.52 -0.01 3.07 -0.02 C6.41 -0.03 9.75 -0.04 13.1 -0.04 C15.42 -0.05 17.75 -0.05 20.08 -0.06 C24.96 -0.07 29.84 -0.08 34.72 -0.08 C40.96 -0.08 47.21 -0.11 53.45 -0.14 C58.26 -0.16 63.07 -0.16 67.88 -0.16 C70.18 -0.17 72.48 -0.17 74.78 -0.19 C78.01 -0.2 81.23 -0.2 84.45 -0.2 C85.4 -0.2 86.34 -0.21 87.32 -0.22 C93.2 -0.19 97.53 0.78 102.92 3.16 C101.9 8.63 100.85 13.93 98.92 19.16 C99.68 19.43 100.45 19.7 101.23 19.97 C105.34 21.79 105.34 21.79 106.92 24.16 C106.61 26.85 106.61 26.85 105.92 29.16 C99.53 30.58 92.07 31.07 85.64 29.66 C81.61 28.92 77.63 29.02 73.55 29.04 C72.72 29.03 71.9 29.03 71.05 29.02 C70.23 29.03 69.42 29.03 68.58 29.03 C67.86 29.03 67.13 29.03 66.38 29.03 C63.82 29.12 63.82 29.12 60.92 29.66 C55.39 30.49 49.81 30.32 44.23 30.33 C43.02 30.33 41.8 30.34 40.55 30.34 C37.98 30.34 35.42 30.35 32.85 30.35 C28.93 30.35 25.02 30.37 21.1 30.39 C18.6 30.39 16.11 30.39 13.61 30.39 C12.44 30.4 11.27 30.41 10.07 30.41 C4.3 30.4 -0.63 30.14 -6.08 28.16 C-5.58 27.25 -5.09 26.35 -4.58 25.41 C-2.29 20.2 -2.83 14.74 -3.08 9.16 C-7.49 10.3 -9.18 12.29 -11.52 16.12 C-11.89 16.75 -12.26 17.38 -12.64 18.04 C-15.14 22.21 -17.43 25.86 -21.08 29.16 C-22.07 28.83 -23.06 28.5 -24.08 28.16 C-23.54 27.56 -23.01 26.96 -22.45 26.35 C-20.33 23.5 -18.78 20.8 -17.14 17.66 C-15.45 14.45 -13.96 11.73 -11.27 9.29 C-8.8 6.89 -8.37 5.53 -8.08 2.16 C-10.39 2.16 -12.7 2.16 -15.08 2.16 C-15.08 1.83 -15.08 1.5 -15.08 1.16 C-10.09 -0.15 -5.12 0.01 0 0 Z " fill="#EFAE59" transform="translate(665.079345703125,340.8388671875)"/>
<path d="M0 0 C2.35 0.02 4.7 0.02 7.05 0.01 C8.57 0.02 10.09 0.03 11.61 0.04 C12.3 0.03 12.99 0.03 13.7 0.03 C18.29 0.1 22.17 0.99 26.53 2.34 C28.94 2.54 31.36 2.69 33.78 2.77 C46.75 3.52 46.75 3.52 52.53 6.34 C53.82 8.44 53.82 8.44 54.53 10.34 C42.32 16.67 28.1 18.32 14.69 20.72 C11.52 21.27 11.52 21.27 8.53 22.34 C5.67 22.46 2.84 22.52 -0.02 22.54 C-1.28 22.55 -1.28 22.55 -2.57 22.56 C-4.35 22.57 -6.14 22.57 -7.92 22.58 C-10.63 22.59 -13.34 22.62 -16.05 22.65 C-17.79 22.66 -19.53 22.66 -21.27 22.66 C-22.07 22.68 -22.87 22.69 -23.7 22.7 C-30.01 22.68 -34.8 21.17 -40.47 18.34 C-40.92 14.48 -40.87 12.85 -38.47 9.71 C-27.2 0.79 -13.86 -0.15 0 0 Z " fill="#F6F1F5" transform="translate(568.474365234375,307.663818359375)"/>
<path d="M0 0 C2.98 2.21 3.89 3.52 4.72 7.16 C4.83 8.31 4.95 9.45 5.06 10.62 C5.34 14.02 5.34 14.02 6 17 C9.19 19.13 11.27 19.5 15 20 C14.72 18.58 14.42 17.17 14.12 15.75 C13.88 14.57 13.88 14.57 13.63 13.36 C13.08 10.98 13.08 10.98 11.91 8.87 C10.65 6.28 11.2 4.7 12 2 C13 1 13 1 16.38 0.9 C17.77 0.91 19.17 0.92 20.56 0.94 C21.63 0.94 21.63 0.94 22.72 0.95 C24.48 0.96 26.24 0.98 28 1 C28 1.66 28 2.32 28 3 C28.99 3.5 28.99 3.5 30 4 C26.37 4 22.74 4 19 4 C19.5 5.98 19.5 5.98 20 8 C20.49 16.2 20.67 23.5 17 31 C13.04 31 9.08 31 5 31 C4.34 32.32 3.68 33.64 3 35 C0.21 37.79 -7.72 37.2 -11.61 37.34 C-14.79 37.28 -15.7 37.22 -18.33 35.28 C-19.35 33.81 -20.34 32.32 -21.3 30.81 C-22.92 28.72 -22.92 28.72 -25.86 28.54 C-27.96 28.59 -30.07 28.7 -32.18 28.85 C-35.5 29.03 -37.97 28.35 -41 27 C-40.79 22.97 -40.28 21.31 -37.52 18.29 C-36.44 17.38 -35.35 16.5 -34.25 15.62 C-33.67 15.15 -33.1 14.68 -32.5 14.2 C-23.04 6.65 -12.63 -1.22 0 0 Z " fill="#EFAE59" transform="translate(540,339)"/>
<path d="M0 0 C5.98 -0.07 11.95 -0.13 17.93 -0.16 C19.96 -0.18 21.99 -0.2 24.02 -0.23 C26.95 -0.26 29.88 -0.28 32.81 -0.29 C33.71 -0.31 34.61 -0.32 35.54 -0.34 C41.38 -0.34 45.65 0.64 51 3 C49.98 8.47 48.93 13.76 47 19 C47.76 19.27 48.53 19.54 49.31 19.81 C53.42 21.63 53.42 21.63 55 24 C54.69 26.69 54.69 26.69 54 29 C47.61 30.42 40.15 30.91 33.71 29.5 C29.69 28.76 25.71 28.86 21.62 28.88 C20.8 28.87 19.98 28.87 19.12 28.86 C14.31 28.87 9.75 29.19 5 30 C5 29.34 5 28.68 5 28 C4.34 28 3.68 28 3 28 C2.22 24.58 1.9 21.49 1.97 17.99 C1.98 17.07 2 16.14 2.01 15.19 C2.05 13.26 2.08 11.33 2.13 9.4 C2.14 8.48 2.15 7.56 2.16 6.61 C2.18 5.78 2.19 4.94 2.21 4.08 C2.2 1.78 2.2 1.78 0 0 Z " fill="#EFAE59" transform="translate(717,341)"/>
<path d="M0 0 C1.75 0.23 1.75 0.23 3.53 0.46 C4.51 0.62 5.49 0.78 6.5 0.94 C7.5 1.09 8.5 1.24 9.53 1.4 C12 2 12 2 14 4 C14.27 6.31 14.27 6.31 14.25 9 C14.26 10.33 14.26 10.33 14.27 11.69 C14 14 14 14 12 16 C9.36 16.66 6.8 17.18 4.12 17.62 C3.44 17.76 2.76 17.89 2.06 18.03 C-13.15 20.63 -29.22 19 -44.49 17.77 C-47.19 17.56 -49.88 17.36 -52.58 17.15 C-54.31 17.02 -56.03 16.89 -57.76 16.75 C-58.96 16.66 -58.96 16.66 -60.19 16.57 C-65.77 16.12 -65.77 16.12 -68 15 C-67.94 13.25 -67.94 13.25 -67 11 C-61.41 7.22 -55.7 5.49 -49.19 3.88 C-48.15 3.62 -47.12 3.36 -46.05 3.09 C-31.09 -0.4 -15.28 -2.08 0 0 Z " fill="#F6F1F5" transform="translate(729,302)"/>
<path d="M0 0 C1.17 -0.01 2.33 -0.03 3.53 -0.04 C6.5 0.19 6.5 0.19 8.5 2.19 C8.89 5.12 8.92 6.6 7.18 9.04 C6.58 9.62 5.99 10.21 5.38 10.81 C1.65 14.77 -0.71 18.94 -3.14 23.77 C-4.45 26.11 -5.44 27.51 -7.5 29.19 C-10.74 29.84 -14.02 29.7 -17.31 29.69 C-18.2 29.72 -19.09 29.74 -20.01 29.77 C-24.34 29.79 -27.55 29.65 -31.07 26.96 C-33.55 24.13 -34.24 22.98 -34.56 19.31 C-35.09 15.54 -35.8 13.35 -38.19 10.38 C-40.5 7.19 -40.5 7.19 -40.14 4.49 C-39.93 3.73 -39.72 2.97 -39.5 2.19 C-36.54 2.11 -33.58 2.05 -30.62 2 C-29.78 1.97 -28.94 1.95 -28.07 1.92 C-27.27 1.91 -26.46 1.9 -25.63 1.89 C-24.52 1.87 -24.52 1.87 -23.38 1.85 C-22.45 2.02 -22.45 2.02 -21.5 2.19 C-18.95 6.02 -19.45 8.26 -19.72 12.71 C-19.45 15.7 -18.47 16.98 -16.5 19.19 C-14.57 19.23 -14.57 19.23 -12.5 18.19 C-9.67 13.26 -9.09 8.86 -8.81 3.23 C-8.71 2.55 -8.6 1.88 -8.5 1.19 C-5.65 -0.24 -3.17 0.02 0 0 Z " fill="#F0AF58" transform="translate(648.5,340.8125)"/>
<path d="M0 0 C0.88 0.03 1.75 0.05 2.66 0.08 C5.43 0.16 8.2 0.25 10.97 0.35 C12.86 0.41 14.75 0.47 16.64 0.52 C21.25 0.66 25.86 0.82 30.47 0.98 C32.06 5.75 30.77 10.2 29.47 14.98 C28.32 17.28 27.1 18.96 25.47 20.98 C22.83 20.61 21.69 20.21 19.84 18.25 C18.19 15.52 18.18 14 18.34 10.85 C18.59 7.27 18.59 7.27 17.47 3.98 C11.53 3.98 5.59 3.98 -0.53 3.98 C-0.11 9.7 -0.11 9.7 2.41 12.23 C4.97 15.64 5.23 18.4 5.68 22.57 C6.85 26.14 8.2 27.13 11.47 28.98 C14.9 29.59 18.3 29.67 21.78 29.73 C23.18 29.77 23.18 29.77 24.6 29.82 C26.89 29.89 29.18 29.94 31.47 29.98 C31.47 30.31 31.47 30.64 31.47 30.98 C27.72 31.09 23.97 31.16 20.22 31.23 C19.16 31.26 18.09 31.29 17 31.33 C15.97 31.34 14.95 31.35 13.89 31.37 C12.95 31.39 12.01 31.41 11.03 31.43 C7.68 30.84 6.6 29.58 4.47 26.98 C3.28 25.18 3.28 25.18 2.33 23.38 C1.98 22.72 1.63 22.07 1.27 21.39 C0.93 20.72 0.58 20.04 0.22 19.35 C-0.14 18.67 -0.51 17.99 -0.88 17.29 C-3.53 12.25 -3.53 12.25 -3.53 9.98 C-7.03 11.26 -7.03 11.26 -10.53 12.98 C-10.86 13.97 -11.19 14.96 -11.53 15.98 C-10.73 16.35 -9.92 16.72 -9.09 17.1 C-6.53 18.98 -6.53 18.98 -5.47 21.85 C-5.55 25.85 -6.75 27.19 -9.53 29.98 C-12.24 31.33 -14.54 31.04 -17.53 30.98 C-17.53 30.65 -17.53 30.32 -17.53 29.98 C-16.08 29.54 -16.08 29.54 -14.59 29.1 C-11.42 28.33 -11.42 28.33 -10.53 25.98 C-10.49 23.98 -10.49 21.98 -10.53 19.98 C-14.19 19.22 -17.85 18.58 -21.53 17.98 C-21.16 15.66 -21.16 15.66 -19.53 12.98 C-16.29 11.6 -12.96 10.76 -9.53 9.98 C-9.86 8 -10.19 6.02 -10.53 3.98 C-12.84 3.65 -15.15 3.32 -17.53 2.98 C-17.53 2.65 -17.53 2.32 -17.53 1.98 C-11.48 0.2 -6.28 -0.24 0 0 Z " fill="#D199A1" transform="translate(609.53125,340.0234375)"/>
<path d="M0 0 C2.97 2.21 3.89 3.52 4.72 7.16 C4.83 8.31 4.95 9.45 5.06 10.62 C5.34 14.02 5.34 14.02 6 17 C9.19 19.13 11.27 19.5 15 20 C14.72 18.58 14.42 17.17 14.12 15.75 C13.88 14.57 13.88 14.57 13.63 13.36 C13.08 10.98 13.08 10.98 11.91 8.87 C10.65 6.28 11.2 4.7 12 2 C13 1 13 1 16.38 0.9 C17.77 0.91 19.17 0.92 20.56 0.94 C21.63 0.94 21.63 0.94 22.72 0.95 C24.48 0.96 26.24 0.98 28 1 C28 1.66 28 2.32 28 3 C28.66 3.33 29.32 3.66 30 4 C26.37 4 22.74 4 19 4 C19.5 5.98 19.5 5.98 20 8 C20.49 16.2 20.67 23.5 17 31 C13.04 31 9.08 31 5 31 C4.34 32.32 3.68 33.64 3 35 C0.22 37.78 -7.68 37.2 -11.56 37.34 C-14.85 37.28 -15.87 37.08 -18.75 35.28 C-20.46 33.26 -21.81 31.36 -23 29 C-21.2 27.93 -21.2 27.93 -19 27 C-15.07 28.49 -13.36 29.47 -11 33 C-8.1 33.36 -8.1 33.36 -4.88 33.19 C-3.78 33.16 -2.68 33.13 -1.55 33.11 C-0.71 33.07 0.13 33.04 1 33 C1.28 32.21 1.55 31.42 1.84 30.61 C3.28 27.36 4.88 26.56 8 25 C7.88 23.09 7.88 23.09 7 21 C6.15 20.65 5.31 20.3 4.44 19.94 C3.63 19.3 2.83 18.66 2 18 C1.67 15.08 1.75 12.33 1.92 9.4 C1.95 8.61 1.97 7.82 2 7 C1.03 5.81 1.03 5.81 -0.77 5.89 C-1.51 5.89 -2.26 5.9 -3.04 5.9 C-3.84 5.91 -4.65 5.91 -5.49 5.91 C-6.76 5.92 -6.76 5.92 -8.06 5.94 C-8.92 5.94 -9.77 5.95 -10.65 5.95 C-12.77 5.96 -14.88 5.98 -17 6 C-16.67 5.01 -16.34 4.02 -16 3 C-10.47 0.38 -6.1 -0.71 0 0 Z " fill="#D098A5" transform="translate(540,339)"/>
<path d="M0 0 C1.1 0.01 2.2 0.01 3.34 0.02 C6.51 0.18 9.51 0.6 12.62 1.19 C11.3 1.52 9.99 1.85 8.62 2.19 C8.87 3.35 8.87 3.35 9.12 4.54 C9.77 9.24 9.73 13.83 9.69 18.56 C9.68 19.49 9.68 20.42 9.67 21.37 C9.66 23.64 9.65 25.92 9.62 28.19 C10.28 28.52 10.95 28.85 11.62 29.19 C6.01 29.19 0.4 29.19 -5.38 29.19 C-4.72 28.2 -4.05 27.21 -3.38 26.19 C-3.69 22.55 -3.69 22.55 -4.38 19.19 C-7.35 18.2 -10.32 17.21 -13.38 16.19 C-13.38 14.87 -13.38 13.55 -13.38 12.19 C-11.92 11.85 -10.46 11.52 -9 11.19 C-7.78 10.91 -7.78 10.91 -6.54 10.62 C-4.38 10.19 -4.38 10.19 -2.38 10.19 C-3.03 7.88 -3.7 5.57 -4.38 3.19 C-7.35 2.69 -7.35 2.69 -10.38 2.19 C-6.87 0.03 -4.07 -0.05 0 0 Z " fill="#D098A6" transform="translate(710.375,340.8125)"/>
<path d="M0 0 C1.8 0.07 1.8 0.07 3.64 0.15 C5.51 0.23 5.51 0.23 7.42 0.32 C8.68 0.37 9.95 0.42 11.25 0.47 C14.37 0.6 17.49 0.74 20.61 0.88 C20.61 1.21 20.61 1.54 20.61 1.88 C15.66 1.88 10.71 1.88 5.61 1.88 C5.94 2.87 6.27 3.86 6.61 4.88 C6.73 7.45 6.8 9.99 6.79 12.57 C6.79 13.64 6.79 13.64 6.79 14.74 C6.74 19.79 6.2 24.1 4.61 28.88 C2.63 28.88 0.65 28.88 -1.39 28.88 C-1.72 28.22 -2.05 27.56 -2.39 26.88 C-1.92 26.1 -1.45 25.31 -0.96 24.5 C1.28 19.31 0.85 14.45 0.61 8.88 C-3.81 10.01 -5.49 12.01 -7.84 15.84 C-8.21 16.47 -8.58 17.1 -8.96 17.75 C-11.45 21.93 -13.74 25.58 -17.39 28.88 C-18.38 28.55 -19.37 28.22 -20.39 27.88 C-19.86 27.28 -19.32 26.68 -18.77 26.07 C-16.65 23.22 -15.09 20.51 -13.46 17.38 C-11.76 14.17 -10.28 11.45 -7.58 9 C-5.12 6.61 -4.68 5.25 -4.39 1.88 C-6.7 1.88 -9.01 1.88 -11.39 1.88 C-11.39 1.55 -11.39 1.22 -11.39 0.88 C-7.49 -0.06 -4.01 -0.17 0 0 Z " fill="#D098A6" transform="translate(661.39453125,341.12109375)"/>
<path d="M0 0 C1.93 0.02 1.93 0.02 3.9 0.04 C5.19 0.04 6.48 0.05 7.81 0.06 C8.81 0.07 9.81 0.09 10.84 0.1 C12.43 4.87 11.14 9.32 9.84 14.1 C8.69 16.4 7.47 18.09 5.84 20.1 C3.2 19.73 2.06 19.33 0.2 17.36 C-1.81 14.02 -1.25 11.32 -0.97 7.54 C-1.2 4.55 -2.2 3.3 -4.16 1.1 C-3.16 0.1 -3.16 0.1 0 0 Z " fill="#D098A5" transform="translate(629.16015625,340.90234375)"/>
<path d="M0 0 C0.66 0.66 1.32 1.32 2 2 C1.83 3.95 1.83 3.95 1.25 6.25 C1.05 7.05 0.85 7.85 0.65 8.67 C-0.13 11.48 -1.01 14.25 -2 17 C-1.24 17.27 -0.47 17.54 0.31 17.81 C4.42 19.63 4.42 19.63 6 22 C5.69 24.69 5.69 24.69 5 27 C3.02 27.33 1.04 27.66 -1 28 C-0.01 27.67 0.98 27.34 2 27 C0.84 22.57 0.84 22.57 -2.12 19.21 C-4 17 -4 17 -3.95 13.84 C-3.72 12.69 -3.49 11.55 -3.25 10.38 C-3.03 9.23 -2.81 8.08 -2.58 6.9 C-2.39 5.94 -2.2 4.99 -2 4 C-2 3.34 -2 2.68 -2 2 C-7.94 1.01 -7.94 1.01 -14 0 C-14 -0.33 -14 -0.66 -14 -1 C-9.17 -2.56 -4.71 -1.58 0 0 Z " fill="#D198A3" transform="translate(766,343)"/>
<path d="M0 0 C1.32 0.66 2.64 1.32 4 2 C4 4.97 4 7.94 4 11 C0 12 0 12 -1.92 10.86 C-2.53 10.31 -3.13 9.75 -3.75 9.19 C-4.36 8.64 -4.98 8.1 -5.61 7.54 C-7 6 -7 6 -7 4 C-1.92 0.68 -1.92 0.68 0 0 Z " fill="#F6F1F5" transform="translate(712,349)"/>
<path d="M0 0 C2 0.75 2 0.75 4 3.75 C4.12 6.44 4.12 6.44 4 8.75 C-1.42 9.12 -1.42 9.12 -4.38 7.25 C-4.91 6.75 -5.45 6.26 -6 5.75 C-3.77 -0.47 -3.77 -0.47 0 0 Z " fill="#F6F1F5" transform="translate(602,274.25)"/>
<path d="M0 0 C3 1 3 1 4.31 3.38 C6.4 6.63 8.49 7.52 12 9 C12 9.33 12 9.66 12 10 C7.05 9.67 2.1 9.34 -3 9 C-2 2 -2 2 0 0 Z " fill="#D098A6" transform="translate(741,360)"/>
<path d="M0 0 C13.63 -0.37 13.63 -0.37 20 2 C20 2.33 20 2.66 20 3 C13.07 3 6.14 3 -1 3 C-0.67 2.01 -0.34 1.02 0 0 Z " fill="#D098A6" transform="translate(527,382)"/>
<path d="M0 0 C0.99 0 1.98 0 3 0 C3 2.31 3 4.62 3 7 C6.3 7.33 9.6 7.66 13 8 C13 8.33 13 8.66 13 9 C7.56 9.22 3.13 9.1 -2 7 C-1.12 1.12 -1.12 1.12 0 0 Z " fill="#D098A6" transform="translate(501,359)"/>
<path d="M0 0 C2.84 1.1 5.5 2.25 8 4 C9 7.25 9 7.25 9 10 C6 12 6 12 3.81 11.62 C3.21 11.42 2.62 11.21 2 11 C2.99 11 3.98 11 5 11 C3.73 6.18 3.73 6.18 0 3 C0 2.01 0 1.02 0 0 Z " fill="#D098A6" transform="translate(763,359)"/>
<path d="M0 0 C1.62 -0.03 3.25 -0.05 4.88 -0.06 C5.78 -0.07 6.68 -0.09 7.62 -0.1 C10 0 10 0 12 1 C12 1.66 12 2.32 12 3 C7.05 3 2.1 3 -3 3 C-2.01 2.67 -1.02 2.34 0 2 C0 1.34 0 0.68 0 0 Z " fill="#446F4B" transform="translate(545,332)"/>
<path d="M0 0 C0.66 0 1.32 0 2 0 C1.98 0.95 1.96 1.9 1.94 2.88 C1.91 6.86 2.42 10.73 2.98 14.67 C3 17.33 2.36 18.74 1 21 C0.94 20.14 0.88 19.29 0.82 18.4 C0.31 11.05 0.31 11.05 -0.62 3.75 C-0.75 2.84 -0.87 1.94 -1 1 C-0.67 0.67 -0.34 0.34 0 0 Z " fill="#1B311E" transform="translate(774,298)"/>
<path d="M0 0 C7.92 0 15.84 0 24 0 C24 0.33 24 0.66 24 1 C16.08 1 8.16 1 0 1 C0 0.67 0 0.34 0 0 Z " fill="#D098A6" transform="translate(564,379)"/>
<path d="M0 0 C6.93 0 13.86 0 21 0 C21 0.33 21 0.66 21 1 C14.07 1 7.14 1 0 1 C0 0.67 0 0.34 0 0 Z " fill="#D098A6" transform="translate(674,379)"/>
<path d="M0 0 C3.63 0 7.26 0 11 0 C11 0.33 11 0.66 11 1 C7.37 1 3.74 1 0 1 C0 0.67 0 0.34 0 0 Z " fill="#446F4B" transform="translate(641,379)"/>
<path d="M0 0 C0.33 1.32 0.66 2.64 1 4 C0.01 4.33 -0.98 4.66 -2 5 C-1.12 1.12 -1.12 1.12 0 0 Z " fill="#446F4B" transform="translate(777,273)"/>
<path d="M0 0 C0.66 0.33 1.32 0.66 2 1 C0.68 1.99 -0.64 2.98 -2 4 C-2.66 3.67 -3.32 3.34 -4 3 C-2.68 2.01 -1.36 1.02 0 0 Z " fill="#132415" transform="translate(769,325)"/>
<path d="M0 0 C0.99 1.49 0.99 1.49 2 3 C1.67 3.99 1.34 4.98 1 6 C0.67 4.02 0.34 2.04 0 0 Z " fill="#1A2E1C" transform="translate(787,360)"/>
<path d="M0 0 C1.98 0 3.96 0 6 0 C6 0.33 6 0.66 6 1 C4.02 1 2.04 1 0 1 C0 0.67 0 0.34 0 0 Z " fill="#D098A6" transform="translate(727,379)"/>
<path d="M0 0 C1.98 0.5 1.98 0.5 4 1 C2.35 1.33 0.7 1.66 -1 2 C-0.67 1.34 -0.34 0.68 0 0 Z " fill="#1B301E" transform="translate(780,377)"/>
<path d="M0 0 C0.33 0 0.66 0 1 0 C1 1.98 1 3.96 1 6 C0.67 6 0.34 6 0 6 C0 4.02 0 2.04 0 0 Z " fill="#446F4B" transform="translate(779,264)"/>
<path d="M0 0 C3 1 3 1 3 1 Z " fill="#446F4B" transform="translate(521,384)"/>
<path d="M0 0 C3 1 3 1 3 1 Z " fill="#446F4B" transform="translate(552,382)"/>
<path d="M0 0 C3 1 3 1 3 1 Z " fill="#D098A6" transform="translate(744,379)"/>
<path d="" fill="#335639" transform="translate(0,0)"/>
<path d="" fill="#132415" transform="translate(0,0)"/>
<path d="M0 0 C2 1 2 1 2 1 Z " fill="#F6F1F5" transform="translate(490,349)"/>
<path d="" fill="#2B4930" transform="translate(0,0)"/>
<path d="" fill="#446F4B" transform="translate(0,0)"/>
<path d="" fill="#446F4B" transform="translate(0,0)"/>
<path d="" fill="#446F4B" transform="translate(0,0)"/>
<path d="" fill="#132415" transform="translate(0,0)"/>
<path d="" fill="#446F4B" transform="translate(0,0)"/>
<path d="" fill="#446F4B" transform="translate(0,0)"/>
<path d="" fill="#F6F1F5" transform="translate(0,0)"/>
<path d="" fill="#446F4B" transform="translate(0,0)"/>
<path d="" fill="#F6F1F5" transform="translate(0,0)"/>
<path d="" fill="#F6F1F5" transform="translate(0,0)"/>
<path d="" fill="#446F4B" transform="translate(0,0)"/>
</svg>
