<?xml version="1.0" encoding="UTF-8"?>
<!-- Generator: visioncortex VTracer 0.6.3 -->
<svg version="1.1" xmlns="http://www.w3.org/2000/svg" width="1280" height="640">
<path d="M0 0 C0.79 -0.01 1.58 -0.02 2.39 -0.02 C7.22 -0.01 11.51 0.61 16.19 1.76 C21.17 2.82 26.32 2.98 31.39 3.29 C36.78 3.72 39.38 4.54 43.5 8.25 C48.64 9.65 53.78 9.95 58.5 7.25 C59.48 6.52 59.48 6.52 60.47 5.77 C64.87 3.56 69.28 3.21 74.12 2.62 C76.01 2.39 77.9 2.14 79.79 1.9 C81.04 1.75 81.04 1.75 82.31 1.59 C84.67 1.29 84.67 1.29 87.5 0.25 C99.88 -0.58 112.34 -0.41 124.41 2.54 C127.29 3.2 129.93 3.48 132.88 3.62 C137.43 3.99 140.5 5.62 144.35 8 C146.4 9.19 148.24 9.88 150.5 10.56 C158.41 13.39 163.78 19.81 167.55 27.07 C168.5 29.25 168.5 29.25 169.08 31.27 C169.63 33.43 169.63 33.43 171.5 36.25 C175.07 37.77 178.71 38.49 182.5 39.25 C184.51 39.89 186.51 40.56 188.5 41.25 C189.22 41.45 189.94 41.65 190.68 41.86 C195.88 43.39 198.9 45 202.5 49.25 C203.16 49.91 203.82 50.57 204.5 51.25 C206.28 54.69 207.5 57.29 207.5 61.19 C205.01 68.8 200.47 74.68 193.26 78.41 C190.39 79.72 187.61 80.98 184.54 81.73 C182.43 82.21 182.43 82.21 180.25 83.22 C176.74 84.54 173.18 85.14 169.5 85.75 C168.75 85.88 168 86 167.22 86.13 C165.7 86.39 164.17 86.64 162.65 86.89 C160.75 87.21 158.85 87.55 156.95 87.89 C150.26 89.04 143.88 89.41 137.08 89.22 C134.51 89.06 134.51 89.06 132.5 90.25 C131.15 90.44 129.8 90.59 128.44 90.71 C127.24 90.83 127.24 90.83 126.02 90.95 C124.34 91.11 122.66 91.26 120.98 91.41 C120.18 91.49 119.38 91.57 118.56 91.65 C117.83 91.72 117.1 91.79 116.35 91.86 C114.26 92.13 114.26 92.13 112.5 94.25 C110.18 94.65 107.84 94.99 105.5 95.25 C105.5 95.91 105.5 96.57 105.5 97.25 C104.73 97.52 103.96 97.78 103.16 98.05 C102.16 98.41 101.16 98.76 100.12 99.12 C99.13 99.47 98.13 99.82 97.1 100.18 C94.4 101.1 94.4 101.1 92.5 103.25 C90.65 103.96 90.65 103.96 88.44 104.62 C85.14 105.67 82.02 106.86 78.88 108.31 C76.13 109.58 73.69 110.48 70.75 111.31 C67.53 112.07 67.53 112.07 65.19 113.75 C56.24 118.74 44.27 118.45 34.67 115.81 C31.93 115.01 29.21 114.15 26.5 113.25 C26.5 112.59 26.5 111.93 26.5 111.25 C25.76 111.12 25.03 110.98 24.27 110.85 C22.81 110.58 22.81 110.58 21.31 110.31 C20.35 110.14 19.39 109.96 18.39 109.79 C15.76 109.3 13.13 108.78 10.5 108.25 C10.5 108.91 10.5 109.57 10.5 110.25 C9.88 110.33 9.26 110.42 8.62 110.5 C7.92 110.75 7.22 111 6.5 111.25 C6.21 111.87 5.92 112.49 5.62 113.12 C3.98 116.23 1.65 116.8 -1.5 118.25 C-2.45 118.93 -3.4 119.61 -4.38 120.31 C-15.7 127.34 -32.55 124.5 -44.95 121.7 C-49.49 120.54 -53.98 119.21 -58.46 117.85 C-63.23 116.45 -68.07 115.31 -72.94 114.31 C-76.78 113.47 -80.45 112.33 -84.17 111.04 C-86.68 110.19 -89.2 109.47 -91.75 108.75 C-95.4 107.68 -98.27 106.28 -101.5 104.25 C-104.19 103.54 -104.19 103.54 -106.5 103.25 C-106.5 102.59 -106.5 101.93 -106.5 101.25 C-107.26 101.31 -108.03 101.37 -108.81 101.44 C-112.08 101.21 -112.3 100.5 -114.5 98.25 C-116.26 97.26 -116.26 97.26 -118.19 96.44 C-127.62 91.79 -133.4 86.16 -137.5 76.25 C-138.73 71.06 -138.49 67.19 -136.05 62.41 C-133.26 58.2 -131.1 55.39 -126.5 53.25 C-126.04 52.75 -125.59 52.26 -125.12 51.75 C-122.85 49.64 -120.52 49.13 -117.56 48.25 C-113.31 47.04 -113.31 47.04 -109.62 44.72 C-107.12 42.99 -105.65 42.79 -102.64 42.6 C-101.67 42.53 -100.7 42.47 -99.7 42.4 C-98.64 42.35 -97.59 42.3 -96.5 42.25 C-95.37 42.2 -94.24 42.14 -93.08 42.09 C-89.49 41.93 -85.9 41.81 -82.31 41.69 C-81.07 41.64 -79.84 41.6 -78.56 41.56 C-75.54 41.45 -72.52 41.35 -69.5 41.25 C-69.17 35.97 -68.84 30.69 -68.5 25.25 C-66.85 24.92 -65.2 24.59 -63.5 24.25 C-62.83 22.59 -62.16 20.92 -61.5 19.25 C-59.52 17.89 -57.52 16.55 -55.5 15.25 C-55.22 14.58 -54.94 13.92 -54.65 13.23 C-53.5 11.25 -53.5 11.25 -51.04 10.27 C-50.08 10.06 -49.12 9.85 -48.12 9.62 C-44.66 8.83 -41.56 8.11 -38.5 6.25 C-38.17 5.59 -37.84 4.93 -37.5 4.25 C-34.49 3.82 -31.53 3.5 -28.5 3.25 C-23.57 2.83 -18.78 2.38 -13.97 1.2 C-9.28 0.09 -4.8 -0.05 0 0 Z " fill="#F2BEC6" transform="translate(604.5,256.75)"/>
<path d="M0 0 C4 1 4 1 4 1 Z " fill="#446F4B" transform="translate(739,346)"/>
<path d="M0 0 C4 1 4 1 4 1 Z " fill="#F3BFC7" transform="translate(702,255)"/>
<path d="M0 0 C2 1 2 1 2 1 Z " fill="#446F4B" transform="translate(532,371)"/>
<path d="M0 0 C2 1 2 1 2 1 Z " fill="#446F4B" transform="translate(785,339)"/>
<path d="" fill="#F3BFC7" transform="translate(0,0)"/>
<path d="M0 0 C2 1 2 1 2 1 Z " fill="#F3BFC7" transform="translate(563,261)"/>
<path d="" fill="#446F4B" transform="translate(0,0)"/>
<path d="" fill="#446F4B" transform="translate(0,0)"/>
<path d="" fill="#446F4B" transform="translate(0,0)"/>
<path d="" fill="#446F4B" transform="translate(0,0)"/>
<path d="" fill="#F3BFC7" transform="translate(0,0)"/>
<path d="" fill="#F3BFC7" transform="translate(0,0)"/>
<path d="" fill="#F3BFC7" transform="translate(0,0)"/>
<path d="" fill="#F3BFC7" transform="translate(0,0)"/>
<path d="" fill="#F3BFC7" transform="translate(0,0)"/>
<path d="" fill="#F3BFC7" transform="translate(0,0)"/>
</svg>
