<?xml version="1.0" encoding="UTF-8"?>
<!-- Generator: visioncortex VTracer 0.6.3 -->
<svg version="1.1" xmlns="http://www.w3.org/2000/svg" width="1280" height="640">
<path d="M0 0 C4.82 0.94 9.73 1.18 14.62 1.51 C14.62 2.17 14.62 2.83 14.62 3.51 C15.31 3.61 15.99 3.72 16.69 3.82 C20.23 4.65 23.31 6.02 26.62 7.51 C27.82 8.01 29.02 8.5 30.25 9.01 C33.22 10.33 35.85 11.83 38.62 13.51 C39.47 13.82 40.32 14.13 41.19 14.45 C44.03 15.69 45.48 17.3 47.62 19.51 C48.83 20.22 48.83 20.22 50.06 20.95 C55.72 24.4 58.54 28.87 61.62 34.51 C62.28 35.17 62.94 35.83 63.62 36.51 C63.96 37.17 64.28 37.83 64.62 38.51 C66.35 38.4 68.08 38.27 69.81 38.14 C70.78 38.07 71.74 38 72.73 37.93 C75.65 37.51 77.9 36.61 80.62 35.51 C82.86 35.32 82.86 35.32 84.94 35.39 C86.15 35.43 87.37 35.47 88.62 35.51 C88.62 34.85 88.62 34.19 88.62 33.51 C98.86 33.12 107.65 34.07 117.62 36.51 C119.18 36.85 120.74 37.17 122.29 37.5 C123.09 37.66 123.9 37.83 124.72 38.01 C126.28 38.33 127.85 38.66 129.41 38.98 C133.88 39.94 137.58 41.29 141.62 43.51 C142.49 43.95 143.36 44.38 144.26 44.83 C151.62 48.51 151.62 48.51 153.68 49.66 C155.88 50.78 155.88 50.78 159.62 50.51 C160.29 51.5 160.94 52.49 161.62 53.51 C162.62 53.51 163.61 53.51 164.62 53.51 C165.97 55.17 167.31 56.83 168.62 58.51 C169.29 58.82 169.94 59.13 170.62 59.45 C173.72 61.1 174.85 63.52 176.62 66.51 C177 67.1 177.38 67.69 177.77 68.3 C181.74 75.12 181.34 81.81 179.88 89.39 C176.83 97 169.98 102.57 163.62 107.51 C162.96 107.51 162.31 107.51 161.62 107.51 C163.8 111.52 166.37 114.34 169.62 117.51 C176.83 126.03 180.52 133.29 179.62 144.51 C178.76 147.12 177.92 149.13 176.62 151.51 C176.18 152.34 175.73 153.17 175.27 154.03 C172.55 158.81 170.21 162.34 165.62 165.51 C163.08 168 160.61 170.53 158.19 173.14 C155.17 175.93 151.89 178.51 147.62 178.51 C147.3 179.5 146.96 180.49 146.62 181.51 C144.64 181.84 142.66 182.17 140.62 182.51 C140.62 183.17 140.62 183.83 140.62 184.51 C137.87 186.51 135.56 187.53 132.25 188.39 C129.03 189.39 127.67 190.09 125.12 192.07 C121.64 194.76 118.99 195.24 114.62 195.51 C114.62 196.17 114.62 196.83 114.62 197.51 C113.94 197.78 113.26 198.05 112.56 198.32 C109.23 199.67 105.92 201.07 102.62 202.51 C101.56 202.84 101.56 202.84 100.47 203.18 C98.27 204.45 98.27 204.45 97.97 207.63 C97.78 210.13 97.6 212.63 97.41 215.13 C96.62 218.51 96.62 218.51 94.26 220.87 C91.62 222.51 91.62 222.51 88.38 223.89 C85.38 225.28 85.38 225.28 84.5 228.39 C84.66 232.38 85.96 233.62 88.62 236.51 C91.05 240.17 90.92 243.58 90.94 247.89 C90.95 249.17 90.97 250.46 90.99 251.79 C90.61 255.7 89.6 258.14 87.62 261.51 C86.96 261.51 86.31 261.51 85.62 261.51 C85.42 262.3 85.21 263.08 85 263.89 C83.62 266.51 83.62 266.51 80.56 267.64 C79.59 267.93 78.62 268.21 77.62 268.51 C77.29 269.5 76.97 270.49 76.62 271.51 C66.09 276.68 51.77 277.88 40.62 274.51 C39.97 273.85 39.31 273.19 38.62 272.51 C35.7 271.16 33.87 270.51 30.62 270.51 C30.62 269.85 30.62 269.19 30.62 268.51 C28.64 268.18 26.66 267.85 24.62 267.51 C24.62 266.85 24.62 266.19 24.62 265.51 C23.33 265.54 23.33 265.54 22 265.57 C17.51 264.16 15.99 262.07 13.56 258.14 C12.14 254.14 13.11 251.44 14.56 247.58 C15.62 245.51 15.62 245.51 17.62 243.51 C17.62 240.16 17.12 238.5 15.62 235.51 C14.82 234.71 14.02 233.9 13.19 233.07 C10.49 230.37 9.2 227.96 7.62 224.51 C6.97 223.52 6.31 222.53 5.62 221.51 C5.29 220.32 4.97 219.12 4.62 217.89 C4.29 216.77 3.97 215.66 3.62 214.51 C2.97 214.18 2.31 213.85 1.62 213.51 C0.02 214.7 0.02 214.7 -1.38 216.51 C-1.63 219.14 -1.63 219.14 -1.38 221.51 C-0.72 221.51 -0.06 221.51 0.62 221.51 C2.39 232.07 2.39 232.07 -0.03 236.78 C-5.41 243.71 -12.27 247.6 -20.79 249.12 C-32.26 250.36 -44.14 251.21 -53.49 243.73 C-55.76 242.26 -57.88 241.69 -60.5 241.01 C-65.02 239.78 -67.51 238.37 -70.38 234.51 C-72.72 229.71 -72.76 224.67 -73.03 219.41 C-73.38 216.43 -74.03 214.19 -75.38 211.51 C-77.61 210.28 -77.61 210.28 -80.38 209.51 C-87.19 206.89 -87.19 206.89 -88.38 204.51 C-90.46 204.01 -90.46 204.01 -92.94 203.7 C-97.56 202.87 -100.59 201.4 -104.42 198.74 C-106.5 197.43 -108.48 196.67 -110.81 195.89 C-111.99 195.43 -113.16 194.98 -114.38 194.51 C-114.71 193.52 -115.03 192.53 -115.38 191.51 C-116.86 191.17 -116.86 191.17 -118.38 190.82 C-125.4 189.11 -131.41 182.29 -135.38 176.51 C-136.44 173.31 -136.77 170.5 -137.06 167.14 C-137.17 166.02 -137.28 164.89 -137.39 163.74 C-137.37 160.45 -136.81 158.44 -135.38 155.51 C-134.38 155.51 -133.39 155.51 -132.38 155.51 C-132 154.81 -131.63 154.11 -131.25 153.39 C-128.51 149.19 -124.6 147.09 -120.38 144.51 C-121.37 143.52 -121.37 143.52 -122.38 142.51 C-120.39 142.18 -118.41 141.85 -116.38 141.51 C-116.19 140.62 -116.19 140.62 -116.01 139.72 C-115.28 136.27 -114.59 133.03 -113.25 129.76 C-112.26 127.21 -112.22 125.23 -112.38 122.51 C-111.72 122.51 -111.05 122.51 -110.38 122.51 C-110.38 121.52 -110.38 120.53 -110.38 119.51 C-109.51 119.2 -109.51 119.2 -108.62 118.89 C-106.13 117.58 -106.13 117.58 -104.5 114.64 C-102.14 111.17 -99.9 109.71 -96.38 107.51 C-95.42 106.43 -95.42 106.43 -94.44 105.32 C-91.59 102.83 -89.07 102.8 -85.38 102.51 C-84.88 100.53 -84.88 100.53 -84.38 98.51 C-85.03 98.18 -85.69 97.85 -86.38 97.51 C-85.72 97.18 -85.06 96.85 -84.38 96.51 C-89.31 94.25 -94.18 92.11 -99.38 90.51 C-99.38 89.85 -99.38 89.19 -99.38 88.51 C-100.34 88.57 -101.31 88.64 -102.31 88.7 C-107.6 88.7 -113.07 87.26 -117.32 84.04 C-119.65 82.3 -121.91 81.36 -124.62 80.32 C-125.96 79.81 -125.96 79.81 -127.33 79.28 C-128 79.03 -128.68 78.77 -129.38 78.51 C-129.38 77.85 -129.38 77.19 -129.38 76.51 C-130.22 76.33 -131.06 76.15 -131.93 75.96 C-133.03 75.71 -134.12 75.46 -135.25 75.2 C-136.34 74.96 -137.43 74.71 -138.55 74.46 C-141.38 73.51 -141.38 73.51 -143.38 70.51 C-145.28 69.58 -147.18 68.64 -149.09 67.72 C-158.25 62.87 -165.07 55.44 -168.38 45.51 C-168.42 43.66 -168.41 41.8 -168.38 39.95 C-168.19 36.08 -168.19 36.08 -169.38 32.51 C-168.71 32.51 -168.06 32.51 -167.38 32.51 C-167.38 31.52 -167.38 30.53 -167.38 29.51 C-166.05 28.5 -164.71 27.51 -163.38 26.51 C-162.98 25.77 -162.59 25.03 -162.19 24.26 C-158.66 18.92 -153 15.31 -147.44 12.26 C-144.18 10.7 -144.18 10.7 -142.38 7.51 C-142.05 7.84 -141.71 8.17 -141.38 8.51 C-135.54 7.52 -129.71 6.19 -124.25 3.89 C-115.02 0.22 -103.73 1.3 -93.92 1.27 C-91.55 1.26 -89.18 1.23 -86.81 1.2 C-85.28 1.19 -83.76 1.19 -82.23 1.18 C-81.53 1.17 -80.83 1.16 -80.11 1.15 C-75.43 1.17 -72.42 2.24 -68.38 4.51 C-65.86 4.87 -65.86 4.87 -63.5 4.7 C-62.72 4.67 -61.94 4.65 -61.13 4.62 C-60.26 4.56 -60.26 4.56 -59.38 4.51 C-59.38 3.85 -59.38 3.19 -59.38 2.51 C-58.5 2.39 -57.63 2.27 -56.73 2.14 C-55.54 1.98 -54.35 1.81 -53.12 1.64 C-51.83 1.46 -50.53 1.28 -49.2 1.09 C-46.99 0.76 -44.8 0.39 -42.62 -0.07 C-29.11 -2.89 -13.49 -2.83 0 0 Z M-114.38 82.51 C-113.38 84.51 -113.38 84.51 -113.38 84.51 Z M-91.38 90.51 C-87.38 91.51 -87.38 91.51 -87.38 91.51 Z M43.62 270.51 C43.62 271.5 43.62 272.49 43.62 273.51 C44.28 272.52 44.94 271.53 45.62 270.51 C44.97 270.51 44.31 270.51 43.62 270.51 Z " fill="#DB4469" transform="translate(634.375,182.48828125)"/>
<path d="M0 0 C4.82 0.94 9.73 1.18 14.62 1.51 C14.62 2.17 14.62 2.83 14.62 3.51 C15.31 3.61 15.99 3.72 16.69 3.82 C20.23 4.65 23.31 6.02 26.62 7.51 C27.82 8.01 29.02 8.5 30.25 9.01 C33.22 10.33 35.85 11.83 38.62 13.51 C39.47 13.82 40.32 14.13 41.19 14.45 C44.03 15.69 45.48 17.3 47.62 19.51 C48.83 20.22 48.83 20.22 50.06 20.95 C55.72 24.4 58.54 28.87 61.62 34.51 C62.28 35.17 62.94 35.83 63.62 36.51 C63.96 37.17 64.28 37.83 64.62 38.51 C66.35 38.4 68.08 38.27 69.81 38.14 C70.78 38.07 71.74 38 72.73 37.93 C75.65 37.51 77.9 36.61 80.62 35.51 C82.86 35.32 82.86 35.32 84.94 35.39 C86.15 35.43 87.37 35.47 88.62 35.51 C88.62 34.85 88.62 34.19 88.62 33.51 C98.86 33.12 107.65 34.07 117.62 36.51 C119.18 36.85 120.74 37.17 122.29 37.5 C123.09 37.66 123.9 37.83 124.72 38.01 C126.28 38.33 127.85 38.66 129.41 38.98 C133.88 39.94 137.58 41.29 141.62 43.51 C142.49 43.95 143.36 44.38 144.26 44.83 C151.62 48.51 151.62 48.51 153.68 49.66 C155.88 50.78 155.88 50.78 159.62 50.51 C160.29 51.5 160.94 52.49 161.62 53.51 C162.62 53.51 163.61 53.51 164.62 53.51 C165.97 55.17 167.31 56.83 168.62 58.51 C169.29 58.82 169.94 59.13 170.62 59.45 C173.72 61.1 174.85 63.52 176.62 66.51 C177 67.1 177.38 67.69 177.77 68.3 C181.74 75.12 181.34 81.81 179.88 89.39 C176.83 97 169.98 102.57 163.62 107.51 C162.96 107.51 162.31 107.51 161.62 107.51 C163.8 111.52 166.37 114.34 169.62 117.51 C176.83 126.03 180.52 133.29 179.62 144.51 C178.76 147.12 177.92 149.13 176.62 151.51 C176.18 152.34 175.73 153.17 175.27 154.03 C172.55 158.81 170.21 162.34 165.62 165.51 C163.08 168 160.61 170.53 158.19 173.14 C155.17 175.93 151.89 178.51 147.62 178.51 C147.3 179.5 146.96 180.49 146.62 181.51 C144.64 181.84 142.66 182.17 140.62 182.51 C140.62 183.17 140.62 183.83 140.62 184.51 C137.87 186.51 135.56 187.53 132.25 188.39 C129.03 189.39 127.67 190.09 125.12 192.07 C121.64 194.76 118.99 195.24 114.62 195.51 C114.62 196.17 114.62 196.83 114.62 197.51 C113.94 197.78 113.26 198.05 112.56 198.32 C109.23 199.67 105.92 201.07 102.62 202.51 C101.56 202.84 101.56 202.84 100.47 203.18 C98.27 204.45 98.27 204.45 97.97 207.63 C97.78 210.13 97.6 212.63 97.41 215.13 C96.62 218.51 96.62 218.51 94.26 220.87 C91.62 222.51 91.62 222.51 88.38 223.89 C85.38 225.28 85.38 225.28 84.5 228.39 C84.66 232.38 85.96 233.62 88.62 236.51 C91.05 240.17 90.92 243.58 90.94 247.89 C90.95 249.17 90.97 250.46 90.99 251.79 C90.61 255.7 89.6 258.14 87.62 261.51 C86.96 261.51 86.31 261.51 85.62 261.51 C85.42 262.3 85.21 263.08 85 263.89 C83.62 266.51 83.62 266.51 80.56 267.64 C79.59 267.93 78.62 268.21 77.62 268.51 C77.29 269.5 76.97 270.49 76.62 271.51 C66.09 276.68 51.77 277.88 40.62 274.51 C39.97 273.85 39.31 273.19 38.62 272.51 C35.7 271.16 33.87 270.51 30.62 270.51 C30.62 269.85 30.62 269.19 30.62 268.51 C28.64 268.18 26.66 267.85 24.62 267.51 C24.62 266.85 24.62 266.19 24.62 265.51 C23.33 265.54 23.33 265.54 22 265.57 C17.51 264.16 15.99 262.07 13.56 258.14 C12.14 254.14 13.11 251.44 14.56 247.58 C15.62 245.51 15.62 245.51 17.62 243.51 C17.62 240.16 17.12 238.5 15.62 235.51 C14.82 234.71 14.02 233.9 13.19 233.07 C10.49 230.37 9.2 227.96 7.62 224.51 C6.97 223.52 6.31 222.53 5.62 221.51 C5.29 220.32 4.97 219.12 4.62 217.89 C4.29 216.77 3.97 215.66 3.62 214.51 C2.97 214.18 2.31 213.85 1.62 213.51 C0.02 214.7 0.02 214.7 -1.38 216.51 C-1.63 219.14 -1.63 219.14 -1.38 221.51 C-0.72 221.51 -0.06 221.51 0.62 221.51 C2.39 232.07 2.39 232.07 -0.03 236.78 C-5.41 243.71 -12.27 247.6 -20.79 249.12 C-32.26 250.36 -44.14 251.21 -53.49 243.73 C-55.76 242.26 -57.88 241.69 -60.5 241.01 C-65.02 239.78 -67.51 238.37 -70.38 234.51 C-72.72 229.71 -72.76 224.67 -73.03 219.41 C-73.38 216.43 -74.03 214.19 -75.38 211.51 C-77.61 210.28 -77.61 210.28 -80.38 209.51 C-87.19 206.89 -87.19 206.89 -88.38 204.51 C-90.46 204.01 -90.46 204.01 -92.94 203.7 C-97.56 202.87 -100.59 201.4 -104.42 198.74 C-106.5 197.43 -108.48 196.67 -110.81 195.89 C-111.99 195.43 -113.16 194.98 -114.38 194.51 C-114.71 193.52 -115.03 192.53 -115.38 191.51 C-116.86 191.17 -116.86 191.17 -118.38 190.82 C-125.4 189.11 -131.41 182.29 -135.38 176.51 C-136.44 173.31 -136.77 170.5 -137.06 167.14 C-137.17 166.02 -137.28 164.89 -137.39 163.74 C-137.37 160.45 -136.81 158.44 -135.38 155.51 C-134.38 155.51 -133.39 155.51 -132.38 155.51 C-132 154.81 -131.63 154.11 -131.25 153.39 C-128.51 149.19 -124.6 147.09 -120.38 144.51 C-121.37 143.52 -121.37 143.52 -122.38 142.51 C-120.39 142.18 -118.41 141.85 -116.38 141.51 C-116.19 140.62 -116.19 140.62 -116.01 139.72 C-115.28 136.27 -114.59 133.03 -113.25 129.76 C-112.26 127.21 -112.22 125.23 -112.38 122.51 C-111.72 122.51 -111.05 122.51 -110.38 122.51 C-110.38 121.52 -110.38 120.53 -110.38 119.51 C-109.51 119.2 -109.51 119.2 -108.62 118.89 C-106.13 117.58 -106.13 117.58 -104.5 114.64 C-102.14 111.17 -99.9 109.71 -96.38 107.51 C-95.42 106.43 -95.42 106.43 -94.44 105.32 C-91.59 102.83 -89.07 102.8 -85.38 102.51 C-84.88 100.53 -84.88 100.53 -84.38 98.51 C-85.03 98.18 -85.69 97.85 -86.38 97.51 C-85.72 97.18 -85.06 96.85 -84.38 96.51 C-89.31 94.25 -94.18 92.11 -99.38 90.51 C-99.38 89.85 -99.38 89.19 -99.38 88.51 C-100.34 88.57 -101.31 88.64 -102.31 88.7 C-107.6 88.7 -113.07 87.26 -117.32 84.04 C-119.65 82.3 -121.91 81.36 -124.62 80.32 C-125.96 79.81 -125.96 79.81 -127.33 79.28 C-128 79.03 -128.68 78.77 -129.38 78.51 C-129.38 77.85 -129.38 77.19 -129.38 76.51 C-130.22 76.33 -131.06 76.15 -131.93 75.96 C-133.03 75.71 -134.12 75.46 -135.25 75.2 C-136.34 74.96 -137.43 74.71 -138.55 74.46 C-141.38 73.51 -141.38 73.51 -143.38 70.51 C-145.28 69.58 -147.18 68.64 -149.09 67.72 C-158.25 62.87 -165.07 55.44 -168.38 45.51 C-168.42 43.66 -168.41 41.8 -168.38 39.95 C-168.19 36.08 -168.19 36.08 -169.38 32.51 C-168.71 32.51 -168.06 32.51 -167.38 32.51 C-167.38 31.52 -167.38 30.53 -167.38 29.51 C-166.05 28.5 -164.71 27.51 -163.38 26.51 C-162.98 25.77 -162.59 25.03 -162.19 24.26 C-158.66 18.92 -153 15.31 -147.44 12.26 C-144.18 10.7 -144.18 10.7 -142.38 7.51 C-142.05 7.84 -141.71 8.17 -141.38 8.51 C-135.54 7.52 -129.71 6.19 -124.25 3.89 C-115.02 0.22 -103.73 1.3 -93.92 1.27 C-91.55 1.26 -89.18 1.23 -86.81 1.2 C-85.28 1.19 -83.76 1.19 -82.23 1.18 C-81.53 1.17 -80.83 1.16 -80.11 1.15 C-75.43 1.17 -72.42 2.24 -68.38 4.51 C-65.86 4.87 -65.86 4.87 -63.5 4.7 C-62.72 4.67 -61.94 4.65 -61.13 4.62 C-60.26 4.56 -60.26 4.56 -59.38 4.51 C-59.38 3.85 -59.38 3.19 -59.38 2.51 C-58.5 2.39 -57.63 2.27 -56.73 2.14 C-55.54 1.98 -54.35 1.81 -53.12 1.64 C-51.83 1.46 -50.53 1.28 -49.2 1.09 C-46.99 0.76 -44.8 0.39 -42.62 -0.07 C-29.11 -2.89 -13.49 -2.83 0 0 Z M-60.38 23.51 C-61.09 23.22 -61.81 22.93 -62.54 22.64 C-65.25 21.56 -67.96 20.52 -70.69 19.51 C-72.01 19.02 -72.01 19.02 -73.36 18.51 C-81.04 15.96 -87.74 15.12 -95.81 15.14 C-97.39 15.14 -97.39 15.14 -99 15.14 C-113.44 15.37 -128.76 17.9 -139.38 28.51 C-142.55 32.71 -144.82 36.7 -144.69 42.07 C-143.4 48.85 -138.09 52.57 -132.75 56.39 C-130.01 58.2 -127.22 59.88 -124.38 61.51 C-123.61 61.95 -122.84 62.39 -122.05 62.85 C-114.87 66.68 -107.19 69.2 -99.5 71.79 C-97.56 72.45 -95.62 73.12 -93.68 73.79 C-85.37 76.64 -76.98 79.11 -68.52 81.46 C-61.84 83.32 -56.78 85.05 -51.38 89.51 C-47.55 92.26 -45.09 93.01 -40.38 92.51 C-38.07 91.61 -38.07 91.61 -36.38 90.51 C-36.38 89.52 -36.38 88.53 -36.38 87.51 C-37.03 87.51 -37.69 87.51 -38.38 87.51 C-38.38 86.85 -38.38 86.19 -38.38 85.51 C-39.18 85.39 -39.98 85.26 -40.81 85.14 C-41.66 84.93 -42.5 84.72 -43.38 84.51 C-43.71 83.85 -44.03 83.19 -44.38 82.51 C-42.24 81.8 -40.1 81.09 -37.96 80.38 C-36.27 79.81 -34.57 79.23 -32.88 78.64 C-32.09 78.37 -31.31 78.1 -30.5 77.82 C-29.78 77.57 -29.06 77.32 -28.32 77.06 C-26.38 76.51 -26.38 76.51 -23.38 76.51 C-23.2 77.1 -23.03 77.7 -22.86 78.3 C-20.2 86.99 -16.54 90.7 -8.81 95.38 C-6.22 96.79 -6.22 96.79 -2.38 96.51 C-2.38 97.17 -2.38 97.83 -2.38 98.51 C10.58 105.45 10.58 105.45 24.62 108.51 C24.62 109.17 24.62 109.83 24.62 110.51 C25.28 110.51 25.94 110.51 26.62 110.51 C26.29 112.16 25.97 113.81 25.62 115.51 C20.69 116.11 18.64 114.95 14.81 111.95 C8.29 107.65 0.36 105.22 -7.38 104.51 C-7.71 104.18 -8.03 103.85 -8.38 103.51 C-11.13 103.39 -13.86 103.32 -16.62 103.31 C-17.46 103.3 -18.29 103.3 -19.16 103.29 C-20.94 103.28 -22.72 103.28 -24.51 103.27 C-27.2 103.26 -29.9 103.23 -32.59 103.2 C-41.66 103.14 -49.74 103.41 -58.38 106.51 C-59.87 106.93 -61.37 107.35 -62.88 107.76 C-72.62 111.13 -82.52 117.93 -87.79 126.93 C-90.96 133.89 -90.79 139.44 -88.31 146.57 C-88 147.21 -87.69 147.85 -87.38 148.51 C-89.08 149.13 -89.08 149.13 -90.81 149.76 C-102.84 153.79 -102.84 153.79 -111.38 162.51 C-111.86 167.04 -112.04 171.11 -110.06 175.26 C-96.5 186.61 -69.07 197.51 -51.38 197.51 C-51.38 198.17 -51.38 198.83 -51.38 199.51 C-45.46 201.55 -40.7 198.65 -35.44 196.08 C-33.36 195.04 -31.29 193.99 -29.21 192.93 C-25.98 191.31 -22.71 189.9 -19.38 188.51 C-18.69 188.12 -18.01 187.73 -17.31 187.32 C-11.2 184.76 -4.96 187.76 0.88 189.82 C2.67 190.45 4.47 191.07 6.27 191.69 C7.15 191.99 8.04 192.3 8.95 192.61 C12.39 193.77 15.85 194.81 19.33 195.83 C23.13 196.96 26.87 198.24 30.62 199.51 C31.62 199.84 32.61 200.17 33.62 200.51 C34.81 202.57 34.81 202.57 35.62 204.51 C36.28 204.51 36.94 204.51 37.62 204.51 C38.03 205.69 38.03 205.69 38.44 206.89 C39.47 209.79 39.47 209.79 42.62 211.51 C47.46 212.32 50.69 210.01 54.62 207.51 C55.59 206.93 56.56 206.36 57.56 205.76 C58.58 205.14 58.58 205.14 59.62 204.51 C55.77 200.66 52.84 200 47.61 199.69 C45.62 199.51 45.62 199.51 43.62 198.51 C46.36 195.77 49.61 194.91 53.19 193.64 C60.81 190.84 68.15 187.79 75.38 184.07 C79.04 182.21 82.7 180.72 86.56 179.32 C92.55 177.08 98.2 174.33 103.88 171.39 C104.72 170.95 105.57 170.52 106.44 170.08 C107.23 169.66 108.02 169.25 108.83 168.82 C109.54 168.44 110.24 168.07 110.97 167.69 C112.95 166.53 112.95 166.53 113.62 163.51 C114.72 163.37 114.72 163.37 115.83 163.22 C119.03 162.41 120.75 161.2 123.31 159.14 C124.08 158.53 124.85 157.93 125.64 157.3 C127.82 155.48 127.82 155.48 129.62 152.51 C130.77 151.92 130.77 151.92 131.94 151.32 C136.45 148.28 138.93 143.61 140.62 138.51 C141.55 130.47 140.31 125.08 135.62 118.51 C135.2 117.88 134.78 117.26 134.34 116.61 C129.66 110.39 122.18 105.77 114.44 104.64 C113.51 104.6 112.58 104.55 111.62 104.51 C112.96 101.84 114.3 101.61 117 100.39 C123.08 97.44 128.28 93.62 133.62 89.51 C134.59 88.81 134.59 88.81 135.58 88.1 C139.31 85.29 140.78 83.1 141.62 78.51 C142.46 71.43 142.46 71.43 139.88 65.14 C138.76 64.33 138.76 64.33 137.62 63.51 C136.76 62.31 136.76 62.31 135.88 61.07 C128.14 52.26 115.2 49.11 103.89 48.32 C90.72 48.05 78.44 49.58 66.81 56.07 C66.06 56.49 65.31 56.9 64.54 57.33 C62.49 58.49 62.49 58.49 60.62 60.51 C56.55 61.21 54.16 59.91 50.76 57.68 C44.19 54.09 37.98 52.94 30.62 52.32 C29.75 52.24 28.88 52.16 27.99 52.08 C25.87 51.88 23.75 51.69 21.62 51.51 C22.12 47.78 22.5 45.7 24.62 42.51 C25.74 36.08 24.29 29.89 20.62 24.51 C16.18 20.15 11.94 18.17 6.06 16.26 C5.32 16.01 4.58 15.75 3.81 15.49 C-15.82 8.84 -44.12 9.29 -60.38 23.51 Z M-114.38 82.51 C-113.38 84.51 -113.38 84.51 -113.38 84.51 Z M-91.38 90.51 C-87.38 91.51 -87.38 91.51 -87.38 91.51 Z M43.62 270.51 C43.62 271.5 43.62 272.49 43.62 273.51 C44.28 272.52 44.94 271.53 45.62 270.51 C44.97 270.51 44.31 270.51 43.62 270.51 Z " fill="#FAFAFB" transform="translate(634.375,182.48828125)"/>
<path d="M0 0 C1.65 -0.02 1.65 -0.02 3.33 -0.05 C15.18 -0.06 28.74 2.35 38.56 9.5 C42.94 14.19 45.32 19.37 45.81 25.81 C45.48 31.39 43.17 35.47 39.19 39.31 C34.16 42.32 28.63 43.88 23.06 45.58 C22.36 45.8 21.65 46.01 20.93 46.24 C19.55 46.65 18.18 47.05 16.8 47.44 C11.59 48.95 6.81 50.8 3.78 55.5 C3.42 56.24 3.06 56.98 2.69 57.75 C-1.33 64.2 -7.85 65.33 -14.81 67.31 C-16.61 67.91 -18.4 68.51 -20.19 69.12 C-21.38 69.52 -22.58 69.91 -23.81 70.31 C-22.5 71.87 -22.5 71.87 -20.81 73.31 C-19.82 73.31 -18.83 73.31 -17.81 73.31 C-17.81 73.97 -17.81 74.63 -17.81 75.31 C-17.15 75.31 -16.49 75.31 -15.81 75.31 C-15.81 76.3 -15.81 77.29 -15.81 78.31 C-19.29 80.45 -21.77 80.92 -25.81 80.31 C-28.18 78.98 -30.36 77.51 -32.57 75.92 C-36.67 72.98 -40.17 71.02 -45.12 69.94 C-108.71 54.91 -108.71 54.91 -122.81 33.31 C-124.33 28.19 -124.23 25.45 -121.81 20.69 C-115.52 10.77 -106.72 7.54 -95.54 4.74 C-79.17 1.11 -58.76 1.04 -44.01 10.02 C-41.86 11.62 -41.86 11.62 -39.31 10.75 C-36.75 9.39 -36.75 9.39 -34.62 7.38 C-30.67 4.47 -26.53 3.47 -21.81 2.31 C-20.88 2.06 -20.88 2.06 -19.93 1.79 C-13.29 0.1 -6.83 -0.02 0 0 Z " fill="#C2497F" transform="translate(613.8125,194.6875)"/>
<path d="M0 0 C0.87 1.89 0.87 1.89 1.44 4.25 C3.51 11.22 8.1 14.27 14.04 17.98 C16.02 19.01 17.82 19.55 20 20 C20 20.66 20 21.32 20 22 C21.2 22.38 21.2 22.38 22.43 22.78 C26.73 24.25 30.95 25.9 35.19 27.56 C36.78 28.19 38.38 28.82 39.98 29.44 C40.68 29.72 41.38 29.99 42.1 30.28 C43.72 30.89 45.36 31.45 47 32 C47 32.66 47 33.32 47 34 C47.66 34 48.32 34 49 34 C49.33 35.65 49.66 37.3 50 39 C46.02 39.83 42.89 40.33 39 39 C38.13 38.07 38.13 38.07 37.25 37.12 C31.6 31.79 22.6 29.69 15 29 C14.67 28.67 14.34 28.34 14 28 C11.24 27.87 8.51 27.81 5.76 27.8 C4.92 27.79 4.08 27.79 3.22 27.78 C1.43 27.77 -0.35 27.76 -2.13 27.76 C-4.83 27.75 -7.52 27.72 -10.22 27.69 C-19.29 27.63 -27.37 27.89 -36 31 C-37.5 31.42 -39 31.84 -40.5 32.25 C-49.75 35.43 -59.4 41.74 -64.35 50.35 C-67.54 57.36 -67.43 62.87 -64.94 70.06 C-64.63 70.7 -64.32 71.34 -64 72 C-67.56 74.32 -70.86 75.69 -74.94 76.88 C-80.05 78.51 -83.27 80.17 -87 84 C-88.22 86.44 -88.2 88.15 -88.25 90.88 C-88.28 91.74 -88.3 92.6 -88.33 93.49 C-87.93 96.56 -87.13 97.77 -85 100 C-69.01 111.08 -47.68 116.65 -29 121 C-29 121.66 -29 122.32 -29 123 C-23.51 122.65 -19.63 122.17 -15 119 C-13.32 118.26 -11.65 117.52 -9.96 116.82 C-7.77 115.9 -5.6 114.96 -3.44 114 C-2.3 113.5 -2.3 113.5 -1.13 112.98 C0.68 112.15 2.44 111.21 4.19 110.25 C10.48 107.45 15.81 109.72 21.88 112 C22.66 112.29 23.44 112.57 24.25 112.87 C26.17 113.57 28.09 114.28 30 115 C29.7 117 29.41 118.99 29.11 120.99 C28.84 123.18 28.84 123.18 30.12 125.69 C30.56 126.83 30.56 126.83 31 128 C29.75 130.56 29.75 130.56 28 133 C27.69 133.74 27.38 134.49 27.06 135.25 C26 137 26 137 23.88 137.75 C23.26 137.83 22.64 137.91 22 138 C21.67 140.31 21.34 142.62 21 145 C21.66 145 22.32 145 23 145 C24.76 155.55 24.76 155.55 22.34 160.27 C16.97 167.19 10.1 171.08 1.59 172.61 C-9.89 173.85 -21.77 174.7 -31.11 167.22 C-33.39 165.75 -35.5 165.18 -38.12 164.5 C-42.64 163.27 -45.13 161.86 -48 158 C-50.34 153.2 -50.39 148.16 -50.66 142.9 C-51.01 139.92 -51.65 137.68 -53 135 C-55.23 133.77 -55.23 133.77 -58 133 C-64.81 130.38 -64.81 130.38 -66 128 C-68.08 127.49 -68.08 127.49 -70.56 127.19 C-75.19 126.36 -78.22 124.89 -82.04 122.23 C-84.13 120.92 -86.11 120.16 -88.44 119.38 C-89.61 118.92 -90.79 118.47 -92 118 C-92.33 117.01 -92.66 116.02 -93 115 C-93.99 114.77 -94.98 114.55 -96 114.31 C-103.03 112.6 -109.04 105.78 -113 100 C-114.07 96.8 -114.39 93.99 -114.69 90.62 C-114.79 89.5 -114.9 88.38 -115.01 87.23 C-115 83.94 -114.43 81.93 -113 79 C-112.01 79 -111.02 79 -110 79 C-109.63 78.3 -109.26 77.6 -108.88 76.88 C-106.14 72.67 -102.23 70.58 -98 68 C-98.66 67.34 -99.32 66.68 -100 66 C-97.03 65.5 -97.03 65.5 -94 65 C-93.88 64.41 -93.76 63.82 -93.63 63.21 C-92.9 59.76 -92.21 56.52 -90.88 53.25 C-89.88 50.7 -89.84 48.72 -90 46 C-89.34 46 -88.68 46 -88 46 C-88 45.01 -88 44.02 -88 43 C-87.42 42.79 -86.85 42.59 -86.25 42.38 C-83.75 41.07 -83.75 41.07 -82.12 38.12 C-79.77 34.66 -77.52 33.2 -74 31 C-73.36 30.28 -72.72 29.56 -72.06 28.81 C-69.22 26.31 -66.7 26.28 -63 26 C-62.67 24.68 -62.34 23.36 -62 22 C-62.66 21.67 -63.32 21.34 -64 21 C-62.86 20 -61.71 19 -60.56 18 C-59.92 17.44 -59.29 16.89 -58.63 16.31 C-57 15 -57 15 -56 15 C-55.72 13.58 -55.72 13.58 -55.44 12.12 C-54 9 -54 9 -50.62 7.56 C-47.5 7.08 -45.87 6.85 -43 8 C-43 7.34 -43 6.68 -43 6 C-36.53 6.33 -33.87 7.46 -29 12 C-25.16 14.79 -22.74 15.4 -18 15 C-15.73 14.56 -15.73 14.56 -14 14 C-14 13.01 -14 12.02 -14 11 C-14.66 11 -15.32 11 -16 11 C-16 10.34 -16 9.68 -16 9 C-16.99 9.33 -17.98 9.66 -19 10 C-19.99 9.34 -20.98 8.68 -22 8 C-22 7.34 -22 6.68 -22 6 C-20.13 5.21 -18.25 4.41 -16.38 3.62 C-14.81 2.96 -14.81 2.96 -13.21 2.29 C-3.27 -1.7 -3.27 -1.7 0 0 Z " fill="#FAFAFC" transform="translate(612,259)"/>
<path d="M0 0 C0.66 0.33 1.32 0.66 2 1 C2 1.66 2 2.32 2 3 C3.24 3.1 4.49 3.2 5.77 3.3 C26.84 5.12 26.84 5.12 34.13 10.6 C35.95 12.18 35.95 12.18 38.44 12.44 C41.88 11.85 43.33 10.25 46 8 C58.62 -0.25 75.58 -1.84 90.3 0.53 C100.29 2.69 109.89 5.26 117 13 C118.05 14.63 119.07 16.29 120 18 C120.66 18.33 121.32 18.66 122 19 C122.05 20.71 122.09 22.42 122.12 24.12 C122.15 25.08 122.17 26.03 122.2 27.01 C121.89 31.65 121.09 34.84 117.86 38.27 C101.48 51.17 101.48 51.17 93 54 C93 55.32 93 56.64 93 58 C91.72 58.07 90.45 58.15 89.13 58.23 C83.52 58.85 78.98 60.94 73.94 63.38 C56.23 71.74 44.66 73.17 26 67 C24.95 66.61 23.9 66.23 22.81 65.83 C18.96 64.7 15.55 64.99 11.59 65.22 C8.49 64.96 7.2 64.15 5 62 C5 61.34 5 60.68 5 60 C4.34 59.89 3.68 59.79 3 59.68 C-0.78 58.82 -4.33 57.5 -7.94 56.12 C-8.63 55.87 -9.32 55.61 -10.03 55.35 C-14.15 53.79 -18.09 52.05 -22 50 C-22 49.34 -22 48.68 -22 48 C-22.88 47.9 -23.77 47.8 -24.68 47.69 C-30.59 46.46 -35.98 42.84 -39.5 37.9 C-40.85 35.26 -41.83 32.79 -42.46 29.89 C-42.9 27.78 -42.9 27.78 -45 26 C-44.39 25.91 -43.78 25.83 -43.15 25.74 C-40.37 24.78 -39.93 23.74 -38.56 21.19 C-35.3 15.13 -30.83 12.65 -24.44 10.5 C-23.21 10.08 -21.99 9.66 -20.72 9.23 C-19.49 8.83 -18.27 8.42 -17 8 C-15.86 7.61 -14.73 7.23 -13.56 6.83 C-5.46 4.09 -5.46 4.09 -2.73 3.58 C-2.16 3.39 -1.59 3.2 -1 3 C-0.67 2.01 -0.34 1.02 0 0 Z " fill="#EB6173" transform="translate(654,231)"/>
<path d="M0 0 C2.38 -0.19 2.38 -0.19 5 0 C5.99 1.49 5.99 1.49 7 3 C7.99 3 8.98 3 10 3 C11.35 4.65 12.68 6.32 14 8 C14.99 8.46 14.99 8.46 16 8.94 C19.1 10.58 20.23 13.01 22 16 C22.56 16.88 22.56 16.88 23.14 17.79 C27.12 24.61 26.72 31.3 25.25 38.88 C22.2 46.49 15.36 52.06 9 57 C8.34 57 7.68 57 7 57 C9.18 61.01 11.75 63.83 15 67 C22.21 75.52 25.89 82.78 25 94 C24.13 96.61 23.29 98.62 22 101 C21.55 101.83 21.1 102.66 20.64 103.52 C17.93 108.3 15.58 111.83 11 115 C8.45 117.48 5.98 120.02 3.56 122.62 C0.54 125.42 -2.73 128 -7 128 C-7.33 128.99 -7.66 129.98 -8 131 C-9.98 131.33 -11.96 131.66 -14 132 C-14 132.66 -14 133.32 -14 134 C-16.75 136 -19.07 137.02 -22.38 137.88 C-25.6 138.88 -26.96 139.57 -29.5 141.56 C-32.99 144.25 -35.64 144.73 -40 145 C-40 145.66 -40 146.32 -40 147 C-40.68 147.27 -41.36 147.54 -42.06 147.81 C-45.4 149.16 -48.7 150.56 -52 152 C-53.07 152.33 -53.07 152.33 -54.16 152.66 C-56.35 153.94 -56.35 153.94 -56.65 157.12 C-56.84 159.62 -57.03 162.12 -57.21 164.62 C-58 168 -58 168 -60.36 170.36 C-63 172 -63 172 -66.25 173.38 C-69.25 174.77 -69.25 174.77 -70.12 177.88 C-69.97 181.87 -68.67 183.11 -66 186 C-63.58 189.66 -63.7 193.06 -63.69 197.38 C-63.67 198.66 -63.65 199.95 -63.64 201.27 C-64.02 205.19 -65.02 207.63 -67 211 C-67.66 211 -68.32 211 -69 211 C-69.21 211.78 -69.41 212.57 -69.62 213.38 C-71 216 -71 216 -74.06 217.12 C-75.52 217.56 -75.52 217.56 -77 218 C-77.33 218.99 -77.66 219.98 -78 221 C-88.53 226.16 -102.85 227.37 -114 224 C-114.66 223.34 -115.32 222.68 -116 222 C-117.65 221.29 -119.32 220.62 -121 220 C-121 219.34 -121 218.68 -121 218 C-111.42 215.24 -111.42 215.24 -106.57 214.41 C-97.35 212.83 -88.24 209.95 -82.55 201.97 C-79.9 195.55 -80.1 187.56 -82 181 C-85.3 176.78 -89.19 173.4 -94 171 C-94 170.01 -94 169.02 -94 168 C-92.89 167.69 -91.78 167.37 -90.64 167.05 C-89.18 166.62 -87.71 166.18 -86.25 165.75 C-85.16 165.44 -85.16 165.44 -84.04 165.13 C-79.79 163.85 -76.68 162.76 -74 159 C-73.48 156.75 -73.48 156.75 -73.69 154.44 C-73.72 153.29 -73.72 153.29 -73.76 152.12 C-73.95 149.81 -73.95 149.81 -75 147 C-73.53 144.07 -71.24 143.89 -68.29 142.84 C-61.22 140.25 -54.56 136.81 -47.94 133.25 C-42.54 130.37 -37.13 127.55 -31.62 124.9 C-18.04 118.89 -18.04 118.89 -8 109 C-7.26 108.57 -6.51 108.13 -5.75 107.69 C-1.91 105.33 1.45 102.98 2.69 98.5 C2.79 97.68 2.89 96.85 3 96 C4.64 91.18 4.64 91.18 7 90 C7 89.01 7 88.02 7 87 C7.66 86.34 8.32 85.68 9 85 C9.17 81.92 9.17 81.92 9 79 C8.34 79 7.68 79 7 79 C7 78.01 7 77.02 7 76 C6.34 75.67 5.68 75.34 5 75 C5.33 74.34 5.66 73.68 6 73 C5.34 72.67 4.68 72.34 4 72 C3.38 69.44 3.38 69.44 3 67 C2.34 67 1.68 67 1 67 C-0.36 65.02 -1.69 63.02 -3 61 C-4.87 58.72 -5.79 58.07 -8.62 57.12 C-9.41 56.75 -10.19 56.38 -11 56 C-11.81 53.38 -11.81 53.38 -12 51 C-6.38 46 -6.38 46 -3 46 C-2.9 45.4 -2.79 44.8 -2.69 44.19 C-1.89 41.67 -1.08 40.6 1 39 C1.99 39 2.98 39 4 39 C4.33 37.35 4.66 35.7 5 34 C5.66 34 6.32 34 7 34 C8.2 30.4 8.17 27.42 8.19 23.62 C8.2 22.32 8.22 21.01 8.23 19.66 C7.86 13.78 6.23 10.96 2 7 C0 4 0 4 0 0 Z M-111 220 C-111 220.99 -111 221.98 -111 223 C-110.34 222.01 -109.68 221.02 -109 220 C-109.66 220 -110.32 220 -111 220 Z " fill="#8D304F" transform="translate(789,233)"/>
<path d="M0 0 C2.07 0.48 4.13 0.97 6.2 1.46 C9.33 2.06 12.38 2.26 15.56 2.44 C19.51 2.68 22.74 3.06 26.38 4.62 C32.18 6.83 36.89 5.16 42.59 3.13 C55.09 -1.28 66.36 -1.07 79 3 C79.93 3.29 80.87 3.58 81.83 3.88 C85.99 5.33 88.53 6.49 91.56 9.75 C93.26 13.59 94.68 16.8 94 21 C90.36 27.93 83.3 35.12 75.82 37.77 C73.89 38.22 71.95 38.61 70 39 C68.32 39.97 66.65 40.97 65 42 C63.74 42.5 62.47 42.98 61.19 43.44 C58.34 44.46 55.68 45.61 53 47 C42.8 52.19 42.8 52.19 38 51.69 C37.34 51.46 36.68 51.23 36 51 C36 50.34 36 49.68 36 49 C34.79 48.81 34.79 48.81 33.56 48.62 C20.9 46.4 9.09 42.61 -2.75 37.62 C-3.62 37.26 -4.5 36.9 -5.4 36.53 C-19.77 30.34 -19.77 30.34 -24 24 C-24.68 19.32 -24.72 15.28 -22.38 11.12 C-16.51 5.87 -11.32 3.98 -3.73 1.83 C-1.11 1.27 -1.11 1.27 0 0 Z " fill="#C2487F" transform="translate(547,331)"/>
<path d="M0 0 C-1.67 1.67 -3.33 3.33 -5 5 C-5.56 5.6 -6.11 6.2 -6.69 6.81 C-8 8 -8 8 -10 8 C-10 11.63 -10 15.26 -10 19 C-10.66 19 -11.32 19 -12 19 C-12.26 19.59 -12.52 20.19 -12.78 20.8 C-14.1 23.18 -15.43 24.51 -17.5 26.25 C-18.11 26.77 -18.72 27.29 -19.34 27.83 C-21 29 -21 29 -23 29 C-23 29.66 -23 30.32 -23 31 C-25.97 31.5 -25.97 31.5 -29 32 C-29 32.99 -29 33.98 -29 35 C-28.44 35.26 -27.87 35.53 -27.29 35.8 C-22.73 38.19 -19.05 40.8 -16 45 C-14.37 51.43 -13.48 59.98 -16.5 66.16 C-24.42 75.83 -35.29 78.78 -47 81 C-53.03 81.91 -53.03 81.91 -58 85 C-58.33 84.01 -58.66 83.02 -59 82 C-60.98 81.67 -62.96 81.34 -65 81 C-65 80.34 -65 79.68 -65 79 C-65.87 79.02 -66.73 79.04 -67.62 79.06 C-72.11 77.65 -73.64 75.56 -76.07 71.62 C-77.49 67.63 -76.51 64.93 -75.06 61.07 C-74 59 -74 59 -72 57 C-72 53.65 -72.51 51.99 -74 49 C-74.8 48.2 -75.61 47.39 -76.44 46.56 C-79.14 43.86 -80.42 41.45 -82 38 C-82.66 37.01 -83.32 36.02 -84 35 C-86.36 28.38 -85.95 25.35 -83 19 C-82.67 18.34 -82.34 17.68 -82 17 C-82.33 16.38 -82.66 15.76 -83 15.12 C-84.22 12.53 -83.94 11.64 -83 9 C-82.67 8.01 -82.34 7.02 -82 6 C-77.01 6.52 -72.73 7.26 -68 9 C-67.3 9.19 -66.6 9.39 -65.88 9.59 C-60.2 11.22 -55.95 13.53 -52 18 C-51.67 18.68 -51.34 19.36 -51 20.07 C-50.03 22.33 -50.03 22.33 -47 24 C-42.07 24.82 -39.01 22.49 -35 20 C-33.67 19.32 -32.34 18.65 -31 18 C-34.28 15.1 -36.95 14.42 -41.25 13.81 C-42.33 13.65 -43.41 13.5 -44.52 13.33 C-45.34 13.22 -46.16 13.11 -47 13 C-44.7 9.32 -42.62 8.11 -38.56 6.69 C-37.62 6.34 -36.67 5.99 -35.69 5.64 C-32.83 4.96 -31.75 5.27 -29 6 C-24.02 5.13 -19.27 3.64 -14.75 1.38 C-9.85 -1.07 -5.26 -1.43 0 0 Z " fill="#FAFAFC" transform="translate(724,369)"/>
<path d="M0 0 C0.87 1.89 0.87 1.89 1.44 4.25 C3.51 11.22 8.1 14.27 14.04 17.98 C16.02 19.01 17.82 19.55 20 20 C20 20.66 20 21.32 20 22 C21.2 22.38 21.2 22.38 22.43 22.78 C26.73 24.25 30.95 25.9 35.19 27.56 C36.78 28.19 38.38 28.82 39.98 29.44 C40.68 29.72 41.38 29.99 42.1 30.28 C43.72 30.89 45.36 31.45 47 32 C47 32.66 47 33.32 47 34 C47.66 34 48.32 34 49 34 C49.5 36.48 49.5 36.48 50 39 C46.02 39.83 42.89 40.33 39 39 C38.42 38.38 37.84 37.76 37.25 37.12 C31.6 31.79 22.6 29.69 15 29 C14.67 28.67 14.34 28.34 14 28 C11.24 27.87 8.51 27.81 5.76 27.8 C4.92 27.79 4.08 27.79 3.22 27.78 C1.43 27.77 -0.35 27.76 -2.13 27.76 C-4.83 27.75 -7.52 27.72 -10.22 27.69 C-18.45 27.64 -26.04 27.61 -33.91 30.35 C-36 31 -36 31 -40 31 C-39.36 30.24 -38.72 29.47 -38.06 28.69 C-34.24 23.71 -34.72 18.59 -35.19 12.62 C-35.94 10.71 -35.94 10.71 -38.56 9.75 C-39.37 9.5 -40.17 9.25 -41 9 C-41 8.34 -41 7.68 -41 7 C-40.01 6.67 -39.02 6.34 -38 6 C-35.44 7.28 -33.19 8.86 -30.89 10.54 C-25.05 14.78 -25.05 14.78 -18 15 C-15.73 14.56 -15.73 14.56 -14 14 C-14 13.01 -14 12.02 -14 11 C-14.66 11 -15.32 11 -16 11 C-16 10.34 -16 9.68 -16 9 C-16.99 9.33 -17.98 9.66 -19 10 C-19.99 9.34 -20.98 8.68 -22 8 C-22 7.34 -22 6.68 -22 6 C-20.13 5.21 -18.25 4.41 -16.38 3.62 C-15.33 3.18 -14.29 2.74 -13.21 2.29 C-3.27 -1.7 -3.27 -1.7 0 0 Z " fill="#F4E8EC" transform="translate(612,259)"/>
<path d="M0 0 C0.99 0.5 0.99 0.5 2 1 C2 2.32 2 3.64 2 5 C2.87 5.19 3.73 5.37 4.62 5.56 C8.96 7.41 11.41 10.11 14 14 C14 14.66 14 15.32 14 16 C14.66 16 15.32 16 16 16 C18.21 20.03 19.46 23.44 20 28 C20.66 28 21.32 28 22 28 C22.69 30.75 22.69 30.75 23 34 C21.56 36.38 21.56 36.38 20 38 C20.33 38.66 20.66 39.32 21 40 C20.01 40 19.02 40 18 40 C18.04 40.78 18.08 41.57 18.12 42.38 C18 45 18 45 16 47 C15.8 47.94 15.8 47.94 15.59 48.89 C14.84 51.58 13.6 52.8 11.62 54.75 C11.02 55.36 10.41 55.98 9.79 56.61 C8 58 8 58 5 58 C4.81 58.56 4.61 59.12 4.41 59.7 C2.41 62.96 -0.42 64.71 -3.56 66.75 C-4.23 67.19 -4.89 67.63 -5.57 68.08 C-11.67 71.99 -18.05 75.02 -24.64 77.98 C-29.96 80.4 -35.08 83.16 -40.2 85.94 C-44.39 88.21 -48.6 90.18 -53 92 C-53.91 92.39 -54.82 92.78 -55.75 93.19 C-58 94 -58 94 -61 94 C-60.84 95.01 -60.67 96.02 -60.5 97.06 C-59.25 106.88 -59.25 106.88 -61.88 110.81 C-66.05 113.73 -70.01 114.35 -75 115 C-72.51 112.44 -70.05 110.04 -67.25 107.81 C-64.93 106.2 -64.93 106.2 -64 104 C-63.34 104 -62.68 104 -62 104 C-62.13 103.41 -62.26 102.82 -62.39 102.21 C-62.83 99.74 -63.1 97.51 -63 95 C-60.88 92.25 -60.88 92.25 -58 90 C-57.07 89.07 -56.14 88.14 -55.19 87.19 C-54.1 86.1 -54.1 86.1 -53 85 C-59.47 85.33 -64.22 85.94 -70 89 C-73.97 90.13 -77.98 91.08 -82 92 C-82 91.01 -82 90.02 -82 89 C-74.63 85.17 -67.05 81.95 -59.3 78.96 C-52.24 76.17 -45.55 72.81 -38.81 69.31 C-37.87 68.82 -36.92 68.34 -35.95 67.83 C-35.06 67.37 -34.18 66.9 -33.27 66.43 C-32.47 66.01 -31.67 65.59 -30.85 65.16 C-28.85 64.13 -28.85 64.13 -28 62 C-26.36 61.11 -26.36 61.11 -24.31 60.19 C-19.14 57.7 -15.23 54.84 -12 50 C-10.68 50 -9.36 50 -8 50 C-7.34 49.67 -6.68 49.34 -6 49 C-7.04 51.64 -7.92 52.94 -10.19 54.69 C-12.78 56.82 -14.12 58.53 -16 61.25 C-20.51 67.24 -26.53 70.42 -33 74 C-34.41 74.8 -34.41 74.8 -35.84 75.61 C-37.88 76.76 -39.93 77.89 -42 79 C-33.73 78.69 -27.94 74.99 -20.99 70.79 C-18.19 69.12 -15.89 67.98 -12.7 67.25 C-8.21 65.73 -5.86 63.6 -2.56 60.31 C-1.43 59.22 -0.3 58.14 0.83 57.05 C1.37 56.53 1.91 56 2.47 55.46 C5.02 53.03 7.71 50.76 10.41 48.5 C14.4 44.73 15.84 41.66 16.17 36.23 C16.17 35.23 16.18 34.22 16.19 33.19 C16.2 32.19 16.22 31.19 16.23 30.17 C15.8 23.78 15.8 23.78 12.52 18.45 C10.05 16.4 7.49 14.5 4.88 12.63 C0.2 8.99 0.2 8.99 -0.43 5.84 C-0.43 3.62 -0.43 3.62 0 0 Z " fill="#F5EAEE" transform="translate(776,284)"/>
<path d="M0 0 C1.15 0.45 2.31 0.91 3.5 1.38 C7.61 2.92 11.72 4.01 16 5 C15.67 7.97 15.34 10.94 15 14 C13.35 14.66 11.7 15.32 10 16 C9.67 18.31 9.34 20.62 9 23 C9.66 23 10.32 23 11 23 C12.76 33.55 12.76 33.55 10.34 38.27 C4.97 45.19 -1.9 49.08 -10.41 50.61 C-19.69 51.61 -29.03 51.74 -38 49 C-38.66 48.34 -39.32 47.68 -40 47 C-39.62 44.38 -39.62 44.38 -39 42 C-38.24 42.17 -37.47 42.33 -36.69 42.5 C-32.21 43.33 -29.21 42.65 -25 41 C-24.67 40.34 -24.34 39.68 -24 39 C-22.18 38.76 -22.18 38.76 -19.88 38.69 C-14.9 38.24 -11.49 36.59 -8 33 C-5.8 29.67 -5.76 26.88 -5.81 22.94 C-5.82 21.37 -5.82 21.37 -5.83 19.78 C-5.89 16.91 -5.89 16.91 -7 14 C-5.18 9.01 -2.7 4.56 0 0 Z " fill="#8C2F4E" transform="translate(624,381)"/>
<path d="M0 0 C5.01 -0.35 8.73 0.83 13.25 2.81 C19.07 5.32 24.91 7.24 31 9 C32.78 9.53 34.57 10.07 36.35 10.61 C37.22 10.87 38.09 11.13 38.99 11.4 C39.86 11.66 40.73 11.92 41.62 12.19 C42.99 12.6 42.99 12.6 44.38 13.01 C46.85 13.76 46.85 13.76 49.32 14.5 C49.88 14.66 50.43 14.83 51 15 C51 15.99 51 16.98 51 18 C47.7 18.33 44.4 18.66 41 19 C40.34 21.31 39.68 23.62 39 26 C38.36 26.12 37.72 26.25 37.06 26.38 C36.38 26.58 35.7 26.79 35 27 C34.67 27.66 34.34 28.32 34 29 C32.42 28.72 30.83 28.42 29.25 28.12 C28.37 27.96 27.49 27.8 26.58 27.63 C24.11 27.03 22.23 26.19 20 25 C19.01 24.67 18.02 24.34 17 24 C17 23.34 17 22.68 17 22 C15.48 22.06 15.48 22.06 13.94 22.12 C9.82 21.99 6.88 21.27 3 20 C3.33 17.69 3.66 15.38 4 13 C9.88 16.88 9.88 16.88 11 18 C13.31 17.01 15.62 16.02 18 15 C18.04 13.07 18.04 13.07 17 11 C14.66 9.85 12.43 8.91 10 8 C6.39 6.3 3.01 4.66 0 2 C0 1.34 0 0.68 0 0 Z M25 24 C29 25 29 25 29 25 Z " fill="#F5E9ED" transform="translate(518,249)"/>
<path d="M0 0 C0.78 0.29 1.57 0.57 2.38 0.87 C4.29 1.57 6.21 2.28 8.12 3 C7.83 4.99 7.54 6.97 7.25 8.96 C7.08 11.69 7.85 13.61 9.12 16 C8.13 16.66 7.14 17.32 6.12 18 C3.01 16.5 0.09 14.78 -2.88 13 C-4.2 12.32 -5.53 11.65 -6.88 11 C-5.23 10.34 -3.58 9.68 -1.88 9 C-1.88 8.01 -1.88 7.02 -1.88 6 C-5.09 4.39 -8.54 4.73 -12.06 4.69 C-12.81 4.66 -13.55 4.63 -14.31 4.6 C-20 4.53 -23.23 5.69 -27.88 9 C-29.78 11.05 -29.78 11.05 -31.12 13.25 C-32.52 15.39 -32.52 15.39 -33.88 17 C-36.54 17 -39.21 17 -41.88 17 C-43.32 19.89 -43.25 21.8 -42.88 25 C-40.48 27.65 -40.48 27.65 -37.88 30 C-37.06 32.31 -37.06 32.31 -36.88 34 C-39.88 34 -39.88 34 -41.81 32.38 C-48.6 24.56 -48.6 24.56 -48.88 20 C-48.29 17.65 -47.63 15.31 -46.88 13 C-47.53 13 -48.2 13 -48.88 13 C-48.54 12.34 -48.22 11.68 -47.88 11 C-46.27 10.52 -44.66 10.05 -43.04 9.63 C-36.94 7.86 -31.26 5.35 -25.88 2 C-23.55 0.98 -21.22 -0.02 -18.88 -1 C-18.19 -1.39 -17.51 -1.78 -16.81 -2.19 C-11.05 -4.61 -5.47 -2.06 0 0 Z " fill="#F3E5EA" transform="translate(633.875,371)"/>
<path d="M0 0 C2.19 -0.31 2.19 -0.31 5 0 C7.5 2.31 7.5 2.31 10 5 C10.83 5.5 11.65 5.99 12.5 6.5 C17.78 9.67 21.77 14.26 24 20 C24.68 23.1 24.53 24.74 24 28 C21.44 30.56 21.44 30.56 18 32 C14.57 31.94 12.18 31.83 9.34 29.83 C7.43 27.21 7.48 25.02 7.31 21.81 C7.21 20.18 7.21 20.18 7.11 18.52 C7.08 17.69 7.04 16.86 7 16 C6.34 16 5.68 16 5 16 C3.38 14.56 3.38 14.56 2 12 C1.87 9.68 1.94 7.44 2.09 5.12 C2.17 2.69 2.17 2.69 0 0 Z " fill="#87304C" transform="translate(672,197)"/>
<path d="M0 0 C-0.96 0.62 -0.96 0.62 -1.94 1.25 C-9.58 6.35 -16.73 11.87 -19.64 20.92 C-20.61 26.48 -19.44 31.97 -17 37 C-20.56 39.32 -23.86 40.69 -27.94 41.88 C-33.05 43.51 -36.27 45.17 -40 49 C-41.22 51.44 -41.2 53.15 -41.25 55.88 C-41.28 56.74 -41.3 57.6 -41.33 58.49 C-40.93 61.56 -40.13 62.77 -38 65 C-26.84 72.74 -12.17 78.01 1 81 C0.67 81.66 0.34 82.32 0 83 C-5.9 83.24 -10.6 82.58 -16.19 80.75 C-16.87 80.55 -17.56 80.34 -18.26 80.13 C-22.62 78.74 -25.55 76.94 -29 74 C-32.06 72.26 -35.15 70.61 -38.26 68.98 C-42.06 66.24 -43.57 63.27 -44.43 58.69 C-44.44 53.4 -43.76 48.98 -40 45 C-37.54 43.28 -35.04 41.8 -32.41 40.35 C-29.01 38.44 -25.77 36.55 -24 33 C-23.95 31.42 -23.91 29.83 -23.88 28.25 C-23.09 18.65 -18.18 9.35 -11 3 C-8.87 1.6 -8.87 1.6 -6.88 0.62 C-6.21 0.29 -5.55 -0.05 -4.87 -0.4 C-3 -1 -3 -1 0 0 Z " fill="#F5EAEE" transform="translate(565,294)"/>
<path d="M0 0 C3.02 0.07 5.23 0.3 7.52 2.38 C9.07 4.21 10.53 6.1 12 8 C13.62 9.78 15.26 11.56 16.9 13.32 C18 15 18 15 18 19 C7.11 19 -3.78 19 -15 19 C-15 17.35 -15 15.7 -15 14 C-14.34 13.74 -13.67 13.49 -12.99 13.22 C-5.98 10.18 -2.92 7.04 0 0 Z " fill="#FBFCFD" transform="translate(605,266)"/>
<path d="M0 0 C4.25 2.06 8.23 4.87 10.32 9.19 C11.29 11.45 11.29 11.45 14.32 13.12 C18.16 13.53 20.83 12.72 24.32 11.12 C24.26 12.95 24.26 12.95 23.32 15.12 C20.92 16.25 18.76 17.09 16.26 17.87 C15.59 18.09 14.93 18.31 14.25 18.54 C12.61 19.08 10.97 19.6 9.32 20.12 C9.88 23.85 11.29 25.29 14.07 27.75 C18.36 31.88 21.6 36.36 23.32 42.12 C23 45.49 22.74 46.7 20.32 49.12 C20.23 48.54 20.14 47.96 20.05 47.36 C18.52 40.34 15.31 36.33 10.34 31.41 C6.67 27.74 3.57 24.15 3.13 18.81 C3.19 18.11 3.26 17.41 3.32 16.68 C3.47 11.98 2.69 9.21 0.32 5.12 C-3.02 2.5 -6.64 1.34 -10.68 0.12 C-6.52 -2.43 -4.38 -1.63 0 0 Z " fill="#F4E9ED" transform="translate(662.6796875,379.87890625)"/>
<path d="M0 0 C0.66 0.33 1.32 0.66 2 1 C2 2.32 2 3.64 2 5 C2.87 5.19 3.73 5.37 4.62 5.56 C8.96 7.41 11.41 10.11 14 14 C14 14.66 14 15.32 14 16 C14.66 16 15.32 16 16 16 C18.21 20.03 19.46 23.44 20 28 C20.66 28 21.32 28 22 28 C22.69 30.75 22.69 30.75 23 34 C21.56 36.38 21.56 36.38 20 38 C20.33 38.66 20.66 39.32 21 40 C20.01 40 19.02 40 18 40 C18.04 40.78 18.08 41.57 18.12 42.38 C18 45 18 45 16 47 C15.86 47.62 15.73 48.25 15.59 48.89 C14.84 51.58 13.6 52.8 11.62 54.75 C11.02 55.36 10.41 55.98 9.79 56.61 C8 58 8 58 5 58 C4.79 58.58 4.57 59.17 4.35 59.77 C2.54 62.77 0.36 63.94 -2.62 65.75 C-3.63 66.36 -4.63 66.98 -5.66 67.61 C-6.82 68.3 -6.82 68.3 -8 69 C-7.52 64.67 -4.96 62.63 -1.94 59.69 C-1.44 59.2 -0.95 58.72 -0.44 58.22 C3.03 54.85 6.61 51.62 10.34 48.54 C14.39 44.78 15.84 41.68 16.17 36.23 C16.17 35.23 16.18 34.22 16.19 33.19 C16.21 31.69 16.21 31.69 16.23 30.17 C15.8 23.78 15.8 23.78 12.52 18.45 C10.05 16.4 7.49 14.5 4.88 12.63 C0.2 8.99 0.2 8.99 -0.43 5.84 C-0.43 3.62 -0.43 3.62 0 0 Z " fill="#EFDFE4" transform="translate(776,284)"/>
<path d="M0 0 C2.95 1.44 5.16 3.23 7.69 5.31 C11.55 8.08 13.95 8.71 18.69 8.31 C20.36 8.02 22.03 7.7 23.69 7.31 C23.21 7.75 22.74 8.18 22.25 8.62 C20.45 10.34 20.45 10.34 19.69 13.31 C17.62 14 17.62 14 15.69 14.31 C15.36 15.96 15.03 17.61 14.69 19.31 C16.61 19.25 16.61 19.25 18.56 19.19 C20.74 19.12 20.74 19.12 22.69 19.31 C23.35 19.97 24.01 20.63 24.69 21.31 C23.47 21.26 23.47 21.26 22.23 21.21 C15.37 21.04 9.57 21.53 3.03 23.66 C0.69 24.31 0.69 24.31 -3.31 24.31 C-2.67 23.55 -2.03 22.79 -1.38 22 C2.45 17.02 1.97 11.9 1.5 5.94 C0.75 4.02 0.75 4.02 -1.88 3.06 C-2.68 2.81 -3.48 2.57 -4.31 2.31 C-4.31 1.65 -4.31 0.99 -4.31 0.31 C-2.31 -0.69 -2.31 -0.69 0 0 Z " fill="#F2E5EA" transform="translate(575.3125,265.6875)"/>
<path d="M0 0 C4.1 1.9 7.2 3.43 9.31 7.56 C10.49 13.44 10.27 18.69 7.36 23.99 C4.7 27.39 1.92 29.64 -1.56 32.12 C-8.13 36.58 -8.13 36.58 -11.5 43.44 C-10.79 47.09 -8.74 48.6 -6 51 C-9.51 50.44 -12.1 48.79 -15.12 46.99 C-17.98 45.48 -20.86 44.77 -24 44 C-23 41 -23 41 -21.1 39.89 C-20.28 39.54 -19.47 39.18 -18.62 38.81 C-11.71 35.53 -5.17 31.25 0.2 25.75 C2 24 2 24 4 24 C4.66 18.39 5.32 12.78 6 7 C5.01 6.67 4.02 6.34 3 6 C1.31 2.94 1.31 2.94 0 0 Z " fill="#F2E5E9" transform="translate(770,243)"/>
<path d="M0 0 C3.12 1.62 3.12 1.62 5.12 3.62 C4.34 4.05 3.56 4.47 2.75 4.9 C1.74 5.45 0.73 6 -0.31 6.56 C-1.83 7.38 -1.83 7.38 -3.37 8.21 C-5.74 9.4 -5.74 9.4 -6.88 10.62 C-9.12 11 -9.12 11 -11.88 10.62 C-14.69 8.25 -14.69 8.25 -16.88 5.62 C-16.88 4.96 -16.88 4.31 -16.88 3.62 C-17.87 3.3 -18.86 2.96 -19.88 2.62 C-18.54 1.96 -17.21 1.29 -15.88 0.62 C-15.3 0.25 -14.72 -0.12 -14.12 -0.5 C-9.35 -2.36 -4.64 -1.91 0 0 Z " fill="#DB4469" transform="translate(688.875,383.375)"/>
<path d="M0 0 C0.66 0 1.32 0 2 0 C2.04 0.62 2.08 1.23 2.12 1.87 C3 8.99 5.52 11.96 10.73 16.7 C14.19 20.2 16.64 24.26 18 29 C17.67 32.37 17.42 33.58 15 36 C14.91 35.42 14.82 34.83 14.73 34.23 C13.2 27.22 9.99 23.21 5.02 18.29 C1.84 15.11 -0.34 12.2 -2 8 C-1.58 1.58 -1.58 1.58 0 0 Z " fill="#DDC6CC" transform="translate(668,393)"/>
<path d="M0 0 C0.66 0.33 1.32 0.66 2 1 C2 1.99 2 2.98 2 4 C2.99 4 3.98 4 5 4 C6 6 7 8 8 10 C8.35 10.65 8.7 11.3 9.05 11.97 C11.21 16.06 12.24 19.41 13 24 C13.99 24.66 14.98 25.32 16 26 C15.67 26.33 15.34 26.66 15 27 C8.78 26.54 8.78 26.54 6.32 24.84 C4.44 22.21 4.48 20.01 4.31 16.81 C4.21 15.18 4.21 15.18 4.11 13.52 C4.08 12.69 4.04 11.86 4 11 C3.34 11 2.68 11 2 11 C0.31 9.44 0.31 9.44 -1 7 C-0.69 3.25 -0.69 3.25 0 0 Z " fill="#C25685" transform="translate(675,202)"/>
<path d="M0 0 C1.32 0 2.64 0 4 0 C4 0.99 4 1.98 4 3 C4.99 2.67 5.98 2.34 7 2 C8.81 1.88 10.62 1.82 12.44 1.81 C13.38 1.8 14.33 1.78 15.31 1.77 C18.09 2.01 19.59 2.67 22 4 C23.99 4.38 25.99 4.73 28 5 C26.62 7 26.62 7 25 9 C24.34 9 23.68 9 23 9 C22.67 9.99 22.34 10.98 22 12 C18.67 11.45 15.9 10.76 13 9 C12.67 8.34 12.34 7.68 12 7 C9.72 6.38 9.72 6.38 7.06 6 C2.22 5.22 2.22 5.22 0 3 C0 2.01 0 1.02 0 0 Z " fill="#B08B94" transform="translate(534,380)"/>
<path d="M0 0 C1.58 2.63 2 3.87 2 7 C0.35 7 -1.3 7 -3 7 C-4.44 9.89 -4.38 11.8 -4 15 C-1.6 17.65 -1.6 17.65 1 20 C1.81 22.31 1.81 22.31 2 24 C-1 24 -1 24 -2.94 22.38 C-9.72 14.56 -9.72 14.56 -10 10 C-9.41 7.65 -8.75 5.31 -8 3 C-8.66 3 -9.32 3 -10 3 C-9 1 -9 1 -5.56 -0.19 C-2 -1 -2 -1 0 0 Z " fill="#DDC6CC" transform="translate(595,381)"/>
<path d="M0 0 C0.99 0.33 1.98 0.66 3 1 C2.34 1.66 1.68 2.32 1 3 C0.86 3.62 0.73 4.25 0.59 4.89 C-0.16 7.58 -1.4 8.8 -3.38 10.75 C-3.98 11.36 -4.59 11.98 -5.21 12.61 C-7 14 -7 14 -10 14 C-10.21 14.58 -10.43 15.17 -10.65 15.77 C-12.46 18.77 -14.64 19.94 -17.62 21.75 C-19.13 22.67 -19.13 22.67 -20.66 23.61 C-21.43 24.07 -22.21 24.53 -23 25 C-22.52 20.67 -19.96 18.63 -16.94 15.69 C-16.2 14.96 -16.2 14.96 -15.44 14.22 C-11.95 10.84 -8.37 7.58 -4.66 4.44 C-3.03 3.02 -1.51 1.54 0 0 Z " fill="#EAD7DD" transform="translate(791,328)"/>
<path d="M0 0 C0.33 0 0.66 0 1 0 C1.62 10.61 1.62 10.61 -0.56 15.5 C-5.92 20.99 -10.58 22.48 -18 23 C-18 22.01 -18 21.02 -18 20 C-15.77 18.35 -15.77 18.35 -12.81 16.62 C-8.58 14.06 -5.36 11.58 -2 8 C-1.34 8 -0.68 8 0 8 C0 5.36 0 2.72 0 0 Z " fill="#F1E4E8" transform="translate(618,398)"/>
<path d="M0 0 C4.1 1.9 7.2 3.43 9.31 7.56 C10.22 12.12 10.29 16.5 9 21 C7.28 23.02 7.28 23.02 5 25 C4.16 25.73 3.32 26.46 2.45 27.22 C-2.51 31.32 -7.26 35.07 -13 38 C-11.75 34.26 -10.43 33.7 -7.19 31.56 C-4.46 29.76 -2.1 28.1 0.2 25.78 C2 24 2 24 4 24 C4.66 18.39 5.32 12.78 6 7 C5.01 6.67 4.02 6.34 3 6 C1.31 2.94 1.31 2.94 0 0 Z " fill="#FAF8FA" transform="translate(770,243)"/>
<path d="M0 0 C0.82 0.34 0.82 0.34 1.66 0.69 C16.04 6.7 16.04 6.7 31 11 C30.67 11.66 30.34 12.32 30 13 C24.1 13.24 19.4 12.58 13.81 10.75 C13.13 10.55 12.44 10.34 11.74 10.13 C7.41 8.76 4.38 6.99 1 4 C0.34 3.67 -0.32 3.34 -1 3 C-0.67 2.01 -0.34 1.02 0 0 Z " fill="#F4E8ED" transform="translate(535,364)"/>
<path d="M0 0 C0.66 0.66 1.32 1.32 2 2 C0.72 8.4 -2.02 11.28 -7.31 14.94 C-7.87 15.33 -8.43 15.72 -9 16.12 C-12.63 18.5 -15.69 19.59 -20 20 C-18.31 18.22 -16.64 16.73 -14.68 15.25 C-10.87 12.05 -8.1 8.2 -5.09 4.27 C-4.4 3.52 -3.71 2.77 -3 2 C-2.01 2 -1.02 2 0 2 C0 1.34 0 0.68 0 0 Z " fill="#F3E6EA" transform="translate(707,427)"/>
<path d="M0 0 C5.88 3.88 5.88 3.88 7 5 C8.39 5.16 9.79 5.28 11.19 5.38 C15.34 5.78 18.37 6.86 22 9 C21.34 10.32 20.68 11.64 20 13 C17.69 12.34 15.38 11.68 13 11 C13 10.34 13 9.68 13 9 C11.48 9.06 11.48 9.06 9.94 9.12 C5.82 8.99 2.88 8.27 -1 7 C-0.67 4.69 -0.34 2.38 0 0 Z " fill="#963758" transform="translate(522,262)"/>
<path d="M0 0 C6.92 0.53 12.35 3.91 17.69 8.12 C24.07 16.06 27.07 22.75 26 33 C25.67 33 25.34 33 25 33 C24.94 31.7 24.88 30.4 24.81 29.06 C24.03 22.22 21.02 16.59 16 11.88 C10.87 7.81 4.82 4.96 -1 2 C-0.67 1.34 -0.34 0.68 0 0 Z " fill="#E07383" transform="translate(749,288)"/>
<path d="M0 0 C0.66 0.33 1.32 0.66 2 1 C1.97 1.57 1.93 2.14 1.89 2.72 C1.7 8.34 2.36 12.02 5 17 C5.66 17.66 6.32 18.32 7 19 C5.74 19.02 4.48 19.04 3.19 19.06 C2.48 19.07 1.77 19.09 1.04 19.1 C-1 19 -1 19 -4 18 C-4.88 16.25 -4.88 16.25 -5 14 C-4.32 12.89 -4.32 12.89 -3.62 11.75 C-1.47 8.11 -1.42 5.19 -1 1 C-0.67 0.67 -0.34 0.34 0 0 Z " fill="#F5E9ED" transform="translate(660,216)"/>
<path d="M0 0 C0.95 0.85 1.9 1.69 2.88 2.56 C10.93 9.42 19.43 14.51 29 19 C28.67 19.66 28.34 20.32 28 21 C18.04 19.46 6.89 12.3 0.94 4.19 C0 2 0 2 0 0 Z " fill="#F6EBEF" transform="translate(491,229)"/>
<path d="M0 0 C-0.33 2.64 -0.66 5.28 -1 8 C0.32 8.66 1.64 9.32 3 10 C-0.62 10 -3.48 9.43 -6.96 8.51 C-9.62 7.85 -12.29 7.41 -15 7 C-11.79 1.52 -6.2 -0.56 0 0 Z " fill="#F1E3E8" transform="translate(692,375)"/>
<path d="M0 0 C-7.33 3.26 -14.67 5.97 -22.39 8.12 C-29.05 10.07 -33.7 12.8 -37.38 18.75 C-37.88 19.55 -38.38 20.35 -38.9 21.17 C-39.26 21.78 -39.63 22.38 -40 23 C-40.66 22.67 -41.32 22.34 -42 22 C-41.22 20.42 -40.4 18.86 -39.56 17.31 C-39.11 16.44 -38.66 15.57 -38.19 14.68 C-32.61 7.86 -23.26 5.39 -15.19 2.62 C-14.16 2.26 -13.14 1.89 -12.09 1.51 C-10.61 1 -10.61 1 -9.11 0.48 C-8.22 0.17 -7.33 -0.14 -6.42 -0.46 C-3.85 -1.03 -2.46 -0.87 0 0 Z " fill="#DB4469" transform="translate(653,234)"/>
<path d="M0 0 C5.35 4.91 8.11 8.93 8.56 16.25 C8.43 22.63 5.68 26.95 2 32 C1.34 31.67 0.68 31.34 0 31 C0.37 30.57 0.75 30.15 1.13 29.71 C5.27 24.24 5.52 19.93 4.73 13.21 C3.68 8.57 1.71 4.87 -1 1 C-0.67 0.67 -0.34 0.34 0 0 Z " fill="#F4E8EC" transform="translate(770,300)"/>
<path d="M0 0 C0.66 0.33 1.32 0.66 2 1 C3.17 4.99 3.44 8.87 3 13 C0.18 17.22 -2.51 18.33 -7.31 19.31 C-8.87 19.56 -10.43 19.8 -12 20 C-9.51 17.44 -7.05 15.04 -4.25 12.81 C-1.93 11.2 -1.93 11.2 -1 9 C-0.34 9 0.32 9 1 9 C0.67 6.03 0.34 3.06 0 0 Z " fill="#E9D4DB" transform="translate(713,379)"/>
<path d="M0 0 C1.1 0.08 2.19 0.17 3.32 0.25 C4.78 0.36 6.23 0.46 7.69 0.56 C8.41 0.62 9.13 0.67 9.87 0.73 C13.02 0.95 15.8 1.04 18.89 0.4 C19.59 0.27 20.28 0.14 21 0 C21.66 0.66 22.32 1.32 23 2 C22.03 2.64 21.06 3.28 20.06 3.94 C17.24 5.7 17.24 5.7 16 7 C10.31 7.84 6.14 4.58 1.79 1.36 C1.2 0.91 0.61 0.46 0 0 Z " fill="#F2E5E9" transform="translate(679,237)"/>
<path d="M0 0 C0.76 0.01 1.51 0.02 2.29 0.03 C3.08 0.05 3.87 0.08 4.68 0.11 C5.87 0.13 5.87 0.13 7.09 0.15 C9.06 0.18 11.02 0.24 12.99 0.29 C12.99 0.95 12.99 1.61 12.99 2.29 C11.83 2.58 11.83 2.58 10.65 2.88 C9.65 3.14 8.65 3.4 7.61 3.67 C6.12 4.05 6.12 4.05 4.59 4.44 C1.86 5.12 1.86 5.12 -0.01 7.29 C-0.34 6.3 -0.67 5.31 -1.01 4.29 C-3.98 3.8 -3.98 3.8 -7.01 3.29 C-4.75 0.61 -3.51 -0.08 0 0 Z " fill="#C79AA7" transform="translate(666.01171875,446.70703125)"/>
<path d="M0 0 C3.68 -0.53 4.82 -0.13 7.88 2.12 C10 5 10 5 9.81 8.31 C9.54 9.2 9.28 10.09 9 11 C8.46 10.71 7.93 10.42 7.38 10.12 C4.65 8.83 1.87 7.91 -1 7 C-0.67 4.69 -0.34 2.38 0 0 Z " fill="#E3CAD1" transform="translate(512,257)"/>
<path d="M0 0 C0.66 0.66 1.32 1.32 2 2 C1.01 2.5 1.01 2.5 0 3 C0.5 5.76 0.5 5.76 2 8 C4.33 8.04 6.67 8.04 9 8 C6.95 10.42 5.7 11.84 2.56 12.56 C-1.1 11.76 -2.64 9.83 -5 7 C-5 6.34 -5 5.68 -5 5 C-5.99 4.67 -6.98 4.34 -8 4 C-5.33 2.67 -2.67 1.33 0 0 Z " fill="#EA6475" transform="translate(677,382)"/>
<path d="M0 0 C-0.96 0.62 -0.96 0.62 -1.94 1.25 C-7.21 4.77 -11.52 8.28 -15.53 13.2 C-16.93 14.92 -18.41 16.46 -20 18 C-16.6 6.19 -16.6 6.19 -10.62 2.55 C-3.58 -1.19 -3.58 -1.19 0 0 Z " fill="#F8EEF2" transform="translate(565,294)"/>
<path d="M0 0 C4.46 0.99 4.46 0.99 9 2 C9 2.66 9 3.32 9 4 C9.66 4 10.32 4 11 4 C11 4.66 11 5.32 11 6 C11.66 6 12.32 6 13 6 C12.67 8.31 12.34 10.62 12 13 C7.19 8.44 7.19 8.44 6.06 5.81 C4.41 3 2.03 2.79 -1 2 C-0.67 1.34 -0.34 0.68 0 0 Z " fill="#F1E3E8" transform="translate(574,378)"/>
<path d="M0 0 C0.33 0 0.66 0 1 0 C1.04 0.68 1.07 1.35 1.11 2.05 C1.18 2.94 1.24 3.83 1.31 4.75 C1.37 5.63 1.43 6.51 1.49 7.42 C2.22 11.12 3.75 13.13 6.82 15.27 C7.44 15.59 8.05 15.92 8.69 16.25 C10.33 17.12 10.33 17.12 12 18 C12 18.99 12 19.98 12 21 C7.16 19.2 3.19 17.73 0.19 13.38 C-1.29 9.18 -1.48 5.41 -1 1 C-0.67 0.67 -0.34 0.34 0 0 Z " fill="#F7ECF0" transform="translate(522,345)"/>
<path d="M0 0 C7.66 -0.19 14.66 -0.35 22 2 C22 2.33 22 2.66 22 3 C12.76 3.33 3.52 3.66 -6 4 C-3 2 -3 2 0 2 C0 1.34 0 0.68 0 0 Z " fill="#F6EBEF" transform="translate(603,192)"/>
<path d="M0 0 C-0.99 0.6 -1.98 1.2 -3 1.81 C-3.99 2.53 -4.98 3.26 -6 4 C-6 4.99 -6 5.98 -6 7 C-6.99 7 -7.98 7 -9 7 C-9.66 6.34 -10.32 5.68 -11 5 C-12.65 4.29 -14.32 3.62 -16 3 C-16 2.34 -16 1.68 -16 1 C-14.09 0.64 -12.17 0.28 -10.25 -0.06 C-9.18 -0.26 -8.12 -0.46 -7.02 -0.66 C-4.25 -0.97 -2.59 -0.9 0 0 Z " fill="#B04170" transform="translate(684,450)"/>
<path d="M0 0 C1.32 0 2.64 0 4 0 C4 0.99 4 1.98 4 3 C8.46 2.5 8.46 2.5 13 2 C13.33 2.99 13.66 3.98 14 5 C13.34 5.66 12.68 6.32 12 7 C9.69 6.83 9.69 6.83 7 6.25 C5.67 5.98 5.67 5.98 4.31 5.7 C2 5 2 5 0 3 C0 2.01 0 1.02 0 0 Z " fill="#914E64" transform="translate(534,380)"/>
<path d="M0 0 C0.89 0.01 1.78 0.02 2.7 0.03 C3.38 0.04 4.05 0.05 4.75 0.06 C5.08 1.05 5.41 2.04 5.75 3.06 C-0.85 3.72 -7.45 4.38 -14.25 5.06 C-14.25 4.4 -14.25 3.74 -14.25 3.06 C-9.3 1 -5.38 -0.07 0 0 Z " fill="#DF647A" transform="translate(592.25,285.9375)"/>
<path d="M0 0 C1.58 2.63 2 3.87 2 7 C-2.56 6.46 -5.97 5.21 -10 3 C-9 1 -9 1 -5.56 -0.19 C-2 -1 -2 -1 0 0 Z " fill="#C897A3" transform="translate(595,381)"/>
<path d="M0 0 C0.66 0 1.32 0 2 0 C2 0.66 2 1.32 2 2 C3.32 2.33 4.64 2.66 6 3 C5.01 3.99 4.02 4.98 3 6 C3.29 6.72 3.58 7.44 3.88 8.19 C4.92 10.79 5.96 13.4 7 16 C6.34 16 5.68 16 5 16 C3.99 14.34 2.99 12.67 2 11 C1.01 10.34 0.02 9.68 -1 9 C-1.29 5.58 -1.09 3.26 0 0 Z " fill="#F8EEF2" transform="translate(591,387)"/>
<path d="M0 0 C4.24 2.83 3.98 5.12 5 10 C3.19 10.62 3.19 10.62 1 11 C0.01 10.34 -0.98 9.68 -2 9 C-2.43 4.95 -2.3 3.45 0 0 Z " fill="#DDC3CA" transform="translate(582,277)"/>
<path d="M0 0 C8.71 1.86 8.71 1.86 11 5 C6.38 8 6.38 8 3 8 C2.9 7.38 2.79 6.76 2.69 6.12 C2.12 3.63 2.12 3.63 -1 2 C-0.67 1.34 -0.34 0.68 0 0 Z " fill="#D87D8C" transform="translate(683,382)"/>
<path d="M0 0 C2 1 2 1 4 4 C4.08 6.33 4.09 8.67 4 11 C-1.78 7.68 -1.78 7.68 -2.88 4.25 C-2.92 3.51 -2.96 2.76 -3 2 C-2.01 1.34 -1.02 0.68 0 0 Z " fill="#D8BDC4" transform="translate(671,196)"/>
<path d="M0 0 C-0.68 0.5 -1.35 0.99 -2.05 1.5 C-7.4 5.58 -11.18 8.86 -14 15 C-15.07 11.8 -15.17 11.04 -14 8 C-12.29 5.89 -12.29 5.89 -10.19 3.81 C-9.16 2.77 -9.16 2.77 -8.11 1.71 C-5.3 -0.57 -3.35 -1.68 0 0 Z " fill="#E15973" transform="translate(563,298)"/>
<path d="M0 0 C2.99 1.39 5.67 2.66 8 5 C8.28 8.25 8.28 8.25 7.94 12 C7.84 13.24 7.75 14.48 7.65 15.75 C7 19 7 19 4 22 C4.66 17.05 5.32 12.1 6 7 C5.01 6.67 4.02 6.34 3 6 C1.31 2.94 1.31 2.94 0 0 Z " fill="#DABCC4" transform="translate(770,243)"/>
<path d="M0 0 C5.71 0.42 8.61 2.58 13 6 C12.67 6.66 12.34 7.32 12 8 C7.5 6.31 3.27 4.18 -1 2 C-0.67 1.34 -0.34 0.68 0 0 Z " fill="#E76678" transform="translate(749,288)"/>
<path d="M0 0 C3.85 0.6 6.86 1.77 10.31 3.56 C11.2 4.02 12.08 4.47 12.99 4.94 C13.65 5.29 14.32 5.64 15 6 C14.67 6.66 14.34 7.32 14 8 C10.24 7.42 7.47 6.35 4.19 4.44 C3.4 3.98 2.61 3.53 1.79 3.06 C1.2 2.71 0.61 2.36 0 2 C0 1.34 0 0.68 0 0 Z " fill="#F3E7EB" transform="translate(505,242)"/>
<path d="M0 0 C1.32 0 2.64 0 4 0 C4 0.66 4 1.32 4 2 C7.3 1.67 10.6 1.34 14 1 C10 4 10 4 8 4 C7.67 4.66 7.34 5.32 7 6 C4.69 5.01 2.38 4.02 0 3 C-0.33 3.99 -0.66 4.98 -1 6 C-0.67 4.02 -0.34 2.04 0 0 Z " fill="#D2B0B9" transform="translate(585,420)"/>
<path d="M0 0 C0.66 0.33 1.32 0.66 2 1 C1.01 1.9 1.01 1.9 0 2.81 C-2.34 4.88 -2.34 4.88 -2 8 C-1.34 8.66 -0.68 9.32 0 10 C-2.97 9.5 -2.97 9.5 -6 9 C-6.33 7.35 -6.66 5.7 -7 4 C-2.25 1.12 -2.25 1.12 0 0 Z " fill="#C4668D" transform="translate(784,280)"/>
<path d="M0 0 C0.33 0.99 0.66 1.98 1 3 C0.67 3.66 0.34 4.32 0 5 C-3.3 4.34 -6.6 3.68 -10 3 C-9 1 -9 1 -7.25 0.38 C-4.8 -0.03 -2.48 -0.07 0 0 Z " fill="#8B2F4D" transform="translate(552,273)"/>
<path d="M0 0 C0.66 0 1.32 0 2 0 C1.94 2.25 1.94 2.25 1 5 C-1.25 6.82 -3.33 7.78 -6 9 C-6.66 8.67 -7.32 8.34 -8 8 C-8 7.01 -8 6.02 -8 5 C-6.87 4.55 -5.73 4.09 -4.56 3.62 C-0.95 2.43 -0.95 2.43 0 0 Z " fill="#F8F1F4" transform="translate(694,385)"/>
<path d="M0 0 C2 1 2 1 2.85 3.29 C3.11 4.2 3.36 5.12 3.62 6.06 C3.89 6.98 4.15 7.9 4.41 8.85 C4.61 9.56 4.8 10.27 5 11 C2 11 2 11 0.25 9.44 C-1.5 6.03 -0.77 3.66 0 0 Z " fill="#C78E9F" transform="translate(675,202)"/>
<path d="M0 0 C4.38 1.23 8.7 2.53 13 4 C13 4.66 13 5.32 13 6 C12.41 5.87 11.82 5.73 11.21 5.6 C7.15 4.69 3.09 3.79 -1 3 C-0.67 2.01 -0.34 1.02 0 0 Z " fill="#DE6078" transform="translate(629,287)"/>
<path d="M0 0 C2.25 0.12 2.25 0.12 5 1 C6.38 2.97 7.71 4.97 9 7 C11.1 8.39 11.1 8.39 13 9 C10.81 9.31 10.81 9.31 8 9 C5.19 6.62 5.19 6.62 3 4 C3 3.34 3 2.68 3 2 C2.01 1.67 1.02 1.34 0 1 C0 0.67 0 0.34 0 0 Z " fill="#C99AA5" transform="translate(669,385)"/>
<path d="M0 0 C0.66 0.33 1.32 0.66 2 1 C1 4 1 4 -1.44 5.44 C-4.11 6.76 -4.11 6.76 -5.06 9.12 C-6 11 -6 11 -8.12 11.75 C-9.05 11.87 -9.05 11.87 -10 12 C-8.52 8.55 -6.56 6.35 -3.88 3.75 C-3.15 3.04 -2.43 2.34 -1.68 1.61 C-1.13 1.08 -0.57 0.55 0 0 Z " fill="#EFDFE4" transform="translate(792,268)"/>
<path d="M0 0 C3.16 1.37 3.99 1.99 6 5 C5.01 5.33 4.02 5.66 3 6 C2.67 6.99 2.34 7.98 2 9 C0.14 5.87 -0.2 3.63 0 0 Z " fill="#F8EEF2" transform="translate(665,192)"/>
<path d="M0 0 C0.66 0 1.32 0 2 0 C3.52 9.41 3.52 9.41 1 14 C-0.38 11.24 -0.1 8.95 -0.06 5.88 C-0.05 4.78 -0.04 3.68 -0.04 2.55 C-0.02 1.71 -0.01 0.87 0 0 Z " fill="#F6EBEF" transform="translate(777,251)"/>
<path d="M0 0 C2.12 0.94 2.12 0.94 4 2 C4 3.98 4 5.96 4 8 C1 6.19 1 6.19 -2 4 C-2 3.01 -2 2.02 -2 1 C-1.34 0.67 -0.68 0.34 0 0 Z " fill="#C57694" transform="translate(697,400)"/>
<path d="M0 0 C1.32 0.99 2.64 1.98 4 3 C3.67 4.98 3.34 6.96 3 9 C2.34 9 1.68 9 1 9 C-0.75 6.75 -0.75 6.75 -2 4 C-1.19 1.69 -1.19 1.69 0 0 Z " fill="#C994A6" transform="translate(518,259)"/>
<path d="M0 0 C0.33 0 0.66 0 1 0 C1 1.65 1 3.3 1 5 C0.34 4.67 -0.32 4.34 -1 4 C-0.67 2.68 -0.34 1.36 0 0 Z " fill="#07280B" transform="translate(634,398)"/>
<path d="M0 0 C0.33 0 0.66 0 1 0 C1 2.64 1 5.28 1 8 C0.67 8 0.34 8 0 8 C0 5.36 0 2.72 0 0 Z " fill="#FBFCFD" transform="translate(517,314)"/>
<path d="M0 0 C2 1 2 1 2 1 Z " fill="#123917" transform="translate(668,454)"/>
<path d="M0 0 C2 1 2 1 2 1 Z " fill="#456F4C" transform="translate(765,371)"/>
<path d="" fill="#FBFCFD" transform="translate(0,0)"/>
<path d="M0 0 C2 1 2 1 2 1 Z " fill="#C897A3" transform="translate(538,274)"/>
<path d="" fill="#8B2F4D" transform="translate(0,0)"/>
<path d="" fill="#DDC6CC" transform="translate(0,0)"/>
<path d="" fill="#FBFCFD" transform="translate(0,0)"/>
<path d="" fill="#DDC6CC" transform="translate(0,0)"/>
<path d="" fill="#DDC6CC" transform="translate(0,0)"/>
<path d="" fill="#07280B" transform="translate(0,0)"/>
<path d="" fill="#456F4C" transform="translate(0,0)"/>
<path d="" fill="#456F4C" transform="translate(0,0)"/>
<path d="" fill="#DDC6CC" transform="translate(0,0)"/>
<path d="" fill="#F8EEF2" transform="translate(0,0)"/>
<path d="" fill="#456F4C" transform="translate(0,0)"/>
<path d="" fill="#DDC6CC" transform="translate(0,0)"/>
<path d="" fill="#8B2F4D" transform="translate(0,0)"/>
<path d="" fill="#C897A3" transform="translate(0,0)"/>
<path d="" fill="#DDC6CC" transform="translate(0,0)"/>
<path d="" fill="#FBFCFD" transform="translate(0,0)"/>
<path d="" fill="#F8EEF2" transform="translate(0,0)"/>
</svg>
