<?xml version="1.0" encoding="UTF-8"?>
<!-- Generator: visioncortex VTracer 0.6.3 -->
<svg version="1.1" xmlns="http://www.w3.org/2000/svg" width="1280" height="640">
<path d="M0 0 C1.92 -0 3.83 -0 5.75 -0.01 C10.91 -0.01 16.08 -0 21.24 0.01 C26.66 0.02 32.09 0.01 37.51 0.01 C46.62 0.01 55.72 0.02 64.82 0.04 C75.33 0.05 85.83 0.06 96.34 0.06 C107.55 0.06 118.77 0.06 129.99 0.07 C133.21 0.07 136.42 0.08 139.64 0.08 C144.71 0.08 149.78 0.08 154.85 0.09 C156.7 0.1 158.55 0.1 160.4 0.1 C177.4 0.09 177.4 0.09 185.54 1.04 C189.19 1.38 192.78 1.09 196.42 0.81 C206.7 0.16 216.95 0.09 227.24 0.11 C230.3 0.12 233.35 0.11 236.4 0.11 C238.38 0.11 240.36 0.11 242.34 0.11 C243.23 0.11 244.13 0.11 245.05 0.1 C261.97 0.17 261.97 0.17 268.71 4.24 C268.71 4.9 268.71 5.56 268.71 6.24 C269.33 6.53 269.94 6.82 270.58 7.12 C272.71 8.24 272.71 8.24 274.71 10.24 C274.76 12.06 274.76 12.06 274.58 14.24 C274.45 19.08 275.77 22.61 277.73 26.98 C280.04 32.35 280.04 32.35 278.75 35.79 C278.28 36.66 277.81 37.53 277.33 38.43 C276.64 39.75 276.64 39.75 275.93 41.1 C274.71 43.24 274.71 43.24 273.71 44.24 C273.62 45.42 273.54 46.59 273.46 47.81 C272.89 52.71 271.01 56.57 267.71 60.24 C264.96 61.18 264.96 61.18 262.71 61.24 C262.38 61.57 262.05 61.9 261.71 62.24 C257.94 62.59 254.18 62.92 250.41 63.14 C246.36 63.5 244.32 63.7 241.21 66.46 C237.38 73.55 237.33 82.34 237.71 90.24 C238.04 91.23 238.37 92.22 238.71 93.24 C239.17 102.01 238.5 109.93 232.73 116.87 C225.76 121.61 216.28 120.56 208.24 120.58 C206.78 120.59 205.32 120.6 203.86 120.61 C199.9 120.64 195.93 120.66 191.97 120.68 C187.76 120.7 183.55 120.73 179.34 120.76 C172.23 120.8 165.11 120.84 157.99 120.88 C150.8 120.91 143.61 120.95 136.42 121 C69.51 121.46 69.51 121.46 37.56 121 C35.26 120.97 32.95 120.94 30.65 120.91 C27.55 120.88 24.44 120.83 21.34 120.77 C20.46 120.76 19.57 120.75 18.66 120.74 C13.3 120.61 9.46 119.77 4.71 117.24 C1.64 113.19 2.33 108.09 2.71 103.24 C3.46 100.24 3.46 100.24 4.71 98.24 C5.37 97.95 6.03 97.67 6.71 97.37 C9.04 96.32 9.04 96.32 10.02 93.18 C10.82 88.61 10.91 84.74 9.71 80.24 C8.38 78.57 7.05 76.9 5.71 75.24 C5.1 73.37 4.56 71.48 4.07 69.58 C3.81 68.58 3.56 67.58 3.29 66.56 C3.1 65.79 2.9 65.03 2.71 64.24 C2.04 64.26 1.38 64.27 0.69 64.29 C-26.16 64.84 -26.16 64.84 -33.29 61.24 C-36.32 57.84 -37.7 54.8 -38.29 50.24 C-36.78 46.06 -34.87 42.31 -31.13 39.79 C-29.06 38.38 -29.06 38.38 -28.87 35.87 C-28.91 35 -28.94 34.14 -28.98 33.24 C-29.01 32.38 -29.03 31.51 -29.06 30.62 C-29.22 28.1 -29.22 28.1 -30.29 25.24 C-31.26 24.79 -31.26 24.79 -32.24 24.32 C-34.9 22.93 -35.24 21.81 -36.17 18.99 C-37.43 14.72 -37.29 12.32 -35.29 8.24 C-35.03 7.17 -34.76 6.1 -34.48 4.99 C-31.29 0.99 -28.23 1.27 -23.3 0.61 C-15.56 -0.19 -7.77 -0.03 0 0 Z " fill="#F8F5F6" transform="translate(519.29345703125,259.757080078125)"/>
<path d="M0 0 C0.87 0 1.74 0 2.63 0 C4.46 0.01 6.3 0.02 8.13 0.05 C10.93 0.09 13.72 0.09 16.52 0.09 C18.3 0.1 20.09 0.11 21.88 0.12 C22.71 0.13 23.54 0.13 24.39 0.13 C28.97 0.21 32.82 0.57 37.07 2.46 C38.31 4.55 38.31 4.55 38.95 6.96 C39.17 7.75 39.39 8.55 39.62 9.37 C40.07 11.46 40.07 11.46 40.07 13.46 C42.05 13.79 44.03 14.12 46.07 14.46 C46.55 13.61 47.03 12.75 47.53 11.87 C48.48 10.21 48.48 10.21 49.45 8.52 C50.07 7.42 50.7 6.32 51.34 5.18 C53.07 2.46 53.07 2.46 55.07 1.46 C64.57 0.29 74.26 0.28 83.82 0.15 C84.98 0.12 86.13 0.09 87.32 0.06 C88.95 0.05 88.95 0.05 90.62 0.04 C91.6 0.02 92.57 0.01 93.58 -0.01 C96.07 0.46 96.07 0.46 97.9 2.28 C99.42 5.12 99.29 7.29 99.07 10.46 C97.94 10.91 96.8 11.37 95.63 11.84 C92.02 13.03 92.02 13.03 91.07 15.46 C90.34 21.99 91.32 28.48 94.07 34.46 C97.7 36.88 99.45 36.67 103.76 36.59 C104.94 36.57 106.12 36.55 107.33 36.53 C108.24 36.51 109.14 36.48 110.07 36.46 C110.13 35.77 110.19 35.09 110.25 34.38 C110.34 33.48 110.42 32.58 110.51 31.65 C110.63 30.31 110.63 30.31 110.75 28.94 C111.07 26.46 111.07 26.46 112.07 23.46 C111.89 17.48 111.89 17.48 108.7 12.59 C106.07 10.4 106.07 10.4 103.07 8.46 C104.7 2.71 104.7 2.71 108.07 0.46 C110.64 0.28 113.1 0.21 115.66 0.23 C116.82 0.23 116.82 0.23 118 0.23 C120.55 0.23 123.1 0.25 125.64 0.27 C127.41 0.27 129.18 0.27 130.95 0.27 C135.6 0.28 140.25 0.3 144.9 0.32 C149.64 0.34 154.39 0.35 159.13 0.36 C168.45 0.38 177.76 0.42 187.07 0.46 C189.26 4.84 188.25 9.71 187.13 14.27 C184.27 18.69 181.05 19.36 176.07 20.46 C175.74 22.44 175.41 24.42 175.07 26.46 C181.01 27.45 181.01 27.45 187.07 28.46 C187.4 30.77 187.73 33.08 188.07 35.46 C187.41 35.46 186.75 35.46 186.07 35.46 C186.3 36.16 186.52 36.86 186.76 37.59 C187.18 41.46 186.18 43.22 184.07 46.46 C180.28 49.27 177.57 49.84 172.9 49.84 C171.03 49.85 171.03 49.85 169.13 49.86 C167.77 49.85 166.4 49.84 165.03 49.83 C163.58 49.84 162.13 49.84 160.69 49.84 C156.76 49.85 152.83 49.84 148.91 49.83 C144.8 49.82 140.68 49.82 136.57 49.83 C129.66 49.83 122.75 49.82 115.85 49.8 C107.87 49.78 99.89 49.77 91.91 49.78 C84.23 49.78 76.55 49.78 68.86 49.77 C65.6 49.76 62.33 49.76 59.07 49.76 C55.22 49.77 51.37 49.76 47.52 49.74 C46.11 49.74 44.7 49.74 43.29 49.74 C36.48 49.75 30.53 49.64 24.07 47.46 C23.08 47.96 23.08 47.96 22.07 48.46 C18.08 48.81 14.08 48.93 10.08 49.07 C8.11 49.15 6.13 49.24 4.16 49.33 C-3.18 49.6 -9.82 49.38 -16.93 47.46 C-17.57 45.16 -17.57 45.16 -17.93 42.46 C-15.94 39.7 -13.99 37.34 -11.36 35.17 C-7.52 30.59 -6.87 22.2 -6.43 16.34 C-6.63 13.27 -6.63 13.27 -9.3 11.59 C-10.17 11.21 -11.04 10.84 -11.93 10.46 C-12.59 10.13 -13.25 9.8 -13.93 9.46 C-13.61 6.56 -13.11 4.73 -11.44 2.32 C-7.73 -0.42 -4.5 -0.08 0 0 Z " fill="#ECB35F" transform="translate(553.9296875,323.5390625)"/>
<path d="M0 0 C1.75 0.01 3.5 0.01 5.25 0.01 C9.96 0.03 14.68 0.05 19.39 0.07 C22.34 0.08 25.28 0.1 28.23 0.11 C38.52 0.15 48.81 0.2 59.1 0.26 C68.68 0.31 78.27 0.34 87.86 0.37 C96.1 0.4 104.34 0.43 112.59 0.48 C117.5 0.5 122.42 0.53 127.34 0.54 C131.96 0.55 136.57 0.57 141.19 0.61 C142.88 0.62 144.58 0.62 146.27 0.62 C148.58 0.62 150.89 0.64 153.2 0.66 C154.5 0.67 155.79 0.68 157.12 0.68 C160.56 1.09 161.94 1.66 164.36 4.07 C165.49 6.32 165.49 6.32 165.36 9.07 C163.99 11.06 162.48 12.77 160.81 14.52 C157.22 18.37 158.08 23.62 158.02 28.6 C157.82 33.85 156.79 36.87 153.36 41.07 C140.75 52.11 115.94 50.04 100.36 49.07 C92.57 48.05 85.44 45.24 80.36 39.07 C78.03 35.12 78.11 31.59 78.36 27.07 C78.64 26.05 78.64 26.05 78.92 25.01 C79.56 22.19 78.93 19.88 78.36 17.07 C78.18 16.12 77.99 15.17 77.8 14.19 C77.58 13.14 77.58 13.14 77.36 12.07 C72.29 12.44 72.29 12.44 67.99 14.94 C64.82 19.09 65.24 23.28 65.3 28.26 C65.3 29.01 65.31 29.76 65.31 30.53 C65.32 32.38 65.34 34.22 65.36 36.07 C66.5 36.52 67.63 36.98 68.8 37.44 C72.36 39.07 72.36 39.07 73.36 41.07 C73.49 44.13 73.49 44.13 73.36 47.07 C71.64 48.79 69.33 48.23 66.98 48.26 C65.83 48.28 64.67 48.29 63.48 48.31 C62.22 48.32 60.96 48.34 59.67 48.35 C57.69 48.38 55.71 48.41 53.73 48.44 C50.23 48.48 46.73 48.53 43.24 48.57 C39.12 48.62 35 48.67 30.88 48.73 C28.31 48.77 25.75 48.8 23.18 48.83 C15.65 48.93 8.18 49.32 0.66 49.86 C-5.39 50.25 -11.39 50.03 -17.45 49.82 C-18.7 49.79 -19.95 49.77 -21.24 49.74 C-22.43 49.7 -23.62 49.66 -24.85 49.62 C-25.91 49.58 -26.98 49.55 -28.08 49.52 C-29.35 49.3 -29.35 49.3 -30.64 49.07 C-31.3 48.08 -31.96 47.09 -32.64 46.07 C-30.07 41.79 -28.01 39.43 -23.64 37.07 C-20.96 31.72 -22.01 22.65 -23.33 16.88 C-24.91 13.49 -26.39 12.78 -29.64 11.07 C-31.73 8.08 -31.84 5.67 -31.64 2.07 C-23.02 -2.24 -9.55 -0.05 0 0 Z " fill="#EBB35F" transform="translate(528.638671875,265.9306640625)"/>
<path d="M0 0 C0.77 0.03 1.53 0.06 2.32 0.09 C9.42 0.47 9.42 0.47 12.31 2.62 C13.75 6.93 13.13 11 12.86 15.5 C13.02 18.84 13.02 18.84 15.83 21.04 C16.65 21.56 17.47 22.08 18.31 22.62 C17.92 25.95 17.39 27.53 15.25 30.19 C12.74 34.64 13.12 37.91 13.46 42.92 C13.31 45.62 13.31 45.62 12.07 47.27 C9.88 48.96 8.74 49 6 49.01 C5.13 49.02 4.27 49.03 3.37 49.04 C2.43 49.04 1.49 49.03 0.52 49.02 C-0.95 49.03 -0.95 49.03 -2.45 49.03 C-4.53 49.03 -6.61 49.03 -8.69 49.02 C-11.82 49 -14.95 49.02 -18.08 49.04 C-35.68 49.05 -53.29 48.64 -67.06 36.41 C-70.58 32.56 -71.21 29.08 -71.05 23.99 C-69.99 17.06 -65.54 13.27 -60.12 9.25 C-54.44 5.29 -49.89 3.27 -43.06 2.06 C-41.98 1.87 -41.98 1.87 -40.89 1.67 C-27.25 -0.73 -13.79 -0.64 0 0 Z " fill="#EDB460" transform="translate(762.6875,266.375)"/>
<path d="M0 0 C2.16 3.24 2.25 4.12 2.23 7.85 C2.23 8.78 2.23 9.72 2.22 10.68 C2.21 11.65 2.2 12.62 2.19 13.62 C2.19 14.6 2.19 15.58 2.19 16.59 C2.14 23.86 2.14 23.86 1 25 C-2.56 25.4 -4.62 25.18 -7.88 23.62 C-10.66 20.18 -10.53 18 -10.29 13.67 C-9.13 2.99 -9.13 2.99 -5.56 -0.12 C-3 -1 -3 -1 0 0 Z " fill="#F9F6F7" transform="translate(653,278)"/>
<path d="M0 0 C1.5 0.01 1.5 0.01 3.04 0.03 C3.81 0.04 4.58 0.05 5.38 0.06 C5.76 2.39 6.09 4.72 6.38 7.06 C5.38 8.06 5.38 8.06 2.72 8.2 C1.64 8.19 0.55 8.19 -0.56 8.19 C-2.18 8.19 -2.18 8.19 -3.84 8.2 C-6.62 8.06 -6.62 8.06 -8.62 7.06 C-8.25 4.12 -8.25 4.12 -7.62 1.06 C-4.98 -0.26 -2.95 -0.03 0 0 Z " fill="#F9F6F7" transform="translate(550.625,296.9375)"/>
<path d="M0 0 C1.25 2.56 1.25 2.56 2 5 C-4.75 7 -4.75 7 -7 7 C-7.33 9.64 -7.66 12.28 -8 15 C-9.32 14.67 -10.64 14.34 -12 14 C-12.37 8.93 -11.48 5.45 -9 1 C-5.88 -0.92 -3.36 -1.74 0 0 Z " fill="#F9F6F7" transform="translate(743,281)"/>
<path d="M0 0 C1.81 1.75 1.81 1.75 3 4 C3 5.32 3 6.64 3 8 C1.06 8.08 -0.87 8.14 -2.81 8.19 C-3.89 8.22 -4.97 8.26 -6.08 8.29 C-9 8 -9 8 -10.89 6.49 C-11.44 5.75 -11.44 5.75 -12 5 C-8.32 1.07 -5.51 -0.69 0 0 Z " fill="#F9F6F7" transform="translate(554,277)"/>
<path d="M0 0 C-0.88 3.88 -0.88 3.88 -2 5 C-8.53 5.24 -8.53 5.24 -11 4 C-11 2.68 -11 1.36 -11 0 C-7.08 -2.83 -4.32 -1.5 0 0 Z " fill="#F9F6F7" transform="translate(714,354)"/>
<path d="M0 0 C2 1.81 2 1.81 4 4 C4 4.99 4 5.98 4 7 C1.69 6.67 -0.62 6.34 -3 6 C-3 4.68 -3 3.36 -3 2 C-2.01 1.34 -1.02 0.68 0 0 Z " fill="#F9F6F7" transform="translate(708,335)"/>
<path d="" fill="#446E4A" transform="translate(0,0)"/>
<path d="" fill="#F9F6F7" transform="translate(0,0)"/>
</svg>
