<?xml version="1.0" encoding="UTF-8"?>
<!-- Generator: visioncortex VTracer 0.6.3 -->
<svg version="1.1" xmlns="http://www.w3.org/2000/svg" width="1280" height="640">
<path d="M0 0 C0.89 0.2 1.78 0.41 2.7 0.62 C3.72 0.87 3.72 0.87 4.75 1.12 C4.71 2.03 4.67 2.94 4.62 3.88 C4.5 6.99 4.5 6.99 5.74 8.95 C9.15 16.31 7.02 28.56 4.75 36.12 C3.33 38.72 1.79 41.03 -0.01 43.38 C-1.44 45.04 -1.44 45.04 -1.25 47.12 C2.71 47.12 6.67 47.12 10.75 47.12 C10.75 47.78 10.75 48.44 10.75 49.12 C11.56 49.02 12.37 48.91 13.2 48.8 C14.27 48.68 15.34 48.56 16.44 48.44 C17.49 48.31 18.55 48.18 19.64 48.05 C23.27 48.14 24.89 48.95 27.75 51.12 C29.46 54.07 29.83 55.55 29.38 58.94 C29.17 59.66 28.96 60.38 28.75 61.12 C27.26 61.62 27.26 61.62 25.75 62.12 C25.44 63.24 25.44 63.24 25.12 64.38 C23.25 68.13 20.72 69.08 17.04 70.91 C14.74 72.13 12.81 73.55 10.75 75.12 C7.05 76.71 4.66 75.93 1.06 74.5 C-2.08 73 -3.05 72.48 -4.81 69.38 C-4.96 68.63 -5.1 67.89 -5.25 67.12 C-5.91 67.12 -6.57 67.12 -7.25 67.12 C-9.52 62.85 -10.41 61.13 -9.62 56.25 C-8.94 54.7 -8.94 54.7 -8.25 53.12 C-6.76 52.63 -6.76 52.63 -5.25 52.12 C-4.92 51.47 -4.59 50.81 -4.25 50.12 C-6.89 50.45 -9.53 50.78 -12.25 51.12 C-12.58 52.12 -12.91 53.11 -13.25 54.12 C-14.96 54.82 -14.96 54.82 -17.19 55.25 C-17.99 55.41 -18.8 55.56 -19.62 55.73 C-23.13 56.26 -26.64 56.56 -30.18 56.78 C-32.47 56.96 -32.47 56.96 -34.25 59.12 C-33.92 59.78 -33.59 60.44 -33.25 61.12 C-33.28 65.32 -33.57 69.04 -35.81 72.62 C-37.95 76.35 -37.5 79.93 -37.25 84.12 C-36.49 83.3 -35.72 82.48 -34.94 81.62 C-31.17 78.5 -27.86 78.61 -23.11 78.8 C-20.38 79.11 -17.85 79.65 -15.19 80.31 C-10.32 81.45 -7.14 80.39 -2.52 78.74 C0.78 77.85 2.82 78.47 5.75 80.12 C6.08 81.12 6.41 82.11 6.75 83.12 C9.06 83.12 11.37 83.12 13.75 83.12 C14 82.51 14.25 81.89 14.5 81.25 C16.06 78.6 16.79 77.98 19.75 77.12 C23.58 77.06 26.68 77.34 29.81 79.62 C31.27 83.51 30.46 87.11 29.75 91.12 C31.61 91.83 31.61 91.83 33.75 92.12 C38.09 88.42 41.35 84.28 43.75 79.12 C44.74 79.12 45.73 79.12 46.75 79.12 C47.41 78.8 48.07 78.47 48.75 78.12 C50.79 78.05 52.83 78.04 54.88 78.06 C55.97 78.07 57.07 78.08 58.2 78.09 C59.04 78.1 59.88 78.11 60.75 78.12 C61.08 77.47 61.41 76.81 61.75 76.12 C62.73 77.22 63.71 78.33 64.69 79.44 C65.51 80.36 65.51 80.36 66.34 81.3 C68.71 84.37 68.81 86.85 68.62 90.56 C68.58 93.65 68.63 94.91 70.12 97.69 C71.64 99.35 71.64 99.35 73.75 99.12 C74.08 98.47 74.41 97.81 74.75 97.12 C78.12 97 78.12 97 81.75 97.12 C83.75 99.12 83.75 99.12 83.88 102.38 C82.32 107.57 79.34 109.47 74.75 112.12 C73.84 112.41 72.93 112.7 72 113 C69.03 114.49 68 116.5 66.64 119.46 C65.54 122.77 65.01 126.06 64.44 129.5 C62.56 139.72 57.29 147.22 48.75 153.12 C46.78 154.18 44.79 155.2 42.75 156.12 C42.42 156.46 42.09 156.78 41.75 157.12 C29.83 159.11 20.82 158.61 10.77 151.62 C10.1 151.13 9.44 150.63 8.75 150.12 C8.91 142.98 9.66 139.22 14.75 134.12 C15.29 133.36 15.82 132.6 16.38 131.81 C17.75 130.12 17.75 130.12 20.75 129.12 C21.02 128.34 21.29 127.56 21.56 126.75 C23.17 123.2 25.24 122.58 28.75 121.12 C28.75 120.47 28.75 119.81 28.75 119.12 C32.12 117.63 33.95 117.12 37.75 117.12 C39.88 116.97 39.88 116.97 41.75 116.12 C42.92 114.21 42.92 114.21 43.75 112.12 C44.41 111.47 45.07 110.81 45.75 110.12 C45.99 108.14 45.99 108.14 45.88 106 C45.81 104.08 45.81 104.08 45.75 102.12 C44.46 102.74 44.46 102.74 43.15 103.37 C32.67 108.31 32.67 108.31 28.81 109.25 C25.21 110.28 22.78 111.95 19.75 114.12 C13.25 118.15 8.56 120.36 0.75 119.12 C-1.72 117.74 -3.2 116.17 -5.25 114.12 C-8.93 111.59 -8.93 111.59 -13.25 111.12 C-14.74 112.12 -14.74 112.12 -16.25 113.12 C-24.28 115.15 -31.08 115.16 -38.44 111.12 C-40.06 110.15 -41.66 109.16 -43.25 108.12 C-43.41 109.59 -43.41 109.59 -43.58 111.08 C-43.74 112.35 -43.9 113.63 -44.06 114.94 C-44.29 116.83 -44.29 116.83 -44.52 118.77 C-45.23 122.05 -45.54 123.25 -48.25 125.12 C-50.96 125.73 -52.58 125.46 -55.06 124.21 C-58.48 122.01 -60.03 120.62 -61.69 116.81 C-61.87 115.93 -62.06 115.04 -62.25 114.12 C-63.84 114.38 -65.42 114.66 -67 114.94 C-67.88 115.09 -68.76 115.24 -69.67 115.39 C-72.47 116.19 -73.98 117.35 -76.25 119.12 C-78.33 119.9 -78.33 119.9 -80.5 120.5 C-83.83 121.52 -86.34 122.74 -89.19 124.75 C-94.99 128.56 -101.28 128.63 -108 127.62 C-112.88 126.36 -115.72 123.41 -118.25 119.12 C-118.91 116.9 -118.91 116.9 -119.25 115.12 C-120.57 114.8 -121.89 114.47 -123.25 114.12 C-123.59 114.56 -123.93 115 -124.28 115.45 C-133.14 126.33 -133.14 126.33 -139.29 127.52 C-143.76 127.34 -146.1 125.66 -149.25 122.56 C-150.27 121.43 -151.27 120.29 -152.25 119.12 C-152.95 119.91 -153.65 120.69 -154.38 121.5 C-158.4 125.18 -161.96 126.2 -167.31 126.44 C-171.43 126.11 -173.05 125.63 -176.25 123.12 C-177.14 122.44 -178.02 121.76 -178.94 121.06 C-183.41 115.38 -183.56 108.15 -183.25 101.12 C-186.43 102.6 -189.14 104.04 -191.88 106.25 C-194.13 108.03 -195.45 108.71 -198.25 109.12 C-198.31 109.74 -198.37 110.36 -198.44 111 C-198.71 111.7 -198.97 112.4 -199.25 113.12 C-200.05 113.41 -200.86 113.7 -201.69 114 C-202.53 114.37 -203.38 114.74 -204.25 115.12 C-204.96 117.11 -205.62 119.11 -206.25 121.12 C-208.56 123.81 -208.56 123.81 -211.25 126.12 C-211.99 126.76 -212.74 127.4 -213.5 128.06 C-217.7 129.69 -221.09 128.57 -225.25 127.12 C-228.31 125.5 -228.31 125.5 -230.25 124.12 C-233.22 125.84 -235.97 127.67 -238.69 129.75 C-241.9 132.05 -244.24 132.88 -248.25 133.12 C-249.27 133.25 -249.27 133.25 -250.31 133.38 C-256.11 133.85 -259.83 132.36 -264.49 128.9 C-266.25 127.12 -266.25 127.12 -267.38 123.69 C-267.25 120.09 -266.86 116.67 -266.25 113.12 C-266.25 110.5 -266.56 108.62 -267.25 106.12 C-265.27 105.8 -263.29 105.47 -261.25 105.12 C-260.59 101.5 -259.93 97.87 -259.25 94.12 C-262.18 93.9 -262.18 93.9 -264.25 95.12 C-264.35 95.87 -264.46 96.61 -264.56 97.38 C-265.79 102.29 -270.12 105.42 -274.25 108.12 C-274.91 108.12 -275.57 108.12 -276.25 108.12 C-275.75 112.09 -275.75 112.09 -275.25 116.12 C-274.65 116.23 -274.05 116.33 -273.44 116.44 C-270.86 117.25 -269.93 118.03 -268.25 120.12 C-267.48 124.17 -267.8 128 -269.31 131.81 C-272.68 135.83 -276.07 139.48 -281.19 141 C-281.87 141.04 -282.55 141.08 -283.25 141.12 C-283.25 141.78 -283.25 142.44 -283.25 143.12 C-288.09 145.95 -292.99 147.16 -298.43 148.43 C-301.33 149.08 -301.33 149.08 -304.31 150.31 C-308.14 151.37 -311.68 151.21 -315.64 151.12 C-318.37 151.04 -318.37 151.04 -321.5 151.75 C-325.32 152.27 -327.7 151.61 -331.25 150.12 C-333.18 148.25 -334.64 146.3 -336.25 144.12 C-336.58 144.12 -336.91 144.12 -337.25 144.12 C-337.39 129.1 -336.99 114.14 -336.25 99.12 C-335.59 99.12 -334.93 99.12 -334.25 99.12 C-333.79 97.31 -333.33 95.5 -332.88 93.69 C-332.59 92.59 -332.31 91.49 -332.02 90.35 C-331.4 87.75 -330.93 85.2 -330.5 82.56 C-329.04 76.04 -325.53 69.51 -320.07 65.54 C-315.01 63.07 -310.79 62.94 -305.25 63.12 C-302.84 62.26 -302.84 62.26 -301.25 61.12 C-301.25 60.8 -301.25 60.47 -301.25 60.12 C-296.13 60.03 -291.04 60.05 -285.94 60.44 C-284.77 60.52 -284.77 60.52 -283.57 60.61 C-280.71 61.24 -278.75 62.6 -276.25 64.12 C-274.45 64.7 -272.63 65.24 -270.81 65.75 C-265.55 67.62 -263.16 69.79 -260.4 74.6 C-258.55 78.66 -257.28 82.79 -256.25 87.12 C-254.6 86.8 -252.95 86.47 -251.25 86.12 C-250.75 84.64 -250.75 84.64 -250.25 83.12 C-249.92 83.78 -249.59 84.44 -249.25 85.12 C-248.59 85.12 -247.93 85.12 -247.25 85.12 C-247.25 85.78 -247.25 86.44 -247.25 87.12 C-245.27 88.12 -245.27 88.12 -243.25 89.12 C-243.25 98.69 -243.25 108.26 -243.25 118.12 C-237.35 114.64 -237.35 114.64 -235.38 109.38 C-235.15 108.58 -234.93 107.78 -234.7 106.95 C-234.55 106.35 -234.4 105.75 -234.25 105.12 C-233.26 106.61 -233.26 106.61 -232.25 108.12 C-231.82 107.13 -231.38 106.14 -230.94 105.12 C-230.66 104.49 -230.37 103.85 -230.08 103.19 C-229.22 101.16 -229.22 101.16 -228.7 99.09 C-227.15 93.61 -224.47 90.91 -219.59 88 C-217.25 87.12 -217.25 87.12 -213.5 87.94 C-210.31 90.09 -207.82 92.26 -205.25 95.12 C-204.59 95.78 -203.93 96.44 -203.25 97.12 C-202.59 96.38 -201.93 95.64 -201.25 94.88 C-198.57 92.19 -195.74 90.7 -192.32 89.11 C-189.19 87.62 -186.24 85.87 -183.25 84.12 C-184.08 83.18 -184.9 82.23 -185.75 81.25 C-188.25 78.38 -188.25 78.38 -188.25 76.12 C-185.42 74.58 -182.85 73.7 -179.69 73.06 C-174.74 72.34 -174.74 72.34 -171.04 69.42 C-170.65 68.72 -170.27 68.03 -169.88 67.31 C-167.75 63.78 -165.89 61.25 -162.25 59.12 C-158.05 58.32 -156.55 58.94 -152.88 61.19 C-150.25 64.12 -150.25 64.12 -149.88 67.94 C-150 68.99 -150.12 70.04 -150.25 71.12 C-146.63 72.62 -142.97 73.91 -139.25 75.12 C-139 74.01 -138.75 72.9 -138.5 71.75 C-137.25 68.12 -137.25 68.12 -135.25 67.06 C-134.59 66.75 -133.93 66.44 -133.25 66.12 C-132.02 63.12 -132.02 63.12 -131.25 60.12 C-129.6 58.48 -127.7 58.91 -125.44 58.88 C-124.56 58.85 -123.69 58.82 -122.79 58.8 C-119.7 59.2 -118.39 59.87 -116.25 62.12 C-115.79 64.46 -115.79 64.46 -115.88 67.06 C-115.89 67.92 -115.9 68.77 -115.91 69.65 C-116.27 72.24 -116.86 73.92 -118.25 76.12 C-119.24 76.62 -119.24 76.62 -120.25 77.12 C-120.97 78.99 -121.6 80.9 -122.19 82.81 C-123.27 86.25 -124.31 89.24 -126 92.44 C-127.56 95.8 -127.47 98.46 -127.25 102.12 C-126.67 101.51 -126.1 100.89 -125.5 100.25 C-123.41 98.28 -121.79 97.35 -119.25 96.12 C-118.78 95.63 -118.3 95.13 -117.81 94.62 C-114.05 91.01 -109.69 90.87 -104.69 90.94 C-103.01 90.95 -103.01 90.95 -101.31 90.96 C-98.25 91.12 -98.25 91.12 -96.01 91.71 C-94.06 92.36 -94.06 92.36 -91.69 90.88 C-89.29 89.26 -89.29 89.26 -87.62 87.5 C-84.68 84.55 -81.06 85 -77.14 84.99 C-76.37 84.99 -75.6 85 -74.81 85 C-74.05 85 -73.28 84.99 -72.5 84.99 C-71.76 84.99 -71.02 84.99 -70.25 84.99 C-69.58 84.99 -68.91 84.99 -68.22 85 C-66.13 85.13 -64.26 85.56 -62.25 86.12 C-62.17 85.2 -62.09 84.27 -62 83.31 C-61.25 80.12 -61.25 80.12 -59.29 78.72 C-56.76 76.74 -56.55 75.53 -55.88 72.44 C-54.14 65.94 -50.7 61.51 -45.94 56.88 C-44.03 54.9 -43.42 53.86 -43.25 51.12 C-43.58 50.47 -43.91 49.81 -44.25 49.12 C-45.25 47.13 -45.25 47.13 -45.19 45 C-44.25 43.12 -44.25 43.12 -42 41.81 C-38.9 41.04 -37.28 41.19 -34.25 42.12 C-33.63 42.52 -33 42.91 -32.36 43.32 C-30.24 44.41 -30.24 44.41 -28.11 43.23 C-27.41 42.74 -26.72 42.25 -26 41.75 C-25.29 41.27 -24.59 40.79 -23.86 40.29 C-23.33 39.9 -22.8 39.52 -22.25 39.12 C-23.22 37.93 -23.22 37.93 -25.01 38.06 C-25.77 38.08 -26.52 38.11 -27.29 38.13 C-28.53 38.16 -28.53 38.16 -29.8 38.18 C-31.54 38.23 -33.28 38.28 -35.02 38.34 C-40.19 38.43 -43.81 38.12 -48.25 35.12 C-50.12 31.94 -50.12 31.94 -51.25 29.12 C-54.78 30.01 -56.78 30.52 -59.06 33.44 C-64.1 39.63 -72.84 42.62 -80.25 45.12 C-80.91 45.12 -81.57 45.12 -82.25 45.12 C-82.44 45.75 -82.64 46.38 -82.84 47.02 C-83.1 47.84 -83.36 48.66 -83.62 49.5 C-83.88 50.31 -84.14 51.12 -84.4 51.96 C-85.25 54.12 -85.25 54.12 -87.25 56.12 C-94.2 57.72 -94.2 57.72 -97.9 55.62 C-100.88 52.46 -101.45 49.52 -102.06 45.38 C-102.18 44.68 -102.3 43.98 -102.43 43.26 C-102.72 41.55 -102.99 39.84 -103.25 38.12 C-107.38 37.9 -109.7 37.97 -113 40.5 C-117.48 43.57 -121.93 44.4 -127.25 45.12 C-127.54 46.01 -127.83 46.9 -128.12 47.81 C-128.68 49.45 -128.68 49.45 -129.25 51.12 C-129.44 51.97 -129.62 52.82 -129.81 53.69 C-132.15 57.66 -136.19 59.16 -140.25 61.12 C-141.08 60.49 -141.9 59.85 -142.75 59.19 C-146.41 56.76 -149.88 55.99 -154.25 56.12 C-155.77 56.65 -155.77 56.65 -157.31 57.19 C-161.33 58.47 -163.4 57.74 -167.25 56.12 C-169.79 53.92 -171.74 52.14 -173.25 49.12 C-176.99 49.55 -180.63 50.07 -184.25 51.12 C-186.15 53.43 -186.15 53.43 -187.25 56.12 C-190.64 58.7 -194.07 61.16 -198.25 62.12 C-202 60.48 -204.39 57.99 -207.25 55.12 C-208.24 54.8 -209.23 54.47 -210.25 54.12 C-210.85 55.22 -211.45 56.31 -212.06 57.44 C-213.54 60.04 -214.95 62.17 -217.25 64.12 C-216.48 65.18 -216.48 65.18 -215.69 66.25 C-213.89 69.85 -214.16 71.3 -215.25 75.12 C-217.05 79.33 -219.29 82.65 -222.25 86.12 C-234.46 83.98 -234.46 83.98 -239.25 80.12 C-241.23 77.29 -242.66 74.55 -243.25 71.12 C-242.77 68.58 -242.77 68.58 -241.25 66.12 C-238.89 64.63 -236.77 63.46 -234.25 62.31 C-233.29 61.85 -233.29 61.85 -232.3 61.37 C-227.59 59.12 -227.59 59.12 -225.25 59.12 C-225.72 58.34 -226.2 57.56 -226.69 56.75 C-228.65 52.2 -228.97 48.03 -229.25 43.12 C-236.55 42.72 -236.55 42.72 -243.25 45.12 C-244.24 47.55 -244.85 49.96 -245.47 52.51 C-246.65 56.45 -248.63 58.97 -251.25 62.12 C-254.75 63.88 -258.52 62.95 -262.25 62.12 C-264.81 60.62 -264.81 60.62 -266.25 58.12 C-266.56 55.09 -266.48 52.16 -266.25 49.12 C-266.91 48.8 -267.57 48.47 -268.25 48.12 C-267.59 48.12 -266.93 48.12 -266.25 48.12 C-266.25 43.5 -266.25 38.88 -266.25 34.12 C-265.26 33.8 -264.27 33.47 -263.25 33.12 C-262.22 30.67 -262.22 30.67 -261.56 27.75 C-261.31 26.77 -261.06 25.8 -260.8 24.79 C-260.15 22.09 -260.15 22.09 -260.25 19.12 C-260 16.06 -260 16.06 -259.25 13.12 C-257.38 11.94 -257.38 11.94 -255.25 11.12 C-254.75 10.61 -254.26 10.09 -253.75 9.56 C-251.9 7.79 -250.77 7.51 -248.25 7.12 C-246.18 7.58 -246.18 7.58 -244.12 8.38 C-243.44 8.63 -242.76 8.88 -242.05 9.14 C-240.25 10.12 -240.25 10.12 -238.25 13.12 C-238.09 15.97 -238.09 15.97 -238.19 19.19 C-238.44 23.31 -238.44 23.31 -237.25 27.12 C-235.23 27.78 -235.23 27.78 -233.25 28.12 C-232.75 26.64 -232.75 26.64 -232.25 25.12 C-232.25 26.12 -232.25 27.11 -232.25 28.12 C-226.79 25.55 -224.47 21.47 -222.48 16 C-222.24 15.3 -222 14.6 -221.75 13.88 C-220.87 11.47 -220.23 10.11 -218.56 8.12 C-215.1 6.63 -211.96 6.58 -208.25 7.12 C-205.81 8.25 -205.81 8.25 -204.25 10.12 C-202.86 15.47 -203.53 20.35 -204.19 25.75 C-205.02 33.24 -205.53 40.58 -205.25 48.12 C-204.59 48.12 -203.93 48.12 -203.25 48.12 C-203.24 47.32 -203.22 46.51 -203.21 45.68 C-202.77 35.86 -202.77 35.86 -199.75 33 C-198.92 32.38 -198.1 31.76 -197.25 31.12 C-196.92 30.46 -196.59 29.81 -196.25 29.12 C-196.91 28.8 -197.57 28.46 -198.25 28.12 C-197.59 27.46 -196.93 26.81 -196.25 26.12 C-195.94 25.46 -195.63 24.81 -195.31 24.12 C-194.25 22.12 -194.25 22.12 -191.25 20.12 C-190.71 18.95 -190.18 17.77 -189.62 16.56 C-186.96 10.87 -181.94 4.97 -176.25 2.12 C-172.19 1.65 -168.3 1.56 -164.25 2.12 C-161.25 4.75 -161.25 4.75 -159.25 8.12 C-158.55 8.97 -157.85 9.82 -157.12 10.69 C-154.31 15.86 -153.38 21.38 -152.25 27.12 C-151.31 24.98 -150.37 22.84 -149.44 20.69 C-149.16 20.05 -148.88 19.41 -148.59 18.76 C-147.05 15.19 -145.8 11.69 -144.81 7.94 C-143.7 4.46 -143.35 4.19 -140.06 2 C-135.18 0.88 -130.86 0.82 -126.25 3.12 C-125.92 2.47 -125.59 1.81 -125.25 1.12 C-123.83 1.24 -122.42 1.37 -121 1.5 C-119.82 1.6 -119.82 1.6 -118.61 1.71 C-114.42 2.45 -111.11 4.73 -107.56 7 C-106.77 7.49 -105.99 7.98 -105.18 8.49 C-103 10.33 -102.6 11.35 -102.25 14.12 C-100.93 13.8 -99.61 13.46 -98.25 13.12 C-98.25 12.46 -98.25 11.81 -98.25 11.12 C-96.97 9.74 -95.62 8.42 -94.25 7.12 C-93.55 6.2 -92.85 5.27 -92.12 4.31 C-88.77 1.76 -87.97 1.9 -83.94 2.31 C-82.37 2.56 -80.81 2.82 -79.25 3.12 C-78.92 2.47 -78.59 1.81 -78.25 1.12 C-75.92 2.03 -73.63 2.93 -71.4 4.08 C-68.2 5.64 -64.84 6.75 -61.49 7.93 C-58.84 9.34 -58.43 10.44 -57.25 13.12 C-54.79 14.36 -54.79 14.36 -52.25 15.12 C-51.59 15.45 -50.93 15.79 -50.25 16.12 C-50.09 15.45 -49.93 14.77 -49.77 14.08 C-47.87 6.81 -47.87 6.81 -44.94 3.56 C-41.23 1.58 -38.21 0.62 -34.06 1.69 C-31.26 3.91 -30.48 5.73 -29.25 9.12 C-28.97 12.23 -28.81 15.3 -28.75 18.42 C-28.5 21.27 -28.5 21.27 -26.21 22.99 C-25.57 23.36 -24.92 23.74 -24.25 24.12 C-21.2 23.01 -19.56 22.33 -17.25 20.12 C-15.92 16.89 -15.04 13.65 -14.14 10.27 C-12.9 5.88 -11.36 2.53 -7.45 -0.07 C-4.6 -1.11 -2.93 -0.69 0 0 Z M-76.25 12.12 C-78.03 14.87 -79.38 16.96 -79 20.3 C-78.5 22.27 -77.88 24.2 -77.25 26.12 C-76.59 26.12 -75.93 26.12 -75.25 26.12 C-74.94 25.2 -74.63 24.27 -74.31 23.31 C-73.62 21.25 -72.94 19.19 -72.25 17.12 C-74.12 14.43 -74.12 14.43 -76.25 12.12 Z M-127.25 14.12 C-128.23 18.18 -128.49 21.96 -128.25 26.12 C-127.59 26.79 -126.93 27.44 -126.25 28.12 C-123.94 27.46 -121.63 26.81 -119.25 26.12 C-117.95 19.84 -117.95 19.84 -120.25 14.12 C-122.56 14.12 -124.87 14.12 -127.25 14.12 Z M-72.25 18.12 C-72.25 18.79 -72.25 19.44 -72.25 20.12 C-71.59 19.8 -70.93 19.46 -70.25 19.12 C-70.91 18.8 -71.57 18.46 -72.25 18.12 Z M-172.25 27.12 C-173.24 29.11 -174.23 31.08 -175.25 33.12 C-173.27 34.12 -173.27 34.12 -171.25 35.12 C-170.56 32.77 -170.56 32.77 -170.25 30.12 C-170.91 29.13 -171.57 28.14 -172.25 27.12 Z M-302.62 76.12 C-307.12 84.42 -308.58 92.77 -309.25 102.12 C-308.92 103.12 -308.59 104.11 -308.25 105.12 C-301.92 104.8 -298.84 103.54 -294.25 99.12 C-293.58 98.58 -292.9 98.04 -292.21 97.48 C-287.68 93.82 -284.87 90.9 -283.25 85.12 C-283.04 82.4 -283.11 79.86 -283.25 77.12 C-284.24 77.62 -284.24 77.62 -285.25 78.12 C-285.58 77.13 -285.91 76.14 -286.25 75.12 C-291.7 73.72 -298.09 72.31 -302.62 76.12 Z M-154.25 86.12 C-155.09 86.63 -155.92 87.13 -156.78 87.64 C-160.35 91.23 -160.63 94.73 -161.31 99.62 C-161.47 100.48 -161.62 101.33 -161.78 102.21 C-162.62 107.23 -162.62 107.23 -160.51 111.67 C-157.76 113.44 -155.48 113.83 -152.25 114.12 C-149.91 110.46 -150.18 107.38 -150.25 103.12 C-149.8 99.22 -148.75 97.14 -146.25 94.12 C-145.05 91.72 -145.15 90.18 -145.19 87.5 C-145.2 86.68 -145.21 85.87 -145.21 85.02 C-145.23 84.4 -145.24 83.77 -145.25 83.12 C-149.66 83.12 -150.72 83.71 -154.25 86.12 Z M-25.25 93.12 C-26.5 96.45 -26.36 98.78 -25.25 102.12 C-21.46 101.83 -18.9 101.58 -15.75 99.38 C-13.99 97.22 -13.99 97.22 -14.38 94.56 C-15.21 91.92 -15.21 91.92 -17.25 89.12 C-20.67 89.12 -22.64 91.07 -25.25 93.12 Z M-76.25 98.12 C-78.11 100.53 -78.11 100.53 -79.25 103.12 C-77.93 104.12 -76.61 105.11 -75.25 106.12 C-73.6 105.13 -71.95 104.14 -70.25 103.12 C-70.58 101.48 -70.91 99.82 -71.25 98.12 C-73.62 97.71 -73.62 97.71 -76.25 98.12 Z M11.75 100.12 C11.42 101.12 11.09 102.11 10.75 103.12 C12.73 104.12 12.73 104.12 14.75 105.12 C14.42 103.48 14.09 101.82 13.75 100.12 C13.09 100.12 12.43 100.12 11.75 100.12 Z M-314.25 127.12 C-316.5 129.88 -316.5 129.88 -316.19 132.69 C-315.45 135.25 -315.45 135.25 -313.25 136.62 C-308.77 137.37 -305.29 136.06 -301.25 134.12 C-298.74 132.13 -298.74 132.13 -297.25 130.12 C-296.59 130.46 -295.93 130.78 -295.25 131.12 C-293.23 130.52 -291.23 129.86 -289.25 129.12 C-290.88 125.38 -290.88 125.38 -293.25 122.12 C-301.07 121 -307.59 123.02 -314.25 127.12 Z M38.75 128.12 C38.1 129.05 38.1 129.05 37.44 130 C35.75 132.12 35.75 132.12 33.81 133.06 C31.01 134.51 29.65 136.65 27.75 139.12 C26.76 139.62 26.76 139.62 25.75 140.12 C24.59 145.27 24.59 145.27 25.75 150.12 C30.81 148.86 32.67 147.24 35.75 143.12 C36.47 142.77 37.19 142.42 37.94 142.06 C39.93 141.29 39.93 141.29 40.44 139.25 C40.59 138.2 40.59 138.2 40.75 137.12 C41.09 136.17 41.09 136.17 41.44 135.19 C41.86 132.38 40.94 130.65 39.75 128.12 C39.42 128.12 39.09 128.12 38.75 128.12 Z " fill="#F8461C" transform="translate(770.25,245.875)"/>
<path d="M0 0 C2.25 2.39 3.89 4.81 5.56 7.62 C6.88 10.01 6.88 10.01 8.69 11.69 C9.12 12.12 9.55 12.55 10 13 C10 13.66 10 14.32 10 15 C10.91 15.25 11.82 15.5 12.75 15.75 C16.1 17.04 17.68 18.32 20 21 C16.8 25.08 14.46 26.33 9.38 27.5 C4.96 28.43 4.96 28.43 1.94 31.69 C1.47 32.83 1.47 32.83 1 34 C0.34 34 -0.32 34 -1 34 C-1.31 35.08 -1.31 35.08 -1.62 36.19 C-3.45 39.93 -5.7 41.49 -9 44 C-16.53 41.69 -16.53 41.69 -18.5 38.81 C-18.67 38.21 -18.83 37.62 -19 37 C-19.91 37.21 -20.81 37.41 -21.75 37.62 C-25.11 38.01 -26.24 37.8 -29 36 C-29 38.64 -29 41.28 -29 44 C-28.38 44.19 -27.76 44.37 -27.12 44.56 C-25 46 -25 46 -23.62 49.44 C-23 53 -23 53 -25 56 C-25.74 56.08 -26.49 56.17 -27.25 56.25 C-30.99 57.27 -32.17 59.4 -34.53 62.36 C-36.43 64.48 -38.35 65.05 -41 66 C-43.56 68.31 -43.56 68.31 -46 71 C-50.67 75.89 -50.67 75.89 -54 77 C-54.31 77.95 -54.62 78.9 -54.94 79.88 C-56 83 -56 83 -57.69 84.88 C-60.86 86.42 -63.53 86.2 -67 86 C-67.12 85.2 -67.25 84.39 -67.38 83.56 C-67.58 82.72 -67.79 81.87 -68 81 C-68.66 80.67 -69.32 80.34 -70 80 C-69.4 79.18 -68.8 78.35 -68.19 77.5 C-65.75 73.88 -64.42 70.12 -63 66 C-66.93 65.56 -66.93 65.56 -68.94 67.69 C-69.62 68.45 -70.3 69.21 -71 70 C-72.21 71.18 -72.21 71.18 -73.44 72.38 C-76.74 75.75 -79.84 79.23 -82.44 83.19 C-84.64 85.74 -86.88 86.79 -90 88 C-92.25 87.94 -92.25 87.94 -94 87 C-96.59 83.63 -96.16 80.1 -96 76 C-95.37 75.76 -94.74 75.52 -94.09 75.27 C-91.85 74.18 -91.85 74.18 -91.13 71.98 C-90.75 70.41 -90.38 68.85 -90 67.29 C-88.66 64.22 -86.65 63.02 -84 61 C-82.56 59.33 -81.16 57.62 -79.81 55.88 C-76.13 51.13 -76.13 51.13 -74 49 C-73.34 49 -72.68 49 -72 49 C-71.61 48.03 -71.22 47.06 -70.81 46.06 C-69 43 -69 43 -66.38 42.25 C-65.59 42.17 -64.81 42.09 -64 42 C-63.5 41.01 -63.5 41.01 -63 40 C-62.01 40 -61.02 40 -60 40 C-58.96 38.7 -57.96 37.36 -57 36 C-56.01 35.34 -55.02 34.68 -54 34 C-54.76 33.73 -55.53 33.46 -56.31 33.19 C-58.87 32.06 -60.2 31.09 -62 29 C-61.31 26.13 -61.31 26.13 -60 23 C-57.38 21.62 -57.38 21.62 -55 21 C-55.34 19.45 -55.34 19.45 -55.69 17.88 C-56.05 13.32 -55.79 11.61 -53 8 C-47.23 4.57 -41.1 4.87 -34.6 5.01 C-25.13 4.98 -15.67 4.01 -7.11 -0.29 C-4.37 -1.21 -2.74 -0.87 0 0 Z M-60 60 C-59 62 -59 62 -59 62 Z " fill="#FA85C5" transform="translate(511,212)"/>
<path d="M0 0 C6.62 -0.12 6.62 -0.12 10 1 C12.57 1.07 15.12 1.09 17.69 1.06 C18.39 1.06 19.09 1.05 19.81 1.05 C21.54 1.04 23.27 1.02 25 1 C25 1.66 25 2.32 25 3 C26.73 3.12 26.73 3.12 28.5 3.25 C33.22 3.81 36.91 5.66 41 8 C41.33 7.34 41.66 6.68 42 6 C42.5 6.99 42.5 6.99 43 8 C44.09 8.12 45.19 8.25 46.31 8.38 C50.6 9.1 51.08 9.99 54 13 C56.32 14.1 58.67 15.06 61.07 15.97 C63 17 63 17 64 20 C65.49 20.5 65.49 20.5 67 21 C67.62 23 67.62 23 68 25 C68.33 25.33 68.66 25.66 69 26 C68.01 29.47 68.01 29.47 67 33 C67.91 33.08 68.82 33.16 69.75 33.25 C73 34 73 34 74.79 36.04 C76.9 38.3 76.9 38.3 80.13 38.29 C81.26 38.21 82.4 38.14 83.56 38.06 C89.55 37.69 89.55 37.69 91.86 39.29 C94.13 42.69 94.27 46.63 93.5 50.56 C93.34 51.37 93.17 52.17 93 53 C93.19 53.97 93.37 54.94 93.56 55.94 C94.08 59.58 93.45 61.65 92 65 C90 67 90 67 88.06 67.2 C87.29 67.17 86.51 67.15 85.71 67.12 C84.42 67.1 84.42 67.1 83.11 67.08 C81.31 67.03 79.51 66.97 77.71 66.92 C72.05 66.82 67.46 67.52 62 69 C59.56 68.9 57.4 68.5 55 68 C55 66.68 55 65.36 55 64 C54.34 63.67 53.68 63.34 53 63 C52.32 62.4 51.64 61.8 50.94 61.19 C48.35 59.26 46.31 58.21 43.38 57 C37.53 54.51 37.53 54.51 36 51 C35.94 48.88 35.94 48.88 37 47 C40.06 45.75 40.06 45.75 43 45 C42.67 44.67 42.34 44.34 42 44 C41.11 44.04 40.23 44.08 39.31 44.12 C34.74 43.95 31.65 42.28 28.06 39.5 C25.26 37.46 22.19 36.34 19 35 C17.83 34.27 17.83 34.27 16.64 33.54 C13.04 31.44 9.27 30.28 5.33 28.96 C3 28 3 28 2 26 C-1.68 24.16 -4.41 23.07 -8.5 22.56 C-12.02 22 -14.17 20.85 -17.18 18.98 C-21.11 16.86 -25.53 16.29 -29.88 15.44 C-32 15 -32 15 -34 14 C-33.67 11.69 -33.34 9.38 -33 7 C-30.15 7.14 -27.29 7.29 -24.44 7.44 C-23.64 7.48 -22.84 7.52 -22.01 7.56 C-17.29 7.81 -12.68 8.3 -8 9 C-5.67 9.04 -3.33 9.05 -1 9 C-0.67 6.03 -0.34 3.06 0 0 Z M1 10 C1 11.32 1 12.64 1 14 C2.55 14.2 2.55 14.2 4.14 14.4 C5.51 14.58 6.88 14.76 8.25 14.94 C8.93 15.02 9.61 15.11 10.32 15.2 C13.6 15.63 16.81 16.09 20 17 C19.67 15.35 19.34 13.7 19 12 C12.85 10.37 7.36 9.8 1 10 Z M21 17 C21 17.99 21 18.98 21 20 C27.96 21.94 27.96 21.94 35 21 C35 20.34 35 19.68 35 19 C30.16 17.66 26.07 16.75 21 17 Z M37 24 C37.33 24.99 37.66 25.98 38 27 C40.31 27 42.62 27 45 27 C44.67 26.34 44.34 25.68 44 25 C41.68 24.59 39.34 24.26 37 24 Z M49 32 C48.53 33.9 48.53 33.9 48.38 36.06 C48.25 37.36 48.13 38.66 48 40 C49.7 41.31 49.7 41.31 52 42 C54.82 41.21 54.82 41.21 57 39 C57.9 35.4 57.9 35.4 58 32 C53.38 30.96 53.38 30.96 49 32 Z " fill="#F9BC26" transform="translate(771,214)"/>
<path d="M0 0 C2 2 2 2 2 5 C1.29 5.27 0.58 5.53 -0.15 5.8 C-1.53 6.33 -1.53 6.33 -2.94 6.88 C-3.85 7.22 -4.77 7.57 -5.71 7.93 C-8.15 8.78 -8.15 8.78 -9 11 C-8.04 11.37 -8.04 11.37 -7.06 11.75 C-5 13 -5 13 -4.21 14.83 C-3.92 17.8 -4.75 18.72 -6.62 21 C-10.73 25.46 -15.14 26.71 -20.91 28.11 C-23.99 28.83 -23.99 28.83 -26.29 30.48 C-30.24 32.69 -34.32 33.23 -38.75 34 C-43.85 34.91 -48.74 35.83 -53.61 37.62 C-58.01 39.16 -61.88 39.33 -66.5 39.12 C-69 39.05 -71.49 39.01 -74 39 C-74.33 39.33 -74.66 39.66 -75 40 C-81.81 41.36 -88.38 41.18 -95 39 C-97 37 -97 37 -97.09 34.69 C-96.99 32.9 -96.88 31.1 -96.78 29.31 C-96.85 28.55 -96.92 27.79 -97 27 C-99.74 25.17 -101.31 24.52 -104.41 23.75 C-105.26 23.53 -106.1 23.32 -106.97 23.1 C-107.85 22.88 -108.72 22.66 -109.62 22.44 C-111.37 22 -113.11 21.56 -114.85 21.12 C-116.01 20.83 -116.01 20.83 -117.19 20.54 C-119 20 -119 20 -120 19 C-120.35 16.01 -120.36 14.51 -118.61 12.01 C-113.09 7.05 -109.15 6 -101.82 6.17 C-100.38 6.16 -100.38 6.16 -98.9 6.15 C-95.83 6.13 -92.76 6.15 -89.69 6.19 C-85.67 6.2 -81.65 6.18 -77.64 6.17 C-76.65 6.17 -75.67 6.17 -74.66 6.16 C-67.45 6.12 -60.39 5.6 -53.24 4.7 C-48.5 4.1 -43.97 3.93 -39.19 4.06 C-30.55 4.2 -22.47 2.52 -14.31 -0.25 C-9.51 -1.34 -4.82 -0.99 0 0 Z M-38 16 C-38 16.33 -38 16.66 -38 17 C-31.18 17.74 -24.76 18.4 -18 17 C-17.67 16.34 -17.34 15.68 -17 15 C-23.99 12.67 -30.97 14.58 -38 16 Z M-90 22 C-86.3 24.38 -82.7 24.27 -78.45 24.23 C-77.72 24.23 -76.99 24.23 -76.24 24.23 C-74.7 24.23 -73.15 24.22 -71.61 24.21 C-69.27 24.19 -66.93 24.19 -64.59 24.19 C-63.09 24.18 -61.58 24.17 -60.08 24.17 C-59.39 24.17 -58.7 24.17 -57.99 24.16 C-53.24 24.12 -48.69 23.66 -44 23 C-46.45 20.55 -47.8 20.76 -51.15 20.75 C-51.86 20.75 -52.56 20.76 -53.28 20.77 C-54.01 20.77 -54.74 20.77 -55.49 20.77 C-57.03 20.77 -58.58 20.78 -60.13 20.79 C-62.46 20.81 -64.8 20.81 -67.13 20.81 C-74.81 20.83 -82.37 21.05 -90 22 Z " fill="#F9BC26" transform="translate(734,384)"/>
<path d="M0 0 C1.44 0.02 2.89 0.07 4.33 0.15 C5.44 0.17 5.44 0.17 6.56 0.19 C11.96 0.34 11.96 0.34 13.14 1.52 C13.22 3.04 13.23 4.57 13.21 6.09 C13.2 6.91 13.19 7.74 13.18 8.59 C13.17 9.23 13.16 9.87 13.14 10.52 C13.8 10.52 14.46 10.52 15.14 10.52 C15.14 11.18 15.14 11.84 15.14 12.52 C15.76 12.71 16.38 12.89 17.02 13.09 C19.14 14.52 19.14 14.52 20.52 17.96 C21.14 21.52 21.14 21.52 19.14 24.52 C18.4 24.61 17.66 24.69 16.89 24.77 C13.15 25.79 11.97 27.92 9.62 30.89 C7.72 33 5.79 33.57 3.14 34.52 C0.58 36.84 0.58 36.84 -1.86 39.52 C-6.52 44.41 -6.52 44.41 -9.86 45.52 C-10.16 46.47 -10.47 47.42 -10.79 48.4 C-11.86 51.52 -11.86 51.52 -13.54 53.4 C-16.71 54.94 -19.38 54.72 -22.86 54.52 C-22.98 53.72 -23.1 52.91 -23.23 52.09 C-23.44 51.24 -23.64 50.39 -23.86 49.52 C-24.52 49.19 -25.18 48.86 -25.86 48.52 C-25.26 47.7 -24.66 46.87 -24.04 46.02 C-21.61 42.4 -20.27 38.64 -18.86 34.52 C-22.78 34.09 -22.78 34.09 -24.79 36.21 C-25.47 36.97 -26.15 37.74 -26.86 38.52 C-27.66 39.31 -28.46 40.09 -29.29 40.9 C-32.59 44.28 -35.69 47.75 -38.29 51.71 C-40.49 54.26 -42.74 55.31 -45.86 56.52 C-48.11 56.46 -48.11 56.46 -49.86 55.52 C-52.45 52.15 -52.01 48.62 -51.86 44.52 C-51.23 44.28 -50.59 44.04 -49.95 43.8 C-47.7 42.71 -47.7 42.71 -46.98 40.5 C-46.61 38.94 -46.23 37.38 -45.86 35.81 C-44.51 32.74 -42.51 31.54 -39.86 29.52 C-38.41 27.85 -37.02 26.14 -35.67 24.4 C-31.99 19.66 -31.99 19.66 -29.86 17.52 C-29.2 17.52 -28.54 17.52 -27.86 17.52 C-27.46 16.55 -27.07 15.58 -26.67 14.59 C-24.86 11.52 -24.86 11.52 -22.23 10.77 C-21.05 10.65 -21.05 10.65 -19.86 10.52 C-19.53 9.86 -19.2 9.2 -18.86 8.52 C-17.87 8.52 -16.88 8.52 -15.86 8.52 C-15.53 7.86 -15.2 7.2 -14.86 6.52 C-13.76 6.42 -12.67 6.32 -11.54 6.21 C-10.33 5.98 -9.11 5.76 -7.86 5.52 C-7.29 4.69 -6.72 3.86 -6.14 3 C-3.86 0.52 -3.86 0.52 0 0 Z M-15.86 28.52 C-14.86 30.52 -14.86 30.52 -14.86 30.52 Z " fill="#F9BC26" transform="translate(466.85546875,243.4765625)"/>
<path d="M0 0 C2.11 3.16 2.34 4.51 2.62 8.19 C2.7 9.09 2.77 9.99 2.85 10.92 C2.9 11.61 2.95 12.29 3 13 C3.66 13 4.32 13 5 13 C5.5 13.99 5.5 13.99 6 15 C8.27 15.6 10.55 15.96 12.87 16.34 C15 17 15 17 17 20 C17.12 22.19 17.12 22.19 16.88 24.56 C16.81 25.35 16.75 26.13 16.68 26.94 C16 29 16 29 14.23 30.1 C11.9 31.04 10.16 31.31 7.67 31.41 C6.87 31.45 6.07 31.49 5.25 31.53 C4.01 31.58 4.01 31.58 2.75 31.62 C1.49 31.68 1.49 31.68 0.2 31.74 C-1.86 31.84 -3.93 31.92 -6 32 C-6.43 33.21 -6.43 33.21 -6.88 34.44 C-8 37 -8 37 -10 38 C-12.06 38.2 -12.06 38.2 -14.44 38.25 C-15.22 38.28 -16 38.3 -16.81 38.33 C-19.55 37.92 -20.1 36.95 -22 35 C-24.64 33.88 -24.64 33.88 -27.62 33 C-31.31 31.85 -34.94 30.65 -38.56 29.31 C-41.98 28.15 -45.15 27.75 -48.75 27.5 C-52.89 27.21 -55.76 26.81 -59 24 C-59.33 23.01 -59.66 22.02 -60 21 C-57.83 18.83 -55.66 16.68 -53.44 14.56 C-50.44 11.42 -48.6 8.12 -46.56 4.31 C-44.86 1.79 -43.93 0.8 -41 0 C-39.19 0.81 -39.19 0.81 -37 2 C-28.5 3.64 -22.91 3.54 -15 0 C-4.57 -3 -4.57 -3 0 0 Z " fill="#FA86C5" transform="translate(608,391)"/>
<path d="M0 0 C0.5 0.99 0.5 0.99 1 2 C0.06 4.63 0.06 4.63 -1 7 C-0.09 7.08 0.82 7.16 1.75 7.25 C5 8 5 8 6.79 10.04 C8.9 12.3 8.9 12.3 12.13 12.29 C13.83 12.17 13.83 12.17 15.56 12.06 C21.55 11.69 21.55 11.69 23.86 13.29 C26.13 16.69 26.27 20.63 25.5 24.56 C25.34 25.37 25.17 26.17 25 27 C25.19 27.97 25.37 28.94 25.56 29.94 C26.08 33.58 25.45 35.65 24 39 C22 41 22 41 20.06 41.2 C19.29 41.17 18.51 41.15 17.71 41.12 C16.42 41.1 16.42 41.1 15.11 41.08 C13.31 41.03 11.51 40.97 9.71 40.92 C4.05 40.82 -0.54 41.52 -6 43 C-8.44 42.9 -10.6 42.5 -13 42 C-13 40.68 -13 39.36 -13 38 C-13.66 37.67 -14.32 37.34 -15 37 C-15.68 36.4 -16.36 35.8 -17.06 35.19 C-19.65 33.26 -21.69 32.21 -24.62 31 C-30.47 28.51 -30.47 28.51 -32 25 C-32.06 22.88 -32.06 22.88 -31 21 C-27.94 19.75 -27.94 19.75 -25 19 C-25 18.01 -25 17.02 -25 16 C-19.38 13.88 -19.38 13.88 -16 15 C-15.01 14.01 -14.02 13.02 -13 12 C-12.67 12.33 -12.34 12.66 -12 13 C-11.94 12.28 -11.88 11.56 -11.81 10.81 C-10.72 7.04 -8.98 5.52 -6 3 C-2.69 1.19 -2.69 1.19 0 0 Z " fill="#FA86C3" transform="translate(839,240)"/>
<path d="M0 0 C0.33 0.66 0.66 1.32 1 2 C4.96 2 8.92 2 13 2 C13 2.66 13 3.32 13 4 C13.81 3.89 14.62 3.79 15.45 3.68 C16.52 3.56 17.59 3.44 18.69 3.31 C19.74 3.18 20.8 3.06 21.89 2.93 C25.52 3.01 27.14 3.82 30 6 C31.71 8.95 32.08 10.43 31.62 13.81 C31.42 14.53 31.21 15.26 31 16 C30.01 16.33 29.02 16.66 28 17 C27.79 17.74 27.59 18.49 27.38 19.25 C25.5 23.01 22.97 23.96 19.29 25.79 C16.99 27 15.06 28.43 13 30 C9.3 31.59 6.91 30.8 3.31 29.38 C0.17 27.88 -0.8 27.35 -2.56 24.25 C-2.71 23.51 -2.85 22.76 -3 22 C-3.66 22 -4.32 22 -5 22 C-7.27 17.72 -8.16 16 -7.38 11.12 C-6.92 10.09 -6.47 9.06 -6 8 C-5.01 7.67 -4.02 7.34 -3 7 C-2.67 6.34 -2.34 5.68 -2 5 C-2.99 4.67 -3.98 4.34 -5 4 C-4.36 3.71 -3.72 3.42 -3.06 3.12 C-0.85 2.17 -0.85 2.17 0 0 Z " fill="#FA86C3" transform="translate(768,291)"/>
<path d="M0 0 C3.17 2.11 4.68 3.54 5.51 7.3 C5.84 12.15 5.32 15.27 2.19 19.06 C-0.29 21.67 -2.28 22.82 -5.95 23.2 C-14.7 23.39 -21.18 21.33 -27.69 15.4 C-29 14 -29 14 -30 12 C-29.91 9.94 -29.91 9.94 -29.62 7.56 C-29.53 6.78 -29.44 6 -29.35 5.19 C-29 3 -29 3 -28 0 C-26.81 -0.06 -25.62 -0.12 -24.39 -0.18 C-22.82 -0.27 -21.25 -0.35 -19.69 -0.44 C-18.9 -0.48 -18.12 -0.52 -17.31 -0.56 C-16.55 -0.6 -15.79 -0.64 -15.01 -0.68 C-14.32 -0.72 -13.62 -0.76 -12.9 -0.79 C-4.44 -1.71 -4.44 -1.71 0 0 Z " fill="#FA85C4" transform="translate(642,217)"/>
<path d="M0 0 C-0.33 0.99 -0.66 1.98 -1 3 C-0.5 3.6 -0.01 4.2 0.5 4.81 C2 7 2 7 1.88 9.88 C0.31 15.46 -2.25 19.61 -6 24 C-18.21 21.85 -18.21 21.85 -23 18 C-24.98 15.16 -26.41 12.42 -27 9 C-26.23 5.69 -25.39 4.32 -22.75 2.16 C-14.36 -2.53 -9.04 -2.33 0 0 Z " fill="#FA85C4" transform="translate(554,308)"/>
<path d="M0 0 C4.27 -0.06 6.32 -0.08 9.76 2.66 C10.88 4.05 10.88 4.05 12.01 5.47 C12.94 6.4 13.87 7.32 14.82 8.28 C15.91 9.36 15.91 9.36 17.01 10.47 C15.75 14.99 14.44 18.21 11.01 21.47 C7.07 23.38 3.47 24.56 -0.93 24.28 C-2.99 23.47 -2.99 23.47 -4.99 21.47 C-7.06 20.83 -7.06 20.83 -8.99 20.47 C-11.66 12.45 -11.66 12.45 -9.99 8.47 C-8.05 6.73 -6.05 5.06 -3.99 3.47 C-1.99 0.47 -1.99 0.47 0 0 Z " fill="#F9BA26" transform="translate(674.98828125,305.53125)"/>
<path d="M0 0 C0.66 0.33 1.32 0.66 2 1 C2.76 0.79 3.53 0.59 4.31 0.38 C7 0 7 0 9.44 1.06 C15.99 6.01 15.99 6.01 18 9 C18.43 12.93 17.87 14.88 15.45 18 C12.04 21.39 9.19 23.46 4.31 23.75 C0.97 23.46 -0.04 22.97 -2.88 20.94 C-5.32 17.56 -6.77 14.98 -8 11 C-7.19 8.56 -7.19 8.56 -6 7 C-5.34 7 -4.68 7 -4 7 C-3.34 5.35 -2.68 3.7 -2 2 C-1.34 2 -0.68 2 0 2 C0 1.34 0 0.68 0 0 Z " fill="#FABD26" transform="translate(816,286)"/>
<path d="M0 0 C7.23 -0.61 7.23 -0.61 10.75 2.19 C11.86 3.58 11.86 3.58 13 5 C13.8 5.8 14.61 6.61 15.44 7.44 C17 10 17 10 16.56 13 C14.22 17.5 11.19 20.21 7 23 C4.62 23.08 4.62 23.08 2 22.81 C1.13 22.74 0.27 22.66 -0.62 22.58 C-3.39 21.91 -4.33 21.27 -6 19 C-7.52 15.04 -8.25 11.3 -7.44 7.12 C-5.66 4.5 -3.76 3.49 -1 2 C-0.67 1.34 -0.34 0.68 0 0 Z " fill="#F8BB26" transform="translate(523,383)"/>
<path d="M0 0 C12.74 1.46 12.74 1.46 15.67 5.03 C16.91 8.52 17.08 11.27 16.69 14.94 C14.58 17.51 12.53 18.22 9.3 18.86 C5.38 19.1 1.68 18.37 -2 17 C-2.66 16.34 -3.32 15.68 -4 15 C-3.69 10.39 -2.08 7.07 0 3 C0 2.01 0 1.02 0 0 Z " fill="#F8471D" transform="translate(478,284)"/>
<path d="M0 0 C1.53 -0.03 1.53 -0.03 3.1 -0.05 C6.26 0.35 7.61 1.2 9.94 3.31 C9.76 7.83 9.37 9.83 6.31 13.25 C2.37 15.66 0.48 15.97 -4.06 15.31 C-6.92 14.04 -8.54 13.03 -10.38 10.5 C-11.25 7.71 -11.19 5.22 -11.06 2.31 C-7.25 0.55 -4.19 0.02 0 0 Z " fill="#F9461C" transform="translate(759.0625,368.6875)"/>
<path d="M0 0 C2.44 1.19 2.44 1.19 4 3 C5 5.94 5 5.94 5 9 C3.69 11.31 3.69 11.31 1 13 C-3.89 14.22 -7.75 14.47 -12.5 12.69 C-15 11 -15 11 -17 9 C-16.79 6.39 -16.19 5.21 -14.43 3.26 C-9.2 -0.87 -6.49 -1.84 0 0 Z " fill="#FA461C" transform="translate(855,309)"/>
<path d="M0 0 C0.33 0 0.66 0 1 0 C2.25 4.81 2.13 9.52 2.1 14.46 C2.1 15.36 2.09 16.26 2.09 17.19 C2.09 20.07 2.08 22.94 2.06 25.81 C2.06 27.76 2.05 29.72 2.05 31.67 C2.04 36.45 2.02 41.22 2 46 C1.01 45.67 0.02 45.34 -1 45 C-1.14 29.97 -0.74 15.01 0 0 Z " fill="#C6572E" transform="translate(434,345)"/>
<path d="M0 0 C1.74 0.15 1.74 0.15 3.52 0.31 C4.4 0.39 5.28 0.48 6.19 0.56 C8.05 4.74 8.23 7.07 7.19 11.56 C6.86 11.56 6.53 11.56 6.19 11.56 C5.86 8.59 5.53 5.62 5.19 2.56 C2.6 2.43 0.02 2.33 -2.56 2.25 C-3.29 2.21 -4.02 2.17 -4.77 2.12 C-7.22 2.01 -7.22 2.01 -10.81 2.56 C-13.15 4.96 -13.15 4.96 -14.81 7.56 C-18.06 7.88 -18.06 7.88 -20.81 7.56 C-20.48 6.9 -20.15 6.24 -19.81 5.56 C-18.84 5.44 -17.87 5.31 -16.88 5.19 C-15.86 4.98 -14.85 4.78 -13.81 4.56 C-13.11 3.25 -12.45 1.91 -11.81 0.56 C-7.79 -0.67 -4.15 -0.38 0 0 Z " fill="#E78A86" transform="translate(473.8125,242.4375)"/>
<path d="M0 0 C2.3 3.46 2.24 4.81 2.19 8.88 C2.18 9.9 2.17 10.93 2.17 11.99 C2.01 14.76 1.62 17.3 1 20 C0.67 20 0.34 20 0 20 C0 18.35 0 16.7 0 15 C-0.66 14.67 -1.32 14.34 -2 14 C-1.34 14 -0.68 14 0 14 C0 9.38 0 4.76 0 0 Z " fill="#DD562C" transform="translate(504,280)"/>
<path d="M0 0 C4.62 0.99 9.24 1.98 14 3 C13.67 3.66 13.34 4.32 13 5 C11.58 4.94 10.17 4.85 8.75 4.75 C7.57 4.68 7.57 4.68 6.36 4.61 C4 4 4 4 0 0 Z " fill="#E85229" transform="translate(478,284)"/>
<path d="M0 0 C-1 1 -1 1 -4.56 1.06 C-5.7 1.04 -6.83 1.02 -8 1 C-8 0.67 -8 0.34 -8 0 C-2.25 -1.12 -2.25 -1.12 0 0 Z " fill="#FA461C" transform="translate(594,318)"/>
<path d="M0 0 C0.66 0.33 1.32 0.66 2 1 C1.01 2.49 1.01 2.49 0 4 C-0.33 3.34 -0.66 2.68 -1 2 C-0.67 1.34 -0.34 0.68 0 0 Z " fill="#F8AF2B" transform="translate(428,265)"/>
<path d="M0 0 C0.99 0.33 1.98 0.66 3 1 C1.02 1.99 1.02 1.99 -1 3 C-0.67 2.01 -0.34 1.02 0 0 Z " fill="#FABD26" transform="translate(432,261)"/>
<path d="M0 0 C0.33 0 0.66 0 1 0 C1 1.65 1 3.3 1 5 C0.67 5 0.34 5 0 5 C0 3.35 0 1.7 0 0 Z " fill="#FA461C" transform="translate(722,247)"/>
<path d="M0 0 C4 1 4 1 4 1 Z " fill="#FA461C" transform="translate(661,423)"/>
<path d="M0 0 C4 1 4 1 4 1 Z " fill="#196E4E" transform="translate(453,397)"/>
<path d="M0 0 C0.66 0.33 1.32 0.66 2 1 C1.01 1 0.02 1 -1 1 C-0.67 0.67 -0.34 0.34 0 0 Z " fill="#FABD26" transform="translate(520,384)"/>
<path d="M0 0 C1.49 0.99 1.49 0.99 3 2 C2.01 2 1.02 2 0 2 C0 1.34 0 0.68 0 0 Z " fill="#FA461C" transform="translate(715,308)"/>
<path d="M0 0 C0.66 0.66 1.32 1.32 2 2 C1.34 2 0.68 2 0 2 C0 1.34 0 0.68 0 0 Z " fill="#FA461C" transform="translate(800,389)"/>
<path d="M0 0 C0.33 0.66 0.66 1.32 1 2 C0.34 1.67 -0.32 1.34 -1 1 C-0.67 0.67 -0.34 0.34 0 0 Z " fill="#FA461C" transform="translate(471,343)"/>
<path d="M0 0 C0.33 0.66 0.66 1.32 1 2 C0.34 1.67 -0.32 1.34 -1 1 C-0.67 0.67 -0.34 0.34 0 0 Z " fill="#FABD26" transform="translate(671,305)"/>
<path d="M0 0 C0.99 0.5 0.99 0.5 2 1 C1.01 1.5 1.01 1.5 0 2 C0 1.34 0 0.68 0 0 Z " fill="#FB86C6" transform="translate(760,298)"/>
<path d="" fill="#FABD26" transform="translate(0,0)"/>
<path d="M0 0 C0.66 0 1.32 0 2 0 C1.67 0.66 1.34 1.32 1 2 C0.67 1.34 0.34 0.68 0 0 Z " fill="#FA461C" transform="translate(743,267)"/>
<path d="" fill="#F16A44" transform="translate(0,0)"/>
<path d="M0 0 C2 1 2 1 2 1 Z " fill="#FB86C6" transform="translate(590,389)"/>
<path d="" fill="#FA461C" transform="translate(0,0)"/>
<path d="M0 0 C2 1 2 1 2 1 Z " fill="#FA461C" transform="translate(507,345)"/>
<path d="" fill="#F16A44" transform="translate(0,0)"/>
<path d="M0 0 C2 1 2 1 2 1 Z " fill="#FA461C" transform="translate(737,324)"/>
<path d="M0 0 C2 1 2 1 2 1 Z " fill="#FA461C" transform="translate(843,306)"/>
<path d="M0 0 C2 1 2 1 2 1 Z " fill="#FB86C6" transform="translate(533,306)"/>
<path d="" fill="#E58B7F" transform="translate(0,0)"/>
<path d="M0 0 C2 1 2 1 2 1 Z " fill="#FB86C6" transform="translate(783,293)"/>
<path d="" fill="#FA461C" transform="translate(0,0)"/>
<path d="" fill="#FA461C" transform="translate(0,0)"/>
<path d="M0 0 C2 1 2 1 2 1 Z " fill="#FA461C" transform="translate(585,251)"/>
<path d="M0 0 C2 1 2 1 2 1 Z " fill="#FB86C6" transform="translate(499,210)"/>
<path d="" fill="#FABD26" transform="translate(0,0)"/>
<path d="" fill="#FABD26" transform="translate(0,0)"/>
<path d="" fill="#F16A44" transform="translate(0,0)"/>
<path d="" fill="#FA461C" transform="translate(0,0)"/>
<path d="" fill="#FA461C" transform="translate(0,0)"/>
<path d="" fill="#FA461C" transform="translate(0,0)"/>
<path d="" fill="#FA461C" transform="translate(0,0)"/>
<path d="" fill="#FA461C" transform="translate(0,0)"/>
<path d="" fill="#FA461C" transform="translate(0,0)"/>
<path d="" fill="#FA461C" transform="translate(0,0)"/>
<path d="" fill="#FA461C" transform="translate(0,0)"/>
<path d="" fill="#FA461C" transform="translate(0,0)"/>
<path d="" fill="#FA461C" transform="translate(0,0)"/>
<path d="" fill="#FA461C" transform="translate(0,0)"/>
<path d="" fill="#FA461C" transform="translate(0,0)"/>
<path d="" fill="#FA461C" transform="translate(0,0)"/>
<path d="" fill="#FA461C" transform="translate(0,0)"/>
<path d="" fill="#FA461C" transform="translate(0,0)"/>
<path d="" fill="#FA461C" transform="translate(0,0)"/>
<path d="" fill="#FA461C" transform="translate(0,0)"/>
<path d="" fill="#FA461C" transform="translate(0,0)"/>
<path d="" fill="#FA461C" transform="translate(0,0)"/>
<path d="" fill="#FA461C" transform="translate(0,0)"/>
<path d="" fill="#FA461C" transform="translate(0,0)"/>
<path d="" fill="#FA461C" transform="translate(0,0)"/>
<path d="" fill="#FA461C" transform="translate(0,0)"/>
<path d="" fill="#FA461C" transform="translate(0,0)"/>
<path d="" fill="#FABD26" transform="translate(0,0)"/>
<path d="" fill="#FA461C" transform="translate(0,0)"/>
<path d="" fill="#FA461C" transform="translate(0,0)"/>
<path d="" fill="#FABD26" transform="translate(0,0)"/>
<path d="" fill="#FA461C" transform="translate(0,0)"/>
<path d="" fill="#FA461C" transform="translate(0,0)"/>
<path d="" fill="#FA461C" transform="translate(0,0)"/>
<path d="" fill="#FB86C6" transform="translate(0,0)"/>
<path d="" fill="#FA461C" transform="translate(0,0)"/>
<path d="" fill="#FABD26" transform="translate(0,0)"/>
<path d="" fill="#FABD26" transform="translate(0,0)"/>
<path d="" fill="#FABD26" transform="translate(0,0)"/>
<path d="" fill="#F16A44" transform="translate(0,0)"/>
<path d="" fill="#FABD26" transform="translate(0,0)"/>
<path d="" fill="#F16A44" transform="translate(0,0)"/>
<path d="" fill="#FABD26" transform="translate(0,0)"/>
<path d="" fill="#FA461C" transform="translate(0,0)"/>
<path d="" fill="#FABD26" transform="translate(0,0)"/>
<path d="" fill="#FA461C" transform="translate(0,0)"/>
<path d="" fill="#FA461C" transform="translate(0,0)"/>
<path d="" fill="#FA461C" transform="translate(0,0)"/>
<path d="" fill="#FA461C" transform="translate(0,0)"/>
<path d="" fill="#FA461C" transform="translate(0,0)"/>
<path d="" fill="#FA461C" transform="translate(0,0)"/>
<path d="" fill="#FA461C" transform="translate(0,0)"/>
<path d="" fill="#FA461C" transform="translate(0,0)"/>
<path d="" fill="#E58B7F" transform="translate(0,0)"/>
<path d="" fill="#FA461C" transform="translate(0,0)"/>
<path d="" fill="#185745" transform="translate(0,0)"/>
<path d="" fill="#FABD26" transform="translate(0,0)"/>
<path d="" fill="#FA461C" transform="translate(0,0)"/>
<path d="" fill="#B65F35" transform="translate(0,0)"/>
<path d="" fill="#FA461C" transform="translate(0,0)"/>
<path d="" fill="#FB86C6" transform="translate(0,0)"/>
<path d="" fill="#446E4A" transform="translate(0,0)"/>
<path d="" fill="#FB86C6" transform="translate(0,0)"/>
<path d="" fill="#FB86C6" transform="translate(0,0)"/>
<path d="" fill="#968852" transform="translate(0,0)"/>
<path d="" fill="#FB86C6" transform="translate(0,0)"/>
</svg>
