<?xml version="1.0" encoding="UTF-8"?>
<!-- Generator: visioncortex VTracer 0.6.3 -->
<svg version="1.1" xmlns="http://www.w3.org/2000/svg" width="1280" height="640">
<path d="M0 0 C0.92 -0.01 1.84 -0.02 2.79 -0.04 C10.48 -0.05 17.89 0.07 24 5.19 C26.27 5.89 26.27 5.89 28.69 6.38 C35.79 8.43 40.74 12.45 44.57 18.78 C47.6 25.38 48.94 32.16 49.93 39.31 C50.55 43.67 51.69 46.49 54 50.19 C54.73 52.65 55.4 55.13 56 57.62 C57.19 62.55 58.68 66.69 61 71.19 C61.04 72.85 61.04 74.52 61 76.19 C61.88 80.08 62.97 83.14 64.94 86.62 C67.4 91.27 68.01 96.22 68.86 101.34 C69.63 105.81 70.75 109.18 73.02 113.05 C74.9 117.16 75.48 121.69 76.29 126.11 C76.84 129.34 76.84 129.34 79 132.19 C79.72 136.67 79.67 140.15 77.19 144 C76.47 144.72 75.74 145.44 75 146.19 C74.61 146.87 74.22 147.55 73.81 148.25 C71.34 150.89 68.57 151.9 65.25 153.26 C63 154.13 63 154.13 61 155.3 C58.62 156.35 56.96 156.36 54.38 156.25 C51.06 156.07 51.06 156.07 48 157.19 C46.16 157.39 44.32 157.53 42.47 157.65 C41.35 157.73 40.23 157.81 39.07 157.89 C36.72 158.04 34.37 158.2 32.02 158.35 C26 158.77 20.26 159.46 14.36 160.74 C10.35 161.5 6.32 161.61 2.25 161.75 C-3.9 161.95 -3.9 161.95 -10 162.71 C-14.11 163.37 -18.15 163.33 -22.31 163.31 C-23.14 163.32 -23.96 163.32 -24.81 163.32 C-30.87 163.31 -30.87 163.31 -32 162.19 C-37.33 161.85 -37.33 161.85 -42 164.19 C-50.2 165.79 -58.93 165.47 -67.25 165.62 C-73.73 165.8 -73.73 165.8 -79.84 167.71 C-85.73 170.24 -92.2 169.58 -98.5 169.5 C-99.78 169.5 -101.06 169.51 -102.38 169.51 C-108.95 169.47 -114.74 169.18 -121 167.19 C-122.69 166.66 -122.69 166.66 -124.41 166.12 C-125.43 165.77 -126.45 165.42 -127.5 165.06 C-129.06 164.53 -129.06 164.53 -130.66 163.99 C-131.43 163.73 -132.2 163.46 -133 163.19 C-133 162.86 -133 162.53 -133 162.19 C-134.21 161.85 -134.21 161.85 -135.44 161.5 C-143.22 158.63 -150.16 155.08 -153.91 147.3 C-154.72 145.24 -155.44 143.17 -156.12 141.06 C-156.5 139.95 -156.5 139.95 -156.89 138.81 C-158.67 133.47 -160.15 128.1 -161.36 122.61 C-161.91 120.17 -161.91 120.17 -163.08 118.05 C-164 116.19 -164 116.19 -164 113.19 C-164.66 112.86 -165.32 112.53 -166 112.19 C-166.24 110.32 -166.24 110.32 -166.31 107.88 C-166.73 102.4 -168.57 98.18 -170.8 93.2 C-172.3 89.42 -172.88 85.76 -173.47 81.75 C-174 79.19 -174.8 77.31 -176 75 C-179.16 68.56 -179.34 61.23 -180 54.19 C-180.66 54.19 -181.32 54.19 -182 54.19 C-182.12 53.38 -182.25 52.58 -182.38 51.75 C-182.58 50.9 -182.79 50.06 -183 49.19 C-183.66 48.86 -184.32 48.53 -185 48.19 C-185.31 46.33 -185.31 46.33 -185.44 44 C-185.71 40.69 -186.05 39.09 -187.62 36.06 C-189.45 32.25 -189.08 30.24 -188 26.19 C-185.45 20.24 -180.97 18.2 -175.46 15.39 C-168.01 12.8 -159.73 13.02 -151.9 12.72 C-150.01 12.64 -148.12 12.57 -146.23 12.49 C-143.29 12.37 -140.36 12.25 -137.43 12.14 C-134.56 12.03 -131.7 11.91 -128.84 11.79 C-127.97 11.75 -127.1 11.72 -126.21 11.69 C-120.85 11.46 -116.17 10.56 -111 9.19 C-108.9 8.93 -106.79 8.73 -104.67 8.59 C-103.54 8.51 -102.41 8.43 -101.25 8.35 C-100.1 8.28 -98.94 8.2 -97.75 8.12 C-95.43 7.97 -93.11 7.81 -90.8 7.65 C-89.27 7.55 -89.27 7.55 -87.71 7.45 C-85.36 7.22 -83.28 6.78 -81 6.19 C-78.69 6.09 -76.38 6.06 -74.06 6.06 C-72.25 6.06 -72.25 6.06 -70.41 6.05 C-67.47 6.17 -64.86 6.5 -62 7.19 C-61.67 6.53 -61.34 5.87 -61 5.19 C-60.28 5.36 -59.56 5.53 -58.82 5.71 C-55.97 6.19 -53.77 6.11 -50.91 5.77 C-47.02 5.37 -43.18 5.08 -39.28 4.98 C-38.33 4.95 -37.38 4.92 -36.39 4.89 C-34.47 4.84 -32.54 4.79 -30.61 4.76 C-19.67 4.4 -10.69 0.01 0 0 Z M-132 160.19 C-128 161.19 -128 161.19 -128 161.19 Z " fill="#DEE2E9" transform="translate(695,234.8125)"/>
<path d="M0 0 C0.6 0.58 1.2 1.15 1.81 1.75 C4.75 3.43 6.92 2.82 10.17 2.35 C27.3 0.24 27.3 0.24 34.41 5.57 C35.84 6.85 37.2 8.2 38.56 9.56 C42.6 13.16 48.31 13.79 53.44 14.91 C58.49 16.45 61.1 18.65 64 23 C65.15 29.04 63.77 33.75 60.52 38.85 C60.02 39.56 59.52 40.27 59 41 C58.55 41.7 58.1 42.4 57.64 43.12 C55.86 45.4 54.57 46.65 52 48 C46.92 48.63 42.1 48.56 37 48 C35.37 46.37 35.68 44.37 35.5 42.12 C35.26 39.15 34.95 36.85 34 34 C26.23 30.98 18.87 30.89 10.75 31.69 C3.72 32.36 0.29 31.66 -5.52 27.39 C-10.64 24.52 -16.36 25.14 -22 26 C-25.37 27.1 -28.48 28.37 -31.67 29.91 C-34 31 -34 31 -36 31 C-35.5 33.48 -35.5 33.48 -35 36 C-34.17 36.03 -33.33 36.05 -32.47 36.08 C-24.55 36.48 -16.86 37.14 -11 43 C-10.59 45.6 -10.59 45.6 -10.38 48.62 C-10.26 50.13 -10.26 50.13 -10.15 51.66 C-10.1 52.43 -10.05 53.21 -10 54 C-3.14 56.86 -3.14 56.86 4 57 C5.05 56.09 6.06 55.15 7.06 54.19 C12.46 49.19 19.43 48.45 26.5 47.56 C29.96 47.99 32.67 48.89 35.94 50.06 C41.25 51.95 44.54 52.31 50 51 C50.66 50.67 51.32 50.34 52 50 C59.73 49.47 68.09 48.97 75 53 C78.16 56.31 78.96 57.99 79.12 62.56 C77.71 66.89 75.83 68.78 72 71 C68.09 72.94 64.1 74.5 60 76 C59.37 76.23 58.73 76.47 58.08 76.71 C38.33 83.84 38.33 83.84 29.51 79.88 C25.68 77.97 21.92 75.97 18.21 73.83 C17.34 73.33 16.46 72.82 15.56 72.31 C14.78 71.84 14 71.38 13.19 70.9 C10.75 69.64 10.75 69.64 7 71 C5.68 75.95 4.36 80.9 3 86 C-0.29 86.23 -3.58 86.46 -6.86 86.68 C-10.03 86.89 -10.03 86.89 -13 88 C-28.06 89.55 -46.53 91.37 -59.81 82.84 C-61.25 81.62 -61.25 81.62 -63 79 C-62.92 75.05 -62.2 73.3 -60 70 C-59.9 67.43 -59.9 67.43 -61 65 C-63.34 63.47 -63.34 63.47 -66.31 62.38 C-73.79 58.84 -80.07 54.71 -85 48 C-85.95 44.24 -86.13 41.04 -86.05 37.18 C-86.01 34.31 -86.25 32.57 -87.25 29.94 C-88 27 -88 27 -87.25 24.31 C-83.25 20.2 -78.03 18.28 -72.34 17.75 C-70.23 17.75 -68.11 17.86 -66 18 C-65.92 17.09 -65.84 16.19 -65.75 15.25 C-64.86 11.38 -64.2 10.32 -61 8 C-54.35 5.02 -47.83 4.51 -40.67 3.84 C-35.37 3.29 -30.96 2.18 -26.09 -0.05 C-17.82 -3.82 -7.89 -5.07 0 0 Z " fill="#A44A64" transform="translate(644,288)"/>
<path d="M0 0 C5.16 11.31 5.16 11.31 5.06 17.75 C5.05 18.55 5.04 19.35 5.04 20.17 C5.02 21.08 5.02 21.08 5 22 C-4.63 23.87 -14.01 25.34 -23.83 25.79 C-26.88 25.91 -26.88 25.91 -29.3 26.52 C-31.78 26.96 -33.89 27.04 -36.4 27.02 C-43.16 26.95 -49.88 27.34 -56.62 27.75 C-58.53 27.84 -58.53 27.84 -60.48 27.94 C-67.74 28.39 -72.72 29.34 -79 33 C-83.51 33.44 -85.21 33.53 -89 31 C-91.41 30.72 -91.41 30.72 -94 30.81 C-94.87 30.82 -95.73 30.83 -96.62 30.83 C-99.15 30.91 -99.15 30.91 -102 32 C-104.94 32.21 -107.87 32.37 -110.81 32.5 C-116.45 32.75 -122.06 33.08 -127.69 33.52 C-135.19 34.06 -142.67 34.22 -150.19 34.25 C-151.48 34.27 -152.78 34.29 -154.11 34.31 C-155.35 34.32 -156.58 34.32 -157.86 34.33 C-158.97 34.34 -160.08 34.35 -161.22 34.36 C-164 34 -164 34 -165.82 32.64 C-167.43 30.41 -168 28.28 -168.69 25.62 C-168.94 24.69 -169.19 23.75 -169.45 22.79 C-170.46 17.7 -170.46 17.7 -170 15 C-159.11 6.87 -137.36 9.16 -124.41 8.37 C-117.61 7.95 -110.82 7.52 -104.02 7.08 C-103.34 7.03 -102.66 6.99 -101.96 6.94 C-88.81 6.09 -75.69 5.03 -62.56 3.88 C-58.8 3.54 -55.03 3.21 -51.27 2.88 C-50.39 2.81 -49.51 2.73 -48.6 2.65 C-40.32 1.93 -32.04 1.31 -23.75 0.75 C-22.59 0.67 -21.43 0.59 -20.24 0.51 C-13.48 0.07 -6.77 -0.09 0 0 Z " fill="#A34A63" transform="translate(702,250)"/>
<path d="M0 0 C6.99 1.01 10.43 3.65 15 9 C19.33 16.13 20.81 23.98 21.93 32.12 C22.55 36.49 23.69 39.3 26 43 C26.73 45.46 27.4 47.94 28 50.44 C29.19 55.37 30.68 59.5 33 64 C33.04 65.67 33.04 67.33 33 69 C33.88 72.89 34.97 75.95 36.94 79.44 C39.4 84.08 40.01 89.03 40.86 94.15 C41.63 98.62 42.75 101.99 45.02 105.86 C46.9 109.98 47.48 114.5 48.29 118.93 C48.84 122.15 48.84 122.15 51 125 C51.72 129.48 51.67 132.96 49.19 136.81 C48.47 137.53 47.74 138.26 47 139 C46.61 139.68 46.22 140.36 45.81 141.06 C43.34 143.7 40.57 144.71 37.25 146.07 C35 146.95 35 146.95 33 148.11 C30.62 149.17 28.96 149.17 26.38 149.06 C23.06 148.89 23.06 148.89 20 150 C18.16 150.2 16.32 150.35 14.47 150.46 C13.35 150.54 12.23 150.62 11.07 150.7 C8.72 150.86 6.37 151.01 4.02 151.16 C-2 151.58 -7.74 152.27 -13.64 153.56 C-17.65 154.31 -21.68 154.43 -25.75 154.56 C-31.9 154.76 -31.9 154.76 -38 155.52 C-42.11 156.18 -46.15 156.15 -50.31 156.12 C-51.14 156.13 -51.96 156.13 -52.81 156.14 C-58.87 156.13 -58.87 156.13 -60 155 C-65.33 154.66 -65.33 154.66 -70 157 C-78.2 158.6 -86.93 158.28 -95.25 158.43 C-101.73 158.61 -101.73 158.61 -107.84 160.52 C-113.73 163.05 -120.2 162.39 -126.5 162.31 C-127.78 162.32 -129.06 162.32 -130.38 162.32 C-136.95 162.28 -142.74 161.99 -149 160 C-150.12 159.65 -151.25 159.29 -152.41 158.93 C-153.43 158.58 -154.45 158.23 -155.5 157.88 C-156.54 157.52 -157.58 157.17 -158.66 156.8 C-159.43 156.54 -160.2 156.27 -161 156 C-160.5 155.01 -160.5 155.01 -160 154 C-158.68 154 -157.36 154 -156 154 C-156 153.34 -156 152.68 -156 152 C-154.94 151.97 -153.88 151.95 -152.79 151.92 C-148.84 151.83 -144.9 151.73 -140.95 151.63 C-139.24 151.58 -137.54 151.54 -135.83 151.5 C-133.38 151.44 -130.92 151.38 -128.46 151.32 C-127.33 151.29 -127.33 151.29 -126.17 151.27 C-122.01 151.15 -118.09 150.7 -114 150 C-111.15 149.76 -108.29 149.63 -105.43 149.5 C-103.77 149.42 -102.12 149.33 -100.47 149.25 C-97.88 149.12 -95.29 149 -92.7 148.88 C-90.19 148.75 -87.69 148.63 -85.18 148.5 C-84.4 148.46 -83.63 148.43 -82.83 148.39 C-79.67 148.23 -77.01 148 -74 147 C-71.58 146.74 -69.18 146.53 -66.76 146.35 C-66.02 146.29 -65.28 146.24 -64.52 146.18 C-62.9 146.06 -61.29 145.93 -59.68 145.81 C-57.09 145.62 -54.51 145.42 -51.93 145.23 C-42.28 144.49 -32.63 143.84 -22.96 143.28 C-20.96 143.16 -18.96 143.04 -16.95 142.91 C-13.11 142.68 -9.27 142.47 -5.43 142.27 C15.33 141.44 15.33 141.44 32.71 131.49 C33.14 131 33.56 130.51 34 130 C34.33 129.67 34.66 129.34 35 129 C35.67 122.22 33.56 116.3 31.56 109.88 C31.21 108.7 30.85 107.53 30.49 106.32 C29.34 102.55 28.17 98.77 27 95 C26.6 93.71 26.2 92.42 25.8 91.13 C24.26 86.14 22.71 81.16 21.15 76.17 C18.97 69.23 16.91 62.26 14.95 55.25 C13.96 51.86 12.84 48.53 11.69 45.19 C9.36 38.29 7.3 31.32 5.31 24.31 C5.01 23.28 4.72 22.25 4.41 21.18 C2.45 14.18 1.05 7.2 0 0 Z " fill="#A14A63" transform="translate(723,242)"/>
<path d="M0 0 C2.31 0 4.62 0 7 0 C7 0.33 7 0.66 7 1 C4.69 1 2.38 1 0 1 C0 0.67 0 0.34 0 0 Z " fill="#DFE3EA" transform="translate(656,397)"/>
<path d="M0 0 C1.98 0 3.96 0 6 0 C6 0.33 6 0.66 6 1 C4.02 1 2.04 1 0 1 C0 0.67 0 0.34 0 0 Z " fill="#DFE3EA" transform="translate(598,241)"/>
<path d="" fill="#DFE3EA" transform="translate(0,0)"/>
<path d="" fill="#DFE3EA" transform="translate(0,0)"/>
<path d="M0 0 C0.99 0.5 0.99 0.5 2 1 C1.01 1.5 1.01 1.5 0 2 C0 1.34 0 0.68 0 0 Z " fill="#DFE3EA" transform="translate(509,254)"/>
<path d="M0 0 C2 1 2 1 2 1 Z " fill="#DFE3EA" transform="translate(745,391)"/>
<path d="" fill="#DFE3EA" transform="translate(0,0)"/>
<path d="" fill="#DFE3EA" transform="translate(0,0)"/>
<path d="" fill="#DFE3EA" transform="translate(0,0)"/>
<path d="" fill="#DFE3EA" transform="translate(0,0)"/>
<path d="" fill="#DFE3EA" transform="translate(0,0)"/>
<path d="" fill="#DFE3EA" transform="translate(0,0)"/>
<path d="" fill="#DFE3EA" transform="translate(0,0)"/>
<path d="" fill="#DFE3EA" transform="translate(0,0)"/>
<path d="" fill="#DFE3EA" transform="translate(0,0)"/>
<path d="" fill="#DFE3EA" transform="translate(0,0)"/>
</svg>
