<?xml version="1.0" encoding="UTF-8"?>
<!-- Generator: visioncortex VTracer 0.6.3 -->
<svg version="1.1" xmlns="http://www.w3.org/2000/svg" width="1280" height="640">
<path d="M0 0 C1.23 0.68 2.46 1.36 3.69 2.06 C4.99 2.71 4.99 2.71 6.31 3.38 C9.65 5.75 12.51 8.58 14.69 12.06 C14.69 13.38 14.69 14.7 14.69 16.06 C15.66 15.99 16.64 15.92 17.64 15.84 C18.92 15.75 20.19 15.66 21.5 15.56 C23.4 15.42 23.4 15.42 25.33 15.28 C28.91 15.05 31.28 14.93 34.69 16.06 C35.02 15.4 35.35 14.74 35.69 14.06 C37.67 14.06 39.65 14.06 41.69 14.06 C40.88 13.69 40.08 13.32 39.25 12.94 C36.69 11.06 36.69 11.06 35.69 8.06 C35.69 5.06 35.69 5.06 36.79 3.39 C43.09 -1.03 55.75 2.28 62.95 3.33 C65.89 4.12 67.3 5.22 69.69 7.06 C72.73 8.17 75.8 9.08 78.91 10 C81.67 11.06 82.76 11.92 84.69 14.06 C86.2 14.81 86.2 14.81 87.75 15.56 C90.69 17.06 90.69 17.06 92.69 20.06 C94.64 20.85 94.64 20.85 96.81 21.25 C98.09 21.52 99.37 21.79 100.69 22.06 C101.02 21.07 101.35 20.08 101.69 19.06 C102.35 19.06 103.01 19.06 103.69 19.06 C104.63 17.83 105.52 16.55 106.38 15.25 C109.36 11.2 111.65 9.26 116.69 8.06 C119.85 8.29 122.77 8.79 125.69 10.06 C127.69 13.06 127.69 13.06 127.51 15.45 C126.58 18.39 125.33 20.34 123.5 22.81 C121.08 26.14 118.74 29.48 116.5 32.94 C114.47 36.01 112.39 38.55 109.69 41.06 C109.15 41.81 108.62 42.55 108.06 43.31 C107.61 43.89 107.15 44.47 106.69 45.06 C106.03 45.06 105.37 45.06 104.69 45.06 C105.02 45.72 105.35 46.38 105.69 47.06 C107.47 47.46 109.26 47.81 111.06 48.12 C116.2 49.46 116.2 49.46 118.19 51.94 C120.17 57.03 119.69 60.64 117.65 65.59 C116.15 69.44 115.35 73.44 114.43 77.46 C113.69 80.06 113.69 80.06 111.69 83.06 C111.12 85.08 111.12 85.08 110.76 87.3 C110.6 88.12 110.45 88.94 110.29 89.79 C109.97 91.5 109.66 93.21 109.36 94.93 C108.35 100.21 107.16 103.9 103.69 108.06 C99.71 109.86 97.33 110.15 93 109.56 C89.69 108.06 89.69 108.06 88.32 105.05 C85.17 101.48 84.17 101.51 79.57 101.05 C77.13 100.94 74.69 100.86 72.25 100.81 C71.02 100.74 69.79 100.67 68.53 100.6 C62.38 100.18 62.38 100.18 56.87 102.35 C55.39 104.14 55.39 104.14 53.69 107.06 C49.63 109.77 45.41 109.6 40.69 109.06 C38.19 108 38.19 108 36.69 106.06 C35 99.29 35.92 93.69 38.62 87.38 C40.67 82.55 41.53 77.91 42.2 72.73 C43.28 66.85 46.12 64.58 50.69 61.06 C52.69 60.06 52.69 60.06 54.78 60.7 C55.58 61.05 56.37 61.39 57.19 61.75 C57.98 62.08 58.78 62.42 59.59 62.76 C62.05 64.29 62.71 65.37 63.69 68.06 C64.25 72.75 63.44 76.02 61.66 80.3 C61.3 81.2 60.93 82.09 60.55 83.01 C60.26 83.69 59.98 84.37 59.69 85.06 C64.27 85.09 68.85 85.11 73.44 85.12 C75.39 85.14 75.39 85.14 77.38 85.15 C78.63 85.15 79.88 85.16 81.17 85.16 C82.32 85.17 83.48 85.17 84.66 85.18 C87.21 85.08 89.27 84.81 91.69 84.06 C91.83 82.85 91.98 81.63 92.12 80.38 C92.31 78.94 92.5 77.5 92.69 76.06 C92.84 74.82 92.84 74.82 93 73.56 C93.67 71.14 94.57 69.33 95.75 67.12 C97.59 63.63 98.09 61.06 97.69 57.06 C95.98 58.7 94.75 59.93 93.69 62.06 C87.33 63.91 82.56 62.73 76.69 60.06 C77.43 54.11 80.12 48.93 83.94 44.38 C85.82 42.2 85.82 42.2 86.31 39.62 C85.47 36.18 83.62 34.69 81 32.39 C79.69 31.06 79.69 31.06 79.69 29.06 C78.2 28.57 78.2 28.57 76.69 28.06 C76.69 27.4 76.69 26.74 76.69 26.06 C74.71 26.06 72.73 26.06 70.69 26.06 C71.04 26.7 71.39 27.34 71.75 28 C73.26 32.92 72.81 37.82 70.5 42.44 C68.12 44.58 65.59 45.73 62.69 47.06 C61.86 47.6 61.04 48.13 60.19 48.69 C53.93 52.13 45.83 51.4 38.86 51.67 C37.99 51.71 37.13 51.74 36.24 51.78 C35.46 51.81 34.68 51.84 33.88 51.87 C31.69 52.06 29.77 52.36 27.69 53.06 C26.91 54.08 26.91 54.08 26.12 55.12 C22.62 57.91 19.61 57.46 15.25 57.4 C12.69 57.06 12.69 57.06 9.69 55.06 C8.43 47.51 10.24 39.48 11.69 32.06 C7.15 32.8 4.49 34.47 0.69 37.06 C-2.24 38 -5.02 38.24 -8.08 38.38 C-9.41 38.44 -9.41 38.44 -10.77 38.51 C-11.69 38.55 -12.61 38.58 -13.56 38.62 C-14.5 38.67 -15.43 38.71 -16.4 38.76 C-18.7 38.86 -21.01 38.96 -23.31 39.06 C-23.86 40.19 -24.4 41.33 -24.96 42.49 C-25.68 43.97 -26.4 45.46 -27.12 46.94 C-27.48 47.68 -27.84 48.43 -28.21 49.2 C-28.73 50.27 -28.73 50.27 -29.27 51.37 C-29.59 52.03 -29.91 52.69 -30.24 53.37 C-31.31 55.06 -31.31 55.06 -34.31 57.06 C-36.69 57.36 -36.69 57.36 -39.31 57.38 C-40.18 57.39 -41.04 57.41 -41.94 57.43 C-44.31 57.06 -44.31 57.06 -46.09 56.05 C-48.04 52.88 -47.84 49.55 -47.81 45.94 C-47.81 45.17 -47.81 44.41 -47.81 43.62 C-47.67 38.21 -46.74 34.42 -43.41 30.02 C-42.08 28.03 -42.08 28.03 -42.33 25.25 C-42.31 21.3 -41.14 18.78 -39.5 15.19 C-37.74 11.29 -36.02 7.42 -34.62 3.38 C-33.4 0.27 -32.76 -0.87 -30.31 -2.94 C-20.96 -6.05 -8.78 -4.28 0 0 Z M-17.31 11.06 C-19.67 15.63 -19.74 20.03 -19.31 25.06 C-18.98 25.72 -18.65 26.38 -18.31 27.06 C-12.46 26.61 -8.23 24.02 -3.31 21.06 C-4.08 16.64 -4.84 14.1 -8.31 11.06 C-11.36 10.64 -14.26 10.77 -17.31 11.06 Z M60.69 17.06 C61.35 17.72 62.01 18.38 62.69 19.06 C62.69 18.4 62.69 17.74 62.69 17.06 C62.03 17.06 61.37 17.06 60.69 17.06 Z M59.69 19.06 C59.36 19.72 59.03 20.38 58.69 21.06 C60.01 20.73 61.33 20.4 62.69 20.06 C61.7 19.73 60.71 19.4 59.69 19.06 Z M72.69 23.06 C73.35 23.72 74.01 24.38 74.69 25.06 C74.69 24.4 74.69 23.74 74.69 23.06 C74.03 23.06 73.37 23.06 72.69 23.06 Z M33.69 31.06 C32.25 33.94 32.73 36.07 33.69 39.06 C38.87 39.24 42.84 39.14 47.69 37.06 C48.35 36.4 49.01 35.74 49.69 35.06 C50.68 34.4 51.67 33.74 52.69 33.06 C51.37 32.73 50.05 32.4 48.69 32.06 C48.69 31.4 48.69 30.74 48.69 30.06 C43.97 27.7 38.28 28.88 33.69 31.06 Z " fill="#446CF4" transform="translate(679.3125,238.9375)"/>
<path d="M0 0 C3.61 0.43 5.23 0.69 8.19 2.88 C9.56 4.94 9.56 4.94 10.56 6.94 C11.36 6.93 12.16 6.91 12.98 6.9 C23.5 6.81 23.5 6.81 28.56 7.94 C28.56 8.6 28.56 9.26 28.56 9.94 C30.54 10.43 30.54 10.43 32.56 10.94 C33.05 16.89 33.05 16.89 32.56 18.94 C27.87 23.1 22.65 22.12 16.8 21.82 C13.47 21.71 10.87 21.85 7.65 22.82 C3.81 26.71 3.96 32.3 3.27 37.54 C2.07 45.05 2.07 45.05 -1.32 48.07 C-4.44 49.94 -4.44 49.94 -8.44 49.94 C-8.44 51.26 -8.44 52.58 -8.44 53.94 C-7.78 54.27 -7.12 54.6 -6.44 54.94 C-5.23 58.56 -5.33 61.86 -5.38 65.62 C-5.38 66.33 -5.38 67.03 -5.39 67.75 C-5.4 69.48 -5.42 71.21 -5.44 72.94 C-4.78 72.94 -4.12 72.94 -3.44 72.94 C-3.27 74.19 -3.27 74.19 -3.11 75.46 C-2.08 83.02 -2.08 83.02 0.06 90.31 C3.07 98.56 3.93 108.22 3.56 116.94 C2.16 119.81 0.82 121.68 -1.44 123.94 C-4.52 124.34 -6.48 124.58 -9.44 123.94 C-11.67 121.86 -12.9 120.45 -14.44 117.94 C-14.83 117.33 -15.22 116.72 -15.63 116.09 C-17.39 113.2 -18.44 111.37 -18.44 107.94 C-28.67 107.94 -38.9 107.94 -49.44 107.94 C-49.44 108.6 -49.44 109.26 -49.44 109.94 C-52.49 111.47 -55.07 111.17 -58.44 110.94 C-62.82 108.87 -63.81 105.25 -65.44 100.94 C-66.22 101.68 -67 102.42 -67.81 103.19 C-71.17 106 -74.7 107.45 -78.78 108.95 C-81.58 109.95 -81.58 109.95 -84.77 111.48 C-88.6 113 -92.18 113.7 -96.25 114.12 C-96.95 114.2 -97.65 114.28 -98.36 114.36 C-113.94 116.03 -113.94 116.03 -119.44 112.94 C-121.44 110.94 -121.44 110.94 -121.88 108.44 C-121.33 104.12 -119.64 101.14 -117.6 97.33 C-116.25 94.56 -115.93 91.96 -115.44 88.94 C-114.84 88.24 -114.24 87.53 -113.62 86.81 C-111.32 83.79 -110.59 81.55 -109.5 77.94 C-107.43 71.3 -105.2 68.78 -99.44 64.94 C-86.84 63.49 -74.73 66.54 -64.44 73.94 C-60.04 79.81 -59.04 83.62 -59.44 90.94 C-60.1 91.93 -60.76 92.92 -61.44 93.94 C-60.45 94.93 -60.45 94.93 -59.44 95.94 C-59.33 95.15 -59.23 94.37 -59.12 93.56 C-58.44 90.94 -58.44 90.94 -55.44 88.94 C-54.78 88.94 -54.12 88.94 -53.44 88.94 C-52.09 87.22 -52.09 87.22 -50.75 85 C-48.06 80.81 -45.14 76.91 -42.04 73.02 C-40.64 71.2 -39.4 69.38 -38.19 67.44 C-36.44 64.94 -36.44 64.94 -33.44 63.94 C-32.71 61.62 -32.05 59.29 -31.44 56.94 C-30.78 55.95 -30.12 54.96 -29.44 53.94 C-28.78 53.94 -28.12 53.94 -27.44 53.94 C-26.63 53.44 -25.83 52.95 -25 52.44 C-22.44 50.94 -22.44 50.94 -19.44 50.94 C-19.11 49.62 -18.78 48.3 -18.44 46.94 C-19.92 46.44 -19.92 46.44 -21.44 45.94 C-21.16 45.43 -20.89 44.92 -20.6 44.4 C-19.09 41.2 -17.94 37.91 -16.81 34.56 C-16.58 33.92 -16.35 33.27 -16.12 32.6 C-14.76 28.58 -14.19 25.17 -14.44 20.94 C-15.09 20.82 -15.74 20.7 -16.41 20.57 C-21.22 19.65 -25.83 18.64 -30.44 16.94 C-31.12 14.12 -31.12 14.12 -31.44 10.94 C-30.08 8.86 -29.08 8.15 -26.73 7.39 C-22.68 6.59 -18.55 6.59 -14.43 6.41 C-11.16 5.89 -10.41 5.47 -8.44 2.94 C-5.81 -0.36 -4.15 -0.4 0 0 Z M-91.44 81.94 C-92.91 84.67 -92.91 84.67 -93.75 87.88 C-94.08 88.94 -94.4 90 -94.74 91.09 C-95.56 93.93 -95.56 93.93 -95.44 96.94 C-92.01 98.08 -90.44 97.94 -86.94 96.81 C-83.28 94.85 -80.92 93.27 -78.44 89.94 C-78.11 86.83 -78.11 86.83 -79.44 83.94 C-83.77 79.71 -86.06 79.01 -91.44 81.94 Z M-29.02 83.5 C-30.26 85.27 -31.39 87.05 -32.44 88.94 C-31.11 91.58 -30.23 91.98 -27.44 92.94 C-23.76 92.63 -23.76 92.63 -20.44 91.94 C-20.44 88.64 -20.44 85.34 -20.44 81.94 C-25.14 81.2 -25.14 81.2 -29.02 83.5 Z " fill="#F7B7A0" transform="translate(683.4375,298.0625)"/>
<path d="M0 0 C0.78 -0 1.56 -0.01 2.37 -0.01 C3.61 0 3.61 0 4.88 0.02 C6.16 0.03 6.16 0.03 7.46 0.04 C26.56 0.35 26.56 0.35 34.01 6.27 C36.23 7.04 36.23 7.04 38.01 7.27 C38.34 6.61 38.67 5.95 39.01 5.27 C43.17 5.24 47.32 5.22 51.48 5.21 C52.89 5.21 54.3 5.2 55.71 5.19 C82.87 5.03 82.87 5.03 89.01 8.27 C90.01 11.2 90.01 11.2 90.01 14.27 C89.02 15.91 89.02 15.91 87.01 17.27 C84.22 17.64 81.62 17.87 78.82 17.95 C78.07 17.99 77.32 18.02 76.55 18.06 C74.7 18.14 72.86 18.2 71.01 18.27 C70.88 18.94 70.74 19.61 70.61 20.31 C69.91 23.74 69.18 27.16 68.45 30.58 C68.18 31.83 67.91 33.09 67.63 34.38 C67.42 35.33 67.22 36.28 67.01 37.27 C68.33 37.93 69.65 38.59 71.01 39.27 C71.5 38.28 71.5 38.28 72.01 37.27 C72.01 37.93 72.01 38.59 72.01 39.27 C75.47 38.77 75.47 38.77 79.01 38.27 C79.01 38.93 79.01 39.59 79.01 40.27 C79.81 40.41 80.62 40.55 81.45 40.7 C84.01 41.27 84.01 41.27 85.01 42.27 C84.96 44.26 84.96 44.26 84.7 46.7 C84.62 47.51 84.54 48.31 84.46 49.14 C84.01 51.27 84.01 51.27 82.01 53.27 C80.16 53.54 80.16 53.54 77.9 53.57 C77.05 53.59 76.2 53.6 75.33 53.62 C74.41 53.63 73.49 53.63 72.55 53.64 C71.13 53.65 71.13 53.65 69.69 53.66 C67.7 53.68 65.7 53.69 63.71 53.69 C60.65 53.7 57.6 53.75 54.55 53.8 C52.61 53.81 50.67 53.82 48.73 53.82 C47.82 53.84 46.91 53.86 45.97 53.88 C39.58 53.84 39.58 53.84 36.54 50.81 C36.03 49.97 35.53 49.13 35.01 48.27 C32.89 46.95 32.89 46.95 31.01 46.27 C30.34 46.82 29.67 47.37 28.99 47.95 C19 55.79 10.94 56.38 -1.37 56.58 C-2.24 56.6 -3.1 56.61 -4 56.63 C-10.09 56.62 -13.58 55.68 -17.99 51.27 C-17.76 48.22 -17.42 45.28 -16.99 42.27 C-16.77 40.32 -16.56 38.37 -16.34 36.42 C-16.1 34.35 -15.86 32.27 -15.62 30.2 C-15.5 29.17 -15.39 28.13 -15.27 27.06 C-14.55 21 -13.42 15.88 -10.99 10.27 C-10.64 9.45 -10.29 8.64 -9.93 7.8 C-9.62 7.17 -9.31 6.54 -8.99 5.89 C-8.68 5.24 -8.37 4.6 -8.05 3.93 C-5.97 0.66 -3.63 0.01 0 0 Z M9.01 14.27 C7.07 17.11 7.02 18.42 7.26 21.95 C7.51 23.05 7.75 24.14 8.01 25.27 C8.67 25.6 9.33 25.93 10.01 26.27 C14.49 24.54 18.74 22.45 23.01 20.27 C23.01 19.28 23.01 18.29 23.01 17.27 C18.04 14.83 14.66 13.92 9.01 14.27 Z M43.01 15.27 C44.01 18.27 44.01 18.27 44.01 18.27 Z M47.01 17.27 C42.96 18.61 42.19 20.68 40.01 24.27 C39.57 25.32 39.57 25.32 39.13 26.39 C38.01 28.27 38.01 28.27 34.95 30.08 C31.69 32.05 31.69 32.05 30.95 35.83 C30.67 39.21 30.67 39.21 32.45 41.2 C33.22 41.73 33.22 41.73 34.01 42.27 C36.36 41.64 38.68 40.98 41.01 40.27 C41.66 40.08 42.32 39.9 43 39.71 C45.17 39.05 45.17 39.05 48.01 37.27 C48.87 34.55 49.04 33.05 49.01 30.27 C49.03 28.72 49.03 28.72 49.05 27.14 C49.07 24.18 49.05 21.23 49.01 18.27 C48.35 17.94 47.69 17.61 47.01 17.27 Z " fill="#F7B79F" transform="translate(492.9921875,304.734375)"/>
<path d="M0 0 C2.67 1.81 2.96 2.88 4 6 C4.61 13.26 3.06 20.91 -1 27 C-1.69 30.33 -2.25 33.66 -2.77 37.02 C-3.3 40.15 -3.81 42.68 -5.47 45.41 C-7.72 49.21 -8.22 53.19 -9 57.5 C-9.98 62.95 -10.81 67.36 -14 72 C-14.47 73.2 -14.95 74.39 -15.44 75.62 C-17.02 79.05 -17.68 80.34 -21 82 C-24.44 83.06 -24.44 83.06 -28 83 C-31.64 79.83 -32.87 78.43 -33.31 73.62 C-33.16 72.33 -33.16 72.33 -33 71 C-38.13 70.16 -42.43 70.05 -47.56 70.74 C-52.57 71.28 -58.15 71.75 -63.06 70.46 C-66.25 69.7 -68.56 70.26 -71.63 71.31 C-75.54 74.1 -77.17 78.29 -79 82.64 C-80.72 86.51 -81.58 87.83 -85.57 89.47 C-90.9 90.29 -90.9 90.29 -94 89 C-97.25 84.89 -97.33 81.39 -96.88 76.38 C-96.82 75.67 -96.77 74.97 -96.71 74.24 C-96.13 67.75 -95.18 60.89 -91.95 55.13 C-90.63 52.18 -90.54 49.4 -90.25 46.19 C-89.19 36.67 -86.52 25.42 -79 19 C-76 17 -76 17 -73.56 17.12 C-69.86 18.39 -67.74 20.52 -66 24 C-65.59 29.99 -66.3 35.5 -67.38 41.38 C-67.5 42.08 -67.63 42.78 -67.76 43.5 C-68.42 46.9 -69.05 49.08 -71 52 C-71 52.99 -71 53.98 -71 55 C-64.94 56.48 -58.84 55.97 -52.65 55.76 C-50.51 55.69 -48.36 55.63 -46.21 55.58 C-44.84 55.54 -43.47 55.49 -42.09 55.45 C-40.23 55.39 -40.23 55.39 -38.33 55.33 C-34.27 54.93 -31.25 54.21 -28.28 51.34 C-26.54 48.16 -26.09 45.13 -25.5 41.56 C-24.33 34.53 -24.33 34.53 -22.52 31.61 C-20.33 27.85 -19.96 24 -19.25 19.75 C-17.83 12.15 -16 6.29 -10 1 C-6.82 -0.59 -3.46 -0.4 0 0 Z " fill="#446CF4" transform="translate(555,218)"/>
<path d="M0 0 C8.97 -0.37 15.69 1.81 23.87 5.24 C24.2 4.25 24.53 3.26 24.87 2.24 C29.48 0.04 32.93 0.1 37.87 1.24 C40.72 4.09 40.78 6.21 41.12 10.18 C40.93 20.21 37.36 36.66 30.95 44.62 C27.77 47.1 24.83 47.36 20.87 47.24 C19.66 46.72 19.66 46.72 18.43 46.18 C15.53 45.12 14.85 45.35 11.96 46.14 C-0.5 49.09 -15.91 50.01 -27.13 43.12 C-30.59 40.97 -32.82 39.32 -33.99 35.25 C-34.04 34.25 -34.09 33.26 -34.13 32.24 C-34.2 31.41 -34.27 30.57 -34.34 29.71 C-34.46 23.24 -33.76 18.5 -29.57 13.3 C-28.13 12.24 -28.13 12.24 -26.13 12.24 C-25.8 11.25 -25.47 10.26 -25.13 9.24 C-25.79 8.58 -26.45 7.92 -27.13 7.24 C-25.15 7.24 -23.17 7.24 -21.13 7.24 C-20.8 6.58 -20.47 5.92 -20.13 5.24 C-18.15 4.52 -16.15 3.84 -14.13 3.24 C-14.13 2.58 -14.13 1.92 -14.13 1.24 C-9.43 0.71 -4.72 0.36 0 0 Z M-9.13 16.24 C-11.61 19.16 -11.61 19.16 -13.13 22.24 C-14.12 22.74 -14.12 22.74 -15.13 23.24 C-15.13 25.88 -15.13 28.52 -15.13 31.24 C-14.08 31.39 -13.03 31.53 -11.95 31.68 C-8.13 32.24 -8.13 32.24 -5.7 32.87 C-1.09 33.54 2.89 33.68 6.71 30.89 C9.79 27.7 11.23 25.29 11.24 20.8 C11.12 19.63 10.99 18.45 10.87 17.24 C9.22 16.74 7.58 16.24 5.93 15.74 C5.01 15.46 4.1 15.19 3.15 14.9 C-1 13.71 -5.14 14.74 -9.13 16.24 Z " fill="#F7B79F" transform="translate(588.1328125,247.7578125)"/>
<path d="M0 0 C3.47 2.78 4.3 5.63 5 10 C4.51 12.26 3.77 14.3 2.93 16.46 C1.51 20.35 0.67 24.36 -0.25 28.4 C-1 31 -1 31 -3 34 C-3.57 36.02 -3.57 36.02 -3.93 38.24 C-4.16 39.47 -4.16 39.47 -4.4 40.72 C-4.72 42.44 -5.02 44.15 -5.32 45.87 C-6.34 51.15 -7.53 54.84 -11 59 C-14.98 60.8 -17.36 61.09 -21.69 60.5 C-25 59 -25 59 -26.37 55.98 C-29.52 52.41 -30.52 52.45 -35.12 51.98 C-37.56 51.88 -40 51.8 -42.44 51.75 C-43.67 51.68 -44.89 51.61 -46.16 51.54 C-52.31 51.11 -52.31 51.11 -57.82 53.29 C-59.3 55.07 -59.3 55.07 -61 58 C-65.06 60.71 -69.27 60.54 -74 60 C-76.5 58.94 -76.5 58.94 -78 57 C-79.69 50.23 -78.76 44.62 -76.06 38.31 C-74.02 33.49 -73.16 28.84 -72.49 23.66 C-71.41 17.78 -68.57 15.52 -64 12 C-62 11 -62 11 -59.91 11.64 C-59.11 11.98 -58.32 12.33 -57.5 12.69 C-56.71 13.02 -55.91 13.36 -55.09 13.7 C-52.64 15.23 -51.97 16.31 -51 19 C-50.44 23.69 -51.24 26.96 -53.02 31.24 C-53.39 32.14 -53.76 33.03 -54.14 33.95 C-54.42 34.63 -54.71 35.3 -55 36 C-50.42 36.03 -45.83 36.05 -41.25 36.06 C-39.3 36.08 -39.3 36.08 -37.3 36.09 C-35.43 36.09 -35.43 36.09 -33.52 36.1 C-32.36 36.1 -31.21 36.11 -30.02 36.11 C-27.48 36.02 -25.42 35.75 -23 35 C-22.86 33.78 -22.71 32.57 -22.56 31.31 C-22.38 29.87 -22.19 28.44 -22 27 C-21.9 26.18 -21.79 25.35 -21.69 24.5 C-21.03 22.12 -20.18 20.4 -19 18.25 C-17.36 15.16 -16.78 12.86 -16.62 9.38 C-16.28 5.16 -15.15 2.77 -11.95 -0.04 C-8.11 -1.93 -3.98 -1.27 0 0 Z " fill="#F7B79F" transform="translate(794,288)"/>
<path d="M0 0 C0.86 0.03 1.72 0.07 2.61 0.11 C6.97 0.34 10.52 0.72 14.5 2.69 C15.26 3.03 16.03 3.37 16.82 3.72 C18.32 4.41 19.82 5.1 21.32 5.79 C23.46 6.75 23.46 6.75 25.7 7.14 C26.3 7.32 26.89 7.5 27.5 7.69 C28.69 10.38 28.69 10.38 29.5 13.69 C29.75 14.66 30 15.63 30.25 16.62 C30.57 20.55 30.04 23.06 28.5 26.69 C25.44 29 25.44 29 22.5 30.69 C22.17 31.35 21.84 32.01 21.5 32.69 C18.57 34.04 15.65 34.99 12.5 35.69 C12.5 36.35 12.5 37.01 12.5 37.69 C13.22 37.91 13.94 38.14 14.69 38.38 C19.15 40.46 21.8 43.64 24.5 47.69 C24.31 50.75 24.31 50.75 23.5 53.69 C19.45 56.39 16.25 56.22 11.5 55.69 C9 54.56 9 54.56 6.5 52.69 C4.98 51.71 3.46 50.73 1.94 49.75 C-0.65 48.04 -2.55 46.63 -4.62 44.31 C-6.56 42.3 -6.56 42.3 -10.25 42.44 C-11.32 42.52 -12.39 42.6 -13.5 42.69 C-13.93 43.62 -14.37 44.54 -14.81 45.5 C-17.8 51.14 -17.8 51.14 -21.29 52.26 C-23.48 52.71 -25.27 52.9 -27.5 52.69 C-30.48 50.53 -32.11 49.01 -33.16 45.45 C-33.82 40.1 -33.02 34.74 -32.51 29.4 C-32.31 27.26 -32.14 25.13 -31.97 22.99 C-31.84 21.62 -31.71 20.25 -31.58 18.88 C-31.47 17.64 -31.36 16.41 -31.25 15.14 C-30.4 11.2 -28.91 8.87 -26.5 5.69 C-24.45 3.42 -24.45 3.42 -23.5 0.69 C-15.61 -0.25 -7.93 -0.36 0 0 Z M-9.39 15.48 C-10.84 18.37 -10.78 20.5 -10.5 23.69 C-10.17 24.35 -9.84 25.01 -9.5 25.69 C-7.77 25.74 -6.04 25.78 -4.31 25.81 C-2.87 25.85 -2.87 25.85 -1.39 25.88 C1.68 25.68 3.76 25.08 6.5 23.69 C8.88 20.49 8.88 20.49 9.5 16.69 C6.04 14.63 2.92 14.18 -1.06 13.81 C-2.2 13.69 -3.33 13.57 -4.5 13.45 C-7.57 13.38 -7.57 13.38 -9.39 15.48 Z " fill="#F7B79F" transform="translate(618.5,299.3125)"/>
<path d="M0 0 C1.23 0.68 2.46 1.36 3.69 2.06 C4.99 2.71 4.99 2.71 6.31 3.38 C9.65 5.75 12.51 8.58 14.69 12.06 C14.69 13.38 14.69 14.7 14.69 16.06 C15.68 16.39 16.67 16.72 17.69 17.06 C18.03 19.97 18.27 22.18 16.61 24.69 C15.32 26.17 14.01 27.62 12.69 29.06 C12.36 30.05 12.03 31.04 11.69 32.06 C10.99 32.14 10.28 32.23 9.56 32.31 C6.03 33.23 3.69 35.02 0.69 37.06 C-2.24 38 -5.02 38.24 -8.08 38.38 C-9.41 38.44 -9.41 38.44 -10.77 38.51 C-11.69 38.55 -12.61 38.58 -13.56 38.62 C-14.5 38.67 -15.43 38.71 -16.4 38.76 C-18.7 38.86 -21.01 38.96 -23.31 39.06 C-23.86 40.19 -24.4 41.33 -24.96 42.49 C-25.68 43.97 -26.4 45.46 -27.12 46.94 C-27.48 47.68 -27.84 48.43 -28.21 49.2 C-28.73 50.27 -28.73 50.27 -29.27 51.37 C-29.59 52.03 -29.91 52.69 -30.24 53.37 C-31.31 55.06 -31.31 55.06 -34.31 57.06 C-36.69 57.36 -36.69 57.36 -39.31 57.38 C-40.18 57.39 -41.04 57.41 -41.94 57.43 C-44.31 57.06 -44.31 57.06 -46.09 56.05 C-48.04 52.88 -47.84 49.55 -47.81 45.94 C-47.81 45.17 -47.81 44.41 -47.81 43.62 C-47.67 38.21 -46.74 34.42 -43.41 30.02 C-42.08 28.03 -42.08 28.03 -42.33 25.25 C-42.31 21.3 -41.14 18.78 -39.5 15.19 C-37.74 11.29 -36.02 7.42 -34.62 3.38 C-33.4 0.27 -32.76 -0.87 -30.31 -2.94 C-20.96 -6.05 -8.78 -4.28 0 0 Z M-17.31 11.06 C-19.67 15.63 -19.74 20.03 -19.31 25.06 C-18.98 25.72 -18.65 26.38 -18.31 27.06 C-12.46 26.61 -8.23 24.02 -3.31 21.06 C-4.08 16.64 -4.84 14.1 -8.31 11.06 C-11.36 10.64 -14.26 10.77 -17.31 11.06 Z " fill="#446CF5" transform="translate(679.3125,238.9375)"/>
<path d="M0 0 C7.81 1.58 16.11 5.09 20.96 11.55 C23.69 16.27 24.01 19.96 23.62 25.44 C22.67 27.13 21.67 28.8 20.62 30.44 C19.91 33.63 19.91 33.63 19.62 36.44 C18.63 36.11 17.64 35.78 16.62 35.44 C16.01 36.18 15.39 36.92 14.75 37.69 C11.72 40.74 8.31 42 4.32 43.45 C1.49 44.45 1.49 44.45 -1.71 45.98 C-5.54 47.5 -9.12 48.2 -13.19 48.62 C-14.23 48.74 -14.23 48.74 -15.3 48.86 C-30.88 50.53 -30.88 50.53 -36.38 47.44 C-38.38 45.44 -38.38 45.44 -38.81 42.94 C-38.27 38.62 -36.58 35.64 -34.54 31.83 C-33.19 29.06 -32.87 26.46 -32.38 23.44 C-31.78 22.74 -31.18 22.04 -30.56 21.31 C-28.26 18.29 -27.52 16.05 -26.44 12.44 C-22.21 -1.11 -12.71 -1.7 0 0 Z M-8.38 16.44 C-9.85 19.17 -9.85 19.17 -10.69 22.38 C-11.01 23.44 -11.34 24.5 -11.68 25.59 C-12.49 28.43 -12.49 28.43 -12.38 31.44 C-8.95 32.58 -7.38 32.44 -3.88 31.31 C-0.21 29.35 2.14 27.77 4.62 24.44 C4.95 21.33 4.95 21.33 3.62 18.44 C-0.71 14.21 -3 13.51 -8.38 16.44 Z " fill="#446CF4" transform="translate(600.375,363.5625)"/>
<path d="M0 0 C1.65 0.66 3.3 1.32 5 2 C5.33 1.34 5.66 0.68 6 0 C6.33 0.33 6.66 0.66 7 1 C8.58 1.11 10.16 1.16 11.73 1.18 C13.18 1.21 13.18 1.21 14.66 1.25 C16.71 1.29 18.75 1.32 20.79 1.34 C28.27 1.56 28.27 1.56 32.14 3.92 C34 6 34 6 35 8 C36.67 7.91 36.67 7.91 38.38 7.81 C40.17 7.91 40.17 7.91 42 8 C42.66 8.99 43.32 9.98 44 11 C43.01 11.66 42.02 12.32 41 13 C41.33 13.57 41.67 14.13 42.01 14.72 C43.66 18.51 42.87 22.05 42 26 C39.99 30.02 36.99 31.16 33 33 C32.17 33.54 31.35 34.07 30.5 34.62 C24.25 38.06 16.15 37.33 9.17 37.61 C8.31 37.64 7.44 37.68 6.55 37.72 C5.78 37.75 5 37.78 4.19 37.81 C2 38 0.09 38.3 -2 39 C-2.77 40.02 -2.77 40.02 -3.56 41.06 C-7.07 43.85 -10.08 43.4 -14.44 43.34 C-17 43 -17 43 -20 41 C-21.39 33.09 -20.83 19.91 -16.82 12.96 C-15.59 11.6 -14.3 10.3 -13 9 C-12.06 6.67 -11.54 4.47 -11 2 C-10.29 1.94 -9.58 1.88 -8.85 1.82 C-7.47 1.69 -7.47 1.69 -6.06 1.56 C-5.15 1.48 -4.23 1.4 -3.29 1.32 C-1.04 1.24 -1.04 1.24 0 0 Z M30 5 C29.67 5.66 29.34 6.32 29 7 C30.32 6.67 31.64 6.34 33 6 C32.01 5.67 31.02 5.34 30 5 Z M4 17 C2.56 19.88 3.04 22.01 4 25 C9.18 25.18 13.15 25.08 18 23 C18.66 22.34 19.32 21.68 20 21 C20.99 20.34 21.98 19.68 23 19 C21.68 18.67 20.36 18.34 19 18 C19 17.34 19 16.68 19 16 C14.28 13.64 8.59 14.81 4 17 Z " fill="#F7B79F" transform="translate(709,253)"/>
<path d="M0 0 C2.81 1.81 2.81 1.81 4 5 C3.28 11.35 1.67 15.62 -3 20 C-4.17 21.74 -4.17 21.74 -5.06 23.5 C-6.53 26.19 -8.13 28.57 -10 31 C-11.01 32.66 -12.01 34.33 -13 36 C-15.77 40.58 -18.63 44.84 -22 49 C-22.52 49.89 -23.03 50.77 -23.56 51.69 C-25 54 -25 54 -28 56 C-32.68 57.04 -35.75 57.36 -40 55 C-41.88 53.69 -41.88 53.69 -43 52 C-42.78 47.87 -40.92 44.6 -39 41 C-39.66 40.67 -40.32 40.34 -41 40 C-40.34 40 -39.68 40 -39 40 C-39.47 35.8 -39.87 33.8 -43 31 C-43.6 30.44 -44.21 29.89 -44.83 29.32 C-47.94 26.56 -50.98 23.91 -54.5 21.69 C-55.33 21.13 -56.15 20.57 -57 20 C-57 19.34 -57 18.68 -57 18 C-57.95 17.71 -58.9 17.42 -59.88 17.12 C-63 16 -63 16 -65 14 C-65.3 11.94 -65.3 11.94 -65.31 9.56 C-65.33 8.78 -65.35 8 -65.36 7.19 C-65 5 -65 5 -63.84 3.26 C-61.33 1.54 -59.33 1.49 -56.31 1.31 C-55.32 1.25 -54.32 1.18 -53.3 1.11 C-52.54 1.08 -51.78 1.04 -51 1 C-50.67 2.65 -50.34 4.3 -50 6 C-49.11 6.23 -48.23 6.45 -47.31 6.69 C-43.48 8.2 -41.75 9.97 -39 13 C-35.84 16.39 -33.5 18.7 -29 20 C-28.01 20 -27.02 20 -26 20 C-25.67 19.34 -25.34 18.68 -25 18 C-24.4 17.44 -23.8 16.89 -23.19 16.31 C-20.46 13.43 -18.88 10.49 -17 7 C-16.34 7 -15.68 7 -15 7 C-14.73 6.22 -14.46 5.43 -14.19 4.62 C-11.48 -1.36 -5.71 -0.86 0 0 Z " fill="#446CF4" transform="translate(748,356)"/>
<path d="M0 0 C4.3 -0.03 8.6 -0.04 12.9 -0.05 C14.36 -0.06 15.82 -0.07 17.27 -0.08 C44.86 -0.24 44.86 -0.24 51 3 C52 5.94 52 5.94 52 9 C51.01 10.65 51.01 10.65 49 12 C46.21 12.38 43.61 12.6 40.81 12.69 C40.06 12.72 39.31 12.76 38.54 12.79 C36.69 12.87 34.85 12.94 33 13 C32.87 13.67 32.73 14.35 32.6 15.04 C31.9 18.47 31.17 21.89 30.44 25.31 C30.17 26.57 29.9 27.82 29.62 29.11 C29.42 30.07 29.21 31.02 29 32 C30.32 32.66 31.64 33.32 33 34 C33.5 33.01 33.5 33.01 34 32 C34 32.66 34 33.32 34 34 C36.31 33.67 38.62 33.34 41 33 C41 33.66 41 34.32 41 35 C41.8 35.14 42.61 35.29 43.44 35.44 C46 36 46 36 47 37 C46.95 39 46.95 39 46.69 41.44 C46.61 42.24 46.53 43.04 46.45 43.87 C46 46 46 46 44 48 C42.15 48.27 42.15 48.27 39.89 48.31 C39.04 48.32 38.19 48.34 37.32 48.35 C36.4 48.36 35.48 48.37 34.54 48.37 C33.6 48.38 32.65 48.39 31.68 48.4 C29.69 48.41 27.69 48.42 25.7 48.43 C22.64 48.44 19.59 48.49 16.54 48.54 C14.6 48.55 12.66 48.55 10.73 48.56 C9.81 48.58 8.9 48.6 7.96 48.62 C5.53 48.6 3.36 48.54 1 48 C-1.42 45.53 -1.42 45.53 -3 43 C-3.99 42.67 -4.98 42.34 -6 42 C-6 40.02 -6 38.04 -6 36 C-4.79 35.85 -4.79 35.85 -3.56 35.69 C0.78 34.85 4.83 33.47 9 32 C10.15 25.66 10.1 19.43 10 13 C8.68 13 7.36 13 6 13 C6 12.01 6 11.02 6 10 C3.52 9.01 3.52 9.01 1 8 C0.67 5.36 0.34 2.72 0 0 Z " fill="#446CF4" transform="translate(531,310)"/>
<path d="M0 0 C3.61 0.43 5.23 0.69 8.19 2.88 C9.56 4.94 9.56 4.94 10.56 6.94 C11.36 6.93 12.16 6.91 12.98 6.9 C23.5 6.81 23.5 6.81 28.56 7.94 C28.56 8.6 28.56 9.26 28.56 9.94 C29.88 10.27 31.2 10.6 32.56 10.94 C33.05 16.89 33.05 16.89 32.56 18.94 C27.87 23.1 22.65 22.12 16.8 21.82 C13.47 21.71 10.87 21.85 7.65 22.82 C3.81 26.71 3.96 32.3 3.27 37.54 C2.07 45.05 2.07 45.05 -1.32 48.07 C-4.44 49.94 -4.44 49.94 -8.44 49.94 C-8.77 50.93 -9.1 51.92 -9.44 52.94 C-9.92 52.52 -10.4 52.09 -10.9 51.66 C-11.85 50.84 -11.85 50.84 -12.81 50 C-13.44 49.45 -14.07 48.91 -14.71 48.35 C-16.39 46.87 -16.39 46.87 -18.44 45.94 C-17.88 35.5 -17.88 35.5 -15.88 30.62 C-14.48 27.05 -14.15 24.72 -14.44 20.94 C-15.09 20.82 -15.74 20.7 -16.41 20.57 C-21.22 19.65 -25.83 18.64 -30.44 16.94 C-31.12 14.12 -31.12 14.12 -31.44 10.94 C-30.08 8.86 -29.08 8.15 -26.73 7.39 C-22.68 6.59 -18.55 6.59 -14.43 6.41 C-11.16 5.89 -10.41 5.47 -8.44 2.94 C-5.81 -0.36 -4.15 -0.4 0 0 Z " fill="#446CF5" transform="translate(683.4375,298.0625)"/>
<path d="M0 0 C2.13 -0.01 4.27 -0.04 6.4 -0.07 C7.77 -0.08 9.14 -0.08 10.51 -0.09 C11.75 -0.1 12.99 -0.11 14.26 -0.12 C19.19 0.38 23.25 1.65 26.84 5.24 C27.15 7.68 27.15 7.68 26.84 10.24 C25.31 12.21 24.41 13.12 21.95 13.63 C21.24 13.63 20.53 13.64 19.8 13.64 C18.99 13.66 18.18 13.67 17.35 13.68 C16.48 13.68 15.61 13.68 14.72 13.67 C13.37 13.68 13.37 13.68 12 13.69 C10.11 13.7 8.21 13.69 6.31 13.69 C3.41 13.68 0.52 13.71 -2.38 13.74 C-4.22 13.74 -6.07 13.74 -7.91 13.74 C-8.77 13.75 -9.64 13.76 -10.53 13.77 C-16.53 13.7 -16.53 13.7 -19.74 11.37 C-21.16 9.24 -21.16 9.24 -21.1 6.68 C-20.1 4.08 -19.39 2.89 -17.16 1.24 C-11.72 -0.6 -5.68 0.02 0 0 Z " fill="#446CF6" transform="translate(532.161865234375,378.759765625)"/>
<path d="M0 0 C0.82 -0.01 1.65 -0.02 2.5 -0.02 C4.25 -0.04 5.99 -0.05 7.74 -0.06 C10.4 -0.07 13.06 -0.12 15.72 -0.16 C17.42 -0.17 19.11 -0.18 20.81 -0.19 C21.6 -0.21 22.39 -0.22 23.21 -0.24 C28.61 -0.22 31.39 0.84 35.61 4.24 C35.26 6.71 34.82 8 33.11 9.85 C29.46 11.87 25.92 11.67 21.86 11.64 C21.01 11.64 20.16 11.64 19.29 11.65 C17.5 11.65 15.71 11.64 13.92 11.63 C11.18 11.61 8.45 11.63 5.71 11.65 C3.97 11.65 2.23 11.64 0.48 11.64 C-0.74 11.65 -0.74 11.65 -1.98 11.66 C-6.57 11.6 -9.71 11.29 -13.39 8.24 C-13.72 7.25 -14.05 6.26 -14.39 5.24 C-10.97 -0.58 -6.15 0.06 0 0 Z " fill="#446CF6" transform="translate(762.39453125,374.76171875)"/>
<path d="M0 0 C1.52 0.01 1.52 0.01 3.06 0.01 C6.09 0.32 8.29 0.94 11 2.31 C12.5 4.56 12.5 4.56 13 7.31 C11.53 11.38 9.97 14.43 6 16.31 C0.79 16.94 -4.26 16.68 -9 14.31 C-11.46 11.45 -12 9.97 -12 6.19 C-11 3.31 -11 3.31 -8.81 1.65 C-5.62 0.13 -3.52 -0.06 0 0 Z " fill="#F8B8A0" transform="translate(822,303.6875)"/>
<path d="M0 0 C1.62 0.09 1.62 0.09 3.27 0.18 C4.36 0.22 5.44 0.27 6.56 0.31 C7.39 0.37 8.23 0.43 9.08 0.49 C9.08 1.15 9.08 1.81 9.08 2.49 C9.74 2.49 10.4 2.49 11.08 2.49 C11.44 3.94 11.8 5.4 12.14 6.86 C12.34 7.68 12.54 8.49 12.74 9.32 C13.08 11.49 13.08 11.49 12.08 13.49 C9.46 13.54 6.83 13.58 4.21 13.61 C3.46 13.63 2.71 13.65 1.95 13.66 C-0.01 13.68 -1.97 13.59 -3.92 13.49 C-5.92 11.49 -5.92 11.49 -6.23 8.68 C-5.78 4.06 -4.91 0.82 0 0 Z " fill="#F5B69E" transform="translate(448.91796875,350.51171875)"/>
<path d="M0 0 C3.73 1.22 4.92 2.79 7.06 6 C4.32 8.58 2.71 9.91 -1.06 10.44 C-3.94 10 -3.94 10 -5.88 8.75 C-6.94 7 -6.94 7 -6.81 5 C-5.19 1.28 -4.21 0 0 0 Z " fill="#446CF6" transform="translate(477.9375,375)"/>
<path d="M0 0 C1.38 2.56 1.38 2.56 2 5 C0.79 6.5 0.79 6.5 -1 8 C-3.19 8.21 -3.19 8.21 -5.56 7.94 C-6.35 7.86 -7.13 7.79 -7.94 7.71 C-10 7 -10 7 -11.28 4.94 C-11.52 4.3 -11.75 3.66 -12 3 C-8.31 -1.04 -5.25 -1.57 0 0 Z " fill="#446CF6" transform="translate(819,281)"/>
<path d="M0 0 C3.48 0.17 5.65 0.69 8.75 2.19 C8.75 2.52 8.75 2.85 8.75 3.19 C6.96 3.24 5.17 3.28 3.38 3.31 C2.38 3.34 1.38 3.36 0.35 3.38 C-2.25 3.19 -2.25 3.19 -4.25 1.19 C-3.25 0.19 -3.25 0.19 0 0 Z " fill="#5A78C3" transform="translate(702.25,304.8125)"/>
<path d="M0 0 C3.3 0 6.6 0 10 0 C10 0.33 10 0.66 10 1 C6.7 1 3.4 1 0 1 C0 0.67 0 0.34 0 0 Z " fill="#446E4A" transform="translate(448,365)"/>
<path d="M0 0 C0.33 0 0.66 0 1 0 C1 2.97 1 5.94 1 9 C0.67 9 0.34 9 0 9 C0 6.03 0 3.06 0 0 Z " fill="#476DEF" transform="translate(679,361)"/>
<path d="M0 0 C2.64 0 5.28 0 8 0 C8 0.33 8 0.66 8 1 C5.36 1 2.72 1 0 1 C0 0.67 0 0.34 0 0 Z " fill="#607CB8" transform="translate(577,295)"/>
<path d="M0 0 C0.99 0.33 1.98 0.66 3 1 C1.68 1.33 0.36 1.66 -1 2 C-0.67 1.34 -0.34 0.68 0 0 Z " fill="#446CF6" transform="translate(683,357)"/>
<path d="M0 0 C1.98 0.99 1.98 0.99 4 2 C2.68 2 1.36 2 0 2 C0 1.34 0 0.68 0 0 Z " fill="#F8B8A0" transform="translate(506,325)"/>
<path d="M0 0 C0 3 0 3 0 3 Z " fill="#F8B8A0" transform="translate(655,349)"/>
<path d="M0 0 C0 3 0 3 0 3 Z " fill="#F8B8A0" transform="translate(775,298)"/>
<path d="M0 0 C0.99 0.5 0.99 0.5 2 1 C1.67 1.66 1.34 2.32 1 3 C0.67 2.01 0.34 1.02 0 0 Z " fill="#446CF6" transform="translate(465,250)"/>
<path d="" fill="#F8B8A0" transform="translate(0,0)"/>
<path d="" fill="#446CF6" transform="translate(0,0)"/>
<path d="M0 0 C0.99 0.5 0.99 0.5 2 1 C1.01 1.5 1.01 1.5 0 2 C0 1.34 0 0.68 0 0 Z " fill="#F8B8A0" transform="translate(582,246)"/>
<path d="" fill="#446CF6" transform="translate(0,0)"/>
<path d="" fill="#F8B8A0" transform="translate(0,0)"/>
<path d="" fill="#F8B8A0" transform="translate(0,0)"/>
<path d="" fill="#F8B8A0" transform="translate(0,0)"/>
<path d="" fill="#F8B8A0" transform="translate(0,0)"/>
<path d="M0 0 C2 1 2 1 2 1 Z " fill="#F8B8A0" transform="translate(761,301)"/>
<path d="" fill="#446CF6" transform="translate(0,0)"/>
<path d="M0 0 C2 1 2 1 2 1 Z " fill="#F8B8A0" transform="translate(490,288)"/>
<path d="M0 0 C2 1 2 1 2 1 Z " fill="#F8B8A0" transform="translate(721,274)"/>
<path d="" fill="#446CF6" transform="translate(0,0)"/>
<path d="M0 0 C2 1 2 1 2 1 Z " fill="#446CF6" transform="translate(665,262)"/>
<path d="M0 0 C2 1 2 1 2 1 Z " fill="#F8B8A0" transform="translate(699,254)"/>
<path d="M0 0 C2 1 2 1 2 1 Z " fill="#446CF6" transform="translate(784,250)"/>
<path d="" fill="#F8B8A0" transform="translate(0,0)"/>
<path d="M0 0 C2 1 2 1 2 1 Z " fill="#446CF6" transform="translate(673,235)"/>
<path d="M0 0 C2 1 2 1 2 1 Z " fill="#446CF6" transform="translate(473,235)"/>
<path d="" fill="#446CF6" transform="translate(0,0)"/>
<path d="" fill="#446CF6" transform="translate(0,0)"/>
<path d="" fill="#F8B8A0" transform="translate(0,0)"/>
<path d="" fill="#446CF6" transform="translate(0,0)"/>
<path d="" fill="#446CF6" transform="translate(0,0)"/>
<path d="" fill="#446CF6" transform="translate(0,0)"/>
<path d="" fill="#446CF6" transform="translate(0,0)"/>
<path d="" fill="#446CF6" transform="translate(0,0)"/>
<path d="" fill="#F8B8A0" transform="translate(0,0)"/>
<path d="" fill="#F8B8A0" transform="translate(0,0)"/>
<path d="" fill="#F8B8A0" transform="translate(0,0)"/>
<path d="" fill="#F8B8A0" transform="translate(0,0)"/>
<path d="" fill="#F8B8A0" transform="translate(0,0)"/>
<path d="" fill="#F8B8A0" transform="translate(0,0)"/>
<path d="" fill="#607CB8" transform="translate(0,0)"/>
<path d="" fill="#F8B8A0" transform="translate(0,0)"/>
<path d="" fill="#F8B8A0" transform="translate(0,0)"/>
<path d="" fill="#F8B8A0" transform="translate(0,0)"/>
<path d="" fill="#F8B8A0" transform="translate(0,0)"/>
<path d="" fill="#F8B8A0" transform="translate(0,0)"/>
<path d="" fill="#F8B8A0" transform="translate(0,0)"/>
<path d="" fill="#9C9679" transform="translate(0,0)"/>
<path d="" fill="#446CF6" transform="translate(0,0)"/>
<path d="" fill="#446CF6" transform="translate(0,0)"/>
<path d="" fill="#607CB8" transform="translate(0,0)"/>
<path d="" fill="#446E4A" transform="translate(0,0)"/>
<path d="" fill="#446CF6" transform="translate(0,0)"/>
<path d="" fill="#F8B8A0" transform="translate(0,0)"/>
<path d="" fill="#F8B8A0" transform="translate(0,0)"/>
<path d="" fill="#446CF6" transform="translate(0,0)"/>
<path d="" fill="#446CF6" transform="translate(0,0)"/>
<path d="" fill="#446CF6" transform="translate(0,0)"/>
<path d="" fill="#446CF6" transform="translate(0,0)"/>
<path d="" fill="#446CF6" transform="translate(0,0)"/>
<path d="" fill="#446CF6" transform="translate(0,0)"/>
</svg>
