<?xml version="1.0" encoding="UTF-8"?>
<!-- Generator: visioncortex VTracer 0.6.3 -->
<svg version="1.1" xmlns="http://www.w3.org/2000/svg" width="1280" height="640">
<path d="M0 0 C3.17 -0.08 6.35 -0.13 9.52 -0.17 C10.54 -0.19 11.55 -0.21 12.59 -0.23 C19.02 -0.26 24.21 0.64 30.15 3.08 C36.43 5.69 36.43 5.69 43.15 6.08 C43.15 6.74 43.15 7.4 43.15 8.08 C48.07 10.17 53.15 11.64 58.27 13.14 C62.3 14.36 65.54 15.85 69.15 18.08 C72.84 18.8 72.84 18.8 76.15 19.08 C76.15 19.74 76.15 20.4 76.15 21.08 C77.14 20.75 78.13 20.42 79.15 20.08 C79.83 20.66 80.51 21.24 81.21 21.83 C84.06 24.01 85.66 24.66 89.02 25.58 C92.88 26.64 95.96 27.93 99.34 30.03 C102.79 32.04 106.49 33.52 110.15 35.08 C110.15 35.74 110.15 36.4 110.15 37.08 C111.41 37.41 112.67 37.74 113.96 38.08 C120.21 40.15 125.03 44.04 130.15 48.08 C131.04 48.79 131.93 49.49 132.85 50.21 C135.15 52.08 135.15 52.08 137.15 54.08 C137.87 54.76 138.59 55.44 139.34 56.15 C145.34 62.24 150.15 67.24 150.15 76.08 C149.76 84.47 149.76 84.47 147.15 87.08 C146.47 89.15 145.85 91.24 145.27 93.33 C143.79 98.35 142.33 101.98 139.15 106.08 C138.72 106.91 138.28 107.73 137.84 108.58 C133.86 114.47 128.7 117.49 122.24 120.15 C119.47 121.39 117.33 122.98 115.15 125.08 C115.15 125.74 115.15 126.4 115.15 127.08 C115.89 127.64 116.63 128.2 117.4 128.77 C120.61 131.47 122.82 134.11 124.15 138.08 C124.66 144.73 122 150.26 119.15 156.08 C118.56 157.43 117.97 158.79 117.4 160.15 C116.99 161.11 116.57 162.08 116.15 163.08 C115.49 163.08 114.83 163.08 114.15 163.08 C114.03 163.95 113.9 164.82 113.77 165.71 C112.39 173.18 109.71 177.89 104.15 183.08 C103.16 183.41 102.17 183.74 101.15 184.08 C100.69 184.55 100.24 185.01 99.77 185.49 C93.34 191.82 82.64 193.38 74.15 195.08 C71.77 195.58 69.4 196.08 67.02 196.58 C65.97 196.8 64.92 197.02 63.83 197.24 C60.38 197.97 60.38 197.97 58 198.79 C48.39 201.84 38.51 202.05 28.52 202.65 C25.77 202.81 23.01 202.98 20.25 203.16 C18.55 203.28 16.84 203.38 15.14 203.48 C10.36 203.78 5.87 204.47 1.22 205.61 C-5.83 207.22 -12.98 207.21 -20.16 207.15 C-21.04 207.14 -21.92 207.14 -22.83 207.13 C-24.45 207.12 -26.08 207.11 -27.7 207.1 C-31.91 206.9 -31.91 206.9 -35.85 208.08 C-40.37 208.33 -44.89 208.27 -49.41 208.27 C-50.66 208.28 -51.92 208.29 -53.2 208.31 C-62.9 208.32 -70.21 207.51 -78.85 203.08 C-81.08 202.53 -83.34 202.06 -85.6 201.65 C-90.86 200.59 -95.51 199.18 -100.41 197.06 C-103.97 195.64 -107.63 194.75 -111.33 193.8 C-113.85 193.08 -113.85 193.08 -117.29 191.58 C-121.45 189.83 -125.58 188.89 -129.98 187.93 C-133 187.04 -135.18 185.72 -137.85 184.08 C-140.36 183.25 -142.89 182.59 -145.45 181.93 C-148.03 181.02 -149.71 179.77 -151.85 178.08 C-153.18 177.74 -154.51 177.41 -155.85 177.08 C-156.18 176.42 -156.51 175.76 -156.85 175.08 C-157.84 175.08 -158.83 175.08 -159.85 175.08 C-164.17 173.64 -167.96 171.39 -171.85 169.08 C-172.74 168.57 -173.62 168.05 -174.54 167.52 C-180.48 163.83 -180.48 163.83 -181.85 161.08 C-183.14 160.12 -184.46 159.18 -185.79 158.27 C-189.2 155.79 -190.5 154.12 -191.85 150.08 C-193.85 148.87 -193.85 148.87 -195.85 148.08 C-198.08 143.61 -197.96 138 -197.85 133.08 C-196.88 130.28 -195.99 129.22 -193.85 127.08 C-193.19 127.08 -192.53 127.08 -191.85 127.08 C-191.79 126.46 -191.73 125.83 -191.67 125.18 C-191.58 124.37 -191.5 123.55 -191.41 122.71 C-191.33 121.9 -191.25 121.08 -191.17 120.25 C-190.85 118.08 -190.85 118.08 -189.85 116.08 C-190.51 115.75 -191.17 115.42 -191.85 115.08 C-191.11 114.59 -190.37 114.09 -189.6 113.58 C-186.59 110.85 -185.45 108.59 -183.94 104.89 C-182.85 103.08 -182.85 103.08 -180.85 102.09 C-178.32 100.82 -178.06 99.58 -176.85 97.08 C-175.05 95.63 -175.05 95.63 -172.98 94.4 C-172.3 93.98 -171.62 93.56 -170.92 93.13 C-168.85 92.08 -168.85 92.08 -166.66 91.63 C-166.06 91.45 -165.46 91.27 -164.85 91.08 C-164.36 89.6 -164.36 89.6 -163.85 88.08 C-163.85 88.74 -163.85 89.4 -163.85 90.08 C-162.53 89.09 -161.21 88.1 -159.85 87.08 C-160.47 86.53 -161.09 85.97 -161.73 85.4 C-166.43 80.28 -166.8 73.78 -166.85 67.08 C-166.41 64.27 -165.72 61.81 -164.85 59.08 C-165.84 58.59 -165.84 58.59 -166.85 58.08 C-166.19 58.08 -165.53 58.08 -164.85 58.08 C-164.85 56.76 -164.85 55.44 -164.85 54.08 C-164.19 54.08 -163.53 54.08 -162.85 54.08 C-162.52 53.09 -162.19 52.1 -161.85 51.08 C-161.19 51.08 -160.53 51.08 -159.85 51.08 C-160.35 48.11 -160.35 48.11 -160.85 45.08 C-160.19 45.08 -159.53 45.08 -158.85 45.08 C-158.76 44.52 -158.68 43.95 -158.58 43.37 C-157.64 40.44 -156.15 38.8 -154.1 36.52 C-153.43 35.76 -152.75 34.99 -152.05 34.2 C-149.8 32.04 -147.52 30.68 -144.85 29.08 C-144.19 28.09 -143.53 27.1 -142.85 26.08 C-141.86 26.08 -140.87 26.08 -139.85 26.08 C-139.52 25.42 -139.19 24.76 -138.85 24.08 C-138.52 24.41 -138.19 24.74 -137.85 25.08 C-135.54 24.09 -133.23 23.1 -130.85 22.08 C-130.85 21.42 -130.85 20.76 -130.85 20.08 C-129.62 19.9 -128.39 19.72 -127.12 19.53 C-125.49 19.28 -123.86 19.02 -122.23 18.77 C-121.42 18.65 -120.61 18.53 -119.78 18.41 C-114.91 17.64 -111.26 16.37 -106.85 14.08 C-103.8 13.46 -103.8 13.46 -100.54 13.08 C-94.99 12.38 -89.49 11.55 -83.98 10.58 C-83.29 10.46 -82.6 10.35 -81.89 10.22 C-78.56 9.63 -75.35 8.95 -72.08 8.08 C-68.13 7.08 -64.27 6.64 -60.19 6.34 C-58.74 6.22 -57.29 6.1 -55.84 5.99 C-53.61 5.82 -51.38 5.65 -49.14 5.48 C-39.75 4.77 -30.65 3.65 -21.42 1.75 C-14.32 0.42 -7.2 0.21 0 0 Z M141.15 60.08 C142.15 62.08 142.15 62.08 142.15 62.08 Z M110.15 123.08 C110.48 124.07 110.81 125.06 111.15 126.08 C111.15 125.09 111.15 124.1 111.15 123.08 C110.82 123.08 110.49 123.08 110.15 123.08 Z " fill="#C2447A" transform="translate(662.8505859375,215.91748046875)"/>
<path d="M0 0 C3.17 -0.08 6.35 -0.13 9.52 -0.17 C10.54 -0.19 11.55 -0.21 12.59 -0.23 C19.02 -0.26 24.21 0.64 30.15 3.08 C36.43 5.69 36.43 5.69 43.15 6.08 C43.15 6.74 43.15 7.4 43.15 8.08 C48.07 10.17 53.15 11.64 58.27 13.14 C62.3 14.36 65.54 15.85 69.15 18.08 C72.84 18.8 72.84 18.8 76.15 19.08 C76.15 19.74 76.15 20.4 76.15 21.08 C77.14 20.75 78.13 20.42 79.15 20.08 C79.83 20.66 80.51 21.24 81.21 21.83 C84.06 24.01 85.66 24.66 89.02 25.58 C92.88 26.64 95.96 27.93 99.34 30.03 C102.79 32.04 106.49 33.52 110.15 35.08 C110.15 35.74 110.15 36.4 110.15 37.08 C111.41 37.41 112.67 37.74 113.96 38.08 C120.21 40.15 125.03 44.04 130.15 48.08 C131.04 48.79 131.93 49.49 132.85 50.21 C135.15 52.08 135.15 52.08 137.15 54.08 C137.87 54.76 138.59 55.44 139.34 56.15 C145.34 62.24 150.15 67.24 150.15 76.08 C149.76 84.47 149.76 84.47 147.15 87.08 C146.47 89.15 145.85 91.24 145.27 93.33 C143.79 98.35 142.33 101.98 139.15 106.08 C138.72 106.91 138.28 107.73 137.84 108.58 C133.86 114.47 128.7 117.49 122.24 120.15 C119.47 121.39 117.33 122.98 115.15 125.08 C115.15 125.74 115.15 126.4 115.15 127.08 C115.89 127.64 116.63 128.2 117.4 128.77 C120.61 131.47 122.82 134.11 124.15 138.08 C124.66 144.73 122 150.26 119.15 156.08 C118.56 157.43 117.97 158.79 117.4 160.15 C116.99 161.11 116.57 162.08 116.15 163.08 C115.49 163.08 114.83 163.08 114.15 163.08 C114.03 163.95 113.9 164.82 113.77 165.71 C112.39 173.18 109.71 177.89 104.15 183.08 C103.16 183.41 102.17 183.74 101.15 184.08 C100.69 184.55 100.24 185.01 99.77 185.49 C93.34 191.82 82.64 193.38 74.15 195.08 C71.77 195.58 69.4 196.08 67.02 196.58 C65.97 196.8 64.92 197.02 63.83 197.24 C60.38 197.97 60.38 197.97 58 198.79 C48.39 201.84 38.51 202.05 28.52 202.65 C25.77 202.81 23.01 202.98 20.25 203.16 C18.55 203.28 16.84 203.38 15.14 203.48 C10.36 203.78 5.87 204.47 1.22 205.61 C-5.83 207.22 -12.98 207.21 -20.16 207.15 C-21.04 207.14 -21.92 207.14 -22.83 207.13 C-24.45 207.12 -26.08 207.11 -27.7 207.1 C-31.91 206.9 -31.91 206.9 -35.85 208.08 C-40.37 208.33 -44.89 208.27 -49.41 208.27 C-50.66 208.28 -51.92 208.29 -53.2 208.31 C-62.9 208.32 -70.21 207.51 -78.85 203.08 C-81.08 202.53 -83.34 202.06 -85.6 201.65 C-90.86 200.59 -95.51 199.18 -100.41 197.06 C-103.97 195.64 -107.63 194.75 -111.33 193.8 C-113.85 193.08 -113.85 193.08 -117.29 191.58 C-121.45 189.83 -125.58 188.89 -129.98 187.93 C-133 187.04 -135.18 185.72 -137.85 184.08 C-140.36 183.25 -142.89 182.59 -145.45 181.93 C-148.03 181.02 -149.71 179.77 -151.85 178.08 C-153.18 177.74 -154.51 177.41 -155.85 177.08 C-156.18 176.42 -156.51 175.76 -156.85 175.08 C-157.84 175.08 -158.83 175.08 -159.85 175.08 C-164.17 173.64 -167.96 171.39 -171.85 169.08 C-172.74 168.57 -173.62 168.05 -174.54 167.52 C-180.48 163.83 -180.48 163.83 -181.85 161.08 C-183.14 160.12 -184.46 159.18 -185.79 158.27 C-189.2 155.79 -190.5 154.12 -191.85 150.08 C-193.85 148.87 -193.85 148.87 -195.85 148.08 C-198.08 143.61 -197.96 138 -197.85 133.08 C-196.88 130.28 -195.99 129.22 -193.85 127.08 C-193.19 127.08 -192.53 127.08 -191.85 127.08 C-191.79 126.46 -191.73 125.83 -191.67 125.18 C-191.58 124.37 -191.5 123.55 -191.41 122.71 C-191.33 121.9 -191.25 121.08 -191.17 120.25 C-190.85 118.08 -190.85 118.08 -189.85 116.08 C-190.51 115.75 -191.17 115.42 -191.85 115.08 C-191.11 114.59 -190.37 114.09 -189.6 113.58 C-186.59 110.85 -185.45 108.59 -183.94 104.89 C-182.85 103.08 -182.85 103.08 -180.85 102.09 C-178.32 100.82 -178.06 99.58 -176.85 97.08 C-175.05 95.63 -175.05 95.63 -172.98 94.4 C-172.3 93.98 -171.62 93.56 -170.92 93.13 C-168.85 92.08 -168.85 92.08 -166.66 91.63 C-166.06 91.45 -165.46 91.27 -164.85 91.08 C-164.36 89.6 -164.36 89.6 -163.85 88.08 C-163.85 88.74 -163.85 89.4 -163.85 90.08 C-162.53 89.09 -161.21 88.1 -159.85 87.08 C-160.47 86.53 -161.09 85.97 -161.73 85.4 C-166.43 80.28 -166.8 73.78 -166.85 67.08 C-166.41 64.27 -165.72 61.81 -164.85 59.08 C-165.84 58.59 -165.84 58.59 -166.85 58.08 C-166.19 58.08 -165.53 58.08 -164.85 58.08 C-164.85 56.76 -164.85 55.44 -164.85 54.08 C-164.19 54.08 -163.53 54.08 -162.85 54.08 C-162.52 53.09 -162.19 52.1 -161.85 51.08 C-161.19 51.08 -160.53 51.08 -159.85 51.08 C-160.35 48.11 -160.35 48.11 -160.85 45.08 C-160.19 45.08 -159.53 45.08 -158.85 45.08 C-158.76 44.52 -158.68 43.95 -158.58 43.37 C-157.64 40.44 -156.15 38.8 -154.1 36.52 C-153.43 35.76 -152.75 34.99 -152.05 34.2 C-149.8 32.04 -147.52 30.68 -144.85 29.08 C-144.19 28.09 -143.53 27.1 -142.85 26.08 C-141.86 26.08 -140.87 26.08 -139.85 26.08 C-139.52 25.42 -139.19 24.76 -138.85 24.08 C-138.52 24.41 -138.19 24.74 -137.85 25.08 C-135.54 24.09 -133.23 23.1 -130.85 22.08 C-130.85 21.42 -130.85 20.76 -130.85 20.08 C-129.62 19.9 -128.39 19.72 -127.12 19.53 C-125.49 19.28 -123.86 19.02 -122.23 18.77 C-121.42 18.65 -120.61 18.53 -119.78 18.41 C-114.91 17.64 -111.26 16.37 -106.85 14.08 C-103.8 13.46 -103.8 13.46 -100.54 13.08 C-94.99 12.38 -89.49 11.55 -83.98 10.58 C-83.29 10.46 -82.6 10.35 -81.89 10.22 C-78.56 9.63 -75.35 8.95 -72.08 8.08 C-68.13 7.08 -64.27 6.64 -60.19 6.34 C-58.74 6.22 -57.29 6.1 -55.84 5.99 C-53.61 5.82 -51.38 5.65 -49.14 5.48 C-39.75 4.77 -30.65 3.65 -21.42 1.75 C-14.32 0.42 -7.2 0.21 0 0 Z M-10.16 13.96 C-11.19 14.04 -12.23 14.11 -13.29 14.2 C-18.75 14.65 -23.58 15.53 -28.85 17.08 C-31.55 17.41 -34.25 17.54 -36.98 17.65 C-41.36 17.84 -45.55 18.21 -49.85 19.08 C-52.14 19.23 -54.43 19.35 -56.73 19.46 C-62.39 19.78 -62.39 19.78 -67.66 21.65 C-71.35 23.31 -73.82 23.21 -77.78 23.06 C-80.46 23.09 -82.42 24.03 -84.85 25.08 C-85.74 25.07 -86.62 25.05 -87.54 25.03 C-91.35 25.09 -94.5 25.88 -98.16 26.9 C-98.82 27.08 -99.49 27.26 -100.17 27.45 C-105.12 28.84 -110.01 30.33 -114.85 32.08 C-116.06 32.48 -116.06 32.48 -117.3 32.88 C-125 35.58 -131.49 39.59 -135.38 46.99 C-136.23 49.04 -137.04 51.12 -137.79 53.21 C-138.72 55.73 -139.79 57.79 -141.16 60.08 C-143.7 65.18 -144.39 70.58 -142.85 76.08 C-140.51 78.43 -138.24 79.91 -135.33 81.48 C-132.45 83.34 -131.58 85.18 -129.85 88.08 C-127.88 89.19 -127.88 89.19 -125.73 89.71 C-123.59 90.31 -123.59 90.31 -121.85 91.08 C-121.52 92.07 -121.19 93.06 -120.85 94.08 C-124.1 95.27 -127.04 96.11 -130.48 96.58 C-133.45 97.02 -135.31 97.56 -137.85 99.08 C-138.18 98.42 -138.51 97.76 -138.85 97.08 C-138.85 97.74 -138.85 98.4 -138.85 99.08 C-143.6 100.21 -143.6 100.21 -145.85 99.08 C-146.18 99.74 -146.51 100.4 -146.85 101.08 C-147.51 100.75 -148.17 100.42 -148.85 100.08 C-149.18 100.74 -149.51 101.4 -149.85 102.08 C-150.84 102.08 -151.83 102.08 -152.85 102.08 C-156.11 104.36 -158.76 106.68 -160.85 110.08 C-160.85 111.07 -160.85 112.06 -160.85 113.08 C-162.34 113.58 -162.34 113.58 -163.85 114.08 C-164.99 115.95 -164.99 115.95 -165.86 118.27 C-166.21 119.11 -166.55 119.96 -166.91 120.83 C-167.26 121.72 -167.61 122.6 -167.98 123.52 C-168.69 125.27 -169.4 127.02 -170.11 128.77 C-170.57 129.93 -170.57 129.93 -171.05 131.13 C-171.85 133.08 -171.85 133.08 -172.85 135.08 C-173.23 140.06 -173.11 143.2 -169.85 147.08 C-144.86 162.16 -116.62 171.57 -88.64 179.38 C-85.17 180.36 -81.8 181.45 -78.43 182.71 C-64.01 188.07 -52.06 188 -36.94 185.52 C-33.5 185.03 -30.24 184.98 -26.78 185.08 C-24.61 185.13 -24.61 185.13 -21.54 184.58 C-18.3 184.14 -15.42 184.08 -12.16 184.15 C-6.87 184.2 -2.03 183.49 3.16 182.52 C6.19 182.08 8.97 182.05 12.02 182.15 C17.89 182.28 23.15 181.16 28.83 179.74 C32.35 179.04 35.56 179.06 39.15 179.08 C43.55 178.36 47.84 177.21 52.15 176.08 C52.85 175.9 53.55 175.72 54.27 175.53 C68.39 172.36 68.39 172.36 78.9 163.33 C79.52 161.72 79.52 161.72 80.15 160.08 C80.83 158.54 81.52 157 82.21 155.46 C82.53 154.72 82.85 153.99 83.18 153.23 C84.15 151.08 84.15 151.08 85.26 149.01 C86.49 146.34 86.28 143.99 86.15 141.08 C87.14 141.08 88.13 141.08 89.15 141.08 C90.21 135.06 90.6 131.25 87.15 126.08 C86.49 126.08 85.83 126.08 85.15 126.08 C85.15 125.42 85.15 124.76 85.15 124.08 C82.24 122.04 80.75 121.08 77.15 121.08 C76.82 120.42 76.49 119.76 76.15 119.08 C75.49 119.08 74.83 119.08 74.15 119.08 C72.47 118.45 70.81 117.78 69.15 117.08 C67.79 116.62 67.79 116.62 66.4 116.15 C65.66 115.79 64.91 115.44 64.15 115.08 C63.82 114.09 63.49 113.1 63.15 112.08 C67.15 110.26 70.8 109.65 75.15 109.08 C79.85 108.21 84.52 107.27 89.15 106.08 C89.15 105.42 89.15 104.76 89.15 104.08 C89.82 103.96 90.5 103.84 91.2 103.72 C92.09 103.55 92.98 103.38 93.9 103.21 C94.78 103.05 95.66 102.88 96.57 102.72 C102.94 101.15 106.48 97.38 110.15 92.08 C111.78 88.49 112.97 84.84 114.15 81.08 C114.81 79.41 115.47 77.75 116.15 76.08 C117.79 71.17 118.1 68.08 115.87 63.39 C109.63 52.97 101.53 48.45 90.71 43.46 C89.73 42.99 88.74 42.53 87.73 42.05 C79.49 38.18 71.26 34.41 62.71 31.27 C56.84 29.1 50.98 26.87 45.15 24.58 C39.25 22.28 33.33 20 27.4 17.77 C26.43 17.41 26.43 17.41 25.45 17.04 C23.69 16.38 21.92 15.73 20.15 15.08 C19.26 14.7 18.37 14.31 17.45 13.91 C8.62 11.69 -1.18 13.19 -10.16 13.96 Z M141.15 60.08 C142.15 62.08 142.15 62.08 142.15 62.08 Z M110.15 123.08 C110.48 124.07 110.81 125.06 111.15 126.08 C111.15 125.09 111.15 124.1 111.15 123.08 C110.82 123.08 110.49 123.08 110.15 123.08 Z " fill="#FAF7F9" transform="translate(662.8505859375,215.91748046875)"/>
<path d="M0 0 C1.36 0.55 2.72 1.1 4.08 1.65 C5.18 2.11 5.18 2.11 6.31 2.57 C11.08 4.51 15.92 6.27 20.75 8.06 C22.81 8.84 24.88 9.61 26.94 10.39 C30.47 11.71 34 13.03 37.53 14.33 C38.24 14.6 38.95 14.86 39.69 15.13 C41.53 15.82 43.37 16.5 45.21 17.18 C53.77 20.53 62.07 24.52 70.38 28.44 C71.47 28.94 72.56 29.45 73.69 29.96 C83.96 34.83 90.99 39.97 95.75 50.56 C96.6 56.11 95.08 59.55 92.75 64.56 C92.26 66.06 91.78 67.56 91.31 69.06 C89.07 75.85 86.11 81.76 79.75 85.56 C75.76 87.26 72.11 88.56 67.75 88.56 C67.75 89.22 67.75 89.88 67.75 90.56 C66.92 90.69 66.1 90.81 65.25 90.94 C61.7 91.52 61.7 91.52 58.06 92.56 C49.93 94.62 40.98 95.49 32.75 93.56 C28.75 91.03 27.53 87.02 25.73 82.8 C21.29 72.66 12.36 68.73 2.94 63.86 C0.75 62.56 0.75 62.56 -0.25 60.56 C1.01 59.87 1.01 59.87 2.3 59.17 C3.4 58.56 4.5 57.94 5.62 57.31 C6.72 56.71 7.81 56.11 8.93 55.48 C11.7 53.6 12.88 52.76 13.75 49.56 C13.16 45.81 11.6 42.5 9.06 39.69 C2.83 36.66 -3.51 36.24 -10.31 36.31 C-11.08 36.3 -11.84 36.3 -12.63 36.29 C-16.45 36.3 -19.3 36.58 -23 37.72 C-26.25 38.56 -26.25 38.56 -28.84 37.73 C-30 37.03 -30 37.03 -31.19 36.31 C-42.19 30.24 -53.55 30.21 -65.61 33.59 C-70.53 35.41 -73.22 37.71 -75.81 42.38 C-76.34 46.24 -75.49 48.35 -73.88 51.83 C-73.67 52.4 -73.46 52.97 -73.25 53.56 C-73.75 54.55 -73.75 54.55 -74.25 55.56 C-76.19 56.12 -76.19 56.12 -78.75 56.57 C-79.69 56.75 -80.63 56.93 -81.6 57.11 C-83.13 57.4 -83.13 57.4 -84.69 57.69 C-97.82 60.36 -110.55 64.08 -120.75 73.12 C-123.99 75.94 -125.78 77.11 -130.12 76.81 C-132.62 76.3 -132.62 76.3 -135.25 75.56 C-136.67 75.2 -136.67 75.2 -138.12 74.82 C-147.45 72.08 -157.2 67.38 -164.25 60.56 C-166.36 52.73 -163.56 46.08 -159.75 39.31 C-158.45 36.93 -157.66 34.9 -156.94 32.31 C-154.47 25.63 -148.9 21.82 -142.66 18.87 C-134.47 15.54 -125.98 13.31 -117.38 11.32 C-114.37 10.71 -114.37 10.71 -112.25 9.56 C-111.14 9.58 -110.02 9.6 -108.88 9.62 C-105.42 9.83 -105.42 9.83 -103.29 8.55 C-100.92 7.4 -99.55 7.44 -96.94 7.62 C-93.11 7.72 -90.85 7.02 -87.39 5.29 C-83.33 3.91 -79.01 3.97 -74.75 3.77 C-71.25 3.61 -71.25 3.61 -67.79 3.07 C-62.83 2.36 -57.87 2.18 -52.87 1.94 C-49.34 1.71 -49.34 1.71 -46.51 0.6 C-41.63 -0.95 -36.71 -1.18 -31.62 -1.56 C-30.61 -1.65 -29.59 -1.74 -28.54 -1.82 C-8.19 -3.45 -8.19 -3.45 0 0 Z " fill="#533242" transform="translate(684.25,231.4375)"/>
<path d="M0 0 C4.55 2.1 7.45 5.29 10.8 8.98 C13.3 11.27 15.65 12.49 18.73 13.91 C20.4 14.68 20.4 14.68 22.11 15.47 C23.27 16 24.43 16.52 25.62 17.06 C26.76 17.59 27.9 18.12 29.07 18.67 C34.95 21.35 40.72 23.72 46.96 25.41 C49.41 26.12 51.68 27.15 54 28.2 C57.66 29.67 61.45 30.71 65.23 31.84 C68.65 32.89 72.04 34.01 75.42 35.17 C82.42 37.55 89.44 39.77 96.56 41.75 C97.28 41.95 97.99 42.15 98.72 42.35 C100.81 42.92 102.9 43.46 105 44 C105.7 44.2 106.4 44.39 107.13 44.6 C113.32 46.2 119.03 46.05 125.38 45.62 C127.32 45.51 129.27 45.4 131.21 45.29 C132.17 45.23 133.13 45.18 134.11 45.12 C136.99 45 139.84 45.03 142.73 45.09 C146.73 45.12 150 44.61 153.82 43.51 C158.67 42.38 163.73 42.31 168.69 42 C171.13 41.83 173.56 41.66 176 41.48 C179.26 41.26 182.53 41.03 185.79 40.81 C197.65 40 209.26 38.21 220.94 36.06 C221.99 35.87 221.99 35.87 223.07 35.68 C225.1 35.31 227.13 34.92 229.15 34.54 C230.33 34.31 231.5 34.09 232.71 33.86 C237.03 32.73 240.63 31.09 244.12 28.31 C246 27 246 27 250 27 C250.49 31.86 249.4 34.65 247.14 38.78 C245.89 41.22 244.99 43.68 244.06 46.25 C241.68 52.23 238.53 54.43 232.75 57 C225.39 59.8 217.68 61.35 210 63 C209.01 63.22 208.02 63.44 207 63.66 C202.41 64.63 197.87 65.27 193.2 65.71 C190.97 66 188.87 66.5 186.69 67.06 C182.13 68.14 177.84 68.03 173.18 67.94 C169.84 68 166.73 68.44 163.44 69 C158.43 69.85 153.74 70.11 148.67 70.01 C145.07 70 141.55 70.35 137.97 70.71 C133.38 71.16 128.77 71.43 124.16 71.72 C121.36 71.97 118.75 72.45 116 73 C101.27 74.87 89.27 70.14 75.57 65.23 C69.78 63.23 63.89 61.56 58 59.88 C42.52 55.36 27.82 49.96 13.12 43.31 C12.1 42.85 11.07 42.38 10.01 41.91 C5.19 39.68 0.99 37.56 -3 34 C-3.72 33.67 -4.44 33.34 -5.19 33 C-7.64 31.65 -8.14 30.66 -9 28 C-9.85 22.06 -7.91 18.08 -5.38 12.87 C-3.36 8.67 -1.69 4.34 0 0 Z " fill="#DB486A" transform="translate(499,330)"/>
<path d="M0 0 C1.36 0.55 2.72 1.1 4.08 1.65 C5.18 2.11 5.18 2.11 6.31 2.57 C11.08 4.51 15.92 6.27 20.75 8.06 C22.81 8.84 24.88 9.61 26.94 10.39 C30.47 11.71 34 13.03 37.53 14.33 C38.24 14.6 38.95 14.86 39.69 15.13 C41.53 15.82 43.37 16.5 45.21 17.18 C53.77 20.53 62.07 24.52 70.38 28.44 C71.47 28.94 72.56 29.45 73.69 29.96 C83.96 34.83 90.99 39.97 95.75 50.56 C96.6 56.11 95.08 59.55 92.75 64.56 C92.26 66.06 91.78 67.56 91.31 69.06 C89.95 73.28 88.08 76.79 85.75 80.56 C84.76 80.56 83.77 80.56 82.75 80.56 C83.27 79.94 83.78 79.32 84.31 78.69 C86.43 74.09 86.04 70.4 84.75 65.56 C74.87 44.6 32.77 34.36 12.65 27.09 C11.29 26.6 9.93 26.11 8.56 25.62 C7.92 25.39 7.27 25.16 6.61 24.92 C2.35 23.38 -1.94 21.94 -6.25 20.56 C-7.28 20.22 -8.31 19.88 -9.37 19.53 C-19.36 16.67 -28.79 17.97 -38.94 19.12 C-40.79 19.32 -42.65 19.52 -44.51 19.71 C-49.2 20.21 -53.88 20.73 -58.57 21.26 C-61.13 21.55 -63.68 21.83 -66.25 22.11 C-89.38 24.5 -89.38 24.5 -112.25 28.56 C-113.34 28.8 -114.43 29.04 -115.56 29.29 C-118.75 30.01 -121.94 30.74 -125.12 31.48 C-127 31.92 -128.87 32.35 -130.75 32.79 C-139.53 34.9 -148.27 37.41 -155.96 42.28 C-156.72 42.7 -157.47 43.13 -158.25 43.56 C-158.91 43.23 -159.57 42.9 -160.25 42.56 C-157.38 32.27 -154.06 25.2 -144.66 19.69 C-140.68 17.83 -136.52 16.65 -132.3 15.46 C-129.31 14.63 -129.31 14.63 -126.72 13.55 C-120.97 11.25 -114.48 9.3 -108.25 9.5 C-105.33 9.8 -105.33 9.8 -103.33 8.56 C-100.93 7.41 -99.57 7.44 -96.94 7.62 C-93.11 7.72 -90.85 7.02 -87.39 5.29 C-83.33 3.91 -79.01 3.97 -74.75 3.77 C-71.25 3.61 -71.25 3.61 -67.79 3.07 C-62.83 2.36 -57.87 2.18 -52.87 1.94 C-49.34 1.71 -49.34 1.71 -46.51 0.6 C-41.63 -0.95 -36.71 -1.18 -31.62 -1.56 C-30.61 -1.65 -29.59 -1.74 -28.54 -1.82 C-8.19 -3.45 -8.19 -3.45 0 0 Z " fill="#DA486B" transform="translate(684.25,231.4375)"/>
<path d="M0 0 C6.05 4.76 11.13 9.16 12.88 16.88 C13.17 21.23 13.02 25.74 12 30 C11.34 30.66 10.68 31.32 10 32 C9.32 34.07 8.7 36.15 8.12 38.25 C6.64 43.27 5.18 46.89 2 51 C1.57 51.82 1.13 52.65 0.69 53.5 C-3.29 59.39 -8.45 62.41 -14.91 65.06 C-17.68 66.31 -19.82 67.89 -22 70 C-22 70.66 -22 71.32 -22 72 C-20.89 72.84 -20.89 72.84 -19.75 73.69 C-16.54 76.39 -14.33 79.02 -13 83 C-12.49 89.64 -15.15 95.18 -18 101 C-18.59 102.35 -19.18 103.7 -19.75 105.06 C-20.16 106.03 -20.58 107 -21 108 C-21.66 108 -22.32 108 -23 108 C-23.12 108.87 -23.25 109.73 -23.38 110.62 C-24.76 118.1 -27.44 122.81 -33 128 C-33.99 128.33 -34.98 128.66 -36 129 C-36.46 129.46 -36.91 129.93 -37.38 130.41 C-43.81 136.74 -54.51 138.3 -63 140 C-65.38 140.5 -67.75 141 -70.12 141.5 C-71.18 141.72 -72.23 141.93 -73.32 142.16 C-76.77 142.89 -76.77 142.89 -79.15 143.71 C-88.76 146.75 -98.64 146.97 -108.62 147.56 C-111.38 147.73 -114.14 147.9 -116.9 148.08 C-118.6 148.19 -120.31 148.3 -122.01 148.39 C-126.79 148.7 -131.28 149.39 -135.93 150.53 C-142.97 152.14 -150.13 152.13 -157.31 152.06 C-158.19 152.06 -159.07 152.05 -159.98 152.05 C-161.6 152.04 -163.23 152.03 -164.85 152.02 C-169.06 151.82 -169.06 151.82 -173 153 C-177.52 153.25 -182.04 153.19 -186.56 153.19 C-187.81 153.2 -189.06 153.21 -190.35 153.22 C-200.05 153.24 -207.36 152.43 -216 148 C-218.23 147.45 -220.49 146.97 -222.75 146.56 C-228.01 145.51 -232.65 144.1 -237.56 141.97 C-241.12 140.55 -244.78 139.67 -248.48 138.71 C-251 138 -251 138 -254.44 136.5 C-258.6 134.75 -262.73 133.8 -267.13 132.84 C-270.15 131.96 -272.33 130.63 -275 129 C-277.51 128.16 -280.03 127.51 -282.6 126.84 C-285.18 125.94 -286.86 124.69 -289 123 C-290.33 122.66 -291.66 122.32 -293 122 C-293.5 121.01 -293.5 121.01 -294 120 C-294.99 120 -295.98 120 -297 120 C-301.32 118.56 -305.11 116.31 -309 114 C-309.89 113.48 -310.77 112.97 -311.69 112.44 C-313.89 111.07 -315.95 109.59 -318 108 C-317.67 106.02 -317.34 104.04 -317 102 C-315.06 102.38 -315.06 102.38 -313 103 C-312.67 103.66 -312.34 104.32 -312 105 C-310.3 105.79 -308.56 106.51 -306.81 107.19 C-300.71 109.63 -294.95 112.5 -289.13 115.55 C-286.15 117.09 -286.15 117.09 -283.28 117.52 C-281 118 -281 118 -279.6 119.5 C-277.15 121.8 -274.66 121.69 -271.38 122.06 C-269.24 122.31 -267.11 122.61 -265 123 C-264.67 123.66 -264.34 124.32 -264 125 C-263.01 124.67 -262.02 124.34 -261 124 C-260.41 124.71 -260.41 124.71 -259.8 125.43 C-257.57 127.37 -256.02 127.61 -253.12 128.06 C-250.34 128.55 -248 129 -245.38 130.06 C-242.85 131.18 -242.85 131.18 -239.31 131.38 C-233.33 132.02 -227.99 134.56 -222.61 137.15 C-217.77 139.47 -214.47 140.22 -209 140 C-208.34 140.66 -207.68 141.32 -207 142 C-203.86 142.3 -203.86 142.3 -200.16 142.23 C-199.15 142.23 -199.15 142.23 -198.12 142.23 C-196.69 142.23 -195.25 142.22 -193.82 142.21 C-191.64 142.19 -189.46 142.19 -187.27 142.19 C-179.56 142.31 -179.56 142.31 -172 141 C-169.69 140.8 -167.38 140.64 -165.06 140.5 C-160.19 140.21 -160.19 140.21 -155.38 139.47 C-152.81 138.96 -150.49 138.94 -147.88 139 C-144.79 139.07 -142.97 138.99 -140 138 C-138.52 137.87 -137.03 137.78 -135.54 137.72 C-134.68 137.68 -133.81 137.64 -132.92 137.61 C-132.02 137.57 -131.12 137.54 -130.19 137.5 C-124.7 137.29 -119.42 136.95 -114 136 C-112.56 136.01 -111.12 136.04 -109.69 136.12 C-106.39 136.17 -103.9 135.77 -100.81 134.62 C-97.11 133.25 -93.67 132.61 -89.75 132.12 C-76.53 130.39 -63.21 127.56 -51.08 121.92 C-49 121 -49 121 -47 121 C-47 120.34 -47 119.68 -47 119 C-45.92 118.44 -45.92 118.44 -44.81 117.88 C-38.39 113.6 -35.96 105.88 -33.2 98.96 C-32.13 96.32 -30.94 93.8 -29.69 91.25 C-28.11 87.76 -27.76 85.01 -27.99 81.13 C-28.01 77.01 -26.92 73 -26 69 C-26.91 68.73 -27.82 68.46 -28.75 68.19 C-31.71 67.1 -33.62 66.02 -36 64 C-35.84 61.68 -35.84 61.68 -35 59 C-32.57 57.42 -32.57 57.42 -29.56 56.19 C-28.08 55.56 -28.08 55.56 -26.57 54.92 C-24 54 -24 54 -22 54 C-22 53.34 -22 52.68 -22 52 C-21.11 51.61 -20.23 51.22 -19.31 50.81 C-15.87 48.93 -13.68 46.83 -11 44 C-10.34 43.67 -9.68 43.34 -9 43 C-8.32 41 -7.66 39 -7 37 C-6.46 36.11 -5.93 35.23 -5.38 34.31 C-3.74 32.02 -3.74 32.02 -4 29 C-3.71 27.33 -3.39 25.66 -3.06 24 C-1.46 15.56 -1.46 15.56 -1 7 C-1.66 6.34 -2.32 5.68 -3 5 C-3 4.01 -3 3.02 -3 2 C-2.01 2 -1.02 2 0 2 C0 1.34 0 0.68 0 0 Z M4 5 C5 7 5 7 5 7 Z " fill="#8F3252" transform="translate(800,271)"/>
<path d="M0 0 C3.89 1.61 5.13 0.71 8.99 -0.76 C11.91 -1.09 14.81 -1.1 17.74 -1.07 C18.54 -1.07 19.33 -1.06 20.15 -1.06 C27.33 -0.92 33.96 -0.49 39.49 4.49 C41.26 7.74 42.15 10.64 42.99 14.24 C38.85 18.78 34.17 21.96 28.99 25.24 C30.09 25.84 31.19 26.44 32.32 27.07 C33.77 27.87 35.23 28.68 36.68 29.49 C37.4 29.88 38.12 30.28 38.87 30.69 C48.01 35.78 54.16 41.69 57.74 51.74 C58.56 55.31 58.56 55.31 60.99 56.24 C62.7 56.46 64.41 56.65 66.12 56.8 C67.03 56.88 67.94 56.97 68.88 57.05 C69.57 57.12 70.27 57.18 70.99 57.24 C71.32 58.23 71.65 59.22 71.99 60.24 C71.33 60.24 70.67 60.24 69.99 60.24 C69.99 61.23 69.99 62.22 69.99 63.24 C69.27 63.22 68.54 63.2 67.8 63.18 C61.99 63.18 61.99 63.18 57.1 65.91 C55.63 67.97 54.31 70.08 52.99 72.24 C51.36 73.94 49.7 75.62 47.99 77.24 C47.27 77.98 46.55 78.72 45.8 79.49 C43.29 81.92 42.42 82.23 38.87 82.3 C37.92 82.28 36.97 82.26 35.99 82.24 C34.82 80.56 34.82 80.56 33.99 78.24 C35.04 75.7 35.04 75.7 36.74 73.05 C37.29 72.17 37.85 71.29 38.41 70.38 C39.99 68.24 39.99 68.24 41.99 67.24 C43.11 56.49 43.11 56.49 39.55 46.74 C37.9 44.93 37.9 44.93 35.99 43.24 C34.96 42.19 34.96 42.19 33.91 41.13 C26.54 34.05 19.7 31.04 9.57 30.12 C6.65 30.25 4.65 31.06 1.99 32.24 C-6.2 33.85 -13.38 34.48 -20.79 30.41 C-32.21 24.4 -41.96 24.77 -54.01 28.24 C-64.86 31.83 -74.48 36.5 -83.01 44.24 C-83.34 45.23 -83.67 46.22 -84.01 47.24 C-84.83 47.88 -85.66 48.52 -86.51 49.18 C-89.03 50.95 -89.03 50.95 -89.82 52.99 C-90.08 55.52 -90.08 55.52 -89.82 59.18 C-89.8 62.32 -90.07 63.36 -91.57 66.3 C-94.01 68.24 -94.01 68.24 -97.57 68.18 C-101.01 67.24 -101.01 67.24 -104.01 65.24 C-104.45 63.33 -104.45 63.33 -104.57 61.18 C-104.71 59.88 -104.86 58.58 -105.01 57.24 C-105.67 56.91 -106.33 56.58 -107.01 56.24 C-106.35 56.24 -105.69 56.24 -105.01 56.24 C-104.35 52.94 -103.69 49.64 -103.01 46.24 C-105.65 44.92 -107.69 45.14 -110.63 45.18 C-112.14 45.19 -112.14 45.19 -113.67 45.2 C-114.44 45.21 -115.21 45.23 -116.01 45.24 C-116.34 44.58 -116.67 43.92 -117.01 43.24 C-116.02 42.58 -115.03 41.92 -114.01 41.24 C-114.8 39.09 -114.8 39.09 -116.79 38.53 C-117.85 38.2 -117.85 38.2 -118.95 37.86 C-122.82 36.51 -122.82 36.51 -124.51 34.05 C-124.67 33.45 -124.84 32.85 -125.01 32.24 C-124.18 32.51 -123.36 32.79 -122.51 33.07 C-120.78 33.65 -120.78 33.65 -119.01 34.24 C-118.38 34.45 -117.75 34.66 -117.11 34.87 C-115.08 35.55 -113.04 36.21 -111.01 36.86 C-110.32 37.09 -109.64 37.32 -108.93 37.56 C-104.87 38.86 -101.31 39.85 -97.01 39.24 C-94.26 37.53 -94.26 37.53 -91.63 35.18 C-79.44 25.39 -61.76 18.62 -46.01 19.24 C-46.55 16.24 -47.23 13.66 -48.32 10.8 C-49.01 7.24 -49.01 7.24 -47.45 4.05 C-35.83 -9.35 -14.57 -8.53 0 0 Z " fill="#E66170" transform="translate(656.0078125,267.76171875)"/>
<path d="M0 0 C7.22 2.11 14.45 0.53 21.56 -1.25 C29.62 -3.01 36.47 -1.69 43.62 2.31 C50.29 6.6 57.21 12.43 60.56 19.75 C60.77 22.61 60.85 25.22 60.75 28.06 C60.74 28.8 60.72 29.54 60.71 30.31 C60.67 32.12 60.62 33.94 60.56 35.75 C55.26 38.1 52.02 37.57 46.56 35.75 C44.4 35.55 42.23 35.39 40.06 35.25 C36.62 35.03 33.83 34.84 30.56 33.75 C28.63 33.57 26.69 33.43 24.75 33.31 C20.35 32.98 16.71 32.29 12.56 30.75 C11.33 30.61 10.09 30.46 8.81 30.31 C7.2 30.03 7.2 30.03 5.56 29.75 C4.9 28.76 4.24 27.77 3.56 26.75 C6.74 25.69 9.31 25.79 12.62 25.85 C14.99 25.73 16.6 25.06 18.56 23.75 C18.56 24.41 18.56 25.07 18.56 25.75 C19.81 25.64 19.81 25.64 21.08 25.53 C22.17 25.44 23.26 25.35 24.38 25.25 C25.45 25.16 26.53 25.06 27.64 24.97 C30.56 24.75 30.56 24.75 33.56 24.75 C31.39 20.41 23.95 19.26 19.56 17.75 C18.15 17.41 16.74 17.09 15.31 16.81 C11.03 15.6 8.25 13.67 4.74 10.99 C1.39 9.08 -1.14 9.41 -4.79 10.37 C-5.91 10.78 -5.91 10.78 -7.06 11.19 C-8.2 11.59 -8.2 11.59 -9.35 12 C-10.04 12.24 -10.73 12.49 -11.44 12.75 C-14.44 13.75 -14.44 13.75 -17.94 13.69 C-21.55 13.44 -21.55 13.44 -24.44 15.75 C-27.86 16.15 -31.31 16.31 -34.44 14.75 C-36.46 15.36 -38.46 16.02 -40.44 16.75 C-37.68 19.5 -35.59 19.26 -31.75 19.69 C-26.42 20.39 -22.12 21.09 -17.44 23.75 C-16.78 24.74 -16.12 25.73 -15.44 26.75 C-19.45 28.09 -23.15 27.63 -27.31 27.38 C-37.88 26.79 -48.44 26.43 -59.01 26.14 C-60.21 26.11 -61.4 26.07 -62.64 26.03 C-63.71 26 -64.78 25.97 -65.88 25.94 C-68.44 25.75 -68.44 25.75 -70.44 24.75 C-71.16 23.11 -71.83 21.44 -72.44 19.75 C-71.15 18.37 -69.81 17.04 -68.44 15.75 C-67.78 15.75 -67.12 15.75 -66.44 15.75 C-66.36 15.17 -66.28 14.59 -66.19 13.99 C-64.41 8.68 -58.25 5.23 -53.51 2.73 C-34.62 -6.37 -19.13 -9.81 0 0 Z " fill="#6A4150" transform="translate(638.4375,299.25)"/>
<path d="M0 0 C3 3.14 3 3.14 3 6 C1.97 6.14 0.94 6.27 -0.12 6.41 C-8.19 7.59 -15.64 9.29 -23.19 12.44 C-23.88 12.73 -24.57 13.01 -25.29 13.31 C-31.93 16.2 -37.65 20.14 -43 25 C-43.5 26.49 -43.5 26.49 -44 28 C-44.83 28.64 -45.65 29.28 -46.5 29.94 C-49.02 31.71 -49.02 31.71 -49.81 33.75 C-50.07 36.28 -50.07 36.28 -49.81 39.94 C-49.79 43.08 -50.06 44.12 -51.56 47.06 C-54 49 -54 49 -57.56 48.94 C-61 48 -61 48 -64 46 C-64.44 44.09 -64.44 44.09 -64.56 41.94 C-64.71 40.64 -64.85 39.34 -65 38 C-65.66 37.67 -66.32 37.34 -67 37 C-66.34 37 -65.68 37 -65 37 C-64.34 33.7 -63.68 30.4 -63 27 C-65.64 25.68 -67.68 25.9 -70.62 25.94 C-72.13 25.95 -72.13 25.95 -73.66 25.96 C-74.43 25.98 -75.21 25.99 -76 26 C-76.33 25.34 -76.66 24.68 -77 24 C-76.01 23.34 -75.02 22.68 -74 22 C-74.8 19.85 -74.8 19.85 -76.78 19.29 C-77.49 19.07 -78.2 18.85 -78.94 18.62 C-82.81 17.27 -82.81 17.27 -84.5 14.81 C-84.66 14.21 -84.83 13.62 -85 13 C-84.17 13.28 -83.35 13.55 -82.5 13.84 C-81.35 14.22 -80.19 14.6 -79 15 C-78.37 15.21 -77.75 15.42 -77.1 15.63 C-75.07 16.31 -73.04 16.97 -71 17.62 C-70.31 17.85 -69.63 18.08 -68.92 18.32 C-64.86 19.62 -61.3 20.61 -57 20 C-54.25 18.29 -54.25 18.29 -51.62 15.94 C-39.08 5.86 -16.35 -3.74 0 0 Z " fill="#EEA553" transform="translate(616,287)"/>
<path d="M0 0 C11.06 4.32 20.1 10.57 26 21 C26.62 22.48 27.21 23.98 27.75 25.5 C28.57 29.07 28.57 29.07 31 30 C32.7 30.23 34.41 30.41 36.12 30.56 C37.04 30.65 37.95 30.73 38.88 30.82 C39.58 30.88 40.28 30.94 41 31 C41.5 32.49 41.5 32.49 42 34 C41.34 34 40.68 34 40 34 C40 34.99 40 35.98 40 37 C39.28 36.98 38.55 36.96 37.8 36.94 C32 36.95 32 36.95 27.11 39.67 C25.64 41.73 24.32 43.84 23 46 C21.37 47.7 19.71 49.38 18 51 C16.92 52.11 16.92 52.11 15.81 53.25 C13.3 55.68 12.43 55.99 8.88 56.06 C7.45 56.03 7.45 56.03 6 56 C4.83 54.32 4.83 54.32 4 52 C5.05 49.46 5.05 49.46 6.75 46.81 C7.3 45.93 7.85 45.05 8.42 44.14 C10 42 10 42 12 41 C13.12 30.25 13.12 30.25 9.56 20.5 C7.9 18.69 7.9 18.69 6 17 C5.32 16.32 4.65 15.63 3.95 14.93 C-1.16 10.02 -6.52 6.81 -13 4 C-12.67 3.01 -12.34 2.02 -12 1 C-8.09 -0.96 -4.25 -0.75 0 0 Z " fill="#EDA453" transform="translate(686,294)"/>
<path d="M0 0 C0.85 0.62 1.71 1.25 2.59 1.89 C7.56 5.22 11.9 6.67 17.71 7.89 C21.71 8.86 24.94 10.57 28.53 12.57 C28.53 13.23 28.53 13.89 28.53 14.57 C30.01 15.07 30.01 15.07 31.53 15.57 C28.12 16.71 26.01 16.27 22.53 15.57 C19.53 15.48 16.53 15.52 13.53 15.57 C12.87 15.57 12.21 15.57 11.53 15.57 C10.54 16.07 10.54 16.07 9.53 16.57 C7.96 16.59 6.4 16.57 4.84 16.51 C0.38 16.45 -3.2 17.23 -7.47 18.57 C-10.16 18.89 -10.16 18.89 -12.47 18.57 C-13.35 17.87 -13.35 17.87 -14.24 17.16 C-16.94 15.24 -19.26 14.68 -22.47 13.95 C-24.02 13.59 -24.02 13.59 -25.6 13.22 C-26.55 13.01 -27.5 12.79 -28.47 12.57 C-29.14 12.4 -29.81 12.22 -30.5 12.04 C-33.93 11.23 -37.43 10.79 -40.91 10.27 C-43.65 9.52 -44.71 8.75 -46.47 6.57 C-43.89 4 -42.03 3.95 -38.47 3.57 C-38.14 3.9 -37.81 4.23 -37.47 4.57 C-31.6 5.04 -31.6 5.04 -26.47 2.57 C-24.42 2.48 -24.42 2.48 -22.16 2.64 C-17.83 2.75 -15.25 1.77 -11.47 -0.43 C-7.36 -1.8 -3.85 -2.22 0 0 Z " fill="#F6EDF0" transform="translate(643.47265625,309.42578125)"/>
<path d="M0 0 C0.66 0.66 1.32 1.32 2 2 C2.99 1.34 3.98 0.68 5 0 C5.09 0.9 5.17 1.81 5.26 2.74 C5.4 3.92 5.54 5.1 5.69 6.31 C5.82 7.48 5.94 8.66 6.07 9.86 C6.7 13.14 6.7 13.14 9.35 14.76 C10.22 15.17 11.1 15.58 12 16 C13.25 16.83 14.5 17.67 15.75 18.5 C26.95 25.48 38.24 25.28 51 24 C50.46 24.4 49.91 24.79 49.35 25.2 C47.64 26.51 45.97 27.89 44.34 29.3 C35.36 36.74 35.36 36.74 30 36.31 C27.55 35.78 27.55 35.78 25 35 C24.05 34.75 23.11 34.51 22.13 34.25 C14.43 32 7.68 28.42 1 24 C0.07 23.39 -0.86 22.77 -1.81 22.14 C-4 20 -4 20 -4.63 17.27 C-4.48 10.4 -3.61 5.87 0 0 Z " fill="#6B4251" transform="translate(524,272)"/>
<path d="M0 0 C4.25 0.53 7.4 2.07 11.16 4.06 C12.09 4.49 13.02 4.92 13.97 5.37 C14.63 5.04 15.29 4.71 15.97 4.37 C15.97 5.03 15.97 5.69 15.97 6.37 C16.74 6.49 17.5 6.62 18.29 6.75 C20.97 7.37 20.97 7.37 23.97 9.37 C23.97 10.03 23.97 10.69 23.97 11.37 C24.63 11.37 25.29 11.37 25.97 11.37 C29.47 15.67 29.32 19.07 28.97 24.37 C28.64 25.03 28.31 25.69 27.97 26.37 C22.25 26.8 18.71 25.57 13.91 22.68 C7.75 19.17 1.76 16.66 -5 14.48 C-7.96 13.4 -10.38 12.06 -13.03 10.37 C-13.69 10.04 -14.35 9.71 -15.03 9.37 C-14.42 8.01 -13.74 6.68 -13.03 5.37 C-12.57 4.46 -12.12 3.56 -11.65 2.62 C-7.9 -0.59 -4.8 -0.1 0 0 Z " fill="#6B4150" transform="translate(724.02734375,330.62890625)"/>
<path d="M0 0 C0.66 0.33 1.32 0.66 2 1 C3.55 6.16 3.51 10.97 1.25 15.88 C-1.67 20.53 -5.37 21.87 -10.48 23.44 C-13 24 -13 24 -16 24 C-16 24.66 -16 25.32 -16 26 C-16.83 26.12 -17.65 26.25 -18.5 26.38 C-22.05 26.96 -22.05 26.96 -25.69 28 C-33.82 30.06 -42.77 30.92 -51 29 C-56.18 25.73 -58.13 18.61 -60 13 C-58.41 13.43 -56.83 13.87 -55.25 14.31 C-54.37 14.56 -53.49 14.8 -52.58 15.05 C-50 16 -50 16 -48.1 17.58 C-45.09 19.61 -42.72 19.4 -39.12 19.38 C-37.33 19.39 -37.33 19.39 -35.51 19.4 C-31.71 18.97 -29.32 17.82 -26 16 C-23.68 15.59 -21.34 15.27 -19 15 C-10.14 13.99 -10.14 13.99 -3 9 C-0.87 5.81 -0.5 3.73 0 0 Z " fill="#6C4351" transform="translate(768,296)"/>
<path d="M0 0 C0.71 -0.01 1.43 -0.02 2.17 -0.04 C4.01 -0.04 5.85 0.06 7.69 0.19 C8.35 0.85 9.01 1.51 9.69 2.19 C9.37 5.87 8.86 9.16 6.69 12.19 C3.91 12.96 3.91 12.96 0.39 13.35 C-0.9 13.5 -2.19 13.66 -3.52 13.81 C-4.89 13.96 -6.26 14.11 -7.62 14.25 C-16.43 15.23 -24.96 16.38 -33.53 18.7 C-36.47 19.22 -38.45 18.97 -41.31 18.19 C-42.12 16.5 -42.12 16.5 -42.31 14.19 C-39.36 10.72 -35.91 7.96 -32.31 5.19 C-31.98 5.52 -31.65 5.85 -31.31 6.19 C-30.65 5.53 -29.99 4.87 -29.31 4.19 C-28.98 4.52 -28.65 4.85 -28.31 5.19 C-27.65 4.53 -26.99 3.87 -26.31 3.19 C-24.31 3.19 -22.31 3.19 -20.31 3.19 C-19.98 2.53 -19.65 1.87 -19.31 1.19 C-19.31 1.85 -19.31 2.51 -19.31 3.19 C-18.8 2.88 -18.28 2.57 -17.75 2.25 C-12.2 -0.17 -5.96 0.01 0 0 Z " fill="#6D4351" transform="translate(544.3125,311.8125)"/>
<path d="M0 0 C0.66 1.65 1.32 3.3 2 5 C-3.94 5.5 -3.94 5.5 -10 6 C-10 7.32 -10 8.64 -10 10 C-7.03 10.33 -4.06 10.66 -1 11 C-1 11.33 -1 11.66 -1 12 C-2.44 12.03 -3.87 12.05 -5.31 12.06 C-6.51 12.08 -6.51 12.08 -7.74 12.1 C-10 12 -10 12 -13 11 C-14.94 10.82 -16.87 10.68 -18.81 10.56 C-23.21 10.23 -26.85 9.54 -31 8 C-32.24 7.86 -33.48 7.71 -34.75 7.56 C-36.36 7.28 -36.36 7.28 -38 7 C-38.66 6.01 -39.32 5.02 -40 4 C-36.82 2.94 -34.26 3.04 -30.94 3.1 C-28.57 2.98 -26.97 2.31 -25 1 C-25 1.66 -25 2.32 -25 3 C-24.17 2.93 -23.34 2.86 -22.48 2.78 C-20.85 2.64 -20.85 2.64 -19.19 2.5 C-17.57 2.36 -17.57 2.36 -15.92 2.22 C-13 2 -13 2 -10 2 C-10 1.34 -10 0.68 -10 0 C-6.72 -1.64 -3.57 -0.52 0 0 Z " fill="#6E4252" transform="translate(682,322)"/>
<path d="M0 0 C1.32 0.54 2.64 1.08 3.96 1.62 C5.17 2.11 6.38 2.61 7.62 3.12 C9.62 3.81 11.62 4.48 13.62 5.12 C13.29 5.78 12.97 6.44 12.62 7.12 C8.54 6.57 4.81 5.59 0.92 4.26 C-6.33 1.79 -13.52 -0.54 -21.18 1.64 C-23.71 2.2 -25.99 2.24 -28.58 2.22 C-29.56 2.22 -30.54 2.22 -31.55 2.21 C-32.56 2.2 -33.58 2.2 -34.62 2.19 C-36.17 2.18 -36.17 2.18 -37.75 2.17 C-40.29 2.16 -42.83 2.15 -45.38 2.12 C-45.04 1.13 -44.72 0.15 -44.38 -0.88 C-40.63 -1.22 -36.88 -1.55 -33.12 -1.88 C-31.56 -2.02 -31.56 -2.02 -29.96 -2.16 C-9.1 -3.97 -9.1 -3.97 0 0 Z " fill="#E2697A" transform="translate(685.375,231.875)"/>
<path d="M0 0 C1.94 0.38 1.94 0.38 4 1 C4.33 1.66 4.66 2.32 5 3 C7.96 4.32 10.98 5.44 14.02 6.59 C17.11 8.05 18.87 9.35 21 12 C21.75 15.75 21.75 15.75 22 19 C17.07 16.99 12.58 14.71 8 12 C7.11 11.48 6.23 10.97 5.31 10.44 C3.11 9.07 1.05 7.59 -1 6 C-0.67 4.02 -0.34 2.04 0 0 Z " fill="#8A3652" transform="translate(483,373)"/>
<path d="M0 0 C2.64 0.33 5.28 0.66 8 1 C8 1.66 8 2.32 8 3 C8.99 2.67 9.98 2.34 11 2 C11.59 2.71 11.59 2.71 12.2 3.43 C14.43 5.37 15.98 5.61 18.88 6.06 C21.66 6.55 24 7 26.62 8.06 C28.94 8.98 30.67 9.21 33.12 9.44 C37.16 10.02 37.52 10.18 40 13 C43.1 14.2 43.1 14.2 46 15 C46 15.33 46 15.66 46 16 C33.74 15.21 22.65 11.73 11.25 7.31 C10.16 6.9 9.07 6.48 7.95 6.05 C5.29 5.04 2.65 4.02 0 3 C0 2.01 0 1.02 0 0 Z " fill="#A05F6C" transform="translate(528,393)"/>
<path d="M0 0 C9 3 18 6 27 9 C25.72 10.98 25.72 10.98 24 13 C21.29 13.3 19 13.38 16.31 13.25 C15.26 13.22 15.26 13.22 14.19 13.2 C12.46 13.15 10.73 13.08 9 13 C8.67 12.34 8.34 11.68 8 11 C8.99 10.34 9.98 9.68 11 9 C10.2 6.85 10.2 6.85 8.22 6.29 C7.51 6.07 6.8 5.85 6.06 5.62 C2.19 4.27 2.19 4.27 0.5 1.81 C0.34 1.21 0.17 0.62 0 0 Z " fill="#D9A9B2" transform="translate(531,300)"/>
<path d="M0 0 C1.32 -0.02 1.32 -0.02 2.66 -0.04 C4.94 0.19 4.94 0.19 6.94 2.19 C9.25 3.23 11.59 4.23 13.94 5.19 C13.61 6.84 13.28 8.49 12.94 10.19 C8.45 9.35 4.05 8.24 -0.38 7.12 C-1.12 6.94 -1.86 6.75 -2.62 6.56 C-4.43 6.1 -6.25 5.65 -8.06 5.19 C-8.06 3.87 -8.06 2.55 -8.06 1.19 C-5.12 0.21 -3.07 0.02 0 0 Z " fill="#533242" transform="translate(680.0625,326.8125)"/>
<path d="M0 0 C6.31 1.11 11.38 2.93 17 6 C17 6.66 17 7.32 17 8 C17.99 8.33 18.98 8.66 20 9 C16.59 10.14 14.48 9.7 11 9 C8 8.91 5 8.94 2 9 C2.33 7.02 2.66 5.04 3 3 C2.34 3 1.68 3 1 3 C0.67 2.01 0.34 1.02 0 0 Z " fill="#D396A4" transform="translate(655,316)"/>
<path d="M0 0 C2.56 2 2.56 2 5 5 C5.21 7.79 4.64 10.29 4 13 C3.81 14.27 3.81 14.27 3.62 15.56 C2.77 18.89 1.41 21.86 0 25 C-1 22 -1 22 0 19 C-0.66 18.67 -1.32 18.34 -2 18 C-1.9 17.23 -1.81 16.46 -1.71 15.66 C-1.6 14.66 -1.49 13.66 -1.38 12.62 C-1.26 11.63 -1.14 10.63 -1.02 9.6 C-1.01 8.31 -1.01 8.31 -1 7 C-1.66 6.34 -2.32 5.68 -3 5 C-3 4.01 -3 3.02 -3 2 C-2.01 2 -1.02 2 0 2 C0 1.34 0 0.68 0 0 Z " fill="#C88F9E" transform="translate(800,271)"/>
<path d="M0 0 C3.37 0.55 5.08 1.05 8 3 C8 3.66 8 4.32 8 5 C8.66 5 9.32 5 10 5 C13.49 9.3 13.35 12.7 13 18 C12.67 18.66 12.34 19.32 12 20 C11.01 19.67 10.02 19.34 9 19 C8.95 18.4 8.9 17.79 8.85 17.17 C8.78 16.37 8.7 15.57 8.62 14.75 C8.56 13.96 8.49 13.17 8.41 12.36 C7.97 9.85 7.36 8.15 6 6 C4.01 4.65 2.01 3.31 0 2 C0 1.34 0 0.68 0 0 Z " fill="#A36871" transform="translate(740,337)"/>
<path d="M0 0 C2 0.67 4 1.33 6 2 C7.61 2.53 7.61 2.53 9.26 3.08 C16.97 5.72 23.99 8.84 31 13 C31 13.66 31 14.32 31 15 C26.6 14.33 22.99 12.92 19 11 C18.67 10.34 18.34 9.68 18 9 C16.18 8.16 16.18 8.16 13.96 7.49 C13.16 7.23 12.35 6.96 11.51 6.69 C10.66 6.42 9.81 6.15 8.94 5.88 C8.08 5.6 7.23 5.32 6.35 5.04 C4.24 4.35 2.12 3.67 0 3 C0 2.01 0 1.02 0 0 Z " fill="#DB7689" transform="translate(721,246)"/>
<path d="M0 0 C6.82 0.59 13.18 3.01 19.62 5.23 C20.79 5.62 21.97 6.01 23.18 6.41 C23.98 6.68 24.79 6.95 25.62 7.23 C25.29 7.89 24.96 8.55 24.62 9.23 C20.57 8.68 16.91 7.71 13.06 6.36 C5.09 3.59 -1.88 2.57 -10.38 3.23 C-7.28 -0.58 -4.64 -0.15 0 0 Z " fill="#DE7183" transform="translate(673.3828125,229.7734375)"/>
<path d="M0 0 C1.94 0.38 1.94 0.38 4 1 C4.33 1.66 4.66 2.32 5 3 C6.88 3.9 6.88 3.9 9.06 4.62 C9.8 4.89 10.53 5.15 11.29 5.41 C12.13 5.7 12.13 5.7 13 6 C11.62 7.5 11.62 7.5 10 9 C9.34 9 8.68 9 8 9 C7.67 9.99 7.34 10.98 7 12 C4.36 10.02 1.72 8.04 -1 6 C-0.67 4.02 -0.34 2.04 0 0 Z " fill="#AB6377" transform="translate(483,373)"/>
<path d="M0 0 C-0.33 0.99 -0.66 1.98 -1 3 C0.32 3.33 1.64 3.66 3 4 C-0.39 5.13 -2.03 4.87 -5.5 4.25 C-6.94 4.01 -6.94 4.01 -8.41 3.77 C-11.13 2.96 -12.23 2.18 -14 0 C-9.32 -4.68 -5.23 -2.57 0 0 Z " fill="#D397A5" transform="translate(611,316)"/>
<path d="M0 0 C3.96 0.33 7.92 0.66 12 1 C12.33 1.99 12.66 2.98 13 4 C12.34 4 11.68 4 11 4 C11 4.99 11 5.98 11 7 C7.7 7 4.4 7 1 7 C0.67 4.69 0.34 2.38 0 0 Z " fill="#D7A6B1" transform="translate(715,324)"/>
<path d="M0 0 C0.66 0.33 1.32 0.66 2 1 C1.94 1.66 1.88 2.33 1.82 3.01 C1.46 8.82 1.46 8.82 4.12 13.81 C5.55 14.9 5.55 14.9 7 16 C8.11 16.93 9.21 17.87 10.31 18.81 C11.64 19.9 11.64 19.9 13 21 C12.34 21.33 11.68 21.66 11 22 C1.25 16.7 1.25 16.7 -2 13 C-3.11 8.79 -2.84 5.25 -2 1 C-1.34 0.67 -0.68 0.34 0 0 Z " fill="#A0656E" transform="translate(522,279)"/>
<path d="M0 0 C3.63 0.66 7.26 1.32 11 2 C11 2.99 11 3.98 11 5 C8.36 6.32 6.32 6.1 3.38 6.06 C2.37 6.05 1.37 6.04 0.34 6.04 C-0.43 6.02 -1.21 6.01 -2 6 C-2.33 5.34 -2.66 4.68 -3 4 C-2.01 3.34 -1.02 2.68 0 2 C0 1.34 0 0.68 0 0 Z " fill="#DDBDC3" transform="translate(542,307)"/>
<path d="M0 0 C7.88 2.22 15.14 6.28 21 12 C22.38 14.81 22.38 14.81 23 17 C21.71 16.04 20.42 15.08 19.12 14.12 C18.41 13.59 17.69 13.06 16.95 12.51 C15 11 15 11 13 9 C8.85 6.31 4.44 4.17 0 2 C0 1.34 0 0.68 0 0 Z " fill="#D79EAB" transform="translate(753,260)"/>
<path d="M0 0 C0.66 0.33 1.32 0.66 2 1 C1.76 1.66 1.52 2.33 1.27 3.01 C-0.69 8.4 -0.69 8.4 -0.19 13.94 C0.2 14.62 0.6 15.3 1 16 C1 16.99 1 17.98 1 19 C-1.52 18.66 -2.67 18.43 -4.25 16.38 C-5.28 13.1 -5.31 10.41 -5 7 C-3.62 5.31 -3.62 5.31 -2 4 C-0.82 1.9 -0.82 1.9 0 0 Z " fill="#DF7786" transform="translate(495,344)"/>
<path d="M0 0 C-0.04 0.93 -0.08 1.86 -0.12 2.81 C-0.27 6.16 -0.27 6.16 2 9 C-2.62 7.68 -6.1 5.79 -10 3 C-4.38 -1.31 -4.38 -1.31 0 0 Z " fill="#694050" transform="translate(694,290)"/>
<path d="M0 0 C0.99 0.33 1.98 0.66 3 1 C4.19 4.56 4.19 4.56 5 8 C4.67 8.33 4.34 8.66 4 9 C0.5 8.69 0.5 8.69 -3 8 C-4 6 -4 6 -3.19 3.44 C-2 1 -2 1 0 0 Z " fill="#523242" transform="translate(670,300)"/>
<path d="M0 0 C0.99 1.49 0.99 1.49 2 3 C-0.75 3.92 -2.36 4.11 -5.19 4.06 C-7.07 4.03 -7.07 4.03 -9 4 C-9.33 3.34 -9.66 2.68 -10 2 C-9.34 2 -8.68 2 -8 2 C-8 1.01 -8 0.02 -8 -1 C-10.64 -1 -13.28 -1 -16 -1 C-16 -1.33 -16 -1.66 -16 -2 C-9.98 -3.18 -5.41 -3.2 0 0 Z " fill="#763D51" transform="translate(621,323)"/>
<path d="M0 0 C0.66 1.65 1.32 3.3 2 5 C-1.3 5 -4.6 5 -8 5 C-7.67 4.01 -7.34 3.02 -7 2 C-7.99 2 -8.98 2 -10 2 C-10 1.34 -10 0.68 -10 0 C-6.72 -1.64 -3.57 -0.52 0 0 Z " fill="#A0656E" transform="translate(682,322)"/>
<path d="M0 0 C1.63 0.11 3.25 0.24 4.88 0.38 C5.78 0.44 6.68 0.51 7.62 0.59 C10 1 10 1 12 3 C12 3.99 12 4.98 12 6 C5.38 7.12 5.38 7.12 2 6 C2 4.35 2 2.7 2 1 C1.34 0.67 0.68 0.34 0 0 Z " fill="#523242" transform="translate(601,319)"/>
<path d="M0 0 C4.47 1.27 7.63 2.91 11.25 5.81 C12.1 6.48 12.95 7.15 13.83 7.83 C16.13 10.13 17.03 11.92 18 15 C16.29 13.72 14.63 12.38 13 11 C13 10.34 13 9.68 13 9 C12.01 9 11.02 9 10 9 C9.34 8.01 8.68 7.02 8 6 C5.68 4.97 3.35 3.96 1 3 C0.34 2.34 -0.32 1.68 -1 1 C-0.67 0.67 -0.34 0.34 0 0 Z " fill="#7B374F" transform="translate(750,281)"/>
<path d="M0 0 C0.6 0.23 1.2 0.45 1.81 0.69 C1.81 1.68 1.81 2.67 1.81 3.69 C2.47 4.02 3.13 4.35 3.81 4.69 C0.58 6.84 -0.47 6.89 -4.19 6.69 C-4.88 4.88 -4.88 4.88 -5.19 2.69 C-3.58 0.24 -2.95 -0.42 0 0 Z " fill="#523242" transform="translate(622.1875,296.3125)"/>
<path d="M0 0 C0 0.99 0 1.98 0 3 C-6.72 5.66 -12.92 4.79 -20 4 C-20 3.67 -20 3.34 -20 3 C-18.68 2.8 -18.68 2.8 -17.33 2.6 C-16.17 2.42 -15.01 2.24 -13.81 2.06 C-12.09 1.8 -12.09 1.8 -10.33 1.54 C-8.28 1.21 -6.23 0.85 -4.2 0.43 C-2 0 -2 0 0 0 Z " fill="#DD6C80" transform="translate(620,234)"/>
<path d="M0 0 C2.65 0.92 5.3 1.86 7.94 2.81 C9.07 3.2 9.07 3.2 10.22 3.6 C12.18 4.32 14.1 5.15 16 6 C16.33 6.99 16.66 7.98 17 9 C13.28 8.49 10.27 7.88 7 6 C7 5.34 7 4.68 7 4 C2.54 3.01 2.54 3.01 -2 2 C-1.34 1.34 -0.68 0.68 0 0 Z " fill="#97485E" transform="translate(567,404)"/>
<path d="M0 0 C0 0.99 0 1.98 0 3 C-2.21 3.51 -4.42 4.01 -6.62 4.5 C-8.47 4.92 -8.47 4.92 -10.35 5.34 C-13.67 5.94 -16.64 6.12 -20 6 C-16.96 3.98 -15.81 3.68 -12.31 3.38 C-11.5 3.3 -10.7 3.23 -9.86 3.15 C-9.25 3.1 -8.63 3.05 -8 3 C-8 2.34 -8 1.68 -8 1 C-5.29 -0.35 -2.99 -0.07 0 0 Z " fill="#DE6E81" transform="translate(578,241)"/>
<path d="M0 0 C2.71 0.15 4.47 0.48 6.45 2.4 C7.68 3.9 8.84 5.45 10 7 C7.36 7.33 4.72 7.66 2 8 C2.33 6.35 2.66 4.7 3 3 C2.34 3 1.68 3 1 3 C0.67 2.01 0.34 1.02 0 0 Z " fill="#DEC1C6" transform="translate(655,316)"/>
<path d="M0 0 C0.33 1.32 0.66 2.64 1 4 C1.66 3.34 2.32 2.68 3 2 C4 5 4 5 3.22 6.82 C2.15 8.55 1.07 10.27 0 12 C-1.32 11.67 -2.64 11.34 -4 11 C-3.52 9.54 -3.04 8.08 -2.56 6.62 C-2.3 5.81 -2.03 5 -1.75 4.16 C-1 2 -1 2 0 0 Z " fill="#9E5D6A" transform="translate(799,290)"/>
<path d="M0 0 C-2 3 -2 3 -3.95 3.48 C-4.71 3.53 -5.47 3.57 -6.25 3.62 C-7.05 3.69 -7.85 3.75 -8.67 3.82 C-9.44 3.88 -10.21 3.94 -11 4 C-13 4.32 -15 4.64 -17 5 C-17 4.34 -17 3.68 -17 3 C-11.18 -0.04 -6.52 -0.35 0 0 Z " fill="#E25C71" transform="translate(609,236)"/>
<path d="M0 0 C1.89 2.39 3.02 4.07 4 7 C3.06 9.19 3.06 9.19 2 11 C1.67 10.34 1.34 9.68 1 9 C0.67 9.99 0.34 10.98 0 12 C-0.99 12.5 -0.99 12.5 -2 13 C-3.47 7.53 -2.44 4.88 0 0 Z " fill="#BA8690" transform="translate(775,343)"/>
<path d="M0 0 C1.08 5.27 1.07 8.98 -1 14 C-3.12 15.44 -3.12 15.44 -5 16 C-3.68 14.02 -2.36 12.04 -1 10 C-1.66 10 -2.32 10 -3 10 C-3 7.03 -3 4.06 -3 1 C-1 0 -1 0 0 0 Z " fill="#C75D6F" transform="translate(568,320)"/>
<path d="M0 0 C0.99 0.66 1.98 1.32 3 2 C3.56 6.84 3.72 8.91 1 13 C0.34 13.66 -0.32 14.32 -1 15 C-1.66 14.67 -2.32 14.34 -3 14 C-2.5 13.36 -2.01 12.72 -1.5 12.06 C0.51 7.96 0.26 4.49 0 0 Z " fill="#A46972" transform="translate(770,298)"/>
<path d="M0 0 C0 3 0 3 -1 5 C-2.65 5 -4.3 5 -6 5 C-6.66 3.68 -7.32 2.36 -8 1 C-5.29 -0.35 -2.99 -0.07 0 0 Z " fill="#A1666F" transform="translate(598,313)"/>
<path d="M0 0 C0.33 0.99 0.66 1.98 1 3 C-0.96 3.67 -2.92 4.34 -4.88 5 C-5.97 5.37 -7.06 5.74 -8.18 6.12 C-11 7 -11 7 -13 7 C-12.67 6.01 -12.34 5.02 -12 4 C-9.28 2.83 -9.28 2.83 -5.94 1.81 C-4.83 1.47 -3.73 1.12 -2.59 0.77 C-1.74 0.52 -0.88 0.26 0 0 Z " fill="#DB627B" transform="translate(554,246)"/>
<path d="M0 0 C0.66 0.33 1.32 0.66 2 1 C0.62 2.5 0.62 2.5 -1 4 C-1.66 4 -2.32 4 -3 4 C-4.21 6.33 -5.17 8.5 -6 11 C-6.99 11.33 -7.98 11.66 -9 12 C-7.92 4.83 -7.92 4.83 -5.38 2.54 C-3.5 1.44 -3.5 1.44 0 0 Z " fill="#DCB7BF" transform="translate(508,318)"/>
<path d="M0 0 C2.64 0.99 5.28 1.98 8 3 C8 3.66 8 4.32 8 5 C7.01 5 6.02 5 5 5 C5 5.66 5 6.32 5 7 C4.01 7 3.02 7 2 7 C1.01 5.02 0.02 3.04 -1 1 C-0.67 0.67 -0.34 0.34 0 0 Z " fill="#9C5867" transform="translate(504,384)"/>
<path d="M0 0 C1.32 0 2.64 0 4 0 C4.55 5.63 2.95 8.39 0 13 C-1.14 9.59 -0.87 9 0.44 5.81 C0.72 5.1 1.01 4.38 1.31 3.64 C1.54 3.1 1.76 2.56 2 2 C1.34 1.34 0.68 0.68 0 0 Z " fill="#DF6F7E" transform="translate(745,357)"/>
<path d="M0 0 C0.66 0 1.32 0 2 0 C2.12 2.38 2.12 2.38 2 5 C1.34 5.66 0.68 6.32 0 7 C-0.65 9.57 -0.65 9.57 -1 12 C-1.99 12 -2.98 12 -4 12 C-3.52 10.37 -3.04 8.75 -2.56 7.12 C-2.3 6.22 -2.03 5.32 -1.75 4.38 C-1 2 -1 2 0 0 Z " fill="#DB637C" transform="translate(499,330)"/>
<path d="M0 0 C2.64 1.32 2.98 2.24 4 5 C4.44 11.33 4.44 11.33 2 15 C1.66 13.25 1.33 11.5 1 9.75 C0.81 8.78 0.63 7.8 0.44 6.8 C0 4 0 4 0 0 Z " fill="#DE7988" transform="translate(776,277)"/>
<path d="M0 0 C3.3 0 6.6 0 10 0 C9.01 0.5 9.01 0.5 8 1 C8 1.99 8 2.98 8 4 C5.69 3.67 3.38 3.34 1 3 C0.67 2.01 0.34 1.02 0 0 Z " fill="#E0C7CB" transform="translate(718,327)"/>
<path d="M0 0 C0.66 0.99 1.32 1.98 2 3 C-0.88 3.96 -2.7 4.11 -5.69 4.06 C-6.9 4.05 -6.9 4.05 -8.14 4.04 C-9.06 4.02 -9.06 4.02 -10 4 C-10 3.34 -10 2.68 -10 2 C-8.91 1.86 -7.81 1.71 -6.69 1.56 C-3.07 1.12 -3.07 1.12 0 0 Z " fill="#E5CCD1" transform="translate(741,323)"/>
<path d="M0 0 C5.75 0.28 5.75 0.28 8 1 C9.76 3.05 9.76 3.05 11 5 C9.37 4.91 7.75 4.8 6.12 4.69 C5.22 4.63 4.32 4.57 3.38 4.51 C1 4 1 4 -1 1 C-0.67 0.67 -0.34 0.34 0 0 Z " fill="#913051" transform="translate(643,325)"/>
<path d="M0 0 C0.94 0.17 1.89 0.34 2.86 0.52 C5.62 1.17 8.09 2.07 10.69 3.19 C7.38 4.27 5.07 4.09 1.69 3.38 C0.42 3.12 0.42 3.12 -0.88 2.86 C-3.23 2.21 -5.18 1.36 -7.31 0.19 C-4.57 -1.18 -2.99 -0.56 0 0 Z " fill="#D8B6BC" transform="translate(545.3125,396.8125)"/>
<path d="M0 0 C1 2 1 2 0.06 4.94 C-0.29 5.95 -0.64 6.96 -1 8 C-1 8.99 -1 9.98 -1 11 C-2.32 10.34 -3.64 9.68 -5 9 C-5 5 -5 5 -2.5 2.25 C-1.67 1.51 -0.85 0.76 0 0 Z " fill="#E35B70" transform="translate(692,340)"/>
<path d="M0 0 C0.33 0 0.66 0 1 0 C1 3.96 1 7.92 1 12 C-2 9 -2 9 -2.31 6 C-2 3 -2 3 0 0 Z " fill="#DFC3C8" transform="translate(519,280)"/>
<path d="M0 0 C5.31 2.71 8.42 5.23 12 10 C11.67 10.66 11.34 11.32 11 12 C2.63 4.95 2.63 4.95 0 2 C0 1.34 0 0.68 0 0 Z " fill="#D7A5B1" transform="translate(764,265)"/>
<path d="M0 0 C3.49 1.11 6.77 2.26 10 4 C10 4.66 10 5.32 10 6 C5.61 5.34 2.02 3.81 -2 2 C-1.34 1.34 -0.68 0.68 0 0 Z " fill="#E16779" transform="translate(742,255)"/>
<path d="M0 0 C5.94 1.49 5.94 1.49 12 3 C9 5 9 5 6 4.75 C3 4 3 4 0 2 C0 1.34 0 0.68 0 0 Z " fill="#D5ADB6" transform="translate(519,389)"/>
<path d="M0 0 C1.65 0.33 3.3 0.66 5 1 C4.67 1.99 4.34 2.98 4 4 C5.32 4.33 6.64 4.66 8 5 C5 6 5 6 2.38 5.19 C0 4 0 4 -1 2 C-0.67 1.34 -0.34 0.68 0 0 Z " fill="#E0C5CA" transform="translate(606,315)"/>
<path d="M0 0 C6.05 -0.2 6.05 -0.2 8 0 C8.66 0.66 9.32 1.32 10 2 C9 3 9 3 7.15 3.1 C5.1 3.07 3.05 3.03 1 3 C0.67 2.01 0.34 1.02 0 0 Z " fill="#A0656E" transform="translate(605,312)"/>
<path d="" fill="#FCFAFC" transform="translate(0,0)"/>
<path d="M0 0 C0.33 0.66 0.66 1.32 1 2 C0.34 1.67 -0.32 1.34 -1 1 C-0.67 0.67 -0.34 0.34 0 0 Z " fill="#FCFAFC" transform="translate(510,247)"/>
<path d="M0 0 C3 1 3 1 3 1 Z " fill="#FCFAFC" transform="translate(515,242)"/>
<path d="M0 0 C2 1 2 1 2 1 Z " fill="#FCFAFC" transform="translate(688,216)"/>
<path d="" fill="#0F3B18" transform="translate(0,0)"/>
<path d="" fill="#E1C9CD" transform="translate(0,0)"/>
<path d="" fill="#FCFAFC" transform="translate(0,0)"/>
<path d="" fill="#FCFAFC" transform="translate(0,0)"/>
<path d="" fill="#FCFAFC" transform="translate(0,0)"/>
<path d="" fill="#FCFAFC" transform="translate(0,0)"/>
</svg>
