<?xml version="1.0" encoding="UTF-8"?>
<!-- Generator: visioncortex VTracer 0.6.3 -->
<svg version="1.1" xmlns="http://www.w3.org/2000/svg" width="1280" height="640">
<path d="M0 0 C7.46 2.36 14.5 2.49 22.25 2.28 C37.53 1.88 51.18 2.87 65.66 8.23 C66.4 8.45 67.15 8.67 67.91 8.9 C76.93 11.62 83.98 16.62 90.66 23.23 C90.99 23.89 91.32 24.55 91.66 25.23 C92.83 26 92.83 26 94.03 26.79 C98.63 31.06 99.79 36.64 100.03 42.79 C99.8 48.55 98.27 53.21 94.66 57.73 C87.25 63.9 80.26 68.8 71.19 72.22 C68.48 73.2 68.48 73.2 65.66 75.23 C63.94 75.66 62.21 76.03 60.47 76.35 C59.57 76.52 58.67 76.69 57.74 76.86 C57.05 76.98 56.36 77.1 55.66 77.23 C55.66 77.89 55.66 78.55 55.66 79.23 C56.34 79.29 57.02 79.35 57.72 79.41 C61.11 80.35 63.12 81.86 65.89 83.96 C68.33 85.71 70.95 86.93 73.66 88.23 C75.33 89.21 77 90.21 78.66 91.23 C79.86 91.89 81.07 92.56 82.28 93.23 C84.97 94.82 86.65 95.94 88.66 98.23 C89.74 99.25 89.74 99.25 90.84 100.29 C92.66 102.23 92.66 102.23 92.66 104.23 C93.29 104.53 93.93 104.84 94.59 105.16 C96.66 106.23 96.66 106.23 97.66 107.23 C98.07 115.28 95.83 120.85 92.66 128.23 C92.15 129.58 91.65 130.93 91.16 132.29 C90.27 134.69 89.35 136.82 88.16 139.1 C86.83 141.86 85.99 144.36 85.16 147.29 C84.08 151.05 82.67 153.87 80.66 157.23 C79.86 159.74 79.16 162.27 78.5 164.82 C77.66 167.23 77.66 167.23 76.19 169.13 C74.21 171.84 73.55 174.44 72.66 177.66 C71.45 182 70.06 185.43 67.66 189.23 C67.3 190.17 66.95 191.12 66.59 192.1 C63.29 197.43 57.59 201.25 51.66 203.23 C38.05 204.05 24.43 203.88 11.1 201.02 C4.17 199.64 -2.93 199.36 -9.97 198.87 C-11 198.8 -12.02 198.73 -13.08 198.65 C-14 198.6 -14.92 198.54 -15.87 198.47 C-18.12 198.25 -20.15 197.79 -22.34 197.23 C-24.34 197.21 -26.35 197.23 -28.34 197.29 C-33.82 197.33 -38.85 196.79 -44.22 195.8 C-55.07 193.81 -66.04 192.82 -77.02 191.92 C-77.93 191.85 -78.83 191.77 -79.77 191.69 C-80.58 191.62 -81.39 191.56 -82.22 191.49 C-84.34 191.23 -84.34 191.23 -87.34 190.23 C-88.29 190.39 -89.24 190.56 -90.22 190.73 C-93.46 191.24 -95.17 190.87 -98.34 190.23 C-102.11 189.96 -105.88 189.78 -109.65 189.6 C-113.34 189.23 -113.34 189.23 -116.18 188.24 C-119.45 187.19 -122.27 186.84 -125.7 186.63 C-126.88 186.55 -128.06 186.47 -129.27 186.39 C-130.49 186.31 -131.71 186.24 -132.97 186.16 C-135.4 186.01 -137.83 185.85 -140.26 185.69 C-141.33 185.62 -142.4 185.56 -143.51 185.49 C-145.91 185.27 -148.02 184.82 -150.34 184.23 C-154.17 184.23 -157.99 184.35 -161.81 184.48 C-165.31 184.43 -168.3 183.77 -171.66 182.82 C-180.23 180.53 -188.97 180.19 -197.78 179.6 C-199.5 179.48 -201.21 179.36 -202.92 179.23 C-206.23 179 -209.53 178.77 -212.83 178.54 C-218.67 178.14 -224.51 177.69 -230.34 177.23 C-231.2 177.16 -232.05 177.09 -232.93 177.03 C-240.49 176.41 -247.84 174.16 -254.34 170.23 C-255.7 168.58 -257.04 166.91 -258.34 165.23 C-259.19 164.79 -260.04 164.36 -260.91 163.91 C-263.94 161.81 -264.89 160.08 -266.05 156.62 C-266.53 152.69 -265.35 149.35 -264.11 145.64 C-263.19 143.17 -263.19 143.17 -263.34 140.23 C-262.68 140.23 -262.02 140.23 -261.34 140.23 C-259.87 136.71 -258.74 133.23 -257.78 129.54 C-256.72 125.49 -255.56 122.59 -253.41 118.98 C-251.59 115.83 -250.37 112.72 -249.34 109.23 C-250 108.9 -250.66 108.57 -251.34 108.23 C-250.21 107.09 -249.05 105.97 -247.83 104.92 C-245.96 102.78 -245.38 100.88 -244.59 98.16 C-244.33 97.28 -244.07 96.41 -243.8 95.5 C-243.1 93.21 -243.1 93.21 -244.34 91.23 C-243.35 91.23 -242.36 91.23 -241.34 91.23 C-239.78 86.88 -238.42 82.9 -237.91 78.29 C-237.72 77.28 -237.54 76.27 -237.34 75.23 C-235.53 74.16 -235.53 74.16 -233.34 73.23 C-232.85 72.29 -232.35 71.36 -231.84 70.4 C-228.93 65.86 -224.22 64.97 -219.28 63.48 C-217.48 62.9 -215.67 62.32 -213.87 61.74 C-213.08 61.5 -212.28 61.25 -211.46 61 C-209.09 60.23 -209.09 60.23 -206.34 58.23 C-207.17 57.28 -207.99 56.33 -208.84 55.35 C-212.14 50.84 -211.83 46.61 -211.34 41.23 C-212.33 40.73 -212.33 40.73 -213.34 40.23 C-212.68 40.23 -212.02 40.23 -211.34 40.23 C-211.34 39.24 -211.34 38.25 -211.34 37.23 C-210.68 37.23 -210.02 37.23 -209.34 37.23 C-209.34 36.57 -209.34 35.91 -209.34 35.23 C-208.37 34.2 -207.36 33.21 -206.34 32.23 C-205.89 31.52 -205.44 30.82 -204.97 30.1 C-202.91 27.72 -201.41 27.56 -198.34 27.23 C-197.85 25.74 -197.85 25.74 -197.34 24.23 C-196.68 24.23 -196.02 24.23 -195.34 24.23 C-195.34 23.57 -195.34 22.91 -195.34 22.23 C-194.68 22.23 -194.02 22.23 -193.34 22.23 C-193.01 21.57 -192.68 20.91 -192.34 20.23 C-192.34 20.89 -192.34 21.55 -192.34 22.23 C-190.7 21.82 -189.05 21.4 -187.41 20.98 C-186.49 20.74 -185.57 20.51 -184.63 20.27 C-181.91 19.41 -179.7 18.42 -177.18 17.15 C-171.8 14.71 -166.81 14.58 -160.97 14.66 C-159.44 14.67 -159.44 14.67 -157.88 14.68 C-151.33 14.84 -146.48 15.77 -140.73 19.05 C-134.41 22.17 -126.54 21.24 -119.66 21.16 C-114.16 21.13 -108.8 21.44 -103.34 22.04 C-102.64 22.11 -101.93 22.18 -101.21 22.25 C-96.69 22.79 -93.3 24.03 -89.34 26.23 C-87.11 26.91 -87.11 26.91 -85.34 27.23 C-85.34 25.25 -85.34 23.27 -85.34 21.23 C-84.68 21.23 -84.02 21.23 -83.34 21.23 C-83.01 20.24 -82.68 19.25 -82.34 18.23 C-80.36 16.53 -78.37 14.87 -76.34 13.23 C-76.01 12.57 -75.68 11.91 -75.34 11.23 C-74.68 11.23 -74.02 11.23 -73.34 11.23 C-73.34 10.57 -73.34 9.91 -73.34 9.23 C-71.34 7.6 -71.34 7.6 -69.34 6.23 C-69.34 6.89 -69.34 7.55 -69.34 8.23 C-68.4 7.57 -67.45 6.91 -66.47 6.23 C-63.34 4.23 -63.34 4.23 -61.34 4.23 C-61.01 3.57 -60.68 2.91 -60.34 2.23 C-57.72 1.7 -57.72 1.7 -54.34 1.29 C-49.42 0.61 -44.99 -0.34 -40.34 -2.09 C-27.9 -6.35 -12.22 -4.04 0 0 Z M89.66 100.23 C90.66 103.23 90.66 103.23 90.66 103.23 Z " fill="#D94367" transform="translate(722.344482421875,219.77490234375)"/>
<path d="M0 0 C7.46 2.36 14.5 2.49 22.25 2.28 C37.53 1.88 51.18 2.87 65.66 8.23 C66.4 8.45 67.15 8.67 67.91 8.9 C76.93 11.62 83.98 16.62 90.66 23.23 C90.99 23.89 91.32 24.55 91.66 25.23 C92.83 26 92.83 26 94.03 26.79 C98.63 31.06 99.79 36.64 100.03 42.79 C99.8 48.55 98.27 53.21 94.66 57.73 C87.25 63.9 80.26 68.8 71.19 72.22 C68.48 73.2 68.48 73.2 65.66 75.23 C63.94 75.66 62.21 76.03 60.47 76.35 C59.57 76.52 58.67 76.69 57.74 76.86 C57.05 76.98 56.36 77.1 55.66 77.23 C55.66 77.89 55.66 78.55 55.66 79.23 C56.34 79.29 57.02 79.35 57.72 79.41 C61.11 80.35 63.12 81.86 65.89 83.96 C68.33 85.71 70.95 86.93 73.66 88.23 C75.33 89.21 77 90.21 78.66 91.23 C79.86 91.89 81.07 92.56 82.28 93.23 C84.97 94.82 86.65 95.94 88.66 98.23 C89.74 99.25 89.74 99.25 90.84 100.29 C92.66 102.23 92.66 102.23 92.66 104.23 C93.29 104.53 93.93 104.84 94.59 105.16 C96.66 106.23 96.66 106.23 97.66 107.23 C98.07 115.28 95.83 120.85 92.66 128.23 C92.15 129.58 91.65 130.93 91.16 132.29 C90.27 134.69 89.35 136.82 88.16 139.1 C86.83 141.86 85.99 144.36 85.16 147.29 C84.08 151.05 82.67 153.87 80.66 157.23 C79.86 159.74 79.16 162.27 78.5 164.82 C77.66 167.23 77.66 167.23 76.19 169.13 C74.21 171.84 73.55 174.44 72.66 177.66 C71.45 182 70.06 185.43 67.66 189.23 C67.3 190.17 66.95 191.12 66.59 192.1 C63.29 197.43 57.59 201.25 51.66 203.23 C38.05 204.05 24.43 203.88 11.1 201.02 C4.17 199.64 -2.93 199.36 -9.97 198.87 C-11 198.8 -12.02 198.73 -13.08 198.65 C-14 198.6 -14.92 198.54 -15.87 198.47 C-18.12 198.25 -20.15 197.79 -22.34 197.23 C-24.34 197.21 -26.35 197.23 -28.34 197.29 C-33.82 197.33 -38.85 196.79 -44.22 195.8 C-55.07 193.81 -66.04 192.82 -77.02 191.92 C-77.93 191.85 -78.83 191.77 -79.77 191.69 C-80.58 191.62 -81.39 191.56 -82.22 191.49 C-84.34 191.23 -84.34 191.23 -87.34 190.23 C-88.29 190.39 -89.24 190.56 -90.22 190.73 C-93.46 191.24 -95.17 190.87 -98.34 190.23 C-102.11 189.96 -105.88 189.78 -109.65 189.6 C-113.34 189.23 -113.34 189.23 -116.18 188.24 C-119.45 187.19 -122.27 186.84 -125.7 186.63 C-126.88 186.55 -128.06 186.47 -129.27 186.39 C-130.49 186.31 -131.71 186.24 -132.97 186.16 C-135.4 186.01 -137.83 185.85 -140.26 185.69 C-141.33 185.62 -142.4 185.56 -143.51 185.49 C-145.91 185.27 -148.02 184.82 -150.34 184.23 C-154.17 184.23 -157.99 184.35 -161.81 184.48 C-165.31 184.43 -168.3 183.77 -171.66 182.82 C-180.23 180.53 -188.97 180.19 -197.78 179.6 C-199.5 179.48 -201.21 179.36 -202.92 179.23 C-206.23 179 -209.53 178.77 -212.83 178.54 C-218.67 178.14 -224.51 177.69 -230.34 177.23 C-231.2 177.16 -232.05 177.09 -232.93 177.03 C-240.49 176.41 -247.84 174.16 -254.34 170.23 C-255.7 168.58 -257.04 166.91 -258.34 165.23 C-259.19 164.79 -260.04 164.36 -260.91 163.91 C-263.94 161.81 -264.89 160.08 -266.05 156.62 C-266.53 152.69 -265.35 149.35 -264.11 145.64 C-263.19 143.17 -263.19 143.17 -263.34 140.23 C-262.68 140.23 -262.02 140.23 -261.34 140.23 C-259.87 136.71 -258.74 133.23 -257.78 129.54 C-256.72 125.49 -255.56 122.59 -253.41 118.98 C-251.59 115.83 -250.37 112.72 -249.34 109.23 C-250 108.9 -250.66 108.57 -251.34 108.23 C-250.21 107.09 -249.05 105.97 -247.83 104.92 C-245.96 102.78 -245.38 100.88 -244.59 98.16 C-244.33 97.28 -244.07 96.41 -243.8 95.5 C-243.1 93.21 -243.1 93.21 -244.34 91.23 C-243.35 91.23 -242.36 91.23 -241.34 91.23 C-239.78 86.88 -238.42 82.9 -237.91 78.29 C-237.72 77.28 -237.54 76.27 -237.34 75.23 C-235.53 74.16 -235.53 74.16 -233.34 73.23 C-232.85 72.29 -232.35 71.36 -231.84 70.4 C-228.93 65.86 -224.22 64.97 -219.28 63.48 C-217.48 62.9 -215.67 62.32 -213.87 61.74 C-213.08 61.5 -212.28 61.25 -211.46 61 C-209.09 60.23 -209.09 60.23 -206.34 58.23 C-207.17 57.28 -207.99 56.33 -208.84 55.35 C-212.14 50.84 -211.83 46.61 -211.34 41.23 C-212.33 40.73 -212.33 40.73 -213.34 40.23 C-212.68 40.23 -212.02 40.23 -211.34 40.23 C-211.34 39.24 -211.34 38.25 -211.34 37.23 C-210.68 37.23 -210.02 37.23 -209.34 37.23 C-209.34 36.57 -209.34 35.91 -209.34 35.23 C-208.37 34.2 -207.36 33.21 -206.34 32.23 C-205.89 31.52 -205.44 30.82 -204.97 30.1 C-202.91 27.72 -201.41 27.56 -198.34 27.23 C-197.85 25.74 -197.85 25.74 -197.34 24.23 C-196.68 24.23 -196.02 24.23 -195.34 24.23 C-195.34 23.57 -195.34 22.91 -195.34 22.23 C-194.68 22.23 -194.02 22.23 -193.34 22.23 C-193.01 21.57 -192.68 20.91 -192.34 20.23 C-192.34 20.89 -192.34 21.55 -192.34 22.23 C-190.7 21.82 -189.05 21.4 -187.41 20.98 C-186.49 20.74 -185.57 20.51 -184.63 20.27 C-181.91 19.41 -179.7 18.42 -177.18 17.15 C-171.8 14.71 -166.81 14.58 -160.97 14.66 C-159.44 14.67 -159.44 14.67 -157.88 14.68 C-151.33 14.84 -146.48 15.77 -140.73 19.05 C-134.41 22.17 -126.54 21.24 -119.66 21.16 C-114.16 21.13 -108.8 21.44 -103.34 22.04 C-102.64 22.11 -101.93 22.18 -101.21 22.25 C-96.69 22.79 -93.3 24.03 -89.34 26.23 C-87.11 26.91 -87.11 26.91 -85.34 27.23 C-85.34 25.25 -85.34 23.27 -85.34 21.23 C-84.68 21.23 -84.02 21.23 -83.34 21.23 C-83.01 20.24 -82.68 19.25 -82.34 18.23 C-80.36 16.53 -78.37 14.87 -76.34 13.23 C-76.01 12.57 -75.68 11.91 -75.34 11.23 C-74.68 11.23 -74.02 11.23 -73.34 11.23 C-73.34 10.57 -73.34 9.91 -73.34 9.23 C-71.34 7.6 -71.34 7.6 -69.34 6.23 C-69.34 6.89 -69.34 7.55 -69.34 8.23 C-68.4 7.57 -67.45 6.91 -66.47 6.23 C-63.34 4.23 -63.34 4.23 -61.34 4.23 C-61.01 3.57 -60.68 2.91 -60.34 2.23 C-57.72 1.7 -57.72 1.7 -54.34 1.29 C-49.42 0.61 -44.99 -0.34 -40.34 -2.09 C-27.9 -6.35 -12.22 -4.04 0 0 Z M-55.34 19.23 C-55.91 19.66 -56.48 20.09 -57.07 20.53 C-60.41 23.69 -60.76 26.93 -60.97 31.29 C-60.8 35.6 -60.63 36.85 -57.91 40.35 C-57.06 40.97 -56.22 41.59 -55.34 42.23 C-55.01 42.89 -54.68 43.55 -54.34 44.23 C-55 44.22 -55.65 44.21 -56.32 44.21 C-59.26 44.19 -62.21 44.18 -65.16 44.16 C-66.18 44.15 -67.21 44.15 -68.26 44.14 C-69.24 44.13 -70.23 44.13 -71.24 44.13 C-72.14 44.12 -73.05 44.12 -73.98 44.11 C-76.5 44.13 -76.5 44.13 -79.34 45.23 C-79.34 45.89 -79.34 46.55 -79.34 47.23 C-80.54 47.02 -81.74 46.81 -82.97 46.6 C-86.9 46.09 -89.66 46.66 -93.34 48.23 C-93.4 47.48 -93.45 46.73 -93.51 45.96 C-94.65 42.22 -96.4 41.45 -99.72 39.48 C-101.19 38.59 -101.19 38.59 -102.68 37.68 C-108.03 34.76 -112.78 35.01 -118.72 34.98 C-119.67 34.95 -120.61 34.93 -121.59 34.91 C-126.97 34.88 -129.72 35.35 -134.34 38.23 C-136.99 37.46 -136.99 37.46 -139.59 35.98 C-140.47 35.5 -141.34 35.02 -142.24 34.52 C-144.34 33.23 -144.34 33.23 -145.34 32.23 C-155.73 29.13 -167.15 28.12 -177.03 33.04 C-178.82 34.06 -180.6 35.13 -182.34 36.23 C-183.73 36.94 -183.73 36.94 -185.15 37.68 C-185.88 38.19 -186.6 38.7 -187.34 39.23 C-187.74 43.42 -187.79 47.22 -186.34 51.23 C-184.84 52.67 -184.84 52.67 -182.97 53.79 C-181.05 55.04 -179.43 56.13 -177.85 57.8 C-175.44 60.08 -172.5 60.45 -169.34 61.23 C-169.34 62.88 -169.34 64.53 -169.34 66.23 C-171.99 66.85 -174.64 67.48 -177.28 68.1 C-178.06 68.28 -178.84 68.47 -179.64 68.66 C-183.6 69.59 -187.56 70.5 -191.53 71.35 C-194.91 72.13 -198.08 73.09 -201.34 74.23 C-202.52 74.49 -203.7 74.76 -204.91 75.04 C-209.87 76.75 -212.48 79.5 -214.83 84.19 C-215.25 85.31 -215.66 86.44 -216.09 87.6 C-216.59 88.92 -217.09 90.23 -217.59 91.55 C-217.86 92.28 -218.13 93.01 -218.41 93.76 C-219.48 96.58 -220.58 99.38 -221.69 102.18 C-222.51 104.26 -223.34 106.34 -224.16 108.41 C-224.55 109.42 -224.95 110.42 -225.36 111.46 C-225.92 112.88 -225.92 112.88 -226.49 114.33 C-226.82 115.18 -227.16 116.02 -227.5 116.9 C-228.37 119.16 -228.37 119.16 -228.85 121.3 C-229.38 123.37 -230.17 125.01 -231.18 126.89 C-233.46 131.34 -235.26 135.92 -237.03 140.6 C-237.64 142.19 -238.25 143.78 -238.86 145.37 C-239.12 146.07 -239.38 146.76 -239.65 147.47 C-240.34 149.23 -240.34 149.23 -241.34 151.23 C-240.68 151.23 -240.02 151.23 -239.34 151.23 C-239.01 152.55 -238.68 153.87 -238.34 155.23 C-227.07 157.13 -215.97 158.57 -204.53 158.93 C-198.43 159.14 -198.43 159.14 -197.34 160.23 C-194.78 160.44 -192.23 160.6 -189.66 160.73 C-184.8 160.96 -180.15 161.42 -175.34 162.23 C-173.7 162.24 -172.05 162.22 -170.41 162.16 C-167.21 162.12 -165.14 162.29 -162.03 163.23 C-157.29 164.51 -152.92 164.33 -148.04 164.2 C-145.34 164.23 -145.34 164.23 -144.34 165.23 C-143.19 165.23 -142.03 165.23 -140.84 165.23 C-139.69 165.23 -138.53 165.23 -137.34 165.23 C-137.01 165.56 -136.68 165.89 -136.34 166.23 C-132.34 166.82 -128.31 167.18 -124.28 167.58 C-122.28 167.78 -120.28 167.99 -118.28 168.21 C-110.31 169.01 -102.66 169.33 -94.65 169.08 C-91.17 169.23 -88.59 170 -85.34 171.23 C-82.58 172.02 -80.06 172.38 -77.19 172.51 C-76.42 172.54 -75.64 172.58 -74.84 172.62 C-74.04 172.65 -73.23 172.69 -72.41 172.73 C-67.6 172.93 -63.07 173.28 -58.34 174.23 C-55.47 174.44 -52.6 174.55 -49.72 174.66 C-43.65 174.94 -37.91 175.56 -31.95 176.82 C-27.86 177.46 -23.81 177.32 -19.68 177.2 C-17.34 177.23 -17.34 177.23 -16.34 178.23 C-8.3 180.5 0.1 180.6 8.39 180.88 C9.27 180.91 10.15 180.95 11.06 180.98 C12.24 181.01 12.24 181.01 13.45 181.05 C15.63 181.22 17.55 181.67 19.66 182.23 C21.98 182.42 24.32 182.54 26.66 182.6 C28.48 182.67 28.48 182.67 30.34 182.75 C33.74 182.52 33.74 182.52 35.88 180.19 C37.97 176.7 39.55 173.2 41.03 169.41 C41.33 168.66 41.64 167.91 41.95 167.13 C44.11 161.71 46.16 156.24 48.17 150.75 C50.92 143.35 54.03 136.08 57.14 128.82 C62.89 116.41 62.89 116.41 62.66 103.23 C62.33 102.57 62 101.91 61.66 101.23 C61 101.23 60.34 101.23 59.66 101.23 C59.33 100.57 59 99.91 58.66 99.23 C57.29 98.38 55.89 97.6 54.47 96.85 C51.81 95.45 49.33 94 46.84 92.31 C43.31 90 39.69 88.14 35.91 86.29 C35.2 85.94 34.5 85.59 33.78 85.23 C30.73 83.72 27.67 82.23 24.6 80.77 C12.75 75.08 12.75 75.08 10.85 70.13 C10.35 68.19 9.99 66.21 9.66 64.23 C10.39 64.14 11.11 64.05 11.87 63.96 C29.99 61.52 53.89 56.56 66.41 42.22 C68.32 39.16 67.96 36.77 67.66 33.23 C67.57 32.07 67.49 30.92 67.41 29.73 C64.55 24.02 59.33 21.78 53.66 19.23 C51.22 18.56 49.2 18.38 46.66 18.23 C45.87 17.89 45.09 17.56 44.28 17.22 C39.85 15.54 35.45 16.17 30.78 16.41 C29.33 16.46 29.33 16.46 27.85 16.51 C22.07 16.78 17.8 17.58 12.66 20.23 C8.28 22.26 8.28 22.26 5.47 22.1 C3.66 21.23 3.66 21.23 2.84 19.41 C0.98 15.98 -1.84 14.62 -5.34 13.23 C-21.34 8.95 -41.82 8.81 -55.34 19.23 Z M89.66 100.23 C90.66 103.23 90.66 103.23 90.66 103.23 Z " fill="#F8F7F6" transform="translate(722.344482421875,219.77490234375)"/>
<path d="M0 0 C2.71 1.1 4.21 2.21 6.27 4.34 C9.03 7.03 11.7 8.89 15 10.88 C15.57 11.22 16.13 11.56 16.72 11.91 C21.58 14.82 26.55 17.5 31.55 20.16 C42.24 25.87 52.72 31.97 63.23 37.99 C65.11 39.07 67 40.14 68.88 41.21 C69.52 41.57 70.15 41.93 70.81 42.31 C72.59 43.32 74.36 44.33 76.14 45.34 C78.13 46.49 80.08 47.72 82 49 C83.95 49.28 83.95 49.28 86 49.19 C87.02 49.18 87.02 49.18 88.06 49.17 C90.22 49.06 90.22 49.06 93 48 C100 46.89 107.12 46.87 114.19 46.81 C115.03 46.8 115.87 46.79 116.74 46.77 C122.16 46.77 126.81 47.42 132 49 C132.33 49.33 132.66 49.66 133 50 C134.31 50.3 135.62 50.56 136.94 50.81 C140.55 51.57 143.74 52.66 147.12 54.12 C158.14 58.67 170.21 53.77 181.12 50.62 C195.73 46.48 195.73 46.48 203.06 44.62 C204.81 44.18 204.81 44.18 206.6 43.73 C209.23 43.16 211.7 42.8 214.37 42.52 C215.57 42.35 216.77 42.18 218 42 C218.33 41.34 218.66 40.68 219 40 C220.73 40.06 220.73 40.06 222.5 40.12 C226.92 40.11 230.8 39.28 235.04 38.1 C235.77 37.91 236.51 37.71 237.26 37.51 C238.79 37.1 240.32 36.68 241.86 36.26 C244.19 35.62 246.53 35 248.87 34.38 C250.36 33.97 251.86 33.57 253.36 33.16 C254.39 32.88 254.39 32.88 255.45 32.6 C259.07 31.6 262.55 30.48 266 29 C266.33 29.66 266.66 30.32 267 31 C267.66 30.67 268.32 30.34 269 30 C270.19 31.5 270.19 31.5 271 34 C270.15 36.81 269.16 39.32 268 42 C267.12 44.19 266.25 46.37 265.38 48.56 C265.13 49.18 264.88 49.81 264.62 50.45 C262.18 56.51 259.81 62.6 257.44 68.69 C254.74 75.61 252.02 82.52 249.12 89.35 C248.29 91.32 247.48 93.29 246.7 95.27 C246.26 96.36 245.82 97.44 245.38 98.56 C244.99 99.53 244.61 100.5 244.21 101.5 C242.27 105.5 242.27 105.5 240 107 C236.79 107.33 236.79 107.33 233.06 107.25 C231.84 107.23 230.61 107.22 229.35 107.2 C226 107 226 107 224.08 106.5 C221.81 105.95 219.74 105.82 217.4 105.75 C216.52 105.72 215.64 105.69 214.74 105.66 C213.81 105.63 212.89 105.6 211.94 105.56 C203.77 105.23 195.88 104.65 187.98 102.43 C185.87 101.97 184.09 101.97 181.94 102.06 C178.5 102.11 175.43 101.77 172.06 101.06 C166.15 99.87 160.29 99.59 154.28 99.34 C151.29 99.21 148.45 99.09 145.51 98.5 C141.78 97.76 138.04 97.72 134.25 97.56 C119.75 96.87 119.75 96.87 114 94 C111.95 93.96 109.91 93.98 107.86 94.03 C99.92 94.08 92.14 93.4 84.25 92.56 C82.89 92.43 81.52 92.29 80.16 92.15 C70.27 91.14 70.27 91.14 68 90 C67.05 90 66.1 90 65.12 90 C62 90 62 90 60.1 89.5 C57.72 88.93 55.69 88.97 53.25 89.06 C49.18 89.12 45.88 88.56 42 87.44 C39.08 86.8 36.26 86.9 33.27 87.03 C31 87 31 87 28.24 86.54 C23.7 85.79 19.16 85.62 14.57 85.39 C9.21 85.1 9.21 85.1 7 84 C4.21 83.84 1.42 83.72 -1.38 83.62 C-11.72 83.19 -21.8 81.71 -32 80 C-32.12 79.36 -32.25 78.72 -32.38 78.06 C-32.58 77.38 -32.79 76.7 -33 76 C-33.66 75.67 -34.32 75.34 -35 75 C-34.56 74.07 -34.56 74.07 -34.12 73.12 C-31.2 66.81 -28.53 60.45 -26.06 53.95 C-24.96 51.14 -24.16 49.16 -22 47 C-22 46.01 -22 45.02 -22 44 C-21.39 42.24 -20.73 40.49 -20.02 38.77 C-19.6 37.72 -19.18 36.68 -18.75 35.61 C-18.3 34.5 -17.84 33.39 -17.38 32.25 C-16.45 29.98 -15.53 27.71 -14.6 25.44 C-14.15 24.34 -13.7 23.23 -13.24 22.1 C-12.19 19.46 -11.18 16.82 -10.21 14.15 C-9.96 13.47 -9.7 12.78 -9.44 12.08 C-8.8 10.32 -8.17 8.56 -7.55 6.79 C-5.62 3.32 -3.41 1.94 0 0 Z " fill="#FBB154" transform="translate(516,295)"/>
<path d="M0 0 C1.43 1.32 1.43 1.32 2.43 4.32 C6.64 5.27 8.73 5.56 12.43 3.32 C18.42 0.21 23.73 -0.31 30.43 -0.56 C31.38 -0.62 32.34 -0.68 33.33 -0.74 C39.35 -1 43.04 -0.28 48.43 2.32 C49.28 2.32 50.13 2.31 51.01 2.31 C56.16 2.32 60.6 6.14 64.43 9.32 C66.11 12.82 66.11 12.82 66.43 16.32 C66.64 18.08 66.64 18.08 66.86 19.88 C66.32 24.18 64.42 26.37 61.43 29.32 C52.52 35.68 42.88 39.31 32.43 42.32 C31.77 42.51 31.12 42.7 30.45 42.89 C23.15 45.02 16.03 46.78 8.43 47.32 C9.09 49.63 9.75 51.94 10.43 54.32 C9.85 54 9.27 53.68 8.68 53.36 C3.48 50.96 -2.4 51.29 -8.01 51.5 C-13.97 51.54 -18.29 49.94 -23.57 47.32 C-24.62 46.81 -25.66 46.3 -26.74 45.77 C-33.18 42.48 -38.71 38.83 -44.23 34.16 C-46.53 32.35 -48.78 31.07 -51.39 29.75 C-55.92 27.41 -57.89 24.6 -60.57 20.32 C-60.9 20.32 -61.23 20.32 -61.57 20.32 C-62.94 9.28 -62.94 9.28 -59.82 4.78 C-45.43 -8.24 -16.38 -10.82 0 0 Z " fill="#EA6271" transform="translate(723.57421875,236.68359375)"/>
<path d="M0 0 C2.71 1.1 4.21 2.21 6.27 4.34 C9.03 7.03 11.7 8.89 15 10.88 C15.57 11.22 16.13 11.56 16.72 11.91 C21.58 14.82 26.55 17.5 31.55 20.16 C42.24 25.87 52.72 31.97 63.23 37.99 C65.11 39.07 67 40.14 68.88 41.21 C69.52 41.57 70.15 41.93 70.81 42.31 C72.59 43.32 74.36 44.33 76.14 45.34 C78.13 46.49 80.08 47.72 82 49 C84.63 49.17 84.63 49.17 87 49 C87.33 49.99 87.66 50.98 88 52 C87.24 52.16 86.49 52.32 85.71 52.48 C77.94 54.13 70.19 55.83 62.44 57.56 C61.49 57.77 60.53 57.98 59.55 58.2 C54.41 59.34 54.41 59.34 49.43 61.04 C45.62 62.55 41.64 63.13 37.62 63.88 C30.34 65.28 23.21 66.94 16.06 68.93 C12.9 69.79 9.73 70.52 6.54 71.22 C5.57 71.43 4.6 71.65 3.61 71.87 C1.72 72.28 -0.17 72.68 -2.06 73.07 C-6.68 74.08 -10.93 75.3 -15.29 77.13 C-18.97 78.67 -21.96 79.53 -26 79.44 C-26.91 79.44 -27.81 79.43 -28.75 79.43 C-29.49 79.29 -30.24 79.15 -31 79 C-31.66 78.01 -32.32 77.02 -33 76 C-33.66 75.67 -34.32 75.34 -35 75 C-34.56 74.07 -34.56 74.07 -34.12 73.12 C-31.2 66.81 -28.53 60.45 -26.06 53.95 C-24.96 51.14 -24.16 49.16 -22 47 C-22 46.01 -22 45.02 -22 44 C-21.39 42.24 -20.73 40.49 -20.02 38.77 C-19.6 37.72 -19.18 36.68 -18.75 35.61 C-18.3 34.5 -17.84 33.39 -17.38 32.25 C-16.45 29.98 -15.53 27.71 -14.6 25.44 C-14.15 24.34 -13.7 23.23 -13.24 22.1 C-12.19 19.46 -11.18 16.82 -10.21 14.15 C-9.96 13.47 -9.7 12.78 -9.44 12.08 C-8.8 10.32 -8.17 8.56 -7.55 6.79 C-5.62 3.32 -3.41 1.94 0 0 Z " fill="#FA9952" transform="translate(516,295)"/>
<path d="M0 0 C0.99 0.99 0.99 0.99 2 2 C2.66 1.67 3.32 1.34 4 1 C5.19 2.5 5.19 2.5 6 5 C5.15 7.81 4.16 10.32 3 13 C2.12 15.19 1.25 17.37 0.38 19.56 C0 20.5 0 20.5 -0.38 21.45 C-2.82 27.51 -5.19 33.6 -7.56 39.69 C-10.26 46.61 -12.97 53.52 -15.89 60.35 C-16.71 62.32 -17.5 64.31 -18.27 66.31 C-18.7 67.4 -19.12 68.5 -19.56 69.62 C-19.94 70.61 -20.31 71.59 -20.69 72.6 C-22 75 -22 75 -23.9 76.4 C-28.63 77.76 -32.67 74.81 -36.81 72.69 C-37.44 72.37 -38.07 72.05 -38.72 71.72 C-45.04 68.5 -51.03 64.98 -57.06 61.25 C-67.25 54.96 -77.56 49.15 -88.3 43.87 C-95.66 40.22 -102.71 36.33 -109 31 C-109.99 30.34 -110.98 29.68 -112 29 C-110.65 28.51 -109.29 28.04 -107.94 27.56 C-107.18 27.3 -106.43 27.03 -105.65 26.75 C-103 26 -103 26 -99.94 25.61 C-94.5 24.77 -89.34 23.21 -84.06 21.69 C-69.19 17.46 -69.19 17.46 -61.94 15.62 C-60.77 15.33 -59.6 15.03 -58.4 14.73 C-55.77 14.16 -53.3 13.8 -50.63 13.52 C-48.83 13.26 -48.83 13.26 -47 13 C-46.67 12.34 -46.34 11.68 -46 11 C-44.85 11.04 -43.69 11.08 -42.5 11.12 C-38.07 11.11 -34.18 10.28 -29.92 9.1 C-28.82 8.81 -28.82 8.81 -27.7 8.51 C-26.16 8.1 -24.62 7.68 -23.09 7.26 C-20.75 6.62 -18.4 6 -16.05 5.38 C-14.55 4.97 -13.05 4.57 -11.55 4.16 C-10.85 3.98 -10.15 3.79 -9.43 3.6 C-6.1 2.68 -3.02 1.71 0 0 Z " fill="#FA9952" transform="translate(781,324)"/>
<path d="M0 0 C0.25 0.62 0.5 1.24 0.75 1.88 C2.22 4.37 3.38 4.9 6 6 C7 7 7 7 7.19 10.69 C7.1 17.05 4.49 22.23 2 28 C1.49 29.35 0.99 30.71 0.5 32.06 C-0.38 34.47 -1.31 36.59 -2.5 38.88 C-3.83 41.64 -4.67 44.13 -5.5 47.06 C-6.57 50.83 -7.99 53.64 -10 57 C-10.79 59.52 -11.49 62.04 -12.16 64.6 C-13 67 -13 67 -14.47 68.91 C-16.45 71.61 -17.11 74.22 -18 77.44 C-19.2 81.77 -20.59 85.21 -23 89 C-23.35 89.95 -23.7 90.9 -24.06 91.88 C-27.37 97.2 -33.07 101.02 -39 103 C-52.6 103.83 -66.22 103.65 -79.55 100.8 C-86.49 99.41 -93.59 99.13 -100.63 98.65 C-102.17 98.54 -102.17 98.54 -103.74 98.43 C-104.66 98.37 -105.57 98.31 -106.52 98.25 C-108.78 98.02 -110.81 97.56 -113 97 C-115 96.98 -117 97.01 -119 97.06 C-124.47 97.11 -129.5 96.56 -134.88 95.57 C-145.73 93.59 -156.69 92.6 -167.68 91.7 C-168.58 91.62 -169.49 91.54 -170.42 91.46 C-171.23 91.4 -172.04 91.33 -172.88 91.27 C-175 91 -175 91 -178 90 C-178.95 90.17 -179.9 90.33 -180.88 90.5 C-184.12 91.02 -185.82 90.64 -189 90 C-192.77 89.74 -196.54 89.56 -200.31 89.38 C-204 89 -204 89 -206.83 88.01 C-210.11 86.97 -212.93 86.62 -216.35 86.4 C-217.53 86.32 -218.71 86.24 -219.93 86.16 C-221.15 86.09 -222.37 86.01 -223.62 85.94 C-226.05 85.78 -228.48 85.63 -230.91 85.46 C-231.99 85.4 -233.06 85.33 -234.16 85.27 C-236.57 85.04 -238.67 84.6 -241 84 C-244.83 84.01 -248.64 84.13 -252.47 84.26 C-255.97 84.21 -258.95 83.54 -262.32 82.59 C-270.89 80.3 -279.62 79.96 -288.44 79.38 C-290.15 79.25 -291.87 79.13 -293.58 79.01 C-296.88 78.77 -300.18 78.54 -303.48 78.31 C-309.32 77.91 -315.16 77.46 -321 77 C-321.85 76.93 -322.71 76.87 -323.59 76.8 C-331.92 76.12 -341.71 73.73 -347.38 67.31 C-348.18 66.17 -348.18 66.17 -349 65 C-347.51 64.5 -347.51 64.5 -346 64 C-345.01 64.66 -344.02 65.32 -343 66 C-340.9 65.99 -340.9 65.99 -338.69 65.56 C-334.84 64.92 -331.84 65.35 -328 66 C-325.91 66.2 -323.81 66.38 -321.72 66.54 C-320.55 66.62 -319.38 66.71 -318.17 66.8 C-316.96 66.89 -315.75 66.97 -314.5 67.06 C-313.29 67.15 -312.08 67.24 -310.83 67.34 C-304.26 67.84 -304.26 67.84 -297.67 67.96 C-295 68 -295 68 -294 69 C-291.92 69.21 -289.84 69.37 -287.75 69.5 C-283.73 69.75 -279.93 70.16 -276 71 C-269.64 71.89 -263.23 72.29 -256.82 72.72 C-254 73 -254 73 -251 74 C-247.22 74.07 -243.45 74 -239.66 73.94 C-236.57 73.99 -233.99 74.28 -231 75 C-229 75.34 -227 75.67 -225 76 C-225 76.66 -225 77.32 -225 78 C-223.94 77.99 -222.88 77.98 -221.79 77.96 C-220.4 77.96 -219.01 77.95 -217.62 77.94 C-216.93 77.93 -216.23 77.92 -215.51 77.91 C-210.23 77.89 -210.23 77.89 -208 79 C-206.48 79.04 -204.97 79.01 -203.45 78.96 C-193.73 78.7 -185.4 78.58 -176.18 82.04 C-169.98 83.91 -163.44 83.83 -157 84 C-157 83.34 -157 82.68 -157 82 C-155.04 82.31 -153.08 82.62 -151.12 82.94 C-150.03 83.11 -148.94 83.29 -147.82 83.46 C-145 84 -145 84 -143 85 C-140.59 85.03 -138.2 84.93 -135.8 84.84 C-133 85 -133 85 -129.81 85.96 C-125.09 87.25 -120.62 87.49 -115.75 87.69 C-114.85 87.73 -113.96 87.78 -113.03 87.83 C-107.94 88.09 -107.94 88.09 -103 87 C-102.67 87.33 -102.34 87.66 -102 88 C-100.65 88.23 -99.3 88.41 -97.94 88.56 C-96.64 88.71 -95.34 88.85 -94 89 C-94 89.66 -94 90.32 -94 91 C-93.32 90.9 -92.64 90.81 -91.95 90.71 C-86.03 90.01 -81.28 90.18 -75.5 91.52 C-70.99 92.39 -66.57 92.17 -62 92 C-61.3 91.99 -60.59 91.97 -59.87 91.96 C-57.5 91.91 -55.12 91.83 -52.75 91.75 C-51.99 91.74 -51.24 91.72 -50.46 91.71 C-44.93 91.46 -41.58 90.13 -37 87 C-33.21 82.26 -31.89 75.9 -30.13 70.17 C-28.08 63.69 -25.51 57.84 -22.38 51.81 C-20.84 48.66 -19.73 45.54 -18.7 42.2 C-16.41 35.02 -13.21 28.1 -10.29 21.16 C-8.51 16.79 -6.9 12.36 -5.31 7.91 C-3.92 4.82 -2.22 2.55 0 0 Z " fill="#8F2E4F" transform="translate(813,320)"/>
<path d="M0 0 C1.07 0.01 1.07 0.01 2.16 0.02 C10.61 0.2 16.54 1.23 23.43 6.23 C25.48 7.58 25.48 7.58 29.25 7.25 C30.58 6.58 31.92 5.92 33.25 5.25 C36.63 4.79 40.02 4.83 43.44 4.81 C44.35 4.78 45.25 4.75 46.19 4.71 C53.11 4.66 57.55 6.41 63.25 10.25 C63.87 10.65 64.49 11.05 65.13 11.46 C66.52 12.37 67.89 13.31 69.25 14.25 C68.92 15.24 68.59 16.23 68.25 17.25 C68.75 18.74 68.75 18.74 69.25 20.25 C62.12 31.46 46.43 35.37 34.25 38.25 C33.57 38.41 32.88 38.58 32.18 38.75 C23.51 40.76 15.23 41.54 6.36 41.26 C3.7 41.25 1.78 41.58 -0.75 42.25 C-3.91 40.1 -5.23 36.66 -6.75 33.25 C-6.75 32.59 -6.75 31.93 -6.75 31.25 C-7.64 31.01 -7.64 31.01 -8.54 30.77 C-13.9 29.19 -16.99 27.56 -20.75 23.25 C-21.74 22.59 -22.73 21.93 -23.75 21.25 C-24.44 19.62 -24.44 19.62 -24.75 17.25 C-25.02 15.99 -25.29 14.73 -25.56 13.44 C-25.56 11.35 -25.56 11.35 -24.75 9.25 C-21.06 6.29 -17.03 4.24 -12.75 2.25 C-11.56 1.67 -11.56 1.67 -10.34 1.07 C-6.89 -0.02 -3.58 -0.05 0 0 Z " fill="#BF497A" transform="translate(559.75,249.75)"/>
<path d="M0 0 C0.88 1.82 0.88 1.82 1.56 4.12 C1.81 4.94 2.07 5.75 2.32 6.59 C2.9 8.63 3.39 10.69 3.88 12.75 C5.26 16.76 6.8 18.2 10 21 C11.07 22.02 11.07 22.02 12.16 23.06 C22.62 32.89 35 39.34 47.56 46.1 C48.64 46.69 49.71 47.28 50.82 47.89 C51.79 48.42 52.76 48.94 53.77 49.49 C56 51 56 51 57 54 C57.66 54 58.32 54 59 54 C59 54.66 59 55.32 59 56 C57.11 56.34 55.21 56.67 53.31 57 C52.26 57.19 51.2 57.37 50.11 57.56 C45.32 58.24 42.14 58.46 37.92 55.91 C37.16 55.46 36.4 55.01 35.62 54.55 C34.82 54.06 34.01 53.57 33.19 53.06 C31.48 52.05 29.77 51.03 28.06 50.02 C27.21 49.51 26.36 49 25.48 48.47 C21.92 46.36 18.31 44.33 14.69 42.31 C8.67 38.95 2.69 35.53 -3.29 32.1 C-6.02 30.55 -8.77 29.03 -11.52 27.52 C-34.1 15.19 -34.1 15.19 -38 8 C-37.34 7.9 -36.68 7.79 -36 7.69 C-33.58 7.13 -31.54 6.47 -29.25 5.56 C-25.73 4.2 -22.27 3.3 -18.57 2.54 C-16.59 2.12 -14.61 1.66 -12.64 1.18 C-11.48 0.89 -10.32 0.61 -9.12 0.31 C-8.03 0.04 -6.94 -0.23 -5.82 -0.51 C-3 -1 -3 -1 0 0 Z " fill="#694150" transform="translate(556,287)"/>
<path d="M0 0 C5.56 2.27 10.98 4.79 16.37 7.44 C17.03 7.76 17.7 8.09 18.38 8.42 C22.41 10.44 26 12.72 29.62 15.4 C31.5 16.73 33.45 17.74 35.55 18.69 C39.07 20.29 39.07 20.29 40.18 22.5 C40.84 22.5 41.5 22.5 42.18 22.5 C43.17 24.48 43.17 24.48 44.18 26.5 C42.53 27.16 40.88 27.82 39.18 28.5 C38.85 28.17 38.52 27.84 38.18 27.5 C37.34 27.74 36.51 27.97 35.64 28.21 C32.51 29.08 29.37 29.94 26.23 30.81 C24.88 31.19 23.53 31.56 22.17 31.94 C17.84 33.13 13.51 34.32 9.18 35.5 C7.91 35.85 7.91 35.85 6.62 36.2 C1.92 37.44 -2.01 37.68 -6.82 37.5 C-6.82 36.84 -6.82 36.18 -6.82 35.5 C-7.38 35.26 -7.93 35.01 -8.51 34.75 C-10.82 33.5 -10.82 33.5 -13.01 31.5 C-16.74 28.85 -20.36 28.24 -24.82 27.5 C-24.82 26.18 -24.82 24.86 -24.82 23.5 C-22.44 21.64 -22.44 21.64 -19.26 19.75 C-11.19 14.62 -5.94 9.95 -3.82 0.5 C-1.82 -0.5 -1.82 -0.5 0 0 Z " fill="#694251" transform="translate(741.8203125,298.49609375)"/>
<path d="M0 0 C6.37 1.79 12.61 2.39 19.09 0.85 C24.52 -0.04 30.39 1.92 34.89 4.97 C36.53 6.39 38.09 7.9 39.62 9.43 C39.29 10.42 38.96 11.41 38.62 12.43 C39.61 12.93 39.61 12.93 40.62 13.43 C39.79 13.53 38.97 13.63 38.11 13.73 C29.48 14.85 21.22 16.6 12.82 18.84 C10.8 19.38 8.77 19.9 6.75 20.42 C1.25 21.86 -4.22 23.32 -9.6 25.18 C-13.15 26.36 -15.68 26.72 -19.38 26.43 C-19.44 25.88 -19.5 25.32 -19.57 24.75 C-20.72 21.47 -22.88 19.81 -25.38 17.43 C-27.81 15.07 -29.26 13.55 -29.62 10.12 C-29.63 7.88 -29.55 5.67 -29.38 3.43 C-28.72 3.43 -28.06 3.43 -27.38 3.43 C-27.05 2.44 -26.72 1.45 -26.38 0.43 C-17.53 -4.65 -9.36 -2.73 0 0 Z " fill="#EA6171" transform="translate(695.37841796875,324.5654296875)"/>
<path d="M0 0 C4.29 0.48 6.33 2.76 9 6 C11.66 12.6 12.05 19.48 9.81 26.25 C5.73 35.71 -5.34 42.12 -14.5 45.88 C-15.48 46.24 -16.46 46.61 -17.47 46.99 C-20.18 47.97 -20.18 47.97 -23 50 C-31.51 52.64 -38.46 53.85 -47 51 C-47.33 50.34 -47.66 49.68 -48 49 C-48.99 48.67 -49.98 48.34 -51 48 C-51 47.01 -51 46.02 -51 45 C-50.41 44.83 -49.82 44.66 -49.22 44.48 C-32.29 39.52 -14.35 33.99 -2.5 20.06 C-0.64 16.26 -0.43 13.19 0 9 C0.66 8.67 1.32 8.34 2 8 C1.48 7.61 0.97 7.22 0.44 6.81 C-0.04 6.21 -0.51 5.62 -1 5 C-0.69 2.31 -0.69 2.31 0 0 Z " fill="#933052" transform="translate(811,245)"/>
<path d="M0 0 C1.01 -0.04 2.02 -0.07 3.05 -0.11 C9.97 -0.19 15.46 0.81 20.88 5.38 C22.12 7.55 22.12 7.55 22.88 9.38 C19.97 12.28 16.37 12.81 12.5 13.88 C10.97 14.3 9.44 14.73 7.91 15.16 C7.24 15.34 6.56 15.53 5.86 15.72 C3.81 16.34 3.81 16.34 1.78 17.46 C-0.93 18.76 -2.31 18.33 -5.12 17.38 C-7.48 15.67 -7.48 15.67 -9.88 13.56 C-14.35 9.82 -18.67 7.38 -24.12 5.38 C-24.12 4.71 -24.12 4.06 -24.12 3.38 C-20.43 2.14 -17.92 2.73 -14.12 3.38 C-14.12 2.71 -14.12 2.06 -14.12 1.38 C-9.49 -0.17 -4.86 0.07 0 0 Z " fill="#6A4050" transform="translate(657.125,263.625)"/>
<path d="M0 0 C3.98 2.09 6.55 4.54 9.14 8.27 C8.48 9.59 7.82 10.91 7.14 12.27 C1.3 12.64 -2.91 11.46 -8.3 9.27 C-9.03 8.99 -9.76 8.7 -10.51 8.41 C-12.3 7.71 -14.08 6.99 -15.86 6.27 C-15.52 4.38 -15.52 4.38 -14.86 2.27 C-10.15 -0.86 -5.44 -2.13 0 0 Z " fill="#6B3F4F" transform="translate(667.859375,339.7265625)"/>
<path d="M0 0 C0.99 0.33 1.98 0.66 3 1 C-0.42 11.49 -4.23 21.72 -8.63 31.84 C-9.8 34.54 -10.92 37.26 -12 40 C-12.66 40 -13.32 40 -14 40 C-15.28 36.15 -14.44 35.09 -12.81 31.44 C-12.11 29.84 -12.11 29.84 -11.4 28.21 C-10.94 27.15 -10.48 26.09 -10 25 C-9.28 23.21 -8.57 21.42 -7.88 19.62 C-6.82 16.97 -5.74 14.48 -4.44 11.94 C-2.55 8.08 -1.28 4.09 0 0 Z " fill="#A75470" transform="translate(795,360)"/>
<path d="M0 0 C0.66 0 1.32 0 2 0 C2 0.99 2 1.98 2 3 C2.99 3.33 3.98 3.66 5 4 C3.96 6.43 3.06 7.94 1.08 9.73 C-1.45 12.49 -2.34 14.98 -3.56 18.5 C-4.97 22.51 -6.24 25.74 -9 29 C-9.45 23.68 -8.53 20.4 -6.22 15.62 C-3.85 10.54 -1.98 5.24 0 0 Z " fill="#B64975" transform="translate(809,325)"/>
<path d="M0 0 C-0.99 0.66 -1.98 1.32 -3 2 C-2.81 6.17 -2.38 7.64 0.72 10.55 C1.82 11.35 2.94 12.12 4.06 12.88 C4.63 13.28 5.2 13.68 5.78 14.09 C7.18 15.08 8.59 16.04 10 17 C9.34 17.33 8.68 17.66 8 18 C2.64 16.07 -3.05 12.93 -6.25 8.12 C-7.19 5.45 -7.62 2.81 -8 0 C-5.14 -1.43 -3.07 -0.6 0 0 Z " fill="#DBBABB" transform="translate(740,284)"/>
<path d="M0 0 C0.66 1.32 1.32 2.64 2 4 C-0.56 4.05 -3.12 4.09 -5.69 4.12 C-6.41 4.14 -7.13 4.16 -7.87 4.18 C-12.05 4.21 -15.25 3.88 -19 2 C-19 1.67 -19 1.34 -19 1 C-12.66 -0.15 -6.43 -0.1 0 0 Z " fill="#D4B8B5" transform="translate(654,400)"/>
<path d="M0 0 C2.44 -0.03 4.87 -0.05 7.31 -0.06 C8 -0.07 8.69 -0.08 9.4 -0.09 C12.55 -0.1 14.99 -0 18 1 C20.06 1.22 22.12 1.41 24.19 1.56 C25.27 1.65 26.36 1.73 27.48 1.82 C28.73 1.91 28.73 1.91 30 2 C29.67 2.66 29.34 3.32 29 4 C27.08 4.03 25.17 4.05 23.25 4.06 C21.65 4.08 21.65 4.08 20.02 4.1 C17.41 4.01 15.49 3.65 13 3 C10.75 2.78 8.5 2.6 6.25 2.44 C5.08 2.35 3.91 2.27 2.7 2.18 C1.81 2.12 0.92 2.06 0 2 C0 1.34 0 0.68 0 0 Z " fill="#DBB9BB" transform="translate(588,396)"/>
<path d="M0 0 C0.33 0.66 0.66 1.32 1 2 C-0.01 4.44 -1.08 6.76 -2.25 9.12 C-4.77 14.35 -7.1 19.52 -9 25 C-9.66 25 -10.32 25 -11 25 C-12.3 21.11 -11.39 19.85 -9.81 16.12 C-9.39 15.1 -8.96 14.07 -8.52 13.01 C-6.98 9.96 -5.2 7.61 -3 5 C-1.97 3.35 -0.96 1.69 0 0 Z " fill="#AE5072" transform="translate(792,375)"/>
<path d="M0 0 C11.52 -0.18 11.52 -0.18 17 1 C15 3 15 3 11.3 3.2 C9.83 3.18 8.35 3.16 6.88 3.12 C6.12 3.12 5.37 3.11 4.59 3.1 C2.73 3.07 0.86 3.04 -1 3 C-0.67 2.01 -0.34 1.02 0 0 Z " fill="#AE617A" transform="translate(751,412)"/>
<path d="M0 0 C1.31 3.94 0.31 5.3 -1.31 9.06 C-1.99 10.66 -1.99 10.66 -2.68 12.29 C-4 15 -4 15 -6 17 C-6.52 10.9 -5.11 6.29 -2 1 C-1.34 0.67 -0.68 0.34 0 0 Z " fill="#AB4B6E" transform="translate(806,337)"/>
<path d="M0 0 C1.96 0.31 3.92 0.62 5.88 0.94 C6.97 1.11 8.06 1.29 9.18 1.46 C12 2 12 2 14 3 C14 3.66 14 4.32 14 5 C10.04 5 6.08 5 2 5 C2 4.34 2 3.68 2 3 C1.01 2.67 0.02 2.34 -1 2 C-0.67 1.34 -0.34 0.68 0 0 Z " fill="#AA5D75" transform="translate(656,402)"/>
<path d="M0 0 C4.88 2.62 4.88 2.62 6 6 C2.69 6.69 2.69 6.69 -1 7 C-2.94 5.56 -2.94 5.56 -4 4 C-2.68 2.68 -1.36 1.36 0 0 Z " fill="#D9BDBA" transform="translate(471,380)"/>
<path d="M0 0 C2.25 2.69 3.88 4.65 5 8 C-2.26 8 -9.52 8 -17 8 C-17 7.67 -17 7.34 -17 7 C-11.06 7 -5.12 7 1 7 C0.34 5.02 -0.32 3.04 -1 1 C-0.67 0.67 -0.34 0.34 0 0 Z " fill="#DEC1BF" transform="translate(663,256)"/>
<path d="M0 0 C1.37 0.29 1.37 0.29 2.76 0.59 C3.46 0.75 4.16 0.9 4.88 1.06 C4.88 2.05 4.88 3.04 4.88 4.06 C3.25 4.09 1.63 4.11 0 4.12 C-1.36 4.14 -1.36 4.14 -2.74 4.16 C-5.12 4.06 -5.12 4.06 -7.12 3.06 C-7.12 2.07 -7.12 1.08 -7.12 0.06 C-4.4 -1.3 -2.94 -0.64 0 0 Z " fill="#A35A70" transform="translate(714.125,407.9375)"/>
<path d="M0 0 C0.75 0.05 1.49 0.1 2.26 0.16 C4.09 0.29 5.92 0.42 7.75 0.56 C7.75 0.89 7.75 1.22 7.75 1.56 C-6.92 4.11 -6.92 4.11 -12.25 0.56 C-8.1 -0.64 -4.26 -0.33 0 0 Z " fill="#D7ACB3" transform="translate(605.25,253.4375)"/>
<path d="M0 0 C1.6 -0.03 3.21 -0.05 4.81 -0.06 C5.71 -0.07 6.6 -0.09 7.52 -0.1 C10 0 10 0 13 1 C13 1.66 13 2.32 13 3 C8.38 3 3.76 3 -1 3 C-0.67 2.01 -0.34 1.02 0 0 Z " fill="#A56175" transform="translate(617,399)"/>
<path d="M0 0 C3.1 -0.03 6.21 -0.05 9.31 -0.06 C10.19 -0.07 11.07 -0.08 11.98 -0.09 C12.83 -0.09 13.68 -0.09 14.55 -0.1 C15.72 -0.11 15.72 -0.11 16.92 -0.11 C19 0 19 0 22 1 C22 1.66 22 2.32 22 3 C14.65 2.47 7.32 1.87 0 1 C0 0.67 0 0.34 0 0 Z " fill="#62484F" transform="translate(483,395)"/>
<path d="M0 0 C0 0.33 0 0.66 0 1 C2.48 1.5 2.48 1.5 5 2 C5 2.33 5 2.66 5 3 C-3.05 3.15 -10.98 2.71 -19 2 C-19 1.67 -19 1.34 -19 1 C-12.64 0.35 -6.4 -0.12 0 0 Z " fill="#FB9952" transform="translate(640,342)"/>
<path d="M0 0 C0.6 0.21 1.2 0.41 1.81 0.62 C1.15 2.27 0.49 3.93 -0.19 5.62 C0.47 5.95 1.13 6.29 1.81 6.62 C-0.5 6.3 -2.81 5.96 -5.19 5.62 C-5.19 4.31 -5.19 2.99 -5.19 1.62 C-2.19 -0.38 -2.19 -0.38 0 0 Z " fill="#8D2C4E" transform="translate(722.1875,320.375)"/>
<path d="M0 0 C0.33 0.66 0.66 1.32 1 2 C-3.92 2.17 -7.5 2.25 -12 0 C-12 -0.33 -12 -0.66 -12 -1 C-7.34 -1.91 -4.23 -2.37 0 0 Z " fill="#D0A1AB" transform="translate(647,402)"/>
<path d="M0 0 C2.92 -0.08 5.83 -0.14 8.75 -0.19 C9.58 -0.21 10.4 -0.24 11.25 -0.26 C17.42 -0.34 17.42 -0.34 20.58 1.51 C21.28 2.25 21.28 2.25 22 3 C21.01 2.84 20.02 2.67 19 2.5 C15.01 1.93 11.09 1.9 7.06 1.94 C6.04 1.94 6.04 1.94 4.99 1.95 C3.33 1.96 1.66 1.98 0 2 C0 1.34 0 0.68 0 0 Z " fill="#DDB8B9" transform="translate(553,249)"/>
<path d="M0 0 C4.95 0.33 9.9 0.66 15 1 C14.67 1.66 14.34 2.32 14 3 C12.04 3.03 10.08 3.05 8.12 3.06 C7.03 3.07 5.94 3.09 4.82 3.1 C2 3 2 3 0 2 C0 1.34 0 0.68 0 0 Z " fill="#DDBDBD" transform="translate(603,397)"/>
<path d="M0 0 C2 1 2 1 2 1 Z M-1 1 C-0.01 1.5 -0.01 1.5 1 2 C1 2.66 1 3.32 1 4 C0.34 4 -0.32 4 -1 4 C-1 3.01 -1 2.02 -1 1 Z M-2 4 C-1.34 4.66 -0.68 5.32 0 6 C-0.66 6 -1.32 6 -2 6 C-2 5.34 -2 4.68 -2 4 Z M-3 6 C-2.34 6.33 -1.68 6.66 -1 7 C-1.33 8.32 -1.66 9.64 -2 11 C-2.66 11 -3.32 11 -4 11 C-3.67 9.35 -3.34 7.7 -3 6 Z M-5 11 C-4.01 11.5 -4.01 11.5 -3 12 C-3 12.66 -3 13.32 -3 14 C-3.66 14 -4.32 14 -5 14 C-5 13.01 -5 12.02 -5 11 Z M-6 14 C-5.34 14.33 -4.68 14.66 -4 15 C-4.33 15.66 -4.66 16.32 -5 17 C-5.66 16.34 -6.32 15.68 -7 15 C-6.67 14.67 -6.34 14.34 -6 14 Z " fill="#FBA353" transform="translate(500,325)"/>
<path d="M0 0 C1.98 0 3.96 0 6 0 C6 1.32 6 2.64 6 4 C4.19 4.69 4.19 4.69 2 5 C0.25 3.56 0.25 3.56 -1 2 C-0.67 1.34 -0.34 0.68 0 0 Z " fill="#9A7677" transform="translate(512,388)"/>
<path d="M0 0 C-0.99 0.66 -1.98 1.32 -3 2 C-3.25 5.08 -3.25 5.08 -3 8 C-5.5 6.25 -5.5 6.25 -8 4 C-8 2.68 -8 1.36 -8 0 C-5.14 -1.43 -3.07 -0.6 0 0 Z " fill="#E4D0C8" transform="translate(740,284)"/>
<path d="M0 0 C3.42 1.21 5.01 3.02 7 6 C6.67 6.66 6.34 7.32 6 8 C5.13 7.32 5.13 7.32 4.25 6.62 C2.22 5.16 0.26 4.05 -2 3 C-2 2.34 -2 1.68 -2 1 C-1.34 0.67 -0.68 0.34 0 0 Z " fill="#9D817A" transform="translate(516,295)"/>
<path d="M0 0 C2.31 0.19 2.31 0.19 5 1 C6.81 3.56 6.81 3.56 8 6 C7.34 6.66 6.68 7.32 6 8 C3.88 7.62 3.88 7.62 2 7 C2.33 6.01 2.66 5.02 3 4 C1.63 1.81 1.63 1.81 0 0 Z " fill="#902B4E" transform="translate(672,267)"/>
<path d="M0 0 C2.97 0 5.94 0 9 0 C9 0.99 9 1.98 9 3 C6.03 3 3.06 3 0 3 C0 2.01 0 1.02 0 0 Z " fill="#A85E75" transform="translate(579,396)"/>
<path d="" fill="#FAFAFA" transform="translate(0,0)"/>
<path d="M0 0 C2 1 2 1 2 1 Z " fill="#FAFAFA" transform="translate(625,241)"/>
<path d="M0 0 C2 1 2 1 2 1 Z " fill="#FAFAFA" transform="translate(575,235)"/>
<path d="M0 0 C2 1 2 1 2 1 Z " fill="#FAFAFA" transform="translate(774,222)"/>
<path d="" fill="#D4A5B0" transform="translate(0,0)"/>
<path d="" fill="#FAFAFA" transform="translate(0,0)"/>
<path d="" fill="#FAFAFA" transform="translate(0,0)"/>
<path d="" fill="#FAFAFA" transform="translate(0,0)"/>
<path d="" fill="#FAFAFA" transform="translate(0,0)"/>
<path d="" fill="#E5D2C9" transform="translate(0,0)"/>
<path d="" fill="#FAFAFA" transform="translate(0,0)"/>
<path d="" fill="#FAFAFA" transform="translate(0,0)"/>
<path d="" fill="#D4A5B0" transform="translate(0,0)"/>
<path d="" fill="#FAFAFA" transform="translate(0,0)"/>
</svg>
