<?xml version="1.0" standalone="no"?>
<!DOCTYPE svg PUBLIC "-//W3C//DTD SVG 20010904//EN"
 "http://www.w3.org/TR/2001/REC-SVG-20010904/DTD/svg10.dtd">
<svg version="1.0" xmlns="http://www.w3.org/2000/svg"
 width="1280.000000pt" height="1280.000000pt" viewBox="0 0 1280.000000 1280.000000"
 preserveAspectRatio="xMidYMid meet">
<metadata>
Created by potrace 1.15, written by Peter Selinger 2001-2017
</metadata>
<g transform="translate(0.000000,1280.000000) scale(0.100000,-0.100000)"
fill="#000000" stroke="none">
<path d="M0 11645 l0 -1155 1155 0 1155 0 0 1155 0 1155 -1155 0 -1155 0 0
-1155z m1820 0 l0 -665 -665 0 -665 0 0 665 0 665 665 0 665 0 0 -665z"/>
<path d="M2738 11433 l-3 -1368 -1367 -3 -1368 -2 0 -5030 0 -5030 245 0 245
0 0 2735 0 2735 440 0 440 0 0 -1595 0 -1595 930 0 930 0 -2 243 -3 242 -682
3 -683 2 0 1350 0 1350 683 2 682 3 0 1610 0 1610 -927 3 -928 2 0 -930 0
-930 245 0 245 0 0 685 0 685 438 -2 437 -3 3 -1122 2 -1123 -1125 0 -1125 0
0 1805 0 1805 1368 2 1367 3 3 1368 2 1367 1805 0 1805 0 0 -440 0 -440 -1370
0 -1370 0 3 -927 2 -928 1610 0 1610 0 3 683 2 682 1350 0 1350 0 2 -682 3
-683 243 -3 242 -2 0 930 0 930 -1595 0 -1595 0 0 440 0 440 2735 0 2735 0 0
245 0 245 -5030 0 -5030 0 -2 -1367z m4102 -933 l0 -440 -1122 2 -1123 3 -3
438 -2 437 1125 0 1125 0 0 -440z"/>
<path d="M4106 8691 c-3 -5 -5 -526 -3 -1157 l2 -1149 1155 0 1155 0 0 1155 0
1155 -1152 2 c-667 2 -1154 -1 -1157 -6z m1824 -1151 l0 -670 -670 0 -670 0 0
670 0 670 670 0 670 0 0 -670z"/>
</g>
</svg>
