<?xml version="1.0" standalone="no"?>
<!DOCTYPE svg PUBLIC "-//W3C//DTD SVG 20010904//EN"
 "http://www.w3.org/TR/2001/REC-SVG-20010904/DTD/svg10.dtd">
<svg version="1.0" xmlns="http://www.w3.org/2000/svg"
 width="1280.000000pt" height="1139.000000pt" viewBox="0 0 1280.000000 1139.000000"
 preserveAspectRatio="xMidYMid meet">
<metadata>
Created by potrace 1.15, written by Peter Selinger 2001-2017
</metadata>
<g transform="translate(0.000000,1139.000000) scale(0.100000,-0.100000)"
fill="#000000" stroke="none">
<path d="M2781 11373 c-38 -20 -71 -73 -71 -114 0 -38 39 -91 84 -113 32 -16
44 -17 75 -8 78 24 118 102 88 174 -28 67 -111 96 -176 61z"/>
<path d="M3071 11104 c-47 -60 -7 -144 69 -144 33 0 80 53 80 90 0 73 -104
111 -149 54z"/>
<path d="M3390 11069 c-120 -50 -136 -212 -29 -292 66 -48 179 -24 229 49 30
45 33 124 6 169 -38 66 -140 102 -206 74z"/>
<path d="M3875 10804 c-44 -23 -66 -45 -81 -81 -45 -106 21 -220 133 -230 93
-9 170 56 180 150 13 117 -129 215 -232 161z"/>
<path d="M3448 10634 c-35 -19 -60 -67 -60 -115 1 -71 54 -119 133 -119 35 0
48 6 80 39 34 34 39 44 39 86 0 42 -5 52 -39 86 -33 34 -45 39 -82 39 -24 -1
-56 -7 -71 -16z"/>
<path d="M2335 10511 c-99 -32 -115 -160 -25 -206 39 -20 68 -19 106 4 63 38
70 128 13 175 -17 14 -34 26 -39 26 -5 0 -14 2 -22 4 -7 2 -22 1 -33 -3z"/>
<path d="M4405 10499 c-16 -4 -47 -22 -68 -40 -104 -86 -113 -241 -19 -332
114 -111 290 -83 365 58 42 79 21 201 -45 262 -57 53 -155 75 -233 52z"/>
<path d="M3973 10405 c-67 -29 -92 -118 -53 -183 21 -34 72 -62 112 -62 31 0
83 33 104 65 9 14 17 43 17 65 0 47 -22 84 -66 110 -37 23 -70 25 -114 5z"/>
<path d="M4987 10220 c-188 -47 -282 -253 -191 -420 33 -62 70 -95 143 -128
45 -21 64 -24 125 -20 249 16 361 293 195 482 -59 68 -184 107 -272 86z"/>
<path d="M4497 9966 c-68 -25 -99 -69 -99 -144 0 -105 114 -172 210 -123 45
23 82 80 82 126 0 36 -23 86 -51 111 -21 19 -38 27 -89 39 -8 2 -32 -2 -53 -9z"/>
<path d="M4098 9935 c-100 -56 -22 -204 80 -151 33 17 42 34 42 80 0 60 -70
100 -122 71z"/>
<path d="M5595 9856 c-112 -35 -195 -107 -247 -214 -31 -62 -33 -74 -33 -167
0 -93 2 -105 33 -167 109 -221 377 -296 579 -161 64 42 104 89 141 163 24 50
27 66 27 165 0 99 -3 115 -27 165 -53 108 -138 181 -249 214 -62 19 -168 20
-224 2z"/>
<path d="M3380 9811 c-16 -16 -32 -40 -36 -55 -16 -66 38 -136 104 -136 110 0
151 144 58 201 -46 28 -92 25 -126 -10z"/>
<path d="M4662 9577 c-22 -23 -29 -68 -16 -102 8 -19 55 -45 84 -45 33 0 80
53 80 90 0 71 -99 109 -148 57z"/>
<path d="M4980 9528 c-67 -36 -103 -94 -108 -172 -6 -90 31 -157 108 -196 57
-29 95 -33 152 -16 126 36 189 185 126 298 -54 98 -182 137 -278 86z"/>
<path d="M6352 9329 c-86 -43 -118 -157 -69 -244 66 -117 248 -112 306 8 76
158 -80 313 -237 236z"/>
<path d="M3601 9195 c-16 -14 -35 -41 -41 -60 -25 -77 58 -160 135 -135 48 16
75 53 75 104 0 48 -19 80 -60 101 -42 22 -74 19 -109 -10z"/>
<path d="M4084 9036 c-43 -19 -64 -53 -64 -103 0 -58 39 -102 97 -110 39 -5
46 -2 78 30 29 29 35 42 35 79 0 52 -21 85 -66 104 -40 17 -41 17 -80 0z"/>
<path d="M5489 9021 c-17 -13 -23 -29 -23 -56 0 -68 77 -100 122 -52 29 31 28
72 -3 102 -29 30 -64 32 -96 6z"/>
<path d="M4615 9023 c-95 -24 -133 -146 -71 -228 100 -131 299 0 226 149 -29
62 -94 94 -155 79z"/>
<path d="M5053 8999 c-58 -22 -122 -81 -149 -137 -26 -54 -31 -162 -9 -219 40
-105 144 -177 255 -177 169 1 291 132 278 298 -6 74 -26 117 -81 174 -75 77
-189 101 -294 61z"/>
<path d="M5875 8993 c-76 -27 -139 -68 -179 -115 -187 -219 -100 -544 172
-639 45 -16 75 -20 142 -17 177 8 310 112 362 281 56 184 -34 384 -210 468
-85 41 -208 50 -287 22z"/>
<path d="M4315 8880 c-28 -31 -24 -79 9 -107 33 -28 56 -29 90 -2 33 26 36 79
6 109 -26 26 -81 26 -105 0z"/>
<path d="M6634 8890 c-46 -10 -87 -38 -114 -78 -20 -28 -25 -48 -25 -97 0 -52
4 -67 29 -99 79 -104 233 -96 295 15 23 41 28 126 10 162 -38 74 -119 114
-195 97z"/>
<path d="M3771 8734 c-57 -47 -50 -137 13 -175 61 -37 129 -15 156 50 29 71
-24 151 -100 151 -27 0 -48 -8 -69 -26z"/>
<path d="M4610 8630 c-44 -44 -13 -130 48 -130 40 0 72 33 72 74 0 64 -76 100
-120 56z"/>
<path d="M4320 8613 c-39 -35 -51 -99 -26 -138 41 -63 118 -76 168 -28 101 97
-38 259 -142 166z"/>
<path d="M6660 8469 c-78 -13 -191 -69 -251 -126 -113 -105 -169 -231 -169
-382 0 -146 41 -248 141 -356 198 -211 529 -216 735 -10 293 291 145 784 -261
870 -78 16 -114 17 -195 4z"/>
<path d="M4714 8449 c-18 -5 -46 -25 -63 -44 -77 -88 -10 -235 106 -235 71 0
133 67 133 145 0 91 -89 158 -176 134z"/>
<path d="M4981 8344 c-12 -15 -21 -38 -21 -51 0 -32 42 -73 75 -73 33 0 75 42
75 75 0 14 -11 37 -25 50 -33 34 -77 33 -104 -1z"/>
<path d="M4401 8327 c-78 -39 -24 -166 58 -135 66 24 68 102 4 136 -27 15 -32
15 -62 -1z"/>
<path d="M5305 8323 c-68 -25 -107 -54 -144 -109 -108 -163 -18 -382 175 -425
167 -37 334 101 334 277 0 180 -195 318 -365 257z"/>
<path d="M4850 8003 c-38 -49 -4 -123 57 -123 33 0 73 42 73 78 0 66 -89 97
-130 45z"/>
<path d="M3554 7980 c-67 -27 -95 -121 -52 -175 72 -92 208 -47 208 68 0 81
-82 137 -156 107z"/>
<path d="M5948 7869 c-105 -55 -101 -222 6 -273 102 -48 213 13 224 124 12
124 -119 208 -230 149z"/>
<path d="M5619 7717 c-65 -43 -62 -137 5 -178 38 -23 58 -24 96 -4 32 17 60
61 60 95 0 37 -30 81 -65 96 -46 19 -56 18 -96 -9z"/>
<path d="M5280 7723 c-59 -22 -79 -92 -37 -131 52 -49 137 -13 137 56 0 30
-28 72 -49 72 -5 0 -15 2 -23 4 -7 3 -20 2 -28 -1z"/>
<path d="M4191 7602 c-51 -26 -74 -63 -75 -121 -2 -118 126 -187 218 -117 84
64 67 202 -30 242 -44 18 -72 18 -113 -4z"/>
<path d="M7168 7501 c-75 -25 -116 -51 -172 -111 -157 -168 -137 -436 44 -579
73 -58 147 -82 246 -82 176 1 317 101 376 269 31 87 23 208 -20 295 -42 84
-129 167 -209 197 -80 31 -191 36 -265 11z"/>
<path d="M6034 7482 c-141 -49 -220 -196 -180 -335 43 -149 195 -235 339 -193
74 21 133 69 171 136 27 48 31 65 31 130 0 65 -4 82 -31 130 -37 66 -97 114
-166 135 -66 19 -101 19 -164 -3z"/>
<path d="M4800 7433 c-48 -25 -84 -97 -74 -148 26 -139 214 -162 263 -32 46
121 -77 238 -189 180z"/>
<path d="M5569 7361 c-24 -24 -29 -38 -29 -76 0 -38 5 -52 29 -76 65 -65 171
-20 171 73 -1 96 -105 144 -171 79z"/>
<path d="M5125 7335 c-40 -39 -32 -96 17 -121 52 -27 108 -1 123 57 5 19 0 34
-20 57 -34 41 -84 44 -120 7z"/>
<path d="M6570 7341 c-131 -69 -87 -271 63 -288 86 -10 158 52 164 141 10 127
-115 207 -227 147z"/>
<path d="M4332 7214 c-43 -30 -18 -104 36 -104 19 0 62 42 62 62 0 14 -47 58
-62 58 -8 0 -24 -7 -36 -16z"/>
<path d="M5320 7174 c-46 -20 -77 -50 -102 -98 -29 -57 -22 -149 15 -203 86
-124 274 -115 344 17 21 38 24 56 21 112 -3 56 -8 73 -34 105 -59 74 -162 103
-244 67z"/>
<path d="M3637 7090 c-68 -54 -25 -160 64 -160 32 0 79 53 79 90 0 42 -47 90
-88 90 -16 0 -41 -9 -55 -20z"/>
<path d="M4650 7008 c-50 -26 -90 -89 -90 -143 1 -45 34 -109 71 -135 49 -36
133 -39 178 -8 66 45 95 109 80 177 -24 107 -140 160 -239 109z"/>
<path d="M6548 6946 c-137 -38 -218 -155 -205 -296 17 -195 234 -308 408 -213
162 88 190 317 54 442 -74 68 -167 93 -257 67z"/>
<path d="M4986 6828 c-41 -37 -43 -72 -8 -108 32 -32 60 -37 95 -18 61 32 64
103 6 133 -39 21 -64 19 -93 -7z"/>
<path d="M3093 6810 c-113 -69 -62 -240 72 -240 52 0 92 27 117 78 18 38 19
49 9 82 -17 56 -71 100 -124 100 -24 0 -56 -8 -74 -20z"/>
<path d="M7828 6816 c-127 -34 -207 -165 -180 -293 42 -200 283 -272 427 -128
134 134 74 366 -109 420 -59 18 -76 18 -138 1z"/>
<path d="M5842 6783 c-65 -23 -147 -103 -171 -169 -55 -144 6 -306 141 -375
29 -15 67 -24 119 -27 66 -4 84 -1 130 20 78 36 114 71 150 143 29 60 31 71
27 142 -3 52 -12 92 -26 119 -28 56 -112 129 -169 148 -57 20 -144 19 -201 -1z"/>
<path d="M5213 6620 c-87 -52 -95 -161 -17 -230 28 -24 44 -30 82 -30 65 0
105 27 127 84 20 53 15 101 -16 140 -44 56 -118 72 -176 36z"/>
<path d="M7123 6576 c-108 -35 -214 -133 -254 -234 -18 -45 -23 -76 -23 -147
1 -118 26 -184 101 -265 75 -82 157 -122 262 -128 214 -12 385 123 422 336 29
161 -64 336 -219 413 -58 29 -78 33 -157 36 -57 2 -106 -2 -132 -11z"/>
<path d="M3649 6481 c-32 -33 -36 -58 -15 -100 43 -81 166 -45 166 49 0 33
-53 80 -90 80 -22 0 -41 -9 -61 -29z"/>
<path d="M4370 6362 c-19 -9 -45 -33 -58 -52 -20 -29 -23 -44 -19 -89 3 -48 9
-59 45 -93 36 -33 47 -38 90 -38 153 0 207 192 76 267 -47 27 -87 29 -134 5z"/>
<path d="M5497 6242 c-32 -35 -10 -102 34 -102 28 0 59 31 59 59 0 53 -60 80
-93 43z"/>
<path d="M6514 6241 c-74 -45 -99 -119 -66 -194 70 -158 298 -107 295 66 -2
113 -133 186 -229 128z"/>
<path d="M8027 6200 c-73 -13 -167 -62 -220 -116 -190 -193 -135 -510 111
-631 72 -36 81 -38 172 -38 91 0 100 2 172 38 121 60 195 157 219 291 39 212
-113 420 -332 456 -35 5 -66 9 -69 9 -3 -1 -27 -5 -53 -9z"/>
<path d="M11272 6144 c-44 -31 -15 -114 41 -114 29 0 67 39 67 68 0 29 -34 62
-63 62 -12 0 -33 -7 -45 -16z"/>
<path d="M11537 6145 c-101 -35 -142 -134 -98 -231 39 -86 147 -120 231 -73
131 74 108 268 -38 309 -46 12 -48 12 -95 -5z"/>
<path d="M5000 6133 c-103 -38 -75 -183 35 -183 38 0 85 50 85 90 0 42 -15 67
-50 85 -30 16 -45 17 -70 8z"/>
<path d="M6034 6066 c-115 -53 -164 -183 -113 -296 27 -60 54 -88 114 -116
154 -73 325 35 325 206 0 71 -26 126 -80 173 -73 62 -159 74 -246 33z"/>
<path d="M11972 6074 c-24 -17 -30 -62 -10 -82 29 -29 98 -1 98 39 0 42 -53
68 -88 43z"/>
<path d="M10844 6070 c-71 -29 -70 -131 2 -165 93 -44 172 83 93 149 -31 27
-58 31 -95 16z"/>
<path d="M12206 6058 c-13 -19 -14 -25 -2 -43 18 -26 40 -30 60 -10 20 21 20
39 0 59 -21 22 -40 20 -58 -6z"/>
<path d="M5720 6050 c-25 -25 -26 -62 -2 -83 54 -49 127 19 81 76 -24 32 -52
34 -79 7z"/>
<path d="M5373 6038 c-30 -15 -46 -58 -34 -91 12 -30 39 -47 75 -47 63 0 90
89 40 129 -29 23 -48 25 -81 9z"/>
<path d="M11813 6023 c-19 -7 -16 -51 4 -62 25 -13 53 4 53 33 0 29 -25 42
-57 29z"/>
<path d="M11147 5997 c-42 -14 -94 -59 -108 -94 -16 -43 -10 -113 13 -155 63
-111 221 -111 290 0 80 129 -49 294 -195 249z"/>
<path d="M12509 5989 c-29 -29 -23 -79 14 -99 24 -13 30 -13 55 0 37 21 44 81
10 104 -30 22 -54 20 -79 -5z"/>
<path d="M12320 5980 c-44 -44 -13 -130 48 -130 60 0 95 56 68 109 -24 46 -81
56 -116 21z"/>
<path d="M12120 5973 c-60 -22 -81 -100 -37 -141 51 -48 137 -12 137 57 0 53
-55 100 -100 84z"/>
<path d="M12662 5927 c-32 -34 -30 -89 4 -116 55 -43 134 -8 134 59 0 69 -91
107 -138 57z"/>
<path d="M11900 5910 c-58 -58 20 -142 88 -94 45 31 14 114 -43 114 -14 0 -34
-9 -45 -20z"/>
<path d="M10574 5902 c-191 -68 -245 -299 -103 -441 125 -126 344 -89 423 71
32 65 35 161 7 223 -58 127 -201 192 -327 147z"/>
<path d="M5188 5844 c-57 -30 -65 -98 -19 -145 58 -57 151 -23 151 56 0 47
-14 71 -50 90 -36 18 -47 18 -82 -1z"/>
<path d="M5550 5840 c-69 -36 -120 -117 -120 -188 0 -80 69 -177 145 -202 86
-28 190 7 241 82 98 145 1 329 -173 328 -37 -1 -71 -8 -93 -20z"/>
<path d="M6653 5832 c-95 -34 -144 -77 -194 -172 -20 -38 -24 -60 -24 -135 0
-75 4 -98 25 -140 30 -62 94 -125 157 -156 64 -31 184 -33 258 -5 66 26 147
103 176 169 33 73 33 191 0 264 -28 63 -103 136 -169 165 -66 29 -163 34 -229
10z"/>
<path d="M4849 5811 c-86 -87 37 -211 128 -128 30 27 38 69 19 106 -31 60 -99
70 -147 22z"/>
<path d="M12469 5811 c-64 -65 -20 -171 71 -171 33 0 48 6 71 29 64 65 20 171
-71 171 -33 0 -48 -6 -71 -29z"/>
<path d="M11781 5806 c-19 -22 -4 -56 23 -56 32 0 53 26 39 48 -14 23 -47 27
-62 8z"/>
<path d="M12255 5780 c-28 -31 -24 -79 9 -107 15 -12 36 -23 46 -23 34 0 73
43 73 80 0 62 -87 96 -128 50z"/>
<path d="M11623 5772 c-19 -12 -31 -55 -22 -80 20 -53 98 -51 119 4 10 26 -1
61 -24 76 -14 10 -58 10 -73 0z"/>
<path d="M11406 5754 c-39 -38 -27 -98 21 -110 40 -10 77 15 81 53 6 58 -63
96 -102 57z"/>
<path d="M11952 5748 c-43 -21 -42 -96 3 -116 30 -14 69 -2 84 27 15 28 14 46
-6 69 -23 26 -52 33 -81 20z"/>
<path d="M12116 5744 c-19 -18 -21 -45 -4 -62 39 -39 100 17 63 58 -22 24 -38
25 -59 4z"/>
<path d="M10145 5729 c-66 -19 -109 -96 -94 -167 14 -67 95 -121 162 -108 137
28 156 218 27 270 -45 18 -52 18 -95 5z"/>
<path d="M11785 5665 c-29 -28 -31 -42 -9 -73 29 -42 104 -18 104 34 0 25 -10
38 -37 53 -29 15 -30 15 -58 -14z"/>
<path d="M7455 5660 c-76 -31 -109 -142 -63 -210 27 -40 79 -70 123 -70 17 0
45 8 64 18 100 50 106 186 12 249 -35 24 -97 30 -136 13z"/>
<path d="M11277 5602 c-25 -27 -22 -78 5 -96 30 -21 50 -20 82 5 32 25 33 59
3 87 -28 27 -68 28 -90 4z"/>
<path d="M11523 5599 c-39 -25 -67 -89 -57 -133 27 -127 200 -145 248 -26 20
50 20 64 0 106 -33 69 -126 95 -191 53z"/>
<path d="M12086 5604 c-7 -19 10 -44 29 -44 19 0 36 25 29 44 -3 9 -16 16 -29
16 -13 0 -26 -7 -29 -16z"/>
<path d="M11019 5581 c-64 -64 -16 -171 76 -171 36 0 95 59 95 95 0 92 -107
140 -171 76z"/>
<path d="M12220 5590 c-11 -11 -20 -26 -20 -33 0 -24 31 -57 55 -57 50 0 73
60 37 93 -25 22 -48 21 -72 -3z"/>
<path d="M12376 5594 c-37 -37 -1 -103 49 -90 14 4 31 17 37 31 23 52 -46 100
-86 59z"/>
<path d="M11972 5563 c-41 -16 -32 -83 11 -83 29 0 47 18 47 47 0 18 -28 46
-42 42 -2 0 -9 -3 -16 -6z"/>
<path d="M8680 5550 c-48 -12 -106 -75 -115 -128 -5 -30 -2 -52 14 -86 34 -78
116 -112 197 -81 70 26 101 84 96 177 -2 35 -63 104 -100 112 -15 4 -34 8 -42
10 -8 2 -31 0 -50 -4z"/>
<path d="M11816 5489 c-27 -40 13 -81 52 -53 26 18 28 37 6 58 -21 22 -40 20
-58 -5z"/>
<path d="M12079 5481 c-17 -18 -29 -40 -29 -56 0 -16 12 -38 29 -56 18 -17 40
-29 56 -29 58 0 106 87 72 131 -35 46 -88 50 -128 10z"/>
<path d="M5992 5482 c-61 -22 -114 -69 -145 -127 -29 -54 -30 -163 -2 -220 47
-97 147 -152 256 -142 138 12 240 136 226 272 -17 167 -180 272 -335 217z"/>
<path d="M9890 5463 c-57 -52 -56 -129 1 -177 72 -61 189 -6 189 89 0 96 -120
151 -190 88z"/>
<path d="M11257 5426 c-50 -18 -76 -42 -98 -91 -23 -51 -23 -89 0 -141 59
-130 239 -132 307 -2 8 15 14 48 14 73 0 74 -48 140 -119 164 -43 14 -57 13
-104 -3z"/>
<path d="M10285 5378 c-69 -63 -48 -156 41 -187 35 -12 44 -12 75 3 88 41 93
157 9 201 -47 24 -86 19 -125 -17z"/>
<path d="M11916 5389 c-52 -41 -25 -119 41 -119 69 0 91 100 28 128 -34 16
-38 15 -69 -9z"/>
<path d="M10842 5376 c-36 -19 -62 -66 -62 -112 0 -116 138 -175 219 -93 55
54 53 129 -4 186 -28 28 -40 33 -81 33 -27 -1 -59 -6 -72 -14z"/>
<path d="M11740 5360 c-11 -11 -20 -29 -20 -40 0 -11 9 -29 20 -40 11 -11 29
-20 40 -20 11 0 29 9 40 20 11 11 20 29 20 40 0 11 -9 29 -20 40 -11 11 -29
20 -40 20 -11 0 -29 -9 -40 -20z"/>
<path d="M9100 5343 c-74 -38 -102 -132 -60 -200 28 -46 65 -67 120 -67 177 0
189 259 13 280 -25 3 -50 -1 -73 -13z"/>
<path d="M8232 5330 c-95 -23 -144 -150 -89 -230 36 -53 71 -74 124 -74 97 1
158 61 158 154 0 42 -6 63 -23 88 -38 53 -106 78 -170 62z"/>
<path d="M9660 5310 c-26 -26 -34 -63 -20 -89 42 -79 150 -54 150 34 0 64 -85
100 -130 55z"/>
<path d="M7814 5290 c-57 -23 -71 -100 -28 -144 37 -37 86 -35 125 3 46 46 37
106 -21 136 -32 17 -45 18 -76 5z"/>
<path d="M11577 5289 c-39 -23 -41 -86 -3 -111 21 -14 63 -8 81 12 49 54 -15
136 -78 99z"/>
<path d="M4192 5267 c-28 -30 -29 -80 -2 -107 30 -30 83 -27 109 6 28 35 26
69 -4 99 -31 32 -74 33 -103 2z"/>
<path d="M7227 5236 c-137 -51 -215 -184 -187 -320 28 -135 138 -226 274 -226
187 0 323 177 272 353 -34 118 -132 197 -254 204 -42 2 -81 -2 -105 -11z"/>
<path d="M9403 5215 c-48 -34 -34 -114 24 -136 75 -28 139 74 80 129 -27 26
-73 29 -104 7z"/>
<path d="M9967 5199 c-22 -11 -51 -40 -68 -67 -27 -42 -30 -54 -27 -113 3 -54
9 -73 32 -103 70 -93 187 -110 279 -42 32 23 77 109 77 145 0 150 -162 249
-293 180z"/>
<path d="M10507 5185 c-146 -54 -216 -234 -145 -371 51 -98 139 -149 247 -142
151 9 254 116 254 263 0 183 -185 312 -356 250z"/>
<path d="M3597 5160 c-36 -29 -52 -81 -37 -125 16 -49 53 -75 107 -75 38 0 50
5 79 34 28 28 34 42 34 76 0 34 -6 48 -34 76 -29 29 -41 34 -79 34 -29 0 -53
-7 -70 -20z"/>
<path d="M8685 5127 c-152 -51 -249 -157 -280 -306 -38 -178 52 -354 223 -438
51 -25 67 -28 162 -28 97 0 110 2 170 31 83 39 150 106 192 192 30 61 33 74
33 162 -1 131 -25 192 -114 281 -49 49 -81 72 -126 89 -73 28 -201 36 -260 17z"/>
<path d="M11041 5097 c-64 -23 -98 -96 -75 -163 36 -106 168 -121 231 -25 67
101 -40 230 -156 188z"/>
<path d="M9653 5068 c-12 -6 -29 -26 -38 -45 -14 -29 -15 -40 -4 -64 38 -94
169 -71 169 30 0 32 -6 44 -31 65 -32 27 -60 31 -96 14z"/>
<path d="M5183 5030 c-12 -5 -25 -21 -29 -36 -19 -74 85 -103 111 -30 8 25 6
31 -18 52 -31 26 -32 27 -64 14z"/>
<path d="M4877 5012 c-32 -35 -10 -102 34 -102 28 0 59 31 59 59 0 53 -60 80
-93 43z"/>
<path d="M6700 5019 c-86 -36 -124 -136 -82 -219 54 -108 216 -108 273 0 38
70 16 152 -52 203 -31 23 -103 31 -139 16z"/>
<path d="M9366 4980 c-121 -37 -144 -213 -35 -279 53 -33 95 -35 147 -9 66 33
87 66 87 138 0 71 -21 105 -85 138 -47 23 -67 26 -114 12z"/>
<path d="M5510 4972 c-23 -7 -40 -33 -40 -62 0 -35 17 -50 57 -50 24 0 37 7
50 26 15 23 15 29 2 52 -15 27 -45 42 -69 34z"/>
<path d="M5870 4950 c-39 -39 -14 -100 43 -100 26 0 57 31 57 58 0 18 -46 62
-65 62 -8 0 -24 -9 -35 -20z"/>
<path d="M7880 4961 c-90 -28 -171 -96 -211 -177 -34 -71 -39 -188 -9 -267 45
-119 158 -199 290 -205 138 -7 257 63 317 187 24 48 28 68 28 141 0 73 -4 93
-28 142 -35 71 -110 140 -183 167 -56 21 -154 27 -204 12z"/>
<path d="M6185 4920 c-233 -76 -297 -373 -117 -542 166 -155 443 -92 522 119
29 77 25 187 -8 255 -72 146 -244 219 -397 168z"/>
<path d="M5288 4820 c-25 -26 -29 -36 -24 -63 15 -73 96 -97 142 -43 32 37 30
71 -5 107 -39 38 -74 38 -113 -1z"/>
<path d="M5689 4815 c-14 -8 -32 -28 -39 -44 -39 -95 79 -174 151 -102 45 45
34 118 -22 147 -35 17 -57 17 -90 -1z"/>
<path d="M5062 4804 c-27 -19 -29 -64 -4 -87 54 -49 127 19 81 76 -23 31 -45
34 -77 11z"/>
<path d="M9720 4809 c-150 -60 -110 -279 50 -279 61 0 106 29 131 85 24 55 18
103 -19 147 -43 51 -106 69 -162 47z"/>
<path d="M4050 4792 c-47 -25 -83 -93 -77 -145 10 -75 69 -127 146 -127 150 0
196 205 61 272 -45 23 -86 23 -130 0z"/>
<path d="M2768 4784 c-56 -30 -64 -90 -19 -135 35 -35 77 -38 114 -9 49 39 42
116 -14 145 -35 18 -47 18 -81 -1z"/>
<path d="M10904 4771 c-81 -49 -65 -165 29 -200 84 -32 172 65 136 150 -15 38
-63 69 -104 69 -16 0 -44 -9 -61 -19z"/>
<path d="M10095 4761 c-105 -49 -145 -163 -94 -269 74 -152 315 -126 359 40
43 158 -118 297 -265 229z"/>
<path d="M3524 4702 c-65 -10 -91 -105 -40 -148 58 -50 146 -15 146 58 0 58
-49 100 -106 90z"/>
<path d="M7034 4629 c-93 -12 -141 -27 -228 -72 -136 -70 -245 -198 -304 -355
-33 -90 -42 -266 -18 -362 30 -120 80 -206 175 -301 133 -131 269 -189 451
-189 181 0 318 58 451 190 134 132 189 264 189 450 0 116 -17 189 -71 298
-113 231 -385 375 -645 341z"/>
<path d="M5200 4597 c-31 -15 -39 -66 -15 -91 24 -24 71 -20 89 6 22 31 20 45
-9 73 -28 29 -31 29 -65 12z"/>
<path d="M9419 4587 c-98 -66 -48 -217 72 -217 28 0 47 8 73 31 114 99 -20
270 -145 186z"/>
<path d="M10590 4591 c-72 -22 -148 -90 -176 -157 -20 -48 -18 -160 5 -210 41
-91 125 -146 234 -152 58 -4 75 0 122 22 214 105 197 410 -28 493 -36 13 -119
15 -157 4z"/>
<path d="M5430 4579 c-62 -25 -100 -85 -100 -157 0 -54 25 -100 73 -136 42
-31 140 -30 185 2 102 73 90 233 -21 286 -39 18 -99 20 -137 5z"/>
<path d="M5782 4514 c-12 -8 -22 -26 -22 -40 0 -29 32 -64 60 -64 26 0 60 34
60 60 0 25 -34 60 -58 60 -10 0 -28 -7 -40 -16z"/>
<path d="M9709 4405 c-64 -20 -131 -83 -159 -146 -17 -42 -21 -66 -18 -118 5
-77 25 -125 75 -174 48 -49 97 -70 171 -75 77 -5 138 16 194 66 103 93 116
257 29 363 -66 79 -193 116 -292 84z"/>
<path d="M4651 4394 c-46 -19 -67 -71 -47 -118 39 -93 176 -66 176 34 0 69
-64 111 -129 84z"/>
<path d="M9185 4385 c-40 -39 -37 -88 7 -128 25 -24 36 -28 62 -23 76 16 107
106 51 153 -36 31 -88 31 -120 -2z"/>
<path d="M10163 4300 c-40 -24 -53 -48 -53 -100 0 -34 6 -48 34 -76 28 -28 41
-34 78 -34 24 0 54 7 66 16 26 18 52 65 52 94 0 39 -31 88 -65 104 -44 21 -73
20 -112 -4z"/>
<path d="M8352 4259 c-111 -56 -136 -202 -51 -294 48 -51 93 -69 160 -63 130
13 207 153 149 273 -45 93 -164 132 -258 84z"/>
<path d="M5869 4245 c-52 -29 -61 -103 -19 -145 45 -45 120 -32 147 26 39 81
-49 164 -128 119z"/>
<path d="M8854 4237 c-35 -31 -37 -77 -4 -112 48 -51 130 -16 130 55 0 70 -72
103 -126 57z"/>
<path d="M5620 4220 c-11 -11 -20 -29 -20 -40 0 -25 34 -60 58 -60 29 0 62 29
62 56 0 29 -32 64 -60 64 -11 0 -29 -9 -40 -20z"/>
<path d="M7975 4181 c-48 -12 -82 -39 -105 -85 -25 -52 -25 -79 0 -133 33 -75
117 -108 195 -78 76 29 114 102 94 180 -13 47 -60 101 -98 110 -14 3 -33 7
-41 9 -8 2 -29 1 -45 -3z"/>
<path d="M9333 4153 c-13 -2 -36 -18 -52 -34 -96 -96 11 -252 133 -194 94 45
87 180 -10 221 -19 8 -37 13 -41 13 -4 -1 -18 -4 -30 -6z"/>
<path d="M6169 4082 c-19 -9 -40 -30 -47 -45 -44 -92 86 -174 152 -96 51 60
26 127 -55 152 -9 3 -32 -2 -50 -11z"/>
<path d="M10352 4070 c-33 -31 -38 -67 -15 -98 16 -22 28 -27 63 -27 35 0 47
5 63 27 52 69 -47 157 -111 98z"/>
<path d="M8857 4019 c-188 -44 -294 -243 -226 -424 30 -80 103 -154 184 -184
120 -45 256 -12 344 85 133 145 104 374 -60 479 -73 47 -162 63 -242 44z"/>
<path d="M10584 3990 c-38 -15 -64 -59 -64 -107 0 -38 5 -50 34 -79 28 -28 41
-34 78 -34 50 0 82 18 103 60 51 99 -47 202 -151 160z"/>
<path d="M5916 3958 c-9 -12 -16 -30 -16 -40 0 -24 35 -58 60 -58 26 0 60 34
60 60 0 28 -35 60 -64 60 -14 0 -32 -10 -40 -22z"/>
<path d="M10063 3916 c-104 -34 -185 -106 -232 -205 -22 -48 -26 -69 -26 -151
0 -82 4 -103 27 -152 68 -147 239 -237 393 -209 185 34 306 179 306 366 0 143
-83 272 -213 330 -75 34 -188 43 -255 21z"/>
<path d="M9454 3847 c-91 -36 -139 -110 -132 -208 5 -74 43 -132 108 -167 37
-19 56 -23 107 -20 105 6 179 77 190 182 17 145 -137 265 -273 213z"/>
<path d="M6294 3825 c-20 -31 -15 -53 17 -77 23 -17 30 -18 50 -8 30 16 39 29
39 56 0 52 -77 73 -106 29z"/>
<path d="M8073 3775 c-155 -35 -271 -141 -324 -297 -17 -51 -20 -80 -17 -154
3 -81 8 -100 40 -165 67 -135 185 -224 331 -249 135 -24 282 26 380 129 30 31
64 75 75 96 86 171 62 368 -61 502 -112 121 -271 173 -424 138z"/>
<path d="M5206 3705 c-50 -17 -72 -39 -91 -90 -22 -57 -8 -112 40 -154 61 -54
143 -51 199 7 103 108 -8 285 -148 237z"/>
<path d="M2910 3653 c-70 -23 -105 -72 -97 -139 18 -166 257 -154 257 13 0 83
-86 151 -160 126z"/>
<path d="M3945 3600 c-30 -12 -64 -53 -74 -88 -10 -34 0 -85 22 -112 60 -76
187 -61 223 25 18 44 18 69 -2 111 -28 60 -107 90 -169 64z"/>
<path d="M6227 3556 c-245 -91 -259 -420 -23 -527 57 -26 167 -25 226 2 58 26
105 72 138 134 22 41 27 63 26 125 0 64 -4 83 -29 128 -50 93 -130 143 -235
149 -40 2 -79 -2 -103 -11z"/>
<path d="M9593 3370 c-42 -25 -63 -68 -63 -129 0 -121 142 -182 235 -100 104
92 43 249 -97 249 -25 0 -56 -8 -75 -20z"/>
<path d="M6985 3235 c-16 -15 -25 -36 -25 -55 0 -39 39 -80 75 -80 30 0 85 49
85 75 0 21 -19 57 -39 72 -26 20 -70 15 -96 -12z"/>
<path d="M7352 3224 c-203 -101 -162 -405 61 -455 177 -39 336 131 287 306
-16 56 -81 132 -135 156 -61 28 -149 25 -213 -7z"/>
<path d="M8970 3243 c-55 -9 -158 -46 -209 -76 -73 -41 -188 -152 -230 -221
-217 -361 -46 -823 353 -952 103 -34 255 -38 355 -10 290 80 481 327 481 621
0 299 -196 551 -486 625 -72 19 -195 25 -264 13z"/>
<path d="M5779 3203 c-107 -66 -54 -227 71 -214 79 9 128 101 90 170 -28 53
-110 76 -161 44z"/>
<path d="M9986 3111 c-43 -29 -66 -70 -66 -121 0 -113 104 -179 206 -130 78
38 106 135 59 207 -40 60 -140 83 -199 44z"/>
<path d="M6647 3020 c-378 -120 -412 -638 -53 -815 219 -109 477 -15 589 214
30 63 32 72 32 181 0 109 -2 119 -32 182 -36 77 -107 158 -171 195 -106 63
-251 80 -365 43z"/>
<path d="M5430 2995 c-99 -32 -170 -126 -170 -226 0 -76 14 -119 55 -166 46
-54 113 -85 185 -85 219 0 327 260 174 416 -60 61 -165 87 -244 61z"/>
<path d="M5975 2921 c-128 -59 -163 -214 -73 -317 37 -42 72 -61 125 -70 84
-13 177 39 214 121 75 164 -103 342 -266 266z"/>
<path d="M7916 2784 c-77 -28 -146 -93 -185 -174 -35 -74 -37 -200 -4 -272 30
-66 96 -133 162 -165 48 -24 68 -28 141 -28 71 0 94 4 142 27 66 31 128 91
160 156 19 40 23 63 23 147 0 92 -2 104 -30 154 -61 111 -167 172 -298 170
-40 0 -90 -7 -111 -15z"/>
<path d="M9865 2735 c-60 -59 -4 -151 74 -124 35 12 51 35 51 74 0 33 -42 75
-75 75 -14 0 -37 -11 -50 -25z"/>
<path d="M4435 2692 c-154 -74 -169 -288 -27 -382 147 -97 342 11 342 189 0
56 -47 140 -98 176 -56 38 -155 46 -217 17z"/>
<path d="M7380 2678 c-57 -30 -83 -76 -77 -139 13 -156 221 -191 281 -48 32
79 -2 163 -81 195 -45 19 -72 17 -123 -8z"/>
<path d="M4860 2630 c-12 -12 -20 -33 -20 -55 0 -22 8 -43 20 -55 12 -12 33
-20 55 -20 45 0 75 29 75 73 0 66 -84 103 -130 57z"/>
<path d="M5071 2448 c-123 -66 -157 -224 -69 -324 44 -50 96 -74 163 -74 210
0 290 270 114 387 -59 39 -147 44 -208 11z"/>
<path d="M5721 2460 c-39 -9 -76 -35 -105 -74 -16 -21 -21 -42 -21 -90 0 -54
4 -68 29 -100 91 -120 278 -71 302 80 17 110 -93 209 -205 184z"/>
<path d="M2151 2429 c-148 -59 -166 -262 -29 -339 74 -42 170 -28 224 32 70
76 73 180 6 252 -52 55 -140 80 -201 55z"/>
<path d="M3289 2411 c-17 -13 -23 -29 -23 -56 0 -46 31 -75 79 -75 38 0 75 37
75 75 0 12 -9 34 -21 49 -25 32 -75 35 -110 7z"/>
<path d="M2782 2396 c-216 -71 -286 -341 -131 -510 65 -72 129 -100 229 -100
95 -1 168 32 234 105 60 66 80 129 74 228 -7 120 -67 210 -173 260 -62 30
-170 37 -233 17z"/>
<path d="M6124 2386 c-38 -17 -71 -57 -85 -105 -23 -77 30 -168 112 -192 79
-24 180 35 194 114 25 132 -100 235 -221 183z"/>
<path d="M373 2354 c-18 -9 -41 -33 -53 -58 -31 -57 -22 -108 27 -153 28 -27
42 -33 79 -33 64 0 102 23 125 76 16 36 18 50 10 82 -23 84 -111 124 -188 86z"/>
<path d="M3595 2354 c-67 -35 -97 -83 -97 -156 0 -88 78 -167 167 -168 50 0
117 40 143 85 30 53 27 136 -8 184 -43 62 -142 88 -205 55z"/>
<path d="M4059 2321 c-61 -62 -14 -161 77 -161 41 0 84 51 84 98 0 86 -99 125
-161 63z"/>
<path d="M4762 2310 c-22 -21 -28 -61 -16 -95 18 -45 111 -48 134 -5 42 79
-54 159 -118 100z"/>
<path d="M7451 2303 c-55 -29 -76 -65 -76 -131 0 -43 6 -65 23 -89 29 -41 98
-68 149 -58 49 9 109 69 118 118 10 51 -17 120 -57 148 -42 30 -113 35 -157
12z"/>
<path d="M1336 2264 c-47 -48 -32 -124 30 -150 29 -12 39 -12 68 0 93 39 66
176 -34 176 -27 0 -45 -7 -64 -26z"/>
<path d="M4327 2210 c-38 -30 -38 -90 -1 -119 35 -28 69 -26 99 4 69 68 -22
174 -98 115z"/>
<path d="M1775 2125 c-30 -29 -31 -49 -5 -75 25 -25 62 -26 83 -2 23 25 21 58
-3 82 -26 26 -46 25 -75 -5z"/>
<path d="M3286 2119 c-20 -16 -26 -29 -26 -58 0 -44 21 -68 67 -77 71 -14 114
90 57 135 -15 12 -37 21 -49 21 -12 0 -34 -9 -49 -21z"/>
<path d="M4564 2121 c-58 -26 -87 -72 -92 -141 -5 -68 12 -107 65 -147 31 -24
46 -28 98 -28 52 0 67 4 99 29 44 33 66 79 66 137 0 121 -126 202 -236 150z"/>
<path d="M7020 2114 c-88 -38 -144 -126 -144 -224 0 -138 102 -240 239 -240
137 0 239 102 239 240 0 100 -57 187 -146 224 -47 20 -142 20 -188 0z"/>
<path d="M8305 2108 c-43 -16 -103 -61 -131 -100 -27 -36 -54 -116 -54 -159 0
-105 91 -224 195 -254 74 -22 144 -14 212 25 89 51 133 128 133 232 -1 104
-55 194 -145 240 -47 25 -164 34 -210 16z"/>
<path d="M6486 2095 c-76 -27 -136 -110 -136 -190 0 -107 99 -205 208 -205 60
0 138 44 168 96 52 88 41 180 -30 250 -60 60 -131 77 -210 49z"/>
<path d="M3968 2070 c-82 -25 -144 -84 -174 -167 -17 -49 -17 -89 0 -147 66
-217 366 -237 462 -31 64 136 -8 298 -150 340 -54 16 -96 18 -138 5z"/>
<path d="M5911 2063 c-99 -52 -105 -178 -12 -240 63 -43 148 -21 191 49 68
112 -63 252 -179 191z"/>
<path d="M5435 2027 c-18 -15 -28 -36 -32 -64 -5 -37 -2 -45 25 -73 40 -39 88
-41 131 -4 26 21 31 33 31 69 0 36 -5 48 -31 69 -39 33 -88 34 -124 3z"/>
<path d="M7701 2008 c-85 -42 -125 -152 -87 -241 29 -71 129 -126 199 -111 74
15 141 77 153 139 30 162 -122 284 -265 213z"/>
<path d="M2432 1967 c-6 -6 -13 -24 -17 -39 -14 -55 63 -90 105 -48 24 24 25
48 4 78 -17 25 -74 31 -92 9z"/>
<path d="M1302 1963 c-21 -8 -33 -50 -22 -78 21 -55 110 -35 110 25 0 43 -45
70 -88 53z"/>
<path d="M1562 1944 c-42 -29 -18 -104 34 -104 26 0 50 20 59 47 4 17 -1 29
-19 48 -29 29 -43 31 -74 9z"/>
<path d="M3513 1940 c-48 -20 -69 -91 -43 -140 15 -28 73 -52 105 -44 35 9 75
60 75 95 0 60 -81 113 -137 89z"/>
<path d="M1858 1864 c-57 -30 -65 -98 -19 -145 32 -31 64 -36 106 -17 27 12
55 54 55 82 0 29 -24 68 -51 82 -35 18 -57 17 -91 -2z"/>
<path d="M8809 1870 c-9 -5 -22 -23 -29 -39 -25 -61 40 -126 101 -101 35 15
49 37 49 78 0 54 -71 91 -121 62z"/>
<path d="M2392 1769 c-82 -24 -143 -132 -123 -219 39 -176 278 -199 352 -35
35 75 14 164 -50 218 -51 42 -113 55 -179 36z"/>
<path d="M3210 1758 c-30 -15 -53 -37 -67 -63 -78 -139 65 -302 208 -237 52
23 72 44 94 97 23 54 13 116 -28 162 -58 65 -130 80 -207 41z"/>
<path d="M1283 1726 c-22 -19 -28 -32 -28 -66 0 -55 37 -90 95 -90 30 0 43 6
64 31 15 17 26 43 26 59 0 16 -11 42 -26 59 -33 40 -89 43 -131 7z"/>
<path d="M2860 1680 c-44 -44 -31 -109 27 -131 33 -12 57 -4 83 28 27 34 25
69 -5 98 -30 31 -77 33 -105 5z"/>
<path d="M2014 1656 c-60 -51 -21 -146 58 -146 52 0 88 35 88 85 0 76 -87 112
-146 61z"/>
<path d="M1680 1610 c-25 -25 -26 -62 -2 -83 25 -23 58 -21 82 3 26 26 25 46
-5 75 -29 30 -49 31 -75 5z"/>
<path d="M403 1545 c-86 -37 -98 -177 -20 -228 64 -41 140 -24 185 43 45 66
14 152 -65 186 -40 17 -59 17 -100 -1z"/>
<path d="M2707 1482 c-37 -41 -11 -102 43 -102 36 0 60 23 60 59 0 54 -68 82
-103 43z"/>
<path d="M1805 1466 c-44 -19 -94 -80 -101 -124 -3 -20 -6 -39 -7 -42 -4 -27
18 -95 39 -120 58 -69 150 -88 232 -49 103 50 133 191 60 284 -45 58 -151 82
-223 51z"/>
<path d="M2252 1354 c-31 -22 -30 -78 2 -99 64 -42 130 41 76 95 -24 24 -48
25 -78 4z"/>
<path d="M1054 1100 c-30 -12 -54 -49 -54 -83 0 -40 49 -87 90 -87 37 0 90 47
90 79 0 37 -19 70 -49 86 -33 17 -46 18 -77 5z"/>
<path d="M63 731 c-116 -73 -61 -241 78 -241 35 0 48 6 80 39 35 35 39 44 39
90 0 44 -5 56 -33 87 -28 31 -41 37 -83 41 -37 3 -57 -1 -81 -16z"/>
<path d="M1417 496 c-74 -27 -107 -76 -107 -157 0 -152 172 -219 281 -110 83
83 55 212 -56 262 -47 22 -67 23 -118 5z"/>
<path d="M444 316 c-58 -26 -101 -107 -91 -172 15 -88 97 -151 184 -141 84 9
143 76 143 162 0 121 -123 200 -236 151z"/>
</g>
</svg>
