<?xml version="1.0" standalone="no"?>
<!DOCTYPE svg PUBLIC "-//W3C//DTD SVG 20010904//EN"
 "http://www.w3.org/TR/2001/REC-SVG-20010904/DTD/svg10.dtd">
<svg version="1.0" xmlns="http://www.w3.org/2000/svg"
 width="1280.000000pt" height="1217.000000pt" viewBox="0 0 1280.000000 1217.000000"
 preserveAspectRatio="xMidYMid meet">
<metadata>
Created by potrace 1.15, written by Peter Selinger 2001-2017
</metadata>
<g transform="translate(0.000000,1217.000000) scale(0.100000,-0.100000)"
fill="#000000" stroke="none">
<path d="M6352 11997 c-87 -304 -179 -500 -293 -622 l-61 -65 41 -61 c51 -76
79 -165 93 -297 11 -100 9 -154 -19 -596 -5 -80 -4 -98 7 -94 26 8 49 74 69
198 12 69 37 175 57 236 41 125 132 309 154 309 17 0 89 -131 130 -238 37 -98
64 -203 85 -332 16 -101 40 -165 65 -173 10 -4 12 13 7 84 -30 478 -30 503
-19 605 14 133 42 222 93 298 l41 61 -64 69 c-114 123 -200 306 -286 607 -26
90 -49 164 -52 164 -3 0 -25 -69 -48 -153z"/>
<path d="M5610 11261 c-112 -34 -195 -126 -242 -266 -19 -57 -23 -90 -22 -180
1 -159 25 -236 151 -483 57 -111 103 -208 103 -214 0 -7 -18 5 -40 27 -35 35
-45 39 -89 39 -121 0 -205 -134 -145 -231 20 -32 31 -29 44 15 23 71 34 80 80
72 49 -9 83 -38 121 -106 42 -73 70 -96 137 -109 l57 -11 37 -70 c41 -75 84
-199 94 -267 l6 -42 -37 63 c-75 129 -188 226 -308 264 -128 40 -276 -15 -333
-125 -16 -30 -33 -179 -34 -297 -1 -131 -35 -190 -107 -190 -39 0 -43 -2 -43
-25 0 -62 94 -113 158 -86 64 27 95 139 69 249 -8 34 -11 62 -6 62 4 0 26 -31
49 -70 35 -60 63 -90 84 -90 20 0 0 55 -34 96 -44 53 -50 70 -21 54 11 -5 41
-10 68 -10 122 0 208 155 132 236 -21 22 -86 51 -95 42 -2 -2 5 -22 16 -43 46
-90 12 -165 -75 -165 -85 0 -132 79 -105 175 25 89 120 143 230 132 155 -16
340 -184 340 -309 0 -22 1 -22 -43 -3 -55 23 -113 20 -131 -7 -24 -34 -20 -42
33 -61 99 -35 154 -140 155 -294 l1 -83 32 -6 c55 -10 64 -4 92 76 32 91 60
139 106 179 34 30 89 51 133 51 27 0 29 21 4 43 -21 19 -61 22 -111 7 -19 -5
-37 -7 -40 -5 -9 9 72 116 122 160 52 48 160 105 197 105 37 0 145 -57 197
-105 50 -44 131 -151 122 -160 -3 -2 -21 0 -40 5 -52 15 -94 12 -112 -8 -23
-26 -21 -42 6 -42 43 0 98 -21 132 -51 46 -40 74 -88 106 -179 28 -80 37 -86
92 -76 l32 6 1 83 c1 156 55 259 155 294 53 19 57 27 33 61 -18 27 -76 30
-131 7 -44 -19 -43 -19 -43 3 0 47 36 117 87 173 97 104 244 158 351 130 121
-33 181 -182 108 -267 -17 -20 -34 -28 -73 -31 -45 -5 -55 -2 -77 20 -32 32
-35 86 -6 142 11 21 18 41 16 43 -9 9 -74 -20 -95 -42 -74 -79 10 -236 126
-236 23 0 53 4 67 10 35 13 33 3 -14 -54 -34 -41 -54 -96 -34 -96 21 0 49 30
84 90 23 39 45 70 49 70 5 0 2 -28 -6 -62 -36 -154 26 -272 135 -255 44 7 92
55 92 92 0 23 -4 25 -43 25 -46 0 -62 11 -88 60 -8 15 -18 98 -25 211 -13 204
-18 220 -81 281 -70 68 -180 91 -280 60 -120 -38 -233 -135 -308 -264 l-37
-63 6 42 c10 68 53 192 94 267 l37 70 57 11 c67 13 95 36 137 109 38 68 72 97
120 106 46 8 57 -2 80 -72 15 -44 25 -47 47 -14 59 92 -29 230 -147 230 -44 0
-54 -5 -89 -39 -22 -22 -40 -34 -40 -27 0 7 44 99 98 205 54 105 108 223 120
260 110 341 -27 667 -288 684 -107 7 -185 -46 -197 -135 -13 -95 34 -172 105
-172 45 0 82 10 82 21 0 4 -21 17 -47 29 -67 30 -93 57 -93 98 0 38 41 87 82
97 39 10 106 -13 144 -48 69 -63 65 -134 -17 -339 -25 -64 -43 -126 -46 -165
-5 -59 -4 -63 24 -92 19 -18 45 -32 69 -36 74 -12 84 -15 84 -30 0 -23 -77
-193 -112 -248 l-32 -50 -14 41 c-49 147 -280 172 -308 33 l-7 -32 38 15 c116
49 153 -18 100 -180 -29 -89 -31 -140 -8 -188 16 -35 16 -36 -24 -123 -49
-104 -79 -194 -89 -260 -3 -26 -10 -54 -14 -62 -10 -19 -33 89 -65 309 -14 96
-28 190 -31 207 -6 37 -43 67 -45 36 -4 -71 2 -111 61 -453 10 -57 18 -106 16
-107 -1 -2 -21 23 -44 55 -23 31 -71 93 -107 137 -68 83 -105 161 -105 221 0
28 -13 53 -61 117 -34 45 -65 82 -69 82 -4 0 -35 -37 -69 -82 -48 -64 -61 -89
-61 -117 0 -59 -36 -137 -101 -216 -33 -41 -81 -102 -106 -135 -25 -33 -47
-62 -49 -64 -5 -5 -6 -12 37 228 35 195 48 311 39 337 -6 16 -8 16 -28 -4 -13
-13 -22 -35 -22 -52 0 -38 -57 -409 -72 -468 -13 -51 -22 -42 -32 31 -9 62
-47 172 -93 270 -36 77 -36 78 -20 113 23 48 21 99 -8 188 -53 162 -16 229
100 180 l38 -15 -7 32 c-14 70 -82 107 -165 88 -79 -17 -129 -66 -153 -148 -9
-30 -148 238 -148 284 0 15 10 18 84 30 24 4 50 18 69 36 28 29 29 33 24 92
-3 39 -21 101 -46 165 -82 205 -86 276 -17 339 38 35 105 58 144 48 41 -10 82
-59 82 -97 0 -41 -26 -68 -93 -98 -52 -23 -58 -35 -24 -44 109 -29 180 43 164
166 -7 54 -33 88 -87 116 -45 23 -119 28 -170 13z m777 -1557 c24 -1 58 2 75
7 25 7 36 5 51 -9 44 -39 197 -253 197 -275 0 -5 -23 12 -51 37 -75 68 -189
121 -259 121 -70 0 -184 -53 -259 -121 -28 -25 -51 -42 -51 -37 0 22 122 195
184 261 22 23 35 30 50 26 11 -4 39 -8 63 -10z"/>
<path d="M6339 10267 c-19 -12 -33 -27 -33 -32 4 -26 190 -26 188 0 -1 17 -66
55 -94 55 -15 0 -42 -10 -61 -23z"/>
<path d="M6026 10221 c-10 -11 -21 -40 -23 -65 -5 -42 -3 -48 30 -81 30 -30
42 -35 81 -35 68 0 96 30 96 103 0 52 -2 56 -33 70 -18 9 -55 19 -82 22 -43 6
-53 4 -69 -14z"/>
<path d="M6665 10229 c-49 -12 -72 -29 -75 -54 -10 -91 21 -135 96 -135 39 0
51 5 81 35 33 33 35 39 30 81 -8 78 -38 94 -132 73z"/>
<path d="M6390 9285 c0 -19 5 -35 10 -35 6 0 10 16 10 35 0 19 -4 35 -10 35
-5 0 -10 -16 -10 -35z"/>
<path d="M5402 9188 c-17 -17 -15 -79 4 -106 17 -25 60 -29 87 -9 28 20 32 78
7 105 -23 24 -78 30 -98 10z"/>
<path d="M7300 9178 c-25 -27 -21 -85 7 -105 27 -20 70 -16 87 9 19 27 21 89
4 106 -20 20 -75 14 -98 -10z"/>
<path d="M5750 9064 c-104 -45 -114 -119 -28 -201 81 -78 249 -117 327 -76 90
47 108 174 33 233 -47 37 -69 16 -36 -35 21 -32 6 -58 -46 -79 -71 -28 -140
-14 -201 41 -46 41 -48 55 -14 85 27 23 33 48 13 48 -7 -1 -29 -8 -48 -16z"/>
<path d="M6990 9067 c0 -7 11 -23 25 -35 34 -30 32 -44 -14 -85 -61 -55 -130
-69 -201 -41 -52 21 -67 47 -46 79 33 51 11 72 -36 35 -35 -27 -52 -72 -45
-122 12 -88 73 -131 182 -126 84 4 171 41 227 95 82 80 69 154 -35 198 -45 18
-57 19 -57 2z"/>
<path d="M6335 9035 c-29 -28 -31 -51 -9 -83 13 -18 25 -22 74 -22 49 0 61 4
74 22 22 32 20 55 -9 83 -18 19 -35 25 -65 25 -30 0 -47 -6 -65 -25z"/>
<path d="M5487 9030 c-30 -24 -38 -79 -13 -99 25 -21 80 -25 95 -7 16 19 25
87 13 103 -16 25 -65 26 -95 3z"/>
<path d="M7240 9043 c-8 -3 -18 -11 -22 -17 -13 -19 -9 -71 8 -95 14 -19 23
-22 51 -18 47 8 63 24 63 62 0 51 -52 86 -100 68z"/>
<path d="M6237 8899 c-29 -22 -35 -56 -17 -90 25 -45 110 -4 110 53 0 48 -53
69 -93 37z"/>
<path d="M6500 8907 c-54 -27 -23 -117 41 -117 52 0 68 74 23 109 -31 24 -31
25 -64 8z"/>
<path d="M5558 8888 c-31 -24 -23 -92 11 -103 30 -9 71 15 71 41 0 61 -42 93
-82 62z"/>
<path d="M7172 8875 c-20 -43 -15 -71 14 -84 47 -21 82 9 75 64 -6 47 -70 61
-89 20z"/>
<path d="M5093 8826 c-124 -59 -203 -196 -203 -352 0 -103 44 -190 118 -232
71 -39 69 13 -3 88 -159 165 -1 471 232 447 177 -18 266 -226 148 -344 -94
-94 -244 35 -159 137 15 17 24 34 20 37 -3 4 -31 8 -62 11 -47 4 -58 1 -78
-18 -53 -49 -38 -148 33 -220 66 -67 112 -73 224 -25 14 6 16 4 11 -10 -12
-31 -96 -74 -226 -116 -181 -58 -230 -99 -244 -202 -8 -59 22 -129 68 -157 18
-11 36 -20 41 -20 4 0 7 27 7 60 0 73 32 144 84 186 19 16 79 54 133 84 130
73 196 138 220 217 l17 59 41 -15 c44 -15 95 -9 95 12 0 7 -11 29 -25 48 -14
19 -49 76 -76 127 -90 166 -148 210 -288 219 -66 4 -83 1 -128 -21z"/>
<path d="M7507 8839 c-90 -21 -145 -76 -219 -215 -26 -49 -58 -104 -72 -123
-15 -19 -26 -41 -26 -48 0 -21 51 -27 95 -12 l41 15 17 -59 c24 -79 90 -144
220 -217 54 -30 114 -68 134 -84 50 -41 83 -117 83 -188 0 -32 3 -58 8 -58 4
0 22 9 40 20 46 28 76 98 68 157 -14 103 -63 144 -244 202 -130 42 -214 85
-226 116 -5 14 -3 16 11 10 112 -48 158 -42 224 25 71 72 86 171 33 220 -20
19 -31 22 -78 18 -31 -3 -59 -7 -62 -11 -4 -3 5 -20 20 -37 45 -54 30 -122
-34 -155 -48 -25 -88 -19 -125 18 -86 86 -60 248 50 312 126 74 292 19 360
-118 54 -112 43 -222 -30 -297 -43 -45 -65 -93 -47 -104 5 -3 29 8 54 23 65
41 108 129 108 220 0 161 -79 299 -204 357 -54 25 -127 30 -199 13z"/>
<path d="M6140 8744 c-16 -40 -12 -54 16 -65 31 -11 68 8 79 41 9 30 -12 50
-51 50 -28 0 -36 -5 -44 -26z"/>
<path d="M6570 8755 c-29 -35 27 -93 74 -76 28 11 32 25 16 65 -8 21 -16 26
-44 26 -18 0 -39 -7 -46 -15z"/>
<path d="M5798 8723 c-9 -10 -21 -42 -27 -72 -14 -67 -65 -165 -132 -254 -83
-110 -196 -183 -329 -215 -42 -10 -70 -21 -70 -29 0 -31 160 -3 258 45 32 15
86 55 123 92 54 53 76 85 117 170 44 91 92 231 92 268 0 17 -15 15 -32 -5z"/>
<path d="M5903 8583 c3 -92 12 -185 21 -221 26 -101 79 -206 136 -267 55 -57
146 -122 157 -111 4 3 -11 25 -34 49 -98 103 -174 221 -214 337 -19 56 -23 86
-23 215 l-1 150 -24 3 -24 4 6 -159z"/>
<path d="M6859 8733 c-1 -5 -2 -73 -3 -153 -2 -120 -7 -156 -25 -210 -40 -115
-115 -234 -214 -337 -23 -24 -38 -46 -34 -49 11 -11 102 54 157 111 57 61 110
166 136 267 9 36 18 129 21 221 6 155 5 157 -16 157 -11 0 -22 -3 -22 -7z"/>
<path d="M6970 8728 c0 -37 48 -177 92 -268 82 -169 196 -266 360 -305 79 -19
138 -20 138 -2 0 8 -28 19 -69 29 -140 33 -258 112 -342 230 -66 95 -106 175
-120 240 -11 51 -32 88 -51 88 -4 0 -8 -5 -8 -12z"/>
<path d="M6325 8616 c-27 -13 -81 -48 -119 -79 -38 -30 -93 -67 -122 -81 -28
-14 -54 -32 -57 -40 -10 -25 21 -46 68 -46 50 0 45 9 75 -130 25 -120 52 -173
140 -284 39 -49 75 -96 80 -105 9 -15 11 -15 20 0 5 9 41 56 80 105 88 111
115 164 140 284 30 139 25 130 75 130 47 0 78 21 68 46 -3 8 -29 26 -57 40
-29 14 -84 51 -122 81 -75 61 -155 103 -194 103 -14 0 -47 -11 -75 -24z m152
-87 c75 -52 115 -146 87 -204 -22 -46 -70 -65 -164 -65 -91 0 -138 17 -163 60
-32 54 11 157 86 208 71 49 83 49 154 1z m-153 -348 c15 -6 49 -11 76 -11 69
0 97 14 152 73 l48 52 0 -35 c-1 -59 -36 -119 -116 -197 -41 -40 -80 -73 -85
-73 -5 0 -43 33 -84 73 -79 78 -114 139 -115 197 l0 35 48 -52 c26 -29 60 -57
76 -62z"/>
<path d="M5821 8500 c-13 -30 -48 -104 -78 -165 -138 -276 -296 -425 -501
-471 -44 -10 -73 -22 -77 -32 -4 -11 22 -43 86 -106 150 -150 247 -315 285
-488 10 -45 17 -124 18 -205 0 -73 4 -133 8 -133 15 0 48 60 77 145 92 260
284 451 575 569 l39 16 -75 78 c-127 132 -213 266 -262 410 -34 98 -47 167
-60 312 l-11 125 -24 -55z m10 -226 c22 -160 82 -301 215 -499 l83 -125 -42
-21 c-176 -89 -315 -237 -438 -464 -41 -75 -42 -75 -58 27 -25 148 -100 322
-217 500 -35 53 -64 101 -64 107 0 5 23 22 52 36 143 72 265 202 395 423 30
51 57 91 60 89 2 -3 8 -36 14 -73z"/>
<path d="M5750 8100 c-10 -10 -31 -39 -46 -62 -14 -24 -37 -55 -51 -69 l-24
-26 25 -61 c31 -73 34 -122 9 -122 -9 0 -38 23 -65 52 l-48 52 -75 -37 c-41
-20 -75 -41 -75 -45 0 -9 45 -78 79 -121 l19 -24 48 20 c27 12 60 23 74 25 37
5 28 -27 -21 -78 l-40 -41 26 -94 c45 -158 61 -184 86 -136 6 12 34 52 60 88
27 37 49 73 49 80 0 8 -9 38 -20 67 -11 29 -20 64 -20 78 0 22 3 24 23 19 12
-4 40 -28 63 -53 l41 -46 82 49 c44 28 81 53 81 56 0 15 -48 75 -82 102 l-38
30 -53 -26 c-29 -15 -62 -27 -75 -27 -36 0 -28 40 19 85 61 60 63 66 35 135
-14 33 -28 81 -32 105 -7 50 -22 57 -54 25z"/>
<path d="M6946 8455 c-22 -320 -112 -528 -324 -747 l-75 -78 39 -16 c93 -38
146 -65 201 -102 187 -127 307 -276 374 -467 29 -85 62 -145 77 -145 4 0 7 60
8 133 1 83 7 159 18 205 39 174 135 338 285 488 64 63 90 95 86 106 -4 10 -33
22 -77 32 -103 23 -190 70 -272 147 -111 104 -184 221 -313 499 l-20 45 -7
-100z m98 -199 c71 -121 159 -237 228 -303 56 -53 148 -116 193 -133 14 -5 25
-14 25 -20 0 -6 -29 -55 -64 -108 -117 -178 -192 -352 -217 -500 -16 -102 -17
-102 -58 -27 -123 227 -262 374 -439 464 l-43 22 54 77 c160 229 219 366 252
585 3 20 8 37 10 37 2 0 29 -42 59 -94z"/>
<path d="M6996 8075 c-4 -24 -18 -72 -32 -105 -28 -69 -26 -75 35 -135 47 -45
55 -85 19 -85 -13 0 -46 12 -75 27 l-53 26 -38 -30 c-34 -27 -82 -87 -82 -102
0 -3 37 -28 81 -56 l82 -49 41 46 c23 25 51 49 64 53 19 5 22 3 22 -19 0 -14
-9 -49 -20 -78 -11 -29 -20 -59 -20 -67 0 -7 22 -43 49 -80 26 -36 54 -76 60
-88 24 -47 38 -27 76 103 14 49 28 97 31 106 3 11 -9 33 -34 60 -50 54 -58 85
-22 80 14 -2 47 -13 74 -25 l48 -20 19 24 c34 43 79 112 79 121 0 4 -34 25
-75 45 l-75 37 -48 -52 c-27 -29 -56 -52 -65 -52 -26 0 -22 58 9 125 l26 57
-25 26 c-13 15 -37 46 -51 70 -58 93 -90 105 -100 37z"/>
<path d="M1317 8129 c-20 -5 -59 -20 -87 -34 -207 -105 -221 -377 -21 -409 79
-12 140 33 148 109 7 54 -4 57 -44 12 -65 -74 -112 -85 -156 -39 -37 39 -43
80 -19 128 35 69 101 110 161 99 60 -11 101 -35 210 -124 58 -46 123 -95 145
-107 80 -46 135 -24 185 73 l27 55 60 -50 c67 -56 184 -176 184 -189 0 -4 -19
-7 -42 -5 -81 7 -168 -79 -176 -172 -4 -51 -2 -57 26 -86 42 -42 52 -38 52 20
0 108 75 117 200 23 87 -64 116 -76 173 -69 l50 5 66 -62 c90 -86 141 -124
225 -169 l71 -37 -47 -1 c-50 0 -307 39 -441 67 -72 15 -79 15 -94 0 -21 -21
-17 -25 48 -43 48 -12 119 -24 417 -66 45 -6 80 -14 77 -17 -3 -3 -40 -17 -83
-32 -42 -16 -115 -42 -162 -58 -88 -32 -175 -40 -224 -22 -19 8 -47 2 -129
-26 l-104 -36 61 -87 c51 -74 68 -91 106 -106 56 -22 133 -99 184 -184 21 -36
57 -89 78 -118 22 -30 38 -55 36 -57 -2 -2 -85 39 -183 91 -167 89 -305 154
-327 154 -5 0 -8 -10 -6 -22 2 -18 47 -44 233 -138 233 -116 275 -139 275
-151 0 -4 -17 -3 -37 2 -51 12 -252 11 -337 -1 l-68 -10 -39 35 c-22 19 -40
35 -42 36 -1 0 -59 4 -129 8 -106 5 -132 10 -155 27 -40 30 -40 59 -3 106 18
21 29 42 26 46 -12 12 -74 4 -99 -13 -79 -51 -71 -235 13 -283 16 -9 30 -20
30 -24 0 -17 -187 -48 -287 -48 -48 0 -54 2 -48 18 15 38 17 112 5 142 -25 59
-51 65 -275 62 -193 -3 -201 -2 -244 20 -54 29 -81 76 -81 140 0 83 27 120 98
134 26 5 36 1 60 -23 24 -23 31 -41 37 -92 8 -69 18 -73 47 -21 23 43 23 74 1
112 -45 76 -166 99 -237 45 -56 -43 -80 -98 -80 -187 -1 -66 3 -84 32 -142 57
-117 190 -212 352 -255 106 -28 270 -22 493 16 104 18 194 30 200 28 7 -2 -7
-14 -30 -26 -24 -11 -51 -33 -60 -48 -38 -58 -12 -171 49 -214 36 -26 98 -35
127 -19 22 11 21 12 -23 52 -50 43 -54 56 -30 98 22 37 55 54 142 75 85 20
118 43 142 101 17 38 23 43 67 52 81 18 197 25 278 17 42 -4 73 -10 69 -14 -5
-4 -38 -13 -74 -20 -159 -31 -326 -154 -365 -271 -34 -98 -15 -219 43 -283 25
-28 113 -70 223 -106 106 -35 179 -76 205 -116 15 -23 15 -31 4 -66 -15 -46
-13 -50 30 -51 42 -1 82 30 100 80 13 37 12 45 -3 76 -9 20 -33 46 -54 60 -40
27 -138 56 -186 56 -47 0 -22 16 45 30 73 14 121 36 115 53 -6 20 -47 20 -97
-2 -64 -28 -76 -26 -51 5 12 15 25 43 31 63 24 90 -58 201 -149 201 -31 0 -83
-37 -102 -73 -11 -19 -9 -20 30 -13 93 14 159 -30 148 -98 -14 -85 -81 -123
-161 -92 -95 36 -142 129 -116 227 44 167 252 313 406 285 l36 -7 -25 -27
c-53 -57 -70 -118 -41 -146 23 -23 37 -20 59 15 52 79 165 106 301 71 43 -11
87 -23 96 -27 13 -5 22 3 38 35 12 23 20 43 18 45 -2 2 -30 23 -64 48 -118 87
-174 186 -153 273 12 54 12 54 -16 54 -32 0 -53 -32 -62 -100 l-8 -54 -37 45
c-60 73 -108 185 -115 268 -6 67 -4 73 23 112 31 45 105 104 169 137 49 24
154 56 162 49 3 -3 -7 -21 -21 -40 -37 -49 -44 -97 -17 -121 12 -11 22 -17 24
-15 1 2 12 25 25 52 39 85 135 127 288 127 80 0 78 -1 88 60 l6 35 -70 22
c-151 48 -240 136 -240 239 0 44 -3 54 -20 59 -48 15 -89 -57 -76 -137 7 -43
3 -45 -40 -19 -150 91 -219 332 -138 481 46 84 123 122 205 100 62 -17 101
-58 103 -108 1 -41 -22 -84 -55 -105 -27 -17 -86 2 -125 38 -20 19 -38 35 -40
35 -2 0 -4 -21 -4 -46 0 -39 5 -51 35 -81 34 -34 38 -35 95 -31 91 7 150 59
160 145 l5 46 40 -54 c24 -32 50 -55 63 -57 12 -2 22 1 22 6 0 14 -56 95 -84
121 -41 38 -33 56 12 27 85 -57 190 -72 249 -36 66 40 66 152 1 186 -34 18
-48 8 -48 -33 0 -13 -11 -30 -26 -39 -41 -27 -123 -20 -259 21 -160 49 -206
54 -273 25 -67 -29 -133 -101 -155 -170 -45 -139 5 -311 130 -450 30 -33 49
-60 41 -60 -27 0 -164 100 -235 172 l-73 73 12 36 c16 54 3 102 -45 160 -68
83 -77 101 -77 151 0 56 15 68 84 68 25 0 47 4 50 8 7 12 -43 59 -78 72 -35
13 -77 5 -126 -22 -76 -41 -101 -126 -59 -194 42 -68 -5 -32 -150 115 -206
209 -311 281 -469 322 -79 20 -189 24 -255 8z m1318 -1210 c-46 -31 -98 -78
-131 -117 l-54 -66 0 -71 c0 -75 27 -202 55 -255 29 -57 9 -42 -52 37 -103
133 -156 222 -143 238 17 21 50 116 50 146 0 22 8 30 53 50 62 27 254 88 280
89 10 0 -16 -23 -58 -51z"/>
<path d="M11224 8121 c-157 -43 -262 -115 -466 -322 -144 -147 -190 -183 -149
-115 42 68 17 153 -59 194 -49 27 -91 35 -126 22 -35 -13 -85 -60 -78 -72 3
-4 25 -8 50 -8 69 0 84 -12 84 -68 0 -50 -9 -68 -77 -151 -47 -58 -61 -106
-45 -159 11 -35 11 -36 -60 -108 -69 -72 -208 -174 -236 -174 -8 0 12 28 43
62 121 135 172 312 128 448 -22 69 -88 141 -155 170 -67 29 -113 24 -273 -25
-136 -41 -218 -48 -259 -21 -15 9 -26 26 -26 39 0 42 -14 51 -48 33 -66 -34
-65 -146 2 -187 58 -35 163 -20 249 37 44 29 52 11 11 -27 -28 -26 -84 -107
-84 -121 0 -5 10 -8 22 -6 13 2 39 25 63 57 l40 54 5 -46 c10 -86 69 -138 160
-145 57 -4 61 -3 95 31 30 30 35 42 35 81 0 25 -2 46 -4 46 -2 0 -20 -16 -40
-35 -39 -36 -98 -55 -125 -38 -33 21 -56 64 -55 105 3 101 154 149 251 80 16
-11 42 -44 57 -72 81 -149 12 -390 -138 -481 -43 -26 -47 -24 -40 19 13 80
-28 152 -76 137 -17 -5 -20 -15 -20 -59 0 -103 -89 -191 -241 -239 l-70 -22 7
-40 c3 -22 8 -43 11 -47 2 -5 37 -8 78 -8 152 0 248 -42 287 -127 13 -27 24
-50 25 -52 2 -2 12 4 24 15 27 24 20 72 -17 121 -14 19 -24 37 -21 40 8 7 113
-25 162 -49 64 -33 138 -92 169 -137 27 -39 29 -45 23 -114 -7 -82 -60 -202
-120 -271 l-34 -40 -6 53 c-8 66 -29 101 -62 101 -28 0 -28 0 -16 -54 21 -87
-35 -186 -153 -273 -34 -25 -62 -46 -64 -48 -2 -2 6 -22 18 -45 16 -32 25 -40
38 -35 9 4 53 16 96 27 136 35 249 8 301 -71 22 -35 36 -38 59 -15 29 28 12
89 -41 146 l-25 27 36 7 c87 16 203 -26 287 -103 132 -123 165 -262 83 -353
-92 -102 -222 -83 -241 36 -11 68 55 112 148 98 39 -7 41 -6 30 13 -19 36 -71
73 -102 73 -92 0 -178 -118 -149 -205 6 -19 20 -45 31 -59 25 -31 13 -33 -51
-5 -50 22 -91 22 -97 2 -6 -17 42 -39 115 -53 67 -14 92 -30 45 -30 -48 0
-146 -29 -186 -56 -21 -14 -45 -40 -54 -60 -15 -31 -16 -39 -3 -76 18 -50 58
-81 100 -80 43 1 45 5 30 51 -11 35 -11 43 4 66 26 40 99 81 205 116 110 36
198 78 223 106 58 64 76 183 43 283 -38 116 -206 240 -365 271 -36 7 -69 16
-74 20 -4 4 27 10 69 14 81 8 197 1 278 -17 44 -9 50 -14 67 -52 24 -58 57
-81 142 -101 87 -21 120 -38 142 -75 24 -42 20 -55 -30 -98 -44 -40 -45 -41
-23 -52 29 -16 91 -7 127 19 61 43 87 156 49 214 -9 15 -36 37 -60 48 -23 12
-37 24 -30 26 7 3 95 -10 195 -28 219 -38 392 -44 498 -16 163 43 295 138 352
255 29 58 33 76 32 142 0 89 -24 144 -80 187 -71 54 -192 31 -236 -45 -23 -38
-23 -69 0 -112 29 -52 39 -48 47 21 6 51 13 69 37 92 24 24 34 28 60 23 71
-14 98 -51 98 -134 0 -64 -27 -111 -81 -140 -43 -22 -51 -23 -244 -20 -224 3
-250 -3 -275 -62 -12 -30 -10 -104 5 -142 6 -16 0 -18 -48 -18 -100 0 -287 31
-287 48 0 4 14 15 30 24 84 48 92 232 13 283 -25 17 -87 25 -99 13 -3 -4 8
-25 26 -46 37 -47 37 -76 -3 -106 -23 -17 -49 -22 -155 -27 -70 -4 -128 -8
-129 -8 -2 -1 -20 -17 -42 -36 l-39 -35 -68 10 c-85 12 -286 13 -336 1 -21 -5
-38 -6 -38 -2 0 12 42 35 275 151 186 94 231 120 233 138 2 12 -1 22 -6 22
-22 0 -160 -65 -327 -154 -98 -52 -181 -93 -183 -91 -2 2 14 27 36 57 21 29
56 81 77 116 58 95 109 148 173 178 31 16 60 33 64 39 4 7 31 46 61 87 l54 75
-104 36 c-82 28 -110 34 -129 26 -49 -18 -136 -10 -224 22 -47 16 -120 42
-162 58 -43 15 -80 29 -83 32 -3 3 32 11 77 17 298 42 369 54 417 66 65 18 69
22 48 43 -15 15 -22 15 -94 0 -134 -28 -391 -67 -441 -67 l-47 1 71 37 c84 45
135 83 225 169 l66 62 50 -5 c57 -7 86 5 173 69 53 40 108 66 143 67 33 0 57
-36 57 -90 0 -58 10 -62 52 -20 28 29 30 35 26 86 -8 93 -95 179 -175 172 -24
-2 -43 1 -43 5 0 13 117 133 184 189 l60 50 27 -55 c50 -97 105 -119 185 -73
22 12 87 61 145 107 109 89 150 113 210 124 60 11 126 -30 161 -99 24 -48 18
-89 -19 -128 -44 -46 -97 -33 -158 40 -37 45 -49 41 -42 -13 8 -76 69 -121
148 -109 87 14 144 82 143 170 -2 103 -69 194 -182 247 -86 40 -219 47 -328
18z m-1019 -1177 c50 -14 123 -39 163 -56 64 -27 72 -33 72 -57 0 -30 33 -125
50 -146 13 -16 -40 -105 -143 -238 -61 -79 -81 -94 -52 -37 27 53 55 180 55
253 0 67 -2 73 -41 123 -44 58 -97 104 -174 153 -60 38 -46 39 70 5z"/>
<path d="M4712 7931 c-34 -10 -65 -21 -69 -24 -11 -12 7 -38 38 -55 17 -9 46
-27 64 -39 32 -20 36 -21 81 -7 26 8 67 14 91 14 53 0 59 22 12 48 -18 9 -51
32 -75 50 -50 37 -56 37 -142 13z"/>
<path d="M7944 7917 c-23 -17 -55 -40 -73 -49 -47 -26 -41 -48 12 -48 24 0 65
-6 91 -14 51 -16 40 -20 149 49 51 33 47 51 -15 70 -98 29 -119 28 -164 -8z"/>
<path d="M4557 7818 c-56 -89 -58 -92 -42 -115 8 -11 17 -40 21 -64 6 -40 29
-99 38 -99 3 0 10 17 17 38 7 20 27 60 45 87 l33 50 -15 50 c-8 28 -18 61 -22
75 -13 43 -38 36 -75 -22z"/>
<path d="M8170 7851 c-5 -11 -10 -28 -10 -38 -1 -10 -7 -36 -15 -58 -14 -39
-14 -41 19 -90 18 -27 38 -67 45 -87 7 -21 14 -38 17 -38 9 0 32 58 38 98 3
24 13 54 21 66 14 21 12 27 -31 94 -47 74 -66 86 -84 53z"/>
<path d="M3757 7830 c-97 -25 -190 -99 -225 -179 -9 -22 -16 -67 -16 -116 -1
-104 17 -142 131 -265 49 -52 98 -108 110 -125 21 -29 21 -30 42 -11 16 14 21
31 21 66 l0 47 68 5 c93 7 143 34 267 143 58 52 125 103 149 114 50 25 126 27
184 7 47 -17 55 -11 45 34 -8 42 -63 96 -110 109 -120 34 -165 4 -320 -209
-52 -72 -99 -117 -134 -129 -36 -12 -37 -2 -3 30 92 85 61 230 -63 293 -65 33
-136 10 -147 -47 -12 -60 -15 -87 -9 -87 4 0 26 7 49 16 38 15 44 14 74 -1 52
-27 74 -99 46 -153 -44 -85 -220 -73 -289 20 -122 165 12 390 233 391 107 1
196 -49 227 -126 14 -35 55 -77 74 -77 16 0 9 60 -11 99 -26 52 -101 116 -158
136 -58 19 -184 28 -235 15z"/>
<path d="M8864 7830 c-95 -20 -177 -78 -215 -151 -19 -39 -26 -99 -10 -99 20
0 60 42 74 78 31 78 114 124 222 125 224 1 362 -224 238 -391 -35 -47 -97 -76
-164 -76 -65 -1 -105 17 -125 56 -28 54 -6 126 46 153 30 15 36 16 74 1 23 -9
45 -16 49 -16 6 0 3 27 -9 87 -12 59 -82 80 -152 44 -120 -61 -149 -207 -58
-290 34 -32 33 -42 -3 -30 -35 12 -82 57 -134 129 -155 213 -200 243 -320 209
-47 -13 -102 -67 -110 -109 -10 -45 -2 -51 45 -34 58 20 134 18 184 -7 24 -11
91 -62 149 -114 124 -109 174 -136 268 -143 l67 -5 0 -47 c0 -35 5 -52 21 -66
21 -19 21 -18 42 11 12 16 61 73 110 125 114 124 132 161 131 265 -1 95 -16
136 -73 198 -76 82 -224 124 -347 97z"/>
<path d="M4940 7803 c-31 -11 -70 -58 -76 -91 -14 -71 8 -106 166 -266 139
-143 180 -195 180 -231 0 -19 4 -20 -54 10 -27 14 -55 25 -63 25 -16 0 -17
-40 -2 -93 6 -22 8 -41 6 -44 -3 -2 -24 12 -47 33 -31 28 -61 77 -121 198 -89
179 -116 219 -162 242 -40 21 -99 21 -132 0 -23 -15 -65 -83 -65 -105 0 -5 29
-8 64 -8 78 2 78 2 217 -169 53 -67 119 -140 146 -163 47 -41 173 -111 199
-111 22 0 25 -18 9 -56 -17 -42 -19 -63 -5 -84 8 -12 18 -7 57 32 26 26 69 56
96 68 26 12 47 24 47 28 0 21 -29 32 -82 32 l-58 0 0 58 c0 120 -31 194 -178
426 -90 142 -97 167 -62 236 l20 40 -42 -1 c-24 0 -50 -3 -58 -6z"/>
<path d="M7779 7772 c35 -69 29 -96 -49 -218 -154 -241 -180 -299 -188 -421
l-5 -83 -56 0 c-52 0 -81 -11 -81 -32 0 -4 21 -16 48 -28 26 -12 69 -42 95
-68 39 -39 49 -44 57 -32 14 21 12 42 -5 84 -16 38 -13 56 9 56 26 0 152 70
199 111 27 23 93 96 146 163 139 171 139 171 217 169 35 0 64 3 64 8 0 22 -42
90 -65 105 -33 21 -92 21 -132 0 -47 -24 -75 -66 -163 -243 -59 -120 -89 -169
-120 -197 -23 -21 -44 -35 -47 -33 -2 3 0 22 6 44 15 53 14 93 -2 93 -8 0 -36
-11 -63 -25 -58 -30 -54 -29 -54 -10 0 36 41 88 180 231 115 116 151 159 160
191 28 93 -20 163 -116 171 l-56 5 21 -41z"/>
<path d="M6390 7630 c0 -5 5 -10 10 -10 6 0 10 5 10 10 0 6 -4 10 -10 10 -5 0
-10 -4 -10 -10z"/>
<path d="M890 7610 c-46 -26 -177 -65 -270 -82 -50 -9 -164 -13 -342 -13 -147
0 -266 0 -265 -1 1 -1 60 -41 132 -89 253 -170 424 -327 495 -453 59 -105 48
-98 117 -79 94 27 220 22 356 -12 93 -24 323 -109 585 -218 28 -12 32 -11 32
3 0 28 -59 73 -171 130 -60 30 -148 83 -196 117 -85 60 -263 227 -263 246 0
12 16 17 124 36 113 19 334 19 451 0 114 -19 196 -19 220 -1 23 16 44 9 -245
82 -408 102 -564 173 -664 304 -21 28 -43 50 -50 50 -6 -1 -27 -10 -46 -20z"/>
<path d="M11814 7580 c-100 -131 -256 -202 -664 -304 -289 -73 -268 -66 -245
-82 24 -18 106 -18 220 1 117 19 338 19 451 0 108 -19 124 -24 124 -36 0 -19
-178 -186 -263 -246 -48 -34 -136 -87 -196 -117 -112 -57 -171 -102 -171 -130
0 -14 4 -15 33 -3 261 109 491 194 584 218 133 33 267 39 349 14 27 -8 55 -15
61 -15 7 0 25 24 39 53 76 148 238 302 519 492 72 48 131 88 132 89 1 1 -118
1 -265 1 -277 0 -349 7 -487 47 -38 11 -91 31 -117 44 -26 13 -52 24 -57 24
-5 0 -26 -22 -47 -50z"/>
<path d="M3132 7537 c-41 -49 -8 -117 58 -117 41 0 54 11 64 52 5 21 0 31 -25
52 -33 28 -80 34 -97 13z"/>
<path d="M9571 7524 c-25 -21 -30 -31 -25 -52 10 -41 23 -52 64 -52 66 0 99
68 58 117 -17 21 -64 15 -97 -13z"/>
<path d="M4910 7464 c0 -14 3 -14 15 -4 8 7 15 14 15 16 0 2 -7 4 -15 4 -8 0
-15 -7 -15 -16z"/>
<path d="M5180 7475 c0 -21 35 -67 64 -85 83 -51 165 -176 201 -305 10 -37 19
-118 22 -212 l6 -153 -54 16 c-272 81 -452 218 -508 387 -25 73 -66 122 -77
92 -19 -50 66 -211 165 -311 113 -114 271 -197 399 -210 75 -8 105 13 122 88
15 62 8 197 -15 289 -37 145 -157 325 -259 388 -31 20 -66 28 -66 16z"/>
<path d="M7544 7452 c-107 -78 -211 -236 -249 -377 -23 -86 -30 -231 -15 -293
17 -75 47 -96 122 -88 74 7 196 55 273 105 80 53 181 156 228 233 44 73 73
158 63 184 -7 17 -10 16 -36 -13 -16 -18 -34 -52 -40 -75 -13 -48 -55 -117
-99 -164 -97 -103 -223 -172 -410 -228 l-54 -16 6 153 c3 94 12 175 22 212 36
129 118 254 201 305 29 18 64 64 64 85 0 14 -41 2 -76 -23z"/>
<path d="M7860 7476 c0 -2 7 -9 15 -16 12 -10 15 -10 15 4 0 9 -7 16 -15 16
-8 0 -15 -2 -15 -4z"/>
<path d="M6381 7434 c-19 -54 -85 -113 -197 -180 -128 -76 -216 -160 -241
-232 -19 -56 -18 -56 -80 -31 -57 23 -55 2 10 -129 104 -207 171 -262 318
-262 67 0 85 4 143 33 l66 34 66 -34 c58 -29 76 -33 143 -33 146 0 213 55 318
263 65 130 67 151 10 128 -63 -25 -66 -25 -73 5 -22 90 -95 167 -249 258 -112
67 -177 126 -196 180 -7 20 -16 36 -19 36 -3 0 -12 -16 -19 -36z m179 -225
c101 -50 167 -89 189 -113 43 -45 37 -54 -13 -18 -51 36 -133 38 -188 4 -66
-41 -94 -133 -64 -206 18 -44 52 -66 101 -66 81 0 110 21 58 41 -79 30 -96 95
-40 154 81 86 188 30 211 -111 11 -65 -9 -122 -63 -175 -90 -90 -221 -88 -318
4 l-33 31 -32 -31 c-51 -48 -96 -67 -158 -67 -71 0 -119 17 -159 56 -50 49
-65 85 -65 153 1 155 122 234 212 140 55 -59 38 -124 -40 -154 -53 -20 -24
-41 57 -41 96 0 144 104 94 206 -28 59 -77 88 -150 89 -46 0 -64 -5 -95 -27
-51 -37 -57 -26 -11 20 23 23 95 66 190 113 83 42 154 76 157 75 3 0 75 -35
160 -77z"/>
<path d="M6369 7181 c12 -22 26 -41 31 -41 5 0 19 19 31 41 19 39 20 41 2 34
-10 -4 -25 -8 -33 -8 -8 0 -23 4 -33 8 -18 7 -17 5 2 -34z"/>
<path d="M3258 7413 c-43 -49 -26 -95 39 -108 26 -5 40 -2 54 11 23 21 25 76
3 98 -21 21 -77 20 -96 -1z"/>
<path d="M9446 7414 c-22 -22 -20 -77 3 -98 14 -13 28 -16 54 -11 65 13 82 59
39 108 -19 21 -75 22 -96 1z"/>
<path d="M4129 7323 c-49 -88 -134 -165 -234 -213 -107 -53 -252 -84 -347 -77
-56 5 -71 3 -90 -13 -23 -18 -22 -18 46 -25 149 -16 325 13 437 71 106 56 208
178 243 292 15 45 -22 22 -55 -35z"/>
<path d="M8616 7358 c35 -114 137 -236 243 -292 112 -58 288 -87 437 -71 68 7
69 7 46 25 -19 16 -34 18 -90 13 -95 -7 -240 24 -347 77 -100 48 -185 125
-234 213 -33 57 -70 80 -55 35z"/>
<path d="M4456 7296 c-83 -148 -234 -251 -451 -306 -82 -21 -274 -50 -333 -50
-65 0 -70 -16 -11 -35 292 -95 511 -280 661 -562 l44 -82 64 71 c89 99 174
166 277 220 136 71 235 99 388 108 72 4 144 13 160 20 35 14 43 10 -114 60
-250 81 -426 239 -563 510 -44 86 -61 109 -80 110 -3 0 -22 -29 -42 -64z m114
-172 c78 -103 233 -255 315 -311 33 -22 89 -55 125 -73 l65 -33 -108 -23 c-60
-13 -139 -33 -175 -45 -134 -44 -284 -133 -361 -213 -19 -20 -40 -36 -45 -36
-6 1 -42 41 -80 90 -147 193 -252 288 -407 370 -88 46 -91 49 -64 55 132 29
273 68 342 94 95 37 211 110 268 170 21 22 44 41 50 40 5 0 39 -38 75 -85z"/>
<path d="M4411 7056 c-28 -30 -51 -58 -51 -61 0 -4 9 -20 20 -35 32 -45 52
-98 39 -105 -19 -13 -60 6 -105 47 l-44 40 -92 -26 c-89 -26 -138 -48 -138
-64 0 -5 15 -15 33 -24 17 -8 58 -36 89 -62 31 -25 61 -46 66 -46 6 0 38 13
71 29 62 29 101 31 101 4 0 -7 -21 -36 -47 -64 -46 -50 -47 -50 -34 -87 20
-56 59 -112 79 -112 9 1 46 27 82 60 l65 59 -18 28 c-34 54 -50 91 -44 106 8
22 37 12 92 -34 54 -44 73 -47 147 -20 29 11 73 25 97 31 l43 11 -28 30 c-32
34 -174 129 -192 129 -7 0 -30 -9 -52 -20 -41 -21 -90 -27 -90 -10 0 5 20 34
44 64 l45 54 -28 44 c-36 54 -68 88 -85 88 -7 0 -36 -24 -65 -54z"/>
<path d="M8283 7352 c-7 -4 -35 -52 -62 -105 -136 -266 -314 -427 -562 -507
-157 -50 -149 -46 -114 -60 17 -7 89 -16 160 -20 264 -16 478 -121 665 -328
l64 -71 44 82 c88 164 228 328 356 416 65 45 206 114 290 141 73 24 74 40 4
40 -59 0 -251 29 -333 50 -217 55 -377 165 -454 310 -33 62 -37 65 -58 52z
m72 -183 c57 -60 173 -133 268 -170 69 -26 210 -65 342 -94 27 -6 24 -9 -64
-55 -155 -82 -260 -177 -407 -370 -38 -49 -74 -89 -80 -90 -5 0 -26 16 -45 36
-77 80 -227 169 -361 213 -36 12 -115 32 -175 45 l-108 23 65 33 c36 18 92 51
125 73 82 56 237 208 315 311 36 47 70 85 75 85 6 1 29 -18 50 -40z"/>
<path d="M8289 7088 c-12 -13 -34 -43 -50 -66 l-28 -44 45 -54 c24 -30 44 -59
44 -64 0 -17 -49 -11 -90 10 -22 11 -45 20 -52 20 -17 0 -144 -84 -185 -123
-34 -32 -35 -47 -2 -47 11 0 52 -11 91 -25 39 -14 81 -25 94 -25 12 0 43 18
69 39 101 84 125 49 48 -72 l-18 -28 65 -59 c36 -33 73 -59 82 -60 20 0 59 56
79 112 13 37 12 37 -34 87 -26 28 -47 57 -47 64 0 27 39 25 101 -4 33 -16 65
-29 71 -29 5 0 35 21 66 46 31 26 72 54 90 62 17 9 32 19 32 24 0 16 -49 38
-138 64 l-92 26 -44 -40 c-45 -41 -86 -60 -105 -47 -13 7 7 60 39 105 11 15
20 31 20 35 0 12 -103 115 -116 115 -7 0 -23 -10 -35 -22z"/>
<path d="M3371 7294 c-16 -20 -18 -31 -11 -45 22 -41 76 -51 105 -19 32 35 -5
89 -62 90 -6 0 -21 -12 -32 -26z"/>
<path d="M9353 7310 c-31 -13 -40 -55 -18 -80 29 -32 83 -22 105 19 7 14 5 25
-11 45 -21 27 -39 31 -76 16z"/>
<path d="M5995 7276 c-138 -44 -249 -152 -339 -332 -39 -78 -90 -227 -84 -244
6 -20 56 29 69 68 45 140 134 288 224 370 62 57 172 116 234 127 23 4 39 11
35 16 -8 13 -92 10 -139 -5z"/>
<path d="M6666 7282 c-3 -6 10 -13 35 -17 59 -10 170 -69 229 -122 88 -79 182
-229 224 -360 17 -50 66 -107 74 -84 6 18 -37 145 -78 231 -80 165 -172 268
-288 323 -67 31 -184 49 -196 29z"/>
<path d="M1944 7245 c-7 -19 -14 -59 -14 -89 0 -47 4 -58 23 -70 81 -50 166
-9 167 82 0 24 -5 52 -10 63 -15 28 -63 49 -110 49 -37 0 -42 -3 -56 -35z"/>
<path d="M10728 7264 c-36 -19 -48 -43 -48 -96 1 -91 86 -132 168 -82 18 12
22 23 22 70 0 30 -7 70 -14 89 -14 32 -18 35 -58 35 -24 -1 -55 -7 -70 -16z"/>
<path d="M3215 7226 c-31 -13 -95 -79 -95 -96 0 -15 18 -12 51 7 22 13 34 15
47 7 46 -28 67 -139 38 -207 -13 -32 -68 -87 -87 -87 -5 0 -19 11 -31 25 -29
33 -48 32 -48 -3 0 -59 57 -102 135 -102 85 0 137 53 157 159 21 112 -20 252
-85 291 -37 23 -42 24 -82 6z"/>
<path d="M9503 7220 c-65 -39 -106 -179 -85 -291 20 -106 72 -159 157 -159 78
0 135 43 135 102 0 35 -19 36 -48 3 -12 -14 -26 -25 -31 -25 -16 0 -71 51 -86
81 -30 56 -13 173 29 208 15 12 22 12 52 -2 64 -31 71 -17 22 39 -28 32 -81
64 -105 64 -4 0 -22 -9 -40 -20z"/>
<path d="M1819 6981 c-23 -24 -29 -38 -29 -73 0 -24 6 -52 13 -62 13 -17 16
-15 39 26 30 55 43 138 21 138 -8 0 -28 -13 -44 -29z"/>
<path d="M10928 6964 c3 -26 16 -67 30 -92 23 -41 26 -43 39 -26 7 10 13 38
13 62 0 35 -6 49 -29 73 -44 44 -60 39 -53 -17z"/>
<path d="M3412 6908 c3 -19 16 -26 93 -45 214 -54 369 -182 496 -408 26 -46
35 -55 37 -39 5 33 -36 142 -75 201 -76 114 -217 210 -407 275 -131 45 -149
47 -144 16z"/>
<path d="M9253 6895 c-210 -71 -345 -164 -427 -294 -31 -49 -68 -156 -64 -185
2 -16 11 -7 37 39 127 226 282 354 496 408 77 19 90 26 93 45 5 30 -12 29
-135 -13z"/>
<path d="M1802 6714 c-26 -18 -72 -104 -72 -133 0 -27 66 -71 107 -71 22 0 44
10 67 31 67 58 55 141 -24 173 -50 20 -50 20 -78 0z"/>
<path d="M10914 6711 c-47 -21 -70 -63 -59 -110 9 -41 67 -91 107 -91 40 0 96
35 104 65 11 43 -62 156 -101 155 -5 0 -28 -9 -51 -19z"/>
<path d="M3630 6674 c-25 -25 -70 -61 -100 -81 -95 -63 -138 -103 -160 -148
-26 -53 -20 -94 34 -256 20 -59 36 -123 36 -142 0 -71 72 -54 86 21 l7 34 51
-6 c28 -3 92 -9 141 -12 96 -7 85 -10 352 83 l42 15 -80 119 c-91 135 -120
162 -246 235 -93 54 -91 51 -77 122 6 33 -8 62 -30 62 -7 0 -32 -21 -56 -46z
m59 -168 c53 -28 65 -99 32 -198 -11 -31 -27 -68 -36 -81 -21 -33 -80 -60
-111 -53 -64 16 -144 131 -144 207 0 88 170 170 259 125z m125 -20 c48 -28 72
-58 119 -152 57 -115 61 -103 -53 -162 -90 -46 -107 -52 -163 -52 -89 0 -100
12 -35 40 29 12 61 30 72 39 27 24 56 85 62 135 6 39 2 53 -30 110 -19 36 -30
66 -24 66 6 0 30 -11 52 -24z"/>
<path d="M9090 6705 c-8 -9 -10 -27 -6 -47 14 -71 16 -68 -77 -122 -126 -73
-155 -100 -246 -235 l-80 -119 42 -15 c267 -93 256 -90 352 -83 50 3 113 9
141 12 l51 6 7 -34 c14 -75 86 -92 86 -21 0 19 16 83 36 142 54 162 60 203 34
256 -22 45 -65 85 -160 148 -30 20 -75 56 -100 81 -47 49 -61 54 -80 31z m181
-210 c61 -31 99 -75 99 -114 0 -76 -80 -191 -144 -207 -31 -7 -90 20 -111 53
-26 38 -55 134 -54 178 0 47 17 83 50 102 30 17 114 11 160 -12z m-257 -51
c-32 -57 -36 -71 -30 -110 6 -50 35 -111 62 -135 11 -9 43 -27 72 -39 65 -28
54 -40 -35 -40 -56 0 -73 6 -163 52 -114 59 -110 47 -53 162 47 93 70 123 118
152 63 38 68 30 29 -42z"/>
<path d="M3304 6685 c-30 -46 14 -93 64 -66 26 14 40 70 21 82 -28 17 -68 10
-85 -16z"/>
<path d="M9411 6701 c-19 -12 -5 -68 21 -82 50 -27 94 20 64 66 -17 26 -57 33
-85 16z"/>
<path d="M3156 6659 c-30 -23 -33 -45 -10 -77 18 -26 44 -28 84 -7 38 20 42
66 8 89 -30 21 -50 20 -82 -5z"/>
<path d="M9562 6664 c-34 -23 -30 -69 8 -89 40 -21 66 -19 84 7 23 32 20 54
-10 77 -32 25 -52 26 -82 5z"/>
<path d="M2706 6641 c13 -15 74 -32 74 -21 0 4 -11 11 -24 14 -13 3 -32 9 -43
12 -13 5 -15 4 -7 -5z"/>
<path d="M5514 6594 c-15 -124 25 -195 119 -211 77 -12 107 17 107 104 0 53
-25 100 -67 125 -21 12 -122 38 -149 38 -1 0 -6 -25 -10 -56z"/>
<path d="M5790 6630 c-36 -36 -16 -90 34 -90 44 0 77 61 50 91 -22 25 -59 24
-84 -1z"/>
<path d="M6926 6631 c-27 -30 6 -91 50 -91 50 0 70 54 34 90 -25 25 -62 26
-84 1z"/>
<path d="M7200 6636 c-95 -20 -140 -68 -140 -148 0 -88 30 -117 107 -105 66
11 109 54 120 120 8 50 -6 147 -20 146 -7 0 -37 -6 -67 -13z"/>
<path d="M10053 6638 c-18 -6 -33 -14 -33 -19 0 -10 60 7 74 21 12 12 2 12
-41 -2z"/>
<path d="M3003 6618 c-12 -6 -30 -31 -39 -55 -20 -51 -10 -86 31 -105 42 -19
70 2 90 67 18 55 18 57 -1 75 -26 24 -54 31 -81 18z"/>
<path d="M5235 6619 c-165 -17 -340 -92 -419 -180 -41 -45 -89 -142 -84 -168
3 -11 13 -1 33 29 101 159 291 254 540 269 103 7 155 20 155 40 0 21 -85 25
-225 10z"/>
<path d="M7363 6623 c-13 -2 -23 -8 -23 -13 0 -21 51 -34 155 -41 249 -15 439
-110 540 -269 38 -59 45 -33 12 42 -49 110 -156 193 -314 242 -107 33 -296 53
-370 39z"/>
<path d="M9745 6620 c-43 -17 -49 -35 -30 -96 12 -39 24 -59 41 -66 31 -14 70
2 86 37 15 34 -13 108 -48 124 -14 6 -26 11 -27 10 -1 0 -11 -4 -22 -9z"/>
<path d="M5846 6498 c-9 -12 -16 -39 -16 -59 0 -30 4 -38 23 -43 82 -22 114
36 54 102 -26 28 -42 28 -61 0z"/>
<path d="M6893 6498 c-60 -66 -28 -124 55 -102 18 5 22 13 22 43 0 39 -23 81
-44 81 -7 0 -22 -10 -33 -22z"/>
<path d="M5094 6465 c-4 -9 -4 -35 -1 -59 l6 -43 -60 0 c-82 -1 -161 -41 -275
-139 -117 -101 -166 -132 -235 -146 l-56 -11 26 -23 c44 -37 78 -113 112 -249
45 -187 87 -264 169 -316 l25 -16 -33 -37 c-44 -50 -43 -68 6 -61 213 30 251
38 301 61 74 33 107 66 142 139 31 64 39 155 20 222 -8 29 -5 35 48 90 67 68
91 126 91 217 0 43 -7 76 -24 113 -24 51 -144 186 -218 245 -33 25 -39 27 -44
13z m-141 -194 c-136 -98 -69 -302 99 -304 67 -1 106 36 115 111 3 29 2 52 -2
52 -4 0 -25 -16 -46 -35 -41 -37 -81 -45 -109 -22 -52 41 -67 123 -30 170 52
66 192 61 270 -9 107 -97 87 -273 -40 -355 -37 -24 -49 -37 -44 -48 36 -87 42
-152 19 -208 -56 -135 -183 -184 -304 -118 -101 55 -128 136 -68 201 44 49
104 58 140 21 16 -15 28 -41 32 -71 6 -39 10 -45 22 -34 24 20 43 65 43 104 0
45 -47 96 -106 114 -119 36 -238 -84 -206 -207 18 -65 7 -66 -22 -2 -17 37
-31 101 -46 209 -12 85 -23 157 -25 159 -9 8 217 241 262 270 62 41 102 43 46
2z"/>
<path d="M4721 6020 c2 -14 -3 -36 -10 -49 -13 -24 -13 -24 29 -18 23 3 44 8
48 11 3 4 -11 23 -32 44 -36 36 -37 36 -35 12z"/>
<path d="M7581 6373 c-129 -127 -161 -182 -161 -279 0 -91 24 -149 91 -217 53
-55 56 -61 48 -90 -19 -67 -11 -158 20 -222 35 -73 68 -106 142 -139 50 -23
88 -31 302 -61 48 -7 49 11 5 61 l-33 37 25 16 c82 52 124 129 169 316 34 136
68 212 112 249 l26 23 -56 11 c-69 14 -118 45 -235 146 -114 98 -193 138 -274
139 l-60 0 5 52 c4 34 1 55 -6 59 -7 5 -55 -36 -120 -101z m312 -104 c45 -29
271 -262 262 -270 -2 -2 -11 -58 -20 -124 -20 -152 -33 -210 -57 -258 -25 -50
-32 -42 -16 16 32 123 -87 243 -206 207 -59 -18 -106 -69 -106 -114 0 -40 19
-84 44 -105 14 -12 16 -10 16 13 0 42 27 95 54 107 39 18 90 3 126 -38 27 -31
31 -42 27 -74 -7 -53 -37 -90 -99 -124 -120 -66 -247 -16 -303 118 -23 56 -17
121 19 208 5 11 -7 24 -44 48 -127 82 -147 258 -40 355 57 52 132 68 212 46
90 -26 107 -145 28 -207 -33 -26 -94 -8 -128 39 -24 34 -35 21 -29 -34 9 -75
48 -112 115 -111 27 0 62 8 79 16 111 58 122 214 20 288 -56 41 -16 40 46 -2z"/>
<path d="M8040 6005 c-18 -19 -31 -37 -28 -41 4 -3 25 -8 48 -11 42 -6 42 -6
29 18 -7 13 -12 34 -10 47 3 29 1 28 -39 -13z"/>
<path d="M3071 6413 c-24 -30 -20 -58 11 -85 26 -23 61 -23 81 0 24 27 21 50
-12 83 -36 36 -54 36 -80 2z"/>
<path d="M9649 6411 c-33 -34 -37 -61 -11 -84 24 -22 55 -21 80 1 31 27 35 55
11 85 -26 34 -44 34 -80 -2z"/>
<path d="M5445 6375 c-28 -27 -30 -37 -15 -66 11 -19 37 -24 76 -13 33 9 41
64 13 87 -29 23 -45 22 -74 -8z"/>
<path d="M7281 6383 c-28 -23 -20 -78 13 -87 39 -11 65 -6 76 13 15 29 13 39
-15 66 -29 30 -45 31 -74 8z"/>
<path d="M5913 6371 c-35 -22 -49 -64 -34 -104 19 -50 99 -48 126 3 21 40 19
72 -5 98 -25 27 -46 28 -87 3z"/>
<path d="M6181 6353 c-45 -44 -66 -104 -58 -171 6 -54 -8 -51 -43 8 -26 44
-54 69 -66 58 -14 -14 8 -59 52 -109 25 -28 43 -54 40 -56 -3 -3 -11 -1 -19 5
-26 22 -90 24 -127 5 -54 -28 -83 -78 -77 -135 5 -54 -5 -53 -33 1 -25 51 -68
101 -86 101 -27 0 -14 -43 28 -88 45 -49 40 -64 -14 -36 -75 39 -193 11 -231
-54 -22 -37 -15 -71 20 -107 33 -32 40 -32 56 8 34 78 104 91 232 42 132 -51
218 -66 281 -49 47 12 80 143 70 279 -10 153 16 213 101 230 48 10 50 11 41
35 -30 80 -102 94 -167 33z m-95 -358 c39 -25 59 -77 48 -122 -8 -36 -11 -38
-52 -41 -38 -3 -47 1 -77 31 -30 30 -35 41 -35 84 0 27 6 55 13 62 15 15 70 8
103 -14z"/>
<path d="M6482 6367 c-11 -12 -25 -33 -30 -47 -9 -24 -7 -25 41 -35 86 -17
111 -75 101 -240 -8 -134 23 -257 70 -269 63 -17 149 -2 281 49 128 49 198 36
232 -42 16 -40 23 -40 56 -8 35 36 42 70 20 107 -38 65 -156 93 -231 54 -54
-28 -59 -13 -14 36 42 45 55 88 28 88 -18 0 -61 -50 -86 -101 -28 -54 -38 -55
-33 -1 6 57 -23 107 -77 135 -37 19 -101 17 -127 -5 -8 -6 -16 -8 -19 -5 -3 2
15 28 40 56 44 50 66 95 52 109 -12 11 -40 -14 -66 -58 -35 -59 -49 -62 -43
-8 12 103 -57 208 -136 208 -26 0 -44 -7 -59 -23z m336 -359 c7 -7 12 -34 12
-61 0 -43 -5 -54 -35 -84 -30 -30 -39 -34 -77 -31 -41 3 -44 5 -53 42 -7 31
-5 45 10 75 30 55 113 89 143 59z"/>
<path d="M6800 6370 c-37 -37 -14 -124 37 -136 90 -23 126 98 42 141 -38 20
-55 19 -79 -5z"/>
<path d="M3176 6288 c-21 -29 -20 -51 2 -70 33 -30 58 -31 70 -3 17 36 15 52
-8 75 -26 26 -45 25 -64 -2z"/>
<path d="M9560 6290 c-23 -23 -25 -39 -8 -75 12 -28 37 -27 71 3 21 19 22 41
1 70 -19 27 -38 28 -64 2z"/>
<path d="M5553 6293 c-21 -8 -15 -52 12 -78 26 -27 64 -32 83 -13 20 20 15 76
-7 88 -20 10 -66 12 -88 3z"/>
<path d="M7158 6289 c-21 -12 -24 -69 -6 -87 32 -32 108 11 108 61 0 36 -60
51 -102 26z"/>
<path d="M2910 6252 c-19 -9 -37 -26 -38 -36 -4 -17 1 -18 37 -13 34 4 44 2
56 -16 18 -25 20 -109 4 -140 -17 -33 -70 -87 -102 -103 -37 -20 -60 -11 -80
31 -9 19 -21 35 -27 35 -13 0 -13 -55 0 -99 32 -114 143 -109 258 13 64 68 92
125 92 191 0 65 -27 110 -83 135 -52 24 -73 25 -117 2z"/>
<path d="M9773 6251 c-56 -26 -83 -71 -83 -136 0 -66 28 -123 92 -191 115
-122 226 -127 258 -13 13 44 13 99 0 99 -6 0 -18 -16 -27 -35 -20 -42 -43 -51
-80 -31 -32 16 -85 70 -102 103 -16 31 -14 115 4 140 12 17 22 20 55 16 32 -5
40 -3 40 10 0 9 -11 24 -24 32 -39 26 -86 28 -133 6z"/>
<path d="M5663 6188 c-35 -39 -37 -64 -9 -93 50 -50 146 -17 146 50 0 61 -94
90 -137 43z"/>
<path d="M7020 6190 c-45 -45 -4 -120 65 -120 46 0 90 39 79 73 -19 64 -100
91 -144 47z"/>
<path d="M4310 6121 c0 -6 5 -13 10 -16 6 -3 10 1 10 9 0 9 -4 16 -10 16 -5 0
-10 -4 -10 -9z"/>
<path d="M8470 6114 c0 -8 5 -12 10 -9 6 3 10 10 10 16 0 5 -4 9 -10 9 -5 0
-10 -7 -10 -16z"/>
<path d="M3877 6039 c-20 -11 -86 -36 -145 -56 -187 -63 -349 -57 -524 17 -62
27 -74 29 -86 16 -8 -8 -11 -19 -8 -25 10 -16 186 -69 289 -87 202 -35 391 10
496 120 39 40 33 44 -22 15z"/>
<path d="M8901 6024 c105 -110 294 -155 496 -120 103 18 279 71 289 87 3 6 0
17 -8 25 -12 13 -24 11 -86 -16 -207 -88 -408 -78 -651 31 -35 16 -66 29 -69
29 -3 0 10 -16 29 -36z"/>
<path d="M4195 5938 c-93 -49 -260 -104 -364 -119 -125 -18 -304 -7 -421 26
-52 14 -106 29 -120 32 -17 4 18 -35 113 -127 266 -257 346 -409 334 -637 -4
-80 -2 -103 9 -107 7 -3 69 21 136 54 161 77 274 110 408 117 126 6 249 -12
371 -57 96 -35 89 -33 89 -17 0 16 -68 83 -138 135 -108 81 -216 234 -271 387
-35 98 -61 216 -61 282 0 26 -4 53 -8 58 -4 7 -33 -3 -77 -27z m31 -125 c16
-113 76 -259 154 -373 21 -30 75 -97 121 -149 75 -85 80 -93 53 -87 -16 4 -95
10 -176 13 -164 6 -260 -6 -446 -58 -56 -16 -106 -29 -111 -29 -4 0 -11 25
-15 54 -15 133 -99 297 -231 453 -44 53 -91 109 -105 126 l-25 30 30 -6 c103
-23 221 -30 318 -19 92 10 299 57 359 81 52 22 66 15 74 -36z"/>
<path d="M4117 5770 c-15 -5 -48 -21 -72 -37 -37 -23 -45 -32 -40 -51 35 -142
-11 -178 -76 -59 l-35 62 -89 1 c-50 0 -102 4 -117 7 -23 6 -28 4 -28 -11 0
-19 18 -48 93 -149 l38 -51 72 5 c55 4 77 1 92 -10 18 -14 19 -17 4 -32 -8 -8
-37 -24 -65 -34 l-49 -19 1 -59 c0 -32 4 -71 8 -87 7 -27 10 -28 46 -23 21 3
60 13 85 22 l45 18 -2 73 c-1 41 1 77 5 80 10 11 35 -15 64 -66 l27 -47 65 -7
c82 -7 159 -8 188 0 21 6 20 8 -21 62 -23 32 -55 74 -70 95 l-27 37 -77 0
c-90 0 -113 9 -91 36 8 9 38 28 67 40 55 25 59 33 43 94 -6 19 -15 54 -21 78
-11 43 -16 46 -63 32z"/>
<path d="M8525 5963 c-3 -8 -5 -35 -5 -59 0 -63 -26 -182 -61 -279 -55 -153
-163 -306 -271 -387 -92 -69 -167 -148 -140 -148 4 0 45 14 91 30 122 45 245
63 371 57 134 -7 247 -40 408 -117 67 -33 129 -57 136 -54 11 4 13 27 9 107
-13 241 79 403 392 694 88 83 91 81 -65 38 -117 -33 -296 -44 -421 -26 -104
15 -268 69 -365 120 -58 30 -74 35 -79 24z m220 -141 c61 -16 137 -36 170 -43
79 -17 305 -17 373 0 29 7 55 11 58 9 2 -3 -25 -38 -61 -78 -174 -194 -273
-373 -291 -526 -4 -29 -11 -54 -15 -54 -5 0 -55 13 -111 29 -186 52 -282 64
-446 58 -81 -3 -160 -9 -177 -13 -28 -7 -25 -2 41 72 171 190 263 362 288 538
9 56 -1 56 171 8z"/>
<path d="M8620 5738 c-6 -24 -15 -59 -21 -78 -16 -61 -12 -69 44 -94 28 -12
58 -31 66 -40 22 -27 -1 -36 -91 -36 l-77 0 -27 -37 c-15 -21 -47 -63 -70 -95
-41 -54 -42 -56 -21 -62 29 -8 106 -7 188 0 l65 7 27 47 c29 51 54 77 64 66 4
-3 6 -39 5 -80 l-2 -73 45 -18 c25 -9 63 -19 84 -22 45 -6 48 -1 57 96 l7 68
-56 22 c-72 29 -89 48 -62 68 15 11 38 14 92 10 l72 -5 38 51 c75 101 93 130
93 149 0 15 -5 17 -27 11 -16 -3 -68 -7 -118 -7 l-89 -1 -35 -62 c-52 -95 -98
-96 -87 -3 3 25 8 54 11 65 5 16 -4 26 -47 52 -29 17 -67 34 -85 38 -31 6 -32
5 -43 -37z"/>
<path d="M3092 5898 c2 -14 21 -35 52 -55 119 -77 244 -235 287 -360 20 -56
24 -88 24 -186 0 -168 33 -154 50 23 14 135 -38 275 -144 391 -54 61 -184 165
-243 195 -29 15 -29 15 -26 -8z"/>
<path d="M9625 5869 c-105 -69 -231 -197 -273 -276 -43 -82 -66 -188 -57 -273
8 -85 23 -140 38 -140 9 0 12 32 12 117 0 97 4 130 23 185 43 125 167 282 280
355 29 19 56 41 59 48 14 37 -8 33 -82 -16z"/>
<path d="M2710 5751 c-16 -31 -12 -76 10 -96 37 -33 92 -18 111 32 11 31 2 51
-32 68 -39 21 -76 19 -89 -4z"/>
<path d="M2867 5764 c-14 -14 -7 -61 11 -77 23 -21 65 -22 81 -3 7 8 11 30 9
48 -3 32 -5 33 -48 36 -25 2 -49 0 -53 -4z"/>
<path d="M9837 5764 c-11 -12 -8 -69 5 -82 18 -18 63 -14 82 7 10 11 16 31 14
48 -3 26 -7 28 -48 31 -25 2 -49 0 -53 -4z"/>
<path d="M9999 5755 c-32 -18 -41 -38 -30 -68 28 -73 131 -61 131 15 0 64 -41
86 -101 53z"/>
<path d="M4544 5703 c-44 -153 29 -338 200 -506 80 -78 197 -160 209 -148 13
13 -13 53 -60 88 -213 162 -339 386 -321 574 7 66 -8 62 -28 -8z"/>
<path d="M8228 5711 c18 -188 -108 -412 -321 -574 -47 -35 -73 -75 -60 -88 12
-12 129 70 209 148 171 168 244 353 200 506 -20 70 -35 74 -28 8z"/>
<path d="M2564 5740 c-28 -11 -45 -60 -31 -86 15 -28 27 -34 69 -34 40 0 68
27 68 66 0 41 -62 73 -106 54z"/>
<path d="M10180 5743 c-48 -18 -63 -60 -34 -101 11 -16 25 -22 52 -22 60 0 87
32 70 82 -13 37 -51 54 -88 41z"/>
<path d="M5503 5655 c-41 -17 -57 -48 -50 -97 10 -71 77 -134 165 -153 37 -8
42 -23 10 -29 -93 -17 -103 -21 -106 -43 -5 -31 25 -30 103 3 33 14 67 28 75
32 8 3 1 -10 -16 -30 -77 -88 -39 -205 76 -236 l35 -9 -60 -13 c-96 -20 -143
-50 -107 -69 13 -7 33 -3 75 16 32 14 60 23 64 20 3 -4 -10 -24 -30 -46 -63
-70 -72 -170 -20 -231 30 -36 72 -40 120 -10 l32 19 -40 39 c-62 62 -50 114
57 247 62 77 103 156 111 214 5 33 1 41 -31 69 -50 44 -121 78 -202 98 -86 21
-145 48 -174 79 -20 21 -22 31 -17 85 5 57 4 60 -16 60 -12 -1 -36 -7 -54 -15z
m411 -336 c44 -35 28 -92 -36 -125 -58 -30 -148 0 -148 49 0 11 17 37 39 58
32 32 46 39 78 39 26 0 50 -8 67 -21z"/>
<path d="M7227 5613 c4 -49 2 -62 -16 -84 -25 -33 -85 -61 -175 -83 -84 -21
-172 -64 -210 -105 -24 -25 -28 -36 -23 -66 9 -58 50 -135 111 -210 107 -133
119 -185 57 -247 l-40 -39 32 -19 c48 -30 90 -26 120 10 52 61 43 161 -20 231
-20 22 -33 42 -30 46 4 3 32 -6 64 -20 42 -19 62 -23 75 -16 36 19 -11 49
-107 69 l-60 13 35 9 c115 31 153 148 76 236 -17 20 -24 33 -16 30 8 -4 42
-18 75 -32 78 -33 108 -34 103 -3 -3 22 -13 26 -105 43 -33 6 -28 21 10 29 53
12 104 43 132 80 31 40 43 102 25 134 -12 24 -66 51 -99 51 -17 0 -19 -6 -14
-57z m-196 -312 c43 -43 49 -69 20 -95 -61 -55 -191 -7 -191 70 0 33 45 64 93
64 32 0 46 -7 78 -39z"/>
<path d="M3257 5619 c-10 -6 -80 -23 -156 -39 -198 -40 -244 -69 -297 -185
-73 -159 9 -341 194 -432 70 -35 186 -44 243 -19 39 16 99 62 99 76 0 4 -12
11 -26 14 -18 5 -45 -2 -91 -25 -56 -27 -71 -31 -115 -25 -192 26 -312 226
-234 391 39 83 103 125 191 125 150 0 249 -144 154 -224 -60 -51 -121 -44
-154 17 -11 20 -23 37 -27 37 -14 0 -48 -79 -48 -109 0 -17 10 -42 24 -58 23
-27 29 -28 109 -28 71 0 90 4 113 21 53 39 69 71 74 147 l5 72 19 -35 c17 -30
21 -63 26 -215 6 -158 9 -185 29 -222 36 -72 119 -113 195 -99 34 7 96 49 96
66 0 4 -19 12 -43 18 -65 17 -121 63 -151 124 -14 29 -37 107 -50 172 -37 173
-66 225 -168 297 l-23 17 21 23 c36 40 46 66 34 89 -12 23 -18 24 -43 9z"/>
<path d="M9500 5610 c-12 -23 -2 -49 34 -89 l21 -23 -23 -17 c-102 -72 -131
-124 -168 -297 -13 -65 -36 -143 -50 -172 -30 -61 -86 -107 -151 -124 -24 -6
-43 -14 -43 -17 0 -13 44 -49 73 -60 74 -28 174 13 216 88 23 41 25 59 31 225
5 153 9 186 26 216 l19 35 5 -72 c8 -115 57 -165 169 -171 100 -6 151 26 151
93 0 27 -35 105 -48 105 -4 0 -16 -17 -27 -37 -50 -93 -190 -47 -190 62 0 133
222 194 334 92 67 -62 91 -197 50 -287 -41 -91 -137 -162 -237 -176 -44 -6
-59 -2 -115 25 -46 23 -73 30 -91 25 -34 -8 -33 -17 5 -48 53 -45 96 -58 179
-54 133 6 260 90 321 213 43 88 44 164 4 253 -49 110 -110 147 -295 182 -63
12 -130 28 -148 36 -43 17 -39 18 -52 -6z"/>
<path d="M5393 5348 c-33 -16 -41 -72 -16 -106 48 -64 126 -50 131 24 2 31 -2
44 -20 61 -29 27 -66 35 -95 21z"/>
<path d="M7345 5351 c-38 -16 -57 -47 -53 -87 6 -72 84 -85 131 -22 27 36 17
90 -19 106 -29 14 -32 14 -59 3z"/>
<path d="M5102 5307 c-52 -24 -30 -107 28 -107 22 0 33 7 44 29 13 25 13 31 0
49 -22 32 -45 41 -72 29z"/>
<path d="M7639 5290 c-29 -29 -29 -30 -14 -60 12 -23 22 -30 45 -30 60 0 78
84 24 109 -22 10 -29 8 -55 -19z"/>
<path d="M5229 5292 c-28 -23 -21 -45 23 -72 45 -27 55 -25 78 13 24 39 24 41
4 61 -21 22 -77 20 -105 -2z"/>
<path d="M7466 5294 c-9 -8 -16 -18 -16 -22 0 -16 41 -72 52 -72 21 0 78 39
85 57 16 40 -87 72 -121 37z"/>
<path d="M5090 5129 c-41 -26 -53 -39 -86 -102 l-25 -48 58 -26 c72 -33 141
-36 181 -7 15 11 38 41 51 68 30 60 20 89 -42 116 -55 25 -94 25 -137 -1z"/>
<path d="M7573 5130 c-62 -27 -72 -56 -42 -116 13 -27 36 -57 51 -68 40 -29
109 -26 181 7 l58 26 -25 48 c-33 63 -45 76 -86 102 -43 26 -82 26 -137 1z"/>
<path d="M4421 5089 c-118 -18 -227 -63 -300 -125 -74 -62 -12 -73 75 -14 33
22 84 50 114 61 71 27 214 36 318 19 78 -12 262 -66 262 -77 0 -13 -48 -81
-103 -148 -137 -165 -290 -255 -434 -255 -64 0 -133 -20 -133 -39 0 -32 162
-25 269 12 150 53 295 165 379 296 50 76 61 121 38 156 -54 82 -306 141 -485
114z"/>
<path d="M8165 5090 c-147 -23 -267 -81 -281 -135 -9 -37 18 -99 77 -177 126
-168 346 -287 531 -288 31 0 63 3 72 6 50 19 -27 54 -118 54 -122 0 -250 65
-373 189 -61 62 -163 194 -163 212 0 11 172 64 256 79 99 18 253 9 324 -19 30
-11 81 -39 114 -61 92 -63 148 -47 69 20 -113 93 -337 146 -508 120z"/>
<path d="M5492 5083 c-22 -9 -44 -63 -37 -92 20 -79 109 -84 134 -8 23 70 -32
126 -97 100z"/>
<path d="M7237 5079 c-43 -25 -41 -116 3 -139 68 -36 133 37 96 108 -21 42
-60 54 -99 31z"/>
<path d="M6339 4991 c-49 -31 -96 -84 -151 -171 -19 -30 -53 -72 -76 -92 -49
-44 -89 -49 -141 -17 -40 24 -51 15 -51 -43 0 -25 8 -46 24 -64 52 -62 187
-21 242 72 32 55 48 42 33 -25 -11 -51 -4 -83 19 -79 22 4 30 41 25 123 -4 69
-4 69 11 38 16 -35 62 -68 108 -79 42 -9 118 32 141 76 l19 35 -5 -70 c-5 -82
2 -119 25 -123 23 -4 30 28 19 79 -15 67 1 80 33 25 55 -94 190 -134 243 -71
21 24 24 36 20 72 -2 24 -7 46 -10 49 -2 3 -20 -4 -38 -15 -73 -45 -142 -10
-217 109 -19 30 -51 75 -70 99 -37 46 -115 101 -142 101 -9 0 -36 -13 -61 -29z
m107 -62 c23 -24 29 -39 29 -74 0 -66 -56 -132 -92 -109 -64 40 -78 132 -29
183 17 17 37 31 46 31 9 0 29 -14 46 -31z"/>
<path d="M5350 4968 c-24 -40 -26 -74 -4 -86 36 -20 104 18 104 59 0 17 -51
59 -73 59 -4 0 -16 -15 -27 -32z"/>
<path d="M7383 4980 c-38 -23 -42 -51 -12 -79 41 -38 99 -31 99 12 0 24 -35
87 -47 87 -5 0 -23 -9 -40 -20z"/>
<path d="M4557 4963 c-8 -10 -18 -35 -22 -56 -4 -20 -10 -39 -14 -42 -4 -2
-34 3 -67 12 -102 28 -208 21 -384 -25 -227 -59 -233 -59 -281 -26 -22 15 -44
34 -49 43 -14 26 -24 4 -28 -64 -4 -63 -3 -66 31 -100 32 -32 40 -35 96 -35
58 0 72 5 237 91 137 71 187 92 230 96 30 3 54 3 54 0 0 -4 -21 -28 -47 -54
l-47 -47 29 -12 c17 -7 47 -13 67 -14 47 0 55 -13 22 -35 -46 -30 -104 -45
-258 -65 -185 -25 -236 -41 -275 -86 -55 -62 -53 -115 7 -176 20 -21 39 -38
42 -38 4 0 12 25 19 55 8 37 21 61 37 74 14 11 101 50 194 86 190 74 283 132
345 214 22 28 40 51 41 51 1 0 18 -13 39 -30 60 -48 110 -39 74 12 -26 36 -49
109 -49 155 0 37 -17 44 -43 16z"/>
<path d="M8200 4947 c0 -46 -23 -119 -49 -155 -11 -16 -18 -32 -14 -36 15 -15
55 -4 86 24 19 17 36 30 39 30 2 0 21 -23 43 -51 62 -82 155 -140 345 -214 93
-36 180 -75 194 -86 16 -13 29 -37 37 -74 7 -30 15 -55 19 -55 3 0 22 17 42
38 60 61 62 114 7 176 -39 45 -90 61 -275 86 -154 20 -212 35 -258 65 -33 22
-25 35 22 35 20 1 50 7 67 14 l29 12 -47 47 c-26 26 -47 50 -47 54 0 3 23 3
52 1 40 -4 93 -27 230 -97 167 -85 183 -91 239 -91 56 0 64 3 95 34 30 30 34
40 34 88 0 32 -6 62 -15 74 -8 10 -15 14 -15 7 0 -6 -19 -25 -42 -43 -52 -38
-62 -37 -288 22 -176 46 -282 53 -384 25 -33 -9 -63 -14 -67 -12 -4 3 -10 22
-14 42 -13 70 -65 101 -65 40z"/>
<path d="M4975 4884 c-30 -69 -65 -226 -72 -314 -10 -153 24 -288 97 -380 29
-37 96 -87 105 -78 2 2 -11 23 -30 47 -78 98 -115 215 -115 361 0 103 11 185
37 263 29 93 11 179 -22 101z"/>
<path d="M7795 4910 c-12 -19 -8 -76 8 -127 26 -78 37 -160 37 -263 0 -146
-37 -263 -115 -361 -19 -24 -32 -45 -30 -47 9 -9 76 41 105 78 113 143 130
374 45 635 -28 86 -39 104 -50 85z"/>
<path d="M5227 4892 c-35 -38 -12 -102 37 -102 31 0 46 19 46 57 0 26 -6 36
-30 48 -36 19 -34 19 -53 -3z"/>
<path d="M7518 4894 c-22 -11 -28 -22 -28 -47 0 -38 15 -57 46 -57 49 0 73 69
36 103 -22 20 -20 20 -54 1z"/>
<path d="M3604 4767 c-28 -23 -59 -47 -69 -53 -15 -8 -19 -27 -23 -97 -4 -83
-3 -87 16 -87 11 0 41 18 66 39 25 21 50 41 56 43 6 2 15 39 19 83 5 44 12 88
16 98 13 31 -27 18 -81 -26z"/>
<path d="M9115 4793 c4 -10 11 -54 16 -98 4 -44 13 -81 19 -83 6 -2 31 -22 56
-43 25 -21 55 -39 66 -39 19 0 20 4 16 87 -4 70 -8 89 -23 97 -9 6 -41 30 -71
54 -56 44 -92 56 -79 25z"/>
<path d="M4815 4697 c-55 -86 -185 -219 -267 -274 -117 -77 -287 -138 -443
-157 -125 -16 -136 -29 -76 -90 54 -56 107 -147 134 -231 19 -62 22 -90 21
-240 -1 -149 -5 -188 -32 -310 -16 -77 -29 -141 -27 -143 1 -2 26 28 56 65
184 237 416 375 714 427 48 9 90 17 92 20 2 2 -13 30 -33 62 -144 224 -187
530 -110 774 25 78 34 160 19 160 -5 0 -26 -28 -48 -63z m-36 -203 c-17 -103
-14 -325 5 -414 13 -59 56 -179 92 -255 2 -6 -44 -28 -103 -49 -235 -85 -374
-164 -485 -276 -36 -38 -68 -66 -70 -64 -3 2 -1 32 4 66 4 35 8 131 8 213 1
190 -20 297 -80 415 -12 23 -18 46 -13 50 4 5 53 25 108 45 198 74 346 161
468 275 39 37 73 67 75 65 1 -1 -2 -33 -9 -71z"/>
<path d="M4644 4352 c-22 -15 -69 -49 -103 -76 l-64 -49 6 -56 c12 -113 -13
-126 -65 -34 l-31 55 -41 -6 c-54 -9 -126 -42 -126 -58 0 -16 43 -107 61 -130
13 -16 18 -16 82 -1 52 13 70 14 79 5 18 -18 -18 -61 -80 -97 l-52 -29 0 -104
c0 -57 5 -112 11 -123 10 -19 12 -19 50 16 22 20 62 49 88 66 27 16 51 35 54
42 3 8 1 33 -4 58 -12 63 -11 83 5 104 14 19 15 19 34 2 11 -10 30 -41 41 -68
24 -55 36 -59 130 -38 74 16 77 24 41 115 -18 44 -35 82 -38 86 -4 4 -32 1
-62 -7 -54 -14 -100 -11 -100 6 0 13 34 45 79 73 22 14 43 31 47 38 10 15 14
238 5 238 -3 0 -24 -12 -47 -28z"/>
<path d="M7930 4721 c0 -22 12 -77 26 -121 77 -244 34 -550 -110 -774 -20 -32
-36 -60 -34 -62 2 -2 52 -13 109 -24 299 -57 515 -188 698 -423 30 -37 55 -67
56 -65 2 2 -10 66 -27 143 -38 181 -48 384 -24 495 21 98 74 206 136 274 70
76 64 85 -65 102 -156 19 -326 80 -443 157 -82 55 -212 188 -267 274 -22 35
-43 63 -47 63 -5 0 -8 -18 -8 -39z m298 -334 c91 -60 206 -117 327 -162 55
-20 104 -40 108 -44 4 -4 -6 -36 -22 -72 -17 -35 -37 -91 -46 -124 -15 -58
-37 -257 -30 -279 2 -6 6 -71 10 -144 l6 -133 -68 69 c-111 113 -249 192 -483
277 -58 20 -106 38 -107 39 -1 1 13 38 32 82 45 104 64 178 75 299 9 94 2 246
-17 345 l-6 35 77 -72 c42 -39 107 -91 144 -116z"/>
<path d="M8104 4268 c1 -62 5 -119 9 -126 5 -7 26 -24 48 -38 45 -28 79 -60
79 -73 0 -17 -46 -20 -100 -6 -30 8 -58 11 -62 7 -3 -4 -20 -42 -38 -86 -36
-91 -33 -99 41 -115 94 -21 106 -17 130 38 11 27 30 58 41 68 19 17 20 17 34
-2 16 -21 17 -41 5 -104 -5 -25 -7 -50 -4 -58 3 -7 27 -26 54 -42 26 -17 66
-46 88 -66 38 -35 40 -35 50 -16 6 11 11 66 11 123 l0 104 -52 29 c-61 36 -98
79 -80 97 9 9 25 8 69 -2 32 -7 63 -15 69 -17 13 -5 69 86 79 130 7 25 4 29
-37 47 -24 10 -62 22 -84 26 l-41 6 -31 -55 c-52 -92 -77 -79 -65 34 l6 56
-64 49 c-70 55 -141 104 -150 104 -3 0 -5 -51 -5 -112z"/>
<path d="M4005 4680 c-4 -6 -2 -17 4 -23 15 -15 25 -2 13 19 -7 12 -11 13 -17
4z"/>
<path d="M5293 4676 c-41 -13 -249 -119 -267 -136 -14 -14 13 -40 43 -40 47 0
53 -11 36 -59 -31 -89 -15 -168 76 -386 29 -69 34 -91 34 -166 l0 -85 30 17
c60 36 120 42 280 29 133 -11 157 -11 214 4 35 9 82 30 104 46 46 34 57 37 57
15 0 -8 13 -29 29 -47 35 -39 33 -43 61 105 34 183 25 269 -39 353 -46 61
-136 110 -220 120 -54 6 -60 9 -66 33 -10 41 -72 126 -115 156 -74 51 -172 67
-257 41z m207 -81 c27 -14 60 -39 73 -57 24 -31 57 -114 57 -141 0 -8 17 -11
57 -8 75 4 125 -12 175 -57 119 -107 97 -280 -44 -353 -87 -45 -167 -5 -175
87 -4 40 -1 53 16 71 28 30 65 38 107 25 47 -14 46 9 -2 54 -29 28 -43 34 -81
34 -39 0 -51 -5 -83 -38 -117 -117 -37 -291 134 -292 27 -1 29 -2 12 -11 -27
-16 -180 -6 -317 21 l-116 22 -82 162 c-47 93 -84 180 -88 205 -7 51 11 51 22
0 9 -42 67 -96 116 -109 105 -28 209 47 209 150 -1 51 -11 69 -60 99 -32 19
-70 28 -70 16 0 -2 9 -19 20 -37 34 -56 23 -106 -30 -133 -65 -34 -141 -4
-161 63 -14 49 8 135 47 182 62 73 172 92 264 45z"/>
<path d="M5362 4060 c-43 -19 -49 -40 -12 -40 10 0 22 -9 25 -20 3 -11 10 -20
15 -20 8 0 25 89 18 95 -2 2 -23 -5 -46 -15z"/>
<path d="M7332 4675 c-24 -7 -61 -25 -82 -40 -43 -29 -105 -115 -115 -156 -6
-24 -13 -27 -65 -33 -76 -9 -170 -56 -214 -108 -52 -61 -70 -123 -63 -227 5
-89 34 -250 47 -264 9 -10 60 49 60 69 0 21 11 17 57 -16 22 -16 69 -37 104
-46 57 -15 81 -15 214 -4 160 13 220 7 280 -29 l30 -17 0 85 c0 75 5 97 34
166 91 218 107 297 76 386 -17 48 -11 59 36 59 30 0 57 26 43 40 -20 19 -224
121 -270 135 -60 18 -115 18 -172 0z m167 -75 c81 -41 135 -153 112 -232 -20
-67 -96 -97 -161 -63 -53 27 -64 77 -30 133 11 18 20 35 20 37 0 12 -38 3 -70
-16 -49 -30 -59 -48 -60 -100 0 -35 7 -55 29 -86 28 -39 89 -73 129 -73 69 0
154 61 167 119 11 51 29 51 22 0 -4 -25 -41 -112 -88 -205 l-82 -162 -116 -22
c-137 -27 -290 -37 -317 -21 -17 9 -15 10 12 11 61 0 97 13 134 49 74 70 74
170 0 243 -32 33 -44 38 -83 38 -38 0 -52 -6 -81 -34 -50 -46 -49 -67 3 -53
77 21 130 -30 118 -111 -13 -80 -95 -114 -175 -73 -141 73 -163 246 -44 353
50 45 100 61 174 57 l56 -4 12 52 c24 109 113 182 223 183 38 0 71 -7 96 -20z"/>
<path d="M7390 4061 c0 -33 12 -81 21 -81 4 0 11 9 14 20 3 11 15 20 25 20 10
0 21 4 25 9 6 10 -14 23 -59 41 -22 8 -26 7 -26 -9z"/>
<path d="M8776 4674 c-8 -22 1 -31 16 -16 9 9 9 15 1 23 -7 7 -12 5 -17 -7z"/>
<path d="M6207 4522 c-42 -44 -35 -92 16 -111 37 -14 73 -5 97 26 26 34 25 65
-3 91 -33 31 -77 28 -110 -6z"/>
<path d="M6482 4527 c-27 -29 -28 -57 -2 -90 24 -31 60 -40 97 -26 52 20 59
70 15 112 -36 34 -80 36 -110 4z"/>
<path d="M3551 4498 c-12 -4 -21 -11 -21 -16 0 -4 24 -36 53 -71 l52 -62 87
-3 c48 -1 93 1 99 5 8 4 -4 22 -33 50 -24 24 -53 56 -64 70 -17 23 -29 27 -86
31 -37 2 -76 0 -87 -4z"/>
<path d="M9156 4502 c-50 -3 -62 -7 -79 -30 -12 -15 -41 -47 -65 -71 -29 -28
-41 -46 -33 -50 17 -11 181 -3 196 9 8 6 33 36 56 66 55 71 42 83 -75 76z"/>
<path d="M6196 4371 c-12 -13 -16 -32 -14 -62 3 -37 7 -44 27 -47 27 -4 81 42
81 69 0 19 -44 59 -65 59 -6 0 -20 -9 -29 -19z"/>
<path d="M6536 4369 c-14 -11 -26 -28 -26 -38 0 -27 54 -73 81 -69 47 6 32
128 -16 128 -7 0 -24 -9 -39 -21z"/>
<path d="M3760 4313 c-38 -14 -73 -49 -96 -96 -21 -40 -25 -59 -20 -94 8 -57
24 -88 112 -209 82 -112 104 -157 104 -206 l-1 -33 -16 30 c-39 75 -117 122
-181 110 -115 -21 -201 -125 -158 -190 15 -23 83 -65 104 -65 5 0 7 20 5 45
-5 39 -2 47 25 75 58 57 156 34 182 -44 29 -90 -55 -214 -160 -235 -148 -30
-290 96 -290 259 0 131 107 269 210 270 76 1 122 53 56 65 -100 19 -215 -53
-275 -173 -97 -193 -46 -381 128 -467 80 -41 156 -38 263 10 46 21 118 52 160
69 55 22 78 36 78 49 0 19 -54 57 -82 57 -26 0 -29 15 -12 56 20 47 22 135 4
189 -7 22 -32 84 -56 137 -24 54 -49 119 -54 145 -14 62 2 135 42 192 25 35
28 45 17 52 -15 10 -65 11 -89 2z"/>
<path d="M8951 4311 c-11 -7 -8 -17 17 -52 41 -57 56 -129 42 -193 -6 -26 -30
-91 -54 -144 -24 -54 -50 -115 -57 -137 -17 -54 -15 -142 5 -189 17 -41 14
-56 -12 -56 -9 0 -32 -9 -49 -20 -42 -25 -44 -57 -5 -66 15 -4 80 -31 146 -61
168 -78 239 -85 338 -34 163 84 211 276 117 463 -61 120 -180 195 -278 173
-61 -13 -19 -65 54 -65 108 -1 215 -135 215 -270 0 -115 -77 -224 -182 -255
-83 -24 -149 -7 -209 54 -105 108 -77 251 48 251 36 0 50 -6 75 -30 27 -28 30
-36 25 -75 -2 -25 0 -45 5 -45 20 0 88 41 102 62 22 31 20 59 -7 99 -47 69
-141 110 -209 90 -47 -15 -93 -53 -118 -100 l-19 -36 -1 33 c0 49 22 94 104
206 88 121 104 152 112 209 8 54 -29 134 -77 167 -34 25 -106 36 -128 21z"/>
<path d="M6350 4244 c-83 -70 -80 -163 9 -249 l41 -39 41 39 c89 86 92 179 9
249 -18 14 -40 26 -50 26 -10 0 -32 -12 -50 -26z"/>
<path d="M6145 4207 c-24 -20 -26 -25 -14 -50 13 -28 47 -44 73 -34 8 3 22 18
32 32 16 25 16 27 -6 50 -29 31 -51 31 -85 2z"/>
<path d="M6572 4207 c-28 -29 -28 -38 1 -65 36 -34 73 -28 96 16 10 19 8 26
-13 47 -31 31 -56 32 -84 2z"/>
<path d="M6193 3896 c-207 -137 -408 -175 -594 -113 -73 25 -87 21 -41 -11 82
-58 111 -67 232 -67 100 0 126 4 196 28 119 41 344 176 344 207 0 26 -62 6
-137 -44z"/>
<path d="M6470 3940 c0 -31 225 -166 344 -207 70 -24 96 -28 196 -28 121 0
150 9 233 67 45 32 31 36 -42 11 -186 -62 -387 -24 -594 113 -75 50 -137 70
-137 44z"/>
<path d="M3866 3932 c-3 -5 17 -35 45 -68 89 -105 138 -239 139 -379 0 -85
-24 -221 -50 -278 -16 -36 -19 -54 -12 -75 l9 -27 20 40 c32 61 71 201 82 291
21 173 -24 314 -140 432 -56 57 -85 77 -93 64z"/>
<path d="M8888 3912 c-146 -117 -211 -282 -187 -476 11 -90 50 -230 82 -291
l20 -40 9 27 c7 20 4 38 -11 71 -29 63 -40 118 -47 232 -10 165 33 311 123
416 59 69 65 77 55 83 -5 3 -25 -7 -44 -22z"/>
<path d="M6345 3859 c-77 -56 -171 -214 -206 -346 -27 -102 -29 -255 -5 -338
18 -62 42 -99 57 -89 15 9 10 79 -8 120 -22 52 -22 189 1 273 27 101 107 248
194 356 26 33 19 38 101 -80 64 -93 116 -197 137 -276 23 -84 23 -221 1 -273
-18 -41 -23 -111 -8 -120 15 -10 40 29 56 89 23 86 21 240 -4 338 -35 133
-130 293 -207 346 -38 27 -71 27 -109 0z"/>
<path d="M6157 3754 c-15 -8 -63 -39 -105 -68 -134 -91 -276 -135 -467 -143
-108 -4 -147 -2 -232 16 -55 12 -106 21 -111 21 -6 0 -7 -13 0 -37 5 -21 12
-108 15 -193 10 -266 -38 -438 -184 -658 -30 -46 -53 -85 -52 -87 2 -2 61 30
132 70 327 186 573 224 778 119 76 -38 82 -27 57 111 -25 143 -20 342 12 455
31 109 92 229 165 325 58 75 63 85 43 85 -13 -1 -36 -8 -51 -16z m-122 -184
c-76 -152 -113 -305 -124 -523 -4 -81 -10 -150 -14 -153 -3 -3 -39 0 -81 6
-135 22 -311 -12 -530 -104 -60 -25 -112 -46 -117 -46 -4 0 12 39 37 88 24 48
55 131 69 185 24 96 45 288 45 415 0 57 2 63 18 57 34 -13 218 -17 288 -6 108
17 239 58 339 106 50 24 93 44 98 44 4 1 -9 -30 -28 -69z"/>
<path d="M5830 3468 c-30 -11 -74 -26 -97 -35 -41 -14 -43 -17 -63 -83 -34
-114 -70 -119 -78 -9 -5 72 -11 75 -121 80 -85 4 -97 -6 -87 -75 13 -82 25
-106 54 -106 31 0 90 -16 112 -30 27 -17 -18 -49 -84 -60 -32 -5 -64 -14 -72
-20 -7 -7 -18 -36 -24 -65 -6 -30 -22 -74 -34 -99 -13 -25 -21 -48 -18 -51 12
-12 62 -3 120 20 34 14 70 25 81 25 26 0 40 20 50 75 9 46 36 95 58 102 14 5
22 -19 30 -89 3 -32 9 -61 13 -63 4 -2 40 -10 79 -16 88 -15 91 -13 91 86 0
76 -9 95 -47 95 -12 0 -41 7 -64 16 -36 15 -39 19 -26 32 8 8 41 20 73 26 l59
12 37 99 c38 104 47 156 26 154 -7 -1 -38 -10 -68 -21z"/>
<path d="M6635 3685 c76 -100 137 -221 166 -331 31 -118 36 -307 11 -449 -25
-138 -19 -149 57 -111 205 105 451 67 778 -119 71 -40 130 -72 132 -70 1 2
-22 41 -52 87 -146 220 -194 392 -184 658 3 85 10 172 15 193 7 24 6 37 0 37
-5 0 -56 -9 -111 -21 -85 -18 -124 -20 -232 -16 -191 8 -333 52 -467 143 -95
65 -131 84 -158 84 -17 0 -10 -14 45 -85z m196 -89 c104 -50 236 -91 343 -107
70 -11 254 -7 289 6 15 6 17 0 17 -57 0 -127 21 -319 45 -415 14 -54 45 -137
69 -185 25 -49 41 -88 37 -88 -5 0 -57 21 -117 46 -219 92 -395 126 -530 104
-42 -6 -78 -9 -81 -6 -4 3 -10 70 -14 149 -12 225 -41 349 -114 505 -24 50
-42 92 -41 92 2 0 46 -20 97 -44z"/>
<path d="M6891 3463 c0 -16 17 -73 37 -128 l37 -99 59 -12 c32 -6 65 -18 73
-26 13 -13 10 -17 -26 -32 -23 -9 -52 -16 -64 -16 -38 0 -47 -19 -47 -95 0
-99 3 -101 91 -86 39 6 75 14 79 16 4 2 10 31 13 63 8 70 16 94 30 89 22 -7
49 -56 58 -102 10 -55 24 -75 50 -75 11 0 47 -11 81 -25 58 -23 108 -32 120
-20 3 3 -5 26 -18 51 -12 25 -28 69 -34 99 -6 29 -17 58 -24 65 -8 6 -40 15
-72 20 -66 11 -111 43 -84 60 22 14 81 30 112 30 29 0 41 24 54 106 10 69 -2
79 -87 75 -107 -5 -119 -11 -119 -65 0 -46 -16 -96 -31 -96 -14 0 -36 42 -53
102 -18 62 -3 53 -162 107 -76 26 -74 26 -73 -6z"/>
<path d="M5106 3675 c-3 -8 -1 -15 4 -15 13 0 22 18 11 24 -5 3 -11 -1 -15 -9z"/>
<path d="M7676 3682 c-3 -6 -1 -14 5 -17 14 -9 20 -2 10 14 -6 8 -11 9 -15 3z"/>
<path d="M6284 3575 c-10 -24 2 -43 46 -70 22 -14 40 -28 40 -31 0 -3 -8 -18
-19 -32 -71 -102 -97 -200 -111 -420 -13 -224 -17 -235 -94 -274 l-40 -20 25
-19 c34 -27 92 -43 124 -35 40 10 82 57 95 106 13 48 9 95 -22 250 -29 143
-29 290 0 290 4 0 18 -24 32 -53 14 -28 32 -52 40 -52 8 0 26 24 40 52 14 29
28 53 32 53 29 0 29 -147 0 -290 -31 -155 -35 -202 -22 -250 13 -49 55 -96 95
-106 32 -8 90 8 124 35 l25 19 -40 20 c-77 39 -81 50 -94 274 -14 220 -40 318
-111 420 -11 14 -19 29 -19 32 0 3 18 17 40 31 44 27 56 46 46 70 -4 12 -11
13 -33 4 -15 -6 -53 -11 -83 -11 -30 0 -68 5 -83 11 -22 9 -29 8 -33 -4z"/>
<path d="M4553 3496 c-159 -39 -318 -168 -453 -367 -41 -60 -44 -79 -11 -79
12 0 32 23 57 66 54 93 143 185 227 238 63 39 260 116 298 116 8 0 32 5 54 12
38 11 39 12 15 19 -39 11 -129 9 -187 -5z"/>
<path d="M8060 3501 c-24 -7 -23 -8 15 -19 22 -7 46 -12 54 -12 38 0 235 -77
298 -116 84 -53 173 -145 227 -238 37 -63 65 -82 81 -56 11 17 -96 161 -185
250 -92 92 -162 138 -256 171 -63 22 -193 34 -234 20z"/>
<path d="M4959 3495 c-3 -2 -47 -16 -98 -29 -130 -35 -207 -74 -282 -142 -114
-105 -101 -99 -144 -69 -80 53 -107 22 -60 -69 17 -33 39 -93 49 -131 21 -87
63 -172 96 -197 34 -25 128 -39 215 -31 40 3 101 0 140 -6 57 -10 71 -10 82 2
11 11 12 19 2 40 -7 15 -15 27 -18 27 -3 0 -17 9 -29 18 l-24 19 46 100 c25
55 51 124 57 154 13 71 2 319 -16 319 -6 0 -14 -2 -16 -5z m-33 -204 c10 -51
14 -107 11 -141 -8 -90 -57 -164 -57 -87 -1 71 -18 111 -65 154 -63 58 -103
69 -182 50 -35 -8 -63 -11 -63 -7 0 20 45 60 92 80 52 23 227 52 240 41 4 -3
14 -44 24 -90z m-240 -89 c108 -59 154 -111 154 -174 0 -82 -127 -146 -244
-124 -29 6 -40 15 -57 47 -62 122 -20 269 78 269 21 0 52 -8 69 -18z"/>
<path d="M7806 3368 c-9 -163 0 -210 60 -341 l46 -100 -24 -19 c-12 -9 -26
-18 -31 -18 -4 0 -12 -12 -18 -27 -7 -20 -6 -30 4 -40 11 -12 26 -12 82 -2 39
6 100 9 140 6 87 -8 181 6 215 31 33 25 75 110 96 197 10 38 32 98 49 131 47
91 20 122 -60 69 -43 -30 -30 -36 -144 69 -75 68 -151 106 -282 142 -52 15
-101 28 -110 31 -14 4 -17 -12 -23 -129z m279 -9 c76 -21 145 -68 145 -100 0
-3 -28 0 -62 8 -80 19 -120 8 -183 -50 -47 -43 -64 -83 -65 -154 0 -77 -49 -3
-57 87 -5 48 18 207 32 230 5 8 136 -7 190 -21z m166 -170 c47 -51 52 -155 10
-238 -17 -32 -28 -41 -57 -47 -83 -15 -194 19 -227 70 -37 56 -9 134 65 184
110 74 161 82 209 31z"/>
<path d="M3175 3291 c-11 -5 -28 -18 -39 -29 -18 -21 -18 -21 17 -42 19 -11
37 -30 40 -41 12 -45 -21 -121 -106 -247 -100 -148 -117 -195 -100 -277 46
-217 324 -302 592 -180 65 30 69 31 45 3 -36 -40 -170 -133 -242 -167 l-72
-35 -42 24 c-54 31 -108 29 -182 -4 -69 -32 -119 -35 -164 -12 -36 18 -37 26
-20 91 7 24 9 47 5 51 -12 12 -67 -18 -89 -49 -45 -63 -20 -187 46 -229 25
-15 43 -18 91 -14 55 4 58 3 40 -11 -11 -8 -96 -53 -190 -100 -256 -129 -346
-197 -434 -328 -67 -100 -95 -188 -95 -291 0 -72 4 -90 33 -148 84 -171 266
-202 349 -60 27 46 25 113 -4 146 -20 22 -83 53 -91 44 -3 -2 10 -34 27 -70
23 -46 30 -73 26 -91 -8 -30 -60 -65 -96 -65 -59 0 -127 73 -137 149 -11 79
36 132 222 253 127 83 167 124 167 172 0 42 -29 93 -72 124 -17 13 -28 27 -25
33 18 28 289 168 301 156 3 -2 -2 -17 -11 -33 -8 -16 -15 -37 -15 -48 0 -78
76 -179 145 -192 30 -5 47 -3 74 12 49 27 48 40 -3 53 -47 12 -76 33 -76 57 0
40 42 92 114 144 80 56 116 100 116 143 0 31 19 51 74 79 78 40 180 110 238
165 32 31 60 54 63 51 6 -6 -162 -348 -211 -429 -33 -55 -43 -102 -25 -114 17
-10 52 49 162 269 60 121 112 223 116 227 5 4 10 -75 11 -176 4 -195 -1 -230
-43 -295 -20 -32 -22 -44 -17 -141 l4 -105 105 31 c87 27 108 37 126 63 36 51
112 89 252 126 72 19 143 39 158 45 16 6 31 11 34 11 4 0 -84 -89 -195 -198
-111 -109 -202 -205 -202 -215 0 -45 48 -8 239 185 110 111 203 199 206 197 3
-3 -11 -41 -31 -84 -33 -71 -73 -209 -89 -307 -5 -30 -13 -41 -46 -60 -48 -27
-70 -61 -98 -153 -24 -77 -43 -111 -75 -137 -36 -30 -63 -22 -98 27 -38 54
-58 46 -58 -22 0 -39 5 -51 38 -83 71 -72 183 -79 250 -18 l22 21 0 -46 c0
-53 -45 -276 -58 -289 -5 -5 -24 0 -45 12 -90 53 -151 46 -192 -24 -13 -23
-39 -98 -56 -166 -37 -145 -56 -193 -93 -237 -81 -97 -266 -43 -266 77 0 67
63 94 163 71 20 -5 39 -5 42 -1 3 5 -11 25 -31 46 -35 34 -40 36 -86 32 -52
-5 -96 -37 -124 -90 -18 -35 -18 -111 0 -146 48 -92 183 -146 303 -122 121 25
238 110 322 235 82 122 114 227 156 510 25 173 45 243 45 162 0 -53 24 -94 70
-117 96 -49 213 -1 234 97 11 50 0 55 -51 23 -60 -38 -76 -38 -107 3 -24 31
-26 42 -26 141 0 116 -10 149 -55 184 -32 26 -33 85 -4 203 21 81 75 217 83
208 3 -2 1 -36 -4 -74 -9 -69 0 -177 18 -240 55 -185 220 -296 374 -251 63 18
118 69 218 204 67 89 110 128 159 142 26 7 36 5 60 -16 36 -30 44 -30 61 0 31
58 -32 156 -101 156 -64 0 -143 -71 -185 -166 -13 -30 -26 -54 -28 -54 -3 0
-4 45 -3 99 1 55 -2 103 -6 108 -19 18 -37 -32 -37 -101 l0 -71 -22 32 c-32
45 -72 65 -127 65 -114 0 -191 -95 -147 -181 8 -15 21 -33 29 -39 12 -10 15
-6 21 25 19 116 107 156 178 81 51 -55 32 -134 -48 -194 -31 -24 -47 -29 -93
-28 -137 1 -258 136 -284 316 -9 66 -8 81 12 146 12 39 25 72 30 72 5 0 14
-14 21 -30 16 -40 75 -90 104 -90 13 0 29 7 36 15 10 12 8 23 -16 58 -59 88
-40 213 52 338 l46 61 -28 29 c-15 16 -33 29 -40 29 -7 0 -41 -20 -76 -44 -35
-24 -84 -52 -108 -62 -64 -26 -146 -24 -193 4 -51 29 -59 28 -55 -10 3 -35 33
-62 93 -82 l39 -14 -30 -15 c-118 -61 -338 -63 -402 -4 -32 29 -69 103 -87
174 -16 60 -21 223 -7 223 4 0 16 -14 26 -31 17 -29 70 -69 92 -69 5 0 19 6
29 14 18 13 17 15 -18 45 -53 47 -71 104 -64 199 3 42 14 103 25 134 22 62 20
69 -35 97 -30 15 -27 17 -63 -38 -41 -65 -110 -128 -167 -153 -36 -16 -60 -19
-107 -15 -34 3 -69 8 -78 12 -22 9 -34 -34 -18 -65 13 -24 82 -59 118 -60 32
0 27 -14 -15 -49 -67 -55 -133 -73 -248 -69 -121 5 -185 30 -244 93 -78 85
-79 184 -1 258 29 28 48 37 73 37 45 0 99 -37 110 -77 13 -43 -20 -95 -73
-120 -46 -21 -49 -30 -14 -43 105 -40 193 56 162 178 -12 50 -58 101 -99 109
-41 8 -36 21 14 33 58 14 91 33 95 53 5 26 -32 21 -113 -13 -38 -17 -73 -30
-78 -30 -5 0 18 29 51 64 116 124 120 233 9 275 -33 13 -44 13 -72 2z m651
-950 c16 -69 70 -183 109 -229 42 -50 199 -88 319 -77 49 5 57 4 42 -6 -26
-16 -200 -74 -268 -89 l-57 -13 -48 43 c-26 23 -64 50 -83 59 l-35 16 -6 85
c-6 84 0 284 8 276 2 -2 11 -31 19 -65z"/>
<path d="M9550 3289 c-107 -44 -103 -152 12 -275 33 -35 56 -64 51 -64 -5 0
-40 13 -78 30 -81 34 -118 39 -113 13 4 -20 37 -39 96 -53 41 -11 58 -30 26
-30 -27 0 -78 -37 -98 -71 -24 -40 -25 -123 -2 -167 27 -53 91 -75 150 -52 35
13 32 22 -14 43 -53 25 -86 77 -73 120 11 40 65 77 110 77 25 0 44 -9 73 -37
104 -99 63 -246 -88 -320 -48 -23 -72 -28 -157 -31 -120 -5 -188 16 -257 78
l-43 39 30 1 c42 1 111 34 125 60 16 31 4 74 -18 65 -9 -4 -44 -9 -78 -12 -47
-4 -71 -1 -107 15 -57 25 -126 88 -167 153 -18 27 -34 49 -37 49 -5 0 -52 -25
-71 -38 -9 -6 -8 -21 9 -68 11 -32 23 -94 26 -136 7 -95 -11 -152 -64 -199
-35 -30 -36 -32 -18 -45 10 -8 24 -14 29 -14 22 0 75 40 92 69 10 17 22 31 26
31 14 0 9 -163 -7 -223 -18 -71 -55 -145 -87 -174 -64 -59 -284 -57 -402 4
l-30 15 39 14 c60 20 90 47 93 82 4 38 -4 39 -55 10 -47 -28 -129 -30 -193 -4
-24 10 -73 38 -108 62 -35 24 -69 44 -76 44 -7 0 -25 -13 -40 -29 l-28 -29 46
-61 c92 -125 111 -250 52 -338 -24 -35 -26 -46 -16 -58 7 -8 23 -15 36 -15 29
0 88 50 104 90 7 16 16 30 20 30 10 0 37 -81 46 -135 14 -92 -39 -244 -112
-318 -55 -56 -108 -81 -175 -81 -46 -1 -62 4 -93 28 -80 60 -99 139 -48 194
71 75 159 35 178 -81 6 -31 9 -35 21 -25 47 39 55 112 17 158 -74 87 -205 84
-265 -6 l-19 -29 0 71 c0 69 -18 119 -37 101 -4 -5 -7 -53 -6 -108 1 -54 0
-99 -3 -99 -2 0 -15 24 -28 54 -42 95 -121 166 -185 166 -69 0 -132 -98 -101
-156 17 -30 25 -30 61 0 24 21 34 23 60 16 49 -14 92 -53 159 -142 97 -131
155 -186 213 -203 28 -8 63 -15 78 -15 43 0 119 29 167 63 109 78 174 267 152
442 -5 38 -7 71 -5 73 7 7 43 -74 70 -158 14 -47 29 -118 32 -157 6 -70 5 -74
-21 -94 -46 -36 -56 -68 -56 -185 0 -99 -2 -110 -26 -141 -31 -41 -47 -41
-107 -3 -51 32 -62 27 -51 -23 10 -48 39 -83 84 -101 54 -21 103 -20 150 4 46
23 70 64 70 117 0 81 20 11 45 -162 42 -283 74 -388 156 -510 84 -125 201
-210 322 -235 92 -19 198 9 260 68 86 81 76 203 -22 269 -52 35 -102 31 -146
-13 -19 -19 -33 -39 -30 -44 3 -4 22 -4 42 1 100 23 163 -4 163 -71 0 -87
-100 -147 -198 -120 -75 20 -109 79 -161 280 -18 69 -43 144 -57 167 -40 69
-101 76 -191 23 -21 -12 -40 -17 -45 -12 -13 13 -58 236 -58 289 l0 46 23 -21
c66 -61 178 -54 249 18 31 31 38 45 38 77 0 22 -6 47 -13 57 -11 15 -15 13
-45 -29 -37 -52 -65 -58 -105 -21 -32 29 -50 65 -72 141 -23 81 -46 116 -94
143 -33 19 -41 30 -46 60 -16 98 -56 236 -89 307 -20 43 -34 81 -31 84 3 2 96
-86 206 -197 191 -193 239 -230 239 -185 0 10 -91 106 -202 215 -111 109 -199
198 -195 198 3 0 18 -5 34 -11 15 -6 87 -26 158 -45 140 -37 216 -75 252 -126
18 -26 39 -36 126 -63 l105 -31 4 105 c5 97 3 109 -17 141 -42 65 -47 100 -43
295 1 101 6 180 11 176 4 -4 56 -106 116 -227 110 -220 145 -279 162 -269 18
12 8 59 -25 114 -18 31 -70 128 -114 216 -117 232 -122 252 -47 174 49 -51
136 -113 235 -169 81 -45 90 -53 90 -88 0 -44 30 -81 111 -139 77 -55 119
-107 119 -147 0 -24 -29 -45 -76 -57 -51 -13 -52 -26 -3 -53 69 -38 151 4 195
99 28 58 30 89 9 129 -9 16 -14 31 -11 33 12 12 283 -128 301 -156 3 -6 -8
-20 -25 -33 -43 -31 -72 -82 -72 -124 0 -48 40 -89 167 -172 137 -89 182 -127
206 -174 35 -69 5 -166 -65 -209 -40 -24 -73 -24 -113 1 -48 29 -51 59 -13
136 17 36 30 68 27 70 -8 9 -71 -22 -91 -44 -29 -33 -31 -100 -4 -146 83 -142
266 -110 350 61 28 57 32 75 32 147 0 103 -28 191 -95 291 -88 131 -181 201
-444 333 -88 44 -169 87 -180 95 -18 14 -15 15 40 11 73 -6 112 14 141 72 24
49 24 129 1 165 -20 29 -82 67 -94 56 -4 -4 -2 -28 5 -52 17 -65 16 -73 -20
-91 -45 -23 -95 -20 -164 12 -74 33 -128 35 -182 4 l-42 -24 -72 35 c-72 34
-206 127 -242 167 -24 28 -20 27 45 -3 93 -42 174 -58 275 -53 78 3 101 8 157
36 99 49 153 124 164 226 7 68 -16 120 -119 272 -75 109 -103 179 -91 224 3
11 21 29 41 40 l35 21 -24 24 c-28 29 -74 39 -109 24z m-549 -1149 l-6 -95
-35 -16 c-19 -9 -57 -36 -83 -59 l-48 -43 -57 13 c-68 15 -242 73 -268 89 -15
10 -7 11 42 6 120 -11 277 27 319 77 33 39 90 152 103 203 26 104 26 104 33
10 3 -49 4 -133 0 -185z"/>
<path d="M5055 3092 c0 -180 -1 -190 -28 -267 -34 -96 -78 -170 -147 -249 -46
-53 -50 -60 -36 -74 14 -14 18 -14 37 4 12 10 52 66 90 123 109 164 157 314
146 454 -5 66 -38 180 -55 191 -4 2 -7 -80 -7 -182z"/>
<path d="M7725 3251 c-64 -124 -57 -304 19 -476 30 -66 142 -240 175 -269 20
-18 23 -18 37 -4 14 14 10 21 -36 74 -70 79 -124 173 -152 264 -21 67 -23 94
-23 258 1 100 0 182 -2 182 -1 0 -9 -13 -18 -29z"/>
<path d="M3710 3210 c-26 -26 -26 -62 1 -85 19 -18 21 -18 54 -1 44 24 50 41
24 77 -24 34 -51 37 -79 9z"/>
<path d="M9011 3201 c-26 -36 -20 -53 24 -77 33 -17 35 -17 54 1 27 23 27 59
1 85 -28 28 -55 25 -79 -9z"/>
<path d="M3576 3149 c-36 -28 -33 -83 5 -112 33 -24 59 -17 82 22 26 44 22 69
-15 91 -41 25 -39 25 -72 -1z"/>
<path d="M9153 3150 c-38 -22 -42 -47 -16 -91 23 -39 49 -46 82 -22 38 29 41
84 5 112 -33 26 -31 26 -71 1z"/>
<path d="M3438 3073 c-15 -10 -32 -29 -38 -44 -32 -76 87 -112 125 -38 20 38
12 65 -25 84 -35 18 -29 18 -62 -2z"/>
<path d="M9298 3075 c-35 -19 -43 -47 -23 -84 38 -75 157 -38 125 38 -6 15
-24 35 -39 44 -34 20 -29 20 -63 2z"/>
<path d="M3795 3066 c-58 -22 -78 -51 -72 -104 5 -42 53 -130 65 -118 3 4 5
25 3 47 -3 58 10 69 83 69 73 0 128 -27 164 -80 28 -42 25 -80 -6 -96 -38 -19
-45 -29 -28 -44 24 -19 81 -4 115 31 68 68 64 159 -11 223 -79 68 -230 102
-313 72z"/>
<path d="M8850 3069 c-64 -13 -144 -55 -179 -94 -54 -62 -50 -144 10 -205 34
-34 91 -49 115 -30 17 15 10 25 -28 44 -31 16 -34 54 -6 96 36 53 91 80 164
80 73 0 86 -11 83 -69 -2 -22 0 -43 3 -47 12 -12 61 76 65 120 5 38 2 48 -20
69 -42 43 -112 55 -207 36z"/>
<path d="M4257 2943 c-18 -38 -12 -59 24 -73 38 -16 59 0 59 46 0 55 -59 75
-83 27z"/>
<path d="M8478 2959 c-22 -13 -24 -72 -3 -89 12 -10 21 -10 44 0 36 14 42 35
24 73 -14 28 -36 34 -65 16z"/>
<path d="M6385 2941 c-7 -12 12 -24 25 -16 11 7 4 25 -10 25 -5 0 -11 -4 -15
-9z"/>
<path d="M4255 2805 c-29 -28 -31 -51 -9 -83 21 -31 69 -30 90 3 27 42 0 105
-46 105 -6 0 -22 -11 -35 -25z"/>
<path d="M8478 2820 c-25 -15 -33 -66 -14 -95 21 -33 69 -34 90 -3 22 32 20
55 -9 83 -26 27 -40 30 -67 15z"/>
<path d="M4607 2692 c-22 -24 -21 -45 1 -65 27 -25 58 -21 81 10 l21 26 -22
24 c-26 28 -59 30 -81 5z"/>
<path d="M8112 2687 l-22 -24 21 -26 c24 -31 59 -35 82 -9 22 24 21 45 -1 65
-26 24 -55 21 -80 -6z"/>
<path d="M5312 2676 c-30 -7 -90 -32 -135 -54 -115 -57 -262 -171 -244 -188
10 -10 63 15 89 43 32 35 182 108 270 133 128 35 271 25 392 -29 32 -14 53
-18 59 -12 12 12 -67 63 -143 92 -70 27 -213 34 -288 15z"/>
<path d="M7243 2675 c-90 -24 -203 -89 -186 -106 6 -6 30 -1 59 12 121 54 264
64 392 29 94 -26 227 -92 272 -135 19 -19 47 -37 63 -40 95 -24 -93 130 -246
200 -122 56 -244 69 -354 40z"/>
<path d="M6061 2630 c-80 -95 -116 -102 -388 -85 -148 9 -188 0 -258 -55 l-37
-29 -32 42 c-22 29 -39 42 -57 42 -27 0 -25 12 -44 -271 -10 -138 0 -169 73
-246 87 -91 183 -117 303 -82 195 57 326 261 261 407 -12 26 -25 47 -30 47
-22 0 -34 -56 -22 -100 39 -144 -107 -300 -280 -300 -82 0 -132 22 -187 82
-68 75 -80 151 -37 237 32 64 98 111 154 111 125 0 152 -187 29 -206 -21 -4
-39 -10 -39 -13 0 -4 17 -24 38 -44 30 -30 46 -37 76 -37 46 0 86 38 104 98
36 118 -16 216 -126 241 -58 12 -61 18 -18 27 50 9 88 1 239 -46 137 -42 200
-49 246 -26 44 23 99 91 107 131 7 37 -9 109 -25 119 -5 3 -27 -17 -50 -44z"/>
<path d="M6676 2648 c-28 -67 -17 -120 37 -176 72 -75 122 -79 304 -22 151 47
189 55 239 46 43 -9 40 -15 -18 -27 -111 -26 -162 -122 -126 -241 18 -61 58
-98 105 -98 32 0 46 7 76 38 20 21 37 40 37 44 0 3 -18 8 -39 12 -123 19 -96
206 29 206 56 0 122 -47 154 -111 43 -86 31 -162 -37 -237 -56 -60 -105 -82
-188 -82 -118 0 -234 78 -276 188 -14 37 -15 53 -5 98 11 55 1 114 -20 114 -5
0 -18 -21 -30 -47 -65 -146 66 -350 261 -407 120 -35 216 -9 303 82 73 77 83
108 73 246 -19 275 -18 271 -41 274 -20 3 -59 -32 -83 -75 -8 -15 -13 -13 -44
14 -65 57 -110 67 -260 58 -274 -18 -306 -10 -390 87 l-46 53 -15 -37z"/>
<path d="M4469 2655 c-33 -18 -42 -40 -27 -68 15 -29 27 -37 60 -37 27 0 68
40 68 66 0 20 -37 54 -57 54 -10 -1 -30 -7 -44 -15z"/>
<path d="M6155 2660 c-3 -5 5 -36 19 -67 13 -32 27 -71 31 -86 4 -23 17 -33
62 -53 116 -52 136 -42 97 46 -13 30 -23 62 -24 70 0 9 -25 25 -62 39 -35 13
-70 29 -78 36 -27 22 -39 26 -45 15z"/>
<path d="M6609 2652 c-13 -10 -52 -30 -86 -43 -38 -14 -63 -30 -63 -39 -1 -8
-11 -40 -24 -70 -39 -88 -19 -98 97 -46 45 20 58 30 62 53 4 15 18 54 32 86
28 66 21 89 -18 59z"/>
<path d="M8250 2650 c-25 -25 -25 -41 1 -74 20 -26 61 -35 85 -18 19 12 34 50
28 67 -7 18 -54 45 -79 45 -8 0 -24 -9 -35 -20z"/>
<path d="M4246 2628 c-9 -12 -16 -33 -16 -46 0 -34 69 -92 111 -92 19 0 59 50
59 74 0 18 -12 33 -46 55 -53 37 -87 39 -108 9z"/>
<path d="M8443 2619 c-51 -36 -56 -67 -17 -105 29 -30 57 -27 105 9 37 26 47
62 28 96 -21 37 -64 37 -116 0z"/>
<path d="M4660 2529 c-22 -5 -49 -23 -72 -48 -32 -34 -38 -47 -38 -84 0 -47
20 -84 38 -73 7 4 12 20 12 35 0 36 17 51 60 51 85 -1 173 -98 168 -185 -3
-37 -6 -40 -41 -50 -51 -14 -48 -27 7 -42 134 -34 190 73 117 222 -63 127
-159 193 -251 174z"/>
<path d="M8072 2529 c-132 -28 -263 -265 -199 -363 23 -35 75 -47 133 -33 55
15 58 28 7 42 -33 9 -38 15 -41 44 -9 92 80 191 171 191 40 0 57 -15 57 -51 0
-15 5 -31 12 -35 18 -11 38 26 38 73 0 37 -6 50 -37 84 -42 44 -87 60 -141 48z"/>
<path d="M4135 2339 c-14 -17 -23 -34 -20 -38 7 -6 27 17 46 52 15 26 4 20
-26 -14z"/>
<path d="M8648 2340 c11 -19 26 -36 32 -38 17 -6 -3 29 -31 53 l-23 20 22 -35z"/>
<path d="M5026 2261 c-7 -9 -17 -30 -21 -48 -5 -26 -2 -34 14 -42 29 -16 56
-13 74 7 18 19 22 59 9 78 -13 19 -60 23 -76 5z"/>
<path d="M7730 2272 c-30 -5 -40 -18 -40 -53 0 -48 54 -75 93 -46 13 9 16 20
11 44 -8 40 -32 60 -64 55z"/>
<path d="M4981 2105 c-38 -43 -39 -58 -5 -84 35 -28 69 -26 99 4 32 31 31 52
-2 87 -35 37 -54 35 -92 -7z"/>
<path d="M7727 2112 c-33 -35 -34 -56 -2 -87 30 -30 64 -32 99 -4 34 26 33 41
-5 84 -38 42 -57 44 -92 7z"/>
<path d="M4961 1954 c-38 -31 -41 -74 -9 -104 41 -38 99 -14 112 48 4 21 -1
33 -25 55 -36 33 -40 33 -78 1z"/>
<path d="M7760 1952 c-23 -21 -28 -33 -24 -54 14 -63 73 -87 112 -45 28 30 28
68 0 94 -38 34 -56 35 -88 5z"/>
<path d="M3348 1904 c-33 -17 -58 -62 -58 -103 0 -25 7 -34 43 -55 84 -48 123
-46 156 8 39 62 20 125 -45 152 -42 17 -62 17 -96 -2z"/>
<path d="M9354 1906 c-63 -28 -81 -91 -44 -152 34 -54 75 -56 158 -8 35 21 42
30 42 55 0 42 -25 86 -60 104 -35 18 -55 18 -96 1z"/>
<path d="M3304 1678 c-15 -24 -57 -90 -92 -148 -134 -217 -227 -346 -312 -430
-84 -85 -170 -140 -236 -154 l-32 -7 5 -142 c4 -119 2 -159 -16 -243 -24 -117
-61 -240 -124 -414 -25 -69 -44 -126 -43 -127 1 -2 43 29 92 68 299 239 489
341 697 374 l37 6 0 68 c0 168 82 314 369 656 123 147 155 191 141 193 -32 5
-74 -24 -175 -122 -120 -117 -249 -211 -381 -276 -55 -27 -104 -50 -109 -50
-9 0 2 113 21 205 23 111 78 264 138 383 56 112 77 184 57 196 -6 4 -22 -12
-37 -36z"/>
<path d="M9455 1710 c-13 -21 6 -83 61 -193 60 -118 115 -271 138 -382 19 -92
30 -205 21 -205 -5 0 -54 23 -109 50 -132 65 -262 160 -383 277 -100 98 -141
126 -173 121 -14 -2 18 -46 141 -193 287 -342 369 -488 369 -656 l0 -68 38 -6
c207 -33 397 -135 696 -374 49 -39 91 -70 92 -68 1 1 -18 58 -43 127 -63 174
-100 297 -124 414 -18 84 -20 124 -16 243 l5 142 -32 7 c-52 11 -142 63 -205
120 -100 91 -181 203 -361 494 -95 154 -104 167 -115 150z"/>
<path d="M3510 1600 c0 -61 94 -122 140 -91 12 8 10 15 -15 41 -17 18 -51 43
-77 56 l-48 24 0 -30z"/>
<path d="M9240 1605 c-25 -13 -58 -37 -75 -55 -25 -26 -27 -33 -15 -41 46 -31
140 30 140 91 0 17 -1 30 -2 30 -2 -1 -23 -12 -48 -25z"/>
<path d="M3810 1553 c-63 -53 -58 -96 19 -166 47 -43 43 -42 81 -22 66 34 88
102 51 159 -40 60 -101 72 -151 29z"/>
<path d="M8882 1566 c-58 -32 -79 -112 -41 -160 18 -23 67 -56 83 -56 13 0 88
76 102 101 18 35 7 66 -36 102 -34 29 -72 34 -108 13z"/>
</g>
</svg>
