<?xml version="1.0" standalone="no"?>
<!DOCTYPE svg PUBLIC "-//W3C//DTD SVG 20010904//EN"
 "http://www.w3.org/TR/2001/REC-SVG-20010904/DTD/svg10.dtd">
<svg version="1.0" xmlns="http://www.w3.org/2000/svg"
 width="1280.000000pt" height="1258.000000pt" viewBox="0 0 1280.000000 1258.000000"
 preserveAspectRatio="xMidYMid meet">
<metadata>
Created by potrace 1.15, written by Peter Selinger 2001-2017
</metadata>
<g transform="translate(0.000000,1258.000000) scale(0.100000,-0.100000)"
fill="#000000" stroke="none">
<path d="M2940 12565 c-328 -91 -538 -430 -590 -954 -13 -130 -13 -381 0 -531
8 -100 40 -362 44 -367 1 -1 2 85 2 190 1 151 6 220 23 322 54 310 173 551
363 731 90 85 172 140 308 206 130 62 193 108 225 162 54 92 17 175 -100 227
-64 28 -197 35 -275 14z"/>
<path d="M9707 12419 c-14 -24 -38 -80 -53 -124 -24 -68 -28 -97 -28 -190 -1
-189 43 -301 215 -545 125 -179 159 -246 159 -318 0 -57 -26 -145 -66 -225
-14 -27 -23 -51 -20 -54 3 -3 35 24 70 60 104 106 172 262 195 450 11 95 20
109 23 36 8 -206 -36 -370 -137 -510 -34 -47 -34 -49 -12 -49 37 0 168 40 233
71 74 35 155 105 188 163 71 121 91 316 47 446 -13 36 -37 90 -54 120 -43 77
-195 225 -307 300 -221 148 -361 273 -403 362 l-24 51 -26 -44z"/>
<path d="M9153 12363 c-106 -240 -185 -508 -228 -778 -22 -137 -31 -473 -16
-605 79 -693 463 -1254 1126 -1644 55 -32 150 -88 210 -124 745 -439 1260
-1010 1484 -1646 63 -178 110 -409 112 -546 0 -55 2 -61 11 -40 16 39 23 498
9 631 -76 740 -419 1401 -1138 2196 -59 65 -251 262 -427 438 -177 176 -362
367 -412 425 -462 539 -715 1092 -714 1560 1 58 5 124 9 148 5 23 6 42 4 42
-2 0 -16 -26 -30 -57z"/>
<path d="M10390 12127 c0 -2 44 -41 99 -86 54 -44 157 -141 228 -214 464 -478
744 -1028 829 -1626 8 -58 19 -193 24 -302 14 -283 46 -423 110 -484 81 -78
180 21 228 227 20 92 23 379 4 488 -125 712 -611 1375 -1417 1931 -92 63 -105
72 -105 66z"/>
<path d="M11584 11921 c-56 -24 -79 -94 -49 -151 19 -37 43 -50 95 -50 90 0
134 102 73 170 -30 33 -82 46 -119 31z"/>
<path d="M8309 11887 c-84 -32 -148 -88 -191 -170 -19 -35 -23 -58 -23 -137 0
-84 3 -101 27 -145 58 -110 163 -175 284 -175 104 0 158 22 229 94 78 79 99
135 93 244 -7 122 -67 215 -173 270 -61 31 -187 41 -246 19z"/>
<path d="M3136 11669 c-213 -200 -314 -403 -346 -698 -50 -465 217 -1033 664
-1408 415 -348 928 -507 1467 -453 214 22 572 103 729 166 85 35 180 95 180
115 0 5 -21 20 -47 31 -37 17 -67 21 -128 21 -81 -1 -124 -10 -350 -76 -209
-61 -291 -71 -560 -71 -205 0 -257 3 -357 22 -570 107 -1084 497 -1348 1022
-122 243 -179 520 -151 735 31 234 112 411 277 600 36 41 63 75 61 75 -2 0
-43 -37 -91 -81z"/>
<path d="M1285 11713 c-81 -42 -125 -113 -125 -200 1 -101 42 -163 134 -204
109 -48 235 3 287 116 48 104 0 234 -104 284 -53 26 -148 28 -192 4z"/>
<path d="M4474 11596 c-88 -41 -154 -144 -154 -242 0 -50 20 -133 46 -193 13
-29 24 -54 24 -55 0 -1 -39 0 -87 2 -147 7 -235 -33 -287 -128 -112 -207 53
-506 356 -644 140 -64 363 -100 788 -126 161 -10 400 -14 400 -6 0 2 -23 70
-50 151 -166 485 -321 844 -425 982 -168 224 -439 339 -611 259z"/>
<path d="M11962 11560 c-47 -29 -72 -76 -72 -135 0 -93 62 -155 156 -155 90 0
156 66 156 155 0 55 -26 101 -72 132 -43 30 -121 31 -168 3z"/>
<path d="M1703 11296 c-134 -44 -224 -164 -224 -300 0 -82 13 -131 51 -188 35
-53 81 -90 148 -121 64 -29 178 -29 244 0 62 28 134 96 166 158 23 43 27 62
27 140 0 75 -4 98 -24 140 -32 64 -93 124 -156 154 -61 29 -170 37 -232 17z"/>
<path d="M7264 11095 c-164 -35 -293 -149 -353 -311 -21 -54 -55 -223 -47
-231 2 -2 20 26 41 62 54 97 150 195 238 241 72 39 73 39 187 39 106 0 119 -2
173 -28 32 -16 85 -54 118 -84 170 -158 206 -449 124 -1002 -28 -188 -32 -335
-11 -443 15 -79 48 -173 70 -204 12 -16 12 -11 0 36 -26 101 -15 201 56 513
86 376 125 705 101 860 -42 275 -238 501 -478 552 -82 18 -138 18 -219 0z"/>
<path d="M8249 11032 c-126 -66 -157 -230 -64 -339 133 -155 385 -58 385 149
0 166 -172 268 -321 190z"/>
<path d="M12295 11025 c-51 -18 -101 -72 -115 -124 -15 -56 1 -111 47 -161 97
-108 271 -54 298 91 16 84 -45 177 -130 198 -53 13 -51 13 -100 -4z"/>
<path d="M10570 10861 c-58 -19 -110 -53 -153 -101 -138 -153 -89 -401 98
-498 73 -37 179 -42 260 -11 207 78 272 345 123 513 -60 69 -125 99 -223 102
-44 2 -91 0 -105 -5z"/>
<path d="M3267 10729 c-74 -57 -46 -234 67 -432 70 -123 154 -233 256 -336
214 -217 449 -355 727 -428 102 -26 120 -28 318 -28 195 0 217 2 317 27 197
50 362 120 548 233 138 83 200 132 193 151 -3 9 -12 13 -22 9 -59 -24 -136
-47 -224 -67 -88 -20 -129 -23 -302 -22 -167 0 -216 4 -299 22 -361 80 -679
259 -1026 577 -192 176 -328 272 -424 300 -67 20 -98 19 -129 -6z"/>
<path d="M2212 10534 c-18 -10 -45 -33 -60 -52 -35 -47 -38 -135 -6 -179 35
-47 82 -73 131 -73 95 0 154 55 161 149 4 62 -17 105 -70 144 -36 27 -114 32
-156 11z"/>
<path d="M966 10449 c-489 -52 -823 -261 -931 -584 -79 -234 -4 -495 143 -495
80 0 144 68 224 239 76 164 91 191 152 280 138 202 350 354 607 435 177 57
276 70 516 71 116 0 211 1 210 2 -5 4 -308 44 -407 53 -132 11 -399 11 -514
-1z"/>
<path d="M6747 10440 c-163 -41 -271 -212 -237 -376 17 -83 61 -164 120 -223
107 -107 238 -150 735 -240 70 -13 132 -31 170 -51 l60 -30 -48 45 c-69 64
-170 109 -343 154 -273 71 -407 133 -490 225 -100 110 -96 273 8 373 45 43
136 83 205 90 l58 6 -32 14 c-43 17 -159 25 -206 13z"/>
<path d="M12450 10417 c-163 -45 -224 -245 -112 -369 20 -23 55 -49 77 -59 52
-24 138 -24 191 0 52 24 108 90 124 147 48 169 -110 327 -280 281z"/>
<path d="M8510 10337 c-49 -26 -90 -90 -90 -140 0 -45 35 -109 72 -134 94 -62
217 -16 247 94 27 98 -58 203 -165 203 -11 0 -40 -10 -64 -23z"/>
<path d="M5845 9871 c-70 -32 -125 -113 -125 -187 0 -12 5 -36 11 -55 66 -195
336 -187 389 13 42 155 -127 297 -275 229z"/>
<path d="M8305 9757 c-89 -43 -169 -147 -202 -262 -27 -93 -27 -695 0 -722 8
-7 207 65 382 139 254 108 347 177 407 304 67 143 37 274 -77 325 -58 27 -116
22 -206 -15 -14 -6 -17 2 -21 56 -2 35 -12 80 -23 101 -42 87 -161 121 -260
74z"/>
<path d="M12457 9659 c-227 -55 -297 -329 -125 -484 174 -157 447 -46 465 189
14 184 -163 338 -340 295z"/>
<path d="M2270 9584 c-266 -49 -431 -113 -585 -227 l-70 -51 67 -13 c251 -46
571 -193 1058 -485 255 -153 355 -206 520 -271 324 -130 565 -174 894 -164
150 4 217 11 312 31 298 63 597 206 849 406 84 67 288 260 281 267 -2 2 -43
-16 -92 -40 -381 -189 -832 -250 -1223 -166 -218 48 -369 117 -647 300 -316
207 -590 331 -859 389 -77 17 -143 22 -290 25 -104 2 -201 1 -215 -1z"/>
<path d="M6520 9574 c0 -5 37 -17 83 -28 178 -39 375 -134 554 -267 111 -83
293 -256 376 -359 552 -684 575 -1610 72 -2850 -182 -449 -574 -1221 -774
-1524 -301 -457 -443 -1024 -402 -1606 22 -308 100 -740 138 -768 25 -18 27
-3 9 75 -55 250 -83 600 -66 855 22 343 86 603 216 873 64 136 129 237 298
464 84 113 161 219 171 234 43 67 266 219 450 308 264 128 498 177 795 166
395 -15 764 -146 1093 -390 168 -124 376 -347 497 -532 l52 -80 -6 44 c-18
120 -77 227 -220 398 -223 269 -501 491 -791 633 -163 80 -266 118 -431 156
-110 26 -135 28 -334 28 -170 1 -234 -3 -305 -17 -117 -24 -260 -70 -362 -117
l-81 -38 93 182 c289 560 464 1108 527 1651 16 141 16 521 0 645 -59 450 -213
823 -469 1140 -79 97 -265 278 -373 362 -196 151 -419 272 -608 327 -112 33
-202 49 -202 35z"/>
<path d="M843 9315 c-97 -26 -175 -93 -216 -184 -29 -65 -29 -188 0 -253 30
-66 95 -133 162 -165 76 -38 190 -39 268 -4 62 28 136 103 166 169 33 73 31
189 -6 264 -39 80 -111 142 -194 168 -75 23 -108 24 -180 5z"/>
<path d="M6351 9326 c2 -2 41 -30 86 -63 264 -189 445 -428 508 -673 8 -30 21
-120 30 -200 37 -325 77 -423 257 -616 108 -116 141 -160 185 -249 77 -151
109 -328 101 -543 -4 -78 -2 -128 2 -115 13 32 56 255 71 363 20 141 17 489
-4 625 -108 684 -507 1170 -1201 1459 -22 9 -38 15 -35 12z"/>
<path d="M6090 9108 c-36 -33 -114 -102 -175 -153 -654 -546 -1282 -787 -1915
-736 -344 28 -572 76 -1165 246 -638 183 -813 217 -1105 217 -293 0 -528 -56
-781 -186 -88 -45 -229 -132 -229 -141 0 -3 21 5 48 19 400 202 800 253 1247
160 163 -34 342 -87 715 -209 614 -202 896 -267 1290 -296 386 -28 748 48
1130 237 179 89 385 221 550 353 58 46 187 166 288 266 l182 182 0 52 c0 28
-3 51 -7 51 -5 -1 -37 -28 -73 -62z"/>
<path d="M6556 8871 c-89 -361 -261 -782 -460 -1130 -181 -316 -227 -448 -229
-656 -1 -237 60 -443 235 -788 126 -250 147 -294 190 -402 136 -349 217 -806
221 -1259 1 -96 5 -172 9 -168 15 14 37 125 47 234 7 66 10 278 9 508 -2 370
-1 402 19 510 12 63 34 155 48 204 27 93 91 243 100 234 3 -3 1 -17 -4 -31
-17 -43 -51 -234 -67 -372 -18 -146 -33 -1175 -18 -1175 5 0 29 60 54 132 44
130 160 376 300 633 143 266 194 437 221 754 22 261 -4 388 -178 861 -175 479
-268 754 -302 891 -63 257 -118 624 -141 934 -7 88 -15 170 -19 181 -4 15 -15
-14 -35 -95z"/>
<path d="M155 8965 c-104 -56 -144 -176 -92 -276 62 -116 214 -144 312 -57 73
63 87 193 29 265 -51 63 -78 77 -152 81 -48 2 -76 -2 -97 -13z"/>
<path d="M6238 8891 c-6 -18 -234 -224 -348 -315 -250 -200 -401 -301 -728
-485 -281 -158 -369 -213 -532 -327 -175 -121 -290 -217 -395 -325 -141 -146
-220 -277 -271 -446 -23 -75 -27 -112 -31 -253 -2 -91 0 -185 4 -210 9 -45 9
-44 31 72 55 291 143 463 329 638 93 88 185 156 383 279 428 266 546 351 901
651 205 173 480 437 600 576 62 72 79 99 79 123 0 29 -14 43 -22 22z"/>
<path d="M8895 8815 c-242 -53 -400 -214 -496 -507 -72 -222 -98 -431 -109
-903 -11 -466 -31 -626 -116 -970 -68 -270 -211 -660 -329 -895 -26 -51 -44
-94 -42 -97 7 -6 153 162 209 242 110 155 174 285 268 545 65 181 101 249 168
321 83 90 175 127 248 99 l27 -11 -6 138 c-6 150 -29 260 -73 350 l-25 53 44
57 c140 180 163 354 97 728 -52 295 -55 328 -42 407 18 102 55 173 131 248 73
73 184 137 286 165 91 25 94 28 45 36 -70 12 -219 9 -285 -6z"/>
<path d="M12278 8778 c-49 -13 -116 -72 -139 -122 -26 -57 -25 -145 2 -198 59
-116 191 -160 306 -103 115 58 160 192 103 305 -52 101 -160 148 -272 118z"/>
<path d="M9675 8667 c-202 -52 -351 -226 -459 -534 -72 -208 -126 -524 -141
-823 -3 -63 -8 -142 -11 -175 -3 -33 -3 -57 0 -54 4 3 19 60 35 125 100 405
249 714 436 899 169 168 346 214 576 151 114 -31 159 -33 189 -8 69 56 -49
236 -223 340 -123 74 -292 107 -402 79z"/>
<path d="M1672 8370 c-40 -9 -82 -46 -82 -72 0 -57 90 -146 205 -202 158 -77
367 -132 617 -162 264 -32 757 -19 1078 30 99 15 109 12 -173 61 -338 59 -815
170 -1203 280 -241 69 -356 85 -442 65z"/>
<path d="M10744 8049 c-123 -47 -204 -165 -204 -295 0 -104 22 -158 94 -230
77 -77 132 -98 244 -92 88 4 143 27 205 86 91 87 122 227 76 347 -61 162 -252
247 -415 184z"/>
<path d="M12055 8016 c-126 -56 -128 -254 -2 -315 56 -27 102 -27 157 2 131
65 130 245 -1 313 -35 17 -114 18 -154 0z"/>
<path d="M1246 8005 c-88 -34 -166 -128 -200 -241 -10 -33 -19 -65 -21 -71 -3
-8 -24 8 -51 37 -97 104 -229 138 -339 86 -132 -61 -203 -217 -192 -421 9
-165 64 -306 178 -451 117 -150 690 -698 724 -693 30 5 277 730 337 990 30
134 30 314 -1 424 -42 150 -130 276 -227 325 -60 30 -152 36 -208 15z"/>
<path d="M9720 7723 c-131 -45 -260 -175 -363 -363 -34 -64 -127 -287 -127
-307 0 -5 46 36 103 92 109 110 216 186 303 216 59 21 158 25 214 9 76 -22
160 -98 226 -205 12 -20 2 -13 -31 22 -66 69 -120 93 -212 93 -85 0 -168 -27
-270 -88 -66 -39 -238 -177 -278 -222 l-20 -23 20 6 c11 4 59 20 107 37 294
103 463 25 618 -283 79 -157 159 -226 286 -246 54 -8 183 1 204 14 6 3 -4 30
-20 59 -62 109 -95 231 -135 496 -55 365 -92 476 -194 584 -48 51 -96 81 -170
106 -74 24 -195 26 -261 3z"/>
<path d="M3279 7697 c-62 -33 -100 -97 -100 -168 0 -66 10 -96 51 -142 86 -98
246 -84 315 28 25 41 30 59 30 111 0 54 -5 69 -31 106 -61 87 -171 114 -265
65z"/>
<path d="M5242 7670 c-244 -50 -345 -348 -180 -534 59 -68 125 -98 223 -104
103 -5 174 20 240 84 70 67 100 140 99 239 0 68 -5 89 -29 138 -64 129 -215
205 -353 177z"/>
<path d="M4015 7598 c-538 -303 -802 -710 -764 -1178 15 -179 94 -382 185
-476 72 -74 124 -81 150 -18 21 51 17 125 -17 284 -40 188 -50 422 -25 570 19
109 64 246 111 341 87 172 245 361 399 477 38 29 65 52 60 51 -5 0 -49 -23
-99 -51z"/>
<path d="M2447 7319 c-85 -20 -172 -91 -215 -174 -36 -72 -42 -179 -13 -256
29 -75 88 -141 159 -176 50 -24 69 -28 147 -28 78 0 97 4 140 27 62 32 130
104 158 166 29 65 30 188 0 253 -66 145 -223 224 -376 188z"/>
<path d="M11245 6816 c-52 -24 -112 -83 -140 -136 l-16 -31 -37 32 c-54 48
-116 72 -186 71 -214 -1 -325 -224 -220 -440 43 -88 266 -297 520 -488 64 -49
77 -55 89 -43 26 26 234 380 284 483 68 139 84 202 79 295 -13 209 -200 338
-373 257z"/>
<path d="M5015 6815 c-217 -39 -397 -150 -504 -310 -92 -138 -127 -276 -118
-470 7 -141 31 -243 88 -363 73 -158 179 -278 297 -338 52 -26 67 -29 157 -29
89 0 106 3 151 27 28 14 73 47 100 72 l49 46 -68 -45 c-81 -53 -131 -69 -215
-68 -113 1 -220 73 -311 208 -158 237 -188 583 -70 816 45 91 153 195 249 242
220 108 469 103 648 -12 312 -202 547 -751 661 -1546 56 -389 73 -806 58
-1425 -8 -318 -8 -471 1 -608 12 -173 39 -422 48 -431 13 -13 12 20 -1 145
-26 247 -29 491 -10 851 21 409 17 1183 -9 1453 -58 603 -155 993 -322 1297
-209 379 -523 553 -879 488z"/>
<path d="M9080 6719 c8 -5 56 -32 105 -60 319 -181 615 -461 839 -797 97 -145
217 -387 285 -572 91 -245 149 -344 200 -338 103 12 41 403 -114 726 -61 127
-159 282 -245 387 -84 103 -262 270 -371 348 -164 117 -429 239 -659 301 -30
8 -48 11 -40 5z"/>
<path d="M4929 6477 c-97 -27 -194 -125 -220 -220 -19 -71 -7 -185 26 -246 58
-106 162 -166 285 -166 333 2 444 453 148 604 -76 38 -164 49 -239 28z"/>
<path d="M8800 6256 c-30 -7 -66 -18 -78 -25 -46 -25 -104 -85 -130 -135 -22
-43 -27 -64 -27 -131 0 -68 4 -89 28 -137 30 -62 74 -105 140 -140 61 -32 193
-33 258 0 226 111 231 429 9 539 -76 37 -125 44 -200 29z"/>
<path d="M1686 6226 c-136 -50 -180 -224 -83 -328 86 -93 245 -81 314 23 39
59 44 147 11 209 -45 83 -156 127 -242 96z"/>
<path d="M5503 5999 c-169 -83 -163 -332 9 -403 148 -62 308 47 308 210 0 43
-37 130 -66 156 -64 57 -178 74 -251 37z"/>
<path d="M2586 5940 c-139 -35 -269 -147 -399 -340 -73 -110 -121 -164 -188
-214 -80 -60 -155 -87 -262 -95 l-87 -6 79 -62 c353 -279 727 -439 984 -420
132 10 206 41 434 183 164 102 284 161 413 203 106 35 287 78 368 87 99 13 63
24 -75 24 -218 0 -419 -28 -853 -119 -80 -17 -201 -37 -270 -46 -141 -17 -465
-21 -475 -5 -4 6 26 10 82 10 151 0 372 43 686 134 189 55 306 75 472 83 114
5 274 -5 364 -22 14 -3 -1 7 -34 22 -188 85 -380 202 -610 371 -216 159 -337
212 -495 218 -52 2 -112 -1 -134 -6z"/>
<path d="M9476 5825 c-88 -31 -136 -99 -136 -192 0 -91 52 -162 139 -192 158
-53 312 121 242 274 -23 51 -79 101 -128 114 -49 14 -69 13 -117 -4z"/>
<path d="M5744 5311 c-83 -39 -115 -131 -75 -215 74 -152 301 -100 301 69 0
121 -118 197 -226 146z"/>
<path d="M9853 5270 c-31 -13 -63 -68 -63 -108 0 -114 130 -163 207 -78 90 98
-18 236 -144 186z"/>
<path d="M3980 5024 c-252 -39 -536 -175 -765 -365 -142 -119 -148 -137 -37
-101 153 49 238 39 483 -56 317 -124 452 -121 749 18 210 98 337 130 512 130
153 0 301 -40 414 -112 128 -81 -75 88 -235 197 -367 248 -747 346 -1121 289z"/>
<path d="M8085 4925 c-425 -78 -786 -335 -1090 -775 l-59 -85 64 64 c131 128
309 209 507 232 113 13 212 7 373 -23 70 -13 158 -21 225 -22 192 0 297 41
515 204 198 148 292 186 443 178 45 -2 72 1 74 8 6 17 -193 110 -329 155 -173
57 -316 79 -501 78 -84 0 -183 -7 -222 -14z"/>
<path d="M5824 4730 c-27 -11 -72 -65 -80 -96 -20 -78 38 -162 118 -171 88
-10 158 50 158 137 0 99 -103 168 -196 130z"/>
<path d="M4760 4464 c-80 -10 -199 -38 -265 -61 -329 -117 -624 -403 -798
-773 -109 -231 -161 -456 -126 -547 14 -37 26 -43 60 -31 53 18 127 120 239
328 287 535 608 824 1040 937 75 20 128 26 255 30 151 5 218 -1 365 -32 44 -9
-62 36 -165 70 -150 51 -291 76 -440 80 -71 2 -146 1 -165 -1z"/>
<path d="M4924 4111 c-127 -35 -265 -118 -344 -208 -110 -124 -120 -216 -23
-198 21 4 97 38 168 75 183 96 249 115 405 115 104 0 137 -4 194 -23 156 -52
290 -147 406 -287 l33 -40 -38 70 c-130 243 -312 424 -487 485 -91 31 -223 36
-314 11z"/>
<path d="M5857 4090 c-81 -64 1 -193 92 -145 59 30 68 89 22 136 -35 35 -77
38 -114 9z"/>
<path d="M7240 3988 c-55 -38 -74 -72 -74 -133 0 -91 65 -155 158 -155 121 0
192 120 136 229 -40 79 -148 107 -220 59z"/>
<path d="M7890 3969 c-132 -53 -136 -256 -7 -318 56 -27 102 -27 157 2 131 65
130 245 -1 313 -32 16 -112 18 -149 3z"/>
<path d="M8374 3671 c-52 -24 -108 -90 -124 -147 -27 -96 16 -204 104 -258 41
-26 58 -30 116 -30 58 0 75 4 116 30 123 76 149 236 56 345 -46 53 -101 79
-172 79 -32 0 -72 -8 -96 -19z"/>
<path d="M5929 3535 c-54 -29 -60 -107 -12 -145 37 -29 79 -26 114 9 46 46 37
106 -21 136 -35 18 -47 18 -81 0z"/>
<path d="M7140 3534 c-231 -62 -398 -266 -495 -603 -19 -68 -34 -126 -31 -128
2 -2 17 25 34 61 142 303 408 472 712 452 52 -3 138 -17 190 -30 137 -35 177
-40 211 -26 47 20 39 54 -29 121 -139 134 -404 203 -592 153z"/>
<path d="M4435 3360 c-114 -25 -199 -73 -274 -156 -148 -161 -170 -421 -54
-624 69 -120 278 -343 534 -570 184 -164 249 -234 290 -315 l31 -60 -7 44
c-25 156 -99 274 -304 486 -230 237 -351 405 -401 555 -31 93 -25 212 15 293
53 107 166 187 294 208 98 15 236 -12 350 -71 l44 -22 -22 30 c-48 68 -165
151 -256 182 -69 24 -181 33 -240 20z"/>
<path d="M5092 3109 c-31 -12 -77 -43 -110 -74 l-57 -54 65 27 c87 36 204 38
266 5 59 -31 110 -95 124 -154 31 -130 -39 -262 -272 -506 -82 -87 -115 -130
-142 -186 -37 -78 -54 -133 -36 -122 5 3 10 12 10 18 0 23 77 105 218 232 160
143 282 282 321 365 22 47 26 69 26 150 0 109 -21 166 -85 230 -82 82 -222
111 -328 69z"/>
<path d="M7110 3077 c-93 -31 -154 -71 -224 -142 -104 -106 -170 -243 -196
-407 -18 -109 -8 -355 20 -483 28 -129 99 -348 162 -494 50 -117 209 -433 215
-427 2 1 -6 29 -17 62 -36 102 -99 343 -130 491 -95 456 -88 811 20 1038 39
82 125 175 204 221 117 68 159 132 100 154 -39 15 -83 12 -154 -13z"/>
<path d="M8580 3061 c-163 -53 -246 -236 -176 -387 48 -103 126 -156 243 -162
60 -3 80 0 125 20 68 31 115 79 146 147 21 45 24 64 20 125 -5 80 -24 124 -77
179 -53 57 -104 80 -186 83 -38 2 -81 0 -95 -5z"/>
<path d="M8001 2958 c-56 -187 -258 -432 -482 -586 -259 -177 -369 -378 -369
-673 0 -92 25 -258 40 -273 7 -7 10 -5 10 3 0 25 72 196 112 263 45 78 133
177 183 207 41 24 43 20 11 -22 -80 -106 -166 -381 -166 -528 l0 -38 53 15
c374 110 607 385 684 808 21 113 23 430 5 561 -17 118 -52 288 -61 298 -4 4
-13 -12 -20 -35z"/>
<path d="M5803 2629 c-47 -14 -103 -70 -103 -104 l0 -28 79 7 c51 5 93 3 118
-4 92 -28 188 -128 268 -280 47 -89 49 -79 8 55 -40 131 -89 223 -153 286 -73
74 -133 92 -217 68z"/>
<path d="M5741 2105 c-133 -38 -264 -128 -332 -229 -41 -61 -47 -84 -27 -104
20 -20 57 -14 149 28 137 62 222 81 347 81 193 0 346 -58 537 -203 l30 -23
-34 60 c-106 190 -240 322 -382 377 -72 27 -213 34 -288 13z"/>
<path d="M5300 1430 c154 -418 341 -705 548 -841 105 -69 156 -84 282 -84 92
1 114 4 175 29 74 30 204 113 269 171 l39 35 -28 22 c-52 43 -150 99 -200 114
-68 21 -172 29 -219 15 -22 -6 -41 -9 -43 -7 -11 11 58 70 115 98 59 29 75 33
147 32 86 -1 170 -27 260 -80 l46 -26 -7 28 c-28 119 -122 299 -199 382 -121
131 -238 158 -450 103 -365 -96 -607 -79 -727 52 l-39 42 31 -85z"/>
<path d="M6400 274 c-32 -13 -71 -60 -81 -98 -21 -77 34 -160 115 -173 100
-16 188 85 157 180 -19 57 -62 90 -123 93 -29 2 -60 1 -68 -2z"/>
</g>
</svg>
